<?xml version="1.0" encoding="utf-8" standalone="no"?>
<!DOCTYPE svg PUBLIC "-//W3C//DTD SVG 1.1//EN"
  "http://www.w3.org/Graphics/SVG/1.1/DTD/svg11.dtd">
<!-- Created with matplotlib (https://matplotlib.org/) -->
<svg height="345.6pt" version="1.1" viewBox="0 0 460.8 345.6" width="460.8pt" xmlns="http://www.w3.org/2000/svg" xmlns:xlink="http://www.w3.org/1999/xlink">
 <defs>
  <style type="text/css">
*{stroke-linecap:butt;stroke-linejoin:round;}
  </style>
 </defs>
 <g id="figure_1">
  <g id="patch_1">
   <path d="M 0 345.6 
L 460.8 345.6 
L 460.8 0 
L 0 0 
z
" style="fill:#ffffff;"/>
  </g>
  <g id="axes_1">
   <g id="patch_2">
    <path d="M 57.6 307.584 
L 414.72 307.584 
L 414.72 41.472 
L 57.6 41.472 
z
" style="fill:#ffffff;"/>
   </g>
   <g id="matplotlib.axis_1">
    <g id="xtick_1">
     <g id="line2d_1">
      <defs>
       <path d="M 0 0 
L 0 3.5 
" id="m4c1f94ae09" style="stroke:#000000;stroke-width:0.8;"/>
      </defs>
      <g>
       <use style="stroke:#000000;stroke-width:0.8;" x="73.832727" xlink:href="#m4c1f94ae09" y="307.584"/>
      </g>
     </g>
     <g id="text_1">
      <!-- 0 -->
      <defs>
       <path d="M 31.78125 66.40625 
Q 24.171875 66.40625 20.328125 58.90625 
Q 16.5 51.421875 16.5 36.375 
Q 16.5 21.390625 20.328125 13.890625 
Q 24.171875 6.390625 31.78125 6.390625 
Q 39.453125 6.390625 43.28125 13.890625 
Q 47.125 21.390625 47.125 36.375 
Q 47.125 51.421875 43.28125 58.90625 
Q 39.453125 66.40625 31.78125 66.40625 
z
M 31.78125 74.21875 
Q 44.046875 74.21875 50.515625 64.515625 
Q 56.984375 54.828125 56.984375 36.375 
Q 56.984375 17.96875 50.515625 8.265625 
Q 44.046875 -1.421875 31.78125 -1.421875 
Q 19.53125 -1.421875 13.0625 8.265625 
Q 6.59375 17.96875 6.59375 36.375 
Q 6.59375 54.828125 13.0625 64.515625 
Q 19.53125 74.21875 31.78125 74.21875 
z
" id="DejaVuSans-48"/>
      </defs>
      <g transform="translate(70.651477 322.182437)scale(0.1 -0.1)">
       <use xlink:href="#DejaVuSans-48"/>
      </g>
     </g>
    </g>
    <g id="xtick_2">
     <g id="line2d_2">
      <g>
       <use style="stroke:#000000;stroke-width:0.8;" x="138.622395" xlink:href="#m4c1f94ae09" y="307.584"/>
      </g>
     </g>
     <g id="text_2">
      <!-- 50 -->
      <defs>
       <path d="M 10.796875 72.90625 
L 49.515625 72.90625 
L 49.515625 64.59375 
L 19.828125 64.59375 
L 19.828125 46.734375 
Q 21.96875 47.46875 24.109375 47.828125 
Q 26.265625 48.1875 28.421875 48.1875 
Q 40.625 48.1875 47.75 41.5 
Q 54.890625 34.8125 54.890625 23.390625 
Q 54.890625 11.625 47.5625 5.09375 
Q 40.234375 -1.421875 26.90625 -1.421875 
Q 22.3125 -1.421875 17.546875 -0.640625 
Q 12.796875 0.140625 7.71875 1.703125 
L 7.71875 11.625 
Q 12.109375 9.234375 16.796875 8.0625 
Q 21.484375 6.890625 26.703125 6.890625 
Q 35.15625 6.890625 40.078125 11.328125 
Q 45.015625 15.765625 45.015625 23.390625 
Q 45.015625 31 40.078125 35.4375 
Q 35.15625 39.890625 26.703125 39.890625 
Q 22.75 39.890625 18.8125 39.015625 
Q 14.890625 38.140625 10.796875 36.28125 
z
" id="DejaVuSans-53"/>
      </defs>
      <g transform="translate(132.259895 322.182437)scale(0.1 -0.1)">
       <use xlink:href="#DejaVuSans-53"/>
       <use x="63.623047" xlink:href="#DejaVuSans-48"/>
      </g>
     </g>
    </g>
    <g id="xtick_3">
     <g id="line2d_3">
      <g>
       <use style="stroke:#000000;stroke-width:0.8;" x="203.412062" xlink:href="#m4c1f94ae09" y="307.584"/>
      </g>
     </g>
     <g id="text_3">
      <!-- 100 -->
      <defs>
       <path d="M 12.40625 8.296875 
L 28.515625 8.296875 
L 28.515625 63.921875 
L 10.984375 60.40625 
L 10.984375 69.390625 
L 28.421875 72.90625 
L 38.28125 72.90625 
L 38.28125 8.296875 
L 54.390625 8.296875 
L 54.390625 0 
L 12.40625 0 
z
" id="DejaVuSans-49"/>
      </defs>
      <g transform="translate(193.868312 322.182437)scale(0.1 -0.1)">
       <use xlink:href="#DejaVuSans-49"/>
       <use x="63.623047" xlink:href="#DejaVuSans-48"/>
       <use x="127.246094" xlink:href="#DejaVuSans-48"/>
      </g>
     </g>
    </g>
    <g id="xtick_4">
     <g id="line2d_4">
      <g>
       <use style="stroke:#000000;stroke-width:0.8;" x="268.20173" xlink:href="#m4c1f94ae09" y="307.584"/>
      </g>
     </g>
     <g id="text_4">
      <!-- 150 -->
      <g transform="translate(258.65798 322.182437)scale(0.1 -0.1)">
       <use xlink:href="#DejaVuSans-49"/>
       <use x="63.623047" xlink:href="#DejaVuSans-53"/>
       <use x="127.246094" xlink:href="#DejaVuSans-48"/>
      </g>
     </g>
    </g>
    <g id="xtick_5">
     <g id="line2d_5">
      <g>
       <use style="stroke:#000000;stroke-width:0.8;" x="332.991398" xlink:href="#m4c1f94ae09" y="307.584"/>
      </g>
     </g>
     <g id="text_5">
      <!-- 200 -->
      <defs>
       <path d="M 19.1875 8.296875 
L 53.609375 8.296875 
L 53.609375 0 
L 7.328125 0 
L 7.328125 8.296875 
Q 12.9375 14.109375 22.625 23.890625 
Q 32.328125 33.6875 34.8125 36.53125 
Q 39.546875 41.84375 41.421875 45.53125 
Q 43.3125 49.21875 43.3125 52.78125 
Q 43.3125 58.59375 39.234375 62.25 
Q 35.15625 65.921875 28.609375 65.921875 
Q 23.96875 65.921875 18.8125 64.3125 
Q 13.671875 62.703125 7.8125 59.421875 
L 7.8125 69.390625 
Q 13.765625 71.78125 18.9375 73 
Q 24.125 74.21875 28.421875 74.21875 
Q 39.75 74.21875 46.484375 68.546875 
Q 53.21875 62.890625 53.21875 53.421875 
Q 53.21875 48.921875 51.53125 44.890625 
Q 49.859375 40.875 45.40625 35.40625 
Q 44.1875 33.984375 37.640625 27.21875 
Q 31.109375 20.453125 19.1875 8.296875 
z
" id="DejaVuSans-50"/>
      </defs>
      <g transform="translate(323.447648 322.182437)scale(0.1 -0.1)">
       <use xlink:href="#DejaVuSans-50"/>
       <use x="63.623047" xlink:href="#DejaVuSans-48"/>
       <use x="127.246094" xlink:href="#DejaVuSans-48"/>
      </g>
     </g>
    </g>
    <g id="xtick_6">
     <g id="line2d_6">
      <g>
       <use style="stroke:#000000;stroke-width:0.8;" x="397.781065" xlink:href="#m4c1f94ae09" y="307.584"/>
      </g>
     </g>
     <g id="text_6">
      <!-- 250 -->
      <g transform="translate(388.237315 322.182437)scale(0.1 -0.1)">
       <use xlink:href="#DejaVuSans-50"/>
       <use x="63.623047" xlink:href="#DejaVuSans-53"/>
       <use x="127.246094" xlink:href="#DejaVuSans-48"/>
      </g>
     </g>
    </g>
    <g id="text_7">
     <!-- Time (in seconds) -->
     <defs>
      <path d="M -0.296875 72.90625 
L 61.375 72.90625 
L 61.375 64.59375 
L 35.5 64.59375 
L 35.5 0 
L 25.59375 0 
L 25.59375 64.59375 
L -0.296875 64.59375 
z
" id="DejaVuSans-84"/>
      <path d="M 9.421875 54.6875 
L 18.40625 54.6875 
L 18.40625 0 
L 9.421875 0 
z
M 9.421875 75.984375 
L 18.40625 75.984375 
L 18.40625 64.59375 
L 9.421875 64.59375 
z
" id="DejaVuSans-105"/>
      <path d="M 52 44.1875 
Q 55.375 50.25 60.0625 53.125 
Q 64.75 56 71.09375 56 
Q 79.640625 56 84.28125 50.015625 
Q 88.921875 44.046875 88.921875 33.015625 
L 88.921875 0 
L 79.890625 0 
L 79.890625 32.71875 
Q 79.890625 40.578125 77.09375 44.375 
Q 74.3125 48.1875 68.609375 48.1875 
Q 61.625 48.1875 57.5625 43.546875 
Q 53.515625 38.921875 53.515625 30.90625 
L 53.515625 0 
L 44.484375 0 
L 44.484375 32.71875 
Q 44.484375 40.625 41.703125 44.40625 
Q 38.921875 48.1875 33.109375 48.1875 
Q 26.21875 48.1875 22.15625 43.53125 
Q 18.109375 38.875 18.109375 30.90625 
L 18.109375 0 
L 9.078125 0 
L 9.078125 54.6875 
L 18.109375 54.6875 
L 18.109375 46.1875 
Q 21.1875 51.21875 25.484375 53.609375 
Q 29.78125 56 35.6875 56 
Q 41.65625 56 45.828125 52.96875 
Q 50 49.953125 52 44.1875 
z
" id="DejaVuSans-109"/>
      <path d="M 56.203125 29.59375 
L 56.203125 25.203125 
L 14.890625 25.203125 
Q 15.484375 15.921875 20.484375 11.0625 
Q 25.484375 6.203125 34.421875 6.203125 
Q 39.59375 6.203125 44.453125 7.46875 
Q 49.3125 8.734375 54.109375 11.28125 
L 54.109375 2.78125 
Q 49.265625 0.734375 44.1875 -0.34375 
Q 39.109375 -1.421875 33.890625 -1.421875 
Q 20.796875 -1.421875 13.15625 6.1875 
Q 5.515625 13.8125 5.515625 26.8125 
Q 5.515625 40.234375 12.765625 48.109375 
Q 20.015625 56 32.328125 56 
Q 43.359375 56 49.78125 48.890625 
Q 56.203125 41.796875 56.203125 29.59375 
z
M 47.21875 32.234375 
Q 47.125 39.59375 43.09375 43.984375 
Q 39.0625 48.390625 32.421875 48.390625 
Q 24.90625 48.390625 20.390625 44.140625 
Q 15.875 39.890625 15.1875 32.171875 
z
" id="DejaVuSans-101"/>
      <path id="DejaVuSans-32"/>
      <path d="M 31 75.875 
Q 24.46875 64.65625 21.28125 53.65625 
Q 18.109375 42.671875 18.109375 31.390625 
Q 18.109375 20.125 21.3125 9.0625 
Q 24.515625 -2 31 -13.1875 
L 23.1875 -13.1875 
Q 15.875 -1.703125 12.234375 9.375 
Q 8.59375 20.453125 8.59375 31.390625 
Q 8.59375 42.28125 12.203125 53.3125 
Q 15.828125 64.359375 23.1875 75.875 
z
" id="DejaVuSans-40"/>
      <path d="M 54.890625 33.015625 
L 54.890625 0 
L 45.90625 0 
L 45.90625 32.71875 
Q 45.90625 40.484375 42.875 44.328125 
Q 39.84375 48.1875 33.796875 48.1875 
Q 26.515625 48.1875 22.3125 43.546875 
Q 18.109375 38.921875 18.109375 30.90625 
L 18.109375 0 
L 9.078125 0 
L 9.078125 54.6875 
L 18.109375 54.6875 
L 18.109375 46.1875 
Q 21.34375 51.125 25.703125 53.5625 
Q 30.078125 56 35.796875 56 
Q 45.21875 56 50.046875 50.171875 
Q 54.890625 44.34375 54.890625 33.015625 
z
" id="DejaVuSans-110"/>
      <path d="M 44.28125 53.078125 
L 44.28125 44.578125 
Q 40.484375 46.53125 36.375 47.5 
Q 32.28125 48.484375 27.875 48.484375 
Q 21.1875 48.484375 17.84375 46.4375 
Q 14.5 44.390625 14.5 40.28125 
Q 14.5 37.15625 16.890625 35.375 
Q 19.28125 33.59375 26.515625 31.984375 
L 29.59375 31.296875 
Q 39.15625 29.25 43.1875 25.515625 
Q 47.21875 21.78125 47.21875 15.09375 
Q 47.21875 7.46875 41.1875 3.015625 
Q 35.15625 -1.421875 24.609375 -1.421875 
Q 20.21875 -1.421875 15.453125 -0.5625 
Q 10.6875 0.296875 5.421875 2 
L 5.421875 11.28125 
Q 10.40625 8.6875 15.234375 7.390625 
Q 20.0625 6.109375 24.8125 6.109375 
Q 31.15625 6.109375 34.5625 8.28125 
Q 37.984375 10.453125 37.984375 14.40625 
Q 37.984375 18.0625 35.515625 20.015625 
Q 33.0625 21.96875 24.703125 23.78125 
L 21.578125 24.515625 
Q 13.234375 26.265625 9.515625 29.90625 
Q 5.8125 33.546875 5.8125 39.890625 
Q 5.8125 47.609375 11.28125 51.796875 
Q 16.75 56 26.8125 56 
Q 31.78125 56 36.171875 55.265625 
Q 40.578125 54.546875 44.28125 53.078125 
z
" id="DejaVuSans-115"/>
      <path d="M 48.78125 52.59375 
L 48.78125 44.1875 
Q 44.96875 46.296875 41.140625 47.34375 
Q 37.3125 48.390625 33.40625 48.390625 
Q 24.65625 48.390625 19.8125 42.84375 
Q 14.984375 37.3125 14.984375 27.296875 
Q 14.984375 17.28125 19.8125 11.734375 
Q 24.65625 6.203125 33.40625 6.203125 
Q 37.3125 6.203125 41.140625 7.25 
Q 44.96875 8.296875 48.78125 10.40625 
L 48.78125 2.09375 
Q 45.015625 0.34375 40.984375 -0.53125 
Q 36.96875 -1.421875 32.421875 -1.421875 
Q 20.0625 -1.421875 12.78125 6.34375 
Q 5.515625 14.109375 5.515625 27.296875 
Q 5.515625 40.671875 12.859375 48.328125 
Q 20.21875 56 33.015625 56 
Q 37.15625 56 41.109375 55.140625 
Q 45.0625 54.296875 48.78125 52.59375 
z
" id="DejaVuSans-99"/>
      <path d="M 30.609375 48.390625 
Q 23.390625 48.390625 19.1875 42.75 
Q 14.984375 37.109375 14.984375 27.296875 
Q 14.984375 17.484375 19.15625 11.84375 
Q 23.34375 6.203125 30.609375 6.203125 
Q 37.796875 6.203125 41.984375 11.859375 
Q 46.1875 17.53125 46.1875 27.296875 
Q 46.1875 37.015625 41.984375 42.703125 
Q 37.796875 48.390625 30.609375 48.390625 
z
M 30.609375 56 
Q 42.328125 56 49.015625 48.375 
Q 55.71875 40.765625 55.71875 27.296875 
Q 55.71875 13.875 49.015625 6.21875 
Q 42.328125 -1.421875 30.609375 -1.421875 
Q 18.84375 -1.421875 12.171875 6.21875 
Q 5.515625 13.875 5.515625 27.296875 
Q 5.515625 40.765625 12.171875 48.375 
Q 18.84375 56 30.609375 56 
z
" id="DejaVuSans-111"/>
      <path d="M 45.40625 46.390625 
L 45.40625 75.984375 
L 54.390625 75.984375 
L 54.390625 0 
L 45.40625 0 
L 45.40625 8.203125 
Q 42.578125 3.328125 38.25 0.953125 
Q 33.9375 -1.421875 27.875 -1.421875 
Q 17.96875 -1.421875 11.734375 6.484375 
Q 5.515625 14.40625 5.515625 27.296875 
Q 5.515625 40.1875 11.734375 48.09375 
Q 17.96875 56 27.875 56 
Q 33.9375 56 38.25 53.625 
Q 42.578125 51.265625 45.40625 46.390625 
z
M 14.796875 27.296875 
Q 14.796875 17.390625 18.875 11.75 
Q 22.953125 6.109375 30.078125 6.109375 
Q 37.203125 6.109375 41.296875 11.75 
Q 45.40625 17.390625 45.40625 27.296875 
Q 45.40625 37.203125 41.296875 42.84375 
Q 37.203125 48.484375 30.078125 48.484375 
Q 22.953125 48.484375 18.875 42.84375 
Q 14.796875 37.203125 14.796875 27.296875 
z
" id="DejaVuSans-100"/>
      <path d="M 8.015625 75.875 
L 15.828125 75.875 
Q 23.140625 64.359375 26.78125 53.3125 
Q 30.421875 42.28125 30.421875 31.390625 
Q 30.421875 20.453125 26.78125 9.375 
Q 23.140625 -1.703125 15.828125 -13.1875 
L 8.015625 -13.1875 
Q 14.5 -2 17.703125 9.0625 
Q 20.90625 20.125 20.90625 31.390625 
Q 20.90625 42.671875 17.703125 53.65625 
Q 14.5 64.65625 8.015625 75.875 
z
" id="DejaVuSans-41"/>
     </defs>
     <g transform="translate(191.6975 335.860562)scale(0.1 -0.1)">
      <use xlink:href="#DejaVuSans-84"/>
      <use x="61.037109" xlink:href="#DejaVuSans-105"/>
      <use x="88.820312" xlink:href="#DejaVuSans-109"/>
      <use x="186.232422" xlink:href="#DejaVuSans-101"/>
      <use x="247.755859" xlink:href="#DejaVuSans-32"/>
      <use x="279.542969" xlink:href="#DejaVuSans-40"/>
      <use x="318.556641" xlink:href="#DejaVuSans-105"/>
      <use x="346.339844" xlink:href="#DejaVuSans-110"/>
      <use x="409.71875" xlink:href="#DejaVuSans-32"/>
      <use x="441.505859" xlink:href="#DejaVuSans-115"/>
      <use x="493.605469" xlink:href="#DejaVuSans-101"/>
      <use x="555.128906" xlink:href="#DejaVuSans-99"/>
      <use x="610.109375" xlink:href="#DejaVuSans-111"/>
      <use x="671.291016" xlink:href="#DejaVuSans-110"/>
      <use x="734.669922" xlink:href="#DejaVuSans-100"/>
      <use x="798.146484" xlink:href="#DejaVuSans-115"/>
      <use x="850.246094" xlink:href="#DejaVuSans-41"/>
     </g>
    </g>
   </g>
   <g id="matplotlib.axis_2">
    <g id="ytick_1">
     <g id="line2d_7">
      <defs>
       <path d="M 0 0 
L -3.5 0 
" id="m2d5fb1d369" style="stroke:#000000;stroke-width:0.8;"/>
      </defs>
      <g>
       <use style="stroke:#000000;stroke-width:0.8;" x="57.6" xlink:href="#m2d5fb1d369" y="303.854872"/>
      </g>
     </g>
     <g id="text_8">
      <!-- −2 -->
      <defs>
       <path d="M 10.59375 35.5 
L 73.1875 35.5 
L 73.1875 27.203125 
L 10.59375 27.203125 
z
" id="DejaVuSans-8722"/>
      </defs>
      <g transform="translate(35.857813 307.654091)scale(0.1 -0.1)">
       <use xlink:href="#DejaVuSans-8722"/>
       <use x="83.789062" xlink:href="#DejaVuSans-50"/>
      </g>
     </g>
    </g>
    <g id="ytick_2">
     <g id="line2d_8">
      <g>
       <use style="stroke:#000000;stroke-width:0.8;" x="57.6" xlink:href="#m2d5fb1d369" y="261.457269"/>
      </g>
     </g>
     <g id="text_9">
      <!-- 0 -->
      <g transform="translate(44.2375 265.256487)scale(0.1 -0.1)">
       <use xlink:href="#DejaVuSans-48"/>
      </g>
     </g>
    </g>
    <g id="ytick_3">
     <g id="line2d_9">
      <g>
       <use style="stroke:#000000;stroke-width:0.8;" x="57.6" xlink:href="#m2d5fb1d369" y="219.059665"/>
      </g>
     </g>
     <g id="text_10">
      <!-- 2 -->
      <g transform="translate(44.2375 222.858883)scale(0.1 -0.1)">
       <use xlink:href="#DejaVuSans-50"/>
      </g>
     </g>
    </g>
    <g id="ytick_4">
     <g id="line2d_10">
      <g>
       <use style="stroke:#000000;stroke-width:0.8;" x="57.6" xlink:href="#m2d5fb1d369" y="176.662061"/>
      </g>
     </g>
     <g id="text_11">
      <!-- 4 -->
      <defs>
       <path d="M 37.796875 64.3125 
L 12.890625 25.390625 
L 37.796875 25.390625 
z
M 35.203125 72.90625 
L 47.609375 72.90625 
L 47.609375 25.390625 
L 58.015625 25.390625 
L 58.015625 17.1875 
L 47.609375 17.1875 
L 47.609375 0 
L 37.796875 0 
L 37.796875 17.1875 
L 4.890625 17.1875 
L 4.890625 26.703125 
z
" id="DejaVuSans-52"/>
      </defs>
      <g transform="translate(44.2375 180.461279)scale(0.1 -0.1)">
       <use xlink:href="#DejaVuSans-52"/>
      </g>
     </g>
    </g>
    <g id="ytick_5">
     <g id="line2d_11">
      <g>
       <use style="stroke:#000000;stroke-width:0.8;" x="57.6" xlink:href="#m2d5fb1d369" y="134.264457"/>
      </g>
     </g>
     <g id="text_12">
      <!-- 6 -->
      <defs>
       <path d="M 33.015625 40.375 
Q 26.375 40.375 22.484375 35.828125 
Q 18.609375 31.296875 18.609375 23.390625 
Q 18.609375 15.53125 22.484375 10.953125 
Q 26.375 6.390625 33.015625 6.390625 
Q 39.65625 6.390625 43.53125 10.953125 
Q 47.40625 15.53125 47.40625 23.390625 
Q 47.40625 31.296875 43.53125 35.828125 
Q 39.65625 40.375 33.015625 40.375 
z
M 52.59375 71.296875 
L 52.59375 62.3125 
Q 48.875 64.0625 45.09375 64.984375 
Q 41.3125 65.921875 37.59375 65.921875 
Q 27.828125 65.921875 22.671875 59.328125 
Q 17.53125 52.734375 16.796875 39.40625 
Q 19.671875 43.65625 24.015625 45.921875 
Q 28.375 48.1875 33.59375 48.1875 
Q 44.578125 48.1875 50.953125 41.515625 
Q 57.328125 34.859375 57.328125 23.390625 
Q 57.328125 12.15625 50.6875 5.359375 
Q 44.046875 -1.421875 33.015625 -1.421875 
Q 20.359375 -1.421875 13.671875 8.265625 
Q 6.984375 17.96875 6.984375 36.375 
Q 6.984375 53.65625 15.1875 63.9375 
Q 23.390625 74.21875 37.203125 74.21875 
Q 40.921875 74.21875 44.703125 73.484375 
Q 48.484375 72.75 52.59375 71.296875 
z
" id="DejaVuSans-54"/>
      </defs>
      <g transform="translate(44.2375 138.063675)scale(0.1 -0.1)">
       <use xlink:href="#DejaVuSans-54"/>
      </g>
     </g>
    </g>
    <g id="ytick_6">
     <g id="line2d_12">
      <g>
       <use style="stroke:#000000;stroke-width:0.8;" x="57.6" xlink:href="#m2d5fb1d369" y="91.866853"/>
      </g>
     </g>
     <g id="text_13">
      <!-- 8 -->
      <defs>
       <path d="M 31.78125 34.625 
Q 24.75 34.625 20.71875 30.859375 
Q 16.703125 27.09375 16.703125 20.515625 
Q 16.703125 13.921875 20.71875 10.15625 
Q 24.75 6.390625 31.78125 6.390625 
Q 38.8125 6.390625 42.859375 10.171875 
Q 46.921875 13.96875 46.921875 20.515625 
Q 46.921875 27.09375 42.890625 30.859375 
Q 38.875 34.625 31.78125 34.625 
z
M 21.921875 38.8125 
Q 15.578125 40.375 12.03125 44.71875 
Q 8.5 49.078125 8.5 55.328125 
Q 8.5 64.0625 14.71875 69.140625 
Q 20.953125 74.21875 31.78125 74.21875 
Q 42.671875 74.21875 48.875 69.140625 
Q 55.078125 64.0625 55.078125 55.328125 
Q 55.078125 49.078125 51.53125 44.71875 
Q 48 40.375 41.703125 38.8125 
Q 48.828125 37.15625 52.796875 32.3125 
Q 56.78125 27.484375 56.78125 20.515625 
Q 56.78125 9.90625 50.3125 4.234375 
Q 43.84375 -1.421875 31.78125 -1.421875 
Q 19.734375 -1.421875 13.25 4.234375 
Q 6.78125 9.90625 6.78125 20.515625 
Q 6.78125 27.484375 10.78125 32.3125 
Q 14.796875 37.15625 21.921875 38.8125 
z
M 18.3125 54.390625 
Q 18.3125 48.734375 21.84375 45.5625 
Q 25.390625 42.390625 31.78125 42.390625 
Q 38.140625 42.390625 41.71875 45.5625 
Q 45.3125 48.734375 45.3125 54.390625 
Q 45.3125 60.0625 41.71875 63.234375 
Q 38.140625 66.40625 31.78125 66.40625 
Q 25.390625 66.40625 21.84375 63.234375 
Q 18.3125 60.0625 18.3125 54.390625 
z
" id="DejaVuSans-56"/>
      </defs>
      <g transform="translate(44.2375 95.666071)scale(0.1 -0.1)">
       <use xlink:href="#DejaVuSans-56"/>
      </g>
     </g>
    </g>
    <g id="ytick_7">
     <g id="line2d_13">
      <g>
       <use style="stroke:#000000;stroke-width:0.8;" x="57.6" xlink:href="#m2d5fb1d369" y="49.469249"/>
      </g>
     </g>
     <g id="text_14">
      <!-- 10 -->
      <g transform="translate(37.875 53.268467)scale(0.1 -0.1)">
       <use xlink:href="#DejaVuSans-49"/>
       <use x="63.623047" xlink:href="#DejaVuSans-48"/>
      </g>
     </g>
    </g>
    <g id="text_15">
     <!-- Magnitude -->
     <defs>
      <path d="M 9.8125 72.90625 
L 24.515625 72.90625 
L 43.109375 23.296875 
L 61.8125 72.90625 
L 76.515625 72.90625 
L 76.515625 0 
L 66.890625 0 
L 66.890625 64.015625 
L 48.09375 14.015625 
L 38.1875 14.015625 
L 19.390625 64.015625 
L 19.390625 0 
L 9.8125 0 
z
" id="DejaVuSans-77"/>
      <path d="M 34.28125 27.484375 
Q 23.390625 27.484375 19.1875 25 
Q 14.984375 22.515625 14.984375 16.5 
Q 14.984375 11.71875 18.140625 8.90625 
Q 21.296875 6.109375 26.703125 6.109375 
Q 34.1875 6.109375 38.703125 11.40625 
Q 43.21875 16.703125 43.21875 25.484375 
L 43.21875 27.484375 
z
M 52.203125 31.203125 
L 52.203125 0 
L 43.21875 0 
L 43.21875 8.296875 
Q 40.140625 3.328125 35.546875 0.953125 
Q 30.953125 -1.421875 24.3125 -1.421875 
Q 15.921875 -1.421875 10.953125 3.296875 
Q 6 8.015625 6 15.921875 
Q 6 25.140625 12.171875 29.828125 
Q 18.359375 34.515625 30.609375 34.515625 
L 43.21875 34.515625 
L 43.21875 35.40625 
Q 43.21875 41.609375 39.140625 45 
Q 35.0625 48.390625 27.6875 48.390625 
Q 23 48.390625 18.546875 47.265625 
Q 14.109375 46.140625 10.015625 43.890625 
L 10.015625 52.203125 
Q 14.9375 54.109375 19.578125 55.046875 
Q 24.21875 56 28.609375 56 
Q 40.484375 56 46.34375 49.84375 
Q 52.203125 43.703125 52.203125 31.203125 
z
" id="DejaVuSans-97"/>
      <path d="M 45.40625 27.984375 
Q 45.40625 37.75 41.375 43.109375 
Q 37.359375 48.484375 30.078125 48.484375 
Q 22.859375 48.484375 18.828125 43.109375 
Q 14.796875 37.75 14.796875 27.984375 
Q 14.796875 18.265625 18.828125 12.890625 
Q 22.859375 7.515625 30.078125 7.515625 
Q 37.359375 7.515625 41.375 12.890625 
Q 45.40625 18.265625 45.40625 27.984375 
z
M 54.390625 6.78125 
Q 54.390625 -7.171875 48.1875 -13.984375 
Q 42 -20.796875 29.203125 -20.796875 
Q 24.46875 -20.796875 20.265625 -20.09375 
Q 16.0625 -19.390625 12.109375 -17.921875 
L 12.109375 -9.1875 
Q 16.0625 -11.328125 19.921875 -12.34375 
Q 23.78125 -13.375 27.78125 -13.375 
Q 36.625 -13.375 41.015625 -8.765625 
Q 45.40625 -4.15625 45.40625 5.171875 
L 45.40625 9.625 
Q 42.625 4.78125 38.28125 2.390625 
Q 33.9375 0 27.875 0 
Q 17.828125 0 11.671875 7.65625 
Q 5.515625 15.328125 5.515625 27.984375 
Q 5.515625 40.671875 11.671875 48.328125 
Q 17.828125 56 27.875 56 
Q 33.9375 56 38.28125 53.609375 
Q 42.625 51.21875 45.40625 46.390625 
L 45.40625 54.6875 
L 54.390625 54.6875 
z
" id="DejaVuSans-103"/>
      <path d="M 18.3125 70.21875 
L 18.3125 54.6875 
L 36.8125 54.6875 
L 36.8125 47.703125 
L 18.3125 47.703125 
L 18.3125 18.015625 
Q 18.3125 11.328125 20.140625 9.421875 
Q 21.96875 7.515625 27.59375 7.515625 
L 36.8125 7.515625 
L 36.8125 0 
L 27.59375 0 
Q 17.1875 0 13.234375 3.875 
Q 9.28125 7.765625 9.28125 18.015625 
L 9.28125 47.703125 
L 2.6875 47.703125 
L 2.6875 54.6875 
L 9.28125 54.6875 
L 9.28125 70.21875 
z
" id="DejaVuSans-116"/>
      <path d="M 8.5 21.578125 
L 8.5 54.6875 
L 17.484375 54.6875 
L 17.484375 21.921875 
Q 17.484375 14.15625 20.5 10.265625 
Q 23.53125 6.390625 29.59375 6.390625 
Q 36.859375 6.390625 41.078125 11.03125 
Q 45.3125 15.671875 45.3125 23.6875 
L 45.3125 54.6875 
L 54.296875 54.6875 
L 54.296875 0 
L 45.3125 0 
L 45.3125 8.40625 
Q 42.046875 3.421875 37.71875 1 
Q 33.40625 -1.421875 27.6875 -1.421875 
Q 18.265625 -1.421875 13.375 4.4375 
Q 8.5 10.296875 8.5 21.578125 
z
M 31.109375 56 
z
" id="DejaVuSans-117"/>
     </defs>
     <g transform="translate(29.778125 201.017844)rotate(-90)scale(0.1 -0.1)">
      <use xlink:href="#DejaVuSans-77"/>
      <use x="86.279297" xlink:href="#DejaVuSans-97"/>
      <use x="147.558594" xlink:href="#DejaVuSans-103"/>
      <use x="211.035156" xlink:href="#DejaVuSans-110"/>
      <use x="274.414062" xlink:href="#DejaVuSans-105"/>
      <use x="302.197266" xlink:href="#DejaVuSans-116"/>
      <use x="341.40625" xlink:href="#DejaVuSans-117"/>
      <use x="404.785156" xlink:href="#DejaVuSans-100"/>
      <use x="468.261719" xlink:href="#DejaVuSans-101"/>
     </g>
    </g>
   </g>
   <g id="line2d_14">
    <path clip-path="url(#p48174a92cb)" d="M 73.832727 54.342196 
L 90.319106 54.266665 
L 90.854269 54.507822 
L 91.379065 54.369225 
L 91.638224 54.44872 
L 92.170795 54.270629 
L 92.703366 54.189692 
L 92.976778 54.204574 
L 93.229458 53.967189 
L 93.758142 54.011516 
L 94.036737 54.025168 
L 94.569308 54.449822 
L 95.107063 53.712783 
L 95.635746 54.06127 
L 95.889722 54.062414 
L 96.170909 54.204298 
L 96.42618 54.510811 
L 96.957455 54.281144 
L 97.233459 54.542461 
L 98.020006 54.396507 
L 98.83506 54.359388 
L 99.090331 54.316164 
L 99.368927 54.408358 
L 101.484957 54.124908 
L 101.750595 54.200122 
L 102.2728 54.055673 
L 102.555283 53.922757 
L 102.815737 54.032757 
L 103.087854 53.928565 
L 103.61265 54.103031 
L 104.679088 53.982198 
L 104.92788 54.061609 
L 105.20518 53.926901 
L 105.45786 54.069611 
L 107.597215 54.042848 
L 107.873219 54.283348 
L 109.188449 54.35004 
L 110.006095 54.060316 
L 110.775796 54.03422 
L 111.309663 54.252313 
L 111.586962 54.37338 
L 111.840938 54.801892 
L 112.903488 54.731745 
L 113.180788 54.937988 
L 113.438651 54.769818 
L 113.713359 54.975298 
L 114.502497 54.48762 
L 114.779797 54.534236 
L 115.308481 54.394048 
L 115.563752 54.525523 
L 115.841052 54.311246 
L 116.371032 54.350167 
L 116.903603 54.386078 
L 117.156282 54.219497 
L 117.97004 54.236563 
L 118.224016 54.170401 
L 118.50909 54.36278 
L 119.036478 54.398013 
L 119.287862 54.660496 
L 119.816546 54.587869 
L 120.347821 54.688394 
L 120.888167 54.312009 
L 121.420738 54.168408 
L 121.694151 54.282129 
L 122.231905 54.086602 
L 122.759293 54.203683 
L 124.071931 54.429207 
L 124.350527 54.517425 
L 124.614869 54.333759 
L 124.893464 54.470407 
L 125.143552 54.421798 
L 125.426035 54.48638 
L 125.665757 54.322078 
L 126.20092 54.457263 
L 126.47822 54.370475 
L 127.015974 54.528067 
L 127.539474 54.722471 
L 128.608504 54.686253 
L 129.388572 54.829493 
L 131.266176 55.033002 
L 131.516264 55.206885 
L 131.793564 55.055621 
L 132.324839 55.509614 
L 132.581406 55.352467 
L 133.112681 55.423102 
L 133.643957 55.752298 
L 134.176528 55.849601 
L 134.457715 56.380291 
L 134.707803 55.972469 
L 134.985103 56.194653 
L 135.240374 56.188548 
L 135.776833 55.46957 
L 136.051541 55.44093 
L 136.300333 55.096831 
L 136.832904 54.783661 
L 137.1115 54.41389 
L 137.368067 54.356654 
L 137.644071 54.498898 
L 137.901934 54.262255 
L 138.431913 54.097583 
L 138.709213 53.827786 
L 139.49576 53.837029 
L 140.318588 53.865032 
L 140.834314 54.11096 
L 141.366885 54.043441 
L 142.153432 54.422476 
L 142.434619 54.561328 
L 143.221166 54.596773 
L 143.498465 54.652398 
L 143.747257 54.58842 
L 144.558424 54.669442 
L 145.877542 54.665987 
L 146.951755 54.492178 
L 147.477847 54.180788 
L 152.004053 54.077169 
L 153.069195 54.183014 
L 154.918292 54.416201 
L 155.194296 54.373464 
L 155.982139 54.550973 
L 156.265917 54.544348 
L 156.521188 54.726446 
L 157.044689 54.384318 
L 157.582443 54.455991 
L 158.384539 54.233128 
L 158.641107 53.913238 
L 158.93266 53.990699 
L 159.16979 53.786427 
L 159.453569 53.890916 
L 159.714023 53.739705 
L 160.763616 53.71133 
L 162.106058 53.826705 
L 162.360033 53.888351 
L 162.638629 53.824203 
L 163.172496 53.951142 
L 164.235046 53.92848 
L 164.771505 53.930176 
L 165.02548 53.876416 
L 165.305372 53.989872 
L 165.554164 53.843664 
L 166.093214 54.004372 
L 166.373105 54.260496 
L 166.615419 54.137331 
L 166.904381 54.335879 
L 167.153173 54.249494 
L 167.690927 54.342133 
L 168.503389 54.232174 
L 169.555574 54.4091 
L 169.810845 54.307451 
L 170.615533 54.562876 
L 170.885058 54.595469 
L 171.154583 54.74915 
L 171.420221 54.765133 
L 171.679379 54.623229 
L 172.214542 54.687631 
L 172.748409 54.316567 
L 173.534955 54.213095 
L 174.064935 54.238322 
L 175.406081 54.191748 
L 175.941243 54.132879 
L 177.007681 54.261725 
L 178.084486 54.583258 
L 178.317728 54.561498 
L 179.126304 54.845519 
L 179.390645 54.818745 
L 179.915442 55.033574 
L 180.191445 54.961265 
L 180.448013 55.01051 
L 180.972809 54.682734 
L 182.574409 54.251359 
L 183.104389 54.64076 
L 183.910373 54.452811 
L 184.449422 54.323562 
L 184.703398 53.992225 
L 185.233377 53.796836 
L 186.571932 53.820621 
L 189.76995 53.961254 
L 194.805403 53.694255 
L 199.334201 53.935582 
L 202.53481 54.601521 
L 202.777124 54.835662 
L 203.308399 54.931502 
L 203.844858 55.256628 
L 204.650841 55.091659 
L 204.906112 55.207234 
L 205.186004 55.094033 
L 205.97255 54.536186 
L 206.505121 54.283179 
L 207.846267 53.919301 
L 208.096355 53.991292 
L 208.628927 53.973337 
L 209.691477 53.97586 
L 210.225344 54.228634 
L 210.501348 54.129381 
L 210.754028 54.337045 
L 211.28919 54.255493 
L 211.820466 54.271668 
L 212.099061 54.135847 
L 212.350445 54.261874 
L 212.631632 54.134003 
L 212.88172 54.28691 
L 213.415587 54.16578 
L 213.695479 54.290704 
L 213.945567 54.07401 
L 214.225458 54.26022 
L 214.482025 54.260242 
L 215.0133 54.384467 
L 216.60583 54.109539 
L 216.884426 53.839064 
L 217.428659 53.938338 
L 217.678747 53.842074 
L 218.734819 54.126689 
L 219.016006 54.079967 
L 219.264798 54.221829 
L 219.549873 54.218183 
L 220.085036 54.462054 
L 220.337715 54.396635 
L 220.605945 54.494361 
L 220.862512 54.358964 
L 221.135924 54.548927 
L 221.923766 54.176962 
L 222.732341 54.133791 
L 222.986317 53.915252 
L 223.266208 54.048381 
L 223.517592 54.02273 
L 223.800075 53.863082 
L 225.395197 54.063983 
L 225.649172 54.291255 
L 226.185631 54.321252 
L 226.713019 54.313133 
L 227.529368 54.196497 
L 227.779457 54.291616 
L 228.314619 53.908914 
L 228.848486 54.273088 
L 229.12449 54.057814 
L 232.028363 54.328163 
L 233.097392 54.081748 
L 233.369509 54.069664 
L 234.158647 54.400832 
L 234.686035 54.841184 
L 234.968518 54.835195 
L 235.221198 55.216668 
L 235.753769 55.019816 
L 236.287636 54.36596 
L 236.821502 54.050713 
L 237.096211 54.217971 
L 237.34889 54.071911 
L 237.627486 54.15359 
L 237.884053 54.014272 
L 238.157466 54.117807 
L 238.411441 53.965705 
L 238.688741 54.184986 
L 238.944012 54.078059 
L 239.21872 54.376051 
L 239.476583 54.18965 
L 239.752587 54.130675 
L 240.01045 54.254158 
L 240.286454 54.226112 
L 240.543021 54.388706 
L 240.817729 54.430404 
L 241.069113 54.35447 
L 241.346413 54.409926 
L 241.60298 54.203429 
L 242.669418 54.252822 
L 242.949309 54.423748 
L 243.199397 54.362399 
L 243.729377 54.616063 
L 244.01186 54.380248 
L 244.539248 54.566458 
L 245.073115 54.404351 
L 245.328386 54.409736 
L 245.85707 54.119418 
L 246.139552 54.262234 
L 246.392232 54.104876 
L 247.200807 54.038968 
L 248.263358 53.983279 
L 248.516038 54.175828 
L 248.792041 54.128173 
L 249.048609 54.236096 
L 249.334979 54.093852 
L 250.391051 54.574153 
L 250.924917 54.488277 
L 251.189259 54.513429 
L 251.717943 54.187996 
L 251.99913 54.130039 
L 252.514856 54.298781 
L 253.051314 54.29912 
L 253.582589 54.252059 
L 254.111273 54.214198 
L 256.240262 54.324644 
L 256.491646 54.178139 
L 256.770241 54.282903 
L 257.305404 54.029747 
L 257.555492 54.37268 
L 258.364067 54.319195 
L 258.616747 54.147528 
L 259.154501 54.233658 
L 260.504717 54.150601 
L 261.280898 54.174408 
L 262.088177 54.21282 
L 262.344744 54.115867 
L 263.159798 54.245932 
L 263.405999 54.118803 
L 263.94764 54.075346 
L 264.231419 54.35871 
L 264.753624 54.224755 
L 265.014078 54.298315 
L 265.534987 54.14545 
L 266.066263 54.219943 
L 266.342267 54.344083 
L 267.128813 54.355573 
L 267.413888 54.645996 
L 267.665272 54.67807 
L 268.730414 55.18027 
L 269.005122 55.166215 
L 269.262985 55.010149 
L 269.538989 55.065436 
L 269.786485 54.911638 
L 270.066377 54.910472 
L 270.319056 54.797695 
L 270.601539 54.919906 
L 271.128927 55.55074 
L 271.381607 55.469379 
L 272.445453 54.312136 
L 273.517074 54.000705 
L 274.853038 53.897721 
L 275.384313 53.767306 
L 276.700839 53.753399 
L 277.239889 53.924919 
L 277.769868 54.122068 
L 278.043281 54.152085 
L 279.116198 54.930039 
L 279.637106 55.033468 
L 280.170973 54.307388 
L 280.973069 54.06712 
L 282.552641 53.986523 
L 294.786227 53.931766 
L 296.126077 53.926318 
L 296.910032 54.289263 
L 297.718607 54.168239 
L 297.972582 53.990614 
L 299.044203 53.735804 
L 299.847595 53.583003 
L 300.914033 53.617875 
L 301.983063 53.698834 
L 302.523409 53.674243 
L 303.290518 53.658524 
L 304.358252 53.596401 
L 305.16294 53.747612 
L 305.949486 54.272282 
L 306.229378 54.436637 
L 306.491128 54.336112 
L 306.771019 54.434517 
L 307.015924 54.16031 
L 307.825795 54.558424 
L 308.902599 54.396295 
L 309.143617 54.775796 
L 309.685258 54.102099 
L 309.953488 54.230182 
L 310.495129 54.167454 
L 310.733555 54.261704 
L 311.013447 54.64394 
L 311.544722 53.907515 
L 311.802585 54.130314 
L 312.332564 53.980502 
L 313.145027 53.911436 
L 314.460257 53.810721 
L 314.737557 53.906667 
L 314.990236 53.86181 
L 315.524103 54.057581 
L 316.063153 53.985124 
L 316.333974 54.255853 
L 316.591837 54.127092 
L 317.397821 54.281334 
L 317.651796 54.213329 
L 317.9278 54.270057 
L 318.186959 54.132158 
L 318.720825 54.468329 
L 319.524217 54.343468 
L 320.061972 54.267174 
L 320.309468 54.005411 
L 320.593247 54.213223 
L 320.843335 54.195267 
L 321.119339 53.930685 
L 321.378498 54.053744 
L 322.719644 54.009799 
L 322.968436 54.064131 
L 323.245736 53.982474 
L 323.504895 54.078377 
L 324.309582 54.085839 
L 324.568741 54.252186 
L 325.626108 54.140193 
L 325.908591 54.258185 
L 326.158679 54.157639 
L 328.563672 54.22308 
L 328.818943 54.099936 
L 329.101426 54.112041 
L 329.350218 54.317139 
L 329.626222 53.809025 
L 330.162681 54.327845 
L 330.414065 54.038354 
L 330.693956 54.073014 
L 330.94534 54.330049 
L 331.479207 54.187996 
L 332.013074 54.237728 
L 332.290374 54.160385 
L 332.541758 54.227956 
L 332.821649 54.493471 
L 333.352924 54.418067 
L 333.604308 54.525227 
L 333.885495 54.370666 
L 334.135583 54.525036 
L 334.415475 54.300477 
L 334.668154 54.340182 
L 335.488392 54.161476 
L 336.544463 54.219307 
L 336.795847 54.315316 
L 337.329714 54.249176 
L 337.608309 54.135508 
L 337.860989 54.163617 
L 338.394856 54.479437 
L 338.677339 54.331279 
L 339.733411 54.331883 
L 340.265982 54.100805 
L 341.864991 54.032206 
L 342.930133 54.259892 
L 344.001754 55.168123 
L 344.247955 55.200779 
L 344.518775 55.383619 
L 344.772751 55.717829 
L 345.050051 55.543257 
L 345.307914 55.620993 
L 345.583917 55.505968 
L 345.840485 56.223166 
L 346.113897 55.395459 
L 346.645172 54.829133 
L 347.433015 54.686104 
L 347.974656 54.589035 
L 348.254548 54.251338 
L 349.317098 54.129233 
L 349.562003 53.870756 
L 350.905741 53.86853 
L 351.161012 54.116111 
L 353.034729 54.479056 
L 353.284817 54.335222 
L 354.344776 54.37993 
L 354.623372 54.522746 
L 354.881235 54.333483 
L 355.15983 54.497668 
L 355.416397 54.509624 
L 355.69888 54.407891 
L 355.950264 54.491796 
L 356.226268 54.449398 
L 356.476356 54.735264 
L 356.752361 54.830871 
L 357.00504 54.451349 
L 357.538907 54.646982 
L 358.071478 54.526954 
L 358.350073 54.547761 
L 358.600162 54.687949 
L 358.881349 54.569638 
L 359.662712 54.603408 
L 359.941308 54.419466 
L 360.200466 54.644661 
L 360.475175 54.724347 
L 361.2682 54.241756 
L 361.5455 54.23545 
L 361.792996 54.38099 
L 362.071592 54.730304 
L 362.324272 54.707918 
L 362.862026 54.162568 
L 363.923281 54.432948 
L 364.734447 54.027797 
L 364.984536 54.283412 
L 365.514515 54.200228 
L 365.791815 54.362589 
L 366.048382 54.157173 
L 366.326978 54.112444 
L 366.583545 54.187657 
L 366.859549 54.123806 
L 367.116116 54.229419 
L 367.397303 54.139133 
L 367.648687 53.889803 
L 368.461149 54.128385 
L 368.704758 53.996189 
L 368.983354 53.697689 
L 369.239921 54.021967 
L 369.781562 53.843643 
L 370.061454 53.727855 
L 370.303767 53.890831 
L 371.897593 53.879956 
L 372.706168 53.9748 
L 372.962735 53.8466 
L 373.237443 54.037739 
L 375.620407 54.007276 
L 375.90289 54.311352 
L 376.156866 54.093534 
L 376.434166 54.13059 
L 376.684254 54.314786 
L 376.962849 54.320987 
L 377.223304 54.129085 
L 378.027991 54.523849 
L 378.563154 54.210976 
L 378.818425 54.392946 
L 380.692143 53.980036 
L 381.224714 54.144676 
L 381.999598 54.025656 
L 382.538648 53.910907 
L 382.809469 53.939949 
L 383.062149 54.122025 
L 383.34204 54.013233 
L 385.189841 54.333526 
L 386.007487 54.773973 
L 386.538762 54.935381 
L 388.131292 56.371218 
L 388.382676 55.571006 
L 389.200322 55.230882 
L 389.449114 54.653183 
L 389.986868 54.193169 
L 390.788964 54.046982 
L 393.446636 54.010562 
L 398.487273 54.01088 
L 398.487273 54.01088 
" style="fill:none;stroke:#1f77b4;stroke-linecap:square;stroke-width:1.5;"/>
   </g>
   <g id="line2d_15">
    <path clip-path="url(#p48174a92cb)" d="M 73.832727 278.449412 
L 74.084111 278.400169 
L 74.365298 278.492473 
L 75.426553 278.37532 
L 76.214396 278.401183 
L 76.743079 278.373519 
L 77.021675 278.476508 
L 77.274355 278.250298 
L 77.554246 278.474655 
L 77.813404 278.454614 
L 78.092 278.276521 
L 78.35375 278.439975 
L 78.86818 278.317642 
L 79.164917 278.448859 
L 79.694896 278.332848 
L 80.215805 278.373645 
L 81.275764 278.336454 
L 81.809631 278.432826 
L 82.079156 278.321806 
L 82.356456 278.43962 
L 82.878661 278.287951 
L 83.404753 278.453404 
L 83.657432 278.370234 
L 84.188708 278.360722 
L 86.598883 278.279264 
L 87.126271 277.941893 
L 87.38543 278.06474 
L 88.718801 277.826593 
L 88.97796 278.531025 
L 89.251372 278.026449 
L 89.50794 278.505831 
L 89.786535 278.459812 
L 90.039215 278.731387 
L 90.319106 278.107645 
L 90.569194 279.08454 
L 90.854269 280.886118 
L 91.104357 279.594733 
L 91.379065 279.487914 
L 91.638224 280.468486 
L 91.91034 278.826269 
L 92.170795 278.439758 
L 92.450686 277.3019 
L 92.703366 277.271119 
L 92.976778 277.604083 
L 93.229458 274.328882 
L 93.506758 274.005437 
L 93.758142 275.01145 
L 94.036737 275.213905 
L 94.569308 280.572857 
L 95.107063 268.699309 
L 95.355855 273.1164 
L 95.635746 275.486339 
L 95.889722 275.470785 
L 96.170909 277.298786 
L 96.42618 280.459496 
L 96.698297 278.801163 
L 96.957455 277.923913 
L 97.233459 281.119963 
L 97.492618 280.381542 
L 97.767326 280.100827 
L 98.020006 279.398776 
L 98.303785 279.669668 
L 98.553873 279.361996 
L 99.090331 278.98794 
L 99.368927 279.863287 
L 99.612536 279.255716 
L 99.893723 277.730404 
L 100.143811 277.12267 
L 100.434069 277.209108 
L 100.688044 276.15887 
L 100.964048 276.121731 
L 101.207658 275.425473 
L 101.750595 277.317766 
L 102.029191 274.794959 
L 102.2728 274.855853 
L 102.555283 273.162554 
L 102.815737 275.17994 
L 103.087854 273.189287 
L 103.61265 276.359047 
L 103.876992 275.650076 
L 104.140038 275.651522 
L 104.399197 275.479667 
L 104.679088 274.299418 
L 104.92788 275.11221 
L 105.20518 272.879585 
L 105.45786 274.403182 
L 105.740343 273.674615 
L 105.990431 273.459741 
L 106.269027 272.147536 
L 106.523002 273.92401 
L 107.063348 275.364376 
L 107.597215 272.146529 
L 107.873219 275.111128 
L 108.125898 275.540099 
L 108.398015 275.104172 
L 108.666244 273.617569 
L 108.931882 269.570284 
L 109.188449 268.953483 
L 110.006095 266.075521 
L 110.258774 270.075742 
L 110.538666 268.599734 
L 110.775796 271.029667 
L 111.054391 272.734657 
L 111.586962 278.385375 
L 111.840938 283.610553 
L 112.119533 283.97527 
L 112.372213 284.004806 
L 112.650809 284.948166 
L 112.903488 283.306217 
L 113.180788 285.207086 
L 113.438651 283.658916 
L 113.713359 285.292235 
L 114.502497 280.556401 
L 114.779797 280.751844 
L 115.032477 278.913199 
L 115.308481 278.261862 
L 115.563752 279.410642 
L 115.841052 277.415712 
L 116.093732 278.872618 
L 116.371032 279.032925 
L 116.627599 279.039245 
L 116.903603 279.77129 
L 117.156282 277.822286 
L 117.440061 278.112853 
L 117.691445 277.326343 
L 117.97004 277.421501 
L 118.224016 275.703552 
L 118.50909 277.570285 
L 118.757883 275.235956 
L 119.036478 274.111368 
L 119.287862 274.674651 
L 119.816546 270.292346 
L 120.096437 271.722778 
L 120.347821 269.639147 
L 120.627712 271.188476 
L 120.888167 271.477202 
L 121.165467 271.226954 
L 121.420738 272.303572 
L 121.694151 273.943399 
L 121.952013 273.70523 
L 122.231905 272.631358 
L 122.481993 273.957417 
L 122.759293 274.559555 
L 123.008085 274.639243 
L 123.297047 275.670531 
L 123.543248 275.876494 
L 123.819252 275.458591 
L 124.071931 277.792472 
L 124.350527 278.895922 
L 124.614869 276.346221 
L 124.893464 277.922798 
L 125.143552 276.913847 
L 125.426035 277.233093 
L 125.665757 273.410214 
L 125.94824 272.61957 
L 126.20092 272.828424 
L 126.47822 270.853194 
L 126.732195 272.049607 
L 127.264766 273.66645 
L 127.805112 276.726352 
L 128.07982 277.019063 
L 128.324725 276.826893 
L 129.134596 281.486394 
L 129.388572 281.76581 
L 130.201034 283.732577 
L 130.451122 283.629543 
L 130.731013 283.293273 
L 130.983693 285.433561 
L 131.266176 285.278776 
L 131.516264 286.802917 
L 131.793564 285.845 
L 132.324839 289.576305 
L 132.581406 288.531547 
L 132.862594 289.043208 
L 133.112681 289.164209 
L 133.391277 290.805799 
L 133.643957 291.478153 
L 133.929031 291.388249 
L 134.176528 292.069123 
L 134.457715 295.488 
L 134.707803 292.915127 
L 134.985103 294.35687 
L 135.240374 294.34669 
L 135.776833 289.440522 
L 136.051541 289.136076 
L 136.300333 286.442266 
L 136.832904 283.651115 
L 137.1115 279.956062 
L 137.368067 279.340704 
L 137.644071 281.062128 
L 137.901934 278.293978 
L 138.431913 276.271413 
L 138.709213 271.791172 
L 138.96578 272.566527 
L 139.248263 271.890929 
L 139.49576 271.989779 
L 139.773059 271.539128 
L 140.025739 272.236446 
L 140.318588 272.320933 
L 140.834314 275.181069 
L 141.093473 274.431518 
L 141.366885 272.806571 
L 141.902048 274.489185 
L 142.153432 273.17 
L 142.434619 274.522304 
L 143.221166 273.356315 
L 143.498465 274.439406 
L 143.747257 273.808525 
L 144.032332 274.763575 
L 144.283716 274.294199 
L 144.811104 275.728406 
L 145.096179 275.778205 
L 145.346267 275.979281 
L 145.632637 276.033962 
L 145.877542 275.802778 
L 146.695187 275.680234 
L 147.219984 275.729874 
L 147.477847 275.511406 
L 147.748667 275.871782 
L 148.009122 275.677957 
L 149.878952 275.758932 
L 150.131631 275.635792 
L 150.408931 275.783398 
L 150.666794 275.646752 
L 151.195478 275.738969 
L 152.004053 275.851497 
L 152.540511 276.223713 
L 153.86222 277.463369 
L 154.388313 277.627746 
L 154.670796 277.700722 
L 154.918292 278.535537 
L 155.194296 278.031005 
L 155.729459 279.970425 
L 156.265917 279.428034 
L 156.521188 281.194199 
L 157.044689 278.414652 
L 157.331059 279.591616 
L 157.582443 279.711465 
L 157.86363 279.067874 
L 158.108535 277.627717 
L 158.384539 277.706298 
L 158.641107 273.432436 
L 158.93266 274.404305 
L 159.16979 270.161291 
L 159.453569 272.261914 
L 159.714023 269.427116 
L 160.233636 268.72602 
L 160.513528 267.881828 
L 160.763616 268.961081 
L 161.042212 269.213866 
L 161.296187 267.939319 
L 161.574783 269.752857 
L 161.830054 268.597789 
L 162.106058 271.68154 
L 162.360033 272.765183 
L 162.638629 271.65043 
L 162.896492 273.233907 
L 163.172496 273.977262 
L 163.43295 273.423089 
L 163.706363 271.793245 
L 163.959042 272.890972 
L 164.235046 273.527392 
L 164.492909 273.804083 
L 164.771505 273.422269 
L 165.02548 272.366795 
L 165.305372 274.363059 
L 165.554164 271.540838 
L 166.093214 274.455331 
L 166.373105 277.842249 
L 166.615419 276.324938 
L 166.904381 278.93797 
L 167.153173 277.822317 
L 167.436952 279.360832 
L 167.690927 279.059723 
L 167.961748 278.104806 
L 168.218315 278.707541 
L 168.503389 277.132523 
L 169.280866 278.136395 
L 169.555574 277.901457 
L 169.810845 276.280441 
L 170.099807 276.930572 
L 170.346008 276.690961 
L 170.885058 273.977277 
L 171.154583 273.930828 
L 171.420221 274.389935 
L 171.679379 272.782902 
L 171.93465 273.630115 
L 172.214542 273.677142 
L 172.463334 273.061469 
L 172.748409 273.01719 
L 173.278388 274.209929 
L 173.534955 273.98972 
L 173.808368 274.22527 
L 174.064935 273.80873 
L 174.589731 275.358572 
L 174.870918 275.153802 
L 175.124894 275.753972 
L 175.406081 275.678069 
L 175.656169 275.742002 
L 176.46604 276.960586 
L 177.259065 279.457301 
L 177.527294 280.907075 
L 177.783862 281.081333 
L 178.084486 281.762255 
L 178.317728 281.342025 
L 178.846412 283.329041 
L 179.126304 283.982221 
L 179.390645 283.812575 
L 179.915442 285.940994 
L 180.191445 285.346116 
L 180.448013 285.870924 
L 182.043134 274.046728 
L 182.574409 266.922172 
L 183.104389 262.790063 
L 183.385576 262.688881 
L 183.910373 263.075878 
L 184.163052 263.382304 
L 184.449422 263.518015 
L 184.980698 267.457753 
L 185.233377 268.517309 
L 185.771132 269.098818 
L 186.571932 269.33148 
L 186.833682 269.669221 
L 187.357183 270.820286 
L 187.633187 271.282265 
L 188.16835 271.132144 
L 188.431396 271.264578 
L 188.706104 271.089772 
L 188.951009 271.562471 
L 189.242562 271.473171 
L 189.490059 271.775973 
L 189.76995 271.85625 
L 190.029109 271.502247 
L 190.306408 270.816355 
L 190.557792 270.724114 
L 190.833796 270.407271 
L 191.372847 270.698481 
L 192.152914 269.802573 
L 192.418552 270.111274 
L 192.673823 269.469917 
L 193.206394 268.931593 
L 193.48499 268.306526 
L 193.737669 268.47975 
L 194.014969 268.45213 
L 194.551427 268.868814 
L 194.805403 268.676208 
L 195.331495 267.756883 
L 195.617866 268.844528 
L 195.870545 269.143012 
L 196.158211 269.293948 
L 196.936983 270.798114 
L 197.207804 271.079425 
L 197.755924 271.177951 
L 197.993055 271.52391 
L 198.523034 271.84071 
L 198.813292 272.12838 
L 199.058197 272.710332 
L 199.869363 275.665744 
L 200.123339 276.230442 
L 200.399343 277.469805 
L 200.658502 277.940723 
L 200.934506 278.771206 
L 201.182002 278.870904 
L 201.715869 280.030707 
L 202.257511 281.937359 
L 202.53481 282.11389 
L 202.777124 284.376794 
L 203.308399 285.226692 
L 203.585699 287.062263 
L 203.844858 287.896279 
L 204.372245 286.985777 
L 204.650841 286.569196 
L 204.906112 287.503575 
L 205.186004 286.594248 
L 205.439979 284.676518 
L 205.714687 283.755939 
L 206.245963 279.737246 
L 206.779829 277.487593 
L 207.033805 277.223092 
L 207.309809 275.225282 
L 207.563784 274.719174 
L 207.846267 273.358468 
L 208.096355 274.287757 
L 208.376247 273.530196 
L 208.628927 274.316219 
L 209.160202 273.669486 
L 209.445276 274.205174 
L 209.691477 274.091608 
L 210.225344 277.848076 
L 210.501348 276.495273 
L 210.754028 279.051159 
L 211.035215 278.259171 
L 211.28919 278.276197 
L 211.569082 278.872417 
L 211.820466 278.443966 
L 212.099061 276.782243 
L 212.350445 278.214985 
L 212.631632 275.954236 
L 212.88172 277.55855 
L 213.415587 275.161958 
L 213.695479 277.204979 
L 213.945567 273.386855 
L 214.225458 276.417777 
L 214.482025 275.633041 
L 214.754142 277.164028 
L 215.0133 277.201248 
L 215.288008 276.977622 
L 215.540688 276.387732 
L 215.819284 274.718296 
L 216.60583 275.494583 
L 216.884426 271.606364 
L 217.13581 273.708868 
L 217.428659 273.85696 
L 217.678747 272.068595 
L 217.957343 273.065145 
L 218.207431 274.552265 
L 218.483435 275.355091 
L 218.734819 275.408694 
L 219.016006 274.380749 
L 219.264798 275.642801 
L 219.549873 274.419932 
L 219.798665 276.283303 
L 220.085036 276.675965 
L 220.337715 276.020956 
L 220.605945 277.005781 
L 220.862512 275.460727 
L 221.135924 277.605338 
L 221.923766 274.692921 
L 222.456337 273.959413 
L 222.732341 274.724581 
L 222.986317 271.77175 
L 223.266208 274.199224 
L 223.517592 274.408031 
L 223.800075 271.49016 
L 224.052755 271.687014 
L 224.332646 271.175052 
L 224.586622 271.361797 
L 225.121784 272.638786 
L 225.649172 277.953356 
L 225.927768 278.356887 
L 226.465522 277.490364 
L 226.713019 278.18762 
L 226.990318 278.102125 
L 227.250773 278.540317 
L 227.529368 277.326098 
L 227.779457 278.72593 
L 228.314619 273.356003 
L 228.586736 276.718664 
L 228.848486 278.564474 
L 229.12449 275.717341 
L 229.373282 276.100615 
L 229.64799 277.011299 
L 229.914924 275.756771 
L 230.192224 276.402842 
L 230.443608 276.491427 
L 230.715724 276.996196 
L 230.967108 278.281894 
L 231.25607 278.939816 
L 231.497088 277.47799 
L 232.028363 278.879504 
L 232.310846 277.710587 
L 232.576483 277.822888 
L 232.836938 274.610875 
L 233.097392 274.558175 
L 233.369509 274.04693 
L 233.622189 274.51978 
L 233.903376 276.749985 
L 234.158647 275.917718 
L 234.439834 278.799693 
L 234.686035 278.370483 
L 234.968518 277.603272 
L 235.221198 280.192844 
L 235.753769 278.701799 
L 236.821502 270.584546 
L 237.096211 274.301769 
L 237.34889 272.4011 
L 237.627486 273.782135 
L 237.884053 271.787741 
L 238.157466 274.925601 
L 238.411441 273.734599 
L 238.688741 277.130611 
L 238.944012 275.85306 
L 239.21872 279.737915 
L 239.476583 277.444055 
L 239.752587 276.712808 
L 240.01045 278.333493 
L 240.286454 277.985362 
L 240.543021 279.881321 
L 240.817729 280.003185 
L 241.069113 278.893752 
L 241.346413 278.968785 
L 241.60298 277.054625 
L 241.885463 277.620268 
L 242.132959 277.384232 
L 242.415442 278.413128 
L 242.669418 278.314312 
L 242.949309 280.28998 
L 243.199397 279.611785 
L 243.729377 282.27633 
L 244.01186 279.514358 
L 244.258061 280.979667 
L 244.539248 281.555403 
L 244.790632 280.394493 
L 245.073115 279.928773 
L 245.328386 280.02316 
L 245.603094 277.395924 
L 245.85707 276.541893 
L 246.139552 278.329349 
L 246.392232 276.338671 
L 246.673419 276.450688 
L 246.924803 275.452986 
L 247.200807 275.383735 
L 247.742449 274.10915 
L 247.989945 275.113296 
L 248.263358 274.165891 
L 248.516038 276.987958 
L 248.792041 275.808862 
L 249.048609 276.510027 
L 249.334979 273.035815 
L 249.591546 272.833578 
L 249.870141 271.423552 
L 250.391051 271.328422 
L 250.652801 269.780625 
L 250.924917 272.784796 
L 251.189259 272.377139 
L 251.458784 272.522125 
L 251.717943 271.532817 
L 251.99913 272.700742 
L 252.23626 272.853884 
L 252.514856 273.516652 
L 253.051314 274.083837 
L 253.309177 273.356353 
L 253.582589 274.312517 
L 253.839157 274.528453 
L 254.111273 274.966182 
L 254.366544 275.933358 
L 254.642548 276.319966 
L 254.896524 278.795764 
L 255.176415 280.060237 
L 255.429095 279.266621 
L 255.706395 280.222857 
L 255.961666 280.111306 
L 256.240262 279.142003 
L 256.491646 277.313661 
L 256.770241 278.664502 
L 257.305404 275.250267 
L 257.555492 279.589507 
L 257.832792 279.347181 
L 258.086767 278.630803 
L 258.364067 278.967956 
L 258.616747 276.831839 
L 258.901821 277.559763 
L 259.154501 277.698561 
L 259.430505 277.507718 
L 259.68448 276.587108 
L 259.972146 275.039435 
L 260.217052 276.1684 
L 260.504717 275.964165 
L 260.747031 276.625157 
L 261.025627 276.211995 
L 261.280898 276.440802 
L 261.555606 276.136521 
L 261.808286 275.166446 
L 262.088177 275.88016 
L 262.344744 273.015041 
L 262.624636 275.127774 
L 262.87602 274.927958 
L 263.159798 275.056577 
L 263.405999 271.898629 
L 263.702736 271.42454 
L 263.94764 269.792146 
L 264.231419 271.317623 
L 264.753624 268.952217 
L 265.014078 269.725466 
L 265.27842 269.212784 
L 265.534987 269.367231 
L 265.816174 268.055021 
L 266.066263 268.056402 
L 266.342267 269.661557 
L 266.604017 269.328793 
L 266.873542 269.165966 
L 267.413888 273.666388 
L 267.665272 273.536096 
L 267.943867 274.049739 
L 268.481622 276.689922 
L 269.005122 275.040881 
L 269.262985 274.266075 
L 269.538989 274.922786 
L 269.786485 273.333819 
L 270.066377 273.188902 
L 270.319056 270.580845 
L 270.601539 271.263566 
L 270.856811 270.312739 
L 271.128927 270.65347 
L 271.381607 272.456511 
L 271.661498 272.094753 
L 271.918065 271.422268 
L 272.192773 272.160792 
L 272.445453 272.360765 
L 272.985799 271.693757 
L 273.517074 268.23918 
L 273.789191 269.200847 
L 274.573146 267.986768 
L 274.853038 268.118785 
L 275.384313 267.274108 
L 275.636992 267.168546 
L 275.919475 267.625089 
L 276.172155 267.477769 
L 276.452046 267.520778 
L 277.239889 269.505748 
L 277.769868 272.13679 
L 278.043281 271.437419 
L 278.303735 273.221444 
L 278.833714 275.066015 
L 279.36499 276.162401 
L 279.637106 276.393588 
L 279.90404 275.725468 
L 280.170973 274.577584 
L 280.428836 274.518469 
L 280.710023 273.89076 
L 280.973069 273.891926 
L 281.499162 273.55181 
L 281.763503 273.590297 
L 282.02007 273.475573 
L 282.299962 273.556186 
L 282.552641 273.392347 
L 282.828646 273.49187 
L 283.083917 273.379817 
L 283.362512 273.478641 
L 283.615192 273.306492 
L 283.892492 273.522841 
L 284.147763 273.415953 
L 284.427655 273.495932 
L 284.677742 273.413081 
L 284.955042 273.472642 
L 285.212905 273.404566 
L 285.488909 273.461866 
L 286.02148 273.429851 
L 287.874465 273.49012 
L 288.680448 273.411337 
L 289.218203 273.561798 
L 290.276866 273.547678 
L 290.529545 273.592044 
L 290.815916 273.481703 
L 291.063412 273.601154 
L 291.348487 273.465572 
L 291.592096 273.700034 
L 291.871987 273.413643 
L 292.135033 273.559089 
L 292.414925 273.403453 
L 292.9462 273.478988 
L 293.189809 273.527707 
L 293.467109 273.451787 
L 293.734042 273.635608 
L 294.000976 273.322572 
L 294.257543 273.427815 
L 294.528363 273.168765 
L 295.073892 273.148167 
L 295.331756 273.089423 
L 295.851369 273.183124 
L 296.126077 273.127309 
L 296.376165 273.685423 
L 296.656056 274.714179 
L 296.910032 275.151603 
L 297.442603 274.341011 
L 297.718607 274.708238 
L 297.972582 273.239077 
L 298.249882 273.582623 
L 298.505153 273.537272 
L 298.785045 271.987466 
L 299.570295 264.756139 
L 299.847595 263.853652 
L 300.098979 261.624674 
L 300.63155 260.527946 
L 300.914033 256.971365 
L 301.445308 254.347649 
L 301.707059 255.354554 
L 301.983063 254.086569 
L 302.234447 255.5856 
L 302.774792 255.819838 
L 303.037839 257.250274 
L 303.290518 256.575507 
L 303.57041 256.645621 
L 304.099093 262.270353 
L 304.358252 263.485909 
L 304.634256 266.550146 
L 304.88564 266.550445 
L 305.696807 276.497335 
L 306.229378 280.396877 
L 306.491128 279.253039 
L 306.771019 280.319877 
L 307.015924 277.016153 
L 307.293224 278.317238 
L 307.55627 277.995853 
L 307.825795 280.36971 
L 308.079771 279.929887 
L 308.35707 278.819105 
L 308.608454 280.087952 
L 308.902599 278.304985 
L 309.143617 282.388801 
L 309.427396 273.626387 
L 309.685258 270.053341 
L 309.953488 273.598119 
L 310.219125 273.355231 
L 310.495129 273.475998 
L 310.733555 274.479041 
L 311.013447 279.148055 
L 311.544722 271.859656 
L 311.802585 275.12267 
L 312.087659 273.98311 
L 312.332564 273.754125 
L 312.616343 274.173394 
L 312.86384 274.786295 
L 313.145027 273.089201 
L 313.395115 272.674269 
L 313.675006 274.083618 
L 314.206281 272.844716 
L 314.460257 271.301636 
L 314.737557 272.361187 
L 314.990236 270.194967 
L 315.270128 271.860818 
L 315.524103 271.813394 
L 316.063153 270.773532 
L 316.333974 273.951895 
L 316.591837 273.047831 
L 316.871728 274.431788 
L 317.116633 276.245638 
L 317.397821 275.72771 
L 317.651796 275.780669 
L 317.9278 276.328611 
L 318.186959 274.618719 
L 318.720825 279.404246 
L 319.250805 279.104096 
L 319.524217 278.987617 
L 319.779489 279.225816 
L 320.061972 278.256376 
L 320.309468 274.840633 
L 320.593247 277.753048 
L 320.843335 277.592441 
L 321.119339 273.719183 
L 321.378498 275.657682 
L 321.655798 274.687119 
L 321.90459 274.960551 
L 322.189664 275.839286 
L 322.441048 274.001656 
L 322.719644 274.15336 
L 322.968436 274.942439 
L 323.245736 274.144785 
L 323.504895 276.010236 
L 323.778307 275.647511 
L 324.033578 276.060818 
L 324.309582 276.042951 
L 324.568741 277.081183 
L 324.842153 276.934175 
L 325.094833 276.518935 
L 325.373429 277.121216 
L 325.626108 276.779794 
L 325.908591 278.241564 
L 326.158679 276.72915 
L 326.437275 277.078588 
L 326.69125 276.938963 
L 326.973733 277.885875 
L 327.22123 277.476143 
L 327.501121 278.231917 
L 327.758984 277.230725 
L 328.038875 278.003427 
L 328.295442 277.25271 
L 328.563672 277.930054 
L 328.818943 276.264892 
L 329.101426 276.458376 
L 329.350218 278.919694 
L 329.626222 271.453515 
L 330.162681 279.043842 
L 330.414065 275.021278 
L 330.693956 275.91405 
L 330.94534 279.21478 
L 331.223935 277.94094 
L 331.479207 277.472619 
L 331.755211 278.252289 
L 332.013074 278.119776 
L 332.290374 277.041741 
L 332.541758 277.914793 
L 332.821649 279.813618 
L 333.073033 279.328446 
L 333.352924 278.495064 
L 333.604308 279.692902 
L 333.885495 278.781652 
L 334.135583 280.74174 
L 334.415475 278.395966 
L 334.668154 278.424467 
L 334.945454 277.298639 
L 335.19943 277.490379 
L 335.488392 275.79014 
L 335.733296 275.851333 
L 336.011892 276.088538 
L 336.264572 275.29662 
L 336.544463 276.032976 
L 336.795847 277.856329 
L 337.073147 278.185463 
L 337.329714 277.313057 
L 337.608309 275.948778 
L 337.860989 276.489848 
L 338.394856 280.573011 
L 338.677339 278.596026 
L 339.202135 279.119631 
L 339.453519 278.455151 
L 339.733411 278.826666 
L 340.265982 276.125639 
L 340.518661 275.149815 
L 340.801144 275.709987 
L 341.333715 274.778405 
L 341.587691 275.769574 
L 341.864991 275.325011 
L 342.113783 275.79466 
L 342.930133 278.398543 
L 343.456225 284.427283 
L 343.719271 283.097887 
L 344.001754 283.694761 
L 344.247955 283.744538 
L 344.518775 283.4476 
L 344.772751 286.450552 
L 345.050051 283.754705 
L 345.307914 284.641627 
L 345.583917 283.654076 
L 345.840485 287.269971 
L 346.113897 283.346189 
L 346.900443 279.677483 
L 347.177743 279.635544 
L 347.433015 279.321365 
L 347.974656 279.783684 
L 348.254548 277.32542 
L 348.502044 277.835224 
L 348.775456 277.26615 
L 349.02684 277.082753 
L 349.317098 276.552278 
L 349.562003 272.102282 
L 349.848373 272.211761 
L 350.099757 271.980025 
L 350.374465 271.881344 
L 350.632328 270.164026 
L 350.905741 269.326311 
L 351.161012 273.593756 
L 351.449974 274.451473 
L 351.689696 274.378868 
L 351.977362 276.115004 
L 352.236521 276.029751 
L 353.034729 278.672913 
L 353.284817 277.183822 
L 353.563413 276.99002 
L 353.814797 278.231935 
L 354.093393 275.874335 
L 354.344776 275.431786 
L 354.623372 277.047367 
L 354.881235 274.763184 
L 355.15983 275.941255 
L 355.416397 276.232771 
L 355.69888 274.455532 
L 355.950264 275.562635 
L 356.226268 275.107961 
L 356.476356 277.864786 
L 356.752361 277.266124 
L 357.00504 274.4615 
L 357.286227 275.922359 
L 357.538907 277.918579 
L 357.818798 277.061199 
L 358.071478 275.180601 
L 358.350073 275.10989 
L 358.600162 277.416253 
L 358.881349 276.799702 
L 359.410033 277.092686 
L 359.941308 274.568846 
L 360.200466 278.021123 
L 360.475175 280.041327 
L 360.730446 280.278829 
L 361.2682 275.645385 
L 361.5455 276.650784 
L 361.792996 278.307092 
L 362.071592 281.747293 
L 362.324272 281.365212 
L 362.60805 279.232605 
L 362.862026 274.549252 
L 363.134143 275.437832 
L 363.669305 280.073629 
L 363.923281 278.982637 
L 364.449373 275.665651 
L 364.734447 272.468477 
L 364.984536 277.1842 
L 365.267018 276.947049 
L 365.514515 276.486802 
L 365.791815 278.530524 
L 366.048382 276.448443 
L 366.326978 275.777003 
L 366.583545 276.719342 
L 366.859549 275.802835 
L 367.116116 277.597778 
L 367.397303 276.485847 
L 367.648687 272.063503 
L 368.181258 275.798205 
L 368.461149 276.424954 
L 368.704758 274.714185 
L 368.983354 267.528786 
L 369.239921 274.885885 
L 369.526291 274.319857 
L 370.061454 269.532548 
L 370.303767 272.932837 
L 370.588842 272.691314 
L 370.835042 271.766707 
L 371.381867 273.571504 
L 371.644913 273.552913 
L 371.897593 272.748186 
L 372.174893 273.150453 
L 372.427573 274.723162 
L 372.706168 274.197142 
L 372.962735 272.154871 
L 373.237443 275.4185 
L 373.492715 275.300829 
L 373.77131 273.523173 
L 374.029173 274.983045 
L 374.836452 273.164074 
L 375.089132 274.051903 
L 375.367728 272.998927 
L 375.620407 273.041186 
L 375.90289 275.657851 
L 376.156866 269.092756 
L 376.434166 269.012491 
L 376.684254 274.86809 
L 376.962849 275.031681 
L 377.223304 271.043807 
L 377.503195 273.678086 
L 377.7481 274.264961 
L 378.027991 275.912778 
L 378.285854 274.968876 
L 378.563154 272.751674 
L 378.818425 274.77775 
L 379.089246 275.447436 
L 379.350996 273.988444 
L 379.625705 273.31385 
L 379.880976 273.934818 
L 380.417434 274.753978 
L 380.692143 274.171916 
L 380.938343 276.445858 
L 381.224714 276.90781 
L 381.47221 276.659486 
L 381.745623 277.269069 
L 381.999598 275.038541 
L 382.279489 273.630867 
L 382.538648 273.287237 
L 382.809469 273.191068 
L 383.062149 275.911945 
L 383.34204 273.452216 
L 383.873315 273.608926 
L 384.127291 274.699817 
L 384.405886 274.660316 
L 384.661158 275.259823 
L 384.939753 274.931987 
L 385.189841 275.130093 
L 385.472324 276.214667 
L 385.728891 275.317442 
L 386.007487 276.915584 
L 386.261463 274.847112 
L 386.538762 275.208278 
L 386.787554 275.780608 
L 387.064854 274.763446 
L 387.317534 274.517596 
L 387.606496 273.460037 
L 387.860471 274.147639 
L 388.131292 272.486961 
L 388.382676 273.458646 
L 388.662568 273.619671 
L 388.919135 273.598997 
L 390.522031 274.236235 
L 392.648428 274.314319 
L 394.231887 274.231737 
L 394.510483 274.326922 
L 395.04435 274.216943 
L 395.573033 274.279247 
L 396.105604 274.247582 
L 397.428609 274.253616 
L 397.700726 274.337724 
L 397.953406 274.249293 
L 398.237185 274.314545 
L 398.487273 274.237622 
L 398.487273 274.237622 
" style="fill:none;stroke:#ff7f0e;stroke-linecap:square;stroke-width:1.5;"/>
   </g>
   <g id="line2d_16">
    <path clip-path="url(#p48174a92cb)" d="M 73.832727 255.752271 
L 74.084111 255.66316 
L 74.365298 255.770552 
L 74.899165 255.680603 
L 75.160916 256.011525 
L 75.426553 255.972615 
L 75.677937 255.74828 
L 76.503358 255.831326 
L 76.743079 256.041144 
L 77.274355 255.815031 
L 77.554246 255.931401 
L 77.813404 255.827685 
L 78.620684 256.07415 
L 78.86818 255.972585 
L 80.215805 255.978798 
L 80.468485 255.834243 
L 81.809631 255.962886 
L 82.079156 255.839916 
L 83.657432 255.859861 
L 83.937324 255.72092 
L 84.464712 255.983801 
L 84.997283 255.876927 
L 85.256441 255.894989 
L 85.535037 255.760277 
L 86.598883 256.203018 
L 87.38543 258.377559 
L 87.660138 258.284059 
L 88.187526 260.176915 
L 88.440206 260.536361 
L 88.718801 260.564087 
L 88.97796 260.240763 
L 89.251372 260.359786 
L 89.50794 259.687179 
L 89.786535 260.634969 
L 90.039215 260.445263 
L 90.319106 257.885454 
L 90.569194 257.166142 
L 90.854269 257.938587 
L 91.104357 257.492444 
L 91.638224 259.466161 
L 91.91034 259.181107 
L 92.170795 259.659347 
L 92.703366 264.28851 
L 92.976778 263.337897 
L 93.229458 261.816709 
L 93.506758 262.211088 
L 93.758142 260.771226 
L 94.036737 260.672156 
L 94.293304 259.610815 
L 94.569308 260.789759 
L 94.823284 263.241627 
L 95.107063 264.234845 
L 95.355855 264.395871 
L 95.635746 264.287855 
L 95.889722 264.445484 
L 96.170909 265.089557 
L 96.42618 266.935061 
L 96.698297 265.239932 
L 96.957455 266.441128 
L 97.233459 265.650169 
L 97.492618 265.331725 
L 97.767326 265.636422 
L 98.020006 266.134845 
L 98.303785 265.456951 
L 98.553873 265.381394 
L 98.83506 265.052399 
L 99.090331 263.238158 
L 99.368927 264.603277 
L 99.612536 265.065114 
L 99.893723 265.121593 
L 100.434069 264.758197 
L 100.688044 262.790982 
L 100.964048 262.276125 
L 101.207658 261.364633 
L 101.750595 258.16171 
L 102.029191 256.461926 
L 102.2728 256.662514 
L 102.815737 259.290664 
L 103.087854 257.974556 
L 103.61265 261.167152 
L 103.876992 261.248746 
L 104.399197 258.830687 
L 104.679088 258.791699 
L 104.92788 257.153877 
L 105.20518 257.143345 
L 105.740343 253.493621 
L 105.990431 253.425539 
L 106.804189 252.160761 
L 107.063348 252.266448 
L 107.335464 252.196411 
L 107.597215 252.350624 
L 107.873219 250.946787 
L 108.125898 250.983096 
L 108.398015 249.752821 
L 108.931882 245.608363 
L 109.188449 245.076282 
L 109.714541 247.610368 
L 110.006095 247.92519 
L 110.258774 250.484599 
L 110.538666 251.281814 
L 110.775796 251.35852 
L 111.054391 251.591011 
L 111.309663 252.393866 
L 112.650809 262.180224 
L 112.903488 263.718191 
L 113.180788 263.372447 
L 113.438651 263.763936 
L 113.969926 266.865202 
L 114.24593 266.759309 
L 114.502497 265.546125 
L 115.563752 270.109346 
L 116.093732 267.095222 
L 116.371032 265.415941 
L 116.627599 265.283447 
L 116.903603 263.469865 
L 117.156282 259.836007 
L 117.440061 259.456882 
L 117.691445 259.414707 
L 118.224016 254.591743 
L 118.50909 253.080111 
L 118.757883 249.89919 
L 119.036478 247.882503 
L 119.287862 244.773917 
L 119.563866 244.332994 
L 119.816546 242.884905 
L 120.096437 243.093361 
L 120.347821 241.516759 
L 120.888167 247.022065 
L 121.165467 247.904254 
L 121.420738 249.984554 
L 121.694151 249.604228 
L 121.952013 251.356284 
L 122.231905 251.945517 
L 122.481993 251.649082 
L 122.759293 251.854095 
L 123.008085 251.315636 
L 123.297047 252.655959 
L 123.543248 252.31632 
L 123.819252 252.569596 
L 124.071931 251.945294 
L 124.350527 251.984509 
L 124.893464 251.296081 
L 125.426035 249.96324 
L 125.94824 246.85215 
L 126.20092 245.977211 
L 126.47822 245.813996 
L 126.732195 244.866525 
L 127.015974 245.008407 
L 127.264766 244.264559 
L 127.539474 244.711436 
L 128.07982 247.422282 
L 128.324725 246.989509 
L 128.858592 249.000194 
L 129.134596 249.626268 
L 129.665871 252.043659 
L 129.921143 251.848327 
L 130.201034 252.003174 
L 130.451122 252.287752 
L 130.731013 254.169611 
L 130.983693 255.016174 
L 131.516264 255.431382 
L 132.04754 257.549157 
L 132.324839 257.878049 
L 132.581406 259.062122 
L 132.862594 259.754107 
L 133.112681 261.886292 
L 133.643957 262.924245 
L 133.929031 263.958947 
L 134.176528 263.974432 
L 134.457715 263.265359 
L 134.707803 263.53867 
L 134.985103 263.135969 
L 135.240374 262.443271 
L 135.517674 263.29033 
L 135.776833 263.439826 
L 136.051541 264.471877 
L 136.300333 264.466207 
L 136.832904 264.83352 
L 137.368067 264.186806 
L 137.644071 262.805877 
L 137.901934 263.621534 
L 138.175346 263.071072 
L 138.431913 262.117568 
L 138.709213 262.524448 
L 138.96578 261.245222 
L 139.773059 260.293236 
L 140.025739 258.0269 
L 140.318588 259.138426 
L 140.562197 256.221086 
L 141.093473 254.314651 
L 141.366885 253.172743 
L 142.153432 246.71471 
L 142.434619 245.923471 
L 142.68989 245.783671 
L 142.965894 244.908966 
L 143.221166 244.572816 
L 143.498465 244.689965 
L 143.747257 245.005685 
L 144.032332 244.910609 
L 144.283716 244.675127 
L 144.811104 245.3516 
L 145.346267 245.581472 
L 145.632637 245.414624 
L 146.154842 246.021414 
L 146.695187 247.173683 
L 146.951755 247.982104 
L 147.477847 253.916076 
L 148.009122 255.992165 
L 148.533918 257.115515 
L 148.815105 257.196252 
L 149.070377 257.392612 
L 149.346381 257.39184 
L 149.596469 257.668841 
L 149.878952 257.573237 
L 150.938911 257.843597 
L 151.195478 257.729114 
L 151.472778 257.755132 
L 152.004053 259.400572 
L 152.261916 260.679914 
L 153.069195 265.635979 
L 154.131746 268.500427 
L 154.388313 268.59173 
L 154.670796 269.107778 
L 154.918292 269.220403 
L 155.194296 269.174013 
L 155.458638 268.946752 
L 155.729459 269.824158 
L 155.982139 270.064416 
L 156.521188 270.983795 
L 156.802376 270.78099 
L 157.044689 268.61146 
L 157.331059 267.549504 
L 157.582443 267.389286 
L 158.108535 265.846084 
L 158.384539 264.928994 
L 158.93266 258.640585 
L 159.16979 257.584208 
L 159.453569 257.285107 
L 160.233636 261.713221 
L 160.513528 262.027276 
L 160.763616 263.260119 
L 161.042212 262.014451 
L 161.296187 262.080781 
L 161.830054 259.497558 
L 162.106058 259.739808 
L 162.360033 259.175363 
L 162.638629 259.865093 
L 162.896492 259.954496 
L 163.172496 259.911099 
L 163.43295 259.433719 
L 163.706363 259.746275 
L 163.959042 258.717578 
L 164.235046 259.445967 
L 164.492909 258.636577 
L 164.771505 258.757561 
L 165.02548 258.438292 
L 165.305372 258.515194 
L 165.554164 257.872657 
L 165.836647 257.546908 
L 166.093214 257.953274 
L 166.373105 257.101892 
L 166.904381 257.8391 
L 167.153173 257.57599 
L 167.436952 258.568965 
L 167.690927 258.080212 
L 167.961748 256.814548 
L 168.218315 258.183913 
L 168.757365 254.622467 
L 169.280866 253.005095 
L 169.810845 252.120899 
L 170.099807 250.82729 
L 170.615533 246.625681 
L 171.154583 243.178645 
L 171.420221 243.317914 
L 171.679379 243.869294 
L 172.214542 243.711108 
L 172.998497 249.827309 
L 173.278388 250.906889 
L 173.534955 250.934969 
L 173.808368 250.212948 
L 174.064935 250.246267 
L 174.589731 251.573857 
L 174.870918 252.149425 
L 175.124894 252.308963 
L 176.46604 259.65094 
L 177.259065 261.842747 
L 178.317728 265.5411 
L 178.846412 266.204324 
L 179.126304 266.163328 
L 179.654987 265.427244 
L 179.915442 264.238872 
L 180.191445 264.038745 
L 180.448013 262.739897 
L 180.972809 255.135497 
L 181.50538 251.815808 
L 181.785271 251.011483 
L 182.043134 249.509169 
L 183.104389 240.407598 
L 183.385576 240.683813 
L 184.449422 243.869995 
L 184.980698 252.272875 
L 185.233377 254.731217 
L 185.508086 255.57155 
L 186.044544 256.074301 
L 186.299815 255.343913 
L 186.571932 254.903855 
L 187.11487 254.51569 
L 188.706104 255.651125 
L 188.951009 255.162922 
L 189.242562 255.119238 
L 189.76995 254.027703 
L 190.029109 254.050503 
L 190.306408 255.13463 
L 190.557792 255.568042 
L 190.833796 255.46281 
L 191.089068 255.531417 
L 191.372847 255.184826 
L 191.629414 255.157313 
L 192.152914 255.85518 
L 192.418552 255.799874 
L 192.673823 255.943894 
L 192.953715 256.595528 
L 193.206394 257.638819 
L 194.272832 260.008987 
L 194.551427 260.425211 
L 194.805403 262.045227 
L 195.331495 267.627776 
L 195.617866 262.43129 
L 196.158211 261.863658 
L 196.676529 258.414866 
L 197.207804 256.522293 
L 197.47085 256.060403 
L 197.993055 255.798119 
L 198.270355 255.723056 
L 198.523034 256.035039 
L 198.813292 256.855176 
L 199.869363 263.098056 
L 200.123339 263.526917 
L 200.399343 263.378609 
L 200.658502 263.087157 
L 201.182002 262.146816 
L 201.474852 261.694908 
L 201.715869 261.720189 
L 201.998352 262.282592 
L 202.53481 262.846571 
L 202.777124 261.84456 
L 203.057015 261.328074 
L 203.308399 261.219797 
L 203.585699 260.87169 
L 203.844858 261.010239 
L 204.650841 262.207033 
L 205.186004 261.993486 
L 205.97255 259.022687 
L 206.245963 260.031413 
L 206.779829 263.950592 
L 207.033805 264.188505 
L 207.309809 264.926583 
L 207.563784 264.709347 
L 207.846267 263.526117 
L 208.096355 264.802049 
L 208.376247 263.645069 
L 208.628927 263.19026 
L 208.911409 262.200987 
L 209.160202 263.352227 
L 209.445276 261.999353 
L 209.691477 264.582977 
L 209.972664 263.914071 
L 210.225344 263.817106 
L 210.501348 264.091473 
L 211.035215 265.215611 
L 211.28919 263.033113 
L 211.569082 263.124595 
L 211.820466 263.331695 
L 212.099061 262.410784 
L 212.350445 258.777242 
L 212.88172 255.203037 
L 213.162908 253.865727 
L 213.415587 253.688716 
L 213.695479 254.249059 
L 213.945567 253.222485 
L 214.225458 253.488689 
L 214.482025 252.163543 
L 214.754142 251.893097 
L 215.0133 251.922574 
L 215.288008 252.891099 
L 215.540688 253.102315 
L 215.819284 254.041748 
L 216.071963 254.35077 
L 216.353151 256.798049 
L 216.60583 256.184035 
L 217.13581 259.653626 
L 217.428659 261.173144 
L 217.678747 260.329513 
L 218.207431 255.583306 
L 218.483435 255.35152 
L 218.734819 255.347998 
L 219.016006 254.706152 
L 219.549873 251.36447 
L 219.798665 250.847215 
L 220.085036 249.654465 
L 220.337715 249.980099 
L 220.605945 249.518349 
L 220.862512 249.962169 
L 221.135924 249.369661 
L 221.3899 250.130013 
L 221.668495 250.133892 
L 221.923766 252.646899 
L 222.204953 251.654505 
L 222.986317 255.304496 
L 223.266208 255.364029 
L 223.517592 256.8609 
L 223.800075 256.775044 
L 224.052755 256.547127 
L 224.332646 257.499356 
L 224.586622 257.868565 
L 224.86133 257.968102 
L 225.121784 258.486501 
L 225.927768 255.552155 
L 226.185631 254.953626 
L 226.465522 255.796502 
L 226.713019 256.040621 
L 226.990318 257.343229 
L 227.250773 257.137741 
L 227.779457 260.002013 
L 228.055461 262.385442 
L 228.314619 261.644843 
L 228.848486 261.444229 
L 229.12449 261.683111 
L 229.373282 261.117354 
L 229.64799 262.108039 
L 229.914924 262.182933 
L 230.192224 261.906908 
L 230.443608 262.084986 
L 230.715724 258.075452 
L 230.967108 259.140539 
L 231.25607 257.867802 
L 231.497088 257.887792 
L 231.789937 258.740558 
L 232.310846 257.298806 
L 232.576483 256.899003 
L 232.836938 255.461262 
L 233.369509 254.39873 
L 233.903376 251.235025 
L 234.439834 248.517104 
L 234.686035 245.911552 
L 234.968518 245.191962 
L 235.221198 243.24396 
L 235.753769 244.017771 
L 236.287636 248.667079 
L 236.821502 250.633455 
L 237.34889 251.998003 
L 237.627486 251.90624 
L 237.884053 252.590501 
L 238.157466 254.609602 
L 238.411441 257.655496 
L 238.688741 258.220049 
L 239.21872 260.395971 
L 239.476583 259.880713 
L 239.752587 260.518747 
L 240.01045 261.448577 
L 240.286454 261.37134 
L 240.543021 260.406166 
L 240.817729 257.735048 
L 241.069113 256.731421 
L 241.346413 254.924407 
L 241.885463 259.33761 
L 242.132959 260.045888 
L 242.415442 259.646488 
L 242.669418 261.149988 
L 242.949309 262.071527 
L 243.199397 261.699881 
L 243.729377 260.356037 
L 244.01186 258.14217 
L 244.258061 259.352492 
L 244.539248 258.264377 
L 244.790632 259.899735 
L 245.073115 259.041913 
L 245.328386 259.321991 
L 245.603094 258.527221 
L 245.85707 260.272149 
L 246.139552 259.590229 
L 246.392232 260.2487 
L 246.673419 260.384832 
L 246.924803 260.173656 
L 247.200807 260.178466 
L 247.461262 258.641409 
L 247.742449 258.209443 
L 247.989945 258.707978 
L 248.263358 258.145643 
L 248.516038 258.118775 
L 249.334979 252.276257 
L 249.870141 246.785686 
L 250.391051 243.572205 
L 250.652801 243.655611 
L 250.924917 245.536961 
L 251.189259 244.936438 
L 251.458784 247.752667 
L 251.717943 248.972712 
L 251.99913 251.116059 
L 252.23626 249.398023 
L 252.514856 248.892758 
L 252.77531 248.850735 
L 253.582589 250.563102 
L 253.839157 251.739104 
L 254.111273 252.197046 
L 254.642548 254.361787 
L 254.896524 257.762172 
L 255.176415 259.968903 
L 255.429095 260.712726 
L 255.706395 262.730479 
L 255.961666 261.842223 
L 256.240262 262.577824 
L 256.491646 262.825064 
L 256.770241 262.247502 
L 257.555492 259.191295 
L 257.832792 259.452578 
L 258.086767 260.54798 
L 258.364067 259.19222 
L 258.616747 259.401686 
L 258.901821 258.034438 
L 259.154501 257.918918 
L 259.430505 259.511071 
L 259.68448 257.530543 
L 259.972146 258.143913 
L 260.217052 257.457659 
L 260.504717 255.850994 
L 260.747031 256.050152 
L 261.025627 257.144337 
L 261.280898 256.23791 
L 261.555606 254.562262 
L 261.808286 254.311835 
L 262.088177 253.733958 
L 262.344744 251.767544 
L 262.624636 253.739645 
L 262.87602 252.447915 
L 263.159798 251.636087 
L 263.405999 250.517974 
L 263.94764 249.574556 
L 264.231419 246.262008 
L 264.482803 247.320178 
L 265.014078 246.135887 
L 265.27842 247.627857 
L 265.534987 248.146371 
L 266.342267 245.496585 
L 266.604017 245.448077 
L 266.873542 246.349705 
L 267.128813 246.35553 
L 267.413888 244.195508 
L 267.665272 243.726002 
L 268.196547 240.596206 
L 268.481622 241.135127 
L 268.730414 239.920195 
L 269.005122 239.607392 
L 269.262985 240.63756 
L 269.538989 240.504541 
L 269.786485 241.066393 
L 270.066377 240.994775 
L 270.319056 240.805024 
L 270.601539 239.914478 
L 270.856811 236.271612 
L 271.128927 234.330612 
L 271.381607 235.651526 
L 271.918065 241.557772 
L 272.445453 247.675426 
L 272.985799 250.019475 
L 273.517074 249.893798 
L 273.789191 250.553771 
L 274.041871 250.573329 
L 274.573146 250.923777 
L 274.853038 251.834155 
L 275.113492 253.724911 
L 275.384313 254.458939 
L 275.636992 254.666563 
L 276.172155 255.378947 
L 276.452046 255.75249 
L 276.700839 255.716241 
L 276.983322 254.506109 
L 277.51071 250.942794 
L 277.769868 250.686964 
L 278.043281 249.503585 
L 278.833714 243.90759 
L 279.116198 242.393185 
L 279.36499 241.917769 
L 279.637106 241.859957 
L 280.170973 249.850249 
L 280.710023 253.263129 
L 280.973069 254.202317 
L 281.763503 255.540615 
L 282.552641 255.85565 
L 282.828646 256.029922 
L 283.083917 255.978763 
L 283.362512 255.739218 
L 283.892492 256.072996 
L 284.147763 256.033188 
L 284.427655 255.872426 
L 284.677742 256.030724 
L 284.955042 256.040682 
L 285.488909 255.804486 
L 285.740293 256.016518 
L 286.02148 256.061369 
L 286.552755 255.894292 
L 286.809323 256.106241 
L 287.087918 256.137188 
L 287.338006 256.047216 
L 287.617898 256.123291 
L 287.874465 256.364894 
L 288.680448 256.262602 
L 289.218203 256.462111 
L 289.469586 255.993237 
L 289.749478 256.761005 
L 290.007341 256.043331 
L 290.276866 256.323672 
L 290.529545 256.386617 
L 290.815916 255.948632 
L 291.063412 256.828881 
L 291.348487 255.907259 
L 291.592096 256.549173 
L 291.871987 256.139466 
L 292.657238 255.797121 
L 292.9462 256.018175 
L 293.467109 255.810155 
L 293.734042 255.645279 
L 294.000976 255.866642 
L 294.257543 256.227461 
L 294.528363 256.866624 
L 295.590914 260.503997 
L 296.126077 265.013404 
L 296.656056 270.854186 
L 296.910032 272.031688 
L 297.193811 272.205537 
L 297.718607 270.037189 
L 298.505153 262.887202 
L 298.785045 260.786829 
L 299.044203 260.484786 
L 299.317616 261.190933 
L 299.570295 260.791113 
L 299.847595 260.764726 
L 300.380166 259.406479 
L 300.63155 261.226442 
L 300.914033 262.230704 
L 301.174488 261.698926 
L 301.445308 261.596209 
L 301.707059 261.978238 
L 301.983063 261.23934 
L 302.774792 256.883213 
L 303.037839 256.040721 
L 303.57041 260.195546 
L 303.821794 262.669697 
L 304.099093 264.273936 
L 304.358252 264.227768 
L 305.16294 260.893193 
L 305.420803 260.946916 
L 305.696807 260.171775 
L 306.491128 260.019286 
L 306.771019 259.530471 
L 307.015924 259.501441 
L 307.55627 255.243219 
L 307.825795 254.168821 
L 308.079771 254.029886 
L 308.35707 253.386451 
L 308.902599 253.722094 
L 309.143617 253.547118 
L 309.427396 248.043618 
L 309.953488 250.167493 
L 310.495129 251.238537 
L 311.013447 249.91521 
L 311.275197 253.744136 
L 311.544722 255.728646 
L 311.802585 254.621489 
L 312.087659 255.623288 
L 312.616343 257.97278 
L 312.86384 257.860377 
L 313.145027 258.743746 
L 313.395115 258.700156 
L 313.675006 259.460598 
L 313.92639 259.751625 
L 314.206281 260.66856 
L 314.990236 268.218229 
L 315.270128 269.394655 
L 315.524103 271.257925 
L 315.802699 272.265783 
L 316.063153 270.754993 
L 316.333974 272.832391 
L 316.591837 271.346668 
L 316.871728 271.048166 
L 317.116633 271.440798 
L 317.397821 271.070464 
L 317.651796 269.377631 
L 317.9278 269.837647 
L 318.186959 269.267829 
L 318.464258 269.350797 
L 318.720825 268.627957 
L 318.99035 267.174986 
L 319.250805 266.514619 
L 319.779489 264.295718 
L 320.061972 258.63012 
L 320.309468 259.862596 
L 320.593247 259.94416 
L 320.843335 261.682806 
L 321.119339 261.994255 
L 321.378498 261.21666 
L 321.90459 255.307575 
L 322.189664 258.351001 
L 322.441048 257.287453 
L 322.719644 256.736646 
L 322.968436 256.540606 
L 323.245736 258.115893 
L 323.504895 261.082723 
L 323.778307 261.184161 
L 324.033578 262.293234 
L 324.309582 262.966681 
L 324.568741 267.772478 
L 324.842153 266.164393 
L 325.373429 264.567396 
L 325.626108 263.123861 
L 325.908591 259.27593 
L 326.158679 258.057157 
L 327.22123 261.282435 
L 327.501121 261.344549 
L 327.758984 265.648406 
L 328.038875 264.925167 
L 328.563672 260.70354 
L 328.818943 260.192641 
L 329.101426 262.385492 
L 329.350218 259.015263 
L 329.884085 263.687953 
L 330.162681 263.915738 
L 330.414065 264.826345 
L 330.693956 260.613632 
L 330.94534 260.501733 
L 331.223935 260.06236 
L 331.755211 261.178325 
L 332.290374 263.207423 
L 332.541758 263.215274 
L 332.821649 268.310995 
L 333.073033 268.452806 
L 333.352924 269.357921 
L 333.604308 269.490456 
L 333.885495 267.196249 
L 334.415475 265.5895 
L 334.668154 267.163944 
L 334.945454 267.15267 
L 335.488392 267.856401 
L 336.011892 266.854981 
L 336.544463 269.067032 
L 337.073147 266.11837 
L 337.329714 267.054967 
L 337.860989 266.072824 
L 338.148655 265.914103 
L 338.394856 265.021427 
L 338.677339 266.254776 
L 338.928723 265.683114 
L 339.202135 265.971042 
L 339.453519 265.147424 
L 339.733411 265.370706 
L 339.987386 264.043671 
L 340.265982 263.9205 
L 340.518661 266.370377 
L 341.053824 262.566328 
L 341.333715 263.494247 
L 341.587691 262.380623 
L 342.113783 261.908109 
L 342.397562 263.3189 
L 342.64765 261.276181 
L 342.930133 261.041 
L 343.193179 259.621242 
L 343.719271 253.43451 
L 344.001754 248.48725 
L 344.247955 248.060486 
L 344.518775 245.086144 
L 344.772751 245.192189 
L 345.050051 243.563981 
L 345.307914 243.79807 
L 345.583917 243.870441 
L 345.840485 240.706327 
L 346.370464 247.878235 
L 346.645172 249.734653 
L 346.900443 248.86002 
L 347.177743 248.466708 
L 347.709019 250.589631 
L 347.974656 252.097311 
L 348.502044 258.987305 
L 348.775456 257.682478 
L 349.02684 259.020411 
L 349.317098 259.186402 
L 349.562003 257.926442 
L 349.848373 258.120504 
L 350.099757 257.82909 
L 350.632328 255.372404 
L 351.161012 252.497127 
L 351.449974 252.566733 
L 351.689696 251.860509 
L 351.977362 253.122885 
L 352.236521 253.70978 
L 352.50475 254.808486 
L 352.750951 253.313691 
L 353.034729 252.425758 
L 353.284817 253.026729 
L 354.093393 251.574279 
L 354.344776 249.556542 
L 354.623372 249.08849 
L 354.881235 249.598752 
L 355.15983 248.195695 
L 355.416397 248.331227 
L 355.950264 247.88277 
L 356.226268 248.065627 
L 356.752361 244.917761 
L 357.00504 247.408375 
L 357.286227 246.452406 
L 357.538907 248.173523 
L 357.818798 248.515633 
L 358.071478 246.984929 
L 358.350073 246.624946 
L 358.600162 246.976536 
L 358.881349 248.039254 
L 359.410033 246.915255 
L 359.662712 246.635266 
L 359.941308 247.989988 
L 360.200466 248.338036 
L 360.475175 249.878742 
L 360.730446 253.940054 
L 361.010337 252.644174 
L 361.2682 252.605234 
L 361.5455 254.659756 
L 361.792996 254.147521 
L 362.071592 253.078253 
L 362.324272 252.721646 
L 362.60805 254.909771 
L 362.862026 252.771602 
L 363.134143 252.343825 
L 363.669305 256.165355 
L 363.923281 254.264996 
L 364.199285 253.801654 
L 364.449373 256.748922 
L 364.734447 253.108519 
L 365.267018 255.569184 
L 365.791815 255.274057 
L 366.048382 257.000166 
L 366.326978 256.874908 
L 366.583545 256.526164 
L 366.859549 256.460055 
L 367.116116 257.710042 
L 367.397303 258.100028 
L 367.648687 256.853956 
L 368.181258 258.487438 
L 368.461149 258.518341 
L 368.704758 260.013462 
L 368.983354 265.583073 
L 369.239921 258.593466 
L 369.526291 259.994693 
L 369.781562 259.939646 
L 370.061454 260.359642 
L 370.303767 263.014996 
L 370.588842 262.474756 
L 370.835042 263.265346 
L 371.120117 264.946088 
L 371.644913 262.131164 
L 371.897593 260.005027 
L 372.174893 263.169915 
L 372.706168 258.877915 
L 373.237443 261.840543 
L 373.492715 261.281558 
L 373.77131 259.113817 
L 374.029173 259.024365 
L 374.302586 259.219125 
L 374.836452 257.439048 
L 375.089132 255.434426 
L 375.367728 254.558956 
L 375.620407 254.510812 
L 376.156866 248.811706 
L 376.434166 248.172179 
L 376.684254 250.052485 
L 376.962849 250.133284 
L 377.223304 249.580677 
L 377.7481 250.254709 
L 378.027991 247.763117 
L 378.563154 249.652795 
L 378.818425 248.617384 
L 379.089246 250.255284 
L 379.350996 250.052493 
L 379.625705 250.766393 
L 379.880976 252.684808 
L 380.417434 254.100395 
L 380.692143 258.380458 
L 380.938343 260.4778 
L 381.224714 260.617136 
L 381.47221 260.887091 
L 381.999598 263.82589 
L 382.279489 263.040533 
L 382.809469 257.356478 
L 383.062149 256.863719 
L 383.597311 254.039791 
L 383.873315 254.787676 
L 384.127291 254.93108 
L 384.405886 254.632337 
L 384.661158 255.051364 
L 385.189841 250.023098 
L 386.787554 240.150105 
L 387.860471 230.934099 
L 388.131292 229.270426 
L 388.382676 235.289506 
L 389.200322 238.261567 
L 389.729005 248.673248 
L 389.986868 251.552177 
L 390.522031 254.484902 
L 390.788964 255.533288 
L 391.041644 256.052987 
L 391.856698 256.798212 
L 393.175816 257.052739 
L 393.704499 256.888592 
L 393.981799 257.115993 
L 394.768346 256.859326 
L 395.04435 257.085366 
L 395.83608 256.879589 
L 396.105604 257.028043 
L 396.892151 256.904365 
L 397.169451 257.034714 
L 397.700726 256.800568 
L 398.237185 257.047081 
L 398.487273 256.919165 
L 398.487273 256.919165 
" style="fill:none;stroke:#2ca02c;stroke-linecap:square;stroke-width:1.5;"/>
   </g>
   <g id="line2d_17">
    <path clip-path="url(#p48174a92cb)" d="M 73.832727 53.568036 
L 398.487273 53.568029 
L 398.487273 53.568029 
" style="fill:none;stroke:#d62728;stroke-linecap:square;stroke-width:1.5;"/>
   </g>
   <g id="patch_3">
    <path d="M 57.6 307.584 
L 57.6 41.472 
" style="fill:none;stroke:#000000;stroke-linecap:square;stroke-linejoin:miter;stroke-width:0.8;"/>
   </g>
   <g id="patch_4">
    <path d="M 414.72 307.584 
L 414.72 41.472 
" style="fill:none;stroke:#000000;stroke-linecap:square;stroke-linejoin:miter;stroke-width:0.8;"/>
   </g>
   <g id="patch_5">
    <path d="M 57.6 307.584 
L 414.72 307.584 
" style="fill:none;stroke:#000000;stroke-linecap:square;stroke-linejoin:miter;stroke-width:0.8;"/>
   </g>
   <g id="patch_6">
    <path d="M 57.6 41.472 
L 414.72 41.472 
" style="fill:none;stroke:#000000;stroke-linecap:square;stroke-linejoin:miter;stroke-width:0.8;"/>
   </g>
   <g id="text_16">
    <!-- OnePLus 7T/car_on_pocket/grav Dec 09 121013.txt -->
    <defs>
     <path d="M 39.40625 66.21875 
Q 28.65625 66.21875 22.328125 58.203125 
Q 16.015625 50.203125 16.015625 36.375 
Q 16.015625 22.609375 22.328125 14.59375 
Q 28.65625 6.59375 39.40625 6.59375 
Q 50.140625 6.59375 56.421875 14.59375 
Q 62.703125 22.609375 62.703125 36.375 
Q 62.703125 50.203125 56.421875 58.203125 
Q 50.140625 66.21875 39.40625 66.21875 
z
M 39.40625 74.21875 
Q 54.734375 74.21875 63.90625 63.9375 
Q 73.09375 53.65625 73.09375 36.375 
Q 73.09375 19.140625 63.90625 8.859375 
Q 54.734375 -1.421875 39.40625 -1.421875 
Q 24.03125 -1.421875 14.8125 8.828125 
Q 5.609375 19.09375 5.609375 36.375 
Q 5.609375 53.65625 14.8125 63.9375 
Q 24.03125 74.21875 39.40625 74.21875 
z
" id="DejaVuSans-79"/>
     <path d="M 19.671875 64.796875 
L 19.671875 37.40625 
L 32.078125 37.40625 
Q 38.96875 37.40625 42.71875 40.96875 
Q 46.484375 44.53125 46.484375 51.125 
Q 46.484375 57.671875 42.71875 61.234375 
Q 38.96875 64.796875 32.078125 64.796875 
z
M 9.8125 72.90625 
L 32.078125 72.90625 
Q 44.34375 72.90625 50.609375 67.359375 
Q 56.890625 61.8125 56.890625 51.125 
Q 56.890625 40.328125 50.609375 34.8125 
Q 44.34375 29.296875 32.078125 29.296875 
L 19.671875 29.296875 
L 19.671875 0 
L 9.8125 0 
z
" id="DejaVuSans-80"/>
     <path d="M 9.8125 72.90625 
L 19.671875 72.90625 
L 19.671875 8.296875 
L 55.171875 8.296875 
L 55.171875 0 
L 9.8125 0 
z
" id="DejaVuSans-76"/>
     <path d="M 8.203125 72.90625 
L 55.078125 72.90625 
L 55.078125 68.703125 
L 28.609375 0 
L 18.3125 0 
L 43.21875 64.59375 
L 8.203125 64.59375 
z
" id="DejaVuSans-55"/>
     <path d="M 25.390625 72.90625 
L 33.6875 72.90625 
L 8.296875 -9.28125 
L 0 -9.28125 
z
" id="DejaVuSans-47"/>
     <path d="M 41.109375 46.296875 
Q 39.59375 47.171875 37.8125 47.578125 
Q 36.03125 48 33.890625 48 
Q 26.265625 48 22.1875 43.046875 
Q 18.109375 38.09375 18.109375 28.8125 
L 18.109375 0 
L 9.078125 0 
L 9.078125 54.6875 
L 18.109375 54.6875 
L 18.109375 46.1875 
Q 20.953125 51.171875 25.484375 53.578125 
Q 30.03125 56 36.53125 56 
Q 37.453125 56 38.578125 55.875 
Q 39.703125 55.765625 41.0625 55.515625 
z
" id="DejaVuSans-114"/>
     <path d="M 50.984375 -16.609375 
L 50.984375 -23.578125 
L -0.984375 -23.578125 
L -0.984375 -16.609375 
z
" id="DejaVuSans-95"/>
     <path d="M 18.109375 8.203125 
L 18.109375 -20.796875 
L 9.078125 -20.796875 
L 9.078125 54.6875 
L 18.109375 54.6875 
L 18.109375 46.390625 
Q 20.953125 51.265625 25.265625 53.625 
Q 29.59375 56 35.59375 56 
Q 45.5625 56 51.78125 48.09375 
Q 58.015625 40.1875 58.015625 27.296875 
Q 58.015625 14.40625 51.78125 6.484375 
Q 45.5625 -1.421875 35.59375 -1.421875 
Q 29.59375 -1.421875 25.265625 0.953125 
Q 20.953125 3.328125 18.109375 8.203125 
z
M 48.6875 27.296875 
Q 48.6875 37.203125 44.609375 42.84375 
Q 40.53125 48.484375 33.40625 48.484375 
Q 26.265625 48.484375 22.1875 42.84375 
Q 18.109375 37.203125 18.109375 27.296875 
Q 18.109375 17.390625 22.1875 11.75 
Q 26.265625 6.109375 33.40625 6.109375 
Q 40.53125 6.109375 44.609375 11.75 
Q 48.6875 17.390625 48.6875 27.296875 
z
" id="DejaVuSans-112"/>
     <path d="M 9.078125 75.984375 
L 18.109375 75.984375 
L 18.109375 31.109375 
L 44.921875 54.6875 
L 56.390625 54.6875 
L 27.390625 29.109375 
L 57.625 0 
L 45.90625 0 
L 18.109375 26.703125 
L 18.109375 0 
L 9.078125 0 
z
" id="DejaVuSans-107"/>
     <path d="M 2.984375 54.6875 
L 12.5 54.6875 
L 29.59375 8.796875 
L 46.6875 54.6875 
L 56.203125 54.6875 
L 35.6875 0 
L 23.484375 0 
z
" id="DejaVuSans-118"/>
     <path d="M 19.671875 64.796875 
L 19.671875 8.109375 
L 31.59375 8.109375 
Q 46.6875 8.109375 53.6875 14.9375 
Q 60.6875 21.78125 60.6875 36.53125 
Q 60.6875 51.171875 53.6875 57.984375 
Q 46.6875 64.796875 31.59375 64.796875 
z
M 9.8125 72.90625 
L 30.078125 72.90625 
Q 51.265625 72.90625 61.171875 64.09375 
Q 71.09375 55.28125 71.09375 36.53125 
Q 71.09375 17.671875 61.125 8.828125 
Q 51.171875 0 30.078125 0 
L 9.8125 0 
z
" id="DejaVuSans-68"/>
     <path d="M 10.984375 1.515625 
L 10.984375 10.5 
Q 14.703125 8.734375 18.5 7.8125 
Q 22.3125 6.890625 25.984375 6.890625 
Q 35.75 6.890625 40.890625 13.453125 
Q 46.046875 20.015625 46.78125 33.40625 
Q 43.953125 29.203125 39.59375 26.953125 
Q 35.25 24.703125 29.984375 24.703125 
Q 19.046875 24.703125 12.671875 31.3125 
Q 6.296875 37.9375 6.296875 49.421875 
Q 6.296875 60.640625 12.9375 67.421875 
Q 19.578125 74.21875 30.609375 74.21875 
Q 43.265625 74.21875 49.921875 64.515625 
Q 56.59375 54.828125 56.59375 36.375 
Q 56.59375 19.140625 48.40625 8.859375 
Q 40.234375 -1.421875 26.421875 -1.421875 
Q 22.703125 -1.421875 18.890625 -0.6875 
Q 15.09375 0.046875 10.984375 1.515625 
z
M 30.609375 32.421875 
Q 37.25 32.421875 41.125 36.953125 
Q 45.015625 41.5 45.015625 49.421875 
Q 45.015625 57.28125 41.125 61.84375 
Q 37.25 66.40625 30.609375 66.40625 
Q 23.96875 66.40625 20.09375 61.84375 
Q 16.21875 57.28125 16.21875 49.421875 
Q 16.21875 41.5 20.09375 36.953125 
Q 23.96875 32.421875 30.609375 32.421875 
z
" id="DejaVuSans-57"/>
     <path d="M 40.578125 39.3125 
Q 47.65625 37.796875 51.625 33 
Q 55.609375 28.21875 55.609375 21.1875 
Q 55.609375 10.40625 48.1875 4.484375 
Q 40.765625 -1.421875 27.09375 -1.421875 
Q 22.515625 -1.421875 17.65625 -0.515625 
Q 12.796875 0.390625 7.625 2.203125 
L 7.625 11.71875 
Q 11.71875 9.328125 16.59375 8.109375 
Q 21.484375 6.890625 26.8125 6.890625 
Q 36.078125 6.890625 40.9375 10.546875 
Q 45.796875 14.203125 45.796875 21.1875 
Q 45.796875 27.640625 41.28125 31.265625 
Q 36.765625 34.90625 28.71875 34.90625 
L 20.21875 34.90625 
L 20.21875 43.015625 
L 29.109375 43.015625 
Q 36.375 43.015625 40.234375 45.921875 
Q 44.09375 48.828125 44.09375 54.296875 
Q 44.09375 59.90625 40.109375 62.90625 
Q 36.140625 65.921875 28.71875 65.921875 
Q 24.65625 65.921875 20.015625 65.03125 
Q 15.375 64.15625 9.8125 62.3125 
L 9.8125 71.09375 
Q 15.4375 72.65625 20.34375 73.4375 
Q 25.25 74.21875 29.59375 74.21875 
Q 40.828125 74.21875 47.359375 69.109375 
Q 53.90625 64.015625 53.90625 55.328125 
Q 53.90625 49.265625 50.4375 45.09375 
Q 46.96875 40.921875 40.578125 39.3125 
z
" id="DejaVuSans-51"/>
     <path d="M 10.6875 12.40625 
L 21 12.40625 
L 21 0 
L 10.6875 0 
z
" id="DejaVuSans-46"/>
     <path d="M 54.890625 54.6875 
L 35.109375 28.078125 
L 55.90625 0 
L 45.3125 0 
L 29.390625 21.484375 
L 13.484375 0 
L 2.875 0 
L 24.125 28.609375 
L 4.6875 54.6875 
L 15.28125 54.6875 
L 29.78125 35.203125 
L 44.28125 54.6875 
z
" id="DejaVuSans-120"/>
    </defs>
    <g transform="translate(81.87375 35.472)scale(0.12 -0.12)">
     <use xlink:href="#DejaVuSans-79"/>
     <use x="78.710938" xlink:href="#DejaVuSans-110"/>
     <use x="142.089844" xlink:href="#DejaVuSans-101"/>
     <use x="203.613281" xlink:href="#DejaVuSans-80"/>
     <use x="263.916016" xlink:href="#DejaVuSans-76"/>
     <use x="319.613281" xlink:href="#DejaVuSans-117"/>
     <use x="382.992188" xlink:href="#DejaVuSans-115"/>
     <use x="435.091797" xlink:href="#DejaVuSans-32"/>
     <use x="466.878906" xlink:href="#DejaVuSans-55"/>
     <use x="530.501953" xlink:href="#DejaVuSans-84"/>
     <use x="591.585938" xlink:href="#DejaVuSans-47"/>
     <use x="625.277344" xlink:href="#DejaVuSans-99"/>
     <use x="680.257812" xlink:href="#DejaVuSans-97"/>
     <use x="741.537109" xlink:href="#DejaVuSans-114"/>
     <use x="782.650391" xlink:href="#DejaVuSans-95"/>
     <use x="832.650391" xlink:href="#DejaVuSans-111"/>
     <use x="893.832031" xlink:href="#DejaVuSans-110"/>
     <use x="957.210938" xlink:href="#DejaVuSans-95"/>
     <use x="1007.210938" xlink:href="#DejaVuSans-112"/>
     <use x="1070.6875" xlink:href="#DejaVuSans-111"/>
     <use x="1131.869141" xlink:href="#DejaVuSans-99"/>
     <use x="1186.849609" xlink:href="#DejaVuSans-107"/>
     <use x="1244.712891" xlink:href="#DejaVuSans-101"/>
     <use x="1306.236328" xlink:href="#DejaVuSans-116"/>
     <use x="1345.445312" xlink:href="#DejaVuSans-47"/>
     <use x="1379.136719" xlink:href="#DejaVuSans-103"/>
     <use x="1442.613281" xlink:href="#DejaVuSans-114"/>
     <use x="1483.726562" xlink:href="#DejaVuSans-97"/>
     <use x="1545.005859" xlink:href="#DejaVuSans-118"/>
     <use x="1604.185547" xlink:href="#DejaVuSans-32"/>
     <use x="1635.972656" xlink:href="#DejaVuSans-68"/>
     <use x="1712.974609" xlink:href="#DejaVuSans-101"/>
     <use x="1774.498047" xlink:href="#DejaVuSans-99"/>
     <use x="1829.478516" xlink:href="#DejaVuSans-32"/>
     <use x="1861.265625" xlink:href="#DejaVuSans-48"/>
     <use x="1924.888672" xlink:href="#DejaVuSans-57"/>
     <use x="1988.511719" xlink:href="#DejaVuSans-32"/>
     <use x="2020.298828" xlink:href="#DejaVuSans-49"/>
     <use x="2083.921875" xlink:href="#DejaVuSans-50"/>
     <use x="2147.544922" xlink:href="#DejaVuSans-49"/>
     <use x="2211.167969" xlink:href="#DejaVuSans-48"/>
     <use x="2274.791016" xlink:href="#DejaVuSans-49"/>
     <use x="2338.414062" xlink:href="#DejaVuSans-51"/>
     <use x="2402.037109" xlink:href="#DejaVuSans-46"/>
     <use x="2433.824219" xlink:href="#DejaVuSans-116"/>
     <use x="2473.033203" xlink:href="#DejaVuSans-120"/>
     <use x="2532.212891" xlink:href="#DejaVuSans-116"/>
    </g>
   </g>
   <g id="legend_1">
    <g id="patch_7">
     <path d="M 344.52 205.38425 
L 407.72 205.38425 
Q 409.72 205.38425 409.72 203.38425 
L 409.72 145.67175 
Q 409.72 143.67175 407.72 143.67175 
L 344.52 143.67175 
Q 342.52 143.67175 342.52 145.67175 
L 342.52 203.38425 
Q 342.52 205.38425 344.52 205.38425 
z
" style="fill:#ffffff;opacity:0.8;stroke:#cccccc;stroke-linejoin:miter;"/>
    </g>
    <g id="line2d_18">
     <path d="M 346.52 151.770188 
L 366.52 151.770188 
" style="fill:none;stroke:#1f77b4;stroke-linecap:square;stroke-width:1.5;"/>
    </g>
    <g id="line2d_19"/>
    <g id="text_17">
     <!-- X-Axis -->
     <defs>
      <path d="M 6.296875 72.90625 
L 16.890625 72.90625 
L 35.015625 45.796875 
L 53.21875 72.90625 
L 63.8125 72.90625 
L 40.375 37.890625 
L 65.375 0 
L 54.78125 0 
L 34.28125 31 
L 13.625 0 
L 2.984375 0 
L 29 38.921875 
z
" id="DejaVuSans-88"/>
      <path d="M 4.890625 31.390625 
L 31.203125 31.390625 
L 31.203125 23.390625 
L 4.890625 23.390625 
z
" id="DejaVuSans-45"/>
      <path d="M 34.1875 63.1875 
L 20.796875 26.90625 
L 47.609375 26.90625 
z
M 28.609375 72.90625 
L 39.796875 72.90625 
L 67.578125 0 
L 57.328125 0 
L 50.6875 18.703125 
L 17.828125 18.703125 
L 11.1875 0 
L 0.78125 0 
z
" id="DejaVuSans-65"/>
     </defs>
     <g transform="translate(374.52 155.270188)scale(0.1 -0.1)">
      <use xlink:href="#DejaVuSans-88"/>
      <use x="68.427734" xlink:href="#DejaVuSans-45"/>
      <use x="104.480469" xlink:href="#DejaVuSans-65"/>
      <use x="172.888672" xlink:href="#DejaVuSans-120"/>
      <use x="232.068359" xlink:href="#DejaVuSans-105"/>
      <use x="259.851562" xlink:href="#DejaVuSans-115"/>
     </g>
    </g>
    <g id="line2d_20">
     <path d="M 346.52 166.448313 
L 366.52 166.448313 
" style="fill:none;stroke:#ff7f0e;stroke-linecap:square;stroke-width:1.5;"/>
    </g>
    <g id="line2d_21"/>
    <g id="text_18">
     <!-- Y-Axis -->
     <defs>
      <path d="M -0.203125 72.90625 
L 10.40625 72.90625 
L 30.609375 42.921875 
L 50.6875 72.90625 
L 61.28125 72.90625 
L 35.5 34.71875 
L 35.5 0 
L 25.59375 0 
L 25.59375 34.71875 
z
" id="DejaVuSans-89"/>
     </defs>
     <g transform="translate(374.52 169.948313)scale(0.1 -0.1)">
      <use xlink:href="#DejaVuSans-89"/>
      <use x="60.912109" xlink:href="#DejaVuSans-45"/>
      <use x="96.964844" xlink:href="#DejaVuSans-65"/>
      <use x="165.373047" xlink:href="#DejaVuSans-120"/>
      <use x="224.552734" xlink:href="#DejaVuSans-105"/>
      <use x="252.335938" xlink:href="#DejaVuSans-115"/>
     </g>
    </g>
    <g id="line2d_22">
     <path d="M 346.52 181.126438 
L 366.52 181.126438 
" style="fill:none;stroke:#2ca02c;stroke-linecap:square;stroke-width:1.5;"/>
    </g>
    <g id="line2d_23"/>
    <g id="text_19">
     <!-- Z-Axis -->
     <defs>
      <path d="M 5.609375 72.90625 
L 62.890625 72.90625 
L 62.890625 65.375 
L 16.796875 8.296875 
L 64.015625 8.296875 
L 64.015625 0 
L 4.5 0 
L 4.5 7.515625 
L 50.59375 64.59375 
L 5.609375 64.59375 
z
" id="DejaVuSans-90"/>
     </defs>
     <g transform="translate(374.52 184.626438)scale(0.1 -0.1)">
      <use xlink:href="#DejaVuSans-90"/>
      <use x="68.490234" xlink:href="#DejaVuSans-45"/>
      <use x="104.542969" xlink:href="#DejaVuSans-65"/>
      <use x="172.951172" xlink:href="#DejaVuSans-120"/>
      <use x="232.130859" xlink:href="#DejaVuSans-105"/>
      <use x="259.914062" xlink:href="#DejaVuSans-115"/>
     </g>
    </g>
    <g id="line2d_24">
     <path d="M 346.52 195.804563 
L 366.52 195.804563 
" style="fill:none;stroke:#d62728;stroke-linecap:square;stroke-width:1.5;"/>
    </g>
    <g id="line2d_25"/>
    <g id="text_20">
     <!-- Mod -->
     <g transform="translate(374.52 199.304563)scale(0.1 -0.1)">
      <use xlink:href="#DejaVuSans-77"/>
      <use x="86.279297" xlink:href="#DejaVuSans-111"/>
      <use x="147.460938" xlink:href="#DejaVuSans-100"/>
     </g>
    </g>
   </g>
  </g>
 </g>
 <defs>
  <clipPath id="p48174a92cb">
   <rect height="266.112" width="357.12" x="57.6" y="41.472"/>
  </clipPath>
 </defs>
</svg>
