<?xml version="1.0" encoding="utf-8" standalone="no"?>
<!DOCTYPE svg PUBLIC "-//W3C//DTD SVG 1.1//EN"
  "http://www.w3.org/Graphics/SVG/1.1/DTD/svg11.dtd">
<!-- Created with matplotlib (https://matplotlib.org/) -->
<svg height="345.6pt" version="1.1" viewBox="0 0 460.8 345.6" width="460.8pt" xmlns="http://www.w3.org/2000/svg" xmlns:xlink="http://www.w3.org/1999/xlink">
 <defs>
  <style type="text/css">
*{stroke-linecap:butt;stroke-linejoin:round;}
  </style>
 </defs>
 <g id="figure_1">
  <g id="patch_1">
   <path d="M 0 345.6 
L 460.8 345.6 
L 460.8 0 
L 0 0 
z
" style="fill:#ffffff;"/>
  </g>
  <g id="axes_1">
   <g id="patch_2">
    <path d="M 57.6 307.584 
L 414.72 307.584 
L 414.72 41.472 
L 57.6 41.472 
z
" style="fill:#ffffff;"/>
   </g>
   <g id="matplotlib.axis_1">
    <g id="xtick_1">
     <g id="line2d_1">
      <defs>
       <path d="M 0 0 
L 0 3.5 
" id="m18aba01b4a" style="stroke:#000000;stroke-width:0.8;"/>
      </defs>
      <g>
       <use style="stroke:#000000;stroke-width:0.8;" x="73.832727" xlink:href="#m18aba01b4a" y="307.584"/>
      </g>
     </g>
     <g id="text_1">
      <!-- 0 -->
      <defs>
       <path d="M 31.78125 66.40625 
Q 24.171875 66.40625 20.328125 58.90625 
Q 16.5 51.421875 16.5 36.375 
Q 16.5 21.390625 20.328125 13.890625 
Q 24.171875 6.390625 31.78125 6.390625 
Q 39.453125 6.390625 43.28125 13.890625 
Q 47.125 21.390625 47.125 36.375 
Q 47.125 51.421875 43.28125 58.90625 
Q 39.453125 66.40625 31.78125 66.40625 
z
M 31.78125 74.21875 
Q 44.046875 74.21875 50.515625 64.515625 
Q 56.984375 54.828125 56.984375 36.375 
Q 56.984375 17.96875 50.515625 8.265625 
Q 44.046875 -1.421875 31.78125 -1.421875 
Q 19.53125 -1.421875 13.0625 8.265625 
Q 6.59375 17.96875 6.59375 36.375 
Q 6.59375 54.828125 13.0625 64.515625 
Q 19.53125 74.21875 31.78125 74.21875 
z
" id="DejaVuSans-48"/>
      </defs>
      <g transform="translate(70.651477 322.182437)scale(0.1 -0.1)">
       <use xlink:href="#DejaVuSans-48"/>
      </g>
     </g>
    </g>
    <g id="xtick_2">
     <g id="line2d_2">
      <g>
       <use style="stroke:#000000;stroke-width:0.8;" x="139.287273" xlink:href="#m18aba01b4a" y="307.584"/>
      </g>
     </g>
     <g id="text_2">
      <!-- 10 -->
      <defs>
       <path d="M 12.40625 8.296875 
L 28.515625 8.296875 
L 28.515625 63.921875 
L 10.984375 60.40625 
L 10.984375 69.390625 
L 28.421875 72.90625 
L 38.28125 72.90625 
L 38.28125 8.296875 
L 54.390625 8.296875 
L 54.390625 0 
L 12.40625 0 
z
" id="DejaVuSans-49"/>
      </defs>
      <g transform="translate(132.924773 322.182437)scale(0.1 -0.1)">
       <use xlink:href="#DejaVuSans-49"/>
       <use x="63.623047" xlink:href="#DejaVuSans-48"/>
      </g>
     </g>
    </g>
    <g id="xtick_3">
     <g id="line2d_3">
      <g>
       <use style="stroke:#000000;stroke-width:0.8;" x="204.741818" xlink:href="#m18aba01b4a" y="307.584"/>
      </g>
     </g>
     <g id="text_3">
      <!-- 20 -->
      <defs>
       <path d="M 19.1875 8.296875 
L 53.609375 8.296875 
L 53.609375 0 
L 7.328125 0 
L 7.328125 8.296875 
Q 12.9375 14.109375 22.625 23.890625 
Q 32.328125 33.6875 34.8125 36.53125 
Q 39.546875 41.84375 41.421875 45.53125 
Q 43.3125 49.21875 43.3125 52.78125 
Q 43.3125 58.59375 39.234375 62.25 
Q 35.15625 65.921875 28.609375 65.921875 
Q 23.96875 65.921875 18.8125 64.3125 
Q 13.671875 62.703125 7.8125 59.421875 
L 7.8125 69.390625 
Q 13.765625 71.78125 18.9375 73 
Q 24.125 74.21875 28.421875 74.21875 
Q 39.75 74.21875 46.484375 68.546875 
Q 53.21875 62.890625 53.21875 53.421875 
Q 53.21875 48.921875 51.53125 44.890625 
Q 49.859375 40.875 45.40625 35.40625 
Q 44.1875 33.984375 37.640625 27.21875 
Q 31.109375 20.453125 19.1875 8.296875 
z
" id="DejaVuSans-50"/>
      </defs>
      <g transform="translate(198.379318 322.182437)scale(0.1 -0.1)">
       <use xlink:href="#DejaVuSans-50"/>
       <use x="63.623047" xlink:href="#DejaVuSans-48"/>
      </g>
     </g>
    </g>
    <g id="xtick_4">
     <g id="line2d_4">
      <g>
       <use style="stroke:#000000;stroke-width:0.8;" x="270.196364" xlink:href="#m18aba01b4a" y="307.584"/>
      </g>
     </g>
     <g id="text_4">
      <!-- 30 -->
      <defs>
       <path d="M 40.578125 39.3125 
Q 47.65625 37.796875 51.625 33 
Q 55.609375 28.21875 55.609375 21.1875 
Q 55.609375 10.40625 48.1875 4.484375 
Q 40.765625 -1.421875 27.09375 -1.421875 
Q 22.515625 -1.421875 17.65625 -0.515625 
Q 12.796875 0.390625 7.625 2.203125 
L 7.625 11.71875 
Q 11.71875 9.328125 16.59375 8.109375 
Q 21.484375 6.890625 26.8125 6.890625 
Q 36.078125 6.890625 40.9375 10.546875 
Q 45.796875 14.203125 45.796875 21.1875 
Q 45.796875 27.640625 41.28125 31.265625 
Q 36.765625 34.90625 28.71875 34.90625 
L 20.21875 34.90625 
L 20.21875 43.015625 
L 29.109375 43.015625 
Q 36.375 43.015625 40.234375 45.921875 
Q 44.09375 48.828125 44.09375 54.296875 
Q 44.09375 59.90625 40.109375 62.90625 
Q 36.140625 65.921875 28.71875 65.921875 
Q 24.65625 65.921875 20.015625 65.03125 
Q 15.375 64.15625 9.8125 62.3125 
L 9.8125 71.09375 
Q 15.4375 72.65625 20.34375 73.4375 
Q 25.25 74.21875 29.59375 74.21875 
Q 40.828125 74.21875 47.359375 69.109375 
Q 53.90625 64.015625 53.90625 55.328125 
Q 53.90625 49.265625 50.4375 45.09375 
Q 46.96875 40.921875 40.578125 39.3125 
z
" id="DejaVuSans-51"/>
      </defs>
      <g transform="translate(263.833864 322.182437)scale(0.1 -0.1)">
       <use xlink:href="#DejaVuSans-51"/>
       <use x="63.623047" xlink:href="#DejaVuSans-48"/>
      </g>
     </g>
    </g>
    <g id="xtick_5">
     <g id="line2d_5">
      <g>
       <use style="stroke:#000000;stroke-width:0.8;" x="335.65091" xlink:href="#m18aba01b4a" y="307.584"/>
      </g>
     </g>
     <g id="text_5">
      <!-- 40 -->
      <defs>
       <path d="M 37.796875 64.3125 
L 12.890625 25.390625 
L 37.796875 25.390625 
z
M 35.203125 72.90625 
L 47.609375 72.90625 
L 47.609375 25.390625 
L 58.015625 25.390625 
L 58.015625 17.1875 
L 47.609375 17.1875 
L 47.609375 0 
L 37.796875 0 
L 37.796875 17.1875 
L 4.890625 17.1875 
L 4.890625 26.703125 
z
" id="DejaVuSans-52"/>
      </defs>
      <g transform="translate(329.28841 322.182437)scale(0.1 -0.1)">
       <use xlink:href="#DejaVuSans-52"/>
       <use x="63.623047" xlink:href="#DejaVuSans-48"/>
      </g>
     </g>
    </g>
    <g id="xtick_6">
     <g id="line2d_6">
      <g>
       <use style="stroke:#000000;stroke-width:0.8;" x="401.105455" xlink:href="#m18aba01b4a" y="307.584"/>
      </g>
     </g>
     <g id="text_6">
      <!-- 50 -->
      <defs>
       <path d="M 10.796875 72.90625 
L 49.515625 72.90625 
L 49.515625 64.59375 
L 19.828125 64.59375 
L 19.828125 46.734375 
Q 21.96875 47.46875 24.109375 47.828125 
Q 26.265625 48.1875 28.421875 48.1875 
Q 40.625 48.1875 47.75 41.5 
Q 54.890625 34.8125 54.890625 23.390625 
Q 54.890625 11.625 47.5625 5.09375 
Q 40.234375 -1.421875 26.90625 -1.421875 
Q 22.3125 -1.421875 17.546875 -0.640625 
Q 12.796875 0.140625 7.71875 1.703125 
L 7.71875 11.625 
Q 12.109375 9.234375 16.796875 8.0625 
Q 21.484375 6.890625 26.703125 6.890625 
Q 35.15625 6.890625 40.078125 11.328125 
Q 45.015625 15.765625 45.015625 23.390625 
Q 45.015625 31 40.078125 35.4375 
Q 35.15625 39.890625 26.703125 39.890625 
Q 22.75 39.890625 18.8125 39.015625 
Q 14.890625 38.140625 10.796875 36.28125 
z
" id="DejaVuSans-53"/>
      </defs>
      <g transform="translate(394.742955 322.182437)scale(0.1 -0.1)">
       <use xlink:href="#DejaVuSans-53"/>
       <use x="63.623047" xlink:href="#DejaVuSans-48"/>
      </g>
     </g>
    </g>
    <g id="text_7">
     <!-- Time (in seconds) -->
     <defs>
      <path d="M -0.296875 72.90625 
L 61.375 72.90625 
L 61.375 64.59375 
L 35.5 64.59375 
L 35.5 0 
L 25.59375 0 
L 25.59375 64.59375 
L -0.296875 64.59375 
z
" id="DejaVuSans-84"/>
      <path d="M 9.421875 54.6875 
L 18.40625 54.6875 
L 18.40625 0 
L 9.421875 0 
z
M 9.421875 75.984375 
L 18.40625 75.984375 
L 18.40625 64.59375 
L 9.421875 64.59375 
z
" id="DejaVuSans-105"/>
      <path d="M 52 44.1875 
Q 55.375 50.25 60.0625 53.125 
Q 64.75 56 71.09375 56 
Q 79.640625 56 84.28125 50.015625 
Q 88.921875 44.046875 88.921875 33.015625 
L 88.921875 0 
L 79.890625 0 
L 79.890625 32.71875 
Q 79.890625 40.578125 77.09375 44.375 
Q 74.3125 48.1875 68.609375 48.1875 
Q 61.625 48.1875 57.5625 43.546875 
Q 53.515625 38.921875 53.515625 30.90625 
L 53.515625 0 
L 44.484375 0 
L 44.484375 32.71875 
Q 44.484375 40.625 41.703125 44.40625 
Q 38.921875 48.1875 33.109375 48.1875 
Q 26.21875 48.1875 22.15625 43.53125 
Q 18.109375 38.875 18.109375 30.90625 
L 18.109375 0 
L 9.078125 0 
L 9.078125 54.6875 
L 18.109375 54.6875 
L 18.109375 46.1875 
Q 21.1875 51.21875 25.484375 53.609375 
Q 29.78125 56 35.6875 56 
Q 41.65625 56 45.828125 52.96875 
Q 50 49.953125 52 44.1875 
z
" id="DejaVuSans-109"/>
      <path d="M 56.203125 29.59375 
L 56.203125 25.203125 
L 14.890625 25.203125 
Q 15.484375 15.921875 20.484375 11.0625 
Q 25.484375 6.203125 34.421875 6.203125 
Q 39.59375 6.203125 44.453125 7.46875 
Q 49.3125 8.734375 54.109375 11.28125 
L 54.109375 2.78125 
Q 49.265625 0.734375 44.1875 -0.34375 
Q 39.109375 -1.421875 33.890625 -1.421875 
Q 20.796875 -1.421875 13.15625 6.1875 
Q 5.515625 13.8125 5.515625 26.8125 
Q 5.515625 40.234375 12.765625 48.109375 
Q 20.015625 56 32.328125 56 
Q 43.359375 56 49.78125 48.890625 
Q 56.203125 41.796875 56.203125 29.59375 
z
M 47.21875 32.234375 
Q 47.125 39.59375 43.09375 43.984375 
Q 39.0625 48.390625 32.421875 48.390625 
Q 24.90625 48.390625 20.390625 44.140625 
Q 15.875 39.890625 15.1875 32.171875 
z
" id="DejaVuSans-101"/>
      <path id="DejaVuSans-32"/>
      <path d="M 31 75.875 
Q 24.46875 64.65625 21.28125 53.65625 
Q 18.109375 42.671875 18.109375 31.390625 
Q 18.109375 20.125 21.3125 9.0625 
Q 24.515625 -2 31 -13.1875 
L 23.1875 -13.1875 
Q 15.875 -1.703125 12.234375 9.375 
Q 8.59375 20.453125 8.59375 31.390625 
Q 8.59375 42.28125 12.203125 53.3125 
Q 15.828125 64.359375 23.1875 75.875 
z
" id="DejaVuSans-40"/>
      <path d="M 54.890625 33.015625 
L 54.890625 0 
L 45.90625 0 
L 45.90625 32.71875 
Q 45.90625 40.484375 42.875 44.328125 
Q 39.84375 48.1875 33.796875 48.1875 
Q 26.515625 48.1875 22.3125 43.546875 
Q 18.109375 38.921875 18.109375 30.90625 
L 18.109375 0 
L 9.078125 0 
L 9.078125 54.6875 
L 18.109375 54.6875 
L 18.109375 46.1875 
Q 21.34375 51.125 25.703125 53.5625 
Q 30.078125 56 35.796875 56 
Q 45.21875 56 50.046875 50.171875 
Q 54.890625 44.34375 54.890625 33.015625 
z
" id="DejaVuSans-110"/>
      <path d="M 44.28125 53.078125 
L 44.28125 44.578125 
Q 40.484375 46.53125 36.375 47.5 
Q 32.28125 48.484375 27.875 48.484375 
Q 21.1875 48.484375 17.84375 46.4375 
Q 14.5 44.390625 14.5 40.28125 
Q 14.5 37.15625 16.890625 35.375 
Q 19.28125 33.59375 26.515625 31.984375 
L 29.59375 31.296875 
Q 39.15625 29.25 43.1875 25.515625 
Q 47.21875 21.78125 47.21875 15.09375 
Q 47.21875 7.46875 41.1875 3.015625 
Q 35.15625 -1.421875 24.609375 -1.421875 
Q 20.21875 -1.421875 15.453125 -0.5625 
Q 10.6875 0.296875 5.421875 2 
L 5.421875 11.28125 
Q 10.40625 8.6875 15.234375 7.390625 
Q 20.0625 6.109375 24.8125 6.109375 
Q 31.15625 6.109375 34.5625 8.28125 
Q 37.984375 10.453125 37.984375 14.40625 
Q 37.984375 18.0625 35.515625 20.015625 
Q 33.0625 21.96875 24.703125 23.78125 
L 21.578125 24.515625 
Q 13.234375 26.265625 9.515625 29.90625 
Q 5.8125 33.546875 5.8125 39.890625 
Q 5.8125 47.609375 11.28125 51.796875 
Q 16.75 56 26.8125 56 
Q 31.78125 56 36.171875 55.265625 
Q 40.578125 54.546875 44.28125 53.078125 
z
" id="DejaVuSans-115"/>
      <path d="M 48.78125 52.59375 
L 48.78125 44.1875 
Q 44.96875 46.296875 41.140625 47.34375 
Q 37.3125 48.390625 33.40625 48.390625 
Q 24.65625 48.390625 19.8125 42.84375 
Q 14.984375 37.3125 14.984375 27.296875 
Q 14.984375 17.28125 19.8125 11.734375 
Q 24.65625 6.203125 33.40625 6.203125 
Q 37.3125 6.203125 41.140625 7.25 
Q 44.96875 8.296875 48.78125 10.40625 
L 48.78125 2.09375 
Q 45.015625 0.34375 40.984375 -0.53125 
Q 36.96875 -1.421875 32.421875 -1.421875 
Q 20.0625 -1.421875 12.78125 6.34375 
Q 5.515625 14.109375 5.515625 27.296875 
Q 5.515625 40.671875 12.859375 48.328125 
Q 20.21875 56 33.015625 56 
Q 37.15625 56 41.109375 55.140625 
Q 45.0625 54.296875 48.78125 52.59375 
z
" id="DejaVuSans-99"/>
      <path d="M 30.609375 48.390625 
Q 23.390625 48.390625 19.1875 42.75 
Q 14.984375 37.109375 14.984375 27.296875 
Q 14.984375 17.484375 19.15625 11.84375 
Q 23.34375 6.203125 30.609375 6.203125 
Q 37.796875 6.203125 41.984375 11.859375 
Q 46.1875 17.53125 46.1875 27.296875 
Q 46.1875 37.015625 41.984375 42.703125 
Q 37.796875 48.390625 30.609375 48.390625 
z
M 30.609375 56 
Q 42.328125 56 49.015625 48.375 
Q 55.71875 40.765625 55.71875 27.296875 
Q 55.71875 13.875 49.015625 6.21875 
Q 42.328125 -1.421875 30.609375 -1.421875 
Q 18.84375 -1.421875 12.171875 6.21875 
Q 5.515625 13.875 5.515625 27.296875 
Q 5.515625 40.765625 12.171875 48.375 
Q 18.84375 56 30.609375 56 
z
" id="DejaVuSans-111"/>
      <path d="M 45.40625 46.390625 
L 45.40625 75.984375 
L 54.390625 75.984375 
L 54.390625 0 
L 45.40625 0 
L 45.40625 8.203125 
Q 42.578125 3.328125 38.25 0.953125 
Q 33.9375 -1.421875 27.875 -1.421875 
Q 17.96875 -1.421875 11.734375 6.484375 
Q 5.515625 14.40625 5.515625 27.296875 
Q 5.515625 40.1875 11.734375 48.09375 
Q 17.96875 56 27.875 56 
Q 33.9375 56 38.25 53.625 
Q 42.578125 51.265625 45.40625 46.390625 
z
M 14.796875 27.296875 
Q 14.796875 17.390625 18.875 11.75 
Q 22.953125 6.109375 30.078125 6.109375 
Q 37.203125 6.109375 41.296875 11.75 
Q 45.40625 17.390625 45.40625 27.296875 
Q 45.40625 37.203125 41.296875 42.84375 
Q 37.203125 48.484375 30.078125 48.484375 
Q 22.953125 48.484375 18.875 42.84375 
Q 14.796875 37.203125 14.796875 27.296875 
z
" id="DejaVuSans-100"/>
      <path d="M 8.015625 75.875 
L 15.828125 75.875 
Q 23.140625 64.359375 26.78125 53.3125 
Q 30.421875 42.28125 30.421875 31.390625 
Q 30.421875 20.453125 26.78125 9.375 
Q 23.140625 -1.703125 15.828125 -13.1875 
L 8.015625 -13.1875 
Q 14.5 -2 17.703125 9.0625 
Q 20.90625 20.125 20.90625 31.390625 
Q 20.90625 42.671875 17.703125 53.65625 
Q 14.5 64.65625 8.015625 75.875 
z
" id="DejaVuSans-41"/>
     </defs>
     <g transform="translate(191.6975 335.860562)scale(0.1 -0.1)">
      <use xlink:href="#DejaVuSans-84"/>
      <use x="61.037109" xlink:href="#DejaVuSans-105"/>
      <use x="88.820312" xlink:href="#DejaVuSans-109"/>
      <use x="186.232422" xlink:href="#DejaVuSans-101"/>
      <use x="247.755859" xlink:href="#DejaVuSans-32"/>
      <use x="279.542969" xlink:href="#DejaVuSans-40"/>
      <use x="318.556641" xlink:href="#DejaVuSans-105"/>
      <use x="346.339844" xlink:href="#DejaVuSans-110"/>
      <use x="409.71875" xlink:href="#DejaVuSans-32"/>
      <use x="441.505859" xlink:href="#DejaVuSans-115"/>
      <use x="493.605469" xlink:href="#DejaVuSans-101"/>
      <use x="555.128906" xlink:href="#DejaVuSans-99"/>
      <use x="610.109375" xlink:href="#DejaVuSans-111"/>
      <use x="671.291016" xlink:href="#DejaVuSans-110"/>
      <use x="734.669922" xlink:href="#DejaVuSans-100"/>
      <use x="798.146484" xlink:href="#DejaVuSans-115"/>
      <use x="850.246094" xlink:href="#DejaVuSans-41"/>
     </g>
    </g>
   </g>
   <g id="matplotlib.axis_2">
    <g id="ytick_1">
     <g id="line2d_7">
      <defs>
       <path d="M 0 0 
L -3.5 0 
" id="m469203756a" style="stroke:#000000;stroke-width:0.8;"/>
      </defs>
      <g>
       <use style="stroke:#000000;stroke-width:0.8;" x="57.6" xlink:href="#m469203756a" y="276.480638"/>
      </g>
     </g>
     <g id="text_8">
      <!-- 0 -->
      <g transform="translate(44.2375 280.279856)scale(0.1 -0.1)">
       <use xlink:href="#DejaVuSans-48"/>
      </g>
     </g>
    </g>
    <g id="ytick_2">
     <g id="line2d_8">
      <g>
       <use style="stroke:#000000;stroke-width:0.8;" x="57.6" xlink:href="#m469203756a" y="230.75684"/>
      </g>
     </g>
     <g id="text_9">
      <!-- 2 -->
      <g transform="translate(44.2375 234.556058)scale(0.1 -0.1)">
       <use xlink:href="#DejaVuSans-50"/>
      </g>
     </g>
    </g>
    <g id="ytick_3">
     <g id="line2d_9">
      <g>
       <use style="stroke:#000000;stroke-width:0.8;" x="57.6" xlink:href="#m469203756a" y="185.033041"/>
      </g>
     </g>
     <g id="text_10">
      <!-- 4 -->
      <g transform="translate(44.2375 188.83226)scale(0.1 -0.1)">
       <use xlink:href="#DejaVuSans-52"/>
      </g>
     </g>
    </g>
    <g id="ytick_4">
     <g id="line2d_10">
      <g>
       <use style="stroke:#000000;stroke-width:0.8;" x="57.6" xlink:href="#m469203756a" y="139.309243"/>
      </g>
     </g>
     <g id="text_11">
      <!-- 6 -->
      <defs>
       <path d="M 33.015625 40.375 
Q 26.375 40.375 22.484375 35.828125 
Q 18.609375 31.296875 18.609375 23.390625 
Q 18.609375 15.53125 22.484375 10.953125 
Q 26.375 6.390625 33.015625 6.390625 
Q 39.65625 6.390625 43.53125 10.953125 
Q 47.40625 15.53125 47.40625 23.390625 
Q 47.40625 31.296875 43.53125 35.828125 
Q 39.65625 40.375 33.015625 40.375 
z
M 52.59375 71.296875 
L 52.59375 62.3125 
Q 48.875 64.0625 45.09375 64.984375 
Q 41.3125 65.921875 37.59375 65.921875 
Q 27.828125 65.921875 22.671875 59.328125 
Q 17.53125 52.734375 16.796875 39.40625 
Q 19.671875 43.65625 24.015625 45.921875 
Q 28.375 48.1875 33.59375 48.1875 
Q 44.578125 48.1875 50.953125 41.515625 
Q 57.328125 34.859375 57.328125 23.390625 
Q 57.328125 12.15625 50.6875 5.359375 
Q 44.046875 -1.421875 33.015625 -1.421875 
Q 20.359375 -1.421875 13.671875 8.265625 
Q 6.984375 17.96875 6.984375 36.375 
Q 6.984375 53.65625 15.1875 63.9375 
Q 23.390625 74.21875 37.203125 74.21875 
Q 40.921875 74.21875 44.703125 73.484375 
Q 48.484375 72.75 52.59375 71.296875 
z
" id="DejaVuSans-54"/>
      </defs>
      <g transform="translate(44.2375 143.108462)scale(0.1 -0.1)">
       <use xlink:href="#DejaVuSans-54"/>
      </g>
     </g>
    </g>
    <g id="ytick_5">
     <g id="line2d_11">
      <g>
       <use style="stroke:#000000;stroke-width:0.8;" x="57.6" xlink:href="#m469203756a" y="93.585445"/>
      </g>
     </g>
     <g id="text_12">
      <!-- 8 -->
      <defs>
       <path d="M 31.78125 34.625 
Q 24.75 34.625 20.71875 30.859375 
Q 16.703125 27.09375 16.703125 20.515625 
Q 16.703125 13.921875 20.71875 10.15625 
Q 24.75 6.390625 31.78125 6.390625 
Q 38.8125 6.390625 42.859375 10.171875 
Q 46.921875 13.96875 46.921875 20.515625 
Q 46.921875 27.09375 42.890625 30.859375 
Q 38.875 34.625 31.78125 34.625 
z
M 21.921875 38.8125 
Q 15.578125 40.375 12.03125 44.71875 
Q 8.5 49.078125 8.5 55.328125 
Q 8.5 64.0625 14.71875 69.140625 
Q 20.953125 74.21875 31.78125 74.21875 
Q 42.671875 74.21875 48.875 69.140625 
Q 55.078125 64.0625 55.078125 55.328125 
Q 55.078125 49.078125 51.53125 44.71875 
Q 48 40.375 41.703125 38.8125 
Q 48.828125 37.15625 52.796875 32.3125 
Q 56.78125 27.484375 56.78125 20.515625 
Q 56.78125 9.90625 50.3125 4.234375 
Q 43.84375 -1.421875 31.78125 -1.421875 
Q 19.734375 -1.421875 13.25 4.234375 
Q 6.78125 9.90625 6.78125 20.515625 
Q 6.78125 27.484375 10.78125 32.3125 
Q 14.796875 37.15625 21.921875 38.8125 
z
M 18.3125 54.390625 
Q 18.3125 48.734375 21.84375 45.5625 
Q 25.390625 42.390625 31.78125 42.390625 
Q 38.140625 42.390625 41.71875 45.5625 
Q 45.3125 48.734375 45.3125 54.390625 
Q 45.3125 60.0625 41.71875 63.234375 
Q 38.140625 66.40625 31.78125 66.40625 
Q 25.390625 66.40625 21.84375 63.234375 
Q 18.3125 60.0625 18.3125 54.390625 
z
" id="DejaVuSans-56"/>
      </defs>
      <g transform="translate(44.2375 97.384664)scale(0.1 -0.1)">
       <use xlink:href="#DejaVuSans-56"/>
      </g>
     </g>
    </g>
    <g id="ytick_6">
     <g id="line2d_12">
      <g>
       <use style="stroke:#000000;stroke-width:0.8;" x="57.6" xlink:href="#m469203756a" y="47.861647"/>
      </g>
     </g>
     <g id="text_13">
      <!-- 10 -->
      <g transform="translate(37.875 51.660866)scale(0.1 -0.1)">
       <use xlink:href="#DejaVuSans-49"/>
       <use x="63.623047" xlink:href="#DejaVuSans-48"/>
      </g>
     </g>
    </g>
    <g id="text_14">
     <!-- Magnitude -->
     <defs>
      <path d="M 9.8125 72.90625 
L 24.515625 72.90625 
L 43.109375 23.296875 
L 61.8125 72.90625 
L 76.515625 72.90625 
L 76.515625 0 
L 66.890625 0 
L 66.890625 64.015625 
L 48.09375 14.015625 
L 38.1875 14.015625 
L 19.390625 64.015625 
L 19.390625 0 
L 9.8125 0 
z
" id="DejaVuSans-77"/>
      <path d="M 34.28125 27.484375 
Q 23.390625 27.484375 19.1875 25 
Q 14.984375 22.515625 14.984375 16.5 
Q 14.984375 11.71875 18.140625 8.90625 
Q 21.296875 6.109375 26.703125 6.109375 
Q 34.1875 6.109375 38.703125 11.40625 
Q 43.21875 16.703125 43.21875 25.484375 
L 43.21875 27.484375 
z
M 52.203125 31.203125 
L 52.203125 0 
L 43.21875 0 
L 43.21875 8.296875 
Q 40.140625 3.328125 35.546875 0.953125 
Q 30.953125 -1.421875 24.3125 -1.421875 
Q 15.921875 -1.421875 10.953125 3.296875 
Q 6 8.015625 6 15.921875 
Q 6 25.140625 12.171875 29.828125 
Q 18.359375 34.515625 30.609375 34.515625 
L 43.21875 34.515625 
L 43.21875 35.40625 
Q 43.21875 41.609375 39.140625 45 
Q 35.0625 48.390625 27.6875 48.390625 
Q 23 48.390625 18.546875 47.265625 
Q 14.109375 46.140625 10.015625 43.890625 
L 10.015625 52.203125 
Q 14.9375 54.109375 19.578125 55.046875 
Q 24.21875 56 28.609375 56 
Q 40.484375 56 46.34375 49.84375 
Q 52.203125 43.703125 52.203125 31.203125 
z
" id="DejaVuSans-97"/>
      <path d="M 45.40625 27.984375 
Q 45.40625 37.75 41.375 43.109375 
Q 37.359375 48.484375 30.078125 48.484375 
Q 22.859375 48.484375 18.828125 43.109375 
Q 14.796875 37.75 14.796875 27.984375 
Q 14.796875 18.265625 18.828125 12.890625 
Q 22.859375 7.515625 30.078125 7.515625 
Q 37.359375 7.515625 41.375 12.890625 
Q 45.40625 18.265625 45.40625 27.984375 
z
M 54.390625 6.78125 
Q 54.390625 -7.171875 48.1875 -13.984375 
Q 42 -20.796875 29.203125 -20.796875 
Q 24.46875 -20.796875 20.265625 -20.09375 
Q 16.0625 -19.390625 12.109375 -17.921875 
L 12.109375 -9.1875 
Q 16.0625 -11.328125 19.921875 -12.34375 
Q 23.78125 -13.375 27.78125 -13.375 
Q 36.625 -13.375 41.015625 -8.765625 
Q 45.40625 -4.15625 45.40625 5.171875 
L 45.40625 9.625 
Q 42.625 4.78125 38.28125 2.390625 
Q 33.9375 0 27.875 0 
Q 17.828125 0 11.671875 7.65625 
Q 5.515625 15.328125 5.515625 27.984375 
Q 5.515625 40.671875 11.671875 48.328125 
Q 17.828125 56 27.875 56 
Q 33.9375 56 38.28125 53.609375 
Q 42.625 51.21875 45.40625 46.390625 
L 45.40625 54.6875 
L 54.390625 54.6875 
z
" id="DejaVuSans-103"/>
      <path d="M 18.3125 70.21875 
L 18.3125 54.6875 
L 36.8125 54.6875 
L 36.8125 47.703125 
L 18.3125 47.703125 
L 18.3125 18.015625 
Q 18.3125 11.328125 20.140625 9.421875 
Q 21.96875 7.515625 27.59375 7.515625 
L 36.8125 7.515625 
L 36.8125 0 
L 27.59375 0 
Q 17.1875 0 13.234375 3.875 
Q 9.28125 7.765625 9.28125 18.015625 
L 9.28125 47.703125 
L 2.6875 47.703125 
L 2.6875 54.6875 
L 9.28125 54.6875 
L 9.28125 70.21875 
z
" id="DejaVuSans-116"/>
      <path d="M 8.5 21.578125 
L 8.5 54.6875 
L 17.484375 54.6875 
L 17.484375 21.921875 
Q 17.484375 14.15625 20.5 10.265625 
Q 23.53125 6.390625 29.59375 6.390625 
Q 36.859375 6.390625 41.078125 11.03125 
Q 45.3125 15.671875 45.3125 23.6875 
L 45.3125 54.6875 
L 54.296875 54.6875 
L 54.296875 0 
L 45.3125 0 
L 45.3125 8.40625 
Q 42.046875 3.421875 37.71875 1 
Q 33.40625 -1.421875 27.6875 -1.421875 
Q 18.265625 -1.421875 13.375 4.4375 
Q 8.5 10.296875 8.5 21.578125 
z
M 31.109375 56 
z
" id="DejaVuSans-117"/>
     </defs>
     <g transform="translate(31.795312 201.017844)rotate(-90)scale(0.1 -0.1)">
      <use xlink:href="#DejaVuSans-77"/>
      <use x="86.279297" xlink:href="#DejaVuSans-97"/>
      <use x="147.558594" xlink:href="#DejaVuSans-103"/>
      <use x="211.035156" xlink:href="#DejaVuSans-110"/>
      <use x="274.414062" xlink:href="#DejaVuSans-105"/>
      <use x="302.197266" xlink:href="#DejaVuSans-116"/>
      <use x="341.40625" xlink:href="#DejaVuSans-117"/>
      <use x="404.785156" xlink:href="#DejaVuSans-100"/>
      <use x="468.261719" xlink:href="#DejaVuSans-101"/>
     </g>
    </g>
   </g>
   <g id="line2d_13">
    <path clip-path="url(#p85aaf0f38d)" d="M 73.832727 55.524727 
L 73.839272 53.677486 
L 74.369455 55.962601 
L 74.376 54.443748 
L 74.637818 54.635331 
L 75.148363 55.579481 
L 75.154908 54.129031 
L 75.678544 55.48369 
L 75.678544 54.785831 
L 76.051636 54.635331 
L 76.058181 55.346862 
L 76.457455 54.607965 
L 76.987636 54.963719 
L 77.321455 54.635331 
L 77.327999 55.114242 
L 77.766544 54.717428 
L 78.296727 54.867928 
L 78.309818 55.251047 
L 78.748363 54.82689 
L 78.768 55.004779 
L 79.088727 54.82689 
L 79.684362 54.922659 
L 79.690909 55.127913 
L 79.697454 54.758465 
L 80.018181 54.950048 
L 80.404363 54.97739 
L 81 54.731099 
L 81.006545 54.908988 
L 81.01309 54.881622 
L 81.425454 55.059487 
L 81.44509 55.004779 
L 81.706908 54.813219 
L 82.328726 54.744793 
L 82.335273 55.032122 
L 82.721455 54.82689 
L 82.74109 55.155279 
L 83.035636 54.908965 
L 84.161453 54.90901 
L 84.161453 55.114219 
L 84.32509 54.963742 
L 84.901091 54.703733 
L 84.914181 54.854256 
L 85.40509 55.127913 
L 85.614545 54.908988 
L 86.393454 54.525845 
L 86.393454 54.703733 
L 86.805817 55.223704 
L 86.805817 55.018462 
L 87.584726 54.525845 
L 87.584726 54.895293 
L 88.082182 55.196339 
L 88.082182 55.018462 
L 88.887272 54.785831 
L 88.900364 54.867928 
L 89.482909 55.004779 
L 89.482909 54.895316 
L 90.222545 54.867928 
L 90.22909 55.127913 
L 90.778909 55.073182 
L 90.778909 54.676368 
L 91.538181 54.703733 
L 91.564363 55.032145 
L 92.225454 55.032122 
L 92.231999 54.703733 
L 92.899636 54.963742 
L 92.912727 54.813219 
L 93.495272 54.977413 
L 93.501817 54.936353 
L 94.824 54.936353 
L 97.448728 54.950048 
L 98.129454 54.744793 
L 98.142545 54.799525 
L 98.155635 55.032145 
L 98.731636 55.127936 
L 98.829818 54.90901 
L 99.517091 54.731099 
L 100.02109 54.922659 
L 100.027635 55.086876 
L 100.819636 54.607965 
L 101.356363 54.854233 
L 101.376 55.141607 
L 101.526545 55.237376 
L 102.122182 54.922659 
L 102.135272 54.662673 
L 102.639273 54.594271 
L 102.645818 54.799525 
L 102.920727 54.991085 
L 103.418182 55.127913 
L 103.424727 55.018462 
L 103.954909 54.731122 
L 103.961454 54.758465 
L 104.223272 54.922682 
L 104.753454 54.936353 
L 104.759999 55.059487 
L 105.309818 55.004779 
L 105.591273 54.649002 
L 106.121454 54.566905 
L 106.128 54.867928 
L 106.57309 55.196339 
L 106.586182 55.168996 
L 106.887272 54.895316 
L 107.430545 54.621659 
L 107.882181 54.826902 
L 107.901818 55.086876 
L 108.294545 55.114219 
L 108.726545 55.032122 
L 108.726545 54.867928 
L 109.223999 54.703733 
L 109.577454 54.635331 
L 109.577454 54.867928 
L 110.035636 55.223704 
L 110.493817 55.059487 
L 110.513454 54.922659 
L 111.004363 54.703711 
L 111.848726 54.991107 
L 112.280726 55.045816 
L 113.118545 54.785853 
L 114.028364 54.936353 
L 114.041454 54.854256 
L 114.447272 54.908988 
L 114.473454 54.785831 
L 114.957818 54.936353 
L 115.337454 55.141607 
L 115.749819 55.045816 
L 115.762909 54.908988 
L 116.378182 54.731099 
L 116.672726 55.004779 
L 117.045818 55.141607 
L 117.052363 55.059487 
L 117.654545 54.799548 
L 117.654545 54.649013 
L 117.962181 54.881645 
L 118.381091 55.032145 
L 119.055272 54.908988 
L 119.343272 54.744793 
L 119.356363 54.977436 
L 120.325091 54.977413 
L 120.331635 54.799525 
L 120.639273 54.758488 
L 121.005818 54.991085 
L 121.719273 54.950048 
L 121.725818 54.799525 
L 121.967999 54.690062 
L 122.275637 54.881622 
L 123.257454 54.90901 
L 123.584726 54.799525 
L 124.448728 54.703733 
L 124.455273 55.346862 
L 124.566545 54.785853 
L 124.900364 55.155302 
L 125.692363 54.908988 
L 125.692363 54.758488 
L 125.698909 54.936353 
L 125.705454 54.84055 
L 126.222545 55.004779 
L 127.125818 54.950048 
L 127.138908 54.799525 
L 127.250182 55.073182 
L 128.421818 55.004779 
L 128.428363 54.690039 
L 128.821091 54.991085 
L 129.776727 54.895316 
L 129.809455 55.018462 
L 129.809455 54.895293 
L 129.868363 54.621659 
L 131.059637 55.045816 
L 131.066182 55.182667 
L 131.079272 54.826902 
L 132.774545 54.867928 
L 133.762909 55.05951 
L 133.776 54.867928 
L 133.782545 54.799525 
L 134.057454 54.744793 
L 135.22909 54.950048 
L 135.22909 55.004779 
L 135.235637 54.895316 
L 136.466182 54.82689 
L 136.472727 55.086876 
L 136.479272 55.032122 
L 137.873454 54.84055 
L 137.886546 53.568 
L 137.886546 56.728886 
L 137.893091 54.607965 
L 137.984727 55.182667 
L 139.149817 54.963742 
L 139.156364 54.635353 
L 139.162909 55.456324 
L 139.182545 55.045816 
L 139.293818 54.512174 
L 140.48509 54.867928 
L 140.517818 55.059487 
L 140.530908 54.744793 
L 141.807273 55.032122 
L 141.813818 55.086876 
L 141.853091 54.799525 
L 143.135999 54.676368 
L 143.14909 54.662673 
L 143.155635 55.127913 
L 144.523636 55.127913 
L 144.530181 54.703733 
L 144.536728 54.785831 
L 145.793454 54.854233 
L 145.826181 55.155302 
L 145.898182 54.82689 
L 147.141819 54.731099 
L 147.168 55.086876 
L 148.411635 54.963742 
L 148.450908 54.744793 
L 149.707637 54.84055 
L 149.720727 54.717405 
L 149.733818 55.237399 
L 149.76 55.127913 
L 151.069091 54.922659 
L 151.095272 54.662673 
L 151.101817 54.854233 
L 151.265454 55.086876 
L 152.404363 55.032145 
L 152.424 54.731099 
L 152.561454 54.799525 
L 153.72 54.922659 
L 153.72 54.813219 
L 153.726545 55.004779 
L 153.949091 54.977413 
L 155.002909 54.936353 
L 155.015999 54.703733 
L 155.218909 54.703733 
L 156.331636 54.908988 
L 156.344727 55.196362 
L 156.351272 54.840562 
L 156.65891 54.703733 
L 157.634182 54.799525 
L 157.647272 54.744793 
L 157.686545 55.045816 
L 158.936726 55.05951 
L 158.995636 54.621659 
L 159.329455 54.799525 
L 160.298182 55.018462 
L 160.304727 54.963742 
L 160.632 54.731099 
L 161.607272 54.936353 
L 161.613818 54.840562 
L 162.032727 54.840562 
L 162.039272 55.264742 
L 162.883637 54.991107 
L 162.890182 55.05951 
L 163.30909 54.471114 
L 163.315637 54.936353 
L 164.199273 54.86795 
L 164.212363 55.168973 
L 164.703272 54.607965 
L 164.709817 55.168996 
L 165.534546 54.867928 
L 165.541091 54.963719 
L 165.61309 54.936353 
L 165.979635 55.004779 
L 166.804364 54.977413 
L 166.817454 54.785831 
L 166.824 54.854233 
L 166.922181 54.977413 
L 167.399999 54.744793 
L 168.100363 54.97739 
L 168.106908 54.82689 
L 168.106908 55.086876 
L 168.231272 54.826902 
L 168.669817 54.731099 
L 168.682909 55.018462 
L 169.527272 54.936353 
L 170.090181 54.758488 
L 170.764364 54.867928 
L 170.770909 55.086876 
L 170.777454 54.854233 
L 172.034182 54.90901 
L 172.040727 54.867928 
L 172.040727 54.963742 
L 172.754181 54.963742 
L 172.780363 54.744793 
L 174.069818 54.991085 
L 174.665455 54.82689 
L 174.848726 54.731099 
L 175.470545 54.690039 
L 175.470545 55.086876 
L 176.138181 54.881622 
L 176.779636 54.758488 
L 177.264 55.073182 
L 177.27709 54.867928 
L 177.525818 54.922659 
L 178.57309 54.840562 
L 178.579637 55.045816 
L 178.854545 54.991085 
L 179.410908 55.004779 
L 179.430545 54.867928 
L 179.882181 54.744793 
L 180.150546 54.950048 
L 180.844364 54.813219 
L 180.850909 54.895293 
L 180.857454 55.004779 
L 181.223999 54.991107 
L 181.446546 54.731099 
L 182.768727 54.977413 
L 183.521454 54.785853 
L 183.534546 54.881622 
L 184.797817 55.032122 
L 184.824 54.649002 
L 185.452364 54.97739 
L 186.434181 54.881622 
L 187.494546 54.785853 
L 187.494546 54.840562 
L 187.743272 54.963719 
L 188.908363 54.799525 
L 188.914909 54.977436 
L 190.178181 54.977413 
L 190.197818 54.799525 
L 190.74109 54.881622 
L 190.754181 55.059487 
L 192.056728 54.922682 
L 192.056728 54.950048 
L 192.861818 54.854256 
L 192.868363 54.799525 
L 192.966546 54.963719 
L 194.249454 54.991085 
L 194.275637 54.785853 
L 195.545455 54.963719 
L 195.558545 55.032145 
L 195.571636 54.867928 
L 196.062546 54.936353 
L 196.075636 54.731099 
L 197.378182 54.922659 
L 197.391272 54.813219 
L 198.255272 54.758488 
L 198.261818 54.950048 
L 198.667637 54.799525 
L 200.827636 54.881622 
L 200.906182 54.785831 
L 201.285818 54.950048 
L 202.182545 54.895316 
L 202.333091 54.950048 
L 203.517818 54.772136 
L 203.524363 54.717405 
L 203.576728 54.895293 
L 203.96291 54.977413 
L 204.787636 54.772182 
L 205.003636 55.073182 
L 205.304727 54.785831 
L 206.103273 54.922682 
L 206.109818 55.045816 
L 206.613819 54.908988 
L 207.379636 54.703711 
L 207.386182 54.744793 
L 207.386182 54.840562 
L 207.903273 55.032122 
L 208.728 54.813219 
L 208.976726 54.936353 
L 209.258181 54.840562 
L 210.037091 54.963719 
L 210.043636 54.895293 
L 210.390545 54.799525 
L 211.313454 54.950048 
L 211.640727 54.785831 
L 211.647272 54.82689 
L 212.674909 55.018462 
L 212.681454 54.963719 
L 213.192 54.772136 
L 213.912 54.881599 
L 213.918545 55.114242 
L 214.35709 54.854233 
L 214.507636 54.703711 
L 215.227637 54.854256 
L 215.240727 55.127936 
L 215.240727 54.991107 
L 216.536728 54.785831 
L 216.543273 55.073182 
L 216.549818 54.82689 
L 217.027636 54.82689 
L 217.858909 55.059487 
L 218.447999 54.854233 
L 218.447999 54.717405 
L 219.154909 54.895316 
L 219.161454 54.731099 
L 219.711273 54.881622 
L 219.717818 55.004779 
L 220.470545 55.155302 
L 220.496726 54.86795 
L 221.131636 54.649013 
L 221.144728 54.977413 
L 223.101817 54.840562 
L 223.121454 54.977413 
L 223.815273 54.731099 
L 223.828363 54.936353 
L 225.713455 54.854256 
L 225.72 54.881622 
L 226.407273 55.073182 
L 226.413818 55.018462 
L 227.022546 54.950048 
L 227.035636 54.813219 
L 229.156364 54.90901 
L 229.634182 54.758488 
L 229.640727 54.908988 
L 230.432727 54.854233 
L 230.936727 55.073182 
L 230.943273 54.963719 
L 231.722182 54.758488 
L 232.245818 54.936353 
L 232.265454 54.867928 
L 233.024727 54.881622 
L 233.037818 55.073182 
L 233.044363 54.881622 
L 233.554909 54.813219 
L 234.346909 54.977413 
L 234.353454 54.895293 
L 234.536728 55.045816 
L 234.857454 54.922682 
L 235.728 54.881622 
L 235.734545 54.717405 
L 235.747637 54.881622 
L 236.166545 55.045793 
L 237.056728 55.004779 
L 237.082909 54.785831 
L 237.089454 54.991085 
L 237.514909 54.991107 
L 238.333091 54.772159 
L 238.503273 55.018462 
L 238.791272 55.086876 
L 239.694545 54.799525 
L 239.70109 54.963742 
L 240.093819 54.703733 
L 240.951272 54.991107 
L 240.951272 54.840562 
L 241.402908 54.908988 
L 242.338909 55.045816 
L 242.594182 54.813219 
L 242.705455 54.950048 
L 245.290909 54.963742 
L 246.246545 55.059487 
L 246.259636 54.772159 
L 246.272728 54.840562 
L 246.573819 54.813219 
L 247.627637 55.01845 
L 247.634182 54.922659 
L 247.653818 54.826902 
L 247.954909 55.05951 
L 248.943273 54.963719 
L 248.96291 54.813196 
L 248.976 54.977413 
L 249.270546 54.895293 
L 250.265454 54.799525 
L 250.265454 54.936353 
L 250.605818 55.114242 
L 251.921455 54.936376 
L 252.890182 54.867928 
L 252.890182 54.867928 
L 252.896727 55.073182 
L 253.184728 54.895293 
L 254.251636 54.758465 
L 254.258181 54.854256 
L 254.271272 54.950048 
L 254.500364 54.977413 
L 254.631273 54.854233 
L 255.567272 54.813219 
L 255.573819 54.991085 
L 255.580364 54.936353 
L 256.902545 55.086876 
L 256.915636 54.867928 
L 257.308363 54.936353 
L 258.165818 54.826902 
L 258.172363 54.977413 
L 258.17891 54.908965 
L 258.735272 54.867928 
L 259.992 54.922659 
L 261.065455 54.799525 
L 261.399272 54.991107 
L 262.701819 54.840562 
L 263.474183 54.840585 
L 263.480727 55.045816 
L 263.650909 54.922705 
L 264.789819 54.922682 
L 264.809455 54.840562 
L 264.816 55.004779 
L 264.973091 54.922682 
L 266.098908 54.867928 
L 266.786181 55.004779 
L 266.792728 54.854233 
L 268.795637 54.963719 
L 269.476363 54.758465 
L 269.476363 54.908988 
L 270.104726 55.004779 
L 270.104726 54.991085 
L 270.111273 54.867928 
L 270.765818 54.785853 
L 270.772363 54.854256 
L 270.778909 54.991085 
L 271.531637 54.895293 
L 272.166545 55.086876 
L 272.173092 54.908988 
L 272.834181 54.785831 
L 273.436363 55.018462 
L 273.442908 54.922682 
L 274.064727 54.963719 
L 274.077818 54.744793 
L 274.123636 54.991085 
L 274.850182 54.895293 
L 274.856727 54.703733 
L 275.373818 54.922659 
L 275.386909 55.127913 
L 276.106909 54.908965 
L 276.113455 54.703733 
L 276.12 54.772136 
L 276.682909 54.991107 
L 276.689454 54.936353 
L 277.520727 55.05951 
L 277.533817 54.758488 
L 278.018182 54.744793 
L 278.031273 54.963719 
L 278.803636 55.004779 
L 278.836364 54.799525 
L 278.836364 54.86795 
L 279.327273 54.785831 
L 279.333818 55.100547 
L 280.230546 54.826902 
L 280.237091 55.004779 
L 280.243636 54.758488 
L 280.688727 54.731099 
L 281.991273 54.908965 
L 282.920728 54.799525 
L 282.927273 55.004779 
L 282.933818 54.950025 
L 284.197091 54.799525 
L 284.210182 54.950048 
L 284.589818 55.004779 
L 284.602909 54.854256 
L 285.578182 54.826902 
L 285.61091 54.703711 
L 285.617455 54.867928 
L 285.918546 54.950048 
L 286.854545 54.922682 
L 286.867636 54.676345 
L 286.874181 54.895316 
L 288.261819 54.82689 
L 288.288 55.032145 
L 288.301092 54.950025 
L 288.549818 55.045816 
L 289.584 54.881622 
L 289.597091 55.004779 
L 289.603636 54.785831 
L 289.610181 54.991085 
L 289.872001 54.991107 
L 290.984727 54.854233 
L 290.991273 54.991085 
L 290.991273 54.772136 
L 291.226908 54.867928 
L 292.241455 54.731099 
L 292.274182 55.004779 
L 292.280727 54.950048 
L 293.655272 54.854233 
L 293.661819 54.772159 
L 293.661819 54.950048 
L 293.773091 55.141607 
L 294.931637 54.799525 
L 294.938182 54.950048 
L 295.075636 54.963742 
L 296.332364 54.922682 
L 296.338909 54.785853 
L 296.351999 55.155302 
L 296.384727 54.799525 
L 297.634909 54.607965 
L 297.648 55.045816 
L 297.648 54.977413 
L 299.022546 54.826902 
L 299.061818 54.607965 
L 299.074909 54.991107 
L 300.305454 54.881622 
L 300.311999 55.059487 
L 300.325091 54.744793 
L 300.514909 54.895293 
L 301.693092 54.881622 
L 302.956363 54.744793 
L 302.976 55.086853 
L 303.008728 54.991085 
L 304.376727 54.867928 
L 305.594182 54.936353 
L 305.594182 54.799525 
L 306.916363 54.785831 
L 306.916363 54.977413 
L 306.929455 54.744793 
L 307.138908 54.991085 
L 309.501818 54.867928 
L 309.541091 54.703711 
L 309.547636 54.936353 
L 309.743999 55.032122 
L 310.804364 55.032122 
L 310.824001 54.635331 
L 310.830546 54.813219 
L 311.059637 55.127913 
L 312.093819 55.059487 
L 312.106909 54.703733 
L 312.113455 54.799525 
L 312.453818 54.881622 
L 313.749819 54.881622 
L 314.725091 54.86795 
L 314.738181 55.059487 
L 315.085092 54.717405 
L 316.027636 54.936353 
L 316.034182 54.772159 
L 316.060364 55.086876 
L 316.361455 54.854256 
L 317.814545 54.854256 
L 318.639273 55.127936 
L 318.672 54.799525 
L 319.025455 54.758488 
L 319.097455 54.963742 
L 319.961455 55.004779 
L 319.981091 54.854233 
L 319.987636 54.881622 
L 320.498182 54.895293 
L 321.309819 54.840562 
L 321.689454 55.004779 
L 321.781092 54.881622 
L 322.579637 55.059487 
L 322.612363 54.758465 
L 323.201455 54.963742 
L 326.945454 54.840585 
L 326.945454 55.004779 
L 327.161454 54.867928 
L 328.287273 55.004779 
L 328.562181 54.717405 
L 329.131637 54.744793 
L 329.144728 54.908988 
L 329.151273 54.881622 
L 329.596364 54.97739 
L 329.851636 54.840562 
L 331.749819 54.881622 
L 332.535273 54.731099 
L 333.072 54.936353 
L 333.56291 54.922682 
L 333.576 54.799525 
L 333.949091 54.690039 
L 333.949091 54.854233 
L 334.361455 55.018462 
L 335.245091 54.772182 
L 335.683636 55.004779 
L 336.187637 54.908988 
L 336.200727 54.717405 
L 336.626182 54.744793 
L 336.632727 54.867928 
L 336.973091 55.004779 
L 337.496727 55.004779 
L 337.503273 54.881622 
L 337.902545 54.826902 
L 337.909092 54.908988 
L 338.282182 54.977413 
L 338.295274 54.854233 
L 338.897454 54.922659 
L 339.591273 54.799525 
L 340.592727 54.991085 
L 340.599274 54.785831 
L 340.906909 54.867928 
L 341.535273 54.936353 
L 342.026182 55.127913 
L 342.026182 55.004779 
L 342.209454 54.703733 
L 342.811636 54.772159 
L 343.512 54.97739 
L 344.101091 54.758488 
L 344.696728 54.881622 
L 344.703273 55.018462 
L 345.482181 54.649013 
L 345.501818 54.963719 
L 345.973091 55.004779 
L 345.992727 54.881622 
L 348.106909 54.950048 
L 348.126545 54.703711 
L 348.650181 55.018462 
L 348.663273 54.991085 
L 349.409455 54.922682 
L 349.422545 54.703711 
L 349.429092 54.813219 
L 350.05091 55.032145 
L 350.057455 54.97739 
L 351.34691 54.785853 
L 351.36 55.05951 
L 352.08 55.004779 
L 352.086545 54.867928 
L 352.695272 54.895293 
L 353.402182 54.690062 
L 353.408727 54.867928 
L 353.415273 54.772159 
L 354.017455 55.059487 
L 354.724364 54.717428 
L 354.730909 54.772159 
L 356.020364 55.01845 
L 356.629091 54.867928 
L 356.688 54.607942 
L 357.34909 54.799525 
L 357.355637 55.073182 
L 357.912001 55.264742 
L 357.938182 54.813219 
L 358.114909 54.690039 
L 358.736727 54.703733 
L 358.749819 55.059487 
L 359.234182 55.237376 
L 359.240727 55.168996 
L 359.391272 54.676368 
L 360.006546 54.607965 
L 360.013091 54.772159 
L 360.549818 55.141607 
L 360.576 55.319496 
L 360.811636 54.621636 
L 361.341818 54.580576 
L 361.858909 54.758488 
L 361.885091 55.073182 
L 362.068364 55.141607 
L 362.670546 54.963742 
L 363.161454 54.498479 
L 363.168001 54.512174 
L 363.946909 54.881622 
L 363.953454 55.223704 
L 364.457455 55.237376 
L 364.464 54.991107 
L 364.765091 54.635331 
L 365.334545 54.717405 
L 366.172363 55.182644 
L 366.630546 54.963719 
L 367.088728 54.580576 
L 367.946182 55.073182 
L 368.404364 55.100547 
L 368.404364 54.922659 
L 368.849455 54.690039 
L 368.856 54.785831 
L 369.706909 54.963742 
L 369.713455 54.84055 
L 370.132363 54.690062 
L 370.145455 54.854233 
L 371.546182 54.854233 
L 371.552727 54.772159 
L 371.925818 54.881622 
L 372.325091 54.895316 
L 373.248 54.840585 
L 374.223273 55.073182 
L 374.229818 54.936353 
L 374.537455 54.649002 
L 374.956363 54.813219 
L 374.96291 54.991085 
L 375.525819 54.813219 
L 375.532364 54.908965 
L 375.853091 54.950048 
L 376.25891 54.84055 
L 376.265455 54.908988 
L 376.946183 54.895293 
L 376.959272 54.744793 
L 377.227637 54.936353 
L 377.574546 54.881622 
L 378.222546 55.018462 
L 378.242182 54.785831 
L 378.242182 54.799525 
L 378.864001 54.991085 
L 379.858909 54.813219 
L 380.179637 55.018462 
L 380.886546 54.922682 
L 380.893091 54.813219 
L 381.475636 54.950048 
L 382.300363 54.772159 
L 382.30691 54.895316 
L 382.470545 54.991085 
L 383.589818 54.690039 
L 383.596365 55.073182 
L 383.831999 54.950048 
L 384.12 55.004779 
L 386.286545 54.881622 
L 386.293091 54.936353 
L 386.293091 54.82689 
L 386.450182 54.922659 
L 386.718546 54.936376 
L 387.693819 54.813219 
L 387.700364 54.922659 
L 387.772363 55.004779 
L 388.040728 54.772159 
L 388.944 54.772182 
L 388.976727 55.127913 
L 388.976727 54.991085 
L 389.336727 54.566905 
L 390.338183 54.580576 
L 390.370909 55.278436 
L 390.377454 55.264742 
L 390.652363 54.881622 
L 391.627637 54.402688 
L 391.647272 55.127913 
L 391.758546 54.950025 
L 393.067636 54.895316 
L 393.074182 54.717405 
L 393.080727 54.84055 
L 394.330909 55.032122 
L 394.357091 54.84055 
L 395.69891 54.826902 
L 395.712 54.963719 
L 395.869092 54.97739 
L 396.99491 54.813219 
L 397.001455 54.895316 
L 397.008 54.936353 
L 397.008 54.799525 
L 397.178182 54.950048 
L 398.402182 54.950048 
L 398.487273 53.759583 
L 398.487273 53.759583 
" style="fill:none;stroke:#1f77b4;stroke-linecap:square;stroke-width:1.5;"/>
   </g>
   <g id="line2d_14">
    <path clip-path="url(#p85aaf0f38d)" d="M 73.832727 294.489111 
L 73.839272 294.434377 
L 75.148363 294.680678 
L 75.154908 294.598578 
L 75.678544 294.516479 
L 75.678544 294.297543 
L 76.051636 294.20176 
L 76.058181 294.270176 
L 76.457455 294.393327 
L 76.981091 294.721729 
L 76.987636 294.899612 
L 77.321455 294.872247 
L 77.327999 294.708046 
L 78.296727 294.434376 
L 78.309818 294.379644 
L 78.748363 294.448062 
L 78.768 294.57121 
L 79.088727 294.653312 
L 79.684362 294.393327 
L 79.697454 294.092292 
L 80.404363 294.283861 
L 81 294.489111 
L 81.006545 294.817513 
L 81.01309 294.80383 
L 81.425454 294.639629 
L 81.44509 294.502794 
L 81.706908 294.407012 
L 82.328726 294.010192 
L 82.335273 294.160709 
L 82.721455 294.352278 
L 82.74109 294.598578 
L 83.035636 294.708046 
L 83.592 294.735411 
L 83.598545 294.352278 
L 84.32509 294.502795 
L 84.901091 294.32491 
L 84.914181 294.44806 
L 85.40509 294.571213 
L 85.614545 294.735414 
L 86.393454 294.557528 
L 86.799272 294.44806 
L 86.805817 294.20176 
L 86.805817 294.256493 
L 87.578181 294.297543 
L 87.584726 294.803829 
L 88.082182 294.831196 
L 88.082182 294.694363 
L 88.887272 294.434377 
L 88.900364 293.982824 
L 89.482909 294.297543 
L 89.482909 294.448062 
L 90.209454 294.721729 
L 90.222545 294.516477 
L 90.22909 294.543845 
L 90.778909 294.407012 
L 91.538181 294.461744 
L 91.551273 294.762779 
L 91.564363 294.516477 
L 92.225454 294.44806 
L 92.225454 294.557527 
L 92.231999 294.311226 
L 92.912727 294.584895 
L 93.469091 294.625944 
L 93.501817 294.20176 
L 94.221818 294.44806 
L 94.234908 294.776462 
L 95.504726 294.407012 
L 95.511273 294.229126 
L 95.517818 294.352278 
L 96.113455 294.393327 
L 96.113455 294.680678 
L 96.820363 294.96803 
L 96.846546 294.502794 
L 97.448728 294.023874 
L 98.129454 294.297543 
L 98.155635 294.940663 
L 98.731636 294.776462 
L 98.829818 294.133342 
L 99.510545 293.941774 
L 99.517091 294.297543 
L 100.02109 294.680678 
L 100.027635 294.885929 
L 100.223999 294.735414 
L 100.806544 294.43438 
L 100.819636 294.174394 
L 101.356363 294.174392 
L 101.376 294.379644 
L 101.526545 294.571213 
L 102.122182 294.735414 
L 102.135272 294.612263 
L 103.418182 294.365961 
L 103.424727 294.297543 
L 103.948363 294.44806 
L 103.954909 294.32491 
L 103.961454 294.584895 
L 104.223272 294.653312 
L 105.27709 294.393327 
L 105.309818 294.215443 
L 105.591273 294.092292 
L 106.121454 294.516477 
L 106.128 294.872247 
L 106.586182 294.858564 
L 106.887272 294.530162 
L 107.417455 294.215443 
L 107.430545 294.064927 
L 107.882181 294.133342 
L 107.901818 294.434377 
L 108.294545 294.790146 
L 108.726545 294.872247 
L 108.726545 294.803829 
L 109.184727 294.407012 
L 109.223999 294.147026 
L 109.577454 294.092292 
L 109.577454 294.188075 
L 110.493817 294.680678 
L 110.513454 294.598578 
L 111.357819 294.639628 
L 111.848726 294.32491 
L 112.267636 294.365961 
L 112.280726 294.489109 
L 112.719273 294.352276 
L 112.725818 294.639629 
L 113.661819 294.420695 
L 113.694545 294.530162 
L 114.041454 294.461744 
L 114.447272 294.242808 
L 114.473454 294.379644 
L 114.951272 294.242811 
L 114.957818 294.461744 
L 115.337454 294.666996 
L 115.762909 294.721729 
L 116.371635 294.53016 
L 116.378182 294.352278 
L 116.672726 294.147026 
L 117.045818 294.242811 
L 117.052363 294.407009 
L 117.654545 294.489111 
L 117.654545 294.666996 
L 117.962181 294.666995 
L 119.055272 294.188075 
L 119.356363 294.571213 
L 119.677091 294.584895 
L 121.005818 294.379644 
L 121.719273 294.612263 
L 121.725818 294.557527 
L 121.967999 294.270176 
L 122.995636 294.297543 
L 123.008727 294.516477 
L 123.584726 294.434377 
L 124.448728 294.598578 
L 124.448728 294.448062 
L 124.455273 294.735411 
L 124.566545 294.666996 
L 124.900364 294.612261 
L 125.692363 294.201761 
L 125.705454 294.420694 
L 126.222545 294.694361 
L 127.132363 294.721729 
L 127.250182 294.188075 
L 127.512 294.037559 
L 128.382545 294.20176 
L 128.572363 294.940665 
L 129.776727 294.543845 
L 129.809455 294.03756 
L 129.868363 294.133342 
L 130.136727 294.283861 
L 131.059637 294.379644 
L 131.079272 294.694361 
L 132.486545 294.708046 
L 132.506182 293.832307 
L 132.512727 293.859675 
L 132.774545 294.44806 
L 133.749819 295.09118 
L 133.782545 294.475427 
L 134.057454 293.969141 
L 135.183272 293.928091 
L 135.235637 294.790146 
L 136.446545 294.584896 
L 136.466182 294.147026 
L 136.479272 294.434376 
L 137.873454 294.653312 
L 137.879999 294.57121 
L 137.886546 295.4059 
L 137.886546 293.873358 
L 137.984727 294.44806 
L 139.156364 294.379644 
L 139.162909 294.55753 
L 139.182545 294.393329 
L 139.293818 294.420695 
L 140.48509 294.584895 
L 140.524363 294.831197 
L 140.530908 294.407012 
L 141.813818 294.407012 
L 141.820363 294.270179 
L 141.853091 294.502795 
L 143.14909 294.735414 
L 143.155635 294.160709 
L 144.517091 294.407009 
L 144.530181 294.256493 
L 144.536728 294.762779 
L 145.806544 294.762779 
L 145.826181 294.010191 
L 145.898182 294.105975 
L 147.095999 294.434376 
L 147.141819 294.899612 
L 147.168 294.461744 
L 148.40509 294.023876 
L 148.411635 294.147026 
L 148.450908 294.598578 
L 149.707637 295.050131 
L 149.720727 294.981714 
L 149.76 294.147025 
L 151.075636 294.133343 
L 151.095272 294.92698 
L 151.101817 294.776462 
L 151.265454 294.653312 
L 152.397818 294.338594 
L 152.424 294.051242 
L 152.561454 294.489111 
L 153.72 294.981714 
L 153.726545 294.379644 
L 153.949091 294.270176 
L 155.002909 294.064925 
L 155.015999 294.749096 
L 155.218909 294.88593 
L 156.331636 294.694363 
L 156.351272 294.105978 
L 156.652363 294.16071 
L 156.65891 294.434376 
L 157.647272 294.762779 
L 157.647272 294.653312 
L 157.686545 294.461744 
L 157.922181 294.188075 
L 158.936726 294.147026 
L 158.995636 294.68068 
L 159.329455 294.844879 
L 160.265454 294.708046 
L 160.304727 294.147026 
L 161.607272 294.543845 
L 161.607272 294.831197 
L 161.613818 294.80383 
L 162.039272 294.44806 
L 162.883637 294.215443 
L 162.890182 294.502795 
L 163.30909 294.352276 
L 163.315637 294.502795 
L 164.186181 294.721729 
L 164.199273 294.858564 
L 164.212363 294.57121 
L 164.703272 294.270176 
L 164.709817 294.365959 
L 165.534546 294.407012 
L 165.61309 294.584895 
L 166.922181 294.475427 
L 167.399999 294.557528 
L 168.682909 294.448062 
L 169.409455 294.543845 
L 169.416 294.365961 
L 169.527272 294.557528 
L 170.090181 294.407012 
L 170.777454 294.420695 
L 172.034182 294.53016 
L 172.040727 294.584895 
L 172.040727 294.489111 
L 172.780363 294.475428 
L 173.376 294.420694 
L 173.382545 294.352278 
L 173.526545 294.338594 
L 174.063273 294.666995 
L 174.069818 294.612263 
L 175.470545 294.256493 
L 175.470545 294.270176 
L 175.961454 294.653312 
L 175.974546 294.530162 
L 176.138181 294.475427 
L 176.74691 294.625946 
L 176.779636 294.365961 
L 177.264 294.270176 
L 177.27709 294.625945 
L 177.525818 294.379644 
L 178.57309 294.502794 
L 178.579637 294.270176 
L 178.854545 294.502795 
L 179.424 294.338594 
L 179.430545 294.694363 
L 180.150546 294.44806 
L 180.850909 294.44806 
L 180.857454 294.242811 
L 181.223999 294.502794 
L 182.10109 294.365962 
L 182.120727 294.516477 
L 183.527999 294.434376 
L 183.534546 294.338594 
L 183.816 294.32491 
L 184.130181 294.530162 
L 184.797817 294.584895 
L 184.817454 294.407012 
L 184.824 294.502795 
L 185.452364 294.393327 
L 187.743272 294.543845 
L 188.077091 294.32491 
L 188.908363 294.407012 
L 188.914909 294.666996 
L 190.178181 294.489111 
L 190.191273 294.571213 
L 190.197818 294.461744 
L 190.74109 294.283861 
L 190.754181 294.420692 
L 191.611636 294.420694 
L 191.611636 294.420694 
L 192.056728 294.338594 
L 192.056728 294.393327 
L 192.835637 294.448062 
L 192.861818 294.639629 
L 192.868363 294.557527 
L 192.966546 294.502794 
L 193.365817 294.516477 
L 194.249454 294.420695 
L 194.262545 294.297544 
L 194.275637 294.448062 
L 194.70109 294.434377 
L 195.552 294.530162 
L 195.558545 294.242808 
L 195.571636 294.311227 
L 196.075636 294.680678 
L 196.906909 294.68068 
L 196.913454 294.174393 
L 197.378182 294.092292 
L 197.391272 294.283861 
L 198.248727 294.297543 
L 198.261818 294.831196 
L 198.667637 294.639628 
L 199.538182 294.543845 
L 199.557818 294.147026 
L 199.989818 294.256493 
L 200.821091 294.516477 
L 200.834181 294.817513 
L 200.906182 294.639628 
L 201.285818 294.776462 
L 202.162909 294.434376 
L 202.176001 294.160709 
L 202.182545 294.256494 
L 202.333091 294.365959 
L 203.517818 294.475427 
L 203.524363 294.721728 
L 203.576728 294.530162 
L 203.96291 294.297544 
L 204.754908 294.215443 
L 204.787636 294.666996 
L 205.304727 294.817513 
L 206.090181 294.365961 
L 206.109818 293.969142 
L 207.386182 295.241699 
L 207.386182 294.885932 
L 207.903273 294.051242 
L 208.714909 293.900723 
L 208.721455 293.996508 
L 208.728 294.461743 
L 208.976726 294.80383 
L 209.258181 294.92698 
L 210.004363 294.96803 
L 210.043636 294.461744 
L 210.384 294.174393 
L 210.390545 294.188075 
L 211.306909 294.44806 
L 211.313454 294.776464 
L 212.648727 294.420694 
L 212.674909 294.297542 
L 212.681454 294.53016 
L 213.087272 294.489112 
L 213.192 294.174393 
L 213.912 294.147026 
L 213.918545 294.352278 
L 214.330909 294.44806 
L 214.35709 294.666996 
L 214.507636 294.831196 
L 215.227637 294.639629 
L 215.240727 294.324911 
L 215.751272 294.256493 
L 215.770909 294.407012 
L 216.536728 294.338594 
L 216.549818 294.598578 
L 217.858909 294.311229 
L 219.148364 294.625944 
L 219.154909 294.790146 
L 219.161454 294.694361 
L 219.717818 294.174393 
L 220.470545 294.215443 
L 220.496726 294.762778 
L 221.138181 294.735414 
L 221.144728 294.407012 
L 221.773091 294.270176 
L 221.799273 294.407012 
L 223.121454 294.543845 
L 223.802182 294.434377 
L 223.815273 294.283861 
L 223.828363 294.461744 
L 224.397819 294.571213 
L 224.404364 294.735414 
L 225.117818 294.44806 
L 225.713455 294.229126 
L 225.72 294.475428 
L 226.407273 294.407009 
L 226.413818 294.475428 
L 226.413818 294.584895 
L 227.029091 294.666996 
L 227.035636 294.530162 
L 227.74909 294.448062 
L 227.762182 294.256494 
L 227.781818 294.407012 
L 228.325091 294.571213 
L 229.136728 294.694364 
L 229.156364 294.352276 
L 230.936727 294.735414 
L 230.943273 294.44806 
L 231.722182 294.502794 
L 231.722182 294.475428 
L 232.245818 294.598578 
L 232.265454 294.393327 
L 233.135999 294.502795 
L 233.554909 294.653312 
L 234.327273 294.721729 
L 234.353454 294.475428 
L 234.536728 294.311227 
L 234.857454 294.379644 
L 235.734545 294.44806 
L 235.747637 294.666996 
L 236.166545 294.516477 
L 237.056728 294.694363 
L 237.089454 294.270176 
L 237.508364 294.32491 
L 237.514909 294.489112 
L 238.333091 294.571213 
L 238.503273 294.434376 
L 238.791272 294.543845 
L 239.70109 294.516477 
L 239.91709 294.653312 
L 240.093819 294.543845 
L 241.402908 294.516477 
L 242.332364 294.516477 
L 242.332364 294.393327 
L 242.338909 294.543845 
L 242.705455 294.598578 
L 243.66109 294.489109 
L 243.674182 294.256493 
L 243.896727 294.516477 
L 244.963637 294.489111 
L 244.976727 294.44806 
L 244.983273 294.612261 
L 245.290909 294.502794 
L 246.259636 294.352278 
L 246.266181 294.229128 
L 246.272728 294.407012 
L 246.573819 294.598578 
L 247.954909 294.516477 
L 248.976 294.352278 
L 249.270546 294.57121 
L 250.265454 294.612261 
L 250.265454 294.55753 
L 250.605818 294.393327 
L 251.908363 294.475428 
L 251.921455 294.584895 
L 252.890182 294.598578 
L 252.896727 294.434377 
L 253.184728 294.365962 
L 254.264728 294.461744 
L 254.271272 294.516477 
L 259.494546 294.407012 
L 259.985454 294.352278 
L 259.992 294.475428 
L 260.856 294.598577 
L 260.875637 294.721728 
L 260.888727 294.543845 
L 261.065455 294.32491 
L 261.399272 294.283861 
L 262.171636 294.379644 
L 262.178181 294.53016 
L 262.701819 294.694361 
L 263.474183 294.475428 
L 263.480727 294.393327 
L 263.650909 294.379644 
L 264.082909 294.489111 
L 264.809455 294.407012 
L 264.816 294.625946 
L 265.392001 294.338594 
L 266.098908 294.242811 
L 266.288727 294.557527 
L 266.792728 294.543845 
L 267.466909 294.694363 
L 267.480001 294.489112 
L 268.075636 294.297543 
L 268.082182 294.338593 
L 268.769454 294.352278 
L 268.795637 294.612263 
L 269.476363 294.612261 
L 269.476363 294.420692 
L 270.765818 294.407009 
L 270.772363 294.584895 
L 270.778909 294.530162 
L 271.531637 294.461744 
L 272.709817 294.44806 
L 272.736 294.502795 
L 272.834181 294.393327 
L 274.064727 294.393327 
L 274.123636 294.612261 
L 274.856727 294.407009 
L 276.106909 294.530162 
L 276.12 294.393327 
L 277.533817 294.461744 
L 278.803636 294.379644 
L 278.836364 294.57121 
L 279.333818 294.461743 
L 280.237091 294.32491 
L 280.243636 294.53016 
L 280.243636 294.407009 
L 280.688727 294.598578 
L 281.506909 294.543845 
L 281.520001 294.311227 
L 281.991273 294.393327 
L 282.920728 294.44806 
L 282.933818 294.653313 
L 283.293818 294.475428 
L 284.203636 294.434376 
L 284.210182 294.311227 
L 284.602909 294.557528 
L 285.61091 294.584895 
L 285.617455 294.420694 
L 285.918546 294.407012 
L 287.22109 294.434376 
L 288.301092 294.584895 
L 288.301092 294.666996 
L 289.584 294.489111 
L 289.603636 294.352278 
L 289.610181 294.530162 
L 290.971637 294.434377 
L 290.978182 294.708046 
L 290.991273 294.338594 
L 292.52291 294.516477 
L 293.773091 294.557527 
L 294.925091 294.653312 
L 294.925091 294.639629 
L 294.938182 294.297543 
L 295.075636 294.352276 
L 296.332364 294.311227 
L 296.338909 294.625944 
L 296.384727 294.516477 
L 297.608727 294.489111 
L 297.634909 294.666996 
L 297.648 294.297544 
L 299.022546 294.393327 
L 299.061818 294.242811 
L 299.068364 294.598578 
L 299.074909 294.598577 
L 300.325091 294.489111 
L 300.325091 294.502794 
L 300.514909 294.530162 
L 301.640727 294.379644 
L 301.647272 294.557527 
L 301.653819 294.338594 
L 301.693092 294.434377 
L 302.956363 294.57121 
L 302.982545 294.735414 
L 303.008728 294.475428 
L 304.317817 294.297543 
L 304.324364 294.393327 
L 304.376727 294.557527 
L 305.587636 294.543845 
L 305.594182 294.365962 
L 305.594182 294.543845 
L 306.916363 294.43438 
L 306.916363 294.530162 
L 306.922908 294.762779 
L 306.929455 294.393327 
L 307.138908 294.420694 
L 308.166545 294.434376 
L 308.179637 294.297543 
L 308.186182 294.625945 
L 308.349819 294.489111 
L 309.743999 294.502795 
L 310.804364 294.489111 
L 310.817454 294.32491 
L 310.824001 294.598578 
L 310.830546 294.434377 
L 312.093819 294.352278 
L 312.113455 294.420694 
L 312.453818 294.625945 
L 313.435636 294.625945 
L 313.455273 294.352278 
L 313.743272 294.379644 
L 313.749819 294.215443 
L 314.738181 294.475428 
L 314.738181 294.55753 
L 316.027636 294.598578 
L 316.060364 294.666995 
L 316.361455 294.407009 
L 317.389092 294.133342 
L 317.395637 294.489111 
L 317.814545 294.653312 
L 318.665455 294.598578 
L 318.672 294.475428 
L 319.097455 294.338593 
L 319.961455 294.475427 
L 319.981091 294.352276 
L 319.987636 294.420695 
L 320.341091 294.612261 
L 320.498182 294.461744 
L 321.290182 294.598578 
L 321.309819 294.420692 
L 321.689454 294.557528 
L 321.781092 294.461744 
L 324.464727 294.625945 
L 325.217454 294.270176 
L 325.243636 294.434377 
L 325.669091 294.516477 
L 325.891636 294.57121 
L 327.161454 294.502794 
L 328.287273 294.584896 
L 328.562181 294.352276 
L 329.131637 294.379644 
L 329.144728 294.584895 
L 329.151273 294.475428 
L 329.851636 294.625945 
L 331.245818 294.338594 
L 332.247273 294.502794 
L 332.253818 294.420694 
L 332.535273 294.365959 
L 333.072 294.530162 
L 333.56291 294.324911 
L 333.576 294.393329 
L 333.949091 294.584895 
L 333.949091 294.461744 
L 334.872001 294.639628 
L 334.885091 294.55753 
L 335.245091 294.365961 
L 336.626182 294.461743 
L 336.632727 294.680678 
L 336.973091 294.584896 
L 337.902545 294.516477 
L 337.909092 294.32491 
L 338.295274 294.489112 
L 339.303272 294.461744 
L 339.316364 294.352278 
L 339.591273 294.489111 
L 340.193455 294.53016 
L 340.206545 294.393327 
L 340.592727 294.530162 
L 340.599274 294.502795 
L 342.811636 294.57121 
L 343.269819 294.831196 
L 343.276364 294.516477 
L 343.512 294.365961 
L 344.696728 294.543845 
L 344.703273 294.625945 
L 345.482181 294.407009 
L 345.495273 294.283859 
L 345.501818 294.434376 
L 345.973091 294.270176 
L 345.992727 294.543845 
L 346.797818 294.858562 
L 346.797818 294.666995 
L 347.38691 294.365959 
L 347.393454 294.010191 
L 348.106909 293.969141 
L 348.126545 294.666996 
L 348.650181 294.92698 
L 348.663273 294.858562 
L 349.409455 294.666995 
L 349.429092 294.256493 
L 350.057455 294.502795 
L 350.744728 294.407012 
L 350.757818 294.516477 
L 351.320727 294.44806 
L 351.36 294.639629 
L 352.08 294.584895 
L 352.086545 294.393327 
L 352.682182 294.20176 
L 352.695272 294.557527 
L 353.408727 294.530162 
L 353.415273 294.708046 
L 353.997819 294.749097 
L 354.017455 294.448062 
L 354.724364 294.20176 
L 354.730909 294.32491 
L 355.30691 294.530162 
L 355.32 294.653312 
L 355.418182 294.516477 
L 356.020364 294.721729 
L 356.629091 294.612263 
L 356.688 294.215443 
L 357.34909 294.174392 
L 357.355637 294.393327 
L 358.114909 294.68068 
L 359.391272 294.516479 
L 360.006546 294.338593 
L 360.013091 294.174393 
L 360.549818 294.037559 
L 360.576 294.80383 
L 360.811636 294.995397 
L 361.335273 294.899615 
L 361.341818 294.530162 
L 361.858909 294.338594 
L 361.885091 294.07861 
L 362.068364 293.996508 
L 362.644363 294.283859 
L 362.670546 294.516477 
L 363.168001 294.954347 
L 363.488728 294.489111 
L 363.946909 294.393327 
L 363.953454 294.023874 
L 364.457455 294.133342 
L 364.464 294.338594 
L 364.765091 294.88593 
L 365.334545 294.817514 
L 365.773091 294.557528 
L 365.786181 294.256493 
L 366.172363 294.133342 
L 367.075636 294.434377 
L 367.088728 294.844879 
L 367.448728 294.489111 
L 368.404364 294.242811 
L 368.404364 294.365959 
L 368.849455 294.598578 
L 368.856 294.749094 
L 369.242182 294.762778 
L 369.706909 294.639629 
L 369.713455 294.32491 
L 370.132363 293.914409 
L 370.145455 294.092292 
L 370.551273 294.242808 
L 370.564363 294.420694 
L 371.00291 294.612263 
L 371.546182 294.981714 
L 371.552727 294.790146 
L 371.919273 294.57121 
L 371.925818 294.379644 
L 372.311999 294.229128 
L 372.325091 294.365961 
L 373.248 294.598577 
L 374.229818 294.379644 
L 374.537455 294.530162 
L 375.525819 294.598578 
L 375.532364 294.32491 
L 375.853091 294.11966 
L 376.265455 294.530162 
L 376.952727 294.694363 
L 376.959272 294.762779 
L 377.574546 294.324911 
L 378.242182 294.283861 
L 378.242182 294.434377 
L 378.536728 294.639629 
L 378.864001 294.612263 
L 379.610181 294.708046 
L 379.616728 294.653312 
L 379.623273 294.297543 
L 379.858909 294.256494 
L 380.179637 294.434376 
L 380.886546 294.502795 
L 380.893091 294.762779 
L 381.475636 294.461744 
L 382.30691 294.352278 
L 382.470545 294.530162 
L 383.589818 294.625944 
L 383.596365 294.352278 
L 383.831999 294.311227 
L 384.12 294.393327 
L 384.970909 294.393327 
L 384.984 294.57121 
L 385.134546 294.598577 
L 385.402909 294.530162 
L 386.293091 294.557528 
L 386.293091 294.625945 
L 386.718546 294.55753 
L 387.693819 294.256493 
L 387.772363 293.982824 
L 388.040728 294.407012 
L 388.944 294.776462 
L 388.970182 294.954346 
L 388.976727 294.557527 
L 388.976727 294.092292 
L 389.336727 293.68179 
L 390.338183 293.996508 
L 390.377454 295.378533 
L 390.652363 295.488 
L 391.627637 295.022763 
L 391.647272 293.627057 
L 391.758546 293.969141 
L 393.021818 294.270176 
L 393.067636 295.269065 
L 393.080727 294.666996 
L 394.324364 294.283861 
L 394.330909 293.859675 
L 394.357091 294.680678 
L 394.573091 294.817513 
L 395.679273 294.844879 
L 395.712 294.32491 
L 395.869092 294.229128 
L 397.008 294.612263 
L 397.008 294.735414 
L 397.178182 294.57121 
L 398.395637 294.461744 
L 398.395637 294.461744 
L 398.402182 294.379644 
L 398.487273 294.749096 
L 398.487273 294.749096 
" style="fill:none;stroke:#ff7f0e;stroke-linecap:square;stroke-width:1.5;"/>
   </g>
   <g id="line2d_15">
    <path clip-path="url(#p85aaf0f38d)" d="M 73.832727 268.6783 
L 73.839272 273.33066 
L 74.369455 267.761512 
L 74.376 271.633917 
L 74.637818 270.853963 
L 75.148363 268.801451 
L 75.154908 272.16757 
L 75.678544 269.294055 
L 75.678544 270.498194 
L 76.051636 271.332882 
L 76.058181 269.088803 
L 76.457455 271.154998 
L 76.981091 270.306626 
L 76.987636 269.964541 
L 77.321455 270.977113 
L 77.327999 269.526672 
L 77.766544 270.498194 
L 78.296727 270.539244 
L 78.309818 269.937174 
L 78.748363 271.072898 
L 78.768 270.306627 
L 79.088727 270.402411 
L 79.684362 270.443461 
L 79.690909 270.074009 
L 79.697454 270.607661 
L 80.404363 270.443461 
L 81 270.826596 
L 81.006545 270.087692 
L 81.01309 270.429777 
L 81.425454 270.306627 
L 81.44509 270.402411 
L 81.706908 270.703445 
L 82.74109 270.292943 
L 83.035636 270.566612 
L 83.592 270.635028 
L 83.598545 270.36136 
L 84.161453 270.265576 
L 84.161453 270.128742 
L 84.32509 270.552928 
L 84.914181 270.525561 
L 85.398545 270.388727 
L 85.40509 270.101375 
L 85.614545 270.375043 
L 86.393454 270.457144 
L 86.393454 270.251892 
L 86.799272 270.840279 
L 86.805817 270.703445 
L 86.805817 270.552928 
L 87.578181 270.48451 
L 87.584726 270.156108 
L 88.082182 270.388727 
L 88.082182 270.676079 
L 88.887272 270.812913 
L 88.900364 270.142425 
L 89.482909 270.251893 
L 89.482909 270.48451 
L 90.209454 270.717129 
L 90.222545 270.990797 
L 90.22909 270.566611 
L 91.564363 270.676078 
L 92.225454 270.744496 
L 92.231999 270.552928 
L 92.912727 270.662395 
L 93.469091 270.744496 
L 93.501817 270.621345 
L 94.234908 270.635029 
L 94.804364 270.785546 
L 94.817454 270.730812 
L 94.824 270.429777 
L 95.511273 270.662395 
L 95.517818 270.853963 
L 96.113455 270.717129 
L 96.113455 270.552928 
L 96.839999 270.525561 
L 96.846546 270.908697 
L 97.442181 270.662395 
L 97.448728 270.703445 
L 98.129454 270.251892 
L 98.142545 270.292943 
L 98.155635 270.607662 
L 98.744727 270.853962 
L 98.829818 270.457144 
L 99.510545 270.375044 
L 99.517091 270.730812 
L 100.027635 270.580294 
L 100.223999 270.388727 
L 100.806544 270.347676 
L 100.819636 270.607662 
L 101.526545 270.676079 
L 102.135272 270.429777 
L 102.645818 270.48451 
L 102.920727 270.36136 
L 103.424727 270.525561 
L 103.948363 270.895013 
L 103.961454 270.265576 
L 104.223272 270.101375 
L 104.753454 270.320309 
L 104.759999 270.936064 
L 105.27709 271.086581 
L 105.309818 270.758179 
L 105.591273 270.292943 
L 106.121454 270.060325 
L 106.128 270.224526 
L 106.57309 270.853963 
L 106.586182 271.237098 
L 106.887272 271.086581 
L 107.417455 270.580294 
L 107.430545 270.251892 
L 107.882181 270.197159 
L 107.901818 270.511877 
L 108.726545 271.031847 
L 108.726545 270.703445 
L 109.184727 270.621345 
L 109.223999 270.279259 
L 109.577454 270.128742 
L 109.577454 270.292943 
L 110.493817 271.182364 
L 110.513454 271.031847 
L 110.984727 270.539245 
L 111.004363 270.306626 
L 111.357819 270.074009 
L 111.842181 270.183475 
L 111.848726 270.566612 
L 112.267636 270.840279 
L 112.280726 270.621345 
L 112.719273 270.662395 
L 112.725818 270.566611 
L 113.118545 270.347676 
L 113.694545 270.525561 
L 114.473454 270.470828 
L 115.337454 270.607662 
L 115.749819 270.388727 
L 115.762909 270.224526 
L 116.371635 270.333993 
L 116.378182 270.566612 
L 116.672726 270.840279 
L 117.045818 270.758179 
L 117.052363 270.470827 
L 117.654545 270.169792 
L 117.654545 270.183475 
L 117.962181 270.457144 
L 118.381091 270.607661 
L 119.055272 270.320309 
L 119.677091 270.511877 
L 120.325091 270.48451 
L 120.331635 270.347677 
L 120.331635 270.443461 
L 121.712726 270.48451 
L 121.719273 270.416093 
L 121.725818 270.429777 
L 121.967999 270.251892 
L 122.995636 270.333993 
L 123.008727 270.621344 
L 124.448728 270.183476 
L 124.448728 270.265576 
L 124.566545 270.539245 
L 124.900364 270.771862 
L 125.692363 270.853963 
L 125.705454 270.156108 
L 126.209454 270.183475 
L 126.222545 270.36136 
L 127.132363 270.785546 
L 127.250182 270.429777 
L 127.512 270.087691 
L 128.382545 270.402411 
L 128.428363 270.744495 
L 128.572363 270.648711 
L 128.821091 270.306627 
L 129.776727 270.375043 
L 129.868363 270.717128 
L 130.136727 270.580295 
L 131.059637 270.40241 
L 131.066182 270.44346 
L 131.079272 270.840279 
L 131.458909 270.689762 
L 132.486545 270.580294 
L 132.499635 270.320309 
L 132.512727 270.40241 
L 132.774545 270.703445 
L 133.782545 270.607662 
L 134.057454 270.388727 
L 135.216 270.388727 
L 135.22909 270.689762 
L 135.235637 270.552928 
L 136.472727 270.457144 
L 136.472727 270.498194 
L 136.479272 270.703445 
L 137.873454 270.758179 
L 137.886546 269.814023 
L 137.886546 271.168681 
L 137.893091 270.525561 
L 137.984727 271.223415 
L 139.149817 269.964541 
L 139.156364 270.867646 
L 139.182545 270.511878 
L 139.293818 270.840279 
L 140.48509 270.142426 
L 140.530908 270.593978 
L 141.794181 270.32031 
L 141.813818 270.895013 
L 141.853091 270.758179 
L 143.135999 270.27926 
L 143.142546 270.060325 
L 143.155635 270.416093 
L 144.530181 270.730813 
L 144.536728 270.101375 
L 145.806544 270.292943 
L 145.898182 270.689762 
L 147.095999 270.416093 
L 147.135272 270.169792 
L 147.168 270.511877 
L 148.398545 270.265576 
L 148.411635 270.840279 
L 148.450908 270.593978 
L 149.707637 270.251892 
L 149.720727 270.128742 
L 149.76 270.771863 
L 151.082182 270.525561 
L 151.101817 270.183476 
L 151.265454 270.169792 
L 152.404363 270.607662 
L 152.417455 270.853963 
L 152.424 270.758179 
L 152.561454 270.511878 
L 153.72 270.279259 
L 153.726545 270.44346 
L 153.949091 270.703445 
L 154.996363 270.908696 
L 155.002909 270.840279 
L 155.015999 270.402411 
L 155.218909 270.48451 
L 156.331636 270.375043 
L 156.338182 270.48451 
L 156.351272 270.895013 
L 156.652363 270.867646 
L 156.65891 270.730813 
L 157.647272 270.36136 
L 157.686545 270.552928 
L 157.922181 270.717129 
L 158.936726 270.799229 
L 158.96291 270.936064 
L 158.995636 270.635029 
L 159.329455 270.306627 
L 160.298182 270.388727 
L 160.304727 270.92238 
L 161.607272 270.539245 
L 161.613818 270.306625 
L 162.032727 270.470828 
L 162.039272 270.183476 
L 162.87709 271.510766 
L 162.890182 270.402411 
L 163.30909 270.375044 
L 163.315637 269.786657 
L 164.186181 270.96343 
L 164.212363 270.552928 
L 164.703272 270.908696 
L 164.709817 270.333993 
L 165.534546 270.470827 
L 165.541091 270.306626 
L 165.61309 270.717129 
L 165.979635 270.539244 
L 166.804364 270.498194 
L 166.817454 270.689761 
L 166.824 270.306627 
L 166.922181 270.388727 
L 167.399999 270.48451 
L 168.100363 270.402411 
L 168.106908 270.593978 
L 168.106908 270.539244 
L 168.231272 270.402411 
L 168.669817 270.36136 
L 168.682909 270.498194 
L 169.527272 270.347676 
L 170.077091 270.552928 
L 170.090181 270.511877 
L 170.777454 270.443461 
L 171.379636 270.593978 
L 172.754181 270.607661 
L 172.780363 270.635028 
L 173.526545 270.388727 
L 174.069818 270.662395 
L 174.665455 270.552928 
L 174.848726 270.375043 
L 175.470545 270.27926 
L 175.470545 270.580294 
L 176.138181 270.689762 
L 176.779636 270.347676 
L 177.264 270.265576 
L 177.27709 270.511877 
L 177.525818 270.566611 
L 178.579637 270.388727 
L 178.854545 270.580294 
L 179.424 270.662395 
L 179.430545 270.416093 
L 179.882181 270.429777 
L 180.150546 270.580294 
L 180.850909 270.375043 
L 180.857454 270.457144 
L 181.223999 270.429777 
L 181.446546 270.525561 
L 182.120727 270.333993 
L 182.506909 270.48451 
L 182.513454 270.607662 
L 182.768727 270.539244 
L 183.521454 270.539244 
L 183.527999 270.292943 
L 183.534546 270.416093 
L 183.816 270.621345 
L 184.130181 270.676079 
L 184.817454 270.552928 
L 184.824 270.388727 
L 185.118545 270.224526 
L 185.452364 270.429777 
L 186.211636 270.717129 
L 186.218181 270.539244 
L 187.481454 270.197159 
L 187.494546 270.48451 
L 187.494546 270.429777 
L 187.743272 270.580294 
L 188.077091 270.498194 
L 188.908363 270.402411 
L 188.914909 270.320309 
L 189.458182 270.511877 
L 189.471272 270.703445 
L 190.178181 270.607662 
L 190.197818 270.429777 
L 190.74109 270.224526 
L 190.754181 270.48451 
L 191.611636 270.580295 
L 192.056728 270.306626 
L 192.861818 270.498194 
L 192.868363 270.552928 
L 192.966546 270.470827 
L 193.365817 270.402411 
L 194.249454 270.607661 
L 194.262545 270.470827 
L 194.26909 270.621345 
L 194.275637 270.525561 
L 195.545455 270.388727 
L 195.552 270.443461 
L 195.558545 270.511877 
L 195.571636 270.457144 
L 196.062546 270.703446 
L 196.075636 270.621345 
L 196.906909 270.580294 
L 196.913454 270.23821 
L 197.378182 270.388727 
L 197.391272 270.717129 
L 198.255272 270.758179 
L 198.261818 270.333993 
L 199.551273 270.470828 
L 199.557818 270.539244 
L 199.976726 270.607662 
L 199.989818 270.457144 
L 200.821091 270.457144 
L 200.827636 270.580294 
L 200.906182 270.416093 
L 202.162909 270.621345 
L 202.176001 270.470828 
L 202.182545 270.566612 
L 202.666908 270.347676 
L 203.524363 270.552928 
L 203.524363 270.470827 
L 203.576728 270.27926 
L 203.96291 270.580294 
L 204.754908 270.470828 
L 204.781091 270.689762 
L 204.787636 270.333993 
L 205.304727 270.525561 
L 206.109818 270.511877 
L 206.613819 270.44346 
L 207.386182 270.416093 
L 207.386182 270.210843 
L 207.700363 270.320309 
L 207.903273 270.552928 
L 208.728 270.552928 
L 208.976726 270.375043 
L 209.258181 270.429777 
L 210.384 270.498194 
L 210.390545 270.744495 
L 211.306909 270.44346 
L 211.313454 270.169792 
L 211.640727 270.333993 
L 211.647272 270.635028 
L 212.648727 270.580294 
L 212.674909 270.730812 
L 212.681454 270.470828 
L 213.080727 270.40241 
L 213.087272 270.525561 
L 213.192 270.429777 
L 213.912 270.498194 
L 213.918545 270.648711 
L 215.227637 270.224526 
L 215.240727 270.470828 
L 215.770909 270.689761 
L 216.543273 270.525561 
L 216.549818 270.101375 
L 217.014546 270.347676 
L 217.027636 270.676078 
L 217.852364 270.703445 
L 217.852364 270.648711 
L 217.858909 270.333993 
L 218.447999 270.306626 
L 218.447999 270.429777 
L 219.148364 270.416093 
L 219.154909 270.689762 
L 219.161454 270.580294 
L 219.711273 270.470827 
L 219.717818 270.347676 
L 220.496726 270.552928 
L 221.131636 270.183476 
L 221.144728 270.799229 
L 221.773091 270.92238 
L 221.799273 270.23821 
L 222.381818 270.169792 
L 222.388363 270.238209 
L 222.39491 270.48451 
L 223.101817 271.072897 
L 223.121454 270.840279 
L 223.802182 270.703445 
L 223.828363 270.074009 
L 224.404364 270.703445 
L 225.098181 270.92238 
L 225.117818 270.429777 
L 226.407273 270.416094 
L 226.413818 270.799229 
L 227.029091 270.730813 
L 227.035636 270.552928 
L 227.762182 270.470828 
L 227.781818 270.744495 
L 228.311999 270.511878 
L 228.325091 270.689762 
L 229.136728 270.771863 
L 229.149818 270.333993 
L 229.156364 270.44346 
L 229.640727 270.552928 
L 230.419636 270.621345 
L 230.432727 270.27926 
L 230.936727 270.470827 
L 230.943273 270.607662 
L 231.715635 270.580294 
L 231.722182 270.758179 
L 231.722182 270.498194 
L 232.265454 270.607661 
L 233.044363 270.566612 
L 233.135999 270.593978 
L 234.346909 270.580294 
L 234.353454 270.758179 
L 234.536728 270.676078 
L 234.857454 270.799229 
L 236.166545 270.552928 
L 237.056728 270.552928 
L 237.082909 270.785545 
L 237.089454 270.689762 
L 237.508364 270.498194 
L 237.514909 270.580294 
L 238.791272 270.607661 
L 239.681454 270.703445 
L 239.694545 270.566612 
L 239.70109 270.662395 
L 240.093819 270.525561 
L 240.938182 270.498194 
L 240.951272 270.635028 
L 240.951272 270.498194 
L 241.206545 270.580294 
L 241.402908 270.511877 
L 242.332364 270.333993 
L 242.332364 270.730812 
L 242.338909 270.662395 
L 242.594182 270.443461 
L 242.705455 270.525561 
L 243.66109 270.333993 
L 243.66109 270.429777 
L 243.674182 270.648711 
L 243.896727 270.525561 
L 244.983273 270.48451 
L 245.290909 270.552928 
L 246.266181 270.607661 
L 246.272728 270.388727 
L 247.634182 270.539244 
L 247.653818 270.593978 
L 247.954909 270.470828 
L 248.943273 270.292943 
L 248.956363 270.498194 
L 248.976 270.457144 
L 249.270546 270.498194 
L 249.270546 270.375043 
L 250.265454 270.498194 
L 250.265454 270.333993 
L 250.592727 270.320309 
L 250.605818 270.580294 
L 251.921455 270.511877 
L 252.896727 270.48451 
L 253.184728 270.265576 
L 254.258181 270.333993 
L 254.271272 270.593978 
L 254.500364 270.552928 
L 254.631273 270.347677 
L 255.816 270.388727 
L 256.025455 270.607661 
L 256.902545 270.539244 
L 256.915636 270.429777 
L 257.308363 270.224526 
L 258.17891 270.525561 
L 258.735272 270.470828 
L 259.494546 270.498194 
L 259.985454 270.648711 
L 259.992 270.539244 
L 260.856 270.388727 
L 260.888727 270.621345 
L 261.399272 270.36136 
L 262.178181 270.635028 
L 262.361455 270.44346 
L 263.461091 270.48451 
L 263.474183 270.621345 
L 263.480727 270.511878 
L 263.650909 270.511877 
L 264.082909 270.388727 
L 264.816 270.429777 
L 264.973091 270.552928 
L 265.392001 270.388727 
L 266.085818 270.443461 
L 266.098908 270.320309 
L 266.288727 270.593978 
L 266.786181 270.44346 
L 266.792728 270.593978 
L 267.466909 270.320309 
L 267.480001 270.40241 
L 268.082182 270.511878 
L 268.769454 270.347676 
L 268.795637 270.552928 
L 269.476363 270.347677 
L 270.104726 270.525561 
L 270.104726 270.347676 
L 270.111273 270.552928 
L 272.173092 270.443461 
L 272.709817 270.580295 
L 272.736 270.429777 
L 272.834181 270.470828 
L 273.436363 270.320309 
L 273.442908 270.552928 
L 274.064727 270.580294 
L 274.077818 270.703445 
L 274.123636 270.306627 
L 274.850182 270.511877 
L 274.856727 270.36136 
L 276.113455 270.52556 
L 276.12 270.416093 
L 276.689454 270.347677 
L 277.520727 270.470827 
L 277.527272 270.36136 
L 277.533817 270.635028 
L 278.018182 270.703445 
L 278.031273 270.443461 
L 278.836364 270.347677 
L 278.836364 270.48451 
L 279.333818 270.730813 
L 280.230546 270.635028 
L 280.243636 270.347677 
L 280.688727 270.539244 
L 281.500364 270.689762 
L 281.506909 270.566612 
L 281.520001 270.621345 
L 281.991273 270.443461 
L 282.907636 270.320309 
L 282.933818 270.593978 
L 283.287273 270.525561 
L 283.293818 270.375043 
L 284.602909 270.566612 
L 285.578182 270.676078 
L 285.617455 270.470827 
L 286.867636 270.703445 
L 286.874181 270.580294 
L 287.22109 270.566611 
L 288.261819 270.333993 
L 288.301092 270.703446 
L 288.301092 270.676078 
L 289.597091 270.662395 
L 289.603636 270.498194 
L 289.610181 270.676078 
L 289.872001 270.607662 
L 290.971637 270.799229 
L 290.984727 270.580294 
L 290.991273 270.648711 
L 291.226908 270.593978 
L 292.267637 270.744496 
L 292.274182 270.840279 
L 292.280727 270.744495 
L 292.52291 270.621345 
L 293.661819 270.648712 
L 293.661819 270.648711 
L 293.773091 270.470827 
L 294.938182 270.662395 
L 295.075636 270.443461 
L 296.332364 270.525561 
L 296.338909 270.92238 
L 296.384727 270.566612 
L 297.608727 270.224526 
L 297.648 270.771863 
L 297.648 270.662395 
L 299.022546 270.580294 
L 299.061818 270.443461 
L 299.074909 270.539245 
L 300.292364 270.648711 
L 300.305454 270.402411 
L 300.311999 270.662395 
L 300.325091 270.552928 
L 300.514909 270.648711 
L 301.653819 270.416093 
L 301.660364 270.593978 
L 301.693092 270.48451 
L 302.956363 270.498194 
L 302.976 270.799229 
L 303.008728 270.416093 
L 304.285091 270.443461 
L 304.317817 270.730812 
L 304.376727 270.580294 
L 305.581091 270.539244 
L 305.594182 270.717129 
L 305.594182 270.676079 
L 306.916363 270.292943 
L 306.929455 270.662395 
L 306.929455 270.607662 
L 307.138908 270.662395 
L 308.179637 270.635028 
L 308.179637 270.635028 
L 308.186182 270.552928 
L 308.349819 270.48451 
L 309.501818 270.15611 
L 309.547636 270.648711 
L 309.743999 270.470828 
L 310.830546 270.525561 
L 311.059637 270.27926 
L 312.093819 270.36136 
L 312.106909 270.662395 
L 312.113455 270.443461 
L 312.355637 270.265576 
L 312.453818 270.525561 
L 313.435636 270.552928 
L 313.455273 270.703445 
L 313.455273 270.347676 
L 313.749819 270.429777 
L 314.725091 270.402411 
L 314.738181 270.552928 
L 314.738181 270.552928 
L 316.027636 270.333993 
L 316.060364 270.635029 
L 317.382545 270.36136 
L 317.395637 270.292943 
L 317.395637 270.580295 
L 317.670546 270.580294 
L 317.814545 270.375044 
L 318.639273 270.292943 
L 318.672 270.457144 
L 319.025455 270.566612 
L 319.097455 270.443461 
L 320.341091 270.593978 
L 320.498182 270.388727 
L 321.309819 270.539245 
L 321.309819 270.703445 
L 321.781092 270.580294 
L 322.605818 270.566612 
L 322.612363 270.607661 
L 323.201455 270.511878 
L 323.901818 270.552928 
L 324.261819 270.402411 
L 324.268364 270.429777 
L 324.464727 270.593978 
L 325.217454 270.429777 
L 325.243636 270.539245 
L 325.669091 270.48451 
L 325.891636 270.593978 
L 326.493818 270.717129 
L 326.500364 270.593978 
L 326.945454 270.416094 
L 327.161454 270.676078 
L 327.82909 270.429777 
L 327.855273 270.539244 
L 327.861818 270.347676 
L 328.562181 270.607662 
L 329.144728 270.511877 
L 329.151273 270.416093 
L 330.447273 270.580294 
L 330.447273 270.388727 
L 330.892364 270.525561 
L 331.245818 270.621345 
L 331.749819 270.525561 
L 332.247273 270.525561 
L 332.253818 270.402411 
L 333.065455 270.593978 
L 333.072 270.457144 
L 333.56291 270.498194 
L 333.576 270.621345 
L 334.361455 270.498194 
L 336.187637 270.758179 
L 336.200727 270.621345 
L 337.902545 270.470828 
L 337.909092 270.703446 
L 338.282182 270.525561 
L 338.295274 270.580294 
L 338.884364 270.689762 
L 338.897454 270.607662 
L 339.303272 270.607661 
L 339.316364 270.470827 
L 339.591273 270.36136 
L 340.193455 270.676078 
L 340.206545 270.648711 
L 340.592727 270.470828 
L 340.599274 270.580294 
L 340.906909 270.470828 
L 341.535273 270.635029 
L 342.026182 270.552928 
L 342.026182 270.566611 
L 342.209454 270.36136 
L 342.805091 270.306626 
L 342.811636 270.525561 
L 343.269819 270.566611 
L 343.276364 270.717129 
L 343.512 270.566612 
L 344.094546 270.511877 
L 344.101091 270.635029 
L 344.690183 270.306626 
L 344.703273 270.580295 
L 345.501818 270.566611 
L 345.992727 270.511878 
L 346.797818 270.635028 
L 346.797818 270.717129 
L 347.393454 270.402411 
L 348.126545 270.607662 
L 348.663273 270.443461 
L 349.422545 270.48451 
L 349.429092 270.347676 
L 350.044363 270.457144 
L 350.05091 270.416093 
L 350.057455 270.908697 
L 350.744728 270.853963 
L 350.757818 270.662395 
L 351.320727 270.169792 
L 351.34691 270.251892 
L 351.36 270.498194 
L 352.08 271.127631 
L 352.086545 270.977113 
L 352.695272 270.498194 
L 352.695272 270.197159 
L 353.402182 270.32031 
L 353.415273 270.96343 
L 353.997819 270.812913 
L 354.017455 270.676078 
L 354.717818 270.785546 
L 354.724364 270.498194 
L 354.730909 270.525561 
L 355.32 270.717129 
L 355.418182 270.92238 
L 356.013818 270.895013 
L 356.020364 270.593978 
L 356.629091 270.552928 
L 356.642182 270.388727 
L 356.688 270.593978 
L 357.34909 270.676078 
L 357.355637 270.936063 
L 357.912001 270.88133 
L 357.938182 270.689762 
L 358.114909 270.771863 
L 358.736727 270.347677 
L 358.749819 270.375043 
L 359.391272 270.648711 
L 360.013091 270.27926 
L 360.556363 270.936063 
L 360.576 270.799229 
L 361.335273 270.183476 
L 361.341818 269.991908 
L 362.068364 270.853963 
L 362.670546 270.840279 
L 363.488728 269.991908 
L 363.946909 270.539244 
L 363.953454 270.826596 
L 364.464 270.908696 
L 364.765091 270.662395 
L 365.328 270.498194 
L 365.334545 270.279259 
L 365.773091 270.128742 
L 365.786181 270.498194 
L 366.630546 270.826596 
L 367.075636 270.416093 
L 367.088728 270.251892 
L 367.435637 270.169792 
L 367.448728 270.498194 
L 367.946182 270.785546 
L 368.404364 270.840279 
L 368.404364 270.785546 
L 368.849455 270.498194 
L 368.856 270.251892 
L 369.242182 270.498194 
L 369.713455 270.635028 
L 370.551273 270.375043 
L 370.564363 270.717129 
L 371.00291 270.895013 
L 371.546182 270.552928 
L 371.552727 270.210843 
L 371.919273 270.224526 
L 371.925818 270.470827 
L 372.311999 270.689762 
L 372.325091 270.648711 
L 372.848727 270.566612 
L 373.248 270.361359 
L 373.634182 270.320309 
L 373.640727 270.402411 
L 374.537455 270.635029 
L 374.956363 270.580294 
L 374.96291 270.402411 
L 375.532364 270.347676 
L 376.25891 270.607662 
L 376.265455 270.498194 
L 376.946183 270.36136 
L 376.959272 270.511878 
L 378.222546 270.333993 
L 378.242182 270.703445 
L 378.536728 270.457144 
L 379.623273 270.635029 
L 379.858909 270.375043 
L 382.797818 270.552928 
L 383.589818 270.292943 
L 383.589818 270.388727 
L 383.596365 270.48451 
L 383.831999 270.607661 
L 384.12 270.333993 
L 384.970909 270.566611 
L 384.977455 270.525561 
L 384.984 270.429777 
L 385.134546 270.498194 
L 385.402909 270.292943 
L 386.293091 270.36136 
L 386.293091 270.703445 
L 386.450182 270.443461 
L 386.718546 270.539244 
L 387.693819 270.689762 
L 387.772363 270.238209 
L 388.970182 270.840279 
L 388.976727 270.101375 
L 389.336727 269.909808 
L 390.364364 270.498194 
L 390.370909 270.895013 
L 390.377454 270.676079 
L 390.652363 270.416093 
L 391.627637 270.101375 
L 391.640727 269.964541 
L 391.647272 270.936063 
L 393.021818 270.593978 
L 393.067636 270.032958 
L 393.080727 270.607662 
L 394.324364 270.908697 
L 394.344001 270.375043 
L 394.357091 270.429777 
L 394.573091 270.320309 
L 395.679273 270.457144 
L 395.692363 270.333993 
L 395.69891 270.621345 
L 395.712 270.621345 
L 395.869092 270.375043 
L 397.008 270.511877 
L 397.008 270.306627 
L 398.382545 270.593978 
L 398.487273 272.537023 
L 398.402182 270.511877 
L 398.487273 272.537023 
" style="fill:none;stroke:#2ca02c;stroke-linecap:square;stroke-width:1.5;"/>
   </g>
   <g id="patch_3">
    <path d="M 57.6 307.584 
L 57.6 41.472 
" style="fill:none;stroke:#000000;stroke-linecap:square;stroke-linejoin:miter;stroke-width:0.8;"/>
   </g>
   <g id="patch_4">
    <path d="M 414.72 307.584 
L 414.72 41.472 
" style="fill:none;stroke:#000000;stroke-linecap:square;stroke-linejoin:miter;stroke-width:0.8;"/>
   </g>
   <g id="patch_5">
    <path d="M 57.6 307.584 
L 414.72 307.584 
" style="fill:none;stroke:#000000;stroke-linecap:square;stroke-linejoin:miter;stroke-width:0.8;"/>
   </g>
   <g id="patch_6">
    <path d="M 57.6 41.472 
L 414.72 41.472 
" style="fill:none;stroke:#000000;stroke-linecap:square;stroke-linejoin:miter;stroke-width:0.8;"/>
   </g>
   <g id="text_15">
    <!-- OnePLus 7T/car_off/accelerometer Dec 09 120833.txt -->
    <defs>
     <path d="M 39.40625 66.21875 
Q 28.65625 66.21875 22.328125 58.203125 
Q 16.015625 50.203125 16.015625 36.375 
Q 16.015625 22.609375 22.328125 14.59375 
Q 28.65625 6.59375 39.40625 6.59375 
Q 50.140625 6.59375 56.421875 14.59375 
Q 62.703125 22.609375 62.703125 36.375 
Q 62.703125 50.203125 56.421875 58.203125 
Q 50.140625 66.21875 39.40625 66.21875 
z
M 39.40625 74.21875 
Q 54.734375 74.21875 63.90625 63.9375 
Q 73.09375 53.65625 73.09375 36.375 
Q 73.09375 19.140625 63.90625 8.859375 
Q 54.734375 -1.421875 39.40625 -1.421875 
Q 24.03125 -1.421875 14.8125 8.828125 
Q 5.609375 19.09375 5.609375 36.375 
Q 5.609375 53.65625 14.8125 63.9375 
Q 24.03125 74.21875 39.40625 74.21875 
z
" id="DejaVuSans-79"/>
     <path d="M 19.671875 64.796875 
L 19.671875 37.40625 
L 32.078125 37.40625 
Q 38.96875 37.40625 42.71875 40.96875 
Q 46.484375 44.53125 46.484375 51.125 
Q 46.484375 57.671875 42.71875 61.234375 
Q 38.96875 64.796875 32.078125 64.796875 
z
M 9.8125 72.90625 
L 32.078125 72.90625 
Q 44.34375 72.90625 50.609375 67.359375 
Q 56.890625 61.8125 56.890625 51.125 
Q 56.890625 40.328125 50.609375 34.8125 
Q 44.34375 29.296875 32.078125 29.296875 
L 19.671875 29.296875 
L 19.671875 0 
L 9.8125 0 
z
" id="DejaVuSans-80"/>
     <path d="M 9.8125 72.90625 
L 19.671875 72.90625 
L 19.671875 8.296875 
L 55.171875 8.296875 
L 55.171875 0 
L 9.8125 0 
z
" id="DejaVuSans-76"/>
     <path d="M 8.203125 72.90625 
L 55.078125 72.90625 
L 55.078125 68.703125 
L 28.609375 0 
L 18.3125 0 
L 43.21875 64.59375 
L 8.203125 64.59375 
z
" id="DejaVuSans-55"/>
     <path d="M 25.390625 72.90625 
L 33.6875 72.90625 
L 8.296875 -9.28125 
L 0 -9.28125 
z
" id="DejaVuSans-47"/>
     <path d="M 41.109375 46.296875 
Q 39.59375 47.171875 37.8125 47.578125 
Q 36.03125 48 33.890625 48 
Q 26.265625 48 22.1875 43.046875 
Q 18.109375 38.09375 18.109375 28.8125 
L 18.109375 0 
L 9.078125 0 
L 9.078125 54.6875 
L 18.109375 54.6875 
L 18.109375 46.1875 
Q 20.953125 51.171875 25.484375 53.578125 
Q 30.03125 56 36.53125 56 
Q 37.453125 56 38.578125 55.875 
Q 39.703125 55.765625 41.0625 55.515625 
z
" id="DejaVuSans-114"/>
     <path d="M 50.984375 -16.609375 
L 50.984375 -23.578125 
L -0.984375 -23.578125 
L -0.984375 -16.609375 
z
" id="DejaVuSans-95"/>
     <path d="M 37.109375 75.984375 
L 37.109375 68.5 
L 28.515625 68.5 
Q 23.6875 68.5 21.796875 66.546875 
Q 19.921875 64.59375 19.921875 59.515625 
L 19.921875 54.6875 
L 34.71875 54.6875 
L 34.71875 47.703125 
L 19.921875 47.703125 
L 19.921875 0 
L 10.890625 0 
L 10.890625 47.703125 
L 2.296875 47.703125 
L 2.296875 54.6875 
L 10.890625 54.6875 
L 10.890625 58.5 
Q 10.890625 67.625 15.140625 71.796875 
Q 19.390625 75.984375 28.609375 75.984375 
z
" id="DejaVuSans-102"/>
     <path d="M 9.421875 75.984375 
L 18.40625 75.984375 
L 18.40625 0 
L 9.421875 0 
z
" id="DejaVuSans-108"/>
     <path d="M 19.671875 64.796875 
L 19.671875 8.109375 
L 31.59375 8.109375 
Q 46.6875 8.109375 53.6875 14.9375 
Q 60.6875 21.78125 60.6875 36.53125 
Q 60.6875 51.171875 53.6875 57.984375 
Q 46.6875 64.796875 31.59375 64.796875 
z
M 9.8125 72.90625 
L 30.078125 72.90625 
Q 51.265625 72.90625 61.171875 64.09375 
Q 71.09375 55.28125 71.09375 36.53125 
Q 71.09375 17.671875 61.125 8.828125 
Q 51.171875 0 30.078125 0 
L 9.8125 0 
z
" id="DejaVuSans-68"/>
     <path d="M 10.984375 1.515625 
L 10.984375 10.5 
Q 14.703125 8.734375 18.5 7.8125 
Q 22.3125 6.890625 25.984375 6.890625 
Q 35.75 6.890625 40.890625 13.453125 
Q 46.046875 20.015625 46.78125 33.40625 
Q 43.953125 29.203125 39.59375 26.953125 
Q 35.25 24.703125 29.984375 24.703125 
Q 19.046875 24.703125 12.671875 31.3125 
Q 6.296875 37.9375 6.296875 49.421875 
Q 6.296875 60.640625 12.9375 67.421875 
Q 19.578125 74.21875 30.609375 74.21875 
Q 43.265625 74.21875 49.921875 64.515625 
Q 56.59375 54.828125 56.59375 36.375 
Q 56.59375 19.140625 48.40625 8.859375 
Q 40.234375 -1.421875 26.421875 -1.421875 
Q 22.703125 -1.421875 18.890625 -0.6875 
Q 15.09375 0.046875 10.984375 1.515625 
z
M 30.609375 32.421875 
Q 37.25 32.421875 41.125 36.953125 
Q 45.015625 41.5 45.015625 49.421875 
Q 45.015625 57.28125 41.125 61.84375 
Q 37.25 66.40625 30.609375 66.40625 
Q 23.96875 66.40625 20.09375 61.84375 
Q 16.21875 57.28125 16.21875 49.421875 
Q 16.21875 41.5 20.09375 36.953125 
Q 23.96875 32.421875 30.609375 32.421875 
z
" id="DejaVuSans-57"/>
     <path d="M 10.6875 12.40625 
L 21 12.40625 
L 21 0 
L 10.6875 0 
z
" id="DejaVuSans-46"/>
     <path d="M 54.890625 54.6875 
L 35.109375 28.078125 
L 55.90625 0 
L 45.3125 0 
L 29.390625 21.484375 
L 13.484375 0 
L 2.875 0 
L 24.125 28.609375 
L 4.6875 54.6875 
L 15.28125 54.6875 
L 29.78125 35.203125 
L 44.28125 54.6875 
z
" id="DejaVuSans-120"/>
    </defs>
    <g transform="translate(74.742188 35.472)scale(0.12 -0.12)">
     <use xlink:href="#DejaVuSans-79"/>
     <use x="78.710938" xlink:href="#DejaVuSans-110"/>
     <use x="142.089844" xlink:href="#DejaVuSans-101"/>
     <use x="203.613281" xlink:href="#DejaVuSans-80"/>
     <use x="263.916016" xlink:href="#DejaVuSans-76"/>
     <use x="319.613281" xlink:href="#DejaVuSans-117"/>
     <use x="382.992188" xlink:href="#DejaVuSans-115"/>
     <use x="435.091797" xlink:href="#DejaVuSans-32"/>
     <use x="466.878906" xlink:href="#DejaVuSans-55"/>
     <use x="530.501953" xlink:href="#DejaVuSans-84"/>
     <use x="591.585938" xlink:href="#DejaVuSans-47"/>
     <use x="625.277344" xlink:href="#DejaVuSans-99"/>
     <use x="680.257812" xlink:href="#DejaVuSans-97"/>
     <use x="741.537109" xlink:href="#DejaVuSans-114"/>
     <use x="782.650391" xlink:href="#DejaVuSans-95"/>
     <use x="832.650391" xlink:href="#DejaVuSans-111"/>
     <use x="893.832031" xlink:href="#DejaVuSans-102"/>
     <use x="929.037109" xlink:href="#DejaVuSans-102"/>
     <use x="964.242188" xlink:href="#DejaVuSans-47"/>
     <use x="997.933594" xlink:href="#DejaVuSans-97"/>
     <use x="1059.212891" xlink:href="#DejaVuSans-99"/>
     <use x="1114.193359" xlink:href="#DejaVuSans-99"/>
     <use x="1169.173828" xlink:href="#DejaVuSans-101"/>
     <use x="1230.697266" xlink:href="#DejaVuSans-108"/>
     <use x="1258.480469" xlink:href="#DejaVuSans-101"/>
     <use x="1320.003906" xlink:href="#DejaVuSans-114"/>
     <use x="1361.085938" xlink:href="#DejaVuSans-111"/>
     <use x="1422.267578" xlink:href="#DejaVuSans-109"/>
     <use x="1519.679688" xlink:href="#DejaVuSans-101"/>
     <use x="1581.203125" xlink:href="#DejaVuSans-116"/>
     <use x="1620.412109" xlink:href="#DejaVuSans-101"/>
     <use x="1681.935547" xlink:href="#DejaVuSans-114"/>
     <use x="1723.048828" xlink:href="#DejaVuSans-32"/>
     <use x="1754.835938" xlink:href="#DejaVuSans-68"/>
     <use x="1831.837891" xlink:href="#DejaVuSans-101"/>
     <use x="1893.361328" xlink:href="#DejaVuSans-99"/>
     <use x="1948.341797" xlink:href="#DejaVuSans-32"/>
     <use x="1980.128906" xlink:href="#DejaVuSans-48"/>
     <use x="2043.751953" xlink:href="#DejaVuSans-57"/>
     <use x="2107.375" xlink:href="#DejaVuSans-32"/>
     <use x="2139.162109" xlink:href="#DejaVuSans-49"/>
     <use x="2202.785156" xlink:href="#DejaVuSans-50"/>
     <use x="2266.408203" xlink:href="#DejaVuSans-48"/>
     <use x="2330.03125" xlink:href="#DejaVuSans-56"/>
     <use x="2393.654297" xlink:href="#DejaVuSans-51"/>
     <use x="2457.277344" xlink:href="#DejaVuSans-51"/>
     <use x="2520.900391" xlink:href="#DejaVuSans-46"/>
     <use x="2552.6875" xlink:href="#DejaVuSans-116"/>
     <use x="2591.896484" xlink:href="#DejaVuSans-120"/>
     <use x="2651.076172" xlink:href="#DejaVuSans-116"/>
    </g>
   </g>
   <g id="legend_1">
    <g id="patch_7">
     <path d="M 344.52 198.045187 
L 407.72 198.045187 
Q 409.72 198.045187 409.72 196.045187 
L 409.72 153.010812 
Q 409.72 151.010812 407.72 151.010812 
L 344.52 151.010812 
Q 342.52 151.010812 342.52 153.010812 
L 342.52 196.045187 
Q 342.52 198.045187 344.52 198.045187 
z
" style="fill:#ffffff;opacity:0.8;stroke:#cccccc;stroke-linejoin:miter;"/>
    </g>
    <g id="line2d_16">
     <path d="M 346.52 159.10925 
L 366.52 159.10925 
" style="fill:none;stroke:#1f77b4;stroke-linecap:square;stroke-width:1.5;"/>
    </g>
    <g id="line2d_17"/>
    <g id="text_16">
     <!-- X-Axis -->
     <defs>
      <path d="M 6.296875 72.90625 
L 16.890625 72.90625 
L 35.015625 45.796875 
L 53.21875 72.90625 
L 63.8125 72.90625 
L 40.375 37.890625 
L 65.375 0 
L 54.78125 0 
L 34.28125 31 
L 13.625 0 
L 2.984375 0 
L 29 38.921875 
z
" id="DejaVuSans-88"/>
      <path d="M 4.890625 31.390625 
L 31.203125 31.390625 
L 31.203125 23.390625 
L 4.890625 23.390625 
z
" id="DejaVuSans-45"/>
      <path d="M 34.1875 63.1875 
L 20.796875 26.90625 
L 47.609375 26.90625 
z
M 28.609375 72.90625 
L 39.796875 72.90625 
L 67.578125 0 
L 57.328125 0 
L 50.6875 18.703125 
L 17.828125 18.703125 
L 11.1875 0 
L 0.78125 0 
z
" id="DejaVuSans-65"/>
     </defs>
     <g transform="translate(374.52 162.60925)scale(0.1 -0.1)">
      <use xlink:href="#DejaVuSans-88"/>
      <use x="68.427734" xlink:href="#DejaVuSans-45"/>
      <use x="104.480469" xlink:href="#DejaVuSans-65"/>
      <use x="172.888672" xlink:href="#DejaVuSans-120"/>
      <use x="232.068359" xlink:href="#DejaVuSans-105"/>
      <use x="259.851562" xlink:href="#DejaVuSans-115"/>
     </g>
    </g>
    <g id="line2d_18">
     <path d="M 346.52 173.787375 
L 366.52 173.787375 
" style="fill:none;stroke:#ff7f0e;stroke-linecap:square;stroke-width:1.5;"/>
    </g>
    <g id="line2d_19"/>
    <g id="text_17">
     <!-- Y-Axis -->
     <defs>
      <path d="M -0.203125 72.90625 
L 10.40625 72.90625 
L 30.609375 42.921875 
L 50.6875 72.90625 
L 61.28125 72.90625 
L 35.5 34.71875 
L 35.5 0 
L 25.59375 0 
L 25.59375 34.71875 
z
" id="DejaVuSans-89"/>
     </defs>
     <g transform="translate(374.52 177.287375)scale(0.1 -0.1)">
      <use xlink:href="#DejaVuSans-89"/>
      <use x="60.912109" xlink:href="#DejaVuSans-45"/>
      <use x="96.964844" xlink:href="#DejaVuSans-65"/>
      <use x="165.373047" xlink:href="#DejaVuSans-120"/>
      <use x="224.552734" xlink:href="#DejaVuSans-105"/>
      <use x="252.335938" xlink:href="#DejaVuSans-115"/>
     </g>
    </g>
    <g id="line2d_20">
     <path d="M 346.52 188.4655 
L 366.52 188.4655 
" style="fill:none;stroke:#2ca02c;stroke-linecap:square;stroke-width:1.5;"/>
    </g>
    <g id="line2d_21"/>
    <g id="text_18">
     <!-- Z-Axis -->
     <defs>
      <path d="M 5.609375 72.90625 
L 62.890625 72.90625 
L 62.890625 65.375 
L 16.796875 8.296875 
L 64.015625 8.296875 
L 64.015625 0 
L 4.5 0 
L 4.5 7.515625 
L 50.59375 64.59375 
L 5.609375 64.59375 
z
" id="DejaVuSans-90"/>
     </defs>
     <g transform="translate(374.52 191.9655)scale(0.1 -0.1)">
      <use xlink:href="#DejaVuSans-90"/>
      <use x="68.490234" xlink:href="#DejaVuSans-45"/>
      <use x="104.542969" xlink:href="#DejaVuSans-65"/>
      <use x="172.951172" xlink:href="#DejaVuSans-120"/>
      <use x="232.130859" xlink:href="#DejaVuSans-105"/>
      <use x="259.914062" xlink:href="#DejaVuSans-115"/>
     </g>
    </g>
   </g>
  </g>
 </g>
 <defs>
  <clipPath id="p85aaf0f38d">
   <rect height="266.112" width="357.12" x="57.6" y="41.472"/>
  </clipPath>
 </defs>
</svg>
