<?xml version="1.0" encoding="utf-8" standalone="no"?>
<!DOCTYPE svg PUBLIC "-//W3C//DTD SVG 1.1//EN"
  "http://www.w3.org/Graphics/SVG/1.1/DTD/svg11.dtd">
<!-- Created with matplotlib (https://matplotlib.org/) -->
<svg height="345.6pt" version="1.1" viewBox="0 0 460.8 345.6" width="460.8pt" xmlns="http://www.w3.org/2000/svg" xmlns:xlink="http://www.w3.org/1999/xlink">
 <defs>
  <style type="text/css">
*{stroke-linecap:butt;stroke-linejoin:round;}
  </style>
 </defs>
 <g id="figure_1">
  <g id="patch_1">
   <path d="M 0 345.6 
L 460.8 345.6 
L 460.8 0 
L 0 0 
z
" style="fill:#ffffff;"/>
  </g>
  <g id="axes_1">
   <g id="patch_2">
    <path d="M 57.6 307.584 
L 414.72 307.584 
L 414.72 41.472 
L 57.6 41.472 
z
" style="fill:#ffffff;"/>
   </g>
   <g id="matplotlib.axis_1">
    <g id="xtick_1">
     <g id="line2d_1">
      <defs>
       <path d="M 0 0 
L 0 3.5 
" id="mf5eb86e819" style="stroke:#000000;stroke-width:0.8;"/>
      </defs>
      <g>
       <use style="stroke:#000000;stroke-width:0.8;" x="73.832727" xlink:href="#mf5eb86e819" y="307.584"/>
      </g>
     </g>
     <g id="text_1">
      <!-- 0 -->
      <defs>
       <path d="M 31.78125 66.40625 
Q 24.171875 66.40625 20.328125 58.90625 
Q 16.5 51.421875 16.5 36.375 
Q 16.5 21.390625 20.328125 13.890625 
Q 24.171875 6.390625 31.78125 6.390625 
Q 39.453125 6.390625 43.28125 13.890625 
Q 47.125 21.390625 47.125 36.375 
Q 47.125 51.421875 43.28125 58.90625 
Q 39.453125 66.40625 31.78125 66.40625 
z
M 31.78125 74.21875 
Q 44.046875 74.21875 50.515625 64.515625 
Q 56.984375 54.828125 56.984375 36.375 
Q 56.984375 17.96875 50.515625 8.265625 
Q 44.046875 -1.421875 31.78125 -1.421875 
Q 19.53125 -1.421875 13.0625 8.265625 
Q 6.59375 17.96875 6.59375 36.375 
Q 6.59375 54.828125 13.0625 64.515625 
Q 19.53125 74.21875 31.78125 74.21875 
z
" id="DejaVuSans-48"/>
      </defs>
      <g transform="translate(70.651477 322.182437)scale(0.1 -0.1)">
       <use xlink:href="#DejaVuSans-48"/>
      </g>
     </g>
    </g>
    <g id="xtick_2">
     <g id="line2d_2">
      <g>
       <use style="stroke:#000000;stroke-width:0.8;" x="138.622395" xlink:href="#mf5eb86e819" y="307.584"/>
      </g>
     </g>
     <g id="text_2">
      <!-- 50 -->
      <defs>
       <path d="M 10.796875 72.90625 
L 49.515625 72.90625 
L 49.515625 64.59375 
L 19.828125 64.59375 
L 19.828125 46.734375 
Q 21.96875 47.46875 24.109375 47.828125 
Q 26.265625 48.1875 28.421875 48.1875 
Q 40.625 48.1875 47.75 41.5 
Q 54.890625 34.8125 54.890625 23.390625 
Q 54.890625 11.625 47.5625 5.09375 
Q 40.234375 -1.421875 26.90625 -1.421875 
Q 22.3125 -1.421875 17.546875 -0.640625 
Q 12.796875 0.140625 7.71875 1.703125 
L 7.71875 11.625 
Q 12.109375 9.234375 16.796875 8.0625 
Q 21.484375 6.890625 26.703125 6.890625 
Q 35.15625 6.890625 40.078125 11.328125 
Q 45.015625 15.765625 45.015625 23.390625 
Q 45.015625 31 40.078125 35.4375 
Q 35.15625 39.890625 26.703125 39.890625 
Q 22.75 39.890625 18.8125 39.015625 
Q 14.890625 38.140625 10.796875 36.28125 
z
" id="DejaVuSans-53"/>
      </defs>
      <g transform="translate(132.259895 322.182437)scale(0.1 -0.1)">
       <use xlink:href="#DejaVuSans-53"/>
       <use x="63.623047" xlink:href="#DejaVuSans-48"/>
      </g>
     </g>
    </g>
    <g id="xtick_3">
     <g id="line2d_3">
      <g>
       <use style="stroke:#000000;stroke-width:0.8;" x="203.412062" xlink:href="#mf5eb86e819" y="307.584"/>
      </g>
     </g>
     <g id="text_3">
      <!-- 100 -->
      <defs>
       <path d="M 12.40625 8.296875 
L 28.515625 8.296875 
L 28.515625 63.921875 
L 10.984375 60.40625 
L 10.984375 69.390625 
L 28.421875 72.90625 
L 38.28125 72.90625 
L 38.28125 8.296875 
L 54.390625 8.296875 
L 54.390625 0 
L 12.40625 0 
z
" id="DejaVuSans-49"/>
      </defs>
      <g transform="translate(193.868312 322.182437)scale(0.1 -0.1)">
       <use xlink:href="#DejaVuSans-49"/>
       <use x="63.623047" xlink:href="#DejaVuSans-48"/>
       <use x="127.246094" xlink:href="#DejaVuSans-48"/>
      </g>
     </g>
    </g>
    <g id="xtick_4">
     <g id="line2d_4">
      <g>
       <use style="stroke:#000000;stroke-width:0.8;" x="268.20173" xlink:href="#mf5eb86e819" y="307.584"/>
      </g>
     </g>
     <g id="text_4">
      <!-- 150 -->
      <g transform="translate(258.65798 322.182437)scale(0.1 -0.1)">
       <use xlink:href="#DejaVuSans-49"/>
       <use x="63.623047" xlink:href="#DejaVuSans-53"/>
       <use x="127.246094" xlink:href="#DejaVuSans-48"/>
      </g>
     </g>
    </g>
    <g id="xtick_5">
     <g id="line2d_5">
      <g>
       <use style="stroke:#000000;stroke-width:0.8;" x="332.991398" xlink:href="#mf5eb86e819" y="307.584"/>
      </g>
     </g>
     <g id="text_5">
      <!-- 200 -->
      <defs>
       <path d="M 19.1875 8.296875 
L 53.609375 8.296875 
L 53.609375 0 
L 7.328125 0 
L 7.328125 8.296875 
Q 12.9375 14.109375 22.625 23.890625 
Q 32.328125 33.6875 34.8125 36.53125 
Q 39.546875 41.84375 41.421875 45.53125 
Q 43.3125 49.21875 43.3125 52.78125 
Q 43.3125 58.59375 39.234375 62.25 
Q 35.15625 65.921875 28.609375 65.921875 
Q 23.96875 65.921875 18.8125 64.3125 
Q 13.671875 62.703125 7.8125 59.421875 
L 7.8125 69.390625 
Q 13.765625 71.78125 18.9375 73 
Q 24.125 74.21875 28.421875 74.21875 
Q 39.75 74.21875 46.484375 68.546875 
Q 53.21875 62.890625 53.21875 53.421875 
Q 53.21875 48.921875 51.53125 44.890625 
Q 49.859375 40.875 45.40625 35.40625 
Q 44.1875 33.984375 37.640625 27.21875 
Q 31.109375 20.453125 19.1875 8.296875 
z
" id="DejaVuSans-50"/>
      </defs>
      <g transform="translate(323.447648 322.182437)scale(0.1 -0.1)">
       <use xlink:href="#DejaVuSans-50"/>
       <use x="63.623047" xlink:href="#DejaVuSans-48"/>
       <use x="127.246094" xlink:href="#DejaVuSans-48"/>
      </g>
     </g>
    </g>
    <g id="xtick_6">
     <g id="line2d_6">
      <g>
       <use style="stroke:#000000;stroke-width:0.8;" x="397.781065" xlink:href="#mf5eb86e819" y="307.584"/>
      </g>
     </g>
     <g id="text_6">
      <!-- 250 -->
      <g transform="translate(388.237315 322.182437)scale(0.1 -0.1)">
       <use xlink:href="#DejaVuSans-50"/>
       <use x="63.623047" xlink:href="#DejaVuSans-53"/>
       <use x="127.246094" xlink:href="#DejaVuSans-48"/>
      </g>
     </g>
    </g>
    <g id="text_7">
     <!-- Time (in seconds) -->
     <defs>
      <path d="M -0.296875 72.90625 
L 61.375 72.90625 
L 61.375 64.59375 
L 35.5 64.59375 
L 35.5 0 
L 25.59375 0 
L 25.59375 64.59375 
L -0.296875 64.59375 
z
" id="DejaVuSans-84"/>
      <path d="M 9.421875 54.6875 
L 18.40625 54.6875 
L 18.40625 0 
L 9.421875 0 
z
M 9.421875 75.984375 
L 18.40625 75.984375 
L 18.40625 64.59375 
L 9.421875 64.59375 
z
" id="DejaVuSans-105"/>
      <path d="M 52 44.1875 
Q 55.375 50.25 60.0625 53.125 
Q 64.75 56 71.09375 56 
Q 79.640625 56 84.28125 50.015625 
Q 88.921875 44.046875 88.921875 33.015625 
L 88.921875 0 
L 79.890625 0 
L 79.890625 32.71875 
Q 79.890625 40.578125 77.09375 44.375 
Q 74.3125 48.1875 68.609375 48.1875 
Q 61.625 48.1875 57.5625 43.546875 
Q 53.515625 38.921875 53.515625 30.90625 
L 53.515625 0 
L 44.484375 0 
L 44.484375 32.71875 
Q 44.484375 40.625 41.703125 44.40625 
Q 38.921875 48.1875 33.109375 48.1875 
Q 26.21875 48.1875 22.15625 43.53125 
Q 18.109375 38.875 18.109375 30.90625 
L 18.109375 0 
L 9.078125 0 
L 9.078125 54.6875 
L 18.109375 54.6875 
L 18.109375 46.1875 
Q 21.1875 51.21875 25.484375 53.609375 
Q 29.78125 56 35.6875 56 
Q 41.65625 56 45.828125 52.96875 
Q 50 49.953125 52 44.1875 
z
" id="DejaVuSans-109"/>
      <path d="M 56.203125 29.59375 
L 56.203125 25.203125 
L 14.890625 25.203125 
Q 15.484375 15.921875 20.484375 11.0625 
Q 25.484375 6.203125 34.421875 6.203125 
Q 39.59375 6.203125 44.453125 7.46875 
Q 49.3125 8.734375 54.109375 11.28125 
L 54.109375 2.78125 
Q 49.265625 0.734375 44.1875 -0.34375 
Q 39.109375 -1.421875 33.890625 -1.421875 
Q 20.796875 -1.421875 13.15625 6.1875 
Q 5.515625 13.8125 5.515625 26.8125 
Q 5.515625 40.234375 12.765625 48.109375 
Q 20.015625 56 32.328125 56 
Q 43.359375 56 49.78125 48.890625 
Q 56.203125 41.796875 56.203125 29.59375 
z
M 47.21875 32.234375 
Q 47.125 39.59375 43.09375 43.984375 
Q 39.0625 48.390625 32.421875 48.390625 
Q 24.90625 48.390625 20.390625 44.140625 
Q 15.875 39.890625 15.1875 32.171875 
z
" id="DejaVuSans-101"/>
      <path id="DejaVuSans-32"/>
      <path d="M 31 75.875 
Q 24.46875 64.65625 21.28125 53.65625 
Q 18.109375 42.671875 18.109375 31.390625 
Q 18.109375 20.125 21.3125 9.0625 
Q 24.515625 -2 31 -13.1875 
L 23.1875 -13.1875 
Q 15.875 -1.703125 12.234375 9.375 
Q 8.59375 20.453125 8.59375 31.390625 
Q 8.59375 42.28125 12.203125 53.3125 
Q 15.828125 64.359375 23.1875 75.875 
z
" id="DejaVuSans-40"/>
      <path d="M 54.890625 33.015625 
L 54.890625 0 
L 45.90625 0 
L 45.90625 32.71875 
Q 45.90625 40.484375 42.875 44.328125 
Q 39.84375 48.1875 33.796875 48.1875 
Q 26.515625 48.1875 22.3125 43.546875 
Q 18.109375 38.921875 18.109375 30.90625 
L 18.109375 0 
L 9.078125 0 
L 9.078125 54.6875 
L 18.109375 54.6875 
L 18.109375 46.1875 
Q 21.34375 51.125 25.703125 53.5625 
Q 30.078125 56 35.796875 56 
Q 45.21875 56 50.046875 50.171875 
Q 54.890625 44.34375 54.890625 33.015625 
z
" id="DejaVuSans-110"/>
      <path d="M 44.28125 53.078125 
L 44.28125 44.578125 
Q 40.484375 46.53125 36.375 47.5 
Q 32.28125 48.484375 27.875 48.484375 
Q 21.1875 48.484375 17.84375 46.4375 
Q 14.5 44.390625 14.5 40.28125 
Q 14.5 37.15625 16.890625 35.375 
Q 19.28125 33.59375 26.515625 31.984375 
L 29.59375 31.296875 
Q 39.15625 29.25 43.1875 25.515625 
Q 47.21875 21.78125 47.21875 15.09375 
Q 47.21875 7.46875 41.1875 3.015625 
Q 35.15625 -1.421875 24.609375 -1.421875 
Q 20.21875 -1.421875 15.453125 -0.5625 
Q 10.6875 0.296875 5.421875 2 
L 5.421875 11.28125 
Q 10.40625 8.6875 15.234375 7.390625 
Q 20.0625 6.109375 24.8125 6.109375 
Q 31.15625 6.109375 34.5625 8.28125 
Q 37.984375 10.453125 37.984375 14.40625 
Q 37.984375 18.0625 35.515625 20.015625 
Q 33.0625 21.96875 24.703125 23.78125 
L 21.578125 24.515625 
Q 13.234375 26.265625 9.515625 29.90625 
Q 5.8125 33.546875 5.8125 39.890625 
Q 5.8125 47.609375 11.28125 51.796875 
Q 16.75 56 26.8125 56 
Q 31.78125 56 36.171875 55.265625 
Q 40.578125 54.546875 44.28125 53.078125 
z
" id="DejaVuSans-115"/>
      <path d="M 48.78125 52.59375 
L 48.78125 44.1875 
Q 44.96875 46.296875 41.140625 47.34375 
Q 37.3125 48.390625 33.40625 48.390625 
Q 24.65625 48.390625 19.8125 42.84375 
Q 14.984375 37.3125 14.984375 27.296875 
Q 14.984375 17.28125 19.8125 11.734375 
Q 24.65625 6.203125 33.40625 6.203125 
Q 37.3125 6.203125 41.140625 7.25 
Q 44.96875 8.296875 48.78125 10.40625 
L 48.78125 2.09375 
Q 45.015625 0.34375 40.984375 -0.53125 
Q 36.96875 -1.421875 32.421875 -1.421875 
Q 20.0625 -1.421875 12.78125 6.34375 
Q 5.515625 14.109375 5.515625 27.296875 
Q 5.515625 40.671875 12.859375 48.328125 
Q 20.21875 56 33.015625 56 
Q 37.15625 56 41.109375 55.140625 
Q 45.0625 54.296875 48.78125 52.59375 
z
" id="DejaVuSans-99"/>
      <path d="M 30.609375 48.390625 
Q 23.390625 48.390625 19.1875 42.75 
Q 14.984375 37.109375 14.984375 27.296875 
Q 14.984375 17.484375 19.15625 11.84375 
Q 23.34375 6.203125 30.609375 6.203125 
Q 37.796875 6.203125 41.984375 11.859375 
Q 46.1875 17.53125 46.1875 27.296875 
Q 46.1875 37.015625 41.984375 42.703125 
Q 37.796875 48.390625 30.609375 48.390625 
z
M 30.609375 56 
Q 42.328125 56 49.015625 48.375 
Q 55.71875 40.765625 55.71875 27.296875 
Q 55.71875 13.875 49.015625 6.21875 
Q 42.328125 -1.421875 30.609375 -1.421875 
Q 18.84375 -1.421875 12.171875 6.21875 
Q 5.515625 13.875 5.515625 27.296875 
Q 5.515625 40.765625 12.171875 48.375 
Q 18.84375 56 30.609375 56 
z
" id="DejaVuSans-111"/>
      <path d="M 45.40625 46.390625 
L 45.40625 75.984375 
L 54.390625 75.984375 
L 54.390625 0 
L 45.40625 0 
L 45.40625 8.203125 
Q 42.578125 3.328125 38.25 0.953125 
Q 33.9375 -1.421875 27.875 -1.421875 
Q 17.96875 -1.421875 11.734375 6.484375 
Q 5.515625 14.40625 5.515625 27.296875 
Q 5.515625 40.1875 11.734375 48.09375 
Q 17.96875 56 27.875 56 
Q 33.9375 56 38.25 53.625 
Q 42.578125 51.265625 45.40625 46.390625 
z
M 14.796875 27.296875 
Q 14.796875 17.390625 18.875 11.75 
Q 22.953125 6.109375 30.078125 6.109375 
Q 37.203125 6.109375 41.296875 11.75 
Q 45.40625 17.390625 45.40625 27.296875 
Q 45.40625 37.203125 41.296875 42.84375 
Q 37.203125 48.484375 30.078125 48.484375 
Q 22.953125 48.484375 18.875 42.84375 
Q 14.796875 37.203125 14.796875 27.296875 
z
" id="DejaVuSans-100"/>
      <path d="M 8.015625 75.875 
L 15.828125 75.875 
Q 23.140625 64.359375 26.78125 53.3125 
Q 30.421875 42.28125 30.421875 31.390625 
Q 30.421875 20.453125 26.78125 9.375 
Q 23.140625 -1.703125 15.828125 -13.1875 
L 8.015625 -13.1875 
Q 14.5 -2 17.703125 9.0625 
Q 20.90625 20.125 20.90625 31.390625 
Q 20.90625 42.671875 17.703125 53.65625 
Q 14.5 64.65625 8.015625 75.875 
z
" id="DejaVuSans-41"/>
     </defs>
     <g transform="translate(191.6975 335.860562)scale(0.1 -0.1)">
      <use xlink:href="#DejaVuSans-84"/>
      <use x="61.037109" xlink:href="#DejaVuSans-105"/>
      <use x="88.820312" xlink:href="#DejaVuSans-109"/>
      <use x="186.232422" xlink:href="#DejaVuSans-101"/>
      <use x="247.755859" xlink:href="#DejaVuSans-32"/>
      <use x="279.542969" xlink:href="#DejaVuSans-40"/>
      <use x="318.556641" xlink:href="#DejaVuSans-105"/>
      <use x="346.339844" xlink:href="#DejaVuSans-110"/>
      <use x="409.71875" xlink:href="#DejaVuSans-32"/>
      <use x="441.505859" xlink:href="#DejaVuSans-115"/>
      <use x="493.605469" xlink:href="#DejaVuSans-101"/>
      <use x="555.128906" xlink:href="#DejaVuSans-99"/>
      <use x="610.109375" xlink:href="#DejaVuSans-111"/>
      <use x="671.291016" xlink:href="#DejaVuSans-110"/>
      <use x="734.669922" xlink:href="#DejaVuSans-100"/>
      <use x="798.146484" xlink:href="#DejaVuSans-115"/>
      <use x="850.246094" xlink:href="#DejaVuSans-41"/>
     </g>
    </g>
   </g>
   <g id="matplotlib.axis_2">
    <g id="ytick_1">
     <g id="line2d_7">
      <defs>
       <path d="M 0 0 
L -3.5 0 
" id="m4f7f188061" style="stroke:#000000;stroke-width:0.8;"/>
      </defs>
      <g>
       <use style="stroke:#000000;stroke-width:0.8;" x="57.6" xlink:href="#m4f7f188061" y="303.854949"/>
      </g>
     </g>
     <g id="text_8">
      <!-- −2 -->
      <defs>
       <path d="M 10.59375 35.5 
L 73.1875 35.5 
L 73.1875 27.203125 
L 10.59375 27.203125 
z
" id="DejaVuSans-8722"/>
      </defs>
      <g transform="translate(35.857813 307.654168)scale(0.1 -0.1)">
       <use xlink:href="#DejaVuSans-8722"/>
       <use x="83.789062" xlink:href="#DejaVuSans-50"/>
      </g>
     </g>
    </g>
    <g id="ytick_2">
     <g id="line2d_8">
      <g>
       <use style="stroke:#000000;stroke-width:0.8;" x="57.6" xlink:href="#m4f7f188061" y="261.456956"/>
      </g>
     </g>
     <g id="text_9">
      <!-- 0 -->
      <g transform="translate(44.2375 265.256175)scale(0.1 -0.1)">
       <use xlink:href="#DejaVuSans-48"/>
      </g>
     </g>
    </g>
    <g id="ytick_3">
     <g id="line2d_9">
      <g>
       <use style="stroke:#000000;stroke-width:0.8;" x="57.6" xlink:href="#m4f7f188061" y="219.058963"/>
      </g>
     </g>
     <g id="text_10">
      <!-- 2 -->
      <g transform="translate(44.2375 222.858182)scale(0.1 -0.1)">
       <use xlink:href="#DejaVuSans-50"/>
      </g>
     </g>
    </g>
    <g id="ytick_4">
     <g id="line2d_10">
      <g>
       <use style="stroke:#000000;stroke-width:0.8;" x="57.6" xlink:href="#m4f7f188061" y="176.66097"/>
      </g>
     </g>
     <g id="text_11">
      <!-- 4 -->
      <defs>
       <path d="M 37.796875 64.3125 
L 12.890625 25.390625 
L 37.796875 25.390625 
z
M 35.203125 72.90625 
L 47.609375 72.90625 
L 47.609375 25.390625 
L 58.015625 25.390625 
L 58.015625 17.1875 
L 47.609375 17.1875 
L 47.609375 0 
L 37.796875 0 
L 37.796875 17.1875 
L 4.890625 17.1875 
L 4.890625 26.703125 
z
" id="DejaVuSans-52"/>
      </defs>
      <g transform="translate(44.2375 180.460189)scale(0.1 -0.1)">
       <use xlink:href="#DejaVuSans-52"/>
      </g>
     </g>
    </g>
    <g id="ytick_5">
     <g id="line2d_11">
      <g>
       <use style="stroke:#000000;stroke-width:0.8;" x="57.6" xlink:href="#m4f7f188061" y="134.262977"/>
      </g>
     </g>
     <g id="text_12">
      <!-- 6 -->
      <defs>
       <path d="M 33.015625 40.375 
Q 26.375 40.375 22.484375 35.828125 
Q 18.609375 31.296875 18.609375 23.390625 
Q 18.609375 15.53125 22.484375 10.953125 
Q 26.375 6.390625 33.015625 6.390625 
Q 39.65625 6.390625 43.53125 10.953125 
Q 47.40625 15.53125 47.40625 23.390625 
Q 47.40625 31.296875 43.53125 35.828125 
Q 39.65625 40.375 33.015625 40.375 
z
M 52.59375 71.296875 
L 52.59375 62.3125 
Q 48.875 64.0625 45.09375 64.984375 
Q 41.3125 65.921875 37.59375 65.921875 
Q 27.828125 65.921875 22.671875 59.328125 
Q 17.53125 52.734375 16.796875 39.40625 
Q 19.671875 43.65625 24.015625 45.921875 
Q 28.375 48.1875 33.59375 48.1875 
Q 44.578125 48.1875 50.953125 41.515625 
Q 57.328125 34.859375 57.328125 23.390625 
Q 57.328125 12.15625 50.6875 5.359375 
Q 44.046875 -1.421875 33.015625 -1.421875 
Q 20.359375 -1.421875 13.671875 8.265625 
Q 6.984375 17.96875 6.984375 36.375 
Q 6.984375 53.65625 15.1875 63.9375 
Q 23.390625 74.21875 37.203125 74.21875 
Q 40.921875 74.21875 44.703125 73.484375 
Q 48.484375 72.75 52.59375 71.296875 
z
" id="DejaVuSans-54"/>
      </defs>
      <g transform="translate(44.2375 138.062196)scale(0.1 -0.1)">
       <use xlink:href="#DejaVuSans-54"/>
      </g>
     </g>
    </g>
    <g id="ytick_6">
     <g id="line2d_12">
      <g>
       <use style="stroke:#000000;stroke-width:0.8;" x="57.6" xlink:href="#m4f7f188061" y="91.864984"/>
      </g>
     </g>
     <g id="text_13">
      <!-- 8 -->
      <defs>
       <path d="M 31.78125 34.625 
Q 24.75 34.625 20.71875 30.859375 
Q 16.703125 27.09375 16.703125 20.515625 
Q 16.703125 13.921875 20.71875 10.15625 
Q 24.75 6.390625 31.78125 6.390625 
Q 38.8125 6.390625 42.859375 10.171875 
Q 46.921875 13.96875 46.921875 20.515625 
Q 46.921875 27.09375 42.890625 30.859375 
Q 38.875 34.625 31.78125 34.625 
z
M 21.921875 38.8125 
Q 15.578125 40.375 12.03125 44.71875 
Q 8.5 49.078125 8.5 55.328125 
Q 8.5 64.0625 14.71875 69.140625 
Q 20.953125 74.21875 31.78125 74.21875 
Q 42.671875 74.21875 48.875 69.140625 
Q 55.078125 64.0625 55.078125 55.328125 
Q 55.078125 49.078125 51.53125 44.71875 
Q 48 40.375 41.703125 38.8125 
Q 48.828125 37.15625 52.796875 32.3125 
Q 56.78125 27.484375 56.78125 20.515625 
Q 56.78125 9.90625 50.3125 4.234375 
Q 43.84375 -1.421875 31.78125 -1.421875 
Q 19.734375 -1.421875 13.25 4.234375 
Q 6.78125 9.90625 6.78125 20.515625 
Q 6.78125 27.484375 10.78125 32.3125 
Q 14.796875 37.15625 21.921875 38.8125 
z
M 18.3125 54.390625 
Q 18.3125 48.734375 21.84375 45.5625 
Q 25.390625 42.390625 31.78125 42.390625 
Q 38.140625 42.390625 41.71875 45.5625 
Q 45.3125 48.734375 45.3125 54.390625 
Q 45.3125 60.0625 41.71875 63.234375 
Q 38.140625 66.40625 31.78125 66.40625 
Q 25.390625 66.40625 21.84375 63.234375 
Q 18.3125 60.0625 18.3125 54.390625 
z
" id="DejaVuSans-56"/>
      </defs>
      <g transform="translate(44.2375 95.664202)scale(0.1 -0.1)">
       <use xlink:href="#DejaVuSans-56"/>
      </g>
     </g>
    </g>
    <g id="ytick_7">
     <g id="line2d_13">
      <g>
       <use style="stroke:#000000;stroke-width:0.8;" x="57.6" xlink:href="#m4f7f188061" y="49.466991"/>
      </g>
     </g>
     <g id="text_14">
      <!-- 10 -->
      <g transform="translate(37.875 53.266209)scale(0.1 -0.1)">
       <use xlink:href="#DejaVuSans-49"/>
       <use x="63.623047" xlink:href="#DejaVuSans-48"/>
      </g>
     </g>
    </g>
    <g id="text_15">
     <!-- Magnitude -->
     <defs>
      <path d="M 9.8125 72.90625 
L 24.515625 72.90625 
L 43.109375 23.296875 
L 61.8125 72.90625 
L 76.515625 72.90625 
L 76.515625 0 
L 66.890625 0 
L 66.890625 64.015625 
L 48.09375 14.015625 
L 38.1875 14.015625 
L 19.390625 64.015625 
L 19.390625 0 
L 9.8125 0 
z
" id="DejaVuSans-77"/>
      <path d="M 34.28125 27.484375 
Q 23.390625 27.484375 19.1875 25 
Q 14.984375 22.515625 14.984375 16.5 
Q 14.984375 11.71875 18.140625 8.90625 
Q 21.296875 6.109375 26.703125 6.109375 
Q 34.1875 6.109375 38.703125 11.40625 
Q 43.21875 16.703125 43.21875 25.484375 
L 43.21875 27.484375 
z
M 52.203125 31.203125 
L 52.203125 0 
L 43.21875 0 
L 43.21875 8.296875 
Q 40.140625 3.328125 35.546875 0.953125 
Q 30.953125 -1.421875 24.3125 -1.421875 
Q 15.921875 -1.421875 10.953125 3.296875 
Q 6 8.015625 6 15.921875 
Q 6 25.140625 12.171875 29.828125 
Q 18.359375 34.515625 30.609375 34.515625 
L 43.21875 34.515625 
L 43.21875 35.40625 
Q 43.21875 41.609375 39.140625 45 
Q 35.0625 48.390625 27.6875 48.390625 
Q 23 48.390625 18.546875 47.265625 
Q 14.109375 46.140625 10.015625 43.890625 
L 10.015625 52.203125 
Q 14.9375 54.109375 19.578125 55.046875 
Q 24.21875 56 28.609375 56 
Q 40.484375 56 46.34375 49.84375 
Q 52.203125 43.703125 52.203125 31.203125 
z
" id="DejaVuSans-97"/>
      <path d="M 45.40625 27.984375 
Q 45.40625 37.75 41.375 43.109375 
Q 37.359375 48.484375 30.078125 48.484375 
Q 22.859375 48.484375 18.828125 43.109375 
Q 14.796875 37.75 14.796875 27.984375 
Q 14.796875 18.265625 18.828125 12.890625 
Q 22.859375 7.515625 30.078125 7.515625 
Q 37.359375 7.515625 41.375 12.890625 
Q 45.40625 18.265625 45.40625 27.984375 
z
M 54.390625 6.78125 
Q 54.390625 -7.171875 48.1875 -13.984375 
Q 42 -20.796875 29.203125 -20.796875 
Q 24.46875 -20.796875 20.265625 -20.09375 
Q 16.0625 -19.390625 12.109375 -17.921875 
L 12.109375 -9.1875 
Q 16.0625 -11.328125 19.921875 -12.34375 
Q 23.78125 -13.375 27.78125 -13.375 
Q 36.625 -13.375 41.015625 -8.765625 
Q 45.40625 -4.15625 45.40625 5.171875 
L 45.40625 9.625 
Q 42.625 4.78125 38.28125 2.390625 
Q 33.9375 0 27.875 0 
Q 17.828125 0 11.671875 7.65625 
Q 5.515625 15.328125 5.515625 27.984375 
Q 5.515625 40.671875 11.671875 48.328125 
Q 17.828125 56 27.875 56 
Q 33.9375 56 38.28125 53.609375 
Q 42.625 51.21875 45.40625 46.390625 
L 45.40625 54.6875 
L 54.390625 54.6875 
z
" id="DejaVuSans-103"/>
      <path d="M 18.3125 70.21875 
L 18.3125 54.6875 
L 36.8125 54.6875 
L 36.8125 47.703125 
L 18.3125 47.703125 
L 18.3125 18.015625 
Q 18.3125 11.328125 20.140625 9.421875 
Q 21.96875 7.515625 27.59375 7.515625 
L 36.8125 7.515625 
L 36.8125 0 
L 27.59375 0 
Q 17.1875 0 13.234375 3.875 
Q 9.28125 7.765625 9.28125 18.015625 
L 9.28125 47.703125 
L 2.6875 47.703125 
L 2.6875 54.6875 
L 9.28125 54.6875 
L 9.28125 70.21875 
z
" id="DejaVuSans-116"/>
      <path d="M 8.5 21.578125 
L 8.5 54.6875 
L 17.484375 54.6875 
L 17.484375 21.921875 
Q 17.484375 14.15625 20.5 10.265625 
Q 23.53125 6.390625 29.59375 6.390625 
Q 36.859375 6.390625 41.078125 11.03125 
Q 45.3125 15.671875 45.3125 23.6875 
L 45.3125 54.6875 
L 54.296875 54.6875 
L 54.296875 0 
L 45.3125 0 
L 45.3125 8.40625 
Q 42.046875 3.421875 37.71875 1 
Q 33.40625 -1.421875 27.6875 -1.421875 
Q 18.265625 -1.421875 13.375 4.4375 
Q 8.5 10.296875 8.5 21.578125 
z
M 31.109375 56 
z
" id="DejaVuSans-117"/>
     </defs>
     <g transform="translate(29.778125 201.017844)rotate(-90)scale(0.1 -0.1)">
      <use xlink:href="#DejaVuSans-77"/>
      <use x="86.279297" xlink:href="#DejaVuSans-97"/>
      <use x="147.558594" xlink:href="#DejaVuSans-103"/>
      <use x="211.035156" xlink:href="#DejaVuSans-110"/>
      <use x="274.414062" xlink:href="#DejaVuSans-105"/>
      <use x="302.197266" xlink:href="#DejaVuSans-116"/>
      <use x="341.40625" xlink:href="#DejaVuSans-117"/>
      <use x="404.785156" xlink:href="#DejaVuSans-100"/>
      <use x="468.261719" xlink:href="#DejaVuSans-101"/>
     </g>
    </g>
   </g>
   <g id="line2d_14">
    <path clip-path="url(#p37dd2c5f96)" d="M 73.832727 54.339983 
L 90.319106 54.264451 
L 90.854269 54.50561 
L 91.379065 54.367011 
L 91.638224 54.446508 
L 92.170795 54.268415 
L 92.703366 54.187477 
L 92.976778 54.202359 
L 93.229458 53.964972 
L 93.758142 54.0093 
L 94.036737 54.022952 
L 94.569308 54.44761 
L 95.107063 53.710563 
L 95.635746 54.059054 
L 95.889722 54.060198 
L 96.170909 54.202083 
L 96.42618 54.508599 
L 96.957455 54.27893 
L 97.233459 54.54025 
L 98.020006 54.394294 
L 98.83506 54.357175 
L 99.090331 54.31395 
L 99.368927 54.406145 
L 101.484957 54.122693 
L 101.750595 54.197907 
L 102.2728 54.053457 
L 102.555283 53.920539 
L 102.815737 54.030541 
L 103.087854 53.926348 
L 103.61265 54.100816 
L 104.679088 53.979981 
L 104.92788 54.059393 
L 105.20518 53.924684 
L 105.45786 54.067395 
L 107.597215 54.040632 
L 107.873219 54.281134 
L 109.188449 54.347826 
L 110.006095 54.0581 
L 110.775796 54.032004 
L 111.309663 54.250099 
L 111.586962 54.371166 
L 111.840938 54.799683 
L 112.903488 54.729535 
L 113.180788 54.93578 
L 113.438651 54.767609 
L 113.713359 54.973091 
L 114.502497 54.485408 
L 114.779797 54.532024 
L 115.308481 54.391835 
L 115.563752 54.523312 
L 115.841052 54.309032 
L 116.371032 54.347953 
L 116.903603 54.383865 
L 117.156282 54.217283 
L 117.97004 54.234348 
L 118.224016 54.168186 
L 118.50909 54.360567 
L 119.036478 54.3958 
L 119.287862 54.658286 
L 119.816546 54.585658 
L 120.347821 54.686183 
L 120.888167 54.309795 
L 121.420738 54.166193 
L 121.694151 54.279915 
L 122.231905 54.084386 
L 122.759293 54.201468 
L 124.071931 54.426994 
L 124.350527 54.515214 
L 124.614869 54.331545 
L 124.893464 54.468194 
L 125.143552 54.419585 
L 125.426035 54.484168 
L 125.665757 54.319865 
L 126.20092 54.455051 
L 126.47822 54.368262 
L 127.015974 54.525855 
L 127.539474 54.720261 
L 128.608504 54.684042 
L 129.388572 54.827284 
L 131.266176 55.030794 
L 131.516264 55.204679 
L 131.793564 55.053414 
L 132.324839 55.507411 
L 132.581406 55.350263 
L 133.112681 55.420898 
L 133.643957 55.750098 
L 134.176528 55.847401 
L 134.457715 56.378097 
L 134.707803 55.97027 
L 134.985103 56.192457 
L 135.240374 56.186352 
L 135.776833 55.467366 
L 136.051541 55.438727 
L 136.300333 55.094625 
L 136.832904 54.781452 
L 137.1115 54.411678 
L 137.368067 54.35444 
L 137.644071 54.496686 
L 137.901934 54.260041 
L 138.431913 54.095367 
L 138.709213 53.825568 
L 139.49576 53.834811 
L 140.318588 53.862814 
L 140.834314 54.108744 
L 141.366885 54.041225 
L 142.153432 54.420263 
L 142.434619 54.559117 
L 143.221166 54.594561 
L 143.498465 54.650188 
L 143.747257 54.586209 
L 144.558424 54.667232 
L 145.877542 54.663776 
L 146.951755 54.489966 
L 147.477847 54.178573 
L 152.004053 54.074953 
L 153.069195 54.180799 
L 154.918292 54.413988 
L 155.194296 54.371251 
L 155.982139 54.548761 
L 156.265917 54.542136 
L 156.521188 54.724236 
L 157.044689 54.382105 
L 157.582443 54.453779 
L 158.384539 54.230914 
L 158.641107 53.911021 
L 158.93266 53.988482 
L 159.16979 53.784209 
L 159.453569 53.888698 
L 159.714023 53.737486 
L 160.763616 53.709111 
L 162.106058 53.824487 
L 162.360033 53.886133 
L 162.638629 53.821985 
L 163.172496 53.948925 
L 164.235046 53.926263 
L 164.771505 53.927959 
L 165.02548 53.874198 
L 165.305372 53.987655 
L 165.554164 53.841446 
L 166.093214 54.002155 
L 166.373105 54.258282 
L 166.615419 54.135116 
L 166.904381 54.333665 
L 167.153173 54.247279 
L 167.690927 54.339919 
L 168.503389 54.22996 
L 169.555574 54.406887 
L 169.810845 54.305238 
L 170.615533 54.560664 
L 170.885058 54.593258 
L 171.154583 54.74694 
L 171.420221 54.762924 
L 171.679379 54.621018 
L 172.214542 54.68542 
L 172.748409 54.314353 
L 173.534955 54.210881 
L 174.064935 54.236108 
L 175.406081 54.189533 
L 175.941243 54.130664 
L 177.007681 54.259511 
L 178.084486 54.581047 
L 178.317728 54.559286 
L 179.126304 54.84331 
L 179.390645 54.816536 
L 179.915442 55.031367 
L 180.191445 54.959057 
L 180.448013 55.008302 
L 180.972809 54.680523 
L 182.574409 54.249145 
L 183.104389 54.638549 
L 183.910373 54.450599 
L 184.449422 54.321349 
L 184.703398 53.990008 
L 185.233377 53.794617 
L 186.571932 53.818403 
L 189.76995 53.959037 
L 194.805403 53.692035 
L 199.334201 53.933365 
L 202.53481 54.59931 
L 202.777124 54.833453 
L 203.308399 54.929294 
L 203.844858 55.254423 
L 204.650841 55.089452 
L 204.906112 55.205029 
L 205.186004 55.091826 
L 205.97255 54.533975 
L 206.505121 54.280965 
L 207.846267 53.917084 
L 208.096355 53.989076 
L 208.628927 53.97112 
L 209.691477 53.973643 
L 210.225344 54.22642 
L 210.501348 54.127166 
L 210.754028 54.334831 
L 211.28919 54.253279 
L 211.820466 54.269454 
L 212.099061 54.133632 
L 212.350445 54.25966 
L 212.631632 54.131787 
L 212.88172 54.284696 
L 213.415587 54.163565 
L 213.695479 54.28849 
L 213.945567 54.071794 
L 214.225458 54.258006 
L 214.482025 54.258027 
L 215.0133 54.382253 
L 216.60583 54.107324 
L 216.884426 53.836846 
L 217.428659 53.936121 
L 217.678747 53.839856 
L 218.734819 54.124474 
L 219.016006 54.077751 
L 219.264798 54.219615 
L 219.549873 54.215969 
L 220.085036 54.459842 
L 220.337715 54.394422 
L 220.605945 54.492149 
L 220.862512 54.356751 
L 221.135924 54.546715 
L 221.923766 54.174747 
L 222.732341 54.131575 
L 222.986317 53.913035 
L 223.266208 54.046165 
L 223.517592 54.020514 
L 223.800075 53.860864 
L 225.395197 54.061767 
L 225.649172 54.289041 
L 226.185631 54.319038 
L 226.713019 54.310919 
L 227.529368 54.194282 
L 227.779457 54.289402 
L 228.314619 53.906696 
L 228.848486 54.270874 
L 229.12449 54.055598 
L 232.028363 54.325949 
L 233.097392 54.079532 
L 233.369509 54.067448 
L 234.158647 54.398619 
L 234.686035 54.838975 
L 234.968518 54.832987 
L 235.221198 55.214462 
L 235.753769 55.017609 
L 236.287636 54.363747 
L 236.821502 54.048496 
L 237.096211 54.215757 
L 237.34889 54.069695 
L 237.627486 54.151375 
L 237.884053 54.012055 
L 238.157466 54.115591 
L 238.411441 53.963488 
L 238.688741 54.182771 
L 238.944012 54.075843 
L 239.21872 54.373837 
L 239.476583 54.187435 
L 239.752587 54.128459 
L 240.01045 54.251943 
L 240.286454 54.223897 
L 240.543021 54.386493 
L 240.817729 54.428192 
L 241.069113 54.352257 
L 241.346413 54.407713 
L 241.60298 54.201214 
L 242.669418 54.250608 
L 242.949309 54.421535 
L 243.199397 54.360185 
L 243.729377 54.613852 
L 244.01186 54.378035 
L 244.539248 54.564247 
L 245.073115 54.402138 
L 245.328386 54.407523 
L 245.85707 54.117202 
L 246.139552 54.26002 
L 246.392232 54.10266 
L 247.200807 54.036752 
L 248.263358 53.981062 
L 248.516038 54.173613 
L 248.792041 54.125958 
L 249.048609 54.233882 
L 249.334979 54.091636 
L 250.391051 54.571942 
L 250.924917 54.486065 
L 251.189259 54.511218 
L 251.717943 54.185781 
L 251.99913 54.127823 
L 252.514856 54.296567 
L 253.051314 54.296906 
L 253.582589 54.249845 
L 254.111273 54.211983 
L 256.240262 54.32243 
L 256.491646 54.175924 
L 256.770241 54.280689 
L 257.305404 54.027531 
L 257.555492 54.370467 
L 258.364067 54.316982 
L 258.616747 54.145312 
L 259.154501 54.231444 
L 260.504717 54.148386 
L 261.280898 54.172193 
L 262.088177 54.210605 
L 262.344744 54.113652 
L 263.159798 54.243718 
L 263.405999 54.116588 
L 263.94764 54.07313 
L 264.231419 54.356497 
L 264.753624 54.22254 
L 265.014078 54.296101 
L 265.534987 54.143235 
L 266.066263 54.217728 
L 266.342267 54.341869 
L 267.128813 54.353359 
L 267.413888 54.643785 
L 267.665272 54.67586 
L 268.730414 55.178064 
L 269.005122 55.164009 
L 269.262985 55.007942 
L 269.538989 55.063229 
L 269.786485 54.90943 
L 270.066377 54.908264 
L 270.319056 54.795485 
L 270.601539 54.917698 
L 271.128927 55.548537 
L 271.381607 55.467176 
L 272.445453 54.309922 
L 273.517074 53.998488 
L 274.853038 53.895503 
L 275.384313 53.765087 
L 276.700839 53.751181 
L 277.239889 53.922702 
L 277.769868 54.119852 
L 278.043281 54.14987 
L 279.116198 54.927831 
L 279.637106 55.031261 
L 280.170973 54.305174 
L 280.973069 54.064904 
L 282.552641 53.984306 
L 294.786227 53.929549 
L 296.126077 53.924101 
L 296.910032 54.287049 
L 297.718607 54.166024 
L 297.972582 53.988397 
L 299.044203 53.733585 
L 299.847595 53.580783 
L 300.914033 53.615655 
L 301.983063 53.696614 
L 302.523409 53.672023 
L 303.290518 53.656304 
L 304.358252 53.594181 
L 305.16294 53.745393 
L 305.949486 54.270068 
L 306.229378 54.434424 
L 306.491128 54.333899 
L 306.771019 54.432304 
L 307.015924 54.158095 
L 307.825795 54.556212 
L 308.902599 54.394082 
L 309.143617 54.773587 
L 309.685258 54.099883 
L 309.953488 54.227967 
L 310.495129 54.165239 
L 310.733555 54.25949 
L 311.013447 54.641729 
L 311.544722 53.905297 
L 311.802585 54.128099 
L 312.332564 53.978285 
L 313.145027 53.909219 
L 314.460257 53.808503 
L 314.737557 53.904449 
L 314.990236 53.859592 
L 315.524103 54.055365 
L 316.063153 53.982907 
L 316.333974 54.253639 
L 316.591837 54.124876 
L 317.397821 54.27912 
L 317.651796 54.211114 
L 317.9278 54.267842 
L 318.186959 54.129943 
L 318.720825 54.466117 
L 319.524217 54.341255 
L 320.061972 54.264959 
L 320.309468 54.003194 
L 320.593247 54.211008 
L 320.843335 54.193052 
L 321.119339 53.928468 
L 321.378498 54.051528 
L 322.719644 54.007582 
L 322.968436 54.061915 
L 323.245736 53.980257 
L 323.504895 54.076161 
L 324.309582 54.083623 
L 324.568741 54.249972 
L 325.626108 54.137977 
L 325.908591 54.255971 
L 326.158679 54.155424 
L 328.563672 54.220865 
L 328.818943 54.097721 
L 329.101426 54.109825 
L 329.350218 54.314925 
L 329.626222 53.806807 
L 330.162681 54.325631 
L 330.414065 54.036137 
L 330.693956 54.070798 
L 330.94534 54.327836 
L 331.479207 54.185781 
L 332.013074 54.235514 
L 332.290374 54.158169 
L 332.541758 54.225741 
L 332.821649 54.491259 
L 333.352924 54.415854 
L 333.604308 54.523015 
L 333.885495 54.368453 
L 334.135583 54.522824 
L 334.415475 54.298263 
L 334.668154 54.337969 
L 335.488392 54.159261 
L 336.544463 54.217092 
L 336.795847 54.313102 
L 337.329714 54.246961 
L 337.608309 54.133292 
L 337.860989 54.161402 
L 338.394856 54.477225 
L 338.677339 54.329065 
L 339.733411 54.329669 
L 340.265982 54.09859 
L 341.864991 54.02999 
L 342.930133 54.257678 
L 344.001754 55.165917 
L 344.247955 55.198574 
L 344.518775 55.381415 
L 344.772751 55.715628 
L 345.050051 55.541054 
L 345.307914 55.618791 
L 345.583917 55.503765 
L 345.840485 56.22097 
L 346.113897 55.393255 
L 346.645172 54.826924 
L 347.433015 54.683894 
L 347.974656 54.586824 
L 348.254548 54.249124 
L 349.317098 54.127018 
L 349.562003 53.868538 
L 350.905741 53.866312 
L 351.161012 54.113895 
L 353.034729 54.476843 
L 353.284817 54.333008 
L 354.344776 54.377717 
L 354.623372 54.520535 
L 354.881235 54.33127 
L 355.15983 54.495456 
L 355.416397 54.507412 
L 355.69888 54.405678 
L 355.950264 54.489584 
L 356.226268 54.447186 
L 356.476356 54.733054 
L 356.752361 54.828662 
L 357.00504 54.449136 
L 357.538907 54.644771 
L 358.071478 54.524743 
L 358.350073 54.545549 
L 358.600162 54.685738 
L 358.881349 54.567427 
L 359.662712 54.601197 
L 359.941308 54.417253 
L 360.200466 54.64245 
L 360.475175 54.722137 
L 361.2682 54.239542 
L 361.5455 54.233235 
L 361.792996 54.378777 
L 362.071592 54.728094 
L 362.324272 54.705708 
L 362.862026 54.160353 
L 363.923281 54.430736 
L 364.734447 54.02558 
L 364.984536 54.281198 
L 365.514515 54.198013 
L 365.791815 54.360376 
L 366.048382 54.154958 
L 366.326978 54.110228 
L 366.583545 54.185442 
L 366.859549 54.121591 
L 367.116116 54.227204 
L 367.397303 54.136917 
L 367.648687 53.887585 
L 368.461149 54.12617 
L 368.704758 53.993973 
L 368.983354 53.69547 
L 369.239921 54.019751 
L 369.781562 53.841425 
L 370.061454 53.725636 
L 370.303767 53.888614 
L 371.897593 53.877739 
L 372.706168 53.972583 
L 372.962735 53.844382 
L 373.237443 54.035523 
L 375.620407 54.00506 
L 375.90289 54.309138 
L 376.156866 54.091318 
L 376.434166 54.128374 
L 376.684254 54.312572 
L 376.962849 54.318773 
L 377.223304 54.126869 
L 378.027991 54.521637 
L 378.563154 54.208761 
L 378.818425 54.390733 
L 380.692143 53.977819 
L 381.224714 54.142461 
L 381.999598 54.023439 
L 382.538648 53.908689 
L 382.809469 53.937732 
L 383.062149 54.11981 
L 383.34204 54.011017 
L 385.189841 54.331312 
L 386.007487 54.771764 
L 386.538762 54.933173 
L 388.131292 56.369023 
L 388.382676 55.568804 
L 389.200322 55.228676 
L 389.449114 54.650972 
L 389.986868 54.190954 
L 390.788964 54.044765 
L 393.446636 54.008346 
L 398.487273 54.008664 
L 398.487273 54.008664 
" style="fill:none;stroke:#1f77b4;stroke-linecap:square;stroke-width:1.5;"/>
   </g>
   <g id="line2d_15">
    <path clip-path="url(#p37dd2c5f96)" d="M 73.832727 278.449256 
L 74.084111 278.400012 
L 74.365298 278.492317 
L 75.426553 278.375163 
L 76.214396 278.401026 
L 76.743079 278.373362 
L 77.021675 278.476352 
L 77.274355 278.25014 
L 77.554246 278.474499 
L 77.813404 278.454458 
L 78.092 278.276363 
L 78.35375 278.439819 
L 78.86818 278.317485 
L 79.164917 278.448702 
L 79.694896 278.332691 
L 80.215805 278.373488 
L 81.275764 278.336297 
L 81.809631 278.43267 
L 82.079156 278.321648 
L 82.356456 278.439464 
L 82.878661 278.287793 
L 83.404753 278.453247 
L 83.657432 278.370077 
L 84.188708 278.360565 
L 86.598883 278.279106 
L 87.126271 277.941732 
L 87.38543 278.06458 
L 88.718801 277.826431 
L 88.97796 278.53087 
L 89.251372 278.026289 
L 89.50794 278.505675 
L 89.786535 278.459656 
L 90.039215 278.731233 
L 90.319106 278.107485 
L 90.569194 279.084389 
L 90.854269 280.885984 
L 91.104357 279.594588 
L 91.379065 279.487767 
L 91.638224 280.468348 
L 91.91034 278.826117 
L 92.170795 278.439602 
L 92.450686 277.301733 
L 92.703366 277.270952 
L 92.976778 277.603919 
L 93.229458 274.328688 
L 93.506758 274.00524 
L 93.758142 275.011262 
L 94.036737 275.213719 
L 94.569308 280.57272 
L 95.107063 268.699063 
L 95.355855 273.116194 
L 95.635746 275.486155 
L 95.889722 275.470602 
L 96.170909 277.298619 
L 96.42618 280.459358 
L 96.698297 278.80101 
L 96.957455 277.923752 
L 97.233459 281.119831 
L 97.492618 280.381403 
L 97.767326 280.100686 
L 98.020006 279.398629 
L 98.303785 279.669523 
L 98.553873 279.361848 
L 99.090331 278.987789 
L 99.368927 279.863144 
L 99.612536 279.255567 
L 99.893723 277.730241 
L 100.143811 277.122502 
L 100.434069 277.208941 
L 100.688044 276.158692 
L 100.964048 276.121553 
L 101.207658 275.425289 
L 101.750595 277.317599 
L 102.029191 274.794769 
L 102.2728 274.855663 
L 102.555283 273.162349 
L 102.815737 275.179753 
L 103.087854 273.189082 
L 103.61265 276.358871 
L 103.876992 275.649894 
L 104.140038 275.65134 
L 104.399197 275.479483 
L 104.679088 274.299223 
L 104.92788 275.112023 
L 105.20518 272.879377 
L 105.45786 274.402988 
L 105.740343 273.674415 
L 105.990431 273.459539 
L 106.269027 272.147322 
L 106.523002 273.923813 
L 107.063348 275.364191 
L 107.597215 272.146315 
L 107.873219 275.110941 
L 108.125898 275.539916 
L 108.398015 275.103985 
L 108.666244 273.617368 
L 108.931882 269.570046 
L 109.188449 268.953239 
L 110.006095 266.075251 
L 110.258774 270.075508 
L 110.538666 268.599487 
L 110.775796 271.029443 
L 111.054391 272.734448 
L 111.586962 278.385218 
L 111.840938 283.610444 
L 112.119533 283.975164 
L 112.372213 284.004701 
L 112.650809 284.948069 
L 112.903488 283.306105 
L 113.180788 285.206991 
L 113.438651 283.658807 
L 113.713359 285.292141 
L 114.502497 280.556264 
L 114.779797 280.751709 
L 115.032477 278.913047 
L 115.308481 278.261704 
L 115.563752 279.410494 
L 115.841052 277.415547 
L 116.093732 278.872465 
L 116.371032 279.032774 
L 116.627599 279.039094 
L 116.903603 279.771146 
L 117.156282 277.822124 
L 117.440061 278.112694 
L 117.691445 277.326176 
L 117.97004 277.421335 
L 118.224016 275.703371 
L 118.50909 277.570121 
L 118.757883 275.23577 
L 119.036478 274.111171 
L 119.287862 274.674459 
L 119.816546 270.292115 
L 120.096437 271.72256 
L 120.347821 269.63891 
L 120.627712 271.188252 
L 120.888167 271.476982 
L 121.165467 271.226732 
L 121.420738 272.303359 
L 121.694151 273.943201 
L 121.952013 273.70503 
L 122.231905 272.631149 
L 122.481993 273.957219 
L 122.759293 274.559363 
L 123.008085 274.639052 
L 123.297047 275.670349 
L 123.543248 275.876313 
L 123.819252 275.458407 
L 124.071931 277.792309 
L 124.350527 278.89577 
L 124.614869 276.346045 
L 124.893464 277.922637 
L 125.143552 276.913677 
L 125.426035 277.232926 
L 125.665757 273.410011 
L 125.94824 272.61936 
L 126.20092 272.828216 
L 126.47822 270.852968 
L 126.732195 272.049392 
L 127.264766 273.66625 
L 127.805112 276.726179 
L 128.07982 277.018894 
L 128.324725 276.826722 
L 129.134596 281.486265 
L 129.388572 281.765684 
L 130.201034 283.73247 
L 130.451122 283.629434 
L 130.731013 283.293161 
L 130.983693 285.433469 
L 131.266176 285.278682 
L 131.516264 286.802837 
L 131.793564 285.844911 
L 132.324839 289.576251 
L 132.581406 288.531484 
L 132.862594 289.043149 
L 133.112681 289.164151 
L 133.391277 290.805756 
L 133.643957 291.478117 
L 133.929031 291.388212 
L 134.176528 292.069092 
L 134.457715 295.488 
L 134.707803 292.915103 
L 134.985103 294.35686 
L 135.240374 294.34668 
L 135.776833 289.440467 
L 136.051541 289.136017 
L 136.300333 286.442183 
L 136.832904 283.651006 
L 137.1115 279.95592 
L 137.368067 279.340556 
L 137.644071 281.061996 
L 137.901934 278.29382 
L 138.431913 276.271237 
L 138.709213 271.790955 
L 138.96578 272.566317 
L 139.248263 271.890712 
L 139.49576 271.989563 
L 139.773059 271.538908 
L 140.025739 272.236233 
L 140.318588 272.32072 
L 140.834314 275.180883 
L 141.093473 274.431324 
L 141.366885 272.806363 
L 141.902048 274.488992 
L 142.153432 273.169795 
L 142.434619 274.522112 
L 143.221166 273.356112 
L 143.498465 274.439213 
L 143.747257 273.808326 
L 144.032332 274.763385 
L 144.283716 274.294004 
L 144.811104 275.728225 
L 145.096179 275.778024 
L 145.346267 275.979102 
L 145.632637 276.033783 
L 145.877542 275.802597 
L 146.695187 275.680053 
L 147.219984 275.729693 
L 147.477847 275.511222 
L 147.748667 275.871602 
L 148.009122 275.677775 
L 149.878952 275.758751 
L 150.131631 275.635609 
L 150.408931 275.783217 
L 150.666794 275.64657 
L 151.195478 275.738788 
L 152.004053 275.851316 
L 152.540511 276.223536 
L 153.86222 277.463203 
L 154.388313 277.627583 
L 154.670796 277.700559 
L 154.918292 278.535382 
L 155.194296 278.030845 
L 155.729459 279.970283 
L 156.265917 279.427886 
L 156.521188 281.194068 
L 157.044689 278.414496 
L 157.331059 279.59147 
L 157.582443 279.71132 
L 157.86363 279.067723 
L 158.108535 277.627553 
L 158.384539 277.706135 
L 158.641107 273.432233 
L 158.93266 274.404111 
L 159.16979 270.161059 
L 159.453569 272.261701 
L 159.714023 269.426876 
L 160.233636 268.725774 
L 160.513528 267.881575 
L 160.763616 268.960837 
L 161.042212 269.213625 
L 161.296187 267.939067 
L 161.574783 269.752621 
L 161.830054 268.597542 
L 162.106058 271.681321 
L 162.360033 272.764975 
L 162.638629 271.650211 
L 162.896492 273.233703 
L 163.172496 273.977064 
L 163.43295 273.422887 
L 163.706363 271.793027 
L 163.959042 272.890764 
L 164.235046 273.52719 
L 164.492909 273.803883 
L 164.771505 273.422067 
L 165.02548 272.366583 
L 165.305372 274.362865 
L 165.554164 271.540618 
L 166.093214 274.455138 
L 166.373105 277.842087 
L 166.615419 276.324762 
L 166.904381 278.937818 
L 167.153173 277.822155 
L 167.436952 279.360684 
L 167.690927 279.059573 
L 167.961748 278.104646 
L 168.218315 278.707387 
L 168.503389 277.132354 
L 169.280866 278.136235 
L 169.555574 277.901295 
L 169.810845 276.280264 
L 170.099807 276.930402 
L 170.346008 276.690788 
L 170.885058 273.97708 
L 171.154583 273.93063 
L 171.420221 274.389741 
L 171.679379 272.782694 
L 171.93465 273.629914 
L 172.214542 273.676942 
L 172.463334 273.061263 
L 172.748409 273.016984 
L 173.278388 274.209734 
L 173.534955 273.989522 
L 173.808368 274.225075 
L 174.064935 273.808531 
L 174.589731 275.358387 
L 174.870918 275.153615 
L 175.124894 275.753791 
L 175.406081 275.677887 
L 175.656169 275.74182 
L 176.46604 276.960416 
L 177.259065 279.457154 
L 177.527294 280.906941 
L 177.783862 281.081201 
L 178.084486 281.762129 
L 178.317728 281.341895 
L 178.846412 283.32893 
L 179.126304 283.982115 
L 179.390645 283.812468 
L 179.915442 285.940907 
L 180.191445 285.346023 
L 180.448013 285.870836 
L 182.043134 274.046531 
L 182.574409 266.92191 
L 183.104389 262.789763 
L 183.385576 262.68858 
L 183.910373 263.075581 
L 184.163052 263.382009 
L 184.449422 263.517722 
L 184.980698 267.457495 
L 185.233377 268.517061 
L 185.771132 269.098576 
L 186.571932 269.331239 
L 186.833682 269.668984 
L 187.357183 270.82006 
L 187.633187 271.282042 
L 188.16835 271.131921 
L 188.431396 271.264356 
L 188.706104 271.089548 
L 188.951009 271.562251 
L 189.242562 271.472951 
L 189.490059 271.775756 
L 189.76995 271.856033 
L 190.029109 271.502026 
L 190.306408 270.816129 
L 190.557792 270.723887 
L 190.833796 270.407041 
L 191.372847 270.698253 
L 192.152914 269.802338 
L 192.418552 270.111041 
L 192.673823 269.469679 
L 193.206394 268.931349 
L 193.48499 268.306277 
L 193.737669 268.479502 
L 194.014969 268.451882 
L 194.551427 268.868569 
L 194.805403 268.675962 
L 195.331495 267.756628 
L 195.617866 268.844284 
L 195.870545 269.14277 
L 196.158211 269.293708 
L 196.936983 270.797887 
L 197.207804 271.079201 
L 197.755924 271.177728 
L 197.993055 271.52369 
L 198.523034 271.840493 
L 198.813292 272.128165 
L 199.058197 272.710123 
L 199.869363 275.665562 
L 200.123339 276.230266 
L 200.399343 277.469639 
L 200.658502 277.940562 
L 200.934506 278.771052 
L 201.182002 278.870752 
L 201.715869 280.030565 
L 202.257511 281.937235 
L 202.53481 282.113767 
L 202.777124 284.376692 
L 203.308399 285.226598 
L 203.585699 287.062185 
L 203.844858 287.896209 
L 204.372245 286.985699 
L 204.650841 286.569114 
L 204.906112 287.503502 
L 205.186004 286.594167 
L 205.439979 284.676418 
L 205.714687 283.755831 
L 206.245963 279.737102 
L 206.779829 277.487427 
L 207.033805 277.222925 
L 207.309809 275.225096 
L 207.563784 274.718984 
L 207.846267 273.358265 
L 208.096355 274.287562 
L 208.376247 273.529995 
L 208.628927 274.316025 
L 209.160202 273.669286 
L 209.445276 274.204979 
L 209.691477 274.091412 
L 210.225344 277.847914 
L 210.501348 276.495098 
L 210.754028 279.051008 
L 211.035215 278.259012 
L 211.28919 278.276039 
L 211.569082 278.872265 
L 211.820466 278.44381 
L 212.099061 276.782071 
L 212.350445 278.214827 
L 212.631632 275.954057 
L 212.88172 277.558386 
L 213.415587 275.161771 
L 213.695479 277.204811 
L 213.945567 273.386652 
L 214.225458 276.417602 
L 214.482025 275.632859 
L 214.754142 277.16386 
L 215.0133 277.20108 
L 215.288008 276.977452 
L 215.540688 276.387557 
L 215.819284 274.718105 
L 216.60583 275.4944 
L 216.884426 271.606145 
L 217.13581 273.708668 
L 217.428659 273.856761 
L 217.678747 272.06838 
L 217.957343 273.064939 
L 218.207431 274.552072 
L 218.483435 275.354906 
L 218.734819 275.40851 
L 219.016006 274.380556 
L 219.264798 275.642619 
L 219.549873 274.419739 
L 219.798665 276.283126 
L 220.085036 276.675792 
L 220.337715 276.020777 
L 220.605945 277.005612 
L 220.862512 275.460543 
L 221.135924 277.605174 
L 221.923766 274.69273 
L 222.456337 273.959216 
L 222.732341 274.724391 
L 222.986317 271.771533 
L 223.266208 274.199029 
L 223.517592 274.407837 
L 223.800075 271.48994 
L 224.052755 271.686796 
L 224.332646 271.174828 
L 224.586622 271.361575 
L 225.121784 272.638576 
L 225.649172 277.953195 
L 225.927768 278.35673 
L 226.465522 277.490199 
L 226.713019 278.187461 
L 226.990318 278.101965 
L 227.250773 278.540162 
L 227.529368 277.325931 
L 227.779457 278.725776 
L 228.314619 273.3558 
L 228.586736 276.718492 
L 228.848486 278.564318 
L 229.12449 275.717159 
L 229.373282 276.100437 
L 229.64799 277.011129 
L 229.914924 275.75659 
L 230.192224 276.402666 
L 230.443608 276.491253 
L 230.715724 276.996026 
L 230.967108 278.281736 
L 231.25607 278.939664 
L 231.497088 277.477824 
L 232.028363 278.879351 
L 232.310846 277.710423 
L 232.576483 277.822726 
L 232.836938 274.610683 
L 233.097392 274.557983 
L 233.369509 274.046733 
L 233.622189 274.519587 
L 233.903376 276.749813 
L 234.158647 275.917538 
L 234.439834 278.79954 
L 234.686035 278.370325 
L 234.968518 277.603108 
L 235.221198 280.192704 
L 235.753769 278.701645 
L 236.821502 270.584318 
L 237.096211 274.301574 
L 237.34889 272.400888 
L 237.627486 273.781936 
L 237.884053 271.787523 
L 238.157466 274.925412 
L 238.411441 273.7344 
L 238.688741 277.130443 
L 238.944012 275.85288 
L 239.21872 279.737771 
L 239.476583 277.443889 
L 239.752587 276.712636 
L 240.01045 278.333335 
L 240.286454 277.985201 
L 240.543021 279.881178 
L 240.817729 280.003042 
L 241.069113 278.893599 
L 241.346413 278.968633 
L 241.60298 277.054456 
L 241.885463 277.620104 
L 242.132959 277.384066 
L 242.415442 278.412971 
L 242.669418 278.314154 
L 242.949309 280.28984 
L 243.199397 279.611639 
L 243.729377 282.276209 
L 244.01186 279.514211 
L 244.258061 280.979534 
L 244.539248 281.555275 
L 244.790632 280.394355 
L 245.073115 279.92863 
L 245.328386 280.023018 
L 245.603094 277.395758 
L 245.85707 276.541719 
L 246.139552 278.329192 
L 246.392232 276.338496 
L 246.673419 276.450514 
L 246.924803 275.452802 
L 247.200807 275.383551 
L 247.742449 274.108954 
L 247.989945 275.113109 
L 248.263358 274.165695 
L 248.516038 276.987788 
L 248.792041 275.808681 
L 249.048609 276.509853 
L 249.334979 273.035609 
L 249.591546 272.83337 
L 249.870141 271.423332 
L 250.391051 271.3282 
L 250.652801 269.780389 
L 250.924917 272.784588 
L 251.189259 272.376927 
L 251.458784 272.521914 
L 251.717943 271.532597 
L 251.99913 272.700533 
L 252.23626 272.853677 
L 252.514856 273.516451 
L 253.051314 274.083641 
L 253.309177 273.35615 
L 253.582589 274.312322 
L 253.839157 274.528261 
L 254.111273 274.965994 
L 254.366544 275.933179 
L 254.642548 276.31979 
L 254.896524 278.79561 
L 255.176415 280.060095 
L 255.429095 279.266472 
L 255.706395 280.222717 
L 255.961666 280.111165 
L 256.240262 279.141853 
L 256.491646 277.313494 
L 256.770241 278.664348 
L 257.305404 275.250081 
L 257.555492 279.589361 
L 257.832792 279.347033 
L 258.086767 278.630648 
L 258.364067 278.967804 
L 258.616747 276.831667 
L 258.901821 277.559599 
L 259.154501 277.698398 
L 259.430505 277.507553 
L 259.68448 276.586934 
L 259.972146 275.039248 
L 260.217052 276.168222 
L 260.504717 275.963986 
L 260.747031 276.624983 
L 261.025627 276.211818 
L 261.280898 276.440627 
L 261.555606 276.136343 
L 261.808286 275.166259 
L 262.088177 275.87998 
L 262.344744 273.014835 
L 262.624636 275.127587 
L 262.87602 274.927769 
L 263.159798 275.056389 
L 263.405999 271.898412 
L 263.702736 271.424319 
L 263.94764 269.79191 
L 264.231419 271.317401 
L 264.753624 268.951974 
L 265.014078 269.725229 
L 265.27842 269.212543 
L 265.534987 269.366991 
L 265.816174 268.054769 
L 266.066263 268.05615 
L 266.342267 269.66132 
L 266.604017 269.328553 
L 266.873542 269.165724 
L 267.413888 273.666188 
L 267.665272 273.535894 
L 267.943867 274.049543 
L 268.481622 276.68975 
L 269.005122 275.040693 
L 269.262985 274.26588 
L 269.538989 274.922597 
L 269.786485 273.333616 
L 270.066377 273.188698 
L 270.319056 270.580617 
L 270.601539 271.263344 
L 270.856811 270.312508 
L 271.128927 270.653242 
L 271.381607 272.4563 
L 271.661498 272.094538 
L 271.918065 271.422047 
L 272.192773 272.160578 
L 272.445453 272.360553 
L 272.985799 271.693539 
L 273.517074 268.23893 
L 273.789191 269.200606 
L 274.573146 267.986515 
L 274.853038 268.118533 
L 275.384313 267.27385 
L 275.636992 267.168286 
L 275.919475 267.624833 
L 276.172155 267.477511 
L 276.452046 267.520521 
L 277.239889 269.50551 
L 277.769868 272.136576 
L 278.043281 271.437198 
L 278.303735 273.22124 
L 278.833714 275.065828 
L 279.36499 276.162224 
L 279.637106 276.393413 
L 279.90404 275.725286 
L 280.170973 274.577392 
L 280.428836 274.518276 
L 280.710023 273.890562 
L 280.973069 273.891728 
L 281.499162 273.551609 
L 281.763503 273.590096 
L 282.02007 273.475371 
L 282.299962 273.555985 
L 282.552641 273.392144 
L 282.828646 273.491668 
L 283.083917 273.379614 
L 283.362512 273.478439 
L 283.615192 273.306288 
L 283.892492 273.52264 
L 284.147763 273.41575 
L 284.427655 273.49573 
L 284.677742 273.412879 
L 284.955042 273.47244 
L 285.212905 273.404363 
L 285.488909 273.461664 
L 286.02148 273.429648 
L 287.874465 273.489918 
L 288.680448 273.411135 
L 289.218203 273.561597 
L 290.276866 273.547476 
L 290.529545 273.591843 
L 290.815916 273.481501 
L 291.063412 273.600953 
L 291.348487 273.465369 
L 291.592096 273.699834 
L 291.871987 273.41344 
L 292.135033 273.558888 
L 292.414925 273.40325 
L 292.9462 273.478786 
L 293.189809 273.527506 
L 293.467109 273.451585 
L 293.734042 273.635407 
L 294.000976 273.322368 
L 294.257543 273.427613 
L 294.528363 273.16856 
L 295.073892 273.147962 
L 295.331756 273.089218 
L 295.851369 273.18292 
L 296.126077 273.127103 
L 296.376165 273.685223 
L 296.656056 274.713988 
L 296.910032 275.151417 
L 297.442603 274.340817 
L 297.718607 274.708047 
L 297.972582 273.238873 
L 298.249882 273.582422 
L 298.505153 273.537071 
L 298.785045 271.98725 
L 299.570295 264.755857 
L 299.847595 263.853361 
L 300.098979 261.624363 
L 300.63155 260.527625 
L 300.914033 256.971011 
L 301.445308 254.347272 
L 301.707059 255.354185 
L 301.983063 254.086189 
L 302.234447 255.585233 
L 302.774792 255.819474 
L 303.037839 257.249923 
L 303.290518 256.57515 
L 303.57041 256.645264 
L 304.099093 262.270048 
L 304.358252 263.485616 
L 304.634256 266.54988 
L 304.88564 266.55018 
L 305.696807 276.497161 
L 306.229378 280.396739 
L 306.491128 279.25289 
L 306.771019 280.319738 
L 307.015924 277.015983 
L 307.293224 278.317081 
L 307.55627 277.995693 
L 307.825795 280.369571 
L 308.079771 279.929744 
L 308.35707 278.818952 
L 308.608454 280.087811 
L 308.902599 278.304827 
L 309.143617 282.388681 
L 309.427396 273.626186 
L 309.685258 270.053107 
L 309.953488 273.597918 
L 310.219125 273.355028 
L 310.495129 273.475796 
L 310.733555 274.478848 
L 311.013447 279.147905 
L 311.544722 271.859439 
L 311.802585 275.122483 
L 312.087659 273.982913 
L 312.332564 273.753926 
L 312.616343 274.173198 
L 312.86384 274.786105 
L 313.145027 273.088995 
L 313.395115 272.67406 
L 313.675006 274.083421 
L 314.206281 272.844508 
L 314.460257 271.301414 
L 314.737557 272.360975 
L 314.990236 270.194735 
L 315.270128 271.860601 
L 315.524103 271.813176 
L 316.063153 270.773305 
L 316.333974 273.951698 
L 316.591837 273.047625 
L 316.871728 274.431594 
L 317.116633 276.245461 
L 317.397821 275.727528 
L 317.651796 275.780489 
L 317.9278 276.328435 
L 318.186959 274.618527 
L 318.720825 279.404099 
L 319.250805 279.103945 
L 319.524217 278.987465 
L 319.779489 279.225667 
L 320.061972 278.256218 
L 320.309468 274.840443 
L 320.593247 277.752886 
L 320.843335 277.592277 
L 321.119339 273.718984 
L 321.378498 275.6575 
L 321.655798 274.686928 
L 321.90459 274.960363 
L 322.189664 275.839106 
L 322.441048 274.001459 
L 322.719644 274.153165 
L 322.968436 274.942251 
L 323.245736 274.144589 
L 323.504895 276.010058 
L 323.778307 275.647329 
L 324.033578 276.06064 
L 324.309582 276.042772 
L 324.568741 277.081014 
L 324.842153 276.934004 
L 325.094833 276.518761 
L 325.373429 277.121047 
L 325.626108 276.779623 
L 325.908591 278.241406 
L 326.158679 276.728978 
L 326.437275 277.078419 
L 326.69125 276.938793 
L 326.973733 277.885713 
L 327.22123 277.475978 
L 327.501121 278.231758 
L 327.758984 277.230557 
L 328.038875 278.003267 
L 328.295442 277.252543 
L 328.563672 277.929893 
L 328.818943 276.264715 
L 329.101426 276.458201 
L 329.350218 278.919542 
L 329.626222 271.453295 
L 330.162681 279.043691 
L 330.414065 275.02109 
L 330.693956 275.91387 
L 330.94534 279.214631 
L 331.223935 277.940779 
L 331.479207 277.472454 
L 331.755211 278.252131 
L 332.013074 278.119617 
L 332.290374 277.041571 
L 332.541758 277.914632 
L 332.821649 279.813474 
L 333.073033 279.328297 
L 333.352924 278.494908 
L 333.604308 279.692757 
L 333.885495 278.781499 
L 334.135583 280.741605 
L 334.415475 278.395809 
L 334.668154 278.424311 
L 334.945454 277.298472 
L 335.19943 277.490214 
L 335.488392 275.789959 
L 335.733296 275.851153 
L 336.011892 276.08836 
L 336.264572 275.296435 
L 336.544463 276.032798 
L 336.795847 277.856167 
L 337.073147 278.185304 
L 337.329714 277.31289 
L 337.608309 275.948599 
L 337.860989 276.489673 
L 338.394856 280.572874 
L 338.677339 278.595871 
L 339.202135 279.119481 
L 339.453519 278.454994 
L 339.733411 278.826513 
L 340.265982 276.125461 
L 340.518661 275.149628 
L 340.801144 275.709806 
L 341.333715 274.778215 
L 341.587691 275.769393 
L 341.864991 275.324826 
L 342.113783 275.794479 
L 342.930133 278.398387 
L 343.456225 284.427182 
L 343.719271 283.097774 
L 344.001754 283.694653 
L 344.247955 283.74443 
L 344.518775 283.447489 
L 344.772751 286.450469 
L 345.050051 283.754597 
L 345.307914 284.641527 
L 345.583917 283.653968 
L 345.840485 287.269895 
L 346.113897 283.346078 
L 346.900443 279.677338 
L 347.177743 279.635399 
L 347.433015 279.321217 
L 347.974656 279.78354 
L 348.254548 277.325253 
L 348.502044 277.835062 
L 348.775456 277.265983 
L 349.02684 277.082584 
L 349.317098 276.552104 
L 349.562003 272.102068 
L 349.848373 272.211547 
L 350.099757 271.979809 
L 350.374465 271.881127 
L 350.632328 270.163794 
L 350.905741 269.326071 
L 351.161012 273.593555 
L 351.449974 274.45128 
L 351.689696 274.378674 
L 351.977362 276.114826 
L 352.236521 276.029572 
L 353.034729 278.672759 
L 353.284817 277.183654 
L 353.563413 276.98985 
L 353.814797 278.231776 
L 354.093393 275.874155 
L 354.344776 275.431602 
L 354.623372 277.047198 
L 354.881235 274.762994 
L 355.15983 275.941076 
L 355.416397 276.232594 
L 355.69888 274.455339 
L 355.950264 275.562452 
L 356.226268 275.107774 
L 356.476356 277.864624 
L 356.752361 277.265956 
L 357.00504 274.461307 
L 357.286227 275.922179 
L 357.538907 277.918418 
L 357.818798 277.06103 
L 358.071478 275.180415 
L 358.350073 275.109702 
L 358.600162 277.416087 
L 358.881349 276.799531 
L 359.410033 277.092517 
L 359.941308 274.568654 
L 360.200466 278.020963 
L 360.475175 280.041185 
L 360.730446 280.27869 
L 361.2682 275.645203 
L 361.5455 276.650611 
L 361.792996 278.306934 
L 362.071592 281.747167 
L 362.324272 281.365082 
L 362.60805 279.232456 
L 362.862026 274.54906 
L 363.134143 275.437648 
L 363.669305 280.073488 
L 363.923281 278.982486 
L 364.449373 275.665469 
L 364.734447 272.468266 
L 364.984536 277.184032 
L 365.267018 276.946879 
L 365.514515 276.486627 
L 365.791815 278.530368 
L 366.048382 276.448268 
L 366.326978 275.776822 
L 366.583545 276.719169 
L 366.859549 275.802654 
L 367.116116 277.597614 
L 367.397303 276.485672 
L 367.648687 272.063288 
L 368.181258 275.798024 
L 368.461149 276.424779 
L 368.704758 274.713995 
L 368.983354 267.52853 
L 369.239921 274.885696 
L 369.526291 274.319662 
L 370.061454 269.53231 
L 370.303767 272.93263 
L 370.588842 272.691104 
L 370.835042 271.766489 
L 371.381867 273.571303 
L 371.644913 273.552711 
L 371.897593 272.747977 
L 372.174893 273.150248 
L 372.427573 274.722971 
L 372.706168 274.196947 
L 372.962735 272.154657 
L 373.237443 275.418315 
L 373.492715 275.300644 
L 373.77131 273.522971 
L 374.029173 274.982857 
L 374.836452 273.163869 
L 375.089132 274.051706 
L 375.367728 272.99872 
L 375.620407 273.04098 
L 375.90289 275.657669 
L 376.156866 269.092514 
L 376.434166 269.012248 
L 376.684254 274.8679 
L 376.962849 275.031493 
L 377.223304 271.043583 
L 377.503195 273.677886 
L 377.7481 274.264766 
L 378.027991 275.912599 
L 378.285854 274.968688 
L 378.563154 272.751465 
L 378.818425 274.77756 
L 379.089246 275.447252 
L 379.350996 273.988247 
L 379.625705 273.313646 
L 379.880976 273.934621 
L 380.417434 274.753787 
L 380.692143 274.17172 
L 380.938343 276.445683 
L 381.224714 276.907639 
L 381.47221 276.659313 
L 381.745623 277.268902 
L 381.999598 275.038353 
L 382.279489 273.630666 
L 382.538648 273.287033 
L 382.809469 273.190864 
L 383.062149 275.911765 
L 383.34204 273.452014 
L 383.873315 273.608726 
L 384.127291 274.699626 
L 384.405886 274.660125 
L 384.661158 275.259638 
L 384.939753 274.931798 
L 385.189841 275.129906 
L 385.472324 276.21449 
L 385.728891 275.317257 
L 386.007487 276.915414 
L 386.261463 274.846923 
L 386.538762 275.208092 
L 386.787554 275.780427 
L 387.064854 274.763256 
L 387.317534 274.517404 
L 387.606496 273.459834 
L 387.860471 274.147443 
L 388.131292 272.48675 
L 388.382676 273.458444 
L 388.662568 273.61947 
L 388.919135 273.598796 
L 390.522031 274.23604 
L 392.648428 274.314124 
L 394.231887 274.231541 
L 394.510483 274.326728 
L 395.04435 274.216748 
L 395.573033 274.279053 
L 396.105604 274.247387 
L 397.428609 274.253421 
L 397.700726 274.33753 
L 397.953406 274.249098 
L 398.237185 274.31435 
L 398.487273 274.237427 
L 398.487273 274.237427 
" style="fill:none;stroke:#ff7f0e;stroke-linecap:square;stroke-width:1.5;"/>
   </g>
   <g id="line2d_16">
    <path clip-path="url(#p37dd2c5f96)" d="M 73.832727 255.751907 
L 74.084111 255.662794 
L 74.365298 255.770188 
L 74.899165 255.680238 
L 75.160916 256.011162 
L 75.426553 255.972252 
L 75.677937 255.747915 
L 76.503358 255.830962 
L 76.743079 256.040782 
L 77.274355 255.814666 
L 77.554246 255.931038 
L 77.813404 255.827321 
L 78.620684 256.073788 
L 78.86818 255.972222 
L 80.215805 255.978435 
L 80.468485 255.833879 
L 81.809631 255.962523 
L 82.079156 255.839552 
L 83.657432 255.859497 
L 83.937324 255.720555 
L 84.464712 255.983438 
L 84.997283 255.876564 
L 85.256441 255.894626 
L 85.535037 255.759912 
L 86.598883 256.202658 
L 87.38543 258.377219 
L 87.660138 258.283717 
L 88.187526 260.176591 
L 88.440206 260.53604 
L 88.718801 260.563766 
L 88.97796 260.240439 
L 89.251372 260.359464 
L 89.50794 259.686851 
L 89.786535 260.634649 
L 90.039215 260.444941 
L 90.319106 257.885108 
L 90.569194 257.165791 
L 90.854269 257.938243 
L 91.104357 257.492095 
L 91.638224 259.46583 
L 91.91034 259.180773 
L 92.170795 259.659019 
L 92.703366 264.288224 
L 92.976778 263.337602 
L 93.229458 261.8164 
L 93.506758 262.210783 
L 93.758142 260.770907 
L 94.036737 260.671836 
L 94.293304 259.610485 
L 94.569308 260.789441 
L 94.823284 263.241331 
L 95.107063 264.234558 
L 95.355855 264.395585 
L 95.635746 264.287568 
L 95.889722 264.445199 
L 96.170909 265.089278 
L 96.42618 266.934799 
L 96.698297 265.239655 
L 96.957455 266.440861 
L 97.233459 265.649895 
L 97.492618 265.331448 
L 97.767326 265.636148 
L 98.020006 266.134575 
L 98.303785 265.456675 
L 98.553873 265.381117 
L 98.83506 265.052119 
L 99.090331 263.237862 
L 99.368927 264.602994 
L 99.612536 265.064835 
L 99.893723 265.121314 
L 100.434069 264.757915 
L 100.688044 262.790682 
L 100.964048 262.27582 
L 101.207658 261.36432 
L 101.750595 258.161368 
L 102.029191 256.461568 
L 102.2728 256.662158 
L 102.815737 259.290332 
L 103.087854 257.974212 
L 103.61265 261.166837 
L 103.876992 261.248431 
L 104.399197 258.83035 
L 104.679088 258.791362 
L 104.92788 257.153525 
L 105.20518 257.142993 
L 105.740343 253.493235 
L 105.990431 253.425153 
L 106.804189 252.160364 
L 107.063348 252.266051 
L 107.335464 252.196014 
L 107.597215 252.350228 
L 107.873219 250.946378 
L 108.125898 250.982688 
L 108.398015 249.752401 
L 108.931882 245.607905 
L 109.188449 245.075819 
L 109.714541 247.609928 
L 110.006095 247.924753 
L 110.258774 250.484186 
L 110.538666 251.281408 
L 110.775796 251.358115 
L 111.054391 251.590608 
L 111.309663 252.393471 
L 112.650809 262.179918 
L 112.903488 263.7179 
L 113.180788 263.372153 
L 113.438651 263.763645 
L 113.969926 266.86494 
L 114.24593 266.759045 
L 114.502497 265.54585 
L 115.563752 270.109113 
L 116.093732 267.094962 
L 116.371032 265.415665 
L 116.627599 265.283169 
L 116.903603 263.469572 
L 117.156282 259.83568 
L 117.440061 259.456552 
L 117.691445 259.414376 
L 118.224016 254.591367 
L 118.50909 253.079722 
L 118.757883 249.898771 
L 119.036478 247.882066 
L 119.287862 244.773452 
L 119.563866 244.332524 
L 119.816546 242.884422 
L 120.096437 243.09288 
L 120.347821 241.516263 
L 120.888167 247.02162 
L 121.165467 247.903818 
L 121.420738 249.984137 
L 121.694151 249.603806 
L 121.952013 251.355879 
L 122.231905 251.945118 
L 122.481993 251.64868 
L 122.759293 251.853694 
L 123.008085 251.315231 
L 123.297047 252.655566 
L 123.543248 252.315923 
L 123.819252 252.569202 
L 124.071931 251.944895 
L 124.350527 251.98411 
L 124.893464 251.295675 
L 125.426035 249.962822 
L 125.94824 246.851704 
L 126.20092 245.976757 
L 126.47822 245.81354 
L 126.732195 244.866061 
L 127.015974 245.007943 
L 127.264766 244.264089 
L 127.539474 244.71097 
L 128.07982 247.42184 
L 128.324725 246.989064 
L 128.858592 248.999768 
L 129.134596 249.625847 
L 129.665871 252.04326 
L 129.921143 251.847927 
L 130.201034 252.002775 
L 130.451122 252.287355 
L 130.731013 254.169231 
L 130.983693 255.015803 
L 131.516264 255.431014 
L 132.04754 257.548809 
L 132.324839 257.877704 
L 132.581406 259.061788 
L 132.862594 259.753779 
L 133.112681 261.885984 
L 133.643957 262.923946 
L 133.929031 263.958657 
L 134.176528 263.974143 
L 134.457715 263.265063 
L 134.707803 263.538377 
L 134.985103 263.135672 
L 135.240374 262.442967 
L 135.517674 263.290035 
L 135.776833 263.439531 
L 136.051541 264.471592 
L 136.300333 264.465923 
L 136.832904 264.833239 
L 137.368067 264.186518 
L 137.644071 262.805577 
L 137.901934 263.621242 
L 138.175346 263.070774 
L 138.431913 262.117262 
L 138.709213 262.524145 
L 138.96578 261.244907 
L 139.773059 260.292913 
L 140.025739 258.026556 
L 140.318588 259.138092 
L 140.562197 256.220725 
L 141.093473 254.314273 
L 141.366885 253.172354 
L 142.153432 246.714262 
L 142.434619 245.923016 
L 142.68989 245.783215 
L 142.965894 244.908502 
L 143.221166 244.572349 
L 143.498465 244.689499 
L 143.747257 245.005222 
L 144.032332 244.910145 
L 144.283716 244.67466 
L 144.811104 245.351139 
L 145.346267 245.581014 
L 145.632637 245.414164 
L 146.154842 246.02096 
L 146.695187 247.17324 
L 146.951755 247.981668 
L 147.477847 253.915694 
L 148.009122 255.991803 
L 148.533918 257.115163 
L 148.815105 257.195901 
L 149.070377 257.392262 
L 149.346381 257.39149 
L 149.596469 257.668494 
L 149.878952 257.572889 
L 150.938911 257.843251 
L 151.195478 257.728767 
L 151.472778 257.754786 
L 152.004053 259.400241 
L 152.261916 260.679595 
L 153.069195 265.635705 
L 154.131746 268.500179 
L 154.388313 268.591483 
L 154.670796 269.107535 
L 154.918292 269.220162 
L 155.194296 269.173771 
L 155.458638 268.946509 
L 155.729459 269.823922 
L 155.982139 270.064182 
L 156.521188 270.98357 
L 156.802376 270.780764 
L 157.044689 268.611213 
L 157.331059 267.549248 
L 157.582443 267.389028 
L 158.108535 265.845812 
L 158.384539 264.928714 
L 158.93266 258.640246 
L 159.16979 257.58386 
L 159.453569 257.284756 
L 160.233636 261.712911 
L 160.513528 262.026969 
L 160.763616 263.259823 
L 161.042212 262.014144 
L 161.296187 262.080474 
L 161.830054 259.497227 
L 162.106058 259.73948 
L 162.360033 259.17503 
L 162.638629 259.864766 
L 162.896492 259.95417 
L 163.172496 259.910772 
L 163.43295 259.433388 
L 163.706363 259.745947 
L 163.959042 258.71724 
L 164.235046 259.445636 
L 164.492909 258.636238 
L 164.771505 258.757224 
L 165.02548 258.437952 
L 165.305372 258.514854 
L 165.554164 257.872312 
L 165.836647 257.546559 
L 166.093214 257.95293 
L 166.373105 257.101539 
L 166.904381 257.838754 
L 167.153173 257.575642 
L 167.436952 258.568626 
L 167.690927 258.079869 
L 167.961748 256.814193 
L 168.218315 258.183571 
L 168.757365 254.622092 
L 169.280866 253.004705 
L 169.810845 252.1205 
L 170.099807 250.82688 
L 170.615533 246.625233 
L 171.154583 243.178165 
L 171.420221 243.317435 
L 171.679379 243.86882 
L 172.214542 243.710632 
L 172.998497 249.82689 
L 173.278388 250.906479 
L 173.534955 250.93456 
L 173.808368 250.212532 
L 174.064935 250.245851 
L 174.589731 251.573454 
L 174.870918 252.149027 
L 175.124894 252.308566 
L 176.46604 259.650611 
L 177.259065 261.842438 
L 178.317728 265.540825 
L 178.846412 266.204055 
L 179.126304 266.163059 
L 179.654987 265.426968 
L 179.915442 264.238585 
L 180.191445 264.038456 
L 180.448013 262.739597 
L 180.972809 255.135127 
L 181.50538 251.815407 
L 181.785271 251.011074 
L 182.043134 249.508747 
L 183.104389 240.407092 
L 183.385576 240.68331 
L 184.449422 243.869521 
L 184.980698 252.272479 
L 185.233377 254.730843 
L 185.508086 255.571184 
L 186.044544 256.073939 
L 186.299815 255.343545 
L 186.571932 254.903482 
L 187.11487 254.515314 
L 188.706104 255.650759 
L 188.951009 255.162552 
L 189.242562 255.118867 
L 189.76995 254.027322 
L 190.029109 254.050123 
L 190.306408 255.13426 
L 190.557792 255.567676 
L 190.833796 255.462443 
L 191.089068 255.531051 
L 191.372847 255.184456 
L 191.629414 255.156943 
L 192.152914 255.854816 
L 192.418552 255.79951 
L 192.673823 255.943531 
L 192.953715 256.595171 
L 193.206394 257.638471 
L 194.272832 260.008661 
L 194.551427 260.42489 
L 194.805403 262.04492 
L 195.331495 267.62752 
L 195.617866 262.430986 
L 196.158211 261.86335 
L 196.676529 258.414526 
L 197.207804 256.521935 
L 197.47085 256.060041 
L 197.993055 255.797755 
L 198.270355 255.722691 
L 198.523034 256.034677 
L 198.813292 256.854821 
L 199.869363 263.097759 
L 200.123339 263.526623 
L 200.399343 263.378315 
L 200.658502 263.08686 
L 201.182002 262.14651 
L 201.474852 261.694597 
L 201.715869 261.719879 
L 201.998352 262.282287 
L 202.53481 262.846271 
L 202.777124 261.844252 
L 203.057015 261.327761 
L 203.308399 261.219482 
L 203.585699 260.871372 
L 203.844858 261.009923 
L 204.650841 262.206727 
L 205.186004 261.993179 
L 205.97255 259.022352 
L 206.245963 260.031088 
L 206.779829 263.950302 
L 207.033805 264.188218 
L 207.309809 264.926302 
L 207.563784 264.709065 
L 207.846267 263.525824 
L 208.096355 264.801767 
L 208.376247 263.644777 
L 208.628927 263.189964 
L 208.911409 262.200682 
L 209.160202 263.351932 
L 209.445276 261.999045 
L 209.691477 264.582694 
L 209.972664 263.913782 
L 210.225344 263.816815 
L 210.501348 264.091185 
L 211.035215 265.215333 
L 211.28919 263.032815 
L 211.569082 263.124298 
L 211.820466 263.3314 
L 212.099061 262.41048 
L 212.350445 258.776905 
L 212.88172 255.202667 
L 213.162908 253.865345 
L 213.415587 253.688332 
L 213.695479 254.24868 
L 213.945567 253.222097 
L 214.225458 253.488304 
L 214.482025 252.163145 
L 214.754142 251.892696 
L 215.0133 251.922174 
L 215.288008 252.890708 
L 215.540688 253.101926 
L 215.819284 254.041367 
L 216.071963 254.350392 
L 216.353151 256.797694 
L 216.60583 256.183674 
L 217.13581 259.653297 
L 217.428659 261.172829 
L 217.678747 260.329191 
L 218.207431 255.58294 
L 218.483435 255.351152 
L 218.734819 255.34763 
L 219.016006 254.705777 
L 219.549873 251.364065 
L 219.798665 250.846805 
L 220.085036 249.654045 
L 220.337715 249.979682 
L 220.605945 249.517927 
L 220.862512 249.961752 
L 221.135924 249.369237 
L 221.3899 250.129597 
L 221.668495 250.133475 
L 221.923766 252.646506 
L 222.204953 251.654103 
L 222.986317 255.304128 
L 223.266208 255.363661 
L 223.517592 256.860545 
L 223.800075 256.774689 
L 224.052755 256.546769 
L 224.332646 257.499007 
L 224.586622 257.86822 
L 224.86133 257.967757 
L 225.121784 258.486161 
L 225.927768 255.551788 
L 226.185631 254.953254 
L 226.465522 255.796138 
L 226.713019 256.040259 
L 226.990318 257.342879 
L 227.250773 257.137389 
L 227.779457 260.001687 
L 228.055461 262.385138 
L 228.314619 261.644532 
L 228.848486 261.443916 
L 229.12449 261.682801 
L 229.373282 261.117038 
L 229.64799 262.107733 
L 229.914924 262.182627 
L 230.192224 261.9066 
L 230.443608 262.08468 
L 230.715724 258.075108 
L 230.967108 259.140205 
L 231.25607 257.867456 
L 231.497088 257.887447 
L 231.789937 258.740221 
L 232.310846 257.298455 
L 232.576483 256.898649 
L 232.836938 255.460895 
L 233.369509 254.398352 
L 233.903376 251.234619 
L 234.439834 248.516673 
L 234.686035 245.911097 
L 234.968518 245.1915 
L 235.221198 243.24348 
L 235.753769 244.017298 
L 236.287636 248.66665 
L 236.821502 250.633043 
L 237.34889 251.997604 
L 237.627486 251.90584 
L 237.884053 252.590108 
L 238.157466 254.609227 
L 238.411441 257.655148 
L 238.688741 258.219707 
L 239.21872 260.395649 
L 239.476583 259.880386 
L 239.752587 260.518426 
L 240.01045 261.448264 
L 240.286454 261.371027 
L 240.543021 260.405844 
L 240.817729 257.734701 
L 241.069113 256.731065 
L 241.346413 254.924035 
L 241.885463 259.337278 
L 242.132959 260.045563 
L 242.415442 259.646159 
L 242.669418 261.149673 
L 242.949309 262.07122 
L 243.199397 261.699571 
L 243.729377 260.355715 
L 244.01186 258.141827 
L 244.258061 259.352161 
L 244.539248 258.264035 
L 244.790632 259.899408 
L 245.073115 259.041579 
L 245.328386 259.321659 
L 245.603094 258.526882 
L 245.85707 260.271826 
L 246.139552 259.5899 
L 246.392232 260.248376 
L 246.673419 260.38451 
L 246.924803 260.173332 
L 247.200807 260.178142 
L 247.461262 258.641071 
L 247.742449 258.209101 
L 247.989945 258.707641 
L 248.263358 258.1453 
L 248.516038 258.118432 
L 249.334979 252.27586 
L 249.870141 246.785239 
L 250.391051 243.571728 
L 250.652801 243.655135 
L 250.924917 245.536503 
L 251.189259 244.935974 
L 251.458784 247.752229 
L 251.717943 248.972285 
L 251.99913 251.115651 
L 252.23626 249.3976 
L 252.514856 248.89233 
L 252.77531 248.850307 
L 253.582589 250.56269 
L 253.839157 251.738702 
L 254.111273 252.196649 
L 254.642548 254.36141 
L 254.896524 257.761825 
L 255.176415 259.968577 
L 255.429095 260.712407 
L 255.706395 262.730178 
L 255.961666 261.841914 
L 256.240262 262.577522 
L 256.491646 262.824765 
L 256.770241 262.247197 
L 257.555492 259.190962 
L 257.832792 259.452248 
L 258.086767 260.547659 
L 258.364067 259.191887 
L 258.616747 259.401355 
L 258.901821 258.034094 
L 259.154501 257.918573 
L 259.430505 259.510741 
L 259.68448 257.530194 
L 259.972146 258.14357 
L 260.217052 257.457309 
L 260.504717 255.85063 
L 260.747031 256.04979 
L 261.025627 257.143985 
L 261.280898 256.23755 
L 261.555606 254.561886 
L 261.808286 254.311457 
L 262.088177 253.733574 
L 262.344744 251.767142 
L 262.624636 253.739262 
L 262.87602 252.44752 
L 263.159798 251.635684 
L 263.405999 250.517562 
L 263.94764 249.574134 
L 264.231419 246.261556 
L 264.482803 247.319736 
L 265.014078 246.135434 
L 265.27842 247.627418 
L 265.534987 248.145937 
L 266.342267 245.496126 
L 266.604017 245.447618 
L 266.873542 246.349254 
L 267.128813 246.355079 
L 267.413888 244.195037 
L 267.665272 243.725527 
L 268.196547 240.595702 
L 268.481622 241.134628 
L 268.730414 239.919685 
L 269.005122 239.606879 
L 269.262985 240.637057 
L 269.538989 240.504036 
L 269.786485 241.065893 
L 270.066377 240.994275 
L 270.319056 240.804522 
L 270.601539 239.913968 
L 270.856811 236.271069 
L 271.128927 234.33005 
L 271.381607 235.650977 
L 271.918065 241.557277 
L 272.445453 247.674987 
L 272.985799 250.019058 
L 273.517074 249.893379 
L 273.789191 250.553358 
L 274.041871 250.572916 
L 274.573146 250.923368 
L 274.853038 251.833755 
L 275.113492 253.724528 
L 275.384313 254.458563 
L 275.636992 254.666188 
L 276.172155 255.378579 
L 276.452046 255.752125 
L 276.700839 255.715876 
L 276.983322 254.505733 
L 277.51071 250.942385 
L 277.769868 250.686553 
L 278.043281 249.503163 
L 278.833714 243.907117 
L 279.116198 242.392698 
L 279.36499 241.917277 
L 279.637106 241.859464 
L 280.170973 249.849831 
L 280.710023 253.262742 
L 280.973069 254.201938 
L 281.763503 255.540248 
L 282.552641 255.855286 
L 282.828646 256.02956 
L 283.083917 255.9784 
L 283.362512 255.738853 
L 283.892492 256.072634 
L 284.147763 256.032826 
L 284.427655 255.872062 
L 284.677742 256.030362 
L 284.955042 256.04032 
L 285.488909 255.804121 
L 285.740293 256.016155 
L 286.02148 256.061007 
L 286.552755 255.893929 
L 286.809323 256.10588 
L 287.087918 256.136827 
L 287.338006 256.046854 
L 287.617898 256.122929 
L 287.874465 256.364535 
L 288.680448 256.262242 
L 289.218203 256.461753 
L 289.469586 255.992875 
L 289.749478 256.760649 
L 290.007341 256.042969 
L 290.276866 256.323312 
L 290.529545 256.386258 
L 290.815916 255.948269 
L 291.063412 256.828526 
L 291.348487 255.906896 
L 291.592096 256.548816 
L 291.871987 256.139105 
L 292.657238 255.796757 
L 292.9462 256.017813 
L 293.467109 255.809791 
L 293.734042 255.644913 
L 294.000976 255.866278 
L 294.257543 256.227101 
L 294.528363 256.86627 
L 295.590914 260.503675 
L 296.126077 265.013124 
L 296.656056 270.85396 
L 296.910032 272.031473 
L 297.193811 272.205323 
L 297.718607 270.036955 
L 298.505153 262.886903 
L 298.785045 260.78651 
L 299.044203 260.484465 
L 299.317616 261.190618 
L 299.570295 260.790795 
L 299.847595 260.764407 
L 300.380166 259.406147 
L 300.63155 261.226128 
L 300.914033 262.230399 
L 301.174488 261.698616 
L 301.445308 261.595898 
L 301.707059 261.977931 
L 301.983063 261.239026 
L 302.774792 256.882859 
L 303.037839 256.040359 
L 303.57041 260.195222 
L 303.821794 262.669395 
L 304.099093 264.273649 
L 304.358252 264.227481 
L 305.16294 260.892876 
L 305.420803 260.946599 
L 305.696807 260.171451 
L 306.491128 260.01896 
L 306.771019 259.530141 
L 307.015924 259.50111 
L 307.55627 255.24285 
L 307.825795 254.168442 
L 308.079771 254.029505 
L 308.35707 253.386064 
L 308.902599 253.72171 
L 309.143617 253.546733 
L 309.427396 248.043183 
L 309.953488 250.167077 
L 310.495129 251.238131 
L 311.013447 249.914791 
L 311.275197 253.743753 
L 311.544722 255.728281 
L 311.802585 254.621114 
L 312.087659 255.622922 
L 312.616343 257.972436 
L 312.86384 257.860032 
L 313.145027 258.743408 
L 313.395115 258.699818 
L 313.675006 259.460268 
L 313.92639 259.751297 
L 314.206281 260.66824 
L 314.990236 268.217979 
L 315.270128 269.394415 
L 315.524103 271.257703 
L 315.802699 272.26557 
L 316.063153 270.754766 
L 316.333974 272.832183 
L 316.591837 271.346446 
L 316.871728 271.047942 
L 317.116633 271.440577 
L 317.397821 271.07024 
L 317.651796 269.377391 
L 317.9278 269.837412 
L 318.186959 269.267589 
L 318.464258 269.350557 
L 318.720825 268.627711 
L 318.99035 267.174727 
L 319.250805 266.514353 
L 319.779489 264.295432 
L 320.061972 258.629782 
L 320.309468 259.862269 
L 320.593247 259.943833 
L 320.843335 261.682496 
L 321.119339 261.993948 
L 321.378498 261.216345 
L 321.90459 255.307206 
L 322.189664 258.35066 
L 322.441048 257.287102 
L 322.719644 256.73629 
L 322.968436 256.540248 
L 323.245736 258.11555 
L 323.504895 261.082407 
L 323.778307 261.183847 
L 324.033578 262.292929 
L 324.309582 262.966382 
L 324.568741 267.772224 
L 324.842153 266.164124 
L 325.373429 264.567112 
L 325.626108 263.123564 
L 325.908591 259.275598 
L 326.158679 258.056813 
L 327.22123 261.282121 
L 327.501121 261.344236 
L 327.758984 265.648132 
L 328.038875 264.924887 
L 328.563672 260.703221 
L 328.818943 260.192317 
L 329.101426 262.385188 
L 329.350218 259.014928 
L 329.884085 263.687661 
L 330.162681 263.915448 
L 330.414065 264.826063 
L 330.693956 260.613312 
L 330.94534 260.501412 
L 331.223935 260.062035 
L 331.755211 261.17801 
L 332.290374 263.207127 
L 332.541758 263.214978 
L 332.821649 268.310745 
L 333.073033 268.452558 
L 333.352924 269.357681 
L 333.604308 269.490217 
L 333.885495 267.19599 
L 334.415475 265.589226 
L 334.668154 267.163684 
L 334.945454 267.15241 
L 335.488392 267.856147 
L 336.011892 266.854718 
L 336.544463 269.06679 
L 337.073147 266.1181 
L 337.329714 267.054706 
L 337.860989 266.072554 
L 338.148655 265.913832 
L 338.394856 265.021147 
L 338.677339 266.254508 
L 338.928723 265.68284 
L 339.202135 265.970771 
L 339.453519 265.147145 
L 339.733411 265.37043 
L 339.987386 264.043383 
L 340.265982 263.92021 
L 340.518661 266.370109 
L 341.053824 262.566026 
L 341.333715 263.493953 
L 341.587691 262.380319 
L 342.113783 261.907801 
L 342.397562 263.318605 
L 342.64765 261.275867 
L 342.930133 261.040684 
L 343.193179 259.620912 
L 343.719271 253.434124 
L 344.001754 248.486819 
L 344.247955 248.060051 
L 344.518775 245.085681 
L 344.772751 245.191728 
L 345.050051 243.563504 
L 345.307914 243.797595 
L 345.583917 243.869968 
L 345.840485 240.705824 
L 346.370464 247.877798 
L 346.645172 249.734233 
L 346.900443 248.859592 
L 347.177743 248.466277 
L 347.709019 250.589218 
L 347.974656 252.096913 
L 348.502044 258.98697 
L 348.775456 257.682131 
L 349.02684 259.020077 
L 349.317098 259.186069 
L 349.562003 257.926097 
L 349.848373 258.120161 
L 350.099757 257.828744 
L 350.632328 255.372036 
L 351.161012 252.496733 
L 351.449974 252.566339 
L 351.689696 251.860109 
L 351.977362 253.122496 
L 352.236521 253.709396 
L 352.50475 254.808112 
L 352.750951 253.313304 
L 353.034729 252.425362 
L 353.284817 253.026339 
L 354.093393 251.573875 
L 354.344776 249.55612 
L 354.623372 249.088065 
L 354.881235 249.598331 
L 355.15983 248.195261 
L 355.416397 248.330794 
L 355.950264 247.882333 
L 356.226268 248.065192 
L 356.752361 244.917297 
L 357.00504 247.407934 
L 357.286227 246.451956 
L 357.538907 248.173088 
L 357.818798 248.515202 
L 358.071478 246.984484 
L 358.350073 246.624497 
L 358.600162 246.976091 
L 358.881349 248.038818 
L 359.410033 246.914809 
L 359.662712 246.634818 
L 359.941308 247.989552 
L 360.200466 248.337603 
L 360.475175 249.878324 
L 360.730446 253.939672 
L 361.010337 252.643781 
L 361.2682 252.604841 
L 361.5455 254.659381 
L 361.792996 254.147141 
L 362.071592 253.077863 
L 362.324272 252.721253 
L 362.60805 254.909399 
L 362.862026 252.77121 
L 363.134143 252.343429 
L 363.669305 256.164994 
L 363.923281 254.264618 
L 364.199285 253.801271 
L 364.449373 256.748566 
L 364.734447 253.10813 
L 365.267018 255.568818 
L 365.791815 255.273688 
L 366.048382 256.999813 
L 366.326978 256.874553 
L 366.583545 256.525806 
L 366.859549 256.459697 
L 367.116116 257.709695 
L 367.397303 258.099685 
L 367.648687 256.853601 
L 368.181258 258.487099 
L 368.461149 258.518001 
L 368.704758 260.013136 
L 368.983354 265.582798 
L 369.239921 258.593127 
L 369.526291 259.994367 
L 369.781562 259.939319 
L 370.061454 260.359319 
L 370.303767 263.014698 
L 370.588842 262.474453 
L 370.835042 263.26505 
L 371.120117 264.945808 
L 371.644913 262.130858 
L 371.897593 260.004701 
L 372.174893 263.169619 
L 372.706168 258.877579 
L 373.237443 261.840234 
L 373.492715 261.281244 
L 373.77131 259.113483 
L 374.029173 259.02403 
L 374.302586 259.218792 
L 374.836452 257.438698 
L 375.089132 255.434058 
L 375.367728 254.55858 
L 375.620407 254.510436 
L 376.156866 248.811278 
L 376.434166 248.171745 
L 376.684254 250.052068 
L 376.962849 250.132868 
L 377.223304 249.580255 
L 377.7481 250.254293 
L 378.027991 247.762679 
L 378.563154 249.652374 
L 378.818425 248.616954 
L 379.089246 250.254869 
L 379.350996 250.052076 
L 379.625705 250.765982 
L 379.880976 252.684415 
L 380.417434 254.100015 
L 380.692143 258.380117 
L 380.938343 260.477479 
L 381.224714 260.616816 
L 381.47221 260.886773 
L 381.999598 263.825599 
L 382.279489 263.040235 
L 382.809469 257.356128 
L 383.062149 256.863364 
L 383.597311 254.039411 
L 383.873315 254.787303 
L 384.127291 254.930707 
L 384.405886 254.631962 
L 384.661158 255.050993 
L 385.189841 250.02268 
L 386.787554 240.149597 
L 387.860471 230.933507 
L 388.131292 229.269818 
L 388.382676 235.288953 
L 389.200322 238.261042 
L 389.729005 248.672819 
L 389.986868 251.551774 
L 390.522031 254.484526 
L 390.788964 255.532921 
L 391.041644 256.052625 
L 391.856698 256.797857 
L 393.175816 257.052386 
L 393.704499 256.888238 
L 393.981799 257.115641 
L 394.768346 256.858972 
L 395.04435 257.085014 
L 395.83608 256.879234 
L 396.105604 257.02769 
L 396.892151 256.904011 
L 397.169451 257.034361 
L 397.700726 256.800212 
L 398.237185 257.046729 
L 398.487273 256.918811 
L 398.487273 256.918811 
" style="fill:none;stroke:#2ca02c;stroke-linecap:square;stroke-width:1.5;"/>
   </g>
   <g id="patch_3">
    <path d="M 57.6 307.584 
L 57.6 41.472 
" style="fill:none;stroke:#000000;stroke-linecap:square;stroke-linejoin:miter;stroke-width:0.8;"/>
   </g>
   <g id="patch_4">
    <path d="M 414.72 307.584 
L 414.72 41.472 
" style="fill:none;stroke:#000000;stroke-linecap:square;stroke-linejoin:miter;stroke-width:0.8;"/>
   </g>
   <g id="patch_5">
    <path d="M 57.6 307.584 
L 414.72 307.584 
" style="fill:none;stroke:#000000;stroke-linecap:square;stroke-linejoin:miter;stroke-width:0.8;"/>
   </g>
   <g id="patch_6">
    <path d="M 57.6 41.472 
L 414.72 41.472 
" style="fill:none;stroke:#000000;stroke-linecap:square;stroke-linejoin:miter;stroke-width:0.8;"/>
   </g>
   <g id="text_16">
    <!-- OnePLus 7T/car_on_pocket/grav Dec 09 121013.txt -->
    <defs>
     <path d="M 39.40625 66.21875 
Q 28.65625 66.21875 22.328125 58.203125 
Q 16.015625 50.203125 16.015625 36.375 
Q 16.015625 22.609375 22.328125 14.59375 
Q 28.65625 6.59375 39.40625 6.59375 
Q 50.140625 6.59375 56.421875 14.59375 
Q 62.703125 22.609375 62.703125 36.375 
Q 62.703125 50.203125 56.421875 58.203125 
Q 50.140625 66.21875 39.40625 66.21875 
z
M 39.40625 74.21875 
Q 54.734375 74.21875 63.90625 63.9375 
Q 73.09375 53.65625 73.09375 36.375 
Q 73.09375 19.140625 63.90625 8.859375 
Q 54.734375 -1.421875 39.40625 -1.421875 
Q 24.03125 -1.421875 14.8125 8.828125 
Q 5.609375 19.09375 5.609375 36.375 
Q 5.609375 53.65625 14.8125 63.9375 
Q 24.03125 74.21875 39.40625 74.21875 
z
" id="DejaVuSans-79"/>
     <path d="M 19.671875 64.796875 
L 19.671875 37.40625 
L 32.078125 37.40625 
Q 38.96875 37.40625 42.71875 40.96875 
Q 46.484375 44.53125 46.484375 51.125 
Q 46.484375 57.671875 42.71875 61.234375 
Q 38.96875 64.796875 32.078125 64.796875 
z
M 9.8125 72.90625 
L 32.078125 72.90625 
Q 44.34375 72.90625 50.609375 67.359375 
Q 56.890625 61.8125 56.890625 51.125 
Q 56.890625 40.328125 50.609375 34.8125 
Q 44.34375 29.296875 32.078125 29.296875 
L 19.671875 29.296875 
L 19.671875 0 
L 9.8125 0 
z
" id="DejaVuSans-80"/>
     <path d="M 9.8125 72.90625 
L 19.671875 72.90625 
L 19.671875 8.296875 
L 55.171875 8.296875 
L 55.171875 0 
L 9.8125 0 
z
" id="DejaVuSans-76"/>
     <path d="M 8.203125 72.90625 
L 55.078125 72.90625 
L 55.078125 68.703125 
L 28.609375 0 
L 18.3125 0 
L 43.21875 64.59375 
L 8.203125 64.59375 
z
" id="DejaVuSans-55"/>
     <path d="M 25.390625 72.90625 
L 33.6875 72.90625 
L 8.296875 -9.28125 
L 0 -9.28125 
z
" id="DejaVuSans-47"/>
     <path d="M 41.109375 46.296875 
Q 39.59375 47.171875 37.8125 47.578125 
Q 36.03125 48 33.890625 48 
Q 26.265625 48 22.1875 43.046875 
Q 18.109375 38.09375 18.109375 28.8125 
L 18.109375 0 
L 9.078125 0 
L 9.078125 54.6875 
L 18.109375 54.6875 
L 18.109375 46.1875 
Q 20.953125 51.171875 25.484375 53.578125 
Q 30.03125 56 36.53125 56 
Q 37.453125 56 38.578125 55.875 
Q 39.703125 55.765625 41.0625 55.515625 
z
" id="DejaVuSans-114"/>
     <path d="M 50.984375 -16.609375 
L 50.984375 -23.578125 
L -0.984375 -23.578125 
L -0.984375 -16.609375 
z
" id="DejaVuSans-95"/>
     <path d="M 18.109375 8.203125 
L 18.109375 -20.796875 
L 9.078125 -20.796875 
L 9.078125 54.6875 
L 18.109375 54.6875 
L 18.109375 46.390625 
Q 20.953125 51.265625 25.265625 53.625 
Q 29.59375 56 35.59375 56 
Q 45.5625 56 51.78125 48.09375 
Q 58.015625 40.1875 58.015625 27.296875 
Q 58.015625 14.40625 51.78125 6.484375 
Q 45.5625 -1.421875 35.59375 -1.421875 
Q 29.59375 -1.421875 25.265625 0.953125 
Q 20.953125 3.328125 18.109375 8.203125 
z
M 48.6875 27.296875 
Q 48.6875 37.203125 44.609375 42.84375 
Q 40.53125 48.484375 33.40625 48.484375 
Q 26.265625 48.484375 22.1875 42.84375 
Q 18.109375 37.203125 18.109375 27.296875 
Q 18.109375 17.390625 22.1875 11.75 
Q 26.265625 6.109375 33.40625 6.109375 
Q 40.53125 6.109375 44.609375 11.75 
Q 48.6875 17.390625 48.6875 27.296875 
z
" id="DejaVuSans-112"/>
     <path d="M 9.078125 75.984375 
L 18.109375 75.984375 
L 18.109375 31.109375 
L 44.921875 54.6875 
L 56.390625 54.6875 
L 27.390625 29.109375 
L 57.625 0 
L 45.90625 0 
L 18.109375 26.703125 
L 18.109375 0 
L 9.078125 0 
z
" id="DejaVuSans-107"/>
     <path d="M 2.984375 54.6875 
L 12.5 54.6875 
L 29.59375 8.796875 
L 46.6875 54.6875 
L 56.203125 54.6875 
L 35.6875 0 
L 23.484375 0 
z
" id="DejaVuSans-118"/>
     <path d="M 19.671875 64.796875 
L 19.671875 8.109375 
L 31.59375 8.109375 
Q 46.6875 8.109375 53.6875 14.9375 
Q 60.6875 21.78125 60.6875 36.53125 
Q 60.6875 51.171875 53.6875 57.984375 
Q 46.6875 64.796875 31.59375 64.796875 
z
M 9.8125 72.90625 
L 30.078125 72.90625 
Q 51.265625 72.90625 61.171875 64.09375 
Q 71.09375 55.28125 71.09375 36.53125 
Q 71.09375 17.671875 61.125 8.828125 
Q 51.171875 0 30.078125 0 
L 9.8125 0 
z
" id="DejaVuSans-68"/>
     <path d="M 10.984375 1.515625 
L 10.984375 10.5 
Q 14.703125 8.734375 18.5 7.8125 
Q 22.3125 6.890625 25.984375 6.890625 
Q 35.75 6.890625 40.890625 13.453125 
Q 46.046875 20.015625 46.78125 33.40625 
Q 43.953125 29.203125 39.59375 26.953125 
Q 35.25 24.703125 29.984375 24.703125 
Q 19.046875 24.703125 12.671875 31.3125 
Q 6.296875 37.9375 6.296875 49.421875 
Q 6.296875 60.640625 12.9375 67.421875 
Q 19.578125 74.21875 30.609375 74.21875 
Q 43.265625 74.21875 49.921875 64.515625 
Q 56.59375 54.828125 56.59375 36.375 
Q 56.59375 19.140625 48.40625 8.859375 
Q 40.234375 -1.421875 26.421875 -1.421875 
Q 22.703125 -1.421875 18.890625 -0.6875 
Q 15.09375 0.046875 10.984375 1.515625 
z
M 30.609375 32.421875 
Q 37.25 32.421875 41.125 36.953125 
Q 45.015625 41.5 45.015625 49.421875 
Q 45.015625 57.28125 41.125 61.84375 
Q 37.25 66.40625 30.609375 66.40625 
Q 23.96875 66.40625 20.09375 61.84375 
Q 16.21875 57.28125 16.21875 49.421875 
Q 16.21875 41.5 20.09375 36.953125 
Q 23.96875 32.421875 30.609375 32.421875 
z
" id="DejaVuSans-57"/>
     <path d="M 40.578125 39.3125 
Q 47.65625 37.796875 51.625 33 
Q 55.609375 28.21875 55.609375 21.1875 
Q 55.609375 10.40625 48.1875 4.484375 
Q 40.765625 -1.421875 27.09375 -1.421875 
Q 22.515625 -1.421875 17.65625 -0.515625 
Q 12.796875 0.390625 7.625 2.203125 
L 7.625 11.71875 
Q 11.71875 9.328125 16.59375 8.109375 
Q 21.484375 6.890625 26.8125 6.890625 
Q 36.078125 6.890625 40.9375 10.546875 
Q 45.796875 14.203125 45.796875 21.1875 
Q 45.796875 27.640625 41.28125 31.265625 
Q 36.765625 34.90625 28.71875 34.90625 
L 20.21875 34.90625 
L 20.21875 43.015625 
L 29.109375 43.015625 
Q 36.375 43.015625 40.234375 45.921875 
Q 44.09375 48.828125 44.09375 54.296875 
Q 44.09375 59.90625 40.109375 62.90625 
Q 36.140625 65.921875 28.71875 65.921875 
Q 24.65625 65.921875 20.015625 65.03125 
Q 15.375 64.15625 9.8125 62.3125 
L 9.8125 71.09375 
Q 15.4375 72.65625 20.34375 73.4375 
Q 25.25 74.21875 29.59375 74.21875 
Q 40.828125 74.21875 47.359375 69.109375 
Q 53.90625 64.015625 53.90625 55.328125 
Q 53.90625 49.265625 50.4375 45.09375 
Q 46.96875 40.921875 40.578125 39.3125 
z
" id="DejaVuSans-51"/>
     <path d="M 10.6875 12.40625 
L 21 12.40625 
L 21 0 
L 10.6875 0 
z
" id="DejaVuSans-46"/>
     <path d="M 54.890625 54.6875 
L 35.109375 28.078125 
L 55.90625 0 
L 45.3125 0 
L 29.390625 21.484375 
L 13.484375 0 
L 2.875 0 
L 24.125 28.609375 
L 4.6875 54.6875 
L 15.28125 54.6875 
L 29.78125 35.203125 
L 44.28125 54.6875 
z
" id="DejaVuSans-120"/>
    </defs>
    <g transform="translate(81.87375 35.472)scale(0.12 -0.12)">
     <use xlink:href="#DejaVuSans-79"/>
     <use x="78.710938" xlink:href="#DejaVuSans-110"/>
     <use x="142.089844" xlink:href="#DejaVuSans-101"/>
     <use x="203.613281" xlink:href="#DejaVuSans-80"/>
     <use x="263.916016" xlink:href="#DejaVuSans-76"/>
     <use x="319.613281" xlink:href="#DejaVuSans-117"/>
     <use x="382.992188" xlink:href="#DejaVuSans-115"/>
     <use x="435.091797" xlink:href="#DejaVuSans-32"/>
     <use x="466.878906" xlink:href="#DejaVuSans-55"/>
     <use x="530.501953" xlink:href="#DejaVuSans-84"/>
     <use x="591.585938" xlink:href="#DejaVuSans-47"/>
     <use x="625.277344" xlink:href="#DejaVuSans-99"/>
     <use x="680.257812" xlink:href="#DejaVuSans-97"/>
     <use x="741.537109" xlink:href="#DejaVuSans-114"/>
     <use x="782.650391" xlink:href="#DejaVuSans-95"/>
     <use x="832.650391" xlink:href="#DejaVuSans-111"/>
     <use x="893.832031" xlink:href="#DejaVuSans-110"/>
     <use x="957.210938" xlink:href="#DejaVuSans-95"/>
     <use x="1007.210938" xlink:href="#DejaVuSans-112"/>
     <use x="1070.6875" xlink:href="#DejaVuSans-111"/>
     <use x="1131.869141" xlink:href="#DejaVuSans-99"/>
     <use x="1186.849609" xlink:href="#DejaVuSans-107"/>
     <use x="1244.712891" xlink:href="#DejaVuSans-101"/>
     <use x="1306.236328" xlink:href="#DejaVuSans-116"/>
     <use x="1345.445312" xlink:href="#DejaVuSans-47"/>
     <use x="1379.136719" xlink:href="#DejaVuSans-103"/>
     <use x="1442.613281" xlink:href="#DejaVuSans-114"/>
     <use x="1483.726562" xlink:href="#DejaVuSans-97"/>
     <use x="1545.005859" xlink:href="#DejaVuSans-118"/>
     <use x="1604.185547" xlink:href="#DejaVuSans-32"/>
     <use x="1635.972656" xlink:href="#DejaVuSans-68"/>
     <use x="1712.974609" xlink:href="#DejaVuSans-101"/>
     <use x="1774.498047" xlink:href="#DejaVuSans-99"/>
     <use x="1829.478516" xlink:href="#DejaVuSans-32"/>
     <use x="1861.265625" xlink:href="#DejaVuSans-48"/>
     <use x="1924.888672" xlink:href="#DejaVuSans-57"/>
     <use x="1988.511719" xlink:href="#DejaVuSans-32"/>
     <use x="2020.298828" xlink:href="#DejaVuSans-49"/>
     <use x="2083.921875" xlink:href="#DejaVuSans-50"/>
     <use x="2147.544922" xlink:href="#DejaVuSans-49"/>
     <use x="2211.167969" xlink:href="#DejaVuSans-48"/>
     <use x="2274.791016" xlink:href="#DejaVuSans-49"/>
     <use x="2338.414062" xlink:href="#DejaVuSans-51"/>
     <use x="2402.037109" xlink:href="#DejaVuSans-46"/>
     <use x="2433.824219" xlink:href="#DejaVuSans-116"/>
     <use x="2473.033203" xlink:href="#DejaVuSans-120"/>
     <use x="2532.212891" xlink:href="#DejaVuSans-116"/>
    </g>
   </g>
   <g id="legend_1">
    <g id="patch_7">
     <path d="M 344.52 198.045187 
L 407.72 198.045187 
Q 409.72 198.045187 409.72 196.045187 
L 409.72 153.010812 
Q 409.72 151.010812 407.72 151.010812 
L 344.52 151.010812 
Q 342.52 151.010812 342.52 153.010812 
L 342.52 196.045187 
Q 342.52 198.045187 344.52 198.045187 
z
" style="fill:#ffffff;opacity:0.8;stroke:#cccccc;stroke-linejoin:miter;"/>
    </g>
    <g id="line2d_17">
     <path d="M 346.52 159.10925 
L 366.52 159.10925 
" style="fill:none;stroke:#1f77b4;stroke-linecap:square;stroke-width:1.5;"/>
    </g>
    <g id="line2d_18"/>
    <g id="text_17">
     <!-- X-Axis -->
     <defs>
      <path d="M 6.296875 72.90625 
L 16.890625 72.90625 
L 35.015625 45.796875 
L 53.21875 72.90625 
L 63.8125 72.90625 
L 40.375 37.890625 
L 65.375 0 
L 54.78125 0 
L 34.28125 31 
L 13.625 0 
L 2.984375 0 
L 29 38.921875 
z
" id="DejaVuSans-88"/>
      <path d="M 4.890625 31.390625 
L 31.203125 31.390625 
L 31.203125 23.390625 
L 4.890625 23.390625 
z
" id="DejaVuSans-45"/>
      <path d="M 34.1875 63.1875 
L 20.796875 26.90625 
L 47.609375 26.90625 
z
M 28.609375 72.90625 
L 39.796875 72.90625 
L 67.578125 0 
L 57.328125 0 
L 50.6875 18.703125 
L 17.828125 18.703125 
L 11.1875 0 
L 0.78125 0 
z
" id="DejaVuSans-65"/>
     </defs>
     <g transform="translate(374.52 162.60925)scale(0.1 -0.1)">
      <use xlink:href="#DejaVuSans-88"/>
      <use x="68.427734" xlink:href="#DejaVuSans-45"/>
      <use x="104.480469" xlink:href="#DejaVuSans-65"/>
      <use x="172.888672" xlink:href="#DejaVuSans-120"/>
      <use x="232.068359" xlink:href="#DejaVuSans-105"/>
      <use x="259.851562" xlink:href="#DejaVuSans-115"/>
     </g>
    </g>
    <g id="line2d_19">
     <path d="M 346.52 173.787375 
L 366.52 173.787375 
" style="fill:none;stroke:#ff7f0e;stroke-linecap:square;stroke-width:1.5;"/>
    </g>
    <g id="line2d_20"/>
    <g id="text_18">
     <!-- Y-Axis -->
     <defs>
      <path d="M -0.203125 72.90625 
L 10.40625 72.90625 
L 30.609375 42.921875 
L 50.6875 72.90625 
L 61.28125 72.90625 
L 35.5 34.71875 
L 35.5 0 
L 25.59375 0 
L 25.59375 34.71875 
z
" id="DejaVuSans-89"/>
     </defs>
     <g transform="translate(374.52 177.287375)scale(0.1 -0.1)">
      <use xlink:href="#DejaVuSans-89"/>
      <use x="60.912109" xlink:href="#DejaVuSans-45"/>
      <use x="96.964844" xlink:href="#DejaVuSans-65"/>
      <use x="165.373047" xlink:href="#DejaVuSans-120"/>
      <use x="224.552734" xlink:href="#DejaVuSans-105"/>
      <use x="252.335938" xlink:href="#DejaVuSans-115"/>
     </g>
    </g>
    <g id="line2d_21">
     <path d="M 346.52 188.4655 
L 366.52 188.4655 
" style="fill:none;stroke:#2ca02c;stroke-linecap:square;stroke-width:1.5;"/>
    </g>
    <g id="line2d_22"/>
    <g id="text_19">
     <!-- Z-Axis -->
     <defs>
      <path d="M 5.609375 72.90625 
L 62.890625 72.90625 
L 62.890625 65.375 
L 16.796875 8.296875 
L 64.015625 8.296875 
L 64.015625 0 
L 4.5 0 
L 4.5 7.515625 
L 50.59375 64.59375 
L 5.609375 64.59375 
z
" id="DejaVuSans-90"/>
     </defs>
     <g transform="translate(374.52 191.9655)scale(0.1 -0.1)">
      <use xlink:href="#DejaVuSans-90"/>
      <use x="68.490234" xlink:href="#DejaVuSans-45"/>
      <use x="104.542969" xlink:href="#DejaVuSans-65"/>
      <use x="172.951172" xlink:href="#DejaVuSans-120"/>
      <use x="232.130859" xlink:href="#DejaVuSans-105"/>
      <use x="259.914062" xlink:href="#DejaVuSans-115"/>
     </g>
    </g>
   </g>
  </g>
 </g>
 <defs>
  <clipPath id="p37dd2c5f96">
   <rect height="266.112" width="357.12" x="57.6" y="41.472"/>
  </clipPath>
 </defs>
</svg>
