<?xml version="1.0" encoding="utf-8" standalone="no"?>
<!DOCTYPE svg PUBLIC "-//W3C//DTD SVG 1.1//EN"
  "http://www.w3.org/Graphics/SVG/1.1/DTD/svg11.dtd">
<!-- Created with matplotlib (https://matplotlib.org/) -->
<svg height="345.6pt" version="1.1" viewBox="0 0 460.8 345.6" width="460.8pt" xmlns="http://www.w3.org/2000/svg" xmlns:xlink="http://www.w3.org/1999/xlink">
 <defs>
  <style type="text/css">
*{stroke-linecap:butt;stroke-linejoin:round;}
  </style>
 </defs>
 <g id="figure_1">
  <g id="patch_1">
   <path d="M 0 345.6 
L 460.8 345.6 
L 460.8 0 
L 0 0 
z
" style="fill:#ffffff;"/>
  </g>
  <g id="axes_1">
   <g id="patch_2">
    <path d="M 57.6 307.584 
L 414.72 307.584 
L 414.72 41.472 
L 57.6 41.472 
z
" style="fill:#ffffff;"/>
   </g>
   <g id="matplotlib.axis_1">
    <g id="xtick_1">
     <g id="line2d_1">
      <defs>
       <path d="M 0 0 
L 0 3.5 
" id="ma97ec51115" style="stroke:#000000;stroke-width:0.8;"/>
      </defs>
      <g>
       <use style="stroke:#000000;stroke-width:0.8;" x="73.832727" xlink:href="#ma97ec51115" y="307.584"/>
      </g>
     </g>
     <g id="text_1">
      <!-- 0 -->
      <defs>
       <path d="M 31.78125 66.40625 
Q 24.171875 66.40625 20.328125 58.90625 
Q 16.5 51.421875 16.5 36.375 
Q 16.5 21.390625 20.328125 13.890625 
Q 24.171875 6.390625 31.78125 6.390625 
Q 39.453125 6.390625 43.28125 13.890625 
Q 47.125 21.390625 47.125 36.375 
Q 47.125 51.421875 43.28125 58.90625 
Q 39.453125 66.40625 31.78125 66.40625 
z
M 31.78125 74.21875 
Q 44.046875 74.21875 50.515625 64.515625 
Q 56.984375 54.828125 56.984375 36.375 
Q 56.984375 17.96875 50.515625 8.265625 
Q 44.046875 -1.421875 31.78125 -1.421875 
Q 19.53125 -1.421875 13.0625 8.265625 
Q 6.59375 17.96875 6.59375 36.375 
Q 6.59375 54.828125 13.0625 64.515625 
Q 19.53125 74.21875 31.78125 74.21875 
z
" id="DejaVuSans-48"/>
      </defs>
      <g transform="translate(70.651477 322.182437)scale(0.1 -0.1)">
       <use xlink:href="#DejaVuSans-48"/>
      </g>
     </g>
    </g>
    <g id="xtick_2">
     <g id="line2d_2">
      <g>
       <use style="stroke:#000000;stroke-width:0.8;" x="139.093858" xlink:href="#ma97ec51115" y="307.584"/>
      </g>
     </g>
     <g id="text_2">
      <!-- 10 -->
      <defs>
       <path d="M 12.40625 8.296875 
L 28.515625 8.296875 
L 28.515625 63.921875 
L 10.984375 60.40625 
L 10.984375 69.390625 
L 28.421875 72.90625 
L 38.28125 72.90625 
L 38.28125 8.296875 
L 54.390625 8.296875 
L 54.390625 0 
L 12.40625 0 
z
" id="DejaVuSans-49"/>
      </defs>
      <g transform="translate(132.731358 322.182437)scale(0.1 -0.1)">
       <use xlink:href="#DejaVuSans-49"/>
       <use x="63.623047" xlink:href="#DejaVuSans-48"/>
      </g>
     </g>
    </g>
    <g id="xtick_3">
     <g id="line2d_3">
      <g>
       <use style="stroke:#000000;stroke-width:0.8;" x="204.354988" xlink:href="#ma97ec51115" y="307.584"/>
      </g>
     </g>
     <g id="text_3">
      <!-- 20 -->
      <defs>
       <path d="M 19.1875 8.296875 
L 53.609375 8.296875 
L 53.609375 0 
L 7.328125 0 
L 7.328125 8.296875 
Q 12.9375 14.109375 22.625 23.890625 
Q 32.328125 33.6875 34.8125 36.53125 
Q 39.546875 41.84375 41.421875 45.53125 
Q 43.3125 49.21875 43.3125 52.78125 
Q 43.3125 58.59375 39.234375 62.25 
Q 35.15625 65.921875 28.609375 65.921875 
Q 23.96875 65.921875 18.8125 64.3125 
Q 13.671875 62.703125 7.8125 59.421875 
L 7.8125 69.390625 
Q 13.765625 71.78125 18.9375 73 
Q 24.125 74.21875 28.421875 74.21875 
Q 39.75 74.21875 46.484375 68.546875 
Q 53.21875 62.890625 53.21875 53.421875 
Q 53.21875 48.921875 51.53125 44.890625 
Q 49.859375 40.875 45.40625 35.40625 
Q 44.1875 33.984375 37.640625 27.21875 
Q 31.109375 20.453125 19.1875 8.296875 
z
" id="DejaVuSans-50"/>
      </defs>
      <g transform="translate(197.992488 322.182437)scale(0.1 -0.1)">
       <use xlink:href="#DejaVuSans-50"/>
       <use x="63.623047" xlink:href="#DejaVuSans-48"/>
      </g>
     </g>
    </g>
    <g id="xtick_4">
     <g id="line2d_4">
      <g>
       <use style="stroke:#000000;stroke-width:0.8;" x="269.616119" xlink:href="#ma97ec51115" y="307.584"/>
      </g>
     </g>
     <g id="text_4">
      <!-- 30 -->
      <defs>
       <path d="M 40.578125 39.3125 
Q 47.65625 37.796875 51.625 33 
Q 55.609375 28.21875 55.609375 21.1875 
Q 55.609375 10.40625 48.1875 4.484375 
Q 40.765625 -1.421875 27.09375 -1.421875 
Q 22.515625 -1.421875 17.65625 -0.515625 
Q 12.796875 0.390625 7.625 2.203125 
L 7.625 11.71875 
Q 11.71875 9.328125 16.59375 8.109375 
Q 21.484375 6.890625 26.8125 6.890625 
Q 36.078125 6.890625 40.9375 10.546875 
Q 45.796875 14.203125 45.796875 21.1875 
Q 45.796875 27.640625 41.28125 31.265625 
Q 36.765625 34.90625 28.71875 34.90625 
L 20.21875 34.90625 
L 20.21875 43.015625 
L 29.109375 43.015625 
Q 36.375 43.015625 40.234375 45.921875 
Q 44.09375 48.828125 44.09375 54.296875 
Q 44.09375 59.90625 40.109375 62.90625 
Q 36.140625 65.921875 28.71875 65.921875 
Q 24.65625 65.921875 20.015625 65.03125 
Q 15.375 64.15625 9.8125 62.3125 
L 9.8125 71.09375 
Q 15.4375 72.65625 20.34375 73.4375 
Q 25.25 74.21875 29.59375 74.21875 
Q 40.828125 74.21875 47.359375 69.109375 
Q 53.90625 64.015625 53.90625 55.328125 
Q 53.90625 49.265625 50.4375 45.09375 
Q 46.96875 40.921875 40.578125 39.3125 
z
" id="DejaVuSans-51"/>
      </defs>
      <g transform="translate(263.253619 322.182437)scale(0.1 -0.1)">
       <use xlink:href="#DejaVuSans-51"/>
       <use x="63.623047" xlink:href="#DejaVuSans-48"/>
      </g>
     </g>
    </g>
    <g id="xtick_5">
     <g id="line2d_5">
      <g>
       <use style="stroke:#000000;stroke-width:0.8;" x="334.877249" xlink:href="#ma97ec51115" y="307.584"/>
      </g>
     </g>
     <g id="text_5">
      <!-- 40 -->
      <defs>
       <path d="M 37.796875 64.3125 
L 12.890625 25.390625 
L 37.796875 25.390625 
z
M 35.203125 72.90625 
L 47.609375 72.90625 
L 47.609375 25.390625 
L 58.015625 25.390625 
L 58.015625 17.1875 
L 47.609375 17.1875 
L 47.609375 0 
L 37.796875 0 
L 37.796875 17.1875 
L 4.890625 17.1875 
L 4.890625 26.703125 
z
" id="DejaVuSans-52"/>
      </defs>
      <g transform="translate(328.514749 322.182437)scale(0.1 -0.1)">
       <use xlink:href="#DejaVuSans-52"/>
       <use x="63.623047" xlink:href="#DejaVuSans-48"/>
      </g>
     </g>
    </g>
    <g id="xtick_6">
     <g id="line2d_6">
      <g>
       <use style="stroke:#000000;stroke-width:0.8;" x="400.138379" xlink:href="#ma97ec51115" y="307.584"/>
      </g>
     </g>
     <g id="text_6">
      <!-- 50 -->
      <defs>
       <path d="M 10.796875 72.90625 
L 49.515625 72.90625 
L 49.515625 64.59375 
L 19.828125 64.59375 
L 19.828125 46.734375 
Q 21.96875 47.46875 24.109375 47.828125 
Q 26.265625 48.1875 28.421875 48.1875 
Q 40.625 48.1875 47.75 41.5 
Q 54.890625 34.8125 54.890625 23.390625 
Q 54.890625 11.625 47.5625 5.09375 
Q 40.234375 -1.421875 26.90625 -1.421875 
Q 22.3125 -1.421875 17.546875 -0.640625 
Q 12.796875 0.140625 7.71875 1.703125 
L 7.71875 11.625 
Q 12.109375 9.234375 16.796875 8.0625 
Q 21.484375 6.890625 26.703125 6.890625 
Q 35.15625 6.890625 40.078125 11.328125 
Q 45.015625 15.765625 45.015625 23.390625 
Q 45.015625 31 40.078125 35.4375 
Q 35.15625 39.890625 26.703125 39.890625 
Q 22.75 39.890625 18.8125 39.015625 
Q 14.890625 38.140625 10.796875 36.28125 
z
" id="DejaVuSans-53"/>
      </defs>
      <g transform="translate(393.775879 322.182437)scale(0.1 -0.1)">
       <use xlink:href="#DejaVuSans-53"/>
       <use x="63.623047" xlink:href="#DejaVuSans-48"/>
      </g>
     </g>
    </g>
    <g id="text_7">
     <!-- Time (in seconds) -->
     <defs>
      <path d="M -0.296875 72.90625 
L 61.375 72.90625 
L 61.375 64.59375 
L 35.5 64.59375 
L 35.5 0 
L 25.59375 0 
L 25.59375 64.59375 
L -0.296875 64.59375 
z
" id="DejaVuSans-84"/>
      <path d="M 9.421875 54.6875 
L 18.40625 54.6875 
L 18.40625 0 
L 9.421875 0 
z
M 9.421875 75.984375 
L 18.40625 75.984375 
L 18.40625 64.59375 
L 9.421875 64.59375 
z
" id="DejaVuSans-105"/>
      <path d="M 52 44.1875 
Q 55.375 50.25 60.0625 53.125 
Q 64.75 56 71.09375 56 
Q 79.640625 56 84.28125 50.015625 
Q 88.921875 44.046875 88.921875 33.015625 
L 88.921875 0 
L 79.890625 0 
L 79.890625 32.71875 
Q 79.890625 40.578125 77.09375 44.375 
Q 74.3125 48.1875 68.609375 48.1875 
Q 61.625 48.1875 57.5625 43.546875 
Q 53.515625 38.921875 53.515625 30.90625 
L 53.515625 0 
L 44.484375 0 
L 44.484375 32.71875 
Q 44.484375 40.625 41.703125 44.40625 
Q 38.921875 48.1875 33.109375 48.1875 
Q 26.21875 48.1875 22.15625 43.53125 
Q 18.109375 38.875 18.109375 30.90625 
L 18.109375 0 
L 9.078125 0 
L 9.078125 54.6875 
L 18.109375 54.6875 
L 18.109375 46.1875 
Q 21.1875 51.21875 25.484375 53.609375 
Q 29.78125 56 35.6875 56 
Q 41.65625 56 45.828125 52.96875 
Q 50 49.953125 52 44.1875 
z
" id="DejaVuSans-109"/>
      <path d="M 56.203125 29.59375 
L 56.203125 25.203125 
L 14.890625 25.203125 
Q 15.484375 15.921875 20.484375 11.0625 
Q 25.484375 6.203125 34.421875 6.203125 
Q 39.59375 6.203125 44.453125 7.46875 
Q 49.3125 8.734375 54.109375 11.28125 
L 54.109375 2.78125 
Q 49.265625 0.734375 44.1875 -0.34375 
Q 39.109375 -1.421875 33.890625 -1.421875 
Q 20.796875 -1.421875 13.15625 6.1875 
Q 5.515625 13.8125 5.515625 26.8125 
Q 5.515625 40.234375 12.765625 48.109375 
Q 20.015625 56 32.328125 56 
Q 43.359375 56 49.78125 48.890625 
Q 56.203125 41.796875 56.203125 29.59375 
z
M 47.21875 32.234375 
Q 47.125 39.59375 43.09375 43.984375 
Q 39.0625 48.390625 32.421875 48.390625 
Q 24.90625 48.390625 20.390625 44.140625 
Q 15.875 39.890625 15.1875 32.171875 
z
" id="DejaVuSans-101"/>
      <path id="DejaVuSans-32"/>
      <path d="M 31 75.875 
Q 24.46875 64.65625 21.28125 53.65625 
Q 18.109375 42.671875 18.109375 31.390625 
Q 18.109375 20.125 21.3125 9.0625 
Q 24.515625 -2 31 -13.1875 
L 23.1875 -13.1875 
Q 15.875 -1.703125 12.234375 9.375 
Q 8.59375 20.453125 8.59375 31.390625 
Q 8.59375 42.28125 12.203125 53.3125 
Q 15.828125 64.359375 23.1875 75.875 
z
" id="DejaVuSans-40"/>
      <path d="M 54.890625 33.015625 
L 54.890625 0 
L 45.90625 0 
L 45.90625 32.71875 
Q 45.90625 40.484375 42.875 44.328125 
Q 39.84375 48.1875 33.796875 48.1875 
Q 26.515625 48.1875 22.3125 43.546875 
Q 18.109375 38.921875 18.109375 30.90625 
L 18.109375 0 
L 9.078125 0 
L 9.078125 54.6875 
L 18.109375 54.6875 
L 18.109375 46.1875 
Q 21.34375 51.125 25.703125 53.5625 
Q 30.078125 56 35.796875 56 
Q 45.21875 56 50.046875 50.171875 
Q 54.890625 44.34375 54.890625 33.015625 
z
" id="DejaVuSans-110"/>
      <path d="M 44.28125 53.078125 
L 44.28125 44.578125 
Q 40.484375 46.53125 36.375 47.5 
Q 32.28125 48.484375 27.875 48.484375 
Q 21.1875 48.484375 17.84375 46.4375 
Q 14.5 44.390625 14.5 40.28125 
Q 14.5 37.15625 16.890625 35.375 
Q 19.28125 33.59375 26.515625 31.984375 
L 29.59375 31.296875 
Q 39.15625 29.25 43.1875 25.515625 
Q 47.21875 21.78125 47.21875 15.09375 
Q 47.21875 7.46875 41.1875 3.015625 
Q 35.15625 -1.421875 24.609375 -1.421875 
Q 20.21875 -1.421875 15.453125 -0.5625 
Q 10.6875 0.296875 5.421875 2 
L 5.421875 11.28125 
Q 10.40625 8.6875 15.234375 7.390625 
Q 20.0625 6.109375 24.8125 6.109375 
Q 31.15625 6.109375 34.5625 8.28125 
Q 37.984375 10.453125 37.984375 14.40625 
Q 37.984375 18.0625 35.515625 20.015625 
Q 33.0625 21.96875 24.703125 23.78125 
L 21.578125 24.515625 
Q 13.234375 26.265625 9.515625 29.90625 
Q 5.8125 33.546875 5.8125 39.890625 
Q 5.8125 47.609375 11.28125 51.796875 
Q 16.75 56 26.8125 56 
Q 31.78125 56 36.171875 55.265625 
Q 40.578125 54.546875 44.28125 53.078125 
z
" id="DejaVuSans-115"/>
      <path d="M 48.78125 52.59375 
L 48.78125 44.1875 
Q 44.96875 46.296875 41.140625 47.34375 
Q 37.3125 48.390625 33.40625 48.390625 
Q 24.65625 48.390625 19.8125 42.84375 
Q 14.984375 37.3125 14.984375 27.296875 
Q 14.984375 17.28125 19.8125 11.734375 
Q 24.65625 6.203125 33.40625 6.203125 
Q 37.3125 6.203125 41.140625 7.25 
Q 44.96875 8.296875 48.78125 10.40625 
L 48.78125 2.09375 
Q 45.015625 0.34375 40.984375 -0.53125 
Q 36.96875 -1.421875 32.421875 -1.421875 
Q 20.0625 -1.421875 12.78125 6.34375 
Q 5.515625 14.109375 5.515625 27.296875 
Q 5.515625 40.671875 12.859375 48.328125 
Q 20.21875 56 33.015625 56 
Q 37.15625 56 41.109375 55.140625 
Q 45.0625 54.296875 48.78125 52.59375 
z
" id="DejaVuSans-99"/>
      <path d="M 30.609375 48.390625 
Q 23.390625 48.390625 19.1875 42.75 
Q 14.984375 37.109375 14.984375 27.296875 
Q 14.984375 17.484375 19.15625 11.84375 
Q 23.34375 6.203125 30.609375 6.203125 
Q 37.796875 6.203125 41.984375 11.859375 
Q 46.1875 17.53125 46.1875 27.296875 
Q 46.1875 37.015625 41.984375 42.703125 
Q 37.796875 48.390625 30.609375 48.390625 
z
M 30.609375 56 
Q 42.328125 56 49.015625 48.375 
Q 55.71875 40.765625 55.71875 27.296875 
Q 55.71875 13.875 49.015625 6.21875 
Q 42.328125 -1.421875 30.609375 -1.421875 
Q 18.84375 -1.421875 12.171875 6.21875 
Q 5.515625 13.875 5.515625 27.296875 
Q 5.515625 40.765625 12.171875 48.375 
Q 18.84375 56 30.609375 56 
z
" id="DejaVuSans-111"/>
      <path d="M 45.40625 46.390625 
L 45.40625 75.984375 
L 54.390625 75.984375 
L 54.390625 0 
L 45.40625 0 
L 45.40625 8.203125 
Q 42.578125 3.328125 38.25 0.953125 
Q 33.9375 -1.421875 27.875 -1.421875 
Q 17.96875 -1.421875 11.734375 6.484375 
Q 5.515625 14.40625 5.515625 27.296875 
Q 5.515625 40.1875 11.734375 48.09375 
Q 17.96875 56 27.875 56 
Q 33.9375 56 38.25 53.625 
Q 42.578125 51.265625 45.40625 46.390625 
z
M 14.796875 27.296875 
Q 14.796875 17.390625 18.875 11.75 
Q 22.953125 6.109375 30.078125 6.109375 
Q 37.203125 6.109375 41.296875 11.75 
Q 45.40625 17.390625 45.40625 27.296875 
Q 45.40625 37.203125 41.296875 42.84375 
Q 37.203125 48.484375 30.078125 48.484375 
Q 22.953125 48.484375 18.875 42.84375 
Q 14.796875 37.203125 14.796875 27.296875 
z
" id="DejaVuSans-100"/>
      <path d="M 8.015625 75.875 
L 15.828125 75.875 
Q 23.140625 64.359375 26.78125 53.3125 
Q 30.421875 42.28125 30.421875 31.390625 
Q 30.421875 20.453125 26.78125 9.375 
Q 23.140625 -1.703125 15.828125 -13.1875 
L 8.015625 -13.1875 
Q 14.5 -2 17.703125 9.0625 
Q 20.90625 20.125 20.90625 31.390625 
Q 20.90625 42.671875 17.703125 53.65625 
Q 14.5 64.65625 8.015625 75.875 
z
" id="DejaVuSans-41"/>
     </defs>
     <g transform="translate(191.6975 335.860562)scale(0.1 -0.1)">
      <use xlink:href="#DejaVuSans-84"/>
      <use x="61.037109" xlink:href="#DejaVuSans-105"/>
      <use x="88.820312" xlink:href="#DejaVuSans-109"/>
      <use x="186.232422" xlink:href="#DejaVuSans-101"/>
      <use x="247.755859" xlink:href="#DejaVuSans-32"/>
      <use x="279.542969" xlink:href="#DejaVuSans-40"/>
      <use x="318.556641" xlink:href="#DejaVuSans-105"/>
      <use x="346.339844" xlink:href="#DejaVuSans-110"/>
      <use x="409.71875" xlink:href="#DejaVuSans-32"/>
      <use x="441.505859" xlink:href="#DejaVuSans-115"/>
      <use x="493.605469" xlink:href="#DejaVuSans-101"/>
      <use x="555.128906" xlink:href="#DejaVuSans-99"/>
      <use x="610.109375" xlink:href="#DejaVuSans-111"/>
      <use x="671.291016" xlink:href="#DejaVuSans-110"/>
      <use x="734.669922" xlink:href="#DejaVuSans-100"/>
      <use x="798.146484" xlink:href="#DejaVuSans-115"/>
      <use x="850.246094" xlink:href="#DejaVuSans-41"/>
     </g>
    </g>
   </g>
   <g id="matplotlib.axis_2">
    <g id="ytick_1">
     <g id="line2d_7">
      <defs>
       <path d="M 0 0 
L -3.5 0 
" id="m4b555fd576" style="stroke:#000000;stroke-width:0.8;"/>
      </defs>
      <g>
       <use style="stroke:#000000;stroke-width:0.8;" x="57.6" xlink:href="#m4b555fd576" y="275.728034"/>
      </g>
     </g>
     <g id="text_8">
      <!-- −1.0 -->
      <defs>
       <path d="M 10.59375 35.5 
L 73.1875 35.5 
L 73.1875 27.203125 
L 10.59375 27.203125 
z
" id="DejaVuSans-8722"/>
       <path d="M 10.6875 12.40625 
L 21 12.40625 
L 21 0 
L 10.6875 0 
z
" id="DejaVuSans-46"/>
      </defs>
      <g transform="translate(26.317187 279.527253)scale(0.1 -0.1)">
       <use xlink:href="#DejaVuSans-8722"/>
       <use x="83.789062" xlink:href="#DejaVuSans-49"/>
       <use x="147.412109" xlink:href="#DejaVuSans-46"/>
       <use x="179.199219" xlink:href="#DejaVuSans-48"/>
      </g>
     </g>
    </g>
    <g id="ytick_2">
     <g id="line2d_8">
      <g>
       <use style="stroke:#000000;stroke-width:0.8;" x="57.6" xlink:href="#m4b555fd576" y="229.660247"/>
      </g>
     </g>
     <g id="text_9">
      <!-- −0.5 -->
      <g transform="translate(26.317187 233.459466)scale(0.1 -0.1)">
       <use xlink:href="#DejaVuSans-8722"/>
       <use x="83.789062" xlink:href="#DejaVuSans-48"/>
       <use x="147.412109" xlink:href="#DejaVuSans-46"/>
       <use x="179.199219" xlink:href="#DejaVuSans-53"/>
      </g>
     </g>
    </g>
    <g id="ytick_3">
     <g id="line2d_9">
      <g>
       <use style="stroke:#000000;stroke-width:0.8;" x="57.6" xlink:href="#m4b555fd576" y="183.592461"/>
      </g>
     </g>
     <g id="text_10">
      <!-- 0.0 -->
      <g transform="translate(34.696875 187.39168)scale(0.1 -0.1)">
       <use xlink:href="#DejaVuSans-48"/>
       <use x="63.623047" xlink:href="#DejaVuSans-46"/>
       <use x="95.410156" xlink:href="#DejaVuSans-48"/>
      </g>
     </g>
    </g>
    <g id="ytick_4">
     <g id="line2d_10">
      <g>
       <use style="stroke:#000000;stroke-width:0.8;" x="57.6" xlink:href="#m4b555fd576" y="137.524675"/>
      </g>
     </g>
     <g id="text_11">
      <!-- 0.5 -->
      <g transform="translate(34.696875 141.323893)scale(0.1 -0.1)">
       <use xlink:href="#DejaVuSans-48"/>
       <use x="63.623047" xlink:href="#DejaVuSans-46"/>
       <use x="95.410156" xlink:href="#DejaVuSans-53"/>
      </g>
     </g>
    </g>
    <g id="ytick_5">
     <g id="line2d_11">
      <g>
       <use style="stroke:#000000;stroke-width:0.8;" x="57.6" xlink:href="#m4b555fd576" y="91.456888"/>
      </g>
     </g>
     <g id="text_12">
      <!-- 1.0 -->
      <g transform="translate(34.696875 95.256107)scale(0.1 -0.1)">
       <use xlink:href="#DejaVuSans-49"/>
       <use x="63.623047" xlink:href="#DejaVuSans-46"/>
       <use x="95.410156" xlink:href="#DejaVuSans-48"/>
      </g>
     </g>
    </g>
    <g id="ytick_6">
     <g id="line2d_12">
      <g>
       <use style="stroke:#000000;stroke-width:0.8;" x="57.6" xlink:href="#m4b555fd576" y="45.389102"/>
      </g>
     </g>
     <g id="text_13">
      <!-- 1.5 -->
      <g transform="translate(34.696875 49.188321)scale(0.1 -0.1)">
       <use xlink:href="#DejaVuSans-49"/>
       <use x="63.623047" xlink:href="#DejaVuSans-46"/>
       <use x="95.410156" xlink:href="#DejaVuSans-53"/>
      </g>
     </g>
    </g>
    <g id="text_14">
     <!-- Magnitude -->
     <defs>
      <path d="M 9.8125 72.90625 
L 24.515625 72.90625 
L 43.109375 23.296875 
L 61.8125 72.90625 
L 76.515625 72.90625 
L 76.515625 0 
L 66.890625 0 
L 66.890625 64.015625 
L 48.09375 14.015625 
L 38.1875 14.015625 
L 19.390625 64.015625 
L 19.390625 0 
L 9.8125 0 
z
" id="DejaVuSans-77"/>
      <path d="M 34.28125 27.484375 
Q 23.390625 27.484375 19.1875 25 
Q 14.984375 22.515625 14.984375 16.5 
Q 14.984375 11.71875 18.140625 8.90625 
Q 21.296875 6.109375 26.703125 6.109375 
Q 34.1875 6.109375 38.703125 11.40625 
Q 43.21875 16.703125 43.21875 25.484375 
L 43.21875 27.484375 
z
M 52.203125 31.203125 
L 52.203125 0 
L 43.21875 0 
L 43.21875 8.296875 
Q 40.140625 3.328125 35.546875 0.953125 
Q 30.953125 -1.421875 24.3125 -1.421875 
Q 15.921875 -1.421875 10.953125 3.296875 
Q 6 8.015625 6 15.921875 
Q 6 25.140625 12.171875 29.828125 
Q 18.359375 34.515625 30.609375 34.515625 
L 43.21875 34.515625 
L 43.21875 35.40625 
Q 43.21875 41.609375 39.140625 45 
Q 35.0625 48.390625 27.6875 48.390625 
Q 23 48.390625 18.546875 47.265625 
Q 14.109375 46.140625 10.015625 43.890625 
L 10.015625 52.203125 
Q 14.9375 54.109375 19.578125 55.046875 
Q 24.21875 56 28.609375 56 
Q 40.484375 56 46.34375 49.84375 
Q 52.203125 43.703125 52.203125 31.203125 
z
" id="DejaVuSans-97"/>
      <path d="M 45.40625 27.984375 
Q 45.40625 37.75 41.375 43.109375 
Q 37.359375 48.484375 30.078125 48.484375 
Q 22.859375 48.484375 18.828125 43.109375 
Q 14.796875 37.75 14.796875 27.984375 
Q 14.796875 18.265625 18.828125 12.890625 
Q 22.859375 7.515625 30.078125 7.515625 
Q 37.359375 7.515625 41.375 12.890625 
Q 45.40625 18.265625 45.40625 27.984375 
z
M 54.390625 6.78125 
Q 54.390625 -7.171875 48.1875 -13.984375 
Q 42 -20.796875 29.203125 -20.796875 
Q 24.46875 -20.796875 20.265625 -20.09375 
Q 16.0625 -19.390625 12.109375 -17.921875 
L 12.109375 -9.1875 
Q 16.0625 -11.328125 19.921875 -12.34375 
Q 23.78125 -13.375 27.78125 -13.375 
Q 36.625 -13.375 41.015625 -8.765625 
Q 45.40625 -4.15625 45.40625 5.171875 
L 45.40625 9.625 
Q 42.625 4.78125 38.28125 2.390625 
Q 33.9375 0 27.875 0 
Q 17.828125 0 11.671875 7.65625 
Q 5.515625 15.328125 5.515625 27.984375 
Q 5.515625 40.671875 11.671875 48.328125 
Q 17.828125 56 27.875 56 
Q 33.9375 56 38.28125 53.609375 
Q 42.625 51.21875 45.40625 46.390625 
L 45.40625 54.6875 
L 54.390625 54.6875 
z
" id="DejaVuSans-103"/>
      <path d="M 18.3125 70.21875 
L 18.3125 54.6875 
L 36.8125 54.6875 
L 36.8125 47.703125 
L 18.3125 47.703125 
L 18.3125 18.015625 
Q 18.3125 11.328125 20.140625 9.421875 
Q 21.96875 7.515625 27.59375 7.515625 
L 36.8125 7.515625 
L 36.8125 0 
L 27.59375 0 
Q 17.1875 0 13.234375 3.875 
Q 9.28125 7.765625 9.28125 18.015625 
L 9.28125 47.703125 
L 2.6875 47.703125 
L 2.6875 54.6875 
L 9.28125 54.6875 
L 9.28125 70.21875 
z
" id="DejaVuSans-116"/>
      <path d="M 8.5 21.578125 
L 8.5 54.6875 
L 17.484375 54.6875 
L 17.484375 21.921875 
Q 17.484375 14.15625 20.5 10.265625 
Q 23.53125 6.390625 29.59375 6.390625 
Q 36.859375 6.390625 41.078125 11.03125 
Q 45.3125 15.671875 45.3125 23.6875 
L 45.3125 54.6875 
L 54.296875 54.6875 
L 54.296875 0 
L 45.3125 0 
L 45.3125 8.40625 
Q 42.046875 3.421875 37.71875 1 
Q 33.40625 -1.421875 27.6875 -1.421875 
Q 18.265625 -1.421875 13.375 4.4375 
Q 8.5 10.296875 8.5 21.578125 
z
M 31.109375 56 
z
" id="DejaVuSans-117"/>
     </defs>
     <g transform="translate(20.2375 201.017844)rotate(-90)scale(0.1 -0.1)">
      <use xlink:href="#DejaVuSans-77"/>
      <use x="86.279297" xlink:href="#DejaVuSans-97"/>
      <use x="147.558594" xlink:href="#DejaVuSans-103"/>
      <use x="211.035156" xlink:href="#DejaVuSans-110"/>
      <use x="274.414062" xlink:href="#DejaVuSans-105"/>
      <use x="302.197266" xlink:href="#DejaVuSans-116"/>
      <use x="341.40625" xlink:href="#DejaVuSans-117"/>
      <use x="404.785156" xlink:href="#DejaVuSans-100"/>
      <use x="468.261719" xlink:href="#DejaVuSans-101"/>
     </g>
    </g>
   </g>
   <g id="line2d_13">
    <path clip-path="url(#pbd8685d192)" d="M 73.832727 189.090548 
L 75.092268 187.703652 
L 77.06968 185.89314 
L 78.407532 184.777938 
L 78.733839 184.748546 
L 80.045588 185.102269 
L 80.724303 184.971488 
L 82.329727 184.219441 
L 83.001916 183.543872 
L 83.680632 182.370712 
L 85.286056 179.214041 
L 86.291078 177.701638 
L 86.930636 177.215957 
L 87.583248 177.195788 
L 88.248912 177.565419 
L 89.227828 178.824535 
L 89.88044 180.438516 
L 90.552629 182.204594 
L 91.224818 183.337268 
L 91.890482 183.791445 
L 92.190683 183.562279 
L 92.51699 182.977393 
L 92.856347 181.946532 
L 93.202232 180.387417 
L 93.835264 175.340942 
L 94.520506 168.014697 
L 95.832255 146.194945 
L 96.47834 134.193657 
L 97.130952 124.186079 
L 97.45073 120.837362 
L 97.809667 118.623012 
L 98.135972 117.306693 
L 98.462279 117.486256 
L 98.775532 118.015041 
L 99.108364 118.291296 
L 99.441195 118.910783 
L 99.780553 120.27544 
L 101.079249 129.927682 
L 101.744912 135.082754 
L 103.356864 150.005442 
L 106.006465 170.534019 
L 107.651046 181.142397 
L 109.2891 188.798094 
L 109.615405 189.824598 
L 110.268016 190.661781 
L 110.587796 190.904799 
L 111.259986 190.965663 
L 111.592817 190.858014 
L 111.92565 191.243435 
L 112.251955 191.355147 
L 112.584786 191.193614 
L 112.89804 191.59853 
L 113.25045 192.418195 
L 113.576757 192.865759 
L 113.903062 193.509584 
L 114.568726 194.315015 
L 115.221336 195.972394 
L 116.520034 199.597933 
L 117.166119 200.433274 
L 117.851361 201.0785 
L 119.476362 203.001551 
L 119.822247 202.754512 
L 120.1355 202.712234 
L 120.481383 202.538299 
L 121.440722 201.062451 
L 122.426166 199.612843 
L 123.437713 198.025522 
L 124.410103 195.118408 
L 125.069241 193.053671 
L 127.040128 188.62055 
L 127.692738 187.705506 
L 128.364928 187.429718 
L 129.663625 187.579539 
L 130.342341 187.238983 
L 131.327783 186.47236 
L 132.313226 185.975932 
L 133.938229 185.472434 
L 134.597367 185.328476 
L 135.249977 185.160078 
L 136.90761 183.909284 
L 139.211329 183.525152 
L 140.177193 183.636927 
L 140.510024 183.663465 
L 141.156109 183.935902 
L 141.802194 183.910804 
L 142.461332 183.931722 
L 144.132017 184.264577 
L 144.784628 184.262681 
L 146.102904 184.230281 
L 147.094873 184.594685 
L 153.986448 183.898847 
L 155.64408 183.794332 
L 156.629524 183.664959 
L 159.259548 183.985294 
L 160.878023 184.126162 
L 162.855436 183.865894 
L 164.813269 183.407558 
L 167.80223 182.847707 
L 168.77462 182.988272 
L 169.773115 183.007341 
L 172.403139 183.539547 
L 173.05575 183.672145 
L 173.382055 183.735169 
L 174.034668 183.68661 
L 177.010574 183.709678 
L 177.656661 183.875972 
L 178.968409 183.896834 
L 180.586885 183.697009 
L 181.239495 183.483339 
L 182.251044 183.590839 
L 183.569318 183.492564 
L 184.221929 183.714818 
L 184.887593 183.756545 
L 186.50607 183.547162 
L 187.15868 183.316569 
L 188.829366 183.431535 
L 190.141114 183.592461 
L 190.467419 183.592461 
L 191.126557 183.879816 
L 199.649661 183.341619 
L 202.9584 183.434137 
L 204.257097 183.637696 
L 205.927783 183.931467 
L 207.565836 183.799276 
L 208.211921 183.814519 
L 209.530196 184.137331 
L 209.849975 184.182778 
L 210.835419 184.009084 
L 211.827387 184.030631 
L 214.137632 183.741172 
L 215.442855 183.881541 
L 216.101991 184.04032 
L 217.746572 184.015475 
L 219.051795 183.244852 
L 219.378101 183.195221 
L 220.043764 183.269876 
L 223.665757 183.048153 
L 224.625095 182.99354 
L 228.573393 183.855981 
L 232.221491 183.754105 
L 233.193883 183.5297 
L 234.512157 183.741983 
L 235.151716 183.884757 
L 235.804327 183.958909 
L 238.114572 183.876188 
L 238.427824 183.99692 
L 240.398711 183.794519 
L 241.057848 183.738431 
L 241.723512 183.470184 
L 243.694398 183.374967 
L 244.999621 183.522055 
L 248.615087 183.650633 
L 251.604047 183.976836 
L 258.502149 183.291613 
L 259.161286 183.083045 
L 261.125646 182.889663 
L 263.435889 183.09736 
L 264.095027 183.312964 
L 265.073945 183.302584 
L 265.713503 183.529086 
L 266.705473 183.441012 
L 267.371137 183.538863 
L 268.010694 183.741514 
L 269.96853 183.980504 
L 270.62114 184.016984 
L 273.597048 183.822666 
L 274.928375 184.193803 
L 275.920344 184.127829 
L 277.238619 183.875481 
L 279.509706 183.451994 
L 280.821455 183.459223 
L 282.805394 183.412282 
L 283.771259 183.335045 
L 284.763228 183.522643 
L 285.428891 183.596656 
L 289.703495 183.591541 
L 291.034822 183.434941 
L 293.332014 183.619793 
L 295.596574 183.684236 
L 298.25923 183.308265 
L 300.223589 183.307331 
L 300.549894 183.318492 
L 301.528812 183.585268 
L 302.194476 183.510716 
L 305.144278 183.676658 
L 306.814963 183.934841 
L 307.467574 183.728965 
L 309.118681 183.570857 
L 310.763262 183.287775 
L 311.402821 183.419232 
L 313.047401 183.395637 
L 314.032844 183.307798 
L 314.685456 183.247827 
L 316.010256 183.356276 
L 317.955038 183.411912 
L 319.606145 183.652389 
L 319.945503 183.917784 
L 321.270303 183.890742 
L 325.538381 183.655164 
L 326.184466 183.787584 
L 330.45907 183.997233 
L 331.124734 184.208844 
L 331.77082 184.027711 
L 333.069516 184.092143 
L 336.045424 183.709077 
L 338.995227 183.230991 
L 339.667416 183.240445 
L 340.313501 183.097504 
L 341.964608 182.832924 
L 342.61722 182.876381 
L 343.26983 182.967066 
L 345.567022 183.7453 
L 346.898349 184.278347 
L 347.557487 184.357037 
L 348.869236 184.284553 
L 349.18249 184.492519 
L 350.487711 184.684417 
L 351.159902 184.560983 
L 353.783399 182.905374 
L 354.768842 182.291276 
L 355.421453 182.481325 
L 356.739729 183.114363 
L 357.751276 182.923848 
L 358.717141 182.91229 
L 359.056499 183.123143 
L 360.009311 184.218353 
L 360.674974 184.708562 
L 361.327585 185.108201 
L 361.673469 185.166604 
L 362.352185 184.964213 
L 362.99827 184.231183 
L 363.350681 183.793572 
L 363.957609 182.770938 
L 364.616747 181.655102 
L 365.282411 180.253777 
L 365.602189 179.470158 
L 365.9546 178.206289 
L 366.587632 174.421646 
L 366.933517 174.421646 
L 367.272874 170.263336 
L 367.918959 166.671904 
L 368.238739 165.342912 
L 368.571571 164.66537 
L 369.230709 162.520618 
L 369.56354 162.14233 
L 369.896373 162.403602 
L 370.209625 162.402608 
L 370.542458 162.058648 
L 371.201594 160.549444 
L 371.547478 159.112376 
L 372.20009 154.2479 
L 372.833122 151.239633 
L 373.511839 149.979021 
L 373.838144 149.951309 
L 374.170977 149.737704 
L 374.484229 148.794187 
L 374.817062 149.352883 
L 375.149893 152.31857 
L 376.135336 165.308073 
L 376.44859 167.024803 
L 376.774895 167.58701 
L 377.101201 167.323873 
L 377.427506 166.398713 
L 378.758833 160.475448 
L 379.072087 159.755864 
L 379.424497 159.544104 
L 379.744276 160.05522 
L 380.064056 160.327175 
L 380.37731 160.094039 
L 380.723194 160.10548 
L 381.375804 161.644727 
L 382.041468 163.710039 
L 382.707131 166.32443 
L 385.01085 178.1027 
L 385.983241 181.385627 
L 386.968684 183.944718 
L 387.281937 184.437816 
L 387.614769 184.729858 
L 387.973706 184.842816 
L 388.613264 184.665447 
L 389.598707 184.099173 
L 390.238266 183.345972 
L 391.563068 181.074499 
L 392.574615 180.175816 
L 393.207647 179.893594 
L 393.860259 179.840304 
L 394.858754 180.07494 
L 396.483757 180.764753 
L 397.802031 181.481075 
L 398.487273 181.882555 
L 398.487273 181.882555 
" style="fill:none;stroke:#1f77b4;stroke-linecap:square;stroke-width:1.5;"/>
   </g>
   <g id="line2d_14">
    <path clip-path="url(#pbd8685d192)" d="M 73.832727 197.690215 
L 76.404016 193.098395 
L 77.389459 190.711174 
L 78.407532 187.823452 
L 80.724303 182.910969 
L 82.656032 177.231946 
L 84.646497 171.989282 
L 86.623909 165.672534 
L 88.568691 157.937974 
L 88.901522 155.712451 
L 89.554135 146.798533 
L 90.552629 131.458238 
L 91.557651 117.997839 
L 93.502433 96.71689 
L 94.174622 91.919093 
L 94.520506 90.388337 
L 94.820707 89.747046 
L 95.166591 90.028317 
L 95.492897 91.034917 
L 96.132456 94.292121 
L 97.130952 100.591933 
L 98.135972 108.148666 
L 99.441195 121.565946 
L 100.772522 134.21381 
L 101.744912 144.243038 
L 102.704252 152.012548 
L 104.374937 161.476293 
L 105.353854 165.699121 
L 106.665603 169.661234 
L 107.651046 172.086433 
L 109.2891 175.72895 
L 110.268016 178.099018 
L 110.920628 179.171624 
L 111.92565 180.423058 
L 112.251955 180.61512 
L 112.584786 180.5589 
L 113.25045 179.901412 
L 115.221336 177.619915 
L 115.860896 177.187293 
L 116.520034 177.242131 
L 117.525055 177.63138 
L 120.481383 179.640744 
L 121.120943 179.835053 
L 121.760502 179.694142 
L 123.10488 179.04332 
L 123.757493 178.52467 
L 124.723357 177.356606 
L 126.054684 175.761741 
L 126.713822 175.304028 
L 127.040128 175.225019 
L 128.025571 175.478273 
L 128.665129 175.88744 
L 132.313226 178.767758 
L 133.298669 179.180077 
L 134.597367 179.601721 
L 135.595861 179.732507 
L 138.865445 179.87706 
L 141.156109 180.366244 
L 143.1531 181.001409 
L 145.450292 181.893253 
L 147.4016 182.406829 
L 148.732927 182.535159 
L 152.348394 182.615423 
L 155.96386 182.734677 
L 157.947799 182.959887 
L 160.878023 183.311043 
L 166.151123 183.608684 
L 169.773115 183.328482 
L 172.73597 183.124304 
L 186.199343 183.764724 
L 191.446337 183.574187 
L 194.735498 183.352095 
L 198.018133 183.360567 
L 201.972957 183.659065 
L 205.927783 183.934277 
L 209.849975 183.570869 
L 212.16022 183.280479 
L 214.450886 183.229285 
L 218.732016 183.332329 
L 224.984032 183.120824 
L 227.261645 183.375104 
L 229.258635 183.680543 
L 231.203418 183.819672 
L 232.841472 183.757364 
L 238.427824 183.395948 
L 243.374619 183.47875 
L 245.358556 183.499292 
L 248.615087 183.422416 
L 257.497127 183.679858 
L 264.741112 183.328918 
L 267.371137 183.410984 
L 270.294835 183.613409 
L 277.238619 183.828151 
L 288.404798 183.611942 
L 289.703495 183.57359 
L 298.25923 183.114653 
L 300.895778 183.317325 
L 302.827508 183.443682 
L 310.763262 183.458597 
L 313.360655 183.512962 
L 318.307448 183.477811 
L 321.929441 183.438003 
L 325.538381 183.587626 
L 327.515793 183.771737 
L 331.124734 183.938933 
L 333.4154 183.81248 
L 336.365204 183.558052 
L 338.995227 183.362372 
L 343.26983 183.397439 
L 352.47165 184.101371 
L 353.130788 184.415257 
L 356.087116 186.529296 
L 357.079085 187.191179 
L 358.717141 188.010675 
L 360.674974 188.637902 
L 362.671965 189.037122 
L 364.316546 189.987911 
L 365.602189 191.735647 
L 366.587632 193.251933 
L 366.933517 193.251933 
L 368.238739 197.003542 
L 368.571571 199.012588 
L 369.56354 209.308068 
L 369.896373 211.64309 
L 370.209625 214.96865 
L 370.868763 223.928116 
L 371.547478 230.409807 
L 373.159429 251.488584 
L 374.170977 265.078479 
L 376.135336 293.064309 
L 376.44859 294.887377 
L 376.774895 295.488 
L 377.101201 294.94674 
L 377.766864 291.91267 
L 378.426002 286.66683 
L 379.072087 278.646649 
L 379.424497 274.208193 
L 380.064056 264.056073 
L 381.375804 249.906091 
L 382.707131 240.062784 
L 383.999302 231.819721 
L 385.01085 225.527497 
L 386.316072 216.320125 
L 387.281937 210.446599 
L 390.238266 194.654156 
L 391.236762 190.744567 
L 391.915477 188.738217 
L 392.907446 186.026576 
L 393.860259 184.176796 
L 394.532449 183.485619 
L 394.858754 183.174102 
L 395.517892 182.934091 
L 396.816589 183.235893 
L 397.4692 183.657537 
L 398.487273 184.192334 
L 398.487273 184.192334 
" style="fill:none;stroke:#ff7f0e;stroke-linecap:square;stroke-width:1.5;"/>
   </g>
   <g id="line2d_15">
    <path clip-path="url(#pbd8685d192)" d="M 73.832727 181.917118 
L 74.43313 181.328716 
L 75.751405 181.022699 
L 76.404016 181.073231 
L 77.06968 181.181181 
L 77.389459 181.045994 
L 78.407532 180.055235 
L 79.392976 180.190373 
L 79.719281 180.016611 
L 80.045588 179.977389 
L 80.378419 180.063665 
L 81.031031 180.722462 
L 81.70322 181.850718 
L 82.656032 183.779765 
L 83.680632 185.85529 
L 85.63194 190.905728 
L 87.909554 197.22552 
L 88.568691 198.434104 
L 88.901522 198.289168 
L 89.227828 196.382283 
L 90.213271 186.636024 
L 90.552629 185.23518 
L 90.891987 185.093649 
L 91.890482 187.026767 
L 92.51699 191.162459 
L 93.202232 197.130966 
L 95.832255 227.861227 
L 96.132456 229.929431 
L 96.47834 230.904898 
L 96.804645 230.859235 
L 97.130952 229.936221 
L 97.809667 226.274247 
L 98.462279 221.268684 
L 100.426638 204.821487 
L 101.079249 201.009643 
L 101.405556 199.79849 
L 102.058166 198.556213 
L 103.050135 197.128147 
L 104.042104 195.468744 
L 104.374937 194.979991 
L 104.707768 195.02282 
L 105.353854 196.184114 
L 106.345823 198.787501 
L 108.649541 207.582685 
L 109.2891 210.51161 
L 109.935185 212.453356 
L 110.920628 214.5132 
L 111.92565 215.552406 
L 112.251955 215.569137 
L 112.584786 215.15586 
L 112.89804 214.948909 
L 113.25045 214.869903 
L 113.903062 213.879244 
L 115.221336 210.448396 
L 115.860896 209.235328 
L 116.520034 208.190302 
L 117.851361 205.603834 
L 118.510497 204.802432 
L 119.476362 204.435016 
L 119.822247 204.003371 
L 120.481383 203.714847 
L 122.426166 201.694767 
L 123.437713 200.727914 
L 124.083798 199.194137 
L 126.38099 192.571034 
L 127.366433 189.833444 
L 129.004487 187.031955 
L 129.663625 186.271239 
L 130.655594 185.589117 
L 132.313226 185.093344 
L 135.249977 184.699528 
L 136.90761 183.338829 
L 138.206307 183.086781 
L 138.539138 182.855517 
L 139.850888 182.825046 
L 140.510024 182.843222 
L 141.156109 183.101388 
L 141.802194 182.994308 
L 142.135027 182.907595 
L 143.1531 183.094488 
L 143.799185 183.293056 
L 145.450292 183.146439 
L 146.102904 183.246083 
L 147.094873 183.858955 
L 147.4016 183.8769 
L 147.740958 184.020575 
L 151.369477 183.847649 
L 152.348394 184.091439 
L 152.994479 184.048812 
L 154.319279 184.128781 
L 157.947799 183.670545 
L 159.905633 183.812475 
L 161.537161 183.765212 
L 162.522605 183.506908 
L 163.188268 183.343692 
L 163.527625 183.183452 
L 164.519595 182.992519 
L 165.498511 182.720286 
L 165.824816 182.714826 
L 166.477429 182.427345 
L 166.816787 182.497866 
L 167.80223 182.270759 
L 168.77462 182.54089 
L 169.773115 182.644063 
L 172.403139 183.508267 
L 172.73597 183.564271 
L 173.382055 183.837951 
L 173.727941 183.740447 
L 174.374026 183.796332 
L 175.346416 183.68882 
L 176.025132 183.791836 
L 176.671218 183.790476 
L 177.010574 183.817683 
L 177.656661 184.024806 
L 178.622525 184.078575 
L 180.926243 183.482891 
L 181.239495 183.306304 
L 181.918212 183.466213 
L 182.910181 183.380216 
L 183.236487 183.265579 
L 183.569318 183.288391 
L 184.221929 183.562783 
L 184.887593 183.630174 
L 186.50607 183.384654 
L 187.15868 183.103355 
L 188.829366 183.316207 
L 190.141114 183.592461 
L 190.467419 183.592461 
L 191.126557 183.971729 
L 194.063309 183.763306 
L 194.735498 183.811916 
L 196.699858 183.39916 
L 197.704879 183.400478 
L 198.364016 183.436239 
L 199.016629 183.240101 
L 199.989019 183.222575 
L 200.635104 183.039501 
L 201.627073 183.060983 
L 202.305789 182.917755 
L 202.9584 183.109583 
L 203.924265 183.313127 
L 204.929286 183.623523 
L 205.59495 183.850204 
L 207.219953 183.705278 
L 208.211921 183.788543 
L 209.530196 184.352515 
L 209.849975 184.447132 
L 210.835419 184.265984 
L 211.827387 184.307605 
L 214.137632 183.888747 
L 215.442855 183.977752 
L 216.101991 184.080355 
L 217.100487 183.99342 
L 217.413741 184.059258 
L 218.072878 183.589508 
L 218.732016 183.025732 
L 219.378101 182.830046 
L 219.710933 182.977668 
L 221.029207 182.997711 
L 222.014651 183.153507 
L 224.324894 182.916544 
L 227.933836 183.773502 
L 228.573393 183.758388 
L 229.258635 183.734857 
L 231.88866 183.642346 
L 232.515166 183.437797 
L 232.841472 183.3132 
L 233.526714 183.369079 
L 235.804327 183.98495 
L 237.103024 183.803655 
L 237.435855 183.719319 
L 238.767182 183.987644 
L 239.432846 183.795072 
L 240.764173 183.77468 
L 241.397207 183.494456 
L 241.723512 183.310858 
L 243.694398 183.210264 
L 244.999621 183.403974 
L 247.969002 183.483256 
L 249.613582 183.857853 
L 249.939889 183.839925 
L 250.925332 184.178789 
L 257.177348 182.975151 
L 258.502149 182.88165 
L 259.161286 182.675751 
L 259.487591 182.643481 
L 259.820423 182.492863 
L 260.140203 182.482115 
L 261.79131 182.964992 
L 263.103058 183.134979 
L 264.095027 183.606042 
L 265.073945 183.574161 
L 265.713503 183.825101 
L 266.705473 183.627214 
L 267.371137 183.703301 
L 268.010694 183.921967 
L 269.635697 183.969302 
L 270.294835 184.115285 
L 273.597048 183.747076 
L 274.928375 184.286961 
L 275.594039 184.223864 
L 276.253175 184.184613 
L 277.571451 183.880949 
L 279.849064 183.761891 
L 280.488624 183.866809 
L 280.821455 183.755529 
L 282.146256 183.693346 
L 284.117143 183.507103 
L 284.456501 183.592461 
L 284.763228 183.535756 
L 285.115637 183.592461 
L 286.088029 183.281894 
L 287.732609 183.061197 
L 288.078492 182.985781 
L 289.396768 183.103561 
L 290.701989 182.859306 
L 291.667854 182.965962 
L 292.326992 183.137224 
L 292.98613 183.256499 
L 294.957016 183.773824 
L 296.249187 183.724282 
L 297.919872 183.542767 
L 298.905315 183.48693 
L 299.564451 183.551875 
L 300.549894 183.462305 
L 301.528812 183.769654 
L 302.194476 183.627882 
L 304.817973 183.523671 
L 306.814963 183.844423 
L 307.467574 183.537313 
L 310.097598 183.195561 
L 310.417378 183.04108 
L 310.763262 183.021134 
L 311.076516 183.194265 
L 312.708044 183.354602 
L 314.032844 183.348732 
L 314.685456 183.311533 
L 315.690476 183.495356 
L 319.606145 183.776275 
L 319.945503 184.133457 
L 320.937472 184.031869 
L 321.929441 183.775575 
L 322.575526 183.788904 
L 323.880749 183.523913 
L 325.199023 183.393438 
L 329.799934 183.895517 
L 330.45907 184.040636 
L 330.765799 184.269064 
L 331.124734 184.367734 
L 331.437988 184.203108 
L 331.77082 184.166665 
L 332.756262 184.385146 
L 334.068012 184.446342 
L 334.727148 184.21848 
L 335.712592 184.068315 
L 336.365204 183.93476 
L 336.691509 183.747853 
L 337.990205 183.544904 
L 339.328059 183.328708 
L 339.667416 183.294667 
L 339.974144 183.119765 
L 340.966113 182.880897 
L 341.964608 182.637192 
L 342.290914 182.587789 
L 344.242221 183.21343 
L 344.888307 183.504476 
L 345.899855 183.990058 
L 346.572044 184.381161 
L 347.231182 184.609481 
L 347.883793 184.633667 
L 348.54293 184.524627 
L 348.869236 184.584031 
L 349.18249 184.918873 
L 350.487711 185.34226 
L 351.159902 185.200026 
L 353.130788 183.544916 
L 354.768842 181.576048 
L 355.421453 181.417748 
L 356.739729 181.415609 
L 357.751276 180.617373 
L 358.717141 179.926595 
L 359.056499 179.902655 
L 359.70911 180.277152 
L 361.673469 181.386537 
L 362.012827 181.311086 
L 362.352185 181.388743 
L 363.350681 181.05062 
L 363.957609 180.549461 
L 364.316546 180.297892 
L 364.616747 180.245565 
L 364.962631 180.515888 
L 365.9546 182.27011 
L 366.27438 182.382531 
L 366.933517 182.31964 
L 367.586128 183.429295 
L 368.238739 185.438217 
L 368.571571 187.040808 
L 369.896373 196.287806 
L 370.542458 200.253264 
L 370.868763 200.795935 
L 371.201594 200.286119 
L 371.547478 199.284126 
L 372.20009 195.30141 
L 373.159429 188.055254 
L 373.838144 181.549856 
L 374.484229 172.613926 
L 375.149893 161.523132 
L 377.427506 117.790626 
L 377.766864 114.132908 
L 378.426002 110.229364 
L 378.758833 109.675528 
L 379.424497 111.168879 
L 380.723194 121.735669 
L 383.01386 145.447133 
L 384.358238 154.886005 
L 384.678018 156.529599 
L 385.343681 158.523308 
L 385.676514 159.478291 
L 386.316072 162.093087 
L 387.281937 164.31141 
L 387.973706 165.3269 
L 388.293484 165.48847 
L 388.946096 165.371148 
L 389.598707 165.264974 
L 389.911961 165.539606 
L 390.897404 166.020817 
L 391.563068 166.568749 
L 391.915477 167.117708 
L 393.533954 168.111345 
L 393.860259 168.040457 
L 394.858754 168.420096 
L 395.517892 169.015466 
L 396.483757 170.472002 
L 396.816589 170.822525 
L 397.4692 172.038953 
L 397.802031 172.584402 
L 398.128338 173.341294 
L 398.487273 173.857011 
L 398.487273 173.857011 
" style="fill:none;stroke:#2ca02c;stroke-linecap:square;stroke-width:1.5;"/>
   </g>
   <g id="line2d_16">
    <path clip-path="url(#pbd8685d192)" d="M 73.832727 168.368059 
L 76.736849 174.135789 
L 78.407532 177.951662 
L 79.392976 179.292502 
L 81.031031 180.067225 
L 81.357336 179.913267 
L 81.70322 179.512577 
L 82.656032 177.219038 
L 83.680632 174.269905 
L 85.286056 167.963243 
L 86.623909 162.050411 
L 88.248912 154.749458 
L 88.901522 151.638041 
L 89.227828 149.086018 
L 89.88044 140.738251 
L 91.224818 121.918586 
L 94.174622 87.793398 
L 95.166591 79.539472 
L 96.132456 73.9775 
L 96.804645 71.842867 
L 97.130952 71.494513 
L 97.45073 71.965574 
L 97.809667 73.304077 
L 98.135972 75.356132 
L 100.100333 97.262445 
L 102.058166 123.426996 
L 104.042104 144.599582 
L 105.353854 155.30215 
L 106.006465 158.664305 
L 106.345823 159.831555 
L 106.665603 160.522057 
L 106.998434 160.929019 
L 107.318214 160.802952 
L 107.983877 159.640932 
L 108.323235 158.853194 
L 108.943216 156.436095 
L 109.615405 154.003139 
L 110.920628 151.493607 
L 111.92565 150.577001 
L 112.251955 150.552611 
L 112.584786 150.985281 
L 112.89804 151.061119 
L 113.25045 150.884728 
L 113.903062 151.414735 
L 114.881978 153.244495 
L 115.521537 153.586587 
L 115.860896 153.566683 
L 116.193728 153.428069 
L 116.520034 153.566545 
L 116.846339 153.855542 
L 117.525055 154.660379 
L 118.17114 155.029376 
L 118.510497 155.170297 
L 119.476362 154.74479 
L 119.822247 155.247185 
L 120.481383 155.673448 
L 123.10488 160.20563 
L 123.437713 160.683062 
L 124.410103 164.035464 
L 125.069241 166.45676 
L 126.713822 170.757357 
L 127.366433 172.284441 
L 128.364928 173.704947 
L 129.343845 174.903483 
L 130.342341 176.015359 
L 131.327783 177.165293 
L 132.313226 178.00575 
L 133.611923 178.739432 
L 135.249977 179.265079 
L 136.222368 179.648801 
L 137.89958 179.728651 
L 139.850888 179.968698 
L 141.475889 180.392254 
L 142.813743 180.784371 
L 146.102904 181.920143 
L 146.76204 181.969778 
L 148.4262 182.113998 
L 149.71837 182.339448 
L 152.03514 182.409008 
L 154.984943 182.516501 
L 158.587357 182.940373 
L 160.564769 182.959463 
L 161.537161 183.009349 
L 162.522605 183.22148 
L 163.188268 183.268047 
L 163.860457 183.15167 
L 164.519595 182.985249 
L 165.498511 182.662052 
L 165.824816 182.653081 
L 166.477429 182.297927 
L 166.816787 182.378614 
L 167.80223 182.073908 
L 168.448315 182.349275 
L 170.105948 182.57848 
L 170.771611 182.828987 
L 173.727941 183.107925 
L 174.713382 183.133671 
L 177.010574 183.210724 
L 177.656661 183.03056 
L 178.622525 182.982213 
L 180.926243 183.464576 
L 181.239495 183.279208 
L 181.918212 183.465216 
L 182.910181 183.369839 
L 183.236487 183.240465 
L 183.569318 183.266417 
L 183.895624 183.435835 
L 185.873036 183.391268 
L 186.50607 183.322533 
L 187.15868 183.016332 
L 188.496535 183.16095 
L 190.141114 183.592461 
L 190.467419 183.592461 
L 191.126557 183.116352 
L 193.737003 183.369839 
L 194.735498 183.255801 
L 195.394636 183.309347 
L 197.704879 183.206869 
L 198.364016 183.280774 
L 199.336407 183.133671 
L 199.989019 183.133671 
L 200.635104 182.943633 
L 201.307293 183.037811 
L 202.612516 182.895508 
L 203.271654 183.14258 
L 204.602981 183.243985 
L 205.927783 183.067814 
L 207.565836 183.254109 
L 208.211921 183.255801 
L 209.849975 182.553518 
L 210.835419 182.778606 
L 211.827387 182.706448 
L 214.137632 183.091495 
L 215.442855 183.020542 
L 216.101991 182.887512 
L 217.100487 182.943633 
L 217.413741 182.855974 
L 218.072878 183.294044 
L 218.399183 183.200264 
L 219.051795 182.748409 
L 219.378101 182.688211 
L 219.710933 182.855974 
L 221.029207 182.835883 
L 222.014651 182.931274 
L 223.326399 182.715481 
L 223.97901 182.610936 
L 224.324894 182.516501 
L 227.261645 183.354407 
L 227.933836 183.322533 
L 228.573393 183.280774 
L 229.258635 183.255801 
L 231.203418 183.210724 
L 231.88866 183.255801 
L 232.515166 183.336691 
L 233.193883 183.266417 
L 234.172799 183.465216 
L 234.512157 183.412509 
L 235.151716 183.190075 
L 235.804327 183.049891 
L 237.788266 183.210725 
L 238.767182 183.026233 
L 239.432846 183.232556 
L 240.398711 183.280775 
L 240.764173 183.268047 
L 241.397207 183.436618 
L 241.723512 183.255801 
L 242.715481 183.045157 
L 243.374619 183.009349 
L 244.046808 183.232556 
L 245.358556 183.372065 
L 246.657254 183.277626 
L 247.31639 183.369839 
L 247.969002 183.411605 
L 248.954445 183.391268 
L 249.613582 183.208806 
L 249.939889 183.232556 
L 250.925332 182.834308 
L 252.582964 183.15167 
L 254.893207 183.355591 
L 258.502149 182.819841 
L 259.161286 182.543166 
L 259.487591 182.490481 
L 259.820423 182.291688 
L 260.140203 182.252518 
L 261.79131 182.661444 
L 263.103058 182.777692 
L 264.095027 183.210724 
L 265.073945 183.200264 
L 265.40025 183.294044 
L 266.046335 183.307931 
L 267.371137 183.373162 
L 268.983086 183.099641 
L 269.635697 183.099641 
L 270.294835 182.907223 
L 271.293329 183.124931 
L 271.972046 183.254109 
L 273.597048 183.279208 
L 274.275763 182.979146 
L 274.608596 182.720109 
L 274.928375 182.639739 
L 275.594039 182.720401 
L 276.253175 182.777692 
L 277.571451 183.170435 
L 279.509706 183.372065 
L 280.488624 183.280774 
L 281.487118 183.391268 
L 284.117143 183.412509 
L 284.456501 183.592461 
L 284.763228 183.502485 
L 285.115637 183.592461 
L 286.088029 183.280774 
L 287.732609 183.060155 
L 288.078492 182.982213 
L 289.396768 183.099641 
L 290.701989 182.839666 
L 291.667854 182.937424 
L 292.326992 183.099641 
L 294.637237 183.15167 
L 295.296373 183.075587 
L 298.905315 183.045157 
L 299.910335 183.116352 
L 300.549894 183.149455 
L 301.228611 183.321176 
L 302.194476 183.370958 
L 303.48012 183.465216 
L 304.145784 183.372065 
L 304.485142 183.465216 
L 305.809942 183.306502 
L 306.482132 183.133671 
L 306.814963 183.15167 
L 307.154321 183.354407 
L 308.113661 183.391268 
L 308.772797 183.354406 
L 309.444988 183.22148 
L 310.097598 183.15167 
L 310.417378 182.962628 
L 310.763262 182.931274 
L 311.076516 183.133671 
L 312.055432 183.254109 
L 313.047401 183.280774 
L 313.700013 183.268047 
L 314.685456 183.14258 
L 315.690476 183.322533 
L 319.286365 183.412509 
L 319.606145 183.354406 
L 319.945503 182.949902 
L 320.937472 183.026233 
L 321.929441 183.255801 
L 322.575526 183.22148 
L 323.541391 183.390257 
L 324.546412 183.35321 
L 328.142301 183.255801 
L 330.145818 182.949903 
L 330.45907 182.901341 
L 330.765799 182.648782 
L 331.124734 182.543167 
L 331.437988 182.753219 
L 331.77082 182.813244 
L 332.756262 182.610157 
L 334.068012 182.598641 
L 334.727148 182.895508 
L 335.712592 183.091495 
L 336.365204 183.243985 
L 336.691509 183.410691 
L 337.990205 183.307931 
L 340.966113 182.623387 
L 341.964608 182.345713 
L 342.290914 182.291688 
L 344.242221 183.099641 
L 344.888307 183.465216 
L 345.234191 183.502485 
L 345.567022 183.354406 
L 346.572044 182.602722 
L 347.231182 182.326382 
L 347.883793 182.300884 
L 348.54293 182.437948 
L 348.869236 182.371963 
L 349.18249 181.975387 
L 350.487711 181.505469 
L 350.840122 181.532352 
L 351.159902 181.680584 
L 352.47165 182.86705 
L 352.804481 182.878297 
L 353.130788 182.753219 
L 353.783399 181.904353 
L 354.768842 180.522669 
L 356.087116 179.878225 
L 356.739729 179.515555 
L 358.058003 178.299723 
L 358.717141 177.8113 
L 359.056499 177.721657 
L 359.70911 177.763875 
L 362.352185 177.69757 
L 363.350681 177.258298 
L 364.316546 176.275087 
L 365.602189 174.304736 
L 365.9546 173.275166 
L 366.587632 170.212277 
L 366.933517 170.212277 
L 367.272874 166.528826 
L 368.571571 158.936707 
L 369.56354 148.358253 
L 369.896373 146.216301 
L 370.209625 143.022708 
L 370.868763 134.361902 
L 371.201594 131.944001 
L 371.547478 128.48015 
L 372.833122 111.925749 
L 374.170977 95.139326 
L 376.135336 64.644036 
L 376.774895 57.519378 
L 377.101201 55.434222 
L 377.766864 53.568 
L 378.106222 54.252276 
L 378.426002 55.192285 
L 378.758833 57.522314 
L 379.424497 65.124282 
L 380.064056 76.025981 
L 383.346691 118.895077 
L 384.678018 131.454239 
L 387.281937 150.522561 
L 388.293484 155.529295 
L 389.598707 160.393415 
L 390.238266 162.525226 
L 390.897404 164.093611 
L 391.915477 166.094146 
L 392.574615 166.87537 
L 393.533954 167.619547 
L 393.860259 167.583559 
L 394.858754 168.012069 
L 395.517892 168.63552 
L 396.483757 170.163431 
L 396.816589 170.540488 
L 397.4692 171.814643 
L 398.487273 173.689804 
L 398.487273 173.689804 
" style="fill:none;stroke:#d62728;stroke-linecap:square;stroke-width:1.5;"/>
   </g>
   <g id="patch_3">
    <path d="M 57.6 307.584 
L 57.6 41.472 
" style="fill:none;stroke:#000000;stroke-linecap:square;stroke-linejoin:miter;stroke-width:0.8;"/>
   </g>
   <g id="patch_4">
    <path d="M 414.72 307.584 
L 414.72 41.472 
" style="fill:none;stroke:#000000;stroke-linecap:square;stroke-linejoin:miter;stroke-width:0.8;"/>
   </g>
   <g id="patch_5">
    <path d="M 57.6 307.584 
L 414.72 307.584 
" style="fill:none;stroke:#000000;stroke-linecap:square;stroke-linejoin:miter;stroke-width:0.8;"/>
   </g>
   <g id="patch_6">
    <path d="M 57.6 41.472 
L 414.72 41.472 
" style="fill:none;stroke:#000000;stroke-linecap:square;stroke-linejoin:miter;stroke-width:0.8;"/>
   </g>
   <g id="text_15">
    <!-- Vivo 1716/car_off/gyro Dec 09 120835.txt -->
    <defs>
     <path d="M 28.609375 0 
L 0.78125 72.90625 
L 11.078125 72.90625 
L 34.1875 11.53125 
L 57.328125 72.90625 
L 67.578125 72.90625 
L 39.796875 0 
z
" id="DejaVuSans-86"/>
     <path d="M 2.984375 54.6875 
L 12.5 54.6875 
L 29.59375 8.796875 
L 46.6875 54.6875 
L 56.203125 54.6875 
L 35.6875 0 
L 23.484375 0 
z
" id="DejaVuSans-118"/>
     <path d="M 8.203125 72.90625 
L 55.078125 72.90625 
L 55.078125 68.703125 
L 28.609375 0 
L 18.3125 0 
L 43.21875 64.59375 
L 8.203125 64.59375 
z
" id="DejaVuSans-55"/>
     <path d="M 33.015625 40.375 
Q 26.375 40.375 22.484375 35.828125 
Q 18.609375 31.296875 18.609375 23.390625 
Q 18.609375 15.53125 22.484375 10.953125 
Q 26.375 6.390625 33.015625 6.390625 
Q 39.65625 6.390625 43.53125 10.953125 
Q 47.40625 15.53125 47.40625 23.390625 
Q 47.40625 31.296875 43.53125 35.828125 
Q 39.65625 40.375 33.015625 40.375 
z
M 52.59375 71.296875 
L 52.59375 62.3125 
Q 48.875 64.0625 45.09375 64.984375 
Q 41.3125 65.921875 37.59375 65.921875 
Q 27.828125 65.921875 22.671875 59.328125 
Q 17.53125 52.734375 16.796875 39.40625 
Q 19.671875 43.65625 24.015625 45.921875 
Q 28.375 48.1875 33.59375 48.1875 
Q 44.578125 48.1875 50.953125 41.515625 
Q 57.328125 34.859375 57.328125 23.390625 
Q 57.328125 12.15625 50.6875 5.359375 
Q 44.046875 -1.421875 33.015625 -1.421875 
Q 20.359375 -1.421875 13.671875 8.265625 
Q 6.984375 17.96875 6.984375 36.375 
Q 6.984375 53.65625 15.1875 63.9375 
Q 23.390625 74.21875 37.203125 74.21875 
Q 40.921875 74.21875 44.703125 73.484375 
Q 48.484375 72.75 52.59375 71.296875 
z
" id="DejaVuSans-54"/>
     <path d="M 25.390625 72.90625 
L 33.6875 72.90625 
L 8.296875 -9.28125 
L 0 -9.28125 
z
" id="DejaVuSans-47"/>
     <path d="M 41.109375 46.296875 
Q 39.59375 47.171875 37.8125 47.578125 
Q 36.03125 48 33.890625 48 
Q 26.265625 48 22.1875 43.046875 
Q 18.109375 38.09375 18.109375 28.8125 
L 18.109375 0 
L 9.078125 0 
L 9.078125 54.6875 
L 18.109375 54.6875 
L 18.109375 46.1875 
Q 20.953125 51.171875 25.484375 53.578125 
Q 30.03125 56 36.53125 56 
Q 37.453125 56 38.578125 55.875 
Q 39.703125 55.765625 41.0625 55.515625 
z
" id="DejaVuSans-114"/>
     <path d="M 50.984375 -16.609375 
L 50.984375 -23.578125 
L -0.984375 -23.578125 
L -0.984375 -16.609375 
z
" id="DejaVuSans-95"/>
     <path d="M 37.109375 75.984375 
L 37.109375 68.5 
L 28.515625 68.5 
Q 23.6875 68.5 21.796875 66.546875 
Q 19.921875 64.59375 19.921875 59.515625 
L 19.921875 54.6875 
L 34.71875 54.6875 
L 34.71875 47.703125 
L 19.921875 47.703125 
L 19.921875 0 
L 10.890625 0 
L 10.890625 47.703125 
L 2.296875 47.703125 
L 2.296875 54.6875 
L 10.890625 54.6875 
L 10.890625 58.5 
Q 10.890625 67.625 15.140625 71.796875 
Q 19.390625 75.984375 28.609375 75.984375 
z
" id="DejaVuSans-102"/>
     <path d="M 32.171875 -5.078125 
Q 28.375 -14.84375 24.75 -17.8125 
Q 21.140625 -20.796875 15.09375 -20.796875 
L 7.90625 -20.796875 
L 7.90625 -13.28125 
L 13.1875 -13.28125 
Q 16.890625 -13.28125 18.9375 -11.515625 
Q 21 -9.765625 23.484375 -3.21875 
L 25.09375 0.875 
L 2.984375 54.6875 
L 12.5 54.6875 
L 29.59375 11.921875 
L 46.6875 54.6875 
L 56.203125 54.6875 
z
" id="DejaVuSans-121"/>
     <path d="M 19.671875 64.796875 
L 19.671875 8.109375 
L 31.59375 8.109375 
Q 46.6875 8.109375 53.6875 14.9375 
Q 60.6875 21.78125 60.6875 36.53125 
Q 60.6875 51.171875 53.6875 57.984375 
Q 46.6875 64.796875 31.59375 64.796875 
z
M 9.8125 72.90625 
L 30.078125 72.90625 
Q 51.265625 72.90625 61.171875 64.09375 
Q 71.09375 55.28125 71.09375 36.53125 
Q 71.09375 17.671875 61.125 8.828125 
Q 51.171875 0 30.078125 0 
L 9.8125 0 
z
" id="DejaVuSans-68"/>
     <path d="M 10.984375 1.515625 
L 10.984375 10.5 
Q 14.703125 8.734375 18.5 7.8125 
Q 22.3125 6.890625 25.984375 6.890625 
Q 35.75 6.890625 40.890625 13.453125 
Q 46.046875 20.015625 46.78125 33.40625 
Q 43.953125 29.203125 39.59375 26.953125 
Q 35.25 24.703125 29.984375 24.703125 
Q 19.046875 24.703125 12.671875 31.3125 
Q 6.296875 37.9375 6.296875 49.421875 
Q 6.296875 60.640625 12.9375 67.421875 
Q 19.578125 74.21875 30.609375 74.21875 
Q 43.265625 74.21875 49.921875 64.515625 
Q 56.59375 54.828125 56.59375 36.375 
Q 56.59375 19.140625 48.40625 8.859375 
Q 40.234375 -1.421875 26.421875 -1.421875 
Q 22.703125 -1.421875 18.890625 -0.6875 
Q 15.09375 0.046875 10.984375 1.515625 
z
M 30.609375 32.421875 
Q 37.25 32.421875 41.125 36.953125 
Q 45.015625 41.5 45.015625 49.421875 
Q 45.015625 57.28125 41.125 61.84375 
Q 37.25 66.40625 30.609375 66.40625 
Q 23.96875 66.40625 20.09375 61.84375 
Q 16.21875 57.28125 16.21875 49.421875 
Q 16.21875 41.5 20.09375 36.953125 
Q 23.96875 32.421875 30.609375 32.421875 
z
" id="DejaVuSans-57"/>
     <path d="M 31.78125 34.625 
Q 24.75 34.625 20.71875 30.859375 
Q 16.703125 27.09375 16.703125 20.515625 
Q 16.703125 13.921875 20.71875 10.15625 
Q 24.75 6.390625 31.78125 6.390625 
Q 38.8125 6.390625 42.859375 10.171875 
Q 46.921875 13.96875 46.921875 20.515625 
Q 46.921875 27.09375 42.890625 30.859375 
Q 38.875 34.625 31.78125 34.625 
z
M 21.921875 38.8125 
Q 15.578125 40.375 12.03125 44.71875 
Q 8.5 49.078125 8.5 55.328125 
Q 8.5 64.0625 14.71875 69.140625 
Q 20.953125 74.21875 31.78125 74.21875 
Q 42.671875 74.21875 48.875 69.140625 
Q 55.078125 64.0625 55.078125 55.328125 
Q 55.078125 49.078125 51.53125 44.71875 
Q 48 40.375 41.703125 38.8125 
Q 48.828125 37.15625 52.796875 32.3125 
Q 56.78125 27.484375 56.78125 20.515625 
Q 56.78125 9.90625 50.3125 4.234375 
Q 43.84375 -1.421875 31.78125 -1.421875 
Q 19.734375 -1.421875 13.25 4.234375 
Q 6.78125 9.90625 6.78125 20.515625 
Q 6.78125 27.484375 10.78125 32.3125 
Q 14.796875 37.15625 21.921875 38.8125 
z
M 18.3125 54.390625 
Q 18.3125 48.734375 21.84375 45.5625 
Q 25.390625 42.390625 31.78125 42.390625 
Q 38.140625 42.390625 41.71875 45.5625 
Q 45.3125 48.734375 45.3125 54.390625 
Q 45.3125 60.0625 41.71875 63.234375 
Q 38.140625 66.40625 31.78125 66.40625 
Q 25.390625 66.40625 21.84375 63.234375 
Q 18.3125 60.0625 18.3125 54.390625 
z
" id="DejaVuSans-56"/>
     <path d="M 54.890625 54.6875 
L 35.109375 28.078125 
L 55.90625 0 
L 45.3125 0 
L 29.390625 21.484375 
L 13.484375 0 
L 2.875 0 
L 24.125 28.609375 
L 4.6875 54.6875 
L 15.28125 54.6875 
L 29.78125 35.203125 
L 44.28125 54.6875 
z
" id="DejaVuSans-120"/>
    </defs>
    <g transform="translate(110.080313 35.472)scale(0.12 -0.12)">
     <use xlink:href="#DejaVuSans-86"/>
     <use x="68.376953" xlink:href="#DejaVuSans-105"/>
     <use x="96.160156" xlink:href="#DejaVuSans-118"/>
     <use x="155.339844" xlink:href="#DejaVuSans-111"/>
     <use x="216.521484" xlink:href="#DejaVuSans-32"/>
     <use x="248.308594" xlink:href="#DejaVuSans-49"/>
     <use x="311.931641" xlink:href="#DejaVuSans-55"/>
     <use x="375.554688" xlink:href="#DejaVuSans-49"/>
     <use x="439.177734" xlink:href="#DejaVuSans-54"/>
     <use x="502.800781" xlink:href="#DejaVuSans-47"/>
     <use x="536.492188" xlink:href="#DejaVuSans-99"/>
     <use x="591.472656" xlink:href="#DejaVuSans-97"/>
     <use x="652.751953" xlink:href="#DejaVuSans-114"/>
     <use x="693.865234" xlink:href="#DejaVuSans-95"/>
     <use x="743.865234" xlink:href="#DejaVuSans-111"/>
     <use x="805.046875" xlink:href="#DejaVuSans-102"/>
     <use x="840.251953" xlink:href="#DejaVuSans-102"/>
     <use x="875.457031" xlink:href="#DejaVuSans-47"/>
     <use x="909.148438" xlink:href="#DejaVuSans-103"/>
     <use x="972.625" xlink:href="#DejaVuSans-121"/>
     <use x="1031.804688" xlink:href="#DejaVuSans-114"/>
     <use x="1072.886719" xlink:href="#DejaVuSans-111"/>
     <use x="1134.068359" xlink:href="#DejaVuSans-32"/>
     <use x="1165.855469" xlink:href="#DejaVuSans-68"/>
     <use x="1242.857422" xlink:href="#DejaVuSans-101"/>
     <use x="1304.380859" xlink:href="#DejaVuSans-99"/>
     <use x="1359.361328" xlink:href="#DejaVuSans-32"/>
     <use x="1391.148438" xlink:href="#DejaVuSans-48"/>
     <use x="1454.771484" xlink:href="#DejaVuSans-57"/>
     <use x="1518.394531" xlink:href="#DejaVuSans-32"/>
     <use x="1550.181641" xlink:href="#DejaVuSans-49"/>
     <use x="1613.804688" xlink:href="#DejaVuSans-50"/>
     <use x="1677.427734" xlink:href="#DejaVuSans-48"/>
     <use x="1741.050781" xlink:href="#DejaVuSans-56"/>
     <use x="1804.673828" xlink:href="#DejaVuSans-51"/>
     <use x="1868.296875" xlink:href="#DejaVuSans-53"/>
     <use x="1931.919922" xlink:href="#DejaVuSans-46"/>
     <use x="1963.707031" xlink:href="#DejaVuSans-116"/>
     <use x="2002.916016" xlink:href="#DejaVuSans-120"/>
     <use x="2062.095703" xlink:href="#DejaVuSans-116"/>
    </g>
   </g>
   <g id="legend_1">
    <g id="patch_7">
     <path d="M 64.6 302.584 
L 127.8 302.584 
Q 129.8 302.584 129.8 300.584 
L 129.8 242.8715 
Q 129.8 240.8715 127.8 240.8715 
L 64.6 240.8715 
Q 62.6 240.8715 62.6 242.8715 
L 62.6 300.584 
Q 62.6 302.584 64.6 302.584 
z
" style="fill:#ffffff;opacity:0.8;stroke:#cccccc;stroke-linejoin:miter;"/>
    </g>
    <g id="line2d_17">
     <path d="M 66.6 248.969937 
L 86.6 248.969937 
" style="fill:none;stroke:#1f77b4;stroke-linecap:square;stroke-width:1.5;"/>
    </g>
    <g id="line2d_18"/>
    <g id="text_16">
     <!-- X-Axis -->
     <defs>
      <path d="M 6.296875 72.90625 
L 16.890625 72.90625 
L 35.015625 45.796875 
L 53.21875 72.90625 
L 63.8125 72.90625 
L 40.375 37.890625 
L 65.375 0 
L 54.78125 0 
L 34.28125 31 
L 13.625 0 
L 2.984375 0 
L 29 38.921875 
z
" id="DejaVuSans-88"/>
      <path d="M 4.890625 31.390625 
L 31.203125 31.390625 
L 31.203125 23.390625 
L 4.890625 23.390625 
z
" id="DejaVuSans-45"/>
      <path d="M 34.1875 63.1875 
L 20.796875 26.90625 
L 47.609375 26.90625 
z
M 28.609375 72.90625 
L 39.796875 72.90625 
L 67.578125 0 
L 57.328125 0 
L 50.6875 18.703125 
L 17.828125 18.703125 
L 11.1875 0 
L 0.78125 0 
z
" id="DejaVuSans-65"/>
     </defs>
     <g transform="translate(94.6 252.469937)scale(0.1 -0.1)">
      <use xlink:href="#DejaVuSans-88"/>
      <use x="68.427734" xlink:href="#DejaVuSans-45"/>
      <use x="104.480469" xlink:href="#DejaVuSans-65"/>
      <use x="172.888672" xlink:href="#DejaVuSans-120"/>
      <use x="232.068359" xlink:href="#DejaVuSans-105"/>
      <use x="259.851562" xlink:href="#DejaVuSans-115"/>
     </g>
    </g>
    <g id="line2d_19">
     <path d="M 66.6 263.648062 
L 86.6 263.648062 
" style="fill:none;stroke:#ff7f0e;stroke-linecap:square;stroke-width:1.5;"/>
    </g>
    <g id="line2d_20"/>
    <g id="text_17">
     <!-- Y-Axis -->
     <defs>
      <path d="M -0.203125 72.90625 
L 10.40625 72.90625 
L 30.609375 42.921875 
L 50.6875 72.90625 
L 61.28125 72.90625 
L 35.5 34.71875 
L 35.5 0 
L 25.59375 0 
L 25.59375 34.71875 
z
" id="DejaVuSans-89"/>
     </defs>
     <g transform="translate(94.6 267.148062)scale(0.1 -0.1)">
      <use xlink:href="#DejaVuSans-89"/>
      <use x="60.912109" xlink:href="#DejaVuSans-45"/>
      <use x="96.964844" xlink:href="#DejaVuSans-65"/>
      <use x="165.373047" xlink:href="#DejaVuSans-120"/>
      <use x="224.552734" xlink:href="#DejaVuSans-105"/>
      <use x="252.335938" xlink:href="#DejaVuSans-115"/>
     </g>
    </g>
    <g id="line2d_21">
     <path d="M 66.6 278.326187 
L 86.6 278.326187 
" style="fill:none;stroke:#2ca02c;stroke-linecap:square;stroke-width:1.5;"/>
    </g>
    <g id="line2d_22"/>
    <g id="text_18">
     <!-- Z-Axis -->
     <defs>
      <path d="M 5.609375 72.90625 
L 62.890625 72.90625 
L 62.890625 65.375 
L 16.796875 8.296875 
L 64.015625 8.296875 
L 64.015625 0 
L 4.5 0 
L 4.5 7.515625 
L 50.59375 64.59375 
L 5.609375 64.59375 
z
" id="DejaVuSans-90"/>
     </defs>
     <g transform="translate(94.6 281.826187)scale(0.1 -0.1)">
      <use xlink:href="#DejaVuSans-90"/>
      <use x="68.490234" xlink:href="#DejaVuSans-45"/>
      <use x="104.542969" xlink:href="#DejaVuSans-65"/>
      <use x="172.951172" xlink:href="#DejaVuSans-120"/>
      <use x="232.130859" xlink:href="#DejaVuSans-105"/>
      <use x="259.914062" xlink:href="#DejaVuSans-115"/>
     </g>
    </g>
    <g id="line2d_23">
     <path d="M 66.6 293.004312 
L 86.6 293.004312 
" style="fill:none;stroke:#d62728;stroke-linecap:square;stroke-width:1.5;"/>
    </g>
    <g id="line2d_24"/>
    <g id="text_19">
     <!-- Mod -->
     <g transform="translate(94.6 296.504312)scale(0.1 -0.1)">
      <use xlink:href="#DejaVuSans-77"/>
      <use x="86.279297" xlink:href="#DejaVuSans-111"/>
      <use x="147.460938" xlink:href="#DejaVuSans-100"/>
     </g>
    </g>
   </g>
  </g>
 </g>
 <defs>
  <clipPath id="pbd8685d192">
   <rect height="266.112" width="357.12" x="57.6" y="41.472"/>
  </clipPath>
 </defs>
</svg>
