<?xml version="1.0" encoding="utf-8" standalone="no"?>
<!DOCTYPE svg PUBLIC "-//W3C//DTD SVG 1.1//EN"
  "http://www.w3.org/Graphics/SVG/1.1/DTD/svg11.dtd">
<!-- Created with matplotlib (https://matplotlib.org/) -->
<svg height="345.6pt" version="1.1" viewBox="0 0 460.8 345.6" width="460.8pt" xmlns="http://www.w3.org/2000/svg" xmlns:xlink="http://www.w3.org/1999/xlink">
 <defs>
  <style type="text/css">
*{stroke-linecap:butt;stroke-linejoin:round;}
  </style>
 </defs>
 <g id="figure_1">
  <g id="patch_1">
   <path d="M 0 345.6 
L 460.8 345.6 
L 460.8 0 
L 0 0 
z
" style="fill:#ffffff;"/>
  </g>
  <g id="axes_1">
   <g id="patch_2">
    <path d="M 57.6 307.584 
L 414.72 307.584 
L 414.72 41.472 
L 57.6 41.472 
z
" style="fill:#ffffff;"/>
   </g>
   <g id="matplotlib.axis_1">
    <g id="xtick_1">
     <g id="line2d_1">
      <defs>
       <path d="M 0 0 
L 0 3.5 
" id="mf0d25f2a10" style="stroke:#000000;stroke-width:0.8;"/>
      </defs>
      <g>
       <use style="stroke:#000000;stroke-width:0.8;" x="73.832727" xlink:href="#mf0d25f2a10" y="307.584"/>
      </g>
     </g>
     <g id="text_1">
      <!-- 0 -->
      <defs>
       <path d="M 31.78125 66.40625 
Q 24.171875 66.40625 20.328125 58.90625 
Q 16.5 51.421875 16.5 36.375 
Q 16.5 21.390625 20.328125 13.890625 
Q 24.171875 6.390625 31.78125 6.390625 
Q 39.453125 6.390625 43.28125 13.890625 
Q 47.125 21.390625 47.125 36.375 
Q 47.125 51.421875 43.28125 58.90625 
Q 39.453125 66.40625 31.78125 66.40625 
z
M 31.78125 74.21875 
Q 44.046875 74.21875 50.515625 64.515625 
Q 56.984375 54.828125 56.984375 36.375 
Q 56.984375 17.96875 50.515625 8.265625 
Q 44.046875 -1.421875 31.78125 -1.421875 
Q 19.53125 -1.421875 13.0625 8.265625 
Q 6.59375 17.96875 6.59375 36.375 
Q 6.59375 54.828125 13.0625 64.515625 
Q 19.53125 74.21875 31.78125 74.21875 
z
" id="DejaVuSans-48"/>
      </defs>
      <g transform="translate(70.651477 322.182437)scale(0.1 -0.1)">
       <use xlink:href="#DejaVuSans-48"/>
      </g>
     </g>
    </g>
    <g id="xtick_2">
     <g id="line2d_2">
      <g>
       <use style="stroke:#000000;stroke-width:0.8;" x="139.645261" xlink:href="#mf0d25f2a10" y="307.584"/>
      </g>
     </g>
     <g id="text_2">
      <!-- 50 -->
      <defs>
       <path d="M 10.796875 72.90625 
L 49.515625 72.90625 
L 49.515625 64.59375 
L 19.828125 64.59375 
L 19.828125 46.734375 
Q 21.96875 47.46875 24.109375 47.828125 
Q 26.265625 48.1875 28.421875 48.1875 
Q 40.625 48.1875 47.75 41.5 
Q 54.890625 34.8125 54.890625 23.390625 
Q 54.890625 11.625 47.5625 5.09375 
Q 40.234375 -1.421875 26.90625 -1.421875 
Q 22.3125 -1.421875 17.546875 -0.640625 
Q 12.796875 0.140625 7.71875 1.703125 
L 7.71875 11.625 
Q 12.109375 9.234375 16.796875 8.0625 
Q 21.484375 6.890625 26.703125 6.890625 
Q 35.15625 6.890625 40.078125 11.328125 
Q 45.015625 15.765625 45.015625 23.390625 
Q 45.015625 31 40.078125 35.4375 
Q 35.15625 39.890625 26.703125 39.890625 
Q 22.75 39.890625 18.8125 39.015625 
Q 14.890625 38.140625 10.796875 36.28125 
z
" id="DejaVuSans-53"/>
      </defs>
      <g transform="translate(133.282761 322.182437)scale(0.1 -0.1)">
       <use xlink:href="#DejaVuSans-53"/>
       <use x="63.623047" xlink:href="#DejaVuSans-48"/>
      </g>
     </g>
    </g>
    <g id="xtick_3">
     <g id="line2d_3">
      <g>
       <use style="stroke:#000000;stroke-width:0.8;" x="205.457795" xlink:href="#mf0d25f2a10" y="307.584"/>
      </g>
     </g>
     <g id="text_3">
      <!-- 100 -->
      <defs>
       <path d="M 12.40625 8.296875 
L 28.515625 8.296875 
L 28.515625 63.921875 
L 10.984375 60.40625 
L 10.984375 69.390625 
L 28.421875 72.90625 
L 38.28125 72.90625 
L 38.28125 8.296875 
L 54.390625 8.296875 
L 54.390625 0 
L 12.40625 0 
z
" id="DejaVuSans-49"/>
      </defs>
      <g transform="translate(195.914045 322.182437)scale(0.1 -0.1)">
       <use xlink:href="#DejaVuSans-49"/>
       <use x="63.623047" xlink:href="#DejaVuSans-48"/>
       <use x="127.246094" xlink:href="#DejaVuSans-48"/>
      </g>
     </g>
    </g>
    <g id="xtick_4">
     <g id="line2d_4">
      <g>
       <use style="stroke:#000000;stroke-width:0.8;" x="271.270329" xlink:href="#mf0d25f2a10" y="307.584"/>
      </g>
     </g>
     <g id="text_4">
      <!-- 150 -->
      <g transform="translate(261.726579 322.182437)scale(0.1 -0.1)">
       <use xlink:href="#DejaVuSans-49"/>
       <use x="63.623047" xlink:href="#DejaVuSans-53"/>
       <use x="127.246094" xlink:href="#DejaVuSans-48"/>
      </g>
     </g>
    </g>
    <g id="xtick_5">
     <g id="line2d_5">
      <g>
       <use style="stroke:#000000;stroke-width:0.8;" x="337.082862" xlink:href="#mf0d25f2a10" y="307.584"/>
      </g>
     </g>
     <g id="text_5">
      <!-- 200 -->
      <defs>
       <path d="M 19.1875 8.296875 
L 53.609375 8.296875 
L 53.609375 0 
L 7.328125 0 
L 7.328125 8.296875 
Q 12.9375 14.109375 22.625 23.890625 
Q 32.328125 33.6875 34.8125 36.53125 
Q 39.546875 41.84375 41.421875 45.53125 
Q 43.3125 49.21875 43.3125 52.78125 
Q 43.3125 58.59375 39.234375 62.25 
Q 35.15625 65.921875 28.609375 65.921875 
Q 23.96875 65.921875 18.8125 64.3125 
Q 13.671875 62.703125 7.8125 59.421875 
L 7.8125 69.390625 
Q 13.765625 71.78125 18.9375 73 
Q 24.125 74.21875 28.421875 74.21875 
Q 39.75 74.21875 46.484375 68.546875 
Q 53.21875 62.890625 53.21875 53.421875 
Q 53.21875 48.921875 51.53125 44.890625 
Q 49.859375 40.875 45.40625 35.40625 
Q 44.1875 33.984375 37.640625 27.21875 
Q 31.109375 20.453125 19.1875 8.296875 
z
" id="DejaVuSans-50"/>
      </defs>
      <g transform="translate(327.539112 322.182437)scale(0.1 -0.1)">
       <use xlink:href="#DejaVuSans-50"/>
       <use x="63.623047" xlink:href="#DejaVuSans-48"/>
       <use x="127.246094" xlink:href="#DejaVuSans-48"/>
      </g>
     </g>
    </g>
    <g id="xtick_6">
     <g id="line2d_6">
      <g>
       <use style="stroke:#000000;stroke-width:0.8;" x="402.895396" xlink:href="#mf0d25f2a10" y="307.584"/>
      </g>
     </g>
     <g id="text_6">
      <!-- 250 -->
      <g transform="translate(393.351646 322.182437)scale(0.1 -0.1)">
       <use xlink:href="#DejaVuSans-50"/>
       <use x="63.623047" xlink:href="#DejaVuSans-53"/>
       <use x="127.246094" xlink:href="#DejaVuSans-48"/>
      </g>
     </g>
    </g>
    <g id="text_7">
     <!-- Time (in seconds) -->
     <defs>
      <path d="M -0.296875 72.90625 
L 61.375 72.90625 
L 61.375 64.59375 
L 35.5 64.59375 
L 35.5 0 
L 25.59375 0 
L 25.59375 64.59375 
L -0.296875 64.59375 
z
" id="DejaVuSans-84"/>
      <path d="M 9.421875 54.6875 
L 18.40625 54.6875 
L 18.40625 0 
L 9.421875 0 
z
M 9.421875 75.984375 
L 18.40625 75.984375 
L 18.40625 64.59375 
L 9.421875 64.59375 
z
" id="DejaVuSans-105"/>
      <path d="M 52 44.1875 
Q 55.375 50.25 60.0625 53.125 
Q 64.75 56 71.09375 56 
Q 79.640625 56 84.28125 50.015625 
Q 88.921875 44.046875 88.921875 33.015625 
L 88.921875 0 
L 79.890625 0 
L 79.890625 32.71875 
Q 79.890625 40.578125 77.09375 44.375 
Q 74.3125 48.1875 68.609375 48.1875 
Q 61.625 48.1875 57.5625 43.546875 
Q 53.515625 38.921875 53.515625 30.90625 
L 53.515625 0 
L 44.484375 0 
L 44.484375 32.71875 
Q 44.484375 40.625 41.703125 44.40625 
Q 38.921875 48.1875 33.109375 48.1875 
Q 26.21875 48.1875 22.15625 43.53125 
Q 18.109375 38.875 18.109375 30.90625 
L 18.109375 0 
L 9.078125 0 
L 9.078125 54.6875 
L 18.109375 54.6875 
L 18.109375 46.1875 
Q 21.1875 51.21875 25.484375 53.609375 
Q 29.78125 56 35.6875 56 
Q 41.65625 56 45.828125 52.96875 
Q 50 49.953125 52 44.1875 
z
" id="DejaVuSans-109"/>
      <path d="M 56.203125 29.59375 
L 56.203125 25.203125 
L 14.890625 25.203125 
Q 15.484375 15.921875 20.484375 11.0625 
Q 25.484375 6.203125 34.421875 6.203125 
Q 39.59375 6.203125 44.453125 7.46875 
Q 49.3125 8.734375 54.109375 11.28125 
L 54.109375 2.78125 
Q 49.265625 0.734375 44.1875 -0.34375 
Q 39.109375 -1.421875 33.890625 -1.421875 
Q 20.796875 -1.421875 13.15625 6.1875 
Q 5.515625 13.8125 5.515625 26.8125 
Q 5.515625 40.234375 12.765625 48.109375 
Q 20.015625 56 32.328125 56 
Q 43.359375 56 49.78125 48.890625 
Q 56.203125 41.796875 56.203125 29.59375 
z
M 47.21875 32.234375 
Q 47.125 39.59375 43.09375 43.984375 
Q 39.0625 48.390625 32.421875 48.390625 
Q 24.90625 48.390625 20.390625 44.140625 
Q 15.875 39.890625 15.1875 32.171875 
z
" id="DejaVuSans-101"/>
      <path id="DejaVuSans-32"/>
      <path d="M 31 75.875 
Q 24.46875 64.65625 21.28125 53.65625 
Q 18.109375 42.671875 18.109375 31.390625 
Q 18.109375 20.125 21.3125 9.0625 
Q 24.515625 -2 31 -13.1875 
L 23.1875 -13.1875 
Q 15.875 -1.703125 12.234375 9.375 
Q 8.59375 20.453125 8.59375 31.390625 
Q 8.59375 42.28125 12.203125 53.3125 
Q 15.828125 64.359375 23.1875 75.875 
z
" id="DejaVuSans-40"/>
      <path d="M 54.890625 33.015625 
L 54.890625 0 
L 45.90625 0 
L 45.90625 32.71875 
Q 45.90625 40.484375 42.875 44.328125 
Q 39.84375 48.1875 33.796875 48.1875 
Q 26.515625 48.1875 22.3125 43.546875 
Q 18.109375 38.921875 18.109375 30.90625 
L 18.109375 0 
L 9.078125 0 
L 9.078125 54.6875 
L 18.109375 54.6875 
L 18.109375 46.1875 
Q 21.34375 51.125 25.703125 53.5625 
Q 30.078125 56 35.796875 56 
Q 45.21875 56 50.046875 50.171875 
Q 54.890625 44.34375 54.890625 33.015625 
z
" id="DejaVuSans-110"/>
      <path d="M 44.28125 53.078125 
L 44.28125 44.578125 
Q 40.484375 46.53125 36.375 47.5 
Q 32.28125 48.484375 27.875 48.484375 
Q 21.1875 48.484375 17.84375 46.4375 
Q 14.5 44.390625 14.5 40.28125 
Q 14.5 37.15625 16.890625 35.375 
Q 19.28125 33.59375 26.515625 31.984375 
L 29.59375 31.296875 
Q 39.15625 29.25 43.1875 25.515625 
Q 47.21875 21.78125 47.21875 15.09375 
Q 47.21875 7.46875 41.1875 3.015625 
Q 35.15625 -1.421875 24.609375 -1.421875 
Q 20.21875 -1.421875 15.453125 -0.5625 
Q 10.6875 0.296875 5.421875 2 
L 5.421875 11.28125 
Q 10.40625 8.6875 15.234375 7.390625 
Q 20.0625 6.109375 24.8125 6.109375 
Q 31.15625 6.109375 34.5625 8.28125 
Q 37.984375 10.453125 37.984375 14.40625 
Q 37.984375 18.0625 35.515625 20.015625 
Q 33.0625 21.96875 24.703125 23.78125 
L 21.578125 24.515625 
Q 13.234375 26.265625 9.515625 29.90625 
Q 5.8125 33.546875 5.8125 39.890625 
Q 5.8125 47.609375 11.28125 51.796875 
Q 16.75 56 26.8125 56 
Q 31.78125 56 36.171875 55.265625 
Q 40.578125 54.546875 44.28125 53.078125 
z
" id="DejaVuSans-115"/>
      <path d="M 48.78125 52.59375 
L 48.78125 44.1875 
Q 44.96875 46.296875 41.140625 47.34375 
Q 37.3125 48.390625 33.40625 48.390625 
Q 24.65625 48.390625 19.8125 42.84375 
Q 14.984375 37.3125 14.984375 27.296875 
Q 14.984375 17.28125 19.8125 11.734375 
Q 24.65625 6.203125 33.40625 6.203125 
Q 37.3125 6.203125 41.140625 7.25 
Q 44.96875 8.296875 48.78125 10.40625 
L 48.78125 2.09375 
Q 45.015625 0.34375 40.984375 -0.53125 
Q 36.96875 -1.421875 32.421875 -1.421875 
Q 20.0625 -1.421875 12.78125 6.34375 
Q 5.515625 14.109375 5.515625 27.296875 
Q 5.515625 40.671875 12.859375 48.328125 
Q 20.21875 56 33.015625 56 
Q 37.15625 56 41.109375 55.140625 
Q 45.0625 54.296875 48.78125 52.59375 
z
" id="DejaVuSans-99"/>
      <path d="M 30.609375 48.390625 
Q 23.390625 48.390625 19.1875 42.75 
Q 14.984375 37.109375 14.984375 27.296875 
Q 14.984375 17.484375 19.15625 11.84375 
Q 23.34375 6.203125 30.609375 6.203125 
Q 37.796875 6.203125 41.984375 11.859375 
Q 46.1875 17.53125 46.1875 27.296875 
Q 46.1875 37.015625 41.984375 42.703125 
Q 37.796875 48.390625 30.609375 48.390625 
z
M 30.609375 56 
Q 42.328125 56 49.015625 48.375 
Q 55.71875 40.765625 55.71875 27.296875 
Q 55.71875 13.875 49.015625 6.21875 
Q 42.328125 -1.421875 30.609375 -1.421875 
Q 18.84375 -1.421875 12.171875 6.21875 
Q 5.515625 13.875 5.515625 27.296875 
Q 5.515625 40.765625 12.171875 48.375 
Q 18.84375 56 30.609375 56 
z
" id="DejaVuSans-111"/>
      <path d="M 45.40625 46.390625 
L 45.40625 75.984375 
L 54.390625 75.984375 
L 54.390625 0 
L 45.40625 0 
L 45.40625 8.203125 
Q 42.578125 3.328125 38.25 0.953125 
Q 33.9375 -1.421875 27.875 -1.421875 
Q 17.96875 -1.421875 11.734375 6.484375 
Q 5.515625 14.40625 5.515625 27.296875 
Q 5.515625 40.1875 11.734375 48.09375 
Q 17.96875 56 27.875 56 
Q 33.9375 56 38.25 53.625 
Q 42.578125 51.265625 45.40625 46.390625 
z
M 14.796875 27.296875 
Q 14.796875 17.390625 18.875 11.75 
Q 22.953125 6.109375 30.078125 6.109375 
Q 37.203125 6.109375 41.296875 11.75 
Q 45.40625 17.390625 45.40625 27.296875 
Q 45.40625 37.203125 41.296875 42.84375 
Q 37.203125 48.484375 30.078125 48.484375 
Q 22.953125 48.484375 18.875 42.84375 
Q 14.796875 37.203125 14.796875 27.296875 
z
" id="DejaVuSans-100"/>
      <path d="M 8.015625 75.875 
L 15.828125 75.875 
Q 23.140625 64.359375 26.78125 53.3125 
Q 30.421875 42.28125 30.421875 31.390625 
Q 30.421875 20.453125 26.78125 9.375 
Q 23.140625 -1.703125 15.828125 -13.1875 
L 8.015625 -13.1875 
Q 14.5 -2 17.703125 9.0625 
Q 20.90625 20.125 20.90625 31.390625 
Q 20.90625 42.671875 17.703125 53.65625 
Q 14.5 64.65625 8.015625 75.875 
z
" id="DejaVuSans-41"/>
     </defs>
     <g transform="translate(191.6975 335.860562)scale(0.1 -0.1)">
      <use xlink:href="#DejaVuSans-84"/>
      <use x="61.037109" xlink:href="#DejaVuSans-105"/>
      <use x="88.820312" xlink:href="#DejaVuSans-109"/>
      <use x="186.232422" xlink:href="#DejaVuSans-101"/>
      <use x="247.755859" xlink:href="#DejaVuSans-32"/>
      <use x="279.542969" xlink:href="#DejaVuSans-40"/>
      <use x="318.556641" xlink:href="#DejaVuSans-105"/>
      <use x="346.339844" xlink:href="#DejaVuSans-110"/>
      <use x="409.71875" xlink:href="#DejaVuSans-32"/>
      <use x="441.505859" xlink:href="#DejaVuSans-115"/>
      <use x="493.605469" xlink:href="#DejaVuSans-101"/>
      <use x="555.128906" xlink:href="#DejaVuSans-99"/>
      <use x="610.109375" xlink:href="#DejaVuSans-111"/>
      <use x="671.291016" xlink:href="#DejaVuSans-110"/>
      <use x="734.669922" xlink:href="#DejaVuSans-100"/>
      <use x="798.146484" xlink:href="#DejaVuSans-115"/>
      <use x="850.246094" xlink:href="#DejaVuSans-41"/>
     </g>
    </g>
   </g>
   <g id="matplotlib.axis_2">
    <g id="ytick_1">
     <g id="line2d_7">
      <defs>
       <path d="M 0 0 
L -3.5 0 
" id="mf40057470e" style="stroke:#000000;stroke-width:0.8;"/>
      </defs>
      <g>
       <use style="stroke:#000000;stroke-width:0.8;" x="57.6" xlink:href="#mf40057470e" y="306.28256"/>
      </g>
     </g>
     <g id="text_8">
      <!-- −10.0 -->
      <defs>
       <path d="M 10.59375 35.5 
L 73.1875 35.5 
L 73.1875 27.203125 
L 10.59375 27.203125 
z
" id="DejaVuSans-8722"/>
       <path d="M 10.6875 12.40625 
L 21 12.40625 
L 21 0 
L 10.6875 0 
z
" id="DejaVuSans-46"/>
      </defs>
      <g transform="translate(19.954687 310.081779)scale(0.1 -0.1)">
       <use xlink:href="#DejaVuSans-8722"/>
       <use x="83.789062" xlink:href="#DejaVuSans-49"/>
       <use x="147.412109" xlink:href="#DejaVuSans-48"/>
       <use x="211.035156" xlink:href="#DejaVuSans-46"/>
       <use x="242.822266" xlink:href="#DejaVuSans-48"/>
      </g>
     </g>
    </g>
    <g id="ytick_2">
     <g id="line2d_8">
      <g>
       <use style="stroke:#000000;stroke-width:0.8;" x="57.6" xlink:href="#mf40057470e" y="274.384872"/>
      </g>
     </g>
     <g id="text_9">
      <!-- −7.5 -->
      <defs>
       <path d="M 8.203125 72.90625 
L 55.078125 72.90625 
L 55.078125 68.703125 
L 28.609375 0 
L 18.3125 0 
L 43.21875 64.59375 
L 8.203125 64.59375 
z
" id="DejaVuSans-55"/>
      </defs>
      <g transform="translate(26.317187 278.184091)scale(0.1 -0.1)">
       <use xlink:href="#DejaVuSans-8722"/>
       <use x="83.789062" xlink:href="#DejaVuSans-55"/>
       <use x="147.412109" xlink:href="#DejaVuSans-46"/>
       <use x="179.199219" xlink:href="#DejaVuSans-53"/>
      </g>
     </g>
    </g>
    <g id="ytick_3">
     <g id="line2d_9">
      <g>
       <use style="stroke:#000000;stroke-width:0.8;" x="57.6" xlink:href="#mf40057470e" y="242.487185"/>
      </g>
     </g>
     <g id="text_10">
      <!-- −5.0 -->
      <g transform="translate(26.317187 246.286403)scale(0.1 -0.1)">
       <use xlink:href="#DejaVuSans-8722"/>
       <use x="83.789062" xlink:href="#DejaVuSans-53"/>
       <use x="147.412109" xlink:href="#DejaVuSans-46"/>
       <use x="179.199219" xlink:href="#DejaVuSans-48"/>
      </g>
     </g>
    </g>
    <g id="ytick_4">
     <g id="line2d_10">
      <g>
       <use style="stroke:#000000;stroke-width:0.8;" x="57.6" xlink:href="#mf40057470e" y="210.589497"/>
      </g>
     </g>
     <g id="text_11">
      <!-- −2.5 -->
      <g transform="translate(26.317187 214.388716)scale(0.1 -0.1)">
       <use xlink:href="#DejaVuSans-8722"/>
       <use x="83.789062" xlink:href="#DejaVuSans-50"/>
       <use x="147.412109" xlink:href="#DejaVuSans-46"/>
       <use x="179.199219" xlink:href="#DejaVuSans-53"/>
      </g>
     </g>
    </g>
    <g id="ytick_5">
     <g id="line2d_11">
      <g>
       <use style="stroke:#000000;stroke-width:0.8;" x="57.6" xlink:href="#mf40057470e" y="178.691809"/>
      </g>
     </g>
     <g id="text_12">
      <!-- 0.0 -->
      <g transform="translate(34.696875 182.491028)scale(0.1 -0.1)">
       <use xlink:href="#DejaVuSans-48"/>
       <use x="63.623047" xlink:href="#DejaVuSans-46"/>
       <use x="95.410156" xlink:href="#DejaVuSans-48"/>
      </g>
     </g>
    </g>
    <g id="ytick_6">
     <g id="line2d_12">
      <g>
       <use style="stroke:#000000;stroke-width:0.8;" x="57.6" xlink:href="#mf40057470e" y="146.794121"/>
      </g>
     </g>
     <g id="text_13">
      <!-- 2.5 -->
      <g transform="translate(34.696875 150.59334)scale(0.1 -0.1)">
       <use xlink:href="#DejaVuSans-50"/>
       <use x="63.623047" xlink:href="#DejaVuSans-46"/>
       <use x="95.410156" xlink:href="#DejaVuSans-53"/>
      </g>
     </g>
    </g>
    <g id="ytick_7">
     <g id="line2d_13">
      <g>
       <use style="stroke:#000000;stroke-width:0.8;" x="57.6" xlink:href="#mf40057470e" y="114.896433"/>
      </g>
     </g>
     <g id="text_14">
      <!-- 5.0 -->
      <g transform="translate(34.696875 118.695652)scale(0.1 -0.1)">
       <use xlink:href="#DejaVuSans-53"/>
       <use x="63.623047" xlink:href="#DejaVuSans-46"/>
       <use x="95.410156" xlink:href="#DejaVuSans-48"/>
      </g>
     </g>
    </g>
    <g id="ytick_8">
     <g id="line2d_14">
      <g>
       <use style="stroke:#000000;stroke-width:0.8;" x="57.6" xlink:href="#mf40057470e" y="82.998745"/>
      </g>
     </g>
     <g id="text_15">
      <!-- 7.5 -->
      <g transform="translate(34.696875 86.797964)scale(0.1 -0.1)">
       <use xlink:href="#DejaVuSans-55"/>
       <use x="63.623047" xlink:href="#DejaVuSans-46"/>
       <use x="95.410156" xlink:href="#DejaVuSans-53"/>
      </g>
     </g>
    </g>
    <g id="ytick_9">
     <g id="line2d_15">
      <g>
       <use style="stroke:#000000;stroke-width:0.8;" x="57.6" xlink:href="#mf40057470e" y="51.101057"/>
      </g>
     </g>
     <g id="text_16">
      <!-- 10.0 -->
      <g transform="translate(28.334375 54.900276)scale(0.1 -0.1)">
       <use xlink:href="#DejaVuSans-49"/>
       <use x="63.623047" xlink:href="#DejaVuSans-48"/>
       <use x="127.246094" xlink:href="#DejaVuSans-46"/>
       <use x="159.033203" xlink:href="#DejaVuSans-48"/>
      </g>
     </g>
    </g>
    <g id="text_17">
     <!-- Magnitude -->
     <defs>
      <path d="M 9.8125 72.90625 
L 24.515625 72.90625 
L 43.109375 23.296875 
L 61.8125 72.90625 
L 76.515625 72.90625 
L 76.515625 0 
L 66.890625 0 
L 66.890625 64.015625 
L 48.09375 14.015625 
L 38.1875 14.015625 
L 19.390625 64.015625 
L 19.390625 0 
L 9.8125 0 
z
" id="DejaVuSans-77"/>
      <path d="M 34.28125 27.484375 
Q 23.390625 27.484375 19.1875 25 
Q 14.984375 22.515625 14.984375 16.5 
Q 14.984375 11.71875 18.140625 8.90625 
Q 21.296875 6.109375 26.703125 6.109375 
Q 34.1875 6.109375 38.703125 11.40625 
Q 43.21875 16.703125 43.21875 25.484375 
L 43.21875 27.484375 
z
M 52.203125 31.203125 
L 52.203125 0 
L 43.21875 0 
L 43.21875 8.296875 
Q 40.140625 3.328125 35.546875 0.953125 
Q 30.953125 -1.421875 24.3125 -1.421875 
Q 15.921875 -1.421875 10.953125 3.296875 
Q 6 8.015625 6 15.921875 
Q 6 25.140625 12.171875 29.828125 
Q 18.359375 34.515625 30.609375 34.515625 
L 43.21875 34.515625 
L 43.21875 35.40625 
Q 43.21875 41.609375 39.140625 45 
Q 35.0625 48.390625 27.6875 48.390625 
Q 23 48.390625 18.546875 47.265625 
Q 14.109375 46.140625 10.015625 43.890625 
L 10.015625 52.203125 
Q 14.9375 54.109375 19.578125 55.046875 
Q 24.21875 56 28.609375 56 
Q 40.484375 56 46.34375 49.84375 
Q 52.203125 43.703125 52.203125 31.203125 
z
" id="DejaVuSans-97"/>
      <path d="M 45.40625 27.984375 
Q 45.40625 37.75 41.375 43.109375 
Q 37.359375 48.484375 30.078125 48.484375 
Q 22.859375 48.484375 18.828125 43.109375 
Q 14.796875 37.75 14.796875 27.984375 
Q 14.796875 18.265625 18.828125 12.890625 
Q 22.859375 7.515625 30.078125 7.515625 
Q 37.359375 7.515625 41.375 12.890625 
Q 45.40625 18.265625 45.40625 27.984375 
z
M 54.390625 6.78125 
Q 54.390625 -7.171875 48.1875 -13.984375 
Q 42 -20.796875 29.203125 -20.796875 
Q 24.46875 -20.796875 20.265625 -20.09375 
Q 16.0625 -19.390625 12.109375 -17.921875 
L 12.109375 -9.1875 
Q 16.0625 -11.328125 19.921875 -12.34375 
Q 23.78125 -13.375 27.78125 -13.375 
Q 36.625 -13.375 41.015625 -8.765625 
Q 45.40625 -4.15625 45.40625 5.171875 
L 45.40625 9.625 
Q 42.625 4.78125 38.28125 2.390625 
Q 33.9375 0 27.875 0 
Q 17.828125 0 11.671875 7.65625 
Q 5.515625 15.328125 5.515625 27.984375 
Q 5.515625 40.671875 11.671875 48.328125 
Q 17.828125 56 27.875 56 
Q 33.9375 56 38.28125 53.609375 
Q 42.625 51.21875 45.40625 46.390625 
L 45.40625 54.6875 
L 54.390625 54.6875 
z
" id="DejaVuSans-103"/>
      <path d="M 18.3125 70.21875 
L 18.3125 54.6875 
L 36.8125 54.6875 
L 36.8125 47.703125 
L 18.3125 47.703125 
L 18.3125 18.015625 
Q 18.3125 11.328125 20.140625 9.421875 
Q 21.96875 7.515625 27.59375 7.515625 
L 36.8125 7.515625 
L 36.8125 0 
L 27.59375 0 
Q 17.1875 0 13.234375 3.875 
Q 9.28125 7.765625 9.28125 18.015625 
L 9.28125 47.703125 
L 2.6875 47.703125 
L 2.6875 54.6875 
L 9.28125 54.6875 
L 9.28125 70.21875 
z
" id="DejaVuSans-116"/>
      <path d="M 8.5 21.578125 
L 8.5 54.6875 
L 17.484375 54.6875 
L 17.484375 21.921875 
Q 17.484375 14.15625 20.5 10.265625 
Q 23.53125 6.390625 29.59375 6.390625 
Q 36.859375 6.390625 41.078125 11.03125 
Q 45.3125 15.671875 45.3125 23.6875 
L 45.3125 54.6875 
L 54.296875 54.6875 
L 54.296875 0 
L 45.3125 0 
L 45.3125 8.40625 
Q 42.046875 3.421875 37.71875 1 
Q 33.40625 -1.421875 27.6875 -1.421875 
Q 18.265625 -1.421875 13.375 4.4375 
Q 8.5 10.296875 8.5 21.578125 
z
M 31.109375 56 
z
" id="DejaVuSans-117"/>
     </defs>
     <g transform="translate(13.875 201.017844)rotate(-90)scale(0.1 -0.1)">
      <use xlink:href="#DejaVuSans-77"/>
      <use x="86.279297" xlink:href="#DejaVuSans-97"/>
      <use x="147.558594" xlink:href="#DejaVuSans-103"/>
      <use x="211.035156" xlink:href="#DejaVuSans-110"/>
      <use x="274.414062" xlink:href="#DejaVuSans-105"/>
      <use x="302.197266" xlink:href="#DejaVuSans-116"/>
      <use x="341.40625" xlink:href="#DejaVuSans-117"/>
      <use x="404.785156" xlink:href="#DejaVuSans-100"/>
      <use x="468.261719" xlink:href="#DejaVuSans-101"/>
     </g>
    </g>
   </g>
   <g id="line2d_16">
    <path clip-path="url(#pa86868608a)" d="M 73.832727 157.346401 
L 73.994626 154.680064 
L 74.321056 153.691601 
L 74.658017 153.259128 
L 74.918634 153.312687 
L 75.184517 153.589893 
L 75.387219 154.067365 
L 75.649153 155.220505 
L 75.91372 157.160415 
L 76.175653 160.757405 
L 76.444169 168.049134 
L 76.785078 184.832793 
L 77.381339 234.19202 
L 77.907839 275.777318 
L 78.235586 289.968399 
L 78.496203 294.76932 
L 78.702855 295.488 
L 78.83448 295.007557 
L 79.235936 291.357045 
L 80.291569 279.323548 
L 80.682496 276.811173 
L 81.151081 275.341873 
L 82.017174 272.725287 
L 82.87537 270.212731 
L 83.730932 267.904097 
L 84.533845 266.015666 
L 85.126158 265.058452 
L 85.726368 264.46368 
L 86.319997 264.165819 
L 86.656958 264.220271 
L 86.983388 264.506886 
L 87.384844 265.201911 
L 87.907396 266.655654 
L 89.168364 270.14315 
L 89.831754 271.249373 
L 90.429332 271.807903 
L 90.828156 271.96369 
L 91.294109 271.912393 
L 92.353691 271.633352 
L 92.815694 271.788235 
L 93.346144 272.219321 
L 94.143791 272.894901 
L 94.472854 272.88512 
L 94.872995 272.637462 
L 95.728557 272.01037 
L 95.997072 272.231744 
L 96.330084 272.763985 
L 97.581838 275.510626 
L 98.049107 276.115667 
L 98.511111 276.285503 
L 98.912568 276.247162 
L 99.443017 275.840804 
L 100.166955 275.45576 
L 100.436786 275.624072 
L 101.09886 276.17902 
L 101.367375 276.160362 
L 101.633258 275.820928 
L 102.162391 274.293658 
L 102.958722 271.778857 
L 103.283836 271.303556 
L 103.61948 271.139283 
L 104.153878 271.151944 
L 106.137468 271.762793 
L 106.402034 271.606188 
L 106.802174 271.051181 
L 107.39712 269.713061 
L 108.522514 267.392676 
L 108.921338 266.327367 
L 109.388607 264.38317 
L 110.779884 257.326474 
L 111.174759 256.474908 
L 111.438009 256.275235 
L 111.640712 256.362801 
L 111.835517 256.666383 
L 112.1014 257.392528 
L 112.437043 258.877148 
L 113.033305 263.003057 
L 114.092887 270.715133 
L 114.557523 272.628744 
L 115.087972 273.871261 
L 115.74873 274.747607 
L 116.413437 275.281356 
L 116.934672 275.439219 
L 117.336129 275.309033 
L 117.867894 274.875714 
L 118.268034 274.098517 
L 118.733986 272.429736 
L 119.46319 268.333086 
L 120.387197 262.998452 
L 121.579721 257.94779 
L 122.041724 256.758724 
L 122.376052 256.447607 
L 122.637986 256.501242 
L 122.965733 256.860985 
L 123.56331 257.88988 
L 124.292513 259.722954 
L 125.153341 261.923117 
L 125.485036 262.237327 
L 125.749603 262.214467 
L 126.015485 261.899881 
L 126.610431 260.78967 
L 128.339984 257.511523 
L 128.873066 256.96648 
L 129.196863 256.897067 
L 129.532507 257.064402 
L 129.997144 257.5902 
L 130.726346 258.922281 
L 131.190983 260.155038 
L 131.985998 263.334641 
L 133.512849 269.956325 
L 134.242052 271.681748 
L 136.092701 275.303717 
L 136.687646 275.907438 
L 137.161496 276.050442 
L 137.682731 275.872264 
L 138.280309 275.430721 
L 138.945016 274.715358 
L 139.736082 273.572158 
L 142.129026 269.195859 
L 142.52785 267.854995 
L 143.388678 263.668075 
L 144.04812 260.853274 
L 144.578568 259.416313 
L 145.106385 258.520608 
L 145.707912 258.009314 
L 146.306806 257.84721 
L 146.76881 257.725995 
L 147.100505 257.289504 
L 147.49538 256.329799 
L 148.025829 255.087224 
L 148.293028 254.889446 
L 148.491782 255.067986 
L 148.694484 255.577626 
L 149.155172 257.857245 
L 149.811981 261.337889 
L 150.214754 262.253187 
L 150.475372 262.420509 
L 150.680707 262.303432 
L 151.142711 261.571431 
L 151.998274 260.232876 
L 152.801187 259.62236 
L 153.126301 259.623571 
L 153.394816 259.832148 
L 153.792323 260.5053 
L 154.189831 261.718676 
L 154.784776 264.485374 
L 155.650869 268.435086 
L 156.25108 269.944408 
L 156.644638 270.433999 
L 158.828299 272.115811 
L 159.225806 272.181065 
L 159.42456 271.993842 
L 159.756255 271.328215 
L 160.220892 269.80792 
L 161.347602 265.876764 
L 161.74511 265.302389 
L 162.14525 265.138006 
L 162.475629 265.237432 
L 163.40227 265.650303 
L 163.869539 265.595341 
L 164.926488 265.338943 
L 165.521433 265.646087 
L 166.315132 266.013244 
L 167.310218 266.208163 
L 168.771256 266.311409 
L 169.362252 266.737788 
L 170.363919 267.507961 
L 170.560041 267.442273 
L 170.840402 267.06753 
L 171.422185 265.258323 
L 173.807231 256.071389 
L 174.340313 254.964047 
L 174.672008 254.746321 
L 174.93789 254.854378 
L 175.266953 255.240008 
L 176.389715 256.736359 
L 177.324253 257.376885 
L 177.651999 258.366549 
L 178.116636 260.669118 
L 179.24203 266.722193 
L 179.775112 268.194292 
L 180.700436 269.897046 
L 181.631025 271.25909 
L 182.161474 271.620533 
L 182.622162 271.693511 
L 182.890677 271.518814 
L 183.153927 271.002995 
L 183.481673 269.747976 
L 184.017388 266.573532 
L 185.739044 254.817714 
L 186.062841 253.891169 
L 186.195782 253.807576 
L 186.332673 253.934027 
L 186.532743 254.419876 
L 186.932883 256.095853 
L 187.729214 259.501654 
L 188.189902 260.375736 
L 189.446922 262.047735 
L 191.240971 264.684894 
L 191.638479 264.881499 
L 192.037303 264.800259 
L 192.974473 264.191439 
L 193.493076 263.937806 
L 194.15515 263.864996 
L 194.685599 263.745968 
L 195.350306 263.332214 
L 195.879439 262.487858 
L 196.619172 260.706825 
L 197.140407 259.387146 
L 197.602411 258.72699 
L 198.001235 258.564316 
L 198.731754 258.41561 
L 199.200339 258.021544 
L 200.317836 256.848548 
L 200.717976 256.74607 
L 200.915414 256.902885 
L 201.247109 257.568335 
L 201.581437 258.719519 
L 202.177698 261.728057 
L 202.897687 265.273126 
L 203.428136 266.899633 
L 203.899354 267.71009 
L 205.622326 269.948134 
L 207.080732 271.021181 
L 208.274571 271.688165 
L 208.606266 271.553592 
L 209.203844 270.987274 
L 211.121621 268.70589 
L 211.848192 267.704552 
L 212.315461 267.399131 
L 212.649789 267.426819 
L 213.25658 267.752833 
L 213.70937 268.036378 
L 214.636011 268.341901 
L 214.963757 268.232195 
L 215.302034 267.804374 
L 215.625831 266.946135 
L 216.226042 264.58323 
L 217.015792 261.276467 
L 217.480429 260.081532 
L 217.812124 259.755751 
L 218.010877 259.889963 
L 218.274128 260.261283 
L 218.873022 262.554854 
L 219.540361 264.888829 
L 220.004997 265.779533 
L 220.527549 266.188421 
L 220.865825 266.243774 
L 221.133024 266.020235 
L 221.466035 265.37914 
L 221.996485 263.589974 
L 222.792816 260.650015 
L 223.185059 259.697856 
L 223.710243 258.940561 
L 224.646097 258.151629 
L 225.043605 257.999763 
L 225.309488 258.199654 
L 225.568789 258.673749 
L 225.971562 260.019417 
L 227.491831 266.314117 
L 227.894604 266.909922 
L 228.224983 267.043045 
L 228.560627 266.896635 
L 229.351694 266.306329 
L 229.559661 266.317876 
L 229.882142 266.683278 
L 230.340198 267.713981 
L 231.335283 269.971011 
L 231.605115 270.112644 
L 231.864416 269.966768 
L 232.268505 269.436274 
L 233.06352 268.240889 
L 233.59002 267.771857 
L 234.650918 266.935099 
L 235.115555 266.274455 
L 235.581508 265.208405 
L 236.242266 262.995988 
L 237.500601 259.530212 
L 238.03105 258.974493 
L 239.227522 258.069588 
L 240.880733 257.375188 
L 241.080803 257.651052 
L 241.34537 258.435926 
L 241.742877 260.342604 
L 243.064393 267.893246 
L 243.4619 268.870387 
L 243.798861 269.250621 
L 244.067376 269.320438 
L 244.40302 269.201048 
L 245.120377 268.759805 
L 245.453388 268.796717 
L 245.720587 269.020785 
L 246.907845 270.408137 
L 247.172411 270.33675 
L 247.50279 269.964347 
L 248.164864 268.798209 
L 249.095454 267.069048 
L 249.624586 266.469078 
L 250.619672 265.885568 
L 251.481816 265.50363 
L 252.341328 265.203991 
L 252.608527 264.715429 
L 252.938905 263.517922 
L 253.539116 260.297284 
L 254.399944 256.195114 
L 254.796135 255.422611 
L 255.060701 255.366016 
L 255.333165 255.634078 
L 255.875461 256.858088 
L 256.723126 259.592354 
L 257.716896 262.302611 
L 259.439868 266.782671 
L 260.046659 267.317027 
L 260.311226 267.260052 
L 260.898273 266.744228 
L 261.959172 265.374988 
L 262.285602 264.961356 
L 263.744007 263.078188 
L 264.148096 262.899663 
L 264.612733 262.933444 
L 265.265593 263.067517 
L 265.599921 262.918993 
L 265.997428 262.464343 
L 266.333072 261.752112 
L 266.795076 260.273884 
L 268.520681 253.946997 
L 269.049814 252.790163 
L 269.444689 252.323828 
L 269.779017 252.191176 
L 270.246286 252.296591 
L 271.038669 252.671759 
L 271.774453 253.370617 
L 272.499707 254.036508 
L 272.827453 254.079723 
L 273.224961 253.896975 
L 274.354304 253.000726 
L 274.884753 251.898278 
L 275.687666 250.04552 
L 275.946967 249.824679 
L 276.141772 249.940807 
L 276.473468 250.553079 
L 276.803846 252.128751 
L 278.130627 257.747095 
L 279.912831 262.410774 
L 280.444596 263.311631 
L 280.776291 263.493407 
L 280.973729 263.359531 
L 281.239611 262.896326 
L 281.702932 261.467504 
L 283.432485 255.551731 
L 283.829993 255.129119 
L 284.02743 255.166911 
L 284.363074 255.547527 
L 284.890891 256.625905 
L 285.685906 258.130661 
L 286.346664 258.85149 
L 286.8113 259.109478 
L 287.212757 259.062397 
L 288.935729 258.379119 
L 289.13185 258.279271 
L 289.393784 257.812333 
L 289.728112 256.75525 
L 290.275672 254.162198 
L 290.660017 251.994666 
L 291.18915 249.771042 
L 291.585342 248.880344 
L 291.91572 248.534098 
L 292.313228 248.428601 
L 293.179321 248.539701 
L 294.103329 248.804164 
L 295.16686 249.469078 
L 295.890797 249.791788 
L 296.426512 250.055706 
L 296.767421 250.5536 
L 297.420281 252.564384 
L 301.528299 268.290249 
L 301.924491 268.931988 
L 302.123245 269.005216 
L 302.320682 268.84772 
L 302.656326 268.220185 
L 303.186775 266.596427 
L 304.173963 263.31749 
L 304.967662 261.499129 
L 306.897286 258.578845 
L 307.556727 257.953672 
L 307.892371 257.893347 
L 308.154305 258.149511 
L 308.487317 258.781076 
L 309.215203 260.775156 
L 311.000039 265.172648 
L 311.401496 265.712542 
L 311.667378 265.745135 
L 311.896406 265.511893 
L 312.725644 262.93715 
L 312.79014 262.93715 
L 313.056023 261.761482 
L 313.656233 260.139013 
L 314.185366 259.560389 
L 314.517061 259.429405 
L 314.917201 259.152157 
L 315.514779 258.914 
L 315.7109 259.042732 
L 315.978099 259.670412 
L 316.238717 260.975332 
L 316.906056 266.031308 
L 317.503634 269.904932 
L 317.830064 270.861001 
L 318.030134 270.946871 
L 318.2947 270.813518 
L 319.223973 268.379405 
L 319.68861 267.688212 
L 320.013724 267.582619 
L 320.350684 267.692725 
L 321.543207 268.118967 
L 323.333308 268.616741 
L 323.596558 268.46994 
L 323.865073 268.0538 
L 324.194136 267.10848 
L 324.654824 265.044783 
L 325.714405 260.32737 
L 326.113229 259.597367 
L 326.196153 259.597367 
L 326.375163 259.283001 
L 326.846381 258.935189 
L 327.109631 259.00102 
L 327.37683 259.432302 
L 327.709841 260.453021 
L 328.104716 262.394937 
L 329.368317 269.289395 
L 329.630251 269.727019 
L 329.764509 269.696286 
L 329.892185 269.475674 
L 330.158068 268.502645 
L 331.221598 263.798358 
L 331.354539 263.927292 
L 331.616474 264.921658 
L 332.08111 267.93775 
L 332.677372 271.529647 
L 333.005118 272.298718 
L 333.138059 272.226509 
L 333.343394 271.714947 
L 333.747483 269.541055 
L 334.533285 263.699231 
L 334.993973 261.329026 
L 335.325668 260.446888 
L 335.52837 260.258144 
L 335.659995 260.375224 
L 335.861382 260.920846 
L 336.194393 262.649297 
L 337.584354 271.262861 
L 337.980545 272.075611 
L 338.180616 272.081713 
L 338.510994 271.732729 
L 339.109888 270.597855 
L 339.63244 269.838189 
L 340.162889 269.518718 
L 341.161923 269.196309 
L 341.692372 269.00824 
L 342.08988 269.109769 
L 343.285036 269.826872 
L 343.549602 269.742751 
L 344.012922 269.271896 
L 344.739492 268.208383 
L 345.868836 266.068907 
L 346.791527 264.515077 
L 347.195616 264.308708 
L 347.527311 264.495007 
L 348.189386 265.356324 
L 348.648757 265.720529 
L 348.909375 265.628651 
L 349.389806 265.030361 
L 350.444123 263.182979 
L 350.702108 263.118405 
L 350.965358 263.303539 
L 351.299686 263.819396 
L 352.689647 266.491662 
L 353.035821 266.473608 
L 353.489927 266.126497 
L 354.552141 265.183812 
L 354.947017 264.47421 
L 355.341892 263.332469 
L 355.940786 260.950175 
L 356.53968 258.991565 
L 356.871375 258.464736 
L 357.133309 258.376375 
L 357.730887 258.650764 
L 358.258703 258.815768 
L 358.794417 258.744722 
L 359.255105 258.392066 
L 359.652613 257.696398 
L 361.18078 254.675757 
L 361.908666 253.801141 
L 362.437799 253.486754 
L 362.702366 253.544425 
L 362.965616 253.903527 
L 363.631639 255.413923 
L 364.352944 257.63028 
L 365.615228 262.246654 
L 366.149626 263.167599 
L 367.076266 264.165412 
L 367.669896 265.343146 
L 368.471492 266.801153 
L 368.863735 267.215211 
L 369.198063 267.252646 
L 370.656468 266.808539 
L 371.51598 266.755601 
L 372.178054 266.953891 
L 372.713768 267.022108 
L 373.972104 266.707988 
L 374.501237 267.207791 
L 374.832932 267.898864 
L 375.829334 270.177025 
L 376.159712 270.385426 
L 376.488775 270.296399 
L 377.012643 269.395143 
L 377.081088 269.395143 
L 377.348287 268.612111 
L 379.002814 264.946768 
L 380.001848 262.941152 
L 380.466485 261.389751 
L 381.128559 258.324837 
L 381.727453 255.889266 
L 382.124961 254.850818 
L 382.323714 254.680778 
L 382.51852 254.824401 
L 382.851531 255.543419 
L 383.712359 257.648487 
L 384.573187 259.141899 
L 384.906198 260.167601 
L 385.634085 263.63021 
L 386.563358 267.701899 
L 387.029311 268.719078 
L 387.438664 269.102513 
L 387.624256 269.126743 
L 387.821694 268.964333 
L 388.22315 268.249824 
L 388.621974 266.925425 
L 389.672342 262.676329 
L 390.14356 261.602002 
L 391.995524 258.743982 
L 392.260091 258.826755 
L 392.594418 259.247034 
L 393.385485 260.389915 
L 393.855387 260.690825 
L 394.114688 261.354539 
L 394.445067 262.966661 
L 394.912336 266.424468 
L 395.7113 272.770459 
L 396.107491 274.320322 
L 396.373374 274.704002 
L 396.565547 274.699379 
L 396.765617 274.485822 
L 397.097312 273.684323 
L 397.565897 271.840604 
L 398.356964 268.313071 
L 398.487273 267.993423 
L 398.487273 267.993423 
" style="fill:none;stroke:#1f77b4;stroke-linecap:square;stroke-width:1.5;"/>
   </g>
   <g id="line2d_17">
    <path clip-path="url(#pa86868608a)" d="M 73.832727 93.845694 
L 73.994626 100.165844 
L 74.39345 103.485482 
L 74.785693 105.48716 
L 75.259543 106.690162 
L 75.459613 106.688737 
L 75.649153 106.187629 
L 75.85054 105.093176 
L 76.311227 100.779741 
L 76.785078 96.496839 
L 76.916703 96.182982 
L 77.049644 96.493224 
L 77.249714 98.170676 
L 77.51428 102.728614 
L 78.436972 130.191442 
L 79.564999 169.508636 
L 80.229706 188.026718 
L 81.351151 215.816379 
L 81.880284 225.811303 
L 82.277792 229.78904 
L 82.605538 231.23058 
L 82.943814 231.669479 
L 83.205748 231.701371 
L 83.471631 231.522865 
L 83.996815 230.84136 
L 85.259099 229.072612 
L 85.792181 228.754995 
L 86.319997 228.738148 
L 86.983388 228.668906 
L 87.315083 228.354677 
L 87.649411 227.751134 
L 88.175911 226.259386 
L 89.439512 222.583581 
L 89.898883 221.835977 
L 90.429332 221.41671 
L 90.761027 221.406322 
L 91.158535 221.656273 
L 92.549812 222.837699 
L 92.815694 222.756248 
L 93.150022 222.361525 
L 93.741019 221.231083 
L 94.671608 219.371841 
L 95.070432 218.989884 
L 95.400811 218.937333 
L 95.665377 219.070972 
L 96.459076 219.767642 
L 96.530154 219.767642 
L 96.792088 220.075671 
L 97.388349 220.727207 
L 97.784541 221.447699 
L 99.641771 224.51667 
L 99.968201 224.57013 
L 100.236716 224.33941 
L 100.502599 223.810485 
L 101.766199 220.935618 
L 102.162391 220.687454 
L 103.01927 220.422593 
L 104.153878 218.949298 
L 104.683011 218.699535 
L 106.070339 218.456381 
L 106.604737 218.554367 
L 107.661686 219.128937 
L 108.126322 219.634099 
L 108.522514 220.384921 
L 108.921338 221.657095 
L 109.917739 225.828197 
L 110.383692 227.259198 
L 110.714071 227.751859 
L 110.912825 227.780064 
L 111.174759 227.562911 
L 111.714422 226.806542 
L 112.238289 226.05629 
L 112.966176 225.206677 
L 113.626934 224.392726 
L 115.087972 222.316002 
L 115.9488 221.297965 
L 116.606925 219.796619 
L 117.336129 218.229748 
L 117.66914 217.925086 
L 117.867894 217.997316 
L 118.199589 218.580643 
L 118.531284 219.668463 
L 119.127545 222.469586 
L 120.055502 226.580994 
L 120.585951 228.166715 
L 121.249342 229.459997 
L 121.710029 229.960499 
L 121.979861 229.995221 
L 122.308923 229.683955 
L 122.905185 228.677134 
L 123.831826 227.11466 
L 124.557079 226.295638 
L 125.0204 226.015308 
L 125.286283 226.073581 
L 125.749603 226.620828 
L 126.414309 227.251739 
L 126.944758 227.522104 
L 127.743722 227.874139 
L 129.793125 229.800752 
L 130.726346 230.156062 
L 132.054443 230.410984 
L 132.713885 230.154677 
L 133.107444 229.86326 
L 133.777416 229.190799 
L 135.496439 227.192848 
L 135.961075 227.089783 
L 136.224326 227.262428 
L 137.027238 227.904631 
L 137.289172 227.888766 
L 137.552423 227.634802 
L 138.015743 226.789618 
L 141.732835 219.705006 
L 141.930272 219.698272 
L 142.329096 220.595153 
L 142.855597 222.667499 
L 143.849366 227.185216 
L 144.578568 229.391165 
L 145.106385 230.38481 
L 145.573654 230.782443 
L 146.104103 230.933089 
L 146.76881 231.106689 
L 147.034692 231.595308 
L 147.428251 232.955764 
L 148.293028 236.220884 
L 148.560227 236.582948 
L 148.694484 236.437772 
L 148.88929 235.714859 
L 149.220985 233.40163 
L 149.811981 227.333796 
L 150.680707 219.312412 
L 151.075582 217.440998 
L 151.474406 216.440067 
L 152.135164 215.704903 
L 153.592253 214.66492 
L 154.122702 213.542138 
L 155.515295 210.317813 
L 156.310311 209.365436 
L 157.238268 208.542079 
L 157.899025 208.224362 
L 158.629545 208.145478 
L 159.159994 208.402535 
L 160.160344 209.172576 
L 160.821102 209.708259 
L 161.283106 209.866444 
L 161.550305 209.670652 
L 161.946496 208.89853 
L 162.738879 206.431003 
L 163.2022 205.257895 
L 163.662887 204.778062 
L 163.869539 204.901909 
L 164.260465 205.482316 
L 165.062062 207.186722 
L 165.657007 208.167773 
L 166.246687 208.776097 
L 166.850846 209.088649 
L 167.381295 209.084005 
L 167.977557 208.963599 
L 168.239491 209.02415 
L 168.571186 209.337708 
L 169.234576 210.42109 
L 169.897967 211.50506 
L 171.157618 213.243521 
L 172.485715 216.571536 
L 173.542665 218.973562 
L 174.005985 219.536122 
L 174.2745 219.612536 
L 174.539066 219.427126 
L 174.93789 218.820013 
L 175.601281 217.422792 
L 176.126465 216.561675 
L 176.591101 216.169844 
L 177.387433 215.631211 
L 177.985011 214.767515 
L 180.108123 211.259642 
L 180.172619 211.259642 
L 180.438502 211.004703 
L 181.097944 210.70352 
L 181.565213 210.672655 
L 181.896908 210.896985 
L 182.300997 211.437305 
L 183.153927 213.483332 
L 184.349083 216.305787 
L 184.80977 216.786959 
L 185.209911 216.906664 
L 185.682445 216.799233 
L 186.062841 216.427805 
L 186.669633 215.38734 
L 188.325476 211.55233 
L 189.387691 210.132765 
L 189.783882 209.85155 
L 190.045816 209.828765 
L 190.443323 210.110112 
L 191.105397 210.569276 
L 191.437093 210.552116 
L 191.904362 210.181084 
L 192.565119 209.71358 
L 193.098201 209.592406 
L 193.62865 209.718365 
L 194.685599 210.05624 
L 194.950166 209.94775 
L 195.350306 209.494458 
L 196.07556 208.539897 
L 196.540196 208.258971 
L 196.882422 208.351646 
L 197.402341 208.613767 
L 197.734036 208.565652 
L 198.268434 208.480904 
L 198.530368 208.690476 
L 198.941038 209.321627 
L 199.720258 211.033593 
L 200.182262 211.596782 
L 201.114168 212.184866 
L 201.514308 212.261584 
L 201.778874 212.052602 
L 202.177698 211.342854 
L 203.031945 209.617544 
L 203.361008 209.367708 
L 203.561078 209.461426 
L 203.965166 210.0036 
L 205.290631 211.985669 
L 205.889525 212.79637 
L 206.354162 213.649268 
L 206.884611 214.556102 
L 207.347931 215.001202 
L 207.67831 215.10339 
L 208.07845 214.943817 
L 208.606266 214.374502 
L 209.070903 213.520236 
L 209.800106 211.692079 
L 210.134433 210.50126 
L 210.859688 208.668903 
L 211.254563 208.08563 
L 211.586258 207.863621 
L 211.848192 207.942402 
L 212.516847 208.489257 
L 213.042031 208.777262 
L 213.442171 208.798069 
L 214.701823 208.513949 
L 214.963757 208.661042 
L 215.22964 209.028127 
L 215.565284 209.838051 
L 217.015792 214.56861 
L 217.4133 215.039779 
L 217.677866 215.057128 
L 218.07669 214.769601 
L 218.405753 214.240886 
L 218.938834 212.815286 
L 220.667071 207.889363 
L 220.99745 207.566932 
L 221.133024 207.634841 
L 221.331778 207.997312 
L 221.659524 209.086992 
L 222.390044 212.313767 
L 223.057383 214.766206 
L 223.516754 215.904499 
L 224.040622 216.745022 
L 224.510523 217.07217 
L 224.779038 217.027943 
L 225.108101 216.694025 
L 225.505609 215.823314 
L 226.237444 213.228293 
L 227.093007 209.968399 
L 227.693218 208.625076 
L 228.027545 208.295969 
L 228.224983 208.331629 
L 228.560627 208.728313 
L 229.749201 210.899274 
L 229.945323 210.896873 
L 230.212521 210.546315 
L 230.873279 209.028294 
L 231.468224 207.923524 
L 231.932861 207.468374 
L 232.268505 207.426756 
L 232.590986 207.600053 
L 232.996391 208.141043 
L 234.512712 210.566983 
L 235.049743 210.656627 
L 235.515695 210.77247 
L 235.843442 211.208551 
L 236.323873 212.182744 
L 238.891878 219.593082 
L 239.160393 219.856677 
L 239.355199 219.742261 
L 239.622398 219.214916 
L 240.085718 217.770945 
L 241.411182 213.59712 
L 242.932768 209.576097 
L 243.328959 209.243359 
L 243.598791 209.300899 
L 243.998931 209.614785 
L 245.120377 210.719305 
L 245.323079 210.575337 
L 245.853528 209.606002 
L 246.383977 208.699365 
L 246.643278 208.528332 
L 246.842032 208.654347 
L 247.23954 209.30525 
L 247.967427 210.507095 
L 248.364934 210.722286 
L 248.630817 210.495594 
L 249.028325 209.687854 
L 249.756211 207.587503 
L 250.419602 205.889449 
L 250.884238 205.155479 
L 251.214617 204.970636 
L 251.481816 205.140657 
L 251.746382 205.619653 
L 252.076761 206.707893 
L 252.873093 210.680398 
L 253.739186 214.521675 
L 254.26437 216.001301 
L 254.731639 216.616227 
L 255.060701 216.742557 
L 255.462158 216.612826 
L 256.451979 216.197896 
L 256.920564 216.041929 
L 257.250943 215.640997 
L 257.651083 214.864542 
L 258.246028 213.15971 
L 259.10554 210.75895 
L 259.837375 209.484421 
L 260.499449 208.821569 
L 261.032531 208.58683 
L 261.293149 208.641548 
L 261.82623 209.108395 
L 262.483039 209.789439 
L 262.94636 210.038101 
L 263.476808 210.030334 
L 264.148096 209.924685 
L 264.808854 210.038679 
L 265.265593 210.267811 
L 265.736811 210.839256 
L 267.525595 213.674764 
L 268.649674 214.910467 
L 268.852376 214.815602 
L 269.91459 213.919812 
L 270.110712 214.183018 
L 270.506903 215.175853 
L 272.164063 220.161712 
L 272.564203 220.691554 
L 272.959078 220.864386 
L 273.224961 220.735622 
L 273.759359 220.114089 
L 274.484613 219.146085 
L 274.884753 218.942885 
L 275.687666 218.790627 
L 276.077276 218.089349 
L 276.606409 216.48085 
L 278.200389 210.855206 
L 278.991455 208.913786 
L 280.047088 206.74397 
L 280.444596 206.297346 
L 280.642034 206.260247 
L 280.842104 206.48153 
L 281.173799 207.29185 
L 281.637119 209.154995 
L 283.366672 217.224414 
L 283.766812 218.059278 
L 283.965566 218.152741 
L 284.161688 217.921387 
L 284.561828 216.917178 
L 285.817531 213.27322 
L 286.476973 212.583768 
L 287.277253 212.102647 
L 287.873515 212.005001 
L 288.53164 212.224183 
L 289.193714 212.369745 
L 289.528042 212.258825 
L 289.996627 211.840057 
L 290.660017 210.923159 
L 291.651154 209.474823 
L 292.180287 209.049071 
L 292.777865 208.874868 
L 293.5097 208.989718 
L 295.959243 209.641878 
L 296.767421 210.299944 
L 297.347887 210.81305 
L 298.015226 211.146737 
L 298.281109 211.110816 
L 298.612804 210.814171 
L 299.07744 210.029842 
L 299.740831 208.4415 
L 300.466085 206.126286 
L 301.728369 201.831967 
L 302.061381 201.468469 
L 302.260134 201.647239 
L 302.656326 202.574005 
L 303.382896 204.415695 
L 303.714591 204.750903 
L 303.910713 204.641962 
L 304.243724 204.056457 
L 304.705728 202.790746 
L 305.704763 199.514478 
L 306.232579 197.942182 
L 306.632719 197.302526 
L 306.831473 197.232529 
L 307.094723 197.439598 
L 308.088493 198.23192 
L 308.487317 198.106767 
L 309.015133 197.962516 
L 309.215203 198.177897 
L 309.481086 198.854816 
L 309.944406 200.767343 
L 311.735823 208.723753 
L 313.392983 214.30409 
L 314.586822 216.392152 
L 315.04751 216.846637 
L 315.312076 216.852383 
L 315.7109 216.474371 
L 315.978099 215.731914 
L 316.507232 213.120438 
L 316.971868 209.129667 
L 317.766884 202.310971 
L 318.164392 200.502585 
L 318.426325 200.13686 
L 318.696157 200.138509 
L 319.48854 200.471661 
L 319.755738 200.162277 
L 320.749508 198.81383 
L 321.01539 198.790668 
L 321.343137 199.070206 
L 322.024955 199.975371 
L 322.332957 200.457353 
L 323.333308 201.977537 
L 323.728183 203.196808 
L 324.128323 205.117334 
L 324.931236 210.169783 
L 325.449839 213.253075 
L 325.851295 214.56795 
L 326.716072 216.257371 
L 326.912193 216.372216 
L 327.109631 216.166417 
L 327.37683 215.608917 
L 327.709841 214.197412 
L 328.170529 211.079994 
L 329.299872 202.947484 
L 329.630251 202.202043 
L 329.764509 202.346318 
L 329.892185 202.706388 
L 330.227829 204.298073 
L 331.020212 208.752726 
L 331.284778 209.304948 
L 331.419036 209.18263 
L 331.616474 208.513228 
L 332.01793 206.122982 
L 332.612875 202.623713 
L 332.876125 201.997167 
L 333.005118 202.168129 
L 333.272317 203.374977 
L 333.675089 206.390697 
L 334.797851 214.577407 
L 335.192727 215.58009 
L 335.394113 215.598509 
L 335.595499 215.330735 
L 335.927194 214.377449 
L 336.256257 212.762756 
L 336.919647 207.86839 
L 337.584354 203.349908 
L 338.045042 202.0582 
L 338.245112 202.015842 
L 338.443866 202.293584 
L 339.570576 204.573205 
L 339.771963 204.606764 
L 340.094444 204.349648 
L 340.632791 203.565103 
L 341.227736 202.775473 
L 341.760817 202.421796 
L 342.025384 202.511855 
L 342.418943 203.004241 
L 342.95334 203.986074 
L 343.549602 204.880648 
L 344.012922 205.252647 
L 344.407798 205.355932 
L 344.805305 205.199515 
L 345.269942 204.66922 
L 346.064957 203.367897 
L 346.525645 202.821603 
L 346.728347 202.784148 
L 346.99423 203.043795 
L 347.390422 204.017121 
L 347.791878 205.513116 
L 349.976854 216.00468 
L 350.311182 216.634092 
L 350.444123 216.649001 
L 350.702108 216.260647 
L 351.035119 215.284766 
L 351.566885 212.887485 
L 353.035821 206.405453 
L 353.425431 205.460313 
L 353.757126 205.076875 
L 354.153318 204.993 
L 354.685083 205.079222 
L 355.015462 205.327652 
L 355.414286 205.97863 
L 355.878922 207.203899 
L 357.471585 212.576331 
L 357.994137 213.530222 
L 358.595664 214.036707 
L 359.520988 214.478926 
L 359.98694 215.142228 
L 360.450261 216.183376 
L 361.18078 217.919039 
L 361.711229 218.609242 
L 362.171917 219.035651 
L 362.503612 219.07777 
L 362.768178 218.8522 
L 363.165686 218.113748 
L 363.565826 216.903589 
L 364.558279 213.938967 
L 365.483603 212.14161 
L 365.879795 211.768793 
L 366.283884 211.681255 
L 366.747204 211.690133 
L 367.076266 211.495986 
L 368.070036 210.953077 
L 368.471492 210.699499 
L 369.065121 210.043689 
L 369.986497 208.657005 
L 370.455082 208.084899 
L 371.056609 207.413527 
L 372.06354 206.333415 
L 373.040198 204.375097 
L 374.102413 202.781308 
L 374.368295 202.358362 
L 375.895146 198.800641 
L 376.35715 198.361254 
L 376.549323 198.454689 
L 376.813889 198.875866 
L 377.348287 200.211303 
L 379.539844 207.327249 
L 380.001848 208.770193 
L 380.79818 211.458824 
L 381.727453 214.926343 
L 382.124961 215.745161 
L 382.455339 216.017572 
L 382.652777 215.885708 
L 383.116097 214.9925 
L 383.580734 214.222738 
L 384.773257 212.61952 
L 385.305022 210.827947 
L 386.82924 204.378334 
L 387.487366 202.575846 
L 387.88619 202.020887 
L 388.088892 202.05132 
L 388.287646 202.472093 
L 388.621974 203.77949 
L 390.409442 213.289993 
L 391.003071 214.824828 
L 391.931028 216.083142 
L 392.328536 216.190233 
L 393.256493 216.01277 
L 393.588188 216.531151 
L 394.445067 218.488648 
L 395.7113 222.283967 
L 396.173304 224.161814 
L 397.500085 230.858542 
L 397.83178 233.566926 
L 398.092398 237.47544 
L 398.487273 248.172204 
L 398.487273 248.172204 
" style="fill:none;stroke:#ff7f0e;stroke-linecap:square;stroke-width:1.5;"/>
   </g>
   <g id="line2d_18">
    <path clip-path="url(#pa86868608a)" d="M 73.832727 89.240851 
L 73.994626 84.282742 
L 74.39345 81.902031 
L 74.785693 80.457987 
L 75.320091 79.386467 
L 75.517528 79.316744 
L 75.649153 79.453683 
L 75.85054 79.949432 
L 76.444169 82.566259 
L 76.848258 85.154863 
L 77.049644 87.972514 
L 77.315526 95.796284 
L 77.634059 113.904474 
L 78.031567 145.904262 
L 79.027969 220.228921 
L 79.49787 238.431426 
L 79.955925 248.568284 
L 80.291569 252.228528 
L 80.549554 253.454522 
L 80.682496 253.45745 
L 80.885198 252.854329 
L 81.21821 250.752539 
L 82.017174 245.288801 
L 82.277792 244.77837 
L 82.473913 244.848621 
L 82.746377 245.28574 
L 83.143885 246.450096 
L 85.060345 253.678407 
L 85.594743 254.631739 
L 86.058064 255.047581 
L 86.450306 255.151276 
L 86.784634 254.995302 
L 87.247954 254.486699 
L 87.907396 253.37703 
L 88.840617 251.961985 
L 89.702762 251.054845 
L 90.562273 250.449451 
L 91.294109 250.167111 
L 94.013483 249.633364 
L 94.408358 250.030286 
L 95.598248 251.63169 
L 95.798319 251.492955 
L 96.195826 250.679544 
L 96.660463 249.069298 
L 98.250494 243.853898 
L 98.776994 242.971557 
L 99.04156 242.86376 
L 99.641771 243.081433 
L 100.502599 243.586723 
L 100.900106 243.744443 
L 101.233117 244.180135 
L 101.567445 244.982783 
L 101.959688 246.681112 
L 103.083766 251.493399 
L 103.489171 252.303596 
L 104.016988 252.735682 
L 104.348683 252.73532 
L 104.943628 252.551412 
L 105.742592 252.235586 
L 106.204597 252.287022 
L 106.467846 252.521984 
L 106.936432 253.315398 
L 108.126322 255.985584 
L 109.122724 257.384281 
L 109.583412 258.693494 
L 110.847013 262.901418 
L 111.372197 263.953856 
L 111.640712 264.122723 
L 111.835517 264.011098 
L 112.1014 263.55089 
L 112.437043 262.409575 
L 112.896415 259.631906 
L 114.557523 248.514163 
L 115.02216 247.315499 
L 115.618421 246.498774 
L 116.010664 246.331361 
L 116.343675 246.442549 
L 116.742499 246.794036 
L 117.336129 247.668798 
L 118.531284 249.650238 
L 118.995921 251.224752 
L 121.113768 259.508327 
L 122.041724 261.958076 
L 122.574806 262.651809 
L 122.905185 262.725292 
L 123.430369 262.489531 
L 123.831826 262.027057 
L 124.292513 261.149297 
L 125.417907 258.847678 
L 125.749603 258.583834 
L 125.954938 258.66878 
L 126.547251 259.478241 
L 127.872715 261.723269 
L 128.475558 262.170355 
L 128.936246 262.278245 
L 129.266624 262.111428 
L 129.728629 261.616203 
L 130.395968 260.455351 
L 131.059358 258.858137 
L 131.589807 256.868053 
L 132.394036 252.765648 
L 132.849459 250.198814 
L 133.244334 248.48136 
L 133.968272 246.410932 
L 134.035401 246.410932 
L 134.242052 245.9048 
L 135.101564 244.180926 
L 137.027238 239.977602 
L 137.22336 239.97639 
L 137.490559 240.251485 
L 137.945982 241.296189 
L 138.750211 243.676598 
L 140.2073 248.523975 
L 141.468268 253.081849 
L 142.196155 254.679923 
L 142.726604 255.998739 
L 143.587432 258.379965 
L 144.112616 259.318112 
L 144.643065 259.784577 
L 145.573654 260.171543 
L 146.367353 260.291284 
L 147.69545 260.200066 
L 148.025829 259.942026 
L 148.491782 259.155079 
L 148.955102 258.40082 
L 149.288113 258.264709 
L 149.482919 258.359653 
L 149.748801 258.867477 
L 150.272669 260.810279 
L 151.276968 264.537023 
L 151.865332 265.84024 
L 152.535304 266.61671 
L 153.06312 266.86669 
L 153.394816 266.772795 
L 153.792323 266.410387 
L 154.122702 265.802165 
L 154.521526 264.591651 
L 156.177369 258.692056 
L 156.711767 258.142359 
L 158.166224 257.158105 
L 159.02442 256.38303 
L 159.296884 256.379235 
L 159.553553 256.752299 
L 159.89841 257.618959 
L 161.018539 261.932108 
L 161.550305 263.285032 
L 162.076805 264.082966 
L 162.540125 264.446051 
L 163.40227 264.739394 
L 164.069609 264.812045 
L 164.531613 264.716318 
L 164.994933 264.367672 
L 166.246687 263.129161 
L 166.932454 262.850099 
L 167.511604 262.785846 
L 168.508006 262.704207 
L 168.904197 262.332191 
L 169.632084 261.210757 
L 170.291526 260.329279 
L 170.560041 260.264052 
L 170.840402 260.518253 
L 171.422185 261.91601 
L 172.750282 265.80042 
L 174.005985 268.578266 
L 174.604879 269.339934 
L 175.010284 269.501262 
L 175.463075 269.403865 
L 176.788539 268.89944 
L 177.254492 268.741743 
L 177.519058 268.30013 
L 177.850753 267.293761 
L 178.391732 264.83526 
L 178.918233 262.205779 
L 179.371023 260.575589 
L 179.908053 259.458689 
L 181.96272 256.133708 
L 182.820916 255.349384 
L 183.020986 255.44152 
L 183.288185 256.008296 
L 183.613299 257.371437 
L 184.0832 260.156679 
L 185.606102 269.884793 
L 186.128654 271.398994 
L 186.332673 271.437545 
L 186.532743 271.181269 
L 186.932883 270.16807 
L 187.729214 268.008065 
L 188.128039 267.563233 
L 189.519315 266.486074 
L 190.110312 265.51581 
L 191.240971 263.798515 
L 191.572666 263.662312 
L 191.904362 263.783337 
L 193.561521 264.896502 
L 194.286775 264.85096 
L 194.685599 264.935804 
L 195.143655 265.281625 
L 195.480615 265.767147 
L 196.07556 267.107245 
L 197.270716 269.75044 
L 197.734036 270.192712 
L 198.13286 270.293318 
L 199.858465 270.473341 
L 200.585035 270.693958 
L 200.846969 270.549788 
L 201.182613 270.004478 
L 201.647249 268.60052 
L 202.240878 266.120003 
L 203.16357 262.672659 
L 203.965166 260.757434 
L 206.151459 256.448139 
L 207.67831 254.385489 
L 208.07845 254.19043 
L 208.3417 254.277596 
L 208.670763 254.685594 
L 209.138032 255.645827 
L 211.455949 261.104194 
L 211.914004 261.673715 
L 212.315461 261.814683 
L 212.715601 261.646878 
L 214.166109 260.828929 
L 214.837397 260.743635 
L 215.165144 260.931844 
L 215.49289 261.391145 
L 215.889081 262.306201 
L 216.685413 264.696234 
L 217.281675 266.163811 
L 217.743679 266.790722 
L 217.945065 266.804688 
L 218.274128 266.515977 
L 218.873022 264.977606 
L 219.474548 263.575891 
L 219.874689 263.107233 
L 220.202435 263.094858 
L 220.93427 263.31176 
L 221.466035 263.899473 
L 222.059665 265.07515 
L 222.792816 266.427216 
L 223.185059 266.81727 
L 223.780004 267.052104 
L 224.510523 267.304087 
L 225.172597 267.684955 
L 225.505609 267.596802 
L 225.771492 267.271969 
L 226.17558 266.346387 
L 227.361522 262.97237 
L 227.761662 262.40023 
L 228.224983 262.187337 
L 228.689619 262.226835 
L 229.295095 262.229725 
L 229.559661 262.080485 
L 230.146709 261.138316 
L 231.335283 259.051511 
L 231.605115 259.02759 
L 231.932861 259.370376 
L 233.130649 260.967531 
L 233.59002 261.040176 
L 234.253411 261.125552 
L 234.650918 261.458226 
L 235.115555 262.137436 
L 235.780262 263.681557 
L 236.850373 266.2996 
L 237.168906 266.71131 
L 237.566414 266.843066 
L 237.898109 266.709784 
L 238.827382 266.168156 
L 239.160393 266.186206 
L 239.486823 266.473554 
L 239.956725 267.269468 
L 240.880733 268.926203 
L 241.080803 268.914096 
L 241.280873 268.639008 
L 241.611252 267.739551 
L 242.074572 265.652026 
L 243.130206 260.673274 
L 243.598791 259.637747 
L 243.998931 259.227767 
L 244.40302 259.157937 
L 245.653458 259.500667 
L 246.048333 259.184403 
L 247.106599 258.242593 
L 247.37643 258.314907 
L 247.834485 258.810498 
L 248.231993 259.544278 
L 248.829571 261.040992 
L 249.689083 263.028964 
L 250.485414 264.171067 
L 251.015863 264.668254 
L 251.481816 264.831981 
L 251.812195 264.672294 
L 252.542714 264.197243 
L 252.740152 264.393713 
L 253.073163 265.177856 
L 253.61151 267.075173 
L 254.068249 268.691888 
L 254.132745 268.691888 
L 254.334131 269.33825 
L 254.731639 269.899363 
L 254.997522 269.972886 
L 255.26472 269.825608 
L 255.609578 269.371801 
L 256.38485 267.438194 
L 257.250943 265.311175 
L 259.375371 261.880188 
L 259.783409 261.601734 
L 260.099309 261.581026 
L 260.499449 261.90529 
L 260.898273 262.397032 
L 261.424774 263.079005 
L 263.013488 264.765848 
L 263.60975 265.502795 
L 264.082284 265.79591 
L 264.545604 265.780939 
L 265.535425 265.520295 
L 265.932932 265.672517 
L 266.269892 266.078045 
L 266.729264 267.093597 
L 268.391688 271.587075 
L 269.112994 273.022982 
L 269.181439 273.022982 
L 269.380193 273.38192 
L 269.779017 273.635136 
L 270.043583 273.543169 
L 270.506903 273.003913 
L 271.17161 271.788146 
L 272.499707 269.35787 
L 272.827453 269.220475 
L 273.095968 269.312701 
L 273.825171 270.069217 
L 274.547793 271.179716 
L 276.141772 273.772749 
L 276.340526 273.686556 
L 276.672222 273.237849 
L 277.268483 271.917267 
L 278.063498 270.227672 
L 280.511725 266.578861 
L 280.842104 266.420738 
L 281.10667 266.517121 
L 281.438365 266.901721 
L 282.295244 268.307967 
L 282.374219 268.535666 
L 282.903352 269.230091 
L 283.565426 269.551071 
L 284.094559 269.535972 
L 284.760582 269.344253 
L 286.891592 268.455125 
L 287.344382 268.647665 
L 288.336835 269.101587 
L 289.193714 269.250535 
L 289.462229 269.760441 
L 289.861053 271.111123 
L 290.538922 274.226026 
L 290.982499 276.155633 
L 291.4524 277.354911 
L 291.91572 277.918052 
L 292.380357 278.0723 
L 293.112192 278.019167 
L 294.169142 277.735227 
L 296.094817 276.815687 
L 296.489692 276.512908 
L 296.821387 275.996497 
L 297.291288 274.826255 
L 298.808925 269.860632 
L 300.335776 265.588441 
L 301.263733 263.317766 
L 301.728369 262.501121 
L 302.061381 262.236855 
L 302.320682 262.333007 
L 302.656326 262.776726 
L 303.11833 263.860256 
L 303.910713 266.374081 
L 305.104552 269.881988 
L 306.232579 272.227485 
L 306.897286 273.186263 
L 307.440897 273.527058 
L 307.823926 273.5959 
L 308.088493 273.426602 
L 308.487317 272.84452 
L 309.015133 271.63971 
L 309.877277 269.023273 
L 311.535753 263.608871 
L 311.799003 263.456699 
L 312.00039 263.574704 
L 312.395265 264.17865 
L 313.848406 266.618048 
L 314.381487 266.649734 
L 314.730294 266.569173 
L 315.7109 266.851723 
L 315.978099 266.592082 
L 316.172904 266.11868 
L 316.838927 263.04399 
L 317.503634 260.462463 
L 317.766884 260.055912 
L 317.965638 260.158695 
L 318.2947 260.548291 
L 318.696157 261.748189 
L 319.356915 263.449465 
L 319.755738 264.033529 
L 320.079536 264.19693 
L 320.486258 264.188257 
L 321.210196 263.934654 
L 321.936766 263.436129 
L 323.596558 262.467428 
L 323.865073 262.610568 
L 324.194136 263.075092 
L 324.724585 264.405183 
L 325.323479 266.011895 
L 326.048733 266.854424 
L 326.716072 266.989968 
L 327.311017 266.911959 
L 327.709841 266.500792 
L 328.037588 265.860815 
L 328.570669 264.213074 
L 329.299872 261.725812 
L 329.630251 261.249807 
L 329.850065 261.292382 
L 330.227829 262.326979 
L 330.954399 264.871229 
L 331.221598 265.176883 
L 331.354539 265.034372 
L 331.616474 264.31342 
L 332.01793 262.499904 
L 332.748449 258.944363 
L 333.069614 258.277331 
L 333.210453 258.311836 
L 333.403942 258.674496 
L 333.607961 259.362286 
L 335.192727 265.681185 
L 335.595499 266.186197 
L 335.791621 266.021793 
L 336.060136 265.307731 
L 336.657714 262.902275 
L 337.250026 260.168749 
L 337.777843 258.767784 
L 338.045042 258.593227 
L 338.310924 258.731133 
L 338.775561 259.249381 
L 339.570576 260.33785 
L 340.299779 260.94863 
L 340.964486 261.46081 
L 341.760817 261.972015 
L 342.025384 261.875217 
L 342.487388 261.340122 
L 343.350848 260.411637 
L 343.616731 260.455668 
L 344.012922 260.824212 
L 344.540739 261.627124 
L 345.005375 262.573937 
L 346.791527 266.488824 
L 347.056094 266.581167 
L 347.260113 266.446108 
L 347.658937 265.762286 
L 348.255198 264.067438 
L 348.85146 262.675087 
L 349.176574 262.375565 
L 349.581979 262.211783 
L 349.911042 262.377868 
L 351.104881 263.23591 
L 351.433944 263.236281 
L 352.494842 262.907976 
L 352.826537 263.189524 
L 355.079958 266.088431 
L 355.61304 267.558461 
L 356.272481 269.21234 
L 356.60286 269.556567 
L 356.871375 269.564251 
L 357.133309 269.334728 
L 358.194207 268.180696 
L 358.661476 268.065992 
L 359.190609 268.281067 
L 359.652613 268.820793 
L 360.516073 269.811203 
L 362.768178 270.513203 
L 363.098557 270.356813 
L 363.367072 270.089071 
L 363.963334 269.639729 
L 364.285815 269.122966 
L 364.825478 267.592652 
L 365.549416 265.797683 
L 366.149626 264.90135 
L 367.211841 263.78288 
L 367.804153 262.646851 
L 368.471492 261.566502 
L 368.863735 261.284667 
L 369.130934 261.350699 
L 369.856188 262.03028 
L 370.522211 262.522492 
L 371.851624 263.004335 
L 372.245183 263.061997 
L 372.713768 263.299507 
L 373.640409 264.155428 
L 373.972104 264.264702 
L 374.634178 263.827494 
L 375.427877 262.18726 
L 375.829334 261.623692 
L 376.092584 261.491116 
L 376.488775 261.621868 
L 377.012643 262.383814 
L 377.081088 262.383814 
L 377.348287 262.996096 
L 378.213063 264.222256 
L 379.002814 265.180582 
L 380.147952 266.406776 
L 381.855129 270.481536 
L 382.190773 270.831645 
L 382.388211 270.816606 
L 382.714641 270.482088 
L 384.906198 267.525484 
L 385.770975 264.917783 
L 386.563358 262.512468 
L 386.963498 261.944514 
L 387.361006 261.783984 
L 387.624256 261.869445 
L 387.88619 262.229142 
L 388.354775 263.108134 
L 389.606529 265.83707 
L 390.010618 266.098329 
L 390.939891 266.476619 
L 391.800719 267.234202 
L 392.129782 267.23965 
L 392.461477 266.984443 
L 393.189364 265.990358 
L 393.918567 264.892255 
L 394.184449 263.847612 
L 394.583273 261.113463 
L 395.116355 255.508331 
L 395.838976 247.512755 
L 396.373374 244.163157 
L 396.703753 243.14001 
L 396.961738 242.884489 
L 397.097312 242.946223 
L 397.500085 243.499927 
L 397.765967 243.767728 
L 397.897592 243.479564 
L 398.092398 241.879827 
L 398.356964 236.655998 
L 398.487273 232.11145 
L 398.487273 232.11145 
" style="fill:none;stroke:#2ca02c;stroke-linecap:square;stroke-width:1.5;"/>
   </g>
   <g id="line2d_19">
    <path clip-path="url(#pa86868608a)" d="M 73.832727 53.568016 
L 398.487273 53.568024 
L 398.487273 53.568024 
" style="fill:none;stroke:#d62728;stroke-linecap:square;stroke-width:1.5;"/>
   </g>
   <g id="patch_3">
    <path d="M 57.6 307.584 
L 57.6 41.472 
" style="fill:none;stroke:#000000;stroke-linecap:square;stroke-linejoin:miter;stroke-width:0.8;"/>
   </g>
   <g id="patch_4">
    <path d="M 414.72 307.584 
L 414.72 41.472 
" style="fill:none;stroke:#000000;stroke-linecap:square;stroke-linejoin:miter;stroke-width:0.8;"/>
   </g>
   <g id="patch_5">
    <path d="M 57.6 307.584 
L 414.72 307.584 
" style="fill:none;stroke:#000000;stroke-linecap:square;stroke-linejoin:miter;stroke-width:0.8;"/>
   </g>
   <g id="patch_6">
    <path d="M 57.6 41.472 
L 414.72 41.472 
" style="fill:none;stroke:#000000;stroke-linecap:square;stroke-linejoin:miter;stroke-width:0.8;"/>
   </g>
   <g id="text_18">
    <!-- Vivo 1716/car_on_pocket/grav Dec 09 121014.txt -->
    <defs>
     <path d="M 28.609375 0 
L 0.78125 72.90625 
L 11.078125 72.90625 
L 34.1875 11.53125 
L 57.328125 72.90625 
L 67.578125 72.90625 
L 39.796875 0 
z
" id="DejaVuSans-86"/>
     <path d="M 2.984375 54.6875 
L 12.5 54.6875 
L 29.59375 8.796875 
L 46.6875 54.6875 
L 56.203125 54.6875 
L 35.6875 0 
L 23.484375 0 
z
" id="DejaVuSans-118"/>
     <path d="M 33.015625 40.375 
Q 26.375 40.375 22.484375 35.828125 
Q 18.609375 31.296875 18.609375 23.390625 
Q 18.609375 15.53125 22.484375 10.953125 
Q 26.375 6.390625 33.015625 6.390625 
Q 39.65625 6.390625 43.53125 10.953125 
Q 47.40625 15.53125 47.40625 23.390625 
Q 47.40625 31.296875 43.53125 35.828125 
Q 39.65625 40.375 33.015625 40.375 
z
M 52.59375 71.296875 
L 52.59375 62.3125 
Q 48.875 64.0625 45.09375 64.984375 
Q 41.3125 65.921875 37.59375 65.921875 
Q 27.828125 65.921875 22.671875 59.328125 
Q 17.53125 52.734375 16.796875 39.40625 
Q 19.671875 43.65625 24.015625 45.921875 
Q 28.375 48.1875 33.59375 48.1875 
Q 44.578125 48.1875 50.953125 41.515625 
Q 57.328125 34.859375 57.328125 23.390625 
Q 57.328125 12.15625 50.6875 5.359375 
Q 44.046875 -1.421875 33.015625 -1.421875 
Q 20.359375 -1.421875 13.671875 8.265625 
Q 6.984375 17.96875 6.984375 36.375 
Q 6.984375 53.65625 15.1875 63.9375 
Q 23.390625 74.21875 37.203125 74.21875 
Q 40.921875 74.21875 44.703125 73.484375 
Q 48.484375 72.75 52.59375 71.296875 
z
" id="DejaVuSans-54"/>
     <path d="M 25.390625 72.90625 
L 33.6875 72.90625 
L 8.296875 -9.28125 
L 0 -9.28125 
z
" id="DejaVuSans-47"/>
     <path d="M 41.109375 46.296875 
Q 39.59375 47.171875 37.8125 47.578125 
Q 36.03125 48 33.890625 48 
Q 26.265625 48 22.1875 43.046875 
Q 18.109375 38.09375 18.109375 28.8125 
L 18.109375 0 
L 9.078125 0 
L 9.078125 54.6875 
L 18.109375 54.6875 
L 18.109375 46.1875 
Q 20.953125 51.171875 25.484375 53.578125 
Q 30.03125 56 36.53125 56 
Q 37.453125 56 38.578125 55.875 
Q 39.703125 55.765625 41.0625 55.515625 
z
" id="DejaVuSans-114"/>
     <path d="M 50.984375 -16.609375 
L 50.984375 -23.578125 
L -0.984375 -23.578125 
L -0.984375 -16.609375 
z
" id="DejaVuSans-95"/>
     <path d="M 18.109375 8.203125 
L 18.109375 -20.796875 
L 9.078125 -20.796875 
L 9.078125 54.6875 
L 18.109375 54.6875 
L 18.109375 46.390625 
Q 20.953125 51.265625 25.265625 53.625 
Q 29.59375 56 35.59375 56 
Q 45.5625 56 51.78125 48.09375 
Q 58.015625 40.1875 58.015625 27.296875 
Q 58.015625 14.40625 51.78125 6.484375 
Q 45.5625 -1.421875 35.59375 -1.421875 
Q 29.59375 -1.421875 25.265625 0.953125 
Q 20.953125 3.328125 18.109375 8.203125 
z
M 48.6875 27.296875 
Q 48.6875 37.203125 44.609375 42.84375 
Q 40.53125 48.484375 33.40625 48.484375 
Q 26.265625 48.484375 22.1875 42.84375 
Q 18.109375 37.203125 18.109375 27.296875 
Q 18.109375 17.390625 22.1875 11.75 
Q 26.265625 6.109375 33.40625 6.109375 
Q 40.53125 6.109375 44.609375 11.75 
Q 48.6875 17.390625 48.6875 27.296875 
z
" id="DejaVuSans-112"/>
     <path d="M 9.078125 75.984375 
L 18.109375 75.984375 
L 18.109375 31.109375 
L 44.921875 54.6875 
L 56.390625 54.6875 
L 27.390625 29.109375 
L 57.625 0 
L 45.90625 0 
L 18.109375 26.703125 
L 18.109375 0 
L 9.078125 0 
z
" id="DejaVuSans-107"/>
     <path d="M 19.671875 64.796875 
L 19.671875 8.109375 
L 31.59375 8.109375 
Q 46.6875 8.109375 53.6875 14.9375 
Q 60.6875 21.78125 60.6875 36.53125 
Q 60.6875 51.171875 53.6875 57.984375 
Q 46.6875 64.796875 31.59375 64.796875 
z
M 9.8125 72.90625 
L 30.078125 72.90625 
Q 51.265625 72.90625 61.171875 64.09375 
Q 71.09375 55.28125 71.09375 36.53125 
Q 71.09375 17.671875 61.125 8.828125 
Q 51.171875 0 30.078125 0 
L 9.8125 0 
z
" id="DejaVuSans-68"/>
     <path d="M 10.984375 1.515625 
L 10.984375 10.5 
Q 14.703125 8.734375 18.5 7.8125 
Q 22.3125 6.890625 25.984375 6.890625 
Q 35.75 6.890625 40.890625 13.453125 
Q 46.046875 20.015625 46.78125 33.40625 
Q 43.953125 29.203125 39.59375 26.953125 
Q 35.25 24.703125 29.984375 24.703125 
Q 19.046875 24.703125 12.671875 31.3125 
Q 6.296875 37.9375 6.296875 49.421875 
Q 6.296875 60.640625 12.9375 67.421875 
Q 19.578125 74.21875 30.609375 74.21875 
Q 43.265625 74.21875 49.921875 64.515625 
Q 56.59375 54.828125 56.59375 36.375 
Q 56.59375 19.140625 48.40625 8.859375 
Q 40.234375 -1.421875 26.421875 -1.421875 
Q 22.703125 -1.421875 18.890625 -0.6875 
Q 15.09375 0.046875 10.984375 1.515625 
z
M 30.609375 32.421875 
Q 37.25 32.421875 41.125 36.953125 
Q 45.015625 41.5 45.015625 49.421875 
Q 45.015625 57.28125 41.125 61.84375 
Q 37.25 66.40625 30.609375 66.40625 
Q 23.96875 66.40625 20.09375 61.84375 
Q 16.21875 57.28125 16.21875 49.421875 
Q 16.21875 41.5 20.09375 36.953125 
Q 23.96875 32.421875 30.609375 32.421875 
z
" id="DejaVuSans-57"/>
     <path d="M 37.796875 64.3125 
L 12.890625 25.390625 
L 37.796875 25.390625 
z
M 35.203125 72.90625 
L 47.609375 72.90625 
L 47.609375 25.390625 
L 58.015625 25.390625 
L 58.015625 17.1875 
L 47.609375 17.1875 
L 47.609375 0 
L 37.796875 0 
L 37.796875 17.1875 
L 4.890625 17.1875 
L 4.890625 26.703125 
z
" id="DejaVuSans-52"/>
     <path d="M 54.890625 54.6875 
L 35.109375 28.078125 
L 55.90625 0 
L 45.3125 0 
L 29.390625 21.484375 
L 13.484375 0 
L 2.875 0 
L 24.125 28.609375 
L 4.6875 54.6875 
L 15.28125 54.6875 
L 29.78125 35.203125 
L 44.28125 54.6875 
z
" id="DejaVuSans-120"/>
    </defs>
    <g transform="translate(87.199688 35.472)scale(0.12 -0.12)">
     <use xlink:href="#DejaVuSans-86"/>
     <use x="68.376953" xlink:href="#DejaVuSans-105"/>
     <use x="96.160156" xlink:href="#DejaVuSans-118"/>
     <use x="155.339844" xlink:href="#DejaVuSans-111"/>
     <use x="216.521484" xlink:href="#DejaVuSans-32"/>
     <use x="248.308594" xlink:href="#DejaVuSans-49"/>
     <use x="311.931641" xlink:href="#DejaVuSans-55"/>
     <use x="375.554688" xlink:href="#DejaVuSans-49"/>
     <use x="439.177734" xlink:href="#DejaVuSans-54"/>
     <use x="502.800781" xlink:href="#DejaVuSans-47"/>
     <use x="536.492188" xlink:href="#DejaVuSans-99"/>
     <use x="591.472656" xlink:href="#DejaVuSans-97"/>
     <use x="652.751953" xlink:href="#DejaVuSans-114"/>
     <use x="693.865234" xlink:href="#DejaVuSans-95"/>
     <use x="743.865234" xlink:href="#DejaVuSans-111"/>
     <use x="805.046875" xlink:href="#DejaVuSans-110"/>
     <use x="868.425781" xlink:href="#DejaVuSans-95"/>
     <use x="918.425781" xlink:href="#DejaVuSans-112"/>
     <use x="981.902344" xlink:href="#DejaVuSans-111"/>
     <use x="1043.083984" xlink:href="#DejaVuSans-99"/>
     <use x="1098.064453" xlink:href="#DejaVuSans-107"/>
     <use x="1155.927734" xlink:href="#DejaVuSans-101"/>
     <use x="1217.451172" xlink:href="#DejaVuSans-116"/>
     <use x="1256.660156" xlink:href="#DejaVuSans-47"/>
     <use x="1290.351562" xlink:href="#DejaVuSans-103"/>
     <use x="1353.828125" xlink:href="#DejaVuSans-114"/>
     <use x="1394.941406" xlink:href="#DejaVuSans-97"/>
     <use x="1456.220703" xlink:href="#DejaVuSans-118"/>
     <use x="1515.400391" xlink:href="#DejaVuSans-32"/>
     <use x="1547.1875" xlink:href="#DejaVuSans-68"/>
     <use x="1624.189453" xlink:href="#DejaVuSans-101"/>
     <use x="1685.712891" xlink:href="#DejaVuSans-99"/>
     <use x="1740.693359" xlink:href="#DejaVuSans-32"/>
     <use x="1772.480469" xlink:href="#DejaVuSans-48"/>
     <use x="1836.103516" xlink:href="#DejaVuSans-57"/>
     <use x="1899.726562" xlink:href="#DejaVuSans-32"/>
     <use x="1931.513672" xlink:href="#DejaVuSans-49"/>
     <use x="1995.136719" xlink:href="#DejaVuSans-50"/>
     <use x="2058.759766" xlink:href="#DejaVuSans-49"/>
     <use x="2122.382812" xlink:href="#DejaVuSans-48"/>
     <use x="2186.005859" xlink:href="#DejaVuSans-49"/>
     <use x="2249.628906" xlink:href="#DejaVuSans-52"/>
     <use x="2313.251953" xlink:href="#DejaVuSans-46"/>
     <use x="2345.039062" xlink:href="#DejaVuSans-116"/>
     <use x="2384.248047" xlink:href="#DejaVuSans-120"/>
     <use x="2443.427734" xlink:href="#DejaVuSans-116"/>
    </g>
   </g>
   <g id="legend_1">
    <g id="patch_7">
     <path d="M 204.56 205.38425 
L 267.76 205.38425 
Q 269.76 205.38425 269.76 203.38425 
L 269.76 145.67175 
Q 269.76 143.67175 267.76 143.67175 
L 204.56 143.67175 
Q 202.56 143.67175 202.56 145.67175 
L 202.56 203.38425 
Q 202.56 205.38425 204.56 205.38425 
z
" style="fill:#ffffff;opacity:0.8;stroke:#cccccc;stroke-linejoin:miter;"/>
    </g>
    <g id="line2d_20">
     <path d="M 206.56 151.770188 
L 226.56 151.770188 
" style="fill:none;stroke:#1f77b4;stroke-linecap:square;stroke-width:1.5;"/>
    </g>
    <g id="line2d_21"/>
    <g id="text_19">
     <!-- X-Axis -->
     <defs>
      <path d="M 6.296875 72.90625 
L 16.890625 72.90625 
L 35.015625 45.796875 
L 53.21875 72.90625 
L 63.8125 72.90625 
L 40.375 37.890625 
L 65.375 0 
L 54.78125 0 
L 34.28125 31 
L 13.625 0 
L 2.984375 0 
L 29 38.921875 
z
" id="DejaVuSans-88"/>
      <path d="M 4.890625 31.390625 
L 31.203125 31.390625 
L 31.203125 23.390625 
L 4.890625 23.390625 
z
" id="DejaVuSans-45"/>
      <path d="M 34.1875 63.1875 
L 20.796875 26.90625 
L 47.609375 26.90625 
z
M 28.609375 72.90625 
L 39.796875 72.90625 
L 67.578125 0 
L 57.328125 0 
L 50.6875 18.703125 
L 17.828125 18.703125 
L 11.1875 0 
L 0.78125 0 
z
" id="DejaVuSans-65"/>
     </defs>
     <g transform="translate(234.56 155.270188)scale(0.1 -0.1)">
      <use xlink:href="#DejaVuSans-88"/>
      <use x="68.427734" xlink:href="#DejaVuSans-45"/>
      <use x="104.480469" xlink:href="#DejaVuSans-65"/>
      <use x="172.888672" xlink:href="#DejaVuSans-120"/>
      <use x="232.068359" xlink:href="#DejaVuSans-105"/>
      <use x="259.851562" xlink:href="#DejaVuSans-115"/>
     </g>
    </g>
    <g id="line2d_22">
     <path d="M 206.56 166.448313 
L 226.56 166.448313 
" style="fill:none;stroke:#ff7f0e;stroke-linecap:square;stroke-width:1.5;"/>
    </g>
    <g id="line2d_23"/>
    <g id="text_20">
     <!-- Y-Axis -->
     <defs>
      <path d="M -0.203125 72.90625 
L 10.40625 72.90625 
L 30.609375 42.921875 
L 50.6875 72.90625 
L 61.28125 72.90625 
L 35.5 34.71875 
L 35.5 0 
L 25.59375 0 
L 25.59375 34.71875 
z
" id="DejaVuSans-89"/>
     </defs>
     <g transform="translate(234.56 169.948313)scale(0.1 -0.1)">
      <use xlink:href="#DejaVuSans-89"/>
      <use x="60.912109" xlink:href="#DejaVuSans-45"/>
      <use x="96.964844" xlink:href="#DejaVuSans-65"/>
      <use x="165.373047" xlink:href="#DejaVuSans-120"/>
      <use x="224.552734" xlink:href="#DejaVuSans-105"/>
      <use x="252.335938" xlink:href="#DejaVuSans-115"/>
     </g>
    </g>
    <g id="line2d_24">
     <path d="M 206.56 181.126438 
L 226.56 181.126438 
" style="fill:none;stroke:#2ca02c;stroke-linecap:square;stroke-width:1.5;"/>
    </g>
    <g id="line2d_25"/>
    <g id="text_21">
     <!-- Z-Axis -->
     <defs>
      <path d="M 5.609375 72.90625 
L 62.890625 72.90625 
L 62.890625 65.375 
L 16.796875 8.296875 
L 64.015625 8.296875 
L 64.015625 0 
L 4.5 0 
L 4.5 7.515625 
L 50.59375 64.59375 
L 5.609375 64.59375 
z
" id="DejaVuSans-90"/>
     </defs>
     <g transform="translate(234.56 184.626438)scale(0.1 -0.1)">
      <use xlink:href="#DejaVuSans-90"/>
      <use x="68.490234" xlink:href="#DejaVuSans-45"/>
      <use x="104.542969" xlink:href="#DejaVuSans-65"/>
      <use x="172.951172" xlink:href="#DejaVuSans-120"/>
      <use x="232.130859" xlink:href="#DejaVuSans-105"/>
      <use x="259.914062" xlink:href="#DejaVuSans-115"/>
     </g>
    </g>
    <g id="line2d_26">
     <path d="M 206.56 195.804563 
L 226.56 195.804563 
" style="fill:none;stroke:#d62728;stroke-linecap:square;stroke-width:1.5;"/>
    </g>
    <g id="line2d_27"/>
    <g id="text_22">
     <!-- Mod -->
     <g transform="translate(234.56 199.304563)scale(0.1 -0.1)">
      <use xlink:href="#DejaVuSans-77"/>
      <use x="86.279297" xlink:href="#DejaVuSans-111"/>
      <use x="147.460938" xlink:href="#DejaVuSans-100"/>
     </g>
    </g>
   </g>
  </g>
 </g>
 <defs>
  <clipPath id="pa86868608a">
   <rect height="266.112" width="357.12" x="57.6" y="41.472"/>
  </clipPath>
 </defs>
</svg>
