<?xml version="1.0" encoding="utf-8" standalone="no"?>
<!DOCTYPE svg PUBLIC "-//W3C//DTD SVG 1.1//EN"
  "http://www.w3.org/Graphics/SVG/1.1/DTD/svg11.dtd">
<!-- Created with matplotlib (https://matplotlib.org/) -->
<svg height="345.6pt" version="1.1" viewBox="0 0 460.8 345.6" width="460.8pt" xmlns="http://www.w3.org/2000/svg" xmlns:xlink="http://www.w3.org/1999/xlink">
 <defs>
  <style type="text/css">
*{stroke-linecap:butt;stroke-linejoin:round;}
  </style>
 </defs>
 <g id="figure_1">
  <g id="patch_1">
   <path d="M 0 345.6 
L 460.8 345.6 
L 460.8 0 
L 0 0 
z
" style="fill:#ffffff;"/>
  </g>
  <g id="axes_1">
   <g id="patch_2">
    <path d="M 57.6 307.584 
L 414.72 307.584 
L 414.72 41.472 
L 57.6 41.472 
z
" style="fill:#ffffff;"/>
   </g>
   <g id="matplotlib.axis_1">
    <g id="xtick_1">
     <g id="line2d_1">
      <defs>
       <path d="M 0 0 
L 0 3.5 
" id="m32604614c9" style="stroke:#000000;stroke-width:0.8;"/>
      </defs>
      <g>
       <use style="stroke:#000000;stroke-width:0.8;" x="73.832727" xlink:href="#m32604614c9" y="307.584"/>
      </g>
     </g>
     <g id="text_1">
      <!-- 0 -->
      <defs>
       <path d="M 31.78125 66.40625 
Q 24.171875 66.40625 20.328125 58.90625 
Q 16.5 51.421875 16.5 36.375 
Q 16.5 21.390625 20.328125 13.890625 
Q 24.171875 6.390625 31.78125 6.390625 
Q 39.453125 6.390625 43.28125 13.890625 
Q 47.125 21.390625 47.125 36.375 
Q 47.125 51.421875 43.28125 58.90625 
Q 39.453125 66.40625 31.78125 66.40625 
z
M 31.78125 74.21875 
Q 44.046875 74.21875 50.515625 64.515625 
Q 56.984375 54.828125 56.984375 36.375 
Q 56.984375 17.96875 50.515625 8.265625 
Q 44.046875 -1.421875 31.78125 -1.421875 
Q 19.53125 -1.421875 13.0625 8.265625 
Q 6.59375 17.96875 6.59375 36.375 
Q 6.59375 54.828125 13.0625 64.515625 
Q 19.53125 74.21875 31.78125 74.21875 
z
" id="DejaVuSans-48"/>
      </defs>
      <g transform="translate(70.651477 322.182437)scale(0.1 -0.1)">
       <use xlink:href="#DejaVuSans-48"/>
      </g>
     </g>
    </g>
    <g id="xtick_2">
     <g id="line2d_2">
      <g>
       <use style="stroke:#000000;stroke-width:0.8;" x="139.867742" xlink:href="#m32604614c9" y="307.584"/>
      </g>
     </g>
     <g id="text_2">
      <!-- 10 -->
      <defs>
       <path d="M 12.40625 8.296875 
L 28.515625 8.296875 
L 28.515625 63.921875 
L 10.984375 60.40625 
L 10.984375 69.390625 
L 28.421875 72.90625 
L 38.28125 72.90625 
L 38.28125 8.296875 
L 54.390625 8.296875 
L 54.390625 0 
L 12.40625 0 
z
" id="DejaVuSans-49"/>
      </defs>
      <g transform="translate(133.505242 322.182437)scale(0.1 -0.1)">
       <use xlink:href="#DejaVuSans-49"/>
       <use x="63.623047" xlink:href="#DejaVuSans-48"/>
      </g>
     </g>
    </g>
    <g id="xtick_3">
     <g id="line2d_3">
      <g>
       <use style="stroke:#000000;stroke-width:0.8;" x="205.902756" xlink:href="#m32604614c9" y="307.584"/>
      </g>
     </g>
     <g id="text_3">
      <!-- 20 -->
      <defs>
       <path d="M 19.1875 8.296875 
L 53.609375 8.296875 
L 53.609375 0 
L 7.328125 0 
L 7.328125 8.296875 
Q 12.9375 14.109375 22.625 23.890625 
Q 32.328125 33.6875 34.8125 36.53125 
Q 39.546875 41.84375 41.421875 45.53125 
Q 43.3125 49.21875 43.3125 52.78125 
Q 43.3125 58.59375 39.234375 62.25 
Q 35.15625 65.921875 28.609375 65.921875 
Q 23.96875 65.921875 18.8125 64.3125 
Q 13.671875 62.703125 7.8125 59.421875 
L 7.8125 69.390625 
Q 13.765625 71.78125 18.9375 73 
Q 24.125 74.21875 28.421875 74.21875 
Q 39.75 74.21875 46.484375 68.546875 
Q 53.21875 62.890625 53.21875 53.421875 
Q 53.21875 48.921875 51.53125 44.890625 
Q 49.859375 40.875 45.40625 35.40625 
Q 44.1875 33.984375 37.640625 27.21875 
Q 31.109375 20.453125 19.1875 8.296875 
z
" id="DejaVuSans-50"/>
      </defs>
      <g transform="translate(199.540256 322.182437)scale(0.1 -0.1)">
       <use xlink:href="#DejaVuSans-50"/>
       <use x="63.623047" xlink:href="#DejaVuSans-48"/>
      </g>
     </g>
    </g>
    <g id="xtick_4">
     <g id="line2d_4">
      <g>
       <use style="stroke:#000000;stroke-width:0.8;" x="271.937771" xlink:href="#m32604614c9" y="307.584"/>
      </g>
     </g>
     <g id="text_4">
      <!-- 30 -->
      <defs>
       <path d="M 40.578125 39.3125 
Q 47.65625 37.796875 51.625 33 
Q 55.609375 28.21875 55.609375 21.1875 
Q 55.609375 10.40625 48.1875 4.484375 
Q 40.765625 -1.421875 27.09375 -1.421875 
Q 22.515625 -1.421875 17.65625 -0.515625 
Q 12.796875 0.390625 7.625 2.203125 
L 7.625 11.71875 
Q 11.71875 9.328125 16.59375 8.109375 
Q 21.484375 6.890625 26.8125 6.890625 
Q 36.078125 6.890625 40.9375 10.546875 
Q 45.796875 14.203125 45.796875 21.1875 
Q 45.796875 27.640625 41.28125 31.265625 
Q 36.765625 34.90625 28.71875 34.90625 
L 20.21875 34.90625 
L 20.21875 43.015625 
L 29.109375 43.015625 
Q 36.375 43.015625 40.234375 45.921875 
Q 44.09375 48.828125 44.09375 54.296875 
Q 44.09375 59.90625 40.109375 62.90625 
Q 36.140625 65.921875 28.71875 65.921875 
Q 24.65625 65.921875 20.015625 65.03125 
Q 15.375 64.15625 9.8125 62.3125 
L 9.8125 71.09375 
Q 15.4375 72.65625 20.34375 73.4375 
Q 25.25 74.21875 29.59375 74.21875 
Q 40.828125 74.21875 47.359375 69.109375 
Q 53.90625 64.015625 53.90625 55.328125 
Q 53.90625 49.265625 50.4375 45.09375 
Q 46.96875 40.921875 40.578125 39.3125 
z
" id="DejaVuSans-51"/>
      </defs>
      <g transform="translate(265.575271 322.182437)scale(0.1 -0.1)">
       <use xlink:href="#DejaVuSans-51"/>
       <use x="63.623047" xlink:href="#DejaVuSans-48"/>
      </g>
     </g>
    </g>
    <g id="xtick_5">
     <g id="line2d_5">
      <g>
       <use style="stroke:#000000;stroke-width:0.8;" x="337.972785" xlink:href="#m32604614c9" y="307.584"/>
      </g>
     </g>
     <g id="text_5">
      <!-- 40 -->
      <defs>
       <path d="M 37.796875 64.3125 
L 12.890625 25.390625 
L 37.796875 25.390625 
z
M 35.203125 72.90625 
L 47.609375 72.90625 
L 47.609375 25.390625 
L 58.015625 25.390625 
L 58.015625 17.1875 
L 47.609375 17.1875 
L 47.609375 0 
L 37.796875 0 
L 37.796875 17.1875 
L 4.890625 17.1875 
L 4.890625 26.703125 
z
" id="DejaVuSans-52"/>
      </defs>
      <g transform="translate(331.610285 322.182437)scale(0.1 -0.1)">
       <use xlink:href="#DejaVuSans-52"/>
       <use x="63.623047" xlink:href="#DejaVuSans-48"/>
      </g>
     </g>
    </g>
    <g id="xtick_6">
     <g id="line2d_6">
      <g>
       <use style="stroke:#000000;stroke-width:0.8;" x="404.0078" xlink:href="#m32604614c9" y="307.584"/>
      </g>
     </g>
     <g id="text_6">
      <!-- 50 -->
      <defs>
       <path d="M 10.796875 72.90625 
L 49.515625 72.90625 
L 49.515625 64.59375 
L 19.828125 64.59375 
L 19.828125 46.734375 
Q 21.96875 47.46875 24.109375 47.828125 
Q 26.265625 48.1875 28.421875 48.1875 
Q 40.625 48.1875 47.75 41.5 
Q 54.890625 34.8125 54.890625 23.390625 
Q 54.890625 11.625 47.5625 5.09375 
Q 40.234375 -1.421875 26.90625 -1.421875 
Q 22.3125 -1.421875 17.546875 -0.640625 
Q 12.796875 0.140625 7.71875 1.703125 
L 7.71875 11.625 
Q 12.109375 9.234375 16.796875 8.0625 
Q 21.484375 6.890625 26.703125 6.890625 
Q 35.15625 6.890625 40.078125 11.328125 
Q 45.015625 15.765625 45.015625 23.390625 
Q 45.015625 31 40.078125 35.4375 
Q 35.15625 39.890625 26.703125 39.890625 
Q 22.75 39.890625 18.8125 39.015625 
Q 14.890625 38.140625 10.796875 36.28125 
z
" id="DejaVuSans-53"/>
      </defs>
      <g transform="translate(397.6453 322.182437)scale(0.1 -0.1)">
       <use xlink:href="#DejaVuSans-53"/>
       <use x="63.623047" xlink:href="#DejaVuSans-48"/>
      </g>
     </g>
    </g>
    <g id="text_7">
     <!-- Time (in seconds) -->
     <defs>
      <path d="M -0.296875 72.90625 
L 61.375 72.90625 
L 61.375 64.59375 
L 35.5 64.59375 
L 35.5 0 
L 25.59375 0 
L 25.59375 64.59375 
L -0.296875 64.59375 
z
" id="DejaVuSans-84"/>
      <path d="M 9.421875 54.6875 
L 18.40625 54.6875 
L 18.40625 0 
L 9.421875 0 
z
M 9.421875 75.984375 
L 18.40625 75.984375 
L 18.40625 64.59375 
L 9.421875 64.59375 
z
" id="DejaVuSans-105"/>
      <path d="M 52 44.1875 
Q 55.375 50.25 60.0625 53.125 
Q 64.75 56 71.09375 56 
Q 79.640625 56 84.28125 50.015625 
Q 88.921875 44.046875 88.921875 33.015625 
L 88.921875 0 
L 79.890625 0 
L 79.890625 32.71875 
Q 79.890625 40.578125 77.09375 44.375 
Q 74.3125 48.1875 68.609375 48.1875 
Q 61.625 48.1875 57.5625 43.546875 
Q 53.515625 38.921875 53.515625 30.90625 
L 53.515625 0 
L 44.484375 0 
L 44.484375 32.71875 
Q 44.484375 40.625 41.703125 44.40625 
Q 38.921875 48.1875 33.109375 48.1875 
Q 26.21875 48.1875 22.15625 43.53125 
Q 18.109375 38.875 18.109375 30.90625 
L 18.109375 0 
L 9.078125 0 
L 9.078125 54.6875 
L 18.109375 54.6875 
L 18.109375 46.1875 
Q 21.1875 51.21875 25.484375 53.609375 
Q 29.78125 56 35.6875 56 
Q 41.65625 56 45.828125 52.96875 
Q 50 49.953125 52 44.1875 
z
" id="DejaVuSans-109"/>
      <path d="M 56.203125 29.59375 
L 56.203125 25.203125 
L 14.890625 25.203125 
Q 15.484375 15.921875 20.484375 11.0625 
Q 25.484375 6.203125 34.421875 6.203125 
Q 39.59375 6.203125 44.453125 7.46875 
Q 49.3125 8.734375 54.109375 11.28125 
L 54.109375 2.78125 
Q 49.265625 0.734375 44.1875 -0.34375 
Q 39.109375 -1.421875 33.890625 -1.421875 
Q 20.796875 -1.421875 13.15625 6.1875 
Q 5.515625 13.8125 5.515625 26.8125 
Q 5.515625 40.234375 12.765625 48.109375 
Q 20.015625 56 32.328125 56 
Q 43.359375 56 49.78125 48.890625 
Q 56.203125 41.796875 56.203125 29.59375 
z
M 47.21875 32.234375 
Q 47.125 39.59375 43.09375 43.984375 
Q 39.0625 48.390625 32.421875 48.390625 
Q 24.90625 48.390625 20.390625 44.140625 
Q 15.875 39.890625 15.1875 32.171875 
z
" id="DejaVuSans-101"/>
      <path id="DejaVuSans-32"/>
      <path d="M 31 75.875 
Q 24.46875 64.65625 21.28125 53.65625 
Q 18.109375 42.671875 18.109375 31.390625 
Q 18.109375 20.125 21.3125 9.0625 
Q 24.515625 -2 31 -13.1875 
L 23.1875 -13.1875 
Q 15.875 -1.703125 12.234375 9.375 
Q 8.59375 20.453125 8.59375 31.390625 
Q 8.59375 42.28125 12.203125 53.3125 
Q 15.828125 64.359375 23.1875 75.875 
z
" id="DejaVuSans-40"/>
      <path d="M 54.890625 33.015625 
L 54.890625 0 
L 45.90625 0 
L 45.90625 32.71875 
Q 45.90625 40.484375 42.875 44.328125 
Q 39.84375 48.1875 33.796875 48.1875 
Q 26.515625 48.1875 22.3125 43.546875 
Q 18.109375 38.921875 18.109375 30.90625 
L 18.109375 0 
L 9.078125 0 
L 9.078125 54.6875 
L 18.109375 54.6875 
L 18.109375 46.1875 
Q 21.34375 51.125 25.703125 53.5625 
Q 30.078125 56 35.796875 56 
Q 45.21875 56 50.046875 50.171875 
Q 54.890625 44.34375 54.890625 33.015625 
z
" id="DejaVuSans-110"/>
      <path d="M 44.28125 53.078125 
L 44.28125 44.578125 
Q 40.484375 46.53125 36.375 47.5 
Q 32.28125 48.484375 27.875 48.484375 
Q 21.1875 48.484375 17.84375 46.4375 
Q 14.5 44.390625 14.5 40.28125 
Q 14.5 37.15625 16.890625 35.375 
Q 19.28125 33.59375 26.515625 31.984375 
L 29.59375 31.296875 
Q 39.15625 29.25 43.1875 25.515625 
Q 47.21875 21.78125 47.21875 15.09375 
Q 47.21875 7.46875 41.1875 3.015625 
Q 35.15625 -1.421875 24.609375 -1.421875 
Q 20.21875 -1.421875 15.453125 -0.5625 
Q 10.6875 0.296875 5.421875 2 
L 5.421875 11.28125 
Q 10.40625 8.6875 15.234375 7.390625 
Q 20.0625 6.109375 24.8125 6.109375 
Q 31.15625 6.109375 34.5625 8.28125 
Q 37.984375 10.453125 37.984375 14.40625 
Q 37.984375 18.0625 35.515625 20.015625 
Q 33.0625 21.96875 24.703125 23.78125 
L 21.578125 24.515625 
Q 13.234375 26.265625 9.515625 29.90625 
Q 5.8125 33.546875 5.8125 39.890625 
Q 5.8125 47.609375 11.28125 51.796875 
Q 16.75 56 26.8125 56 
Q 31.78125 56 36.171875 55.265625 
Q 40.578125 54.546875 44.28125 53.078125 
z
" id="DejaVuSans-115"/>
      <path d="M 48.78125 52.59375 
L 48.78125 44.1875 
Q 44.96875 46.296875 41.140625 47.34375 
Q 37.3125 48.390625 33.40625 48.390625 
Q 24.65625 48.390625 19.8125 42.84375 
Q 14.984375 37.3125 14.984375 27.296875 
Q 14.984375 17.28125 19.8125 11.734375 
Q 24.65625 6.203125 33.40625 6.203125 
Q 37.3125 6.203125 41.140625 7.25 
Q 44.96875 8.296875 48.78125 10.40625 
L 48.78125 2.09375 
Q 45.015625 0.34375 40.984375 -0.53125 
Q 36.96875 -1.421875 32.421875 -1.421875 
Q 20.0625 -1.421875 12.78125 6.34375 
Q 5.515625 14.109375 5.515625 27.296875 
Q 5.515625 40.671875 12.859375 48.328125 
Q 20.21875 56 33.015625 56 
Q 37.15625 56 41.109375 55.140625 
Q 45.0625 54.296875 48.78125 52.59375 
z
" id="DejaVuSans-99"/>
      <path d="M 30.609375 48.390625 
Q 23.390625 48.390625 19.1875 42.75 
Q 14.984375 37.109375 14.984375 27.296875 
Q 14.984375 17.484375 19.15625 11.84375 
Q 23.34375 6.203125 30.609375 6.203125 
Q 37.796875 6.203125 41.984375 11.859375 
Q 46.1875 17.53125 46.1875 27.296875 
Q 46.1875 37.015625 41.984375 42.703125 
Q 37.796875 48.390625 30.609375 48.390625 
z
M 30.609375 56 
Q 42.328125 56 49.015625 48.375 
Q 55.71875 40.765625 55.71875 27.296875 
Q 55.71875 13.875 49.015625 6.21875 
Q 42.328125 -1.421875 30.609375 -1.421875 
Q 18.84375 -1.421875 12.171875 6.21875 
Q 5.515625 13.875 5.515625 27.296875 
Q 5.515625 40.765625 12.171875 48.375 
Q 18.84375 56 30.609375 56 
z
" id="DejaVuSans-111"/>
      <path d="M 45.40625 46.390625 
L 45.40625 75.984375 
L 54.390625 75.984375 
L 54.390625 0 
L 45.40625 0 
L 45.40625 8.203125 
Q 42.578125 3.328125 38.25 0.953125 
Q 33.9375 -1.421875 27.875 -1.421875 
Q 17.96875 -1.421875 11.734375 6.484375 
Q 5.515625 14.40625 5.515625 27.296875 
Q 5.515625 40.1875 11.734375 48.09375 
Q 17.96875 56 27.875 56 
Q 33.9375 56 38.25 53.625 
Q 42.578125 51.265625 45.40625 46.390625 
z
M 14.796875 27.296875 
Q 14.796875 17.390625 18.875 11.75 
Q 22.953125 6.109375 30.078125 6.109375 
Q 37.203125 6.109375 41.296875 11.75 
Q 45.40625 17.390625 45.40625 27.296875 
Q 45.40625 37.203125 41.296875 42.84375 
Q 37.203125 48.484375 30.078125 48.484375 
Q 22.953125 48.484375 18.875 42.84375 
Q 14.796875 37.203125 14.796875 27.296875 
z
" id="DejaVuSans-100"/>
      <path d="M 8.015625 75.875 
L 15.828125 75.875 
Q 23.140625 64.359375 26.78125 53.3125 
Q 30.421875 42.28125 30.421875 31.390625 
Q 30.421875 20.453125 26.78125 9.375 
Q 23.140625 -1.703125 15.828125 -13.1875 
L 8.015625 -13.1875 
Q 14.5 -2 17.703125 9.0625 
Q 20.90625 20.125 20.90625 31.390625 
Q 20.90625 42.671875 17.703125 53.65625 
Q 14.5 64.65625 8.015625 75.875 
z
" id="DejaVuSans-41"/>
     </defs>
     <g transform="translate(191.6975 335.860562)scale(0.1 -0.1)">
      <use xlink:href="#DejaVuSans-84"/>
      <use x="61.037109" xlink:href="#DejaVuSans-105"/>
      <use x="88.820312" xlink:href="#DejaVuSans-109"/>
      <use x="186.232422" xlink:href="#DejaVuSans-101"/>
      <use x="247.755859" xlink:href="#DejaVuSans-32"/>
      <use x="279.542969" xlink:href="#DejaVuSans-40"/>
      <use x="318.556641" xlink:href="#DejaVuSans-105"/>
      <use x="346.339844" xlink:href="#DejaVuSans-110"/>
      <use x="409.71875" xlink:href="#DejaVuSans-32"/>
      <use x="441.505859" xlink:href="#DejaVuSans-115"/>
      <use x="493.605469" xlink:href="#DejaVuSans-101"/>
      <use x="555.128906" xlink:href="#DejaVuSans-99"/>
      <use x="610.109375" xlink:href="#DejaVuSans-111"/>
      <use x="671.291016" xlink:href="#DejaVuSans-110"/>
      <use x="734.669922" xlink:href="#DejaVuSans-100"/>
      <use x="798.146484" xlink:href="#DejaVuSans-115"/>
      <use x="850.246094" xlink:href="#DejaVuSans-41"/>
     </g>
    </g>
   </g>
   <g id="matplotlib.axis_2">
    <g id="ytick_1">
     <g id="line2d_7">
      <defs>
       <path d="M 0 0 
L -3.5 0 
" id="me3adcc75ed" style="stroke:#000000;stroke-width:0.8;"/>
      </defs>
      <g>
       <use style="stroke:#000000;stroke-width:0.8;" x="57.6" xlink:href="#me3adcc75ed" y="305.09176"/>
      </g>
     </g>
     <g id="text_8">
      <!-- −10.0 -->
      <defs>
       <path d="M 10.59375 35.5 
L 73.1875 35.5 
L 73.1875 27.203125 
L 10.59375 27.203125 
z
" id="DejaVuSans-8722"/>
       <path d="M 10.6875 12.40625 
L 21 12.40625 
L 21 0 
L 10.6875 0 
z
" id="DejaVuSans-46"/>
      </defs>
      <g transform="translate(19.954687 308.890979)scale(0.1 -0.1)">
       <use xlink:href="#DejaVuSans-8722"/>
       <use x="83.789062" xlink:href="#DejaVuSans-49"/>
       <use x="147.412109" xlink:href="#DejaVuSans-48"/>
       <use x="211.035156" xlink:href="#DejaVuSans-46"/>
       <use x="242.822266" xlink:href="#DejaVuSans-48"/>
      </g>
     </g>
    </g>
    <g id="ytick_2">
     <g id="line2d_8">
      <g>
       <use style="stroke:#000000;stroke-width:0.8;" x="57.6" xlink:href="#me3adcc75ed" y="275.2769"/>
      </g>
     </g>
     <g id="text_9">
      <!-- −7.5 -->
      <defs>
       <path d="M 8.203125 72.90625 
L 55.078125 72.90625 
L 55.078125 68.703125 
L 28.609375 0 
L 18.3125 0 
L 43.21875 64.59375 
L 8.203125 64.59375 
z
" id="DejaVuSans-55"/>
      </defs>
      <g transform="translate(26.317187 279.076119)scale(0.1 -0.1)">
       <use xlink:href="#DejaVuSans-8722"/>
       <use x="83.789062" xlink:href="#DejaVuSans-55"/>
       <use x="147.412109" xlink:href="#DejaVuSans-46"/>
       <use x="179.199219" xlink:href="#DejaVuSans-53"/>
      </g>
     </g>
    </g>
    <g id="ytick_3">
     <g id="line2d_9">
      <g>
       <use style="stroke:#000000;stroke-width:0.8;" x="57.6" xlink:href="#me3adcc75ed" y="245.46204"/>
      </g>
     </g>
     <g id="text_10">
      <!-- −5.0 -->
      <g transform="translate(26.317187 249.261259)scale(0.1 -0.1)">
       <use xlink:href="#DejaVuSans-8722"/>
       <use x="83.789062" xlink:href="#DejaVuSans-53"/>
       <use x="147.412109" xlink:href="#DejaVuSans-46"/>
       <use x="179.199219" xlink:href="#DejaVuSans-48"/>
      </g>
     </g>
    </g>
    <g id="ytick_4">
     <g id="line2d_10">
      <g>
       <use style="stroke:#000000;stroke-width:0.8;" x="57.6" xlink:href="#me3adcc75ed" y="215.64718"/>
      </g>
     </g>
     <g id="text_11">
      <!-- −2.5 -->
      <g transform="translate(26.317187 219.446399)scale(0.1 -0.1)">
       <use xlink:href="#DejaVuSans-8722"/>
       <use x="83.789062" xlink:href="#DejaVuSans-50"/>
       <use x="147.412109" xlink:href="#DejaVuSans-46"/>
       <use x="179.199219" xlink:href="#DejaVuSans-53"/>
      </g>
     </g>
    </g>
    <g id="ytick_5">
     <g id="line2d_11">
      <g>
       <use style="stroke:#000000;stroke-width:0.8;" x="57.6" xlink:href="#me3adcc75ed" y="185.83232"/>
      </g>
     </g>
     <g id="text_12">
      <!-- 0.0 -->
      <g transform="translate(34.696875 189.631538)scale(0.1 -0.1)">
       <use xlink:href="#DejaVuSans-48"/>
       <use x="63.623047" xlink:href="#DejaVuSans-46"/>
       <use x="95.410156" xlink:href="#DejaVuSans-48"/>
      </g>
     </g>
    </g>
    <g id="ytick_6">
     <g id="line2d_12">
      <g>
       <use style="stroke:#000000;stroke-width:0.8;" x="57.6" xlink:href="#me3adcc75ed" y="156.01746"/>
      </g>
     </g>
     <g id="text_13">
      <!-- 2.5 -->
      <g transform="translate(34.696875 159.816678)scale(0.1 -0.1)">
       <use xlink:href="#DejaVuSans-50"/>
       <use x="63.623047" xlink:href="#DejaVuSans-46"/>
       <use x="95.410156" xlink:href="#DejaVuSans-53"/>
      </g>
     </g>
    </g>
    <g id="ytick_7">
     <g id="line2d_13">
      <g>
       <use style="stroke:#000000;stroke-width:0.8;" x="57.6" xlink:href="#me3adcc75ed" y="126.2026"/>
      </g>
     </g>
     <g id="text_14">
      <!-- 5.0 -->
      <g transform="translate(34.696875 130.001818)scale(0.1 -0.1)">
       <use xlink:href="#DejaVuSans-53"/>
       <use x="63.623047" xlink:href="#DejaVuSans-46"/>
       <use x="95.410156" xlink:href="#DejaVuSans-48"/>
      </g>
     </g>
    </g>
    <g id="ytick_8">
     <g id="line2d_14">
      <g>
       <use style="stroke:#000000;stroke-width:0.8;" x="57.6" xlink:href="#me3adcc75ed" y="96.38774"/>
      </g>
     </g>
     <g id="text_15">
      <!-- 7.5 -->
      <g transform="translate(34.696875 100.186958)scale(0.1 -0.1)">
       <use xlink:href="#DejaVuSans-55"/>
       <use x="63.623047" xlink:href="#DejaVuSans-46"/>
       <use x="95.410156" xlink:href="#DejaVuSans-53"/>
      </g>
     </g>
    </g>
    <g id="ytick_9">
     <g id="line2d_15">
      <g>
       <use style="stroke:#000000;stroke-width:0.8;" x="57.6" xlink:href="#me3adcc75ed" y="66.572879"/>
      </g>
     </g>
     <g id="text_16">
      <!-- 10.0 -->
      <g transform="translate(28.334375 70.372098)scale(0.1 -0.1)">
       <use xlink:href="#DejaVuSans-49"/>
       <use x="63.623047" xlink:href="#DejaVuSans-48"/>
       <use x="127.246094" xlink:href="#DejaVuSans-46"/>
       <use x="159.033203" xlink:href="#DejaVuSans-48"/>
      </g>
     </g>
    </g>
    <g id="text_17">
     <!-- Magnitude -->
     <defs>
      <path d="M 9.8125 72.90625 
L 24.515625 72.90625 
L 43.109375 23.296875 
L 61.8125 72.90625 
L 76.515625 72.90625 
L 76.515625 0 
L 66.890625 0 
L 66.890625 64.015625 
L 48.09375 14.015625 
L 38.1875 14.015625 
L 19.390625 64.015625 
L 19.390625 0 
L 9.8125 0 
z
" id="DejaVuSans-77"/>
      <path d="M 34.28125 27.484375 
Q 23.390625 27.484375 19.1875 25 
Q 14.984375 22.515625 14.984375 16.5 
Q 14.984375 11.71875 18.140625 8.90625 
Q 21.296875 6.109375 26.703125 6.109375 
Q 34.1875 6.109375 38.703125 11.40625 
Q 43.21875 16.703125 43.21875 25.484375 
L 43.21875 27.484375 
z
M 52.203125 31.203125 
L 52.203125 0 
L 43.21875 0 
L 43.21875 8.296875 
Q 40.140625 3.328125 35.546875 0.953125 
Q 30.953125 -1.421875 24.3125 -1.421875 
Q 15.921875 -1.421875 10.953125 3.296875 
Q 6 8.015625 6 15.921875 
Q 6 25.140625 12.171875 29.828125 
Q 18.359375 34.515625 30.609375 34.515625 
L 43.21875 34.515625 
L 43.21875 35.40625 
Q 43.21875 41.609375 39.140625 45 
Q 35.0625 48.390625 27.6875 48.390625 
Q 23 48.390625 18.546875 47.265625 
Q 14.109375 46.140625 10.015625 43.890625 
L 10.015625 52.203125 
Q 14.9375 54.109375 19.578125 55.046875 
Q 24.21875 56 28.609375 56 
Q 40.484375 56 46.34375 49.84375 
Q 52.203125 43.703125 52.203125 31.203125 
z
" id="DejaVuSans-97"/>
      <path d="M 45.40625 27.984375 
Q 45.40625 37.75 41.375 43.109375 
Q 37.359375 48.484375 30.078125 48.484375 
Q 22.859375 48.484375 18.828125 43.109375 
Q 14.796875 37.75 14.796875 27.984375 
Q 14.796875 18.265625 18.828125 12.890625 
Q 22.859375 7.515625 30.078125 7.515625 
Q 37.359375 7.515625 41.375 12.890625 
Q 45.40625 18.265625 45.40625 27.984375 
z
M 54.390625 6.78125 
Q 54.390625 -7.171875 48.1875 -13.984375 
Q 42 -20.796875 29.203125 -20.796875 
Q 24.46875 -20.796875 20.265625 -20.09375 
Q 16.0625 -19.390625 12.109375 -17.921875 
L 12.109375 -9.1875 
Q 16.0625 -11.328125 19.921875 -12.34375 
Q 23.78125 -13.375 27.78125 -13.375 
Q 36.625 -13.375 41.015625 -8.765625 
Q 45.40625 -4.15625 45.40625 5.171875 
L 45.40625 9.625 
Q 42.625 4.78125 38.28125 2.390625 
Q 33.9375 0 27.875 0 
Q 17.828125 0 11.671875 7.65625 
Q 5.515625 15.328125 5.515625 27.984375 
Q 5.515625 40.671875 11.671875 48.328125 
Q 17.828125 56 27.875 56 
Q 33.9375 56 38.28125 53.609375 
Q 42.625 51.21875 45.40625 46.390625 
L 45.40625 54.6875 
L 54.390625 54.6875 
z
" id="DejaVuSans-103"/>
      <path d="M 18.3125 70.21875 
L 18.3125 54.6875 
L 36.8125 54.6875 
L 36.8125 47.703125 
L 18.3125 47.703125 
L 18.3125 18.015625 
Q 18.3125 11.328125 20.140625 9.421875 
Q 21.96875 7.515625 27.59375 7.515625 
L 36.8125 7.515625 
L 36.8125 0 
L 27.59375 0 
Q 17.1875 0 13.234375 3.875 
Q 9.28125 7.765625 9.28125 18.015625 
L 9.28125 47.703125 
L 2.6875 47.703125 
L 2.6875 54.6875 
L 9.28125 54.6875 
L 9.28125 70.21875 
z
" id="DejaVuSans-116"/>
      <path d="M 8.5 21.578125 
L 8.5 54.6875 
L 17.484375 54.6875 
L 17.484375 21.921875 
Q 17.484375 14.15625 20.5 10.265625 
Q 23.53125 6.390625 29.59375 6.390625 
Q 36.859375 6.390625 41.078125 11.03125 
Q 45.3125 15.671875 45.3125 23.6875 
L 45.3125 54.6875 
L 54.296875 54.6875 
L 54.296875 0 
L 45.3125 0 
L 45.3125 8.40625 
Q 42.046875 3.421875 37.71875 1 
Q 33.40625 -1.421875 27.6875 -1.421875 
Q 18.265625 -1.421875 13.375 4.4375 
Q 8.5 10.296875 8.5 21.578125 
z
M 31.109375 56 
z
" id="DejaVuSans-117"/>
     </defs>
     <g transform="translate(13.875 201.017844)rotate(-90)scale(0.1 -0.1)">
      <use xlink:href="#DejaVuSans-77"/>
      <use x="86.279297" xlink:href="#DejaVuSans-97"/>
      <use x="147.558594" xlink:href="#DejaVuSans-103"/>
      <use x="211.035156" xlink:href="#DejaVuSans-110"/>
      <use x="274.414062" xlink:href="#DejaVuSans-105"/>
      <use x="302.197266" xlink:href="#DejaVuSans-116"/>
      <use x="341.40625" xlink:href="#DejaVuSans-117"/>
      <use x="404.785156" xlink:href="#DejaVuSans-100"/>
      <use x="468.261719" xlink:href="#DejaVuSans-101"/>
     </g>
    </g>
   </g>
   <g id="line2d_16">
    <path clip-path="url(#pfca0f13cb4)" d="M 73.832727 149.857408 
L 75.160032 159.868607 
L 76.454318 167.423864 
L 77.775018 178.815164 
L 79.069305 183.446439 
L 80.390004 199.258651 
L 81.697499 207.117808 
L 83.004992 220.263534 
L 84.286071 231.654833 
L 85.593564 286.950443 
L 86.901057 295.488 
L 88.234965 275.091285 
L 89.529251 279.021045 
L 90.843348 285.453332 
L 93.458334 272.378031 
L 94.746017 280.658279 
L 96.07332 268.471745 
L 97.400624 278.76355 
L 98.668497 277.102842 
L 99.989198 279.091103 
L 101.283483 281.991612 
L 102.597581 270.225988 
L 103.898471 287.909277 
L 105.21917 276.822235 
L 106.52006 278.015085 
L 107.814347 270.506778 
L 109.12184 270.927687 
L 110.435937 275.18482 
L 111.730223 268.658817 
L 113.04432 281.219673 
L 114.351813 269.547766 
L 115.679117 265.220389 
L 118.267689 263.536206 
L 119.561976 263.372613 
L 120.88928 261.524653 
L 122.176962 262.904751 
L 123.497663 260.822954 
L 124.798553 261.010024 
L 126.106046 260.401861 
L 127.413539 259.606627 
L 128.721032 259.887417 
L 130.028526 257.384525 
L 131.309605 257.314282 
L 132.636909 257.010203 
L 135.258498 257.103741 
L 137.873486 256.285212 
L 139.161168 256.659356 
L 140.475264 256.893374 
L 141.776154 256.519051 
L 143.242132 255.372969 
L 144.549625 255.864123 
L 145.863723 255.489798 
L 149.502251 255.583517 
L 150.822952 255.022121 
L 153.437938 255.396263 
L 154.745431 254.928586 
L 156.046321 255.770587 
L 157.353814 255.560041 
L 158.641498 255.560041 
L 159.968801 255.840646 
L 162.722462 254.671272 
L 164.029955 254.83505 
L 165.337448 255.209191 
L 166.644941 254.83505 
L 167.945831 255.396263 
L 168.995787 254.83505 
L 170.303281 255.302727 
L 172.891854 254.928586 
L 174.212554 255.115656 
L 175.533253 255.022121 
L 176.82754 255.209191 
L 178.115223 254.741331 
L 179.449131 255.302727 
L 180.750021 255.302727 
L 182.050909 254.741331 
L 183.365007 255.302727 
L 184.646086 254.55426 
L 185.97339 254.647796 
L 187.280883 255.022121 
L 188.588376 254.55426 
L 189.89587 254.741331 
L 191.176949 254.647796 
L 192.491045 255.022121 
L 193.824952 254.55426 
L 195.099428 255.255959 
L 196.413526 255.09218 
L 197.701208 255.232484 
L 199.008701 255.045414 
L 200.322799 255.27925 
L 201.755759 254.36719 
L 203.083062 255.115656 
L 204.390555 254.460725 
L 205.691445 254.741331 
L 206.998938 253.618544 
L 208.167758 254.928586 
L 209.455441 254.530788 
L 210.782744 254.764808 
L 212.083634 254.437251 
L 213.397732 254.951878 
L 214.705225 253.969574 
L 216.006115 254.55426 
L 217.313608 254.086406 
L 218.621101 254.273655 
L 219.928594 253.805796 
L 222.530374 254.624504 
L 225.14536 254.36719 
L 226.44625 254.530788 
L 227.89902 253.899333 
L 229.193307 254.36719 
L 230.487592 253.899333 
L 231.808293 254.086406 
L 233.10258 254.460725 
L 234.145933 254.086406 
L 235.440219 254.36719 
L 236.78073 254.18012 
L 238.061809 254.273655 
L 239.369302 253.99287 
L 240.70321 254.18012 
L 243.304989 254.18012 
L 244.612483 253.244403 
L 245.913372 254.273655 
L 247.220866 254.437251 
L 248.521756 254.273655 
L 249.829249 254.226706 
L 251.136742 254.741331 
L 252.444235 253.875858 
L 253.890403 253.805796 
L 256.485578 254.086406 
L 257.812882 253.525008 
L 259.087358 253.712261 
L 260.163728 254.086406 
L 261.444807 253.618544 
L 265.373891 253.899333 
L 266.687988 254.273655 
L 269.263353 253.99287 
L 270.603864 254.273655 
L 271.911357 253.99287 
L 273.205644 254.086406 
L 274.506534 253.899333 
L 275.82063 254.55426 
L 277.114917 253.805796 
L 278.429013 253.618726 
L 279.736507 254.133171 
L 282.32508 254.36719 
L 286.412647 253.712261 
L 287.713537 253.99287 
L 289.02103 253.618544 
L 290.308712 253.431473 
L 291.629413 253.525008 
L 292.685974 253.337938 
L 296.575436 253.525008 
L 297.889532 253.337938 
L 299.22344 253.525008 
L 300.517725 253.150868 
L 304.413792 253.431473 
L 305.741096 253.057331 
L 307.028778 253.057331 
L 308.336271 252.776543 
L 312.258752 253.337938 
L 313.559642 253.337938 
L 314.873738 252.870261 
L 316.187835 252.683008 
L 317.495328 253.244403 
L 318.789614 253.057331 
L 320.097108 253.431473 
L 321.411204 253.337938 
L 322.718697 253.805796 
L 324.012984 253.525008 
L 325.313874 253.525008 
L 326.634575 253.244403 
L 327.942068 253.805796 
L 329.256164 253.431473 
L 330.550451 253.244403 
L 333.158834 253.525008 
L 334.47293 253.150868 
L 335.806838 253.057331 
L 338.382203 253.525008 
L 341.010396 252.963796 
L 342.324494 253.150868 
L 343.59897 254.273655 
L 344.926274 252.683008 
L 346.233767 253.922627 
L 347.521449 252.893554 
L 348.828942 252.074845 
L 350.14304 254.296946 
L 351.44393 260.44863 
L 352.771233 260.004245 
L 354.078726 259.302548 
L 355.379616 263.536206 
L 356.673901 260.44863 
L 357.994602 261.571418 
L 359.302095 261.314105 
L 360.589779 267.021583 
L 361.917083 271.535851 
L 363.204765 270.647081 
L 364.532069 282.155212 
L 365.839562 273.360334 
L 367.140451 292.072875 
L 368.454549 293.195655 
L 369.748834 257.033676 
L 371.056329 241.782862 
L 372.396839 235.069784 
L 376.299509 192.147779 
L 377.580588 194.580426 
L 378.914495 198.112388 
L 380.195574 175.750879 
L 381.522877 175.704112 
L 382.836975 174.090171 
L 384.118054 174.370959 
L 385.438755 175.704112 
L 386.73304 175.236252 
L 388.047138 173.949868 
L 389.348028 173.201221 
L 390.648918 167.353622 
L 391.969617 166.441379 
L 393.283714 169.926573 
L 394.584604 167.306854 
L 395.892097 167.073015 
L 397.173177 165.786449 
L 398.487273 166.581682 
L 398.487273 166.581682 
" style="fill:none;stroke:#1f77b4;stroke-linecap:square;stroke-width:1.5;"/>
   </g>
   <g id="line2d_17">
    <path clip-path="url(#pfca0f13cb4)" d="M 73.832727 123.940463 
L 75.160032 122.349995 
L 76.454318 111.636919 
L 77.775018 108.034897 
L 79.069305 108.736594 
L 80.390004 110.163282 
L 81.697499 118.139631 
L 83.004992 127.051333 
L 84.286071 142.302151 
L 85.593564 147.42476 
L 86.901057 125.71818 
L 88.234965 140.197059 
L 89.529251 147.939386 
L 90.843348 150.769651 
L 92.137634 160.266223 
L 93.458334 165.622671 
L 94.746017 164.336286 
L 96.07332 157.669797 
L 97.400624 163.447336 
L 98.668497 162.722346 
L 99.989198 173.926393 
L 101.283483 188.10119 
L 102.597581 194.369881 
L 103.898471 197.34063 
L 105.21917 201.457279 
L 106.52006 206.696898 
L 107.814347 195.937053 
L 109.12184 197.527701 
L 110.435937 186.370239 
L 111.730223 188.87313 
L 113.04432 206.76696 
L 114.351813 211.959811 
L 115.679117 197.130084 
L 116.966799 198.299641 
L 118.267689 198.627015 
L 119.561976 198.627015 
L 120.88928 198.042328 
L 122.176962 198.369701 
L 123.497663 197.831782 
L 124.798553 198.182631 
L 126.106046 198.229398 
L 127.413539 197.387398 
L 128.721032 198.697258 
L 130.028526 197.925318 
L 132.636909 197.22362 
L 133.970816 197.246913 
L 135.258498 197.10661 
L 136.565991 196.708993 
L 137.873486 196.708993 
L 139.161168 196.381619 
L 140.475264 196.56869 
L 141.776154 196.428387 
L 143.242132 197.176852 
L 144.549625 197.200145 
L 148.458898 196.545215 
L 149.502251 196.919539 
L 150.822952 196.545215 
L 152.123842 196.358145 
L 153.437938 196.63875 
L 154.745431 196.45168 
L 156.046321 196.615458 
L 158.641498 195.960528 
L 159.968801 196.498448 
L 161.269691 196.147599 
L 162.722462 196.241135 
L 164.029955 196.45168 
L 165.337448 196.545215 
L 166.644941 196.45168 
L 167.945831 196.171074 
L 170.303281 196.545215 
L 171.610774 196.264609 
L 172.891854 196.358145 
L 174.212554 196.264609 
L 175.533253 195.890286 
L 178.115223 196.358145 
L 179.449131 196.077356 
L 180.750021 196.077356 
L 183.365007 196.545215 
L 184.646086 196.077356 
L 185.97339 195.890286 
L 187.280883 196.545215 
L 188.588376 196.45168 
L 189.89587 196.545215 
L 191.176949 196.45168 
L 192.491045 196.077356 
L 193.824952 196.171074 
L 195.099428 195.91376 
L 196.413526 196.054064 
L 197.701208 195.843518 
L 199.008701 196.030589 
L 201.755759 195.91376 
L 203.083062 196.264609 
L 205.691445 196.171074 
L 208.167758 196.124306 
L 209.455441 196.358145 
L 210.782744 195.516144 
L 212.083634 195.352366 
L 213.397732 195.890286 
L 214.705225 196.147599 
L 216.006115 196.63875 
L 217.313608 196.358145 
L 218.621101 196.358145 
L 221.229484 195.539437 
L 222.530374 195.79675 
L 223.831264 195.866993 
L 225.14536 195.632972 
L 226.44625 196.194367 
L 227.89902 196.077356 
L 229.193307 195.609497 
L 230.487592 195.983821 
L 231.808293 195.703215 
L 234.145933 195.703215 
L 235.440219 196.171074 
L 236.78073 195.983821 
L 238.061809 195.328891 
L 239.369302 195.703215 
L 240.70321 195.515962 
L 244.612483 195.79675 
L 245.913372 196.077356 
L 247.220866 195.469194 
L 248.521756 195.212063 
L 249.829249 195.141821 
L 251.136742 195.235356 
L 252.444235 195.188588 
L 253.890403 195.983821 
L 255.197896 195.79675 
L 256.485578 195.890286 
L 260.163728 195.609497 
L 261.444807 196.077356 
L 262.772112 195.515962 
L 264.079605 195.703215 
L 265.373891 195.515962 
L 270.603864 195.515962 
L 271.911357 195.79675 
L 273.205644 195.609497 
L 274.506534 195.890286 
L 275.82063 196.732468 
L 277.114917 195.890286 
L 278.429013 195.703215 
L 279.736507 195.305598 
L 281.044 195.352366 
L 282.32508 195.165113 
L 283.658986 195.141821 
L 284.959876 195.235356 
L 286.412647 195.515962 
L 287.713537 195.515962 
L 289.02103 194.95475 
L 290.308712 195.328891 
L 291.629413 195.983821 
L 292.685974 195.609497 
L 293.986864 195.890286 
L 296.575436 195.235356 
L 297.889532 195.235356 
L 299.22344 195.515962 
L 304.413792 195.048285 
L 305.741096 195.328891 
L 307.028778 195.141821 
L 308.336271 195.890286 
L 310.957862 195.422427 
L 312.258752 195.515962 
L 313.559642 195.422427 
L 314.873738 195.609497 
L 316.187835 195.235356 
L 317.495328 195.703215 
L 318.789614 195.422427 
L 320.097108 194.95475 
L 326.634575 195.422427 
L 329.256164 195.235356 
L 330.550451 195.422427 
L 331.857944 195.422427 
L 333.158834 195.79675 
L 334.47293 195.890286 
L 335.806838 195.141821 
L 337.068107 195.515962 
L 338.382203 195.328891 
L 339.689697 195.703215 
L 341.010396 195.609497 
L 342.324494 195.235356 
L 343.59897 195.890286 
L 344.926274 195.118528 
L 346.233767 195.960528 
L 347.521449 194.978042 
L 348.828942 196.896064 
L 350.14304 193.668183 
L 351.44393 195.141821 
L 352.771233 192.826183 
L 354.078726 192.87295 
L 355.379616 194.11275 
L 356.673901 191.726869 
L 357.994602 184.148137 
L 359.302095 187.98418 
L 360.589779 204.755402 
L 361.917083 196.896064 
L 363.204765 201.059663 
L 364.532069 217.363026 
L 365.839562 251.139128 
L 367.140451 253.103918 
L 368.454549 232.824208 
L 369.748834 195.352366 
L 371.056329 161.856871 
L 372.396839 132.103882 
L 373.704332 113.648659 
L 376.299509 121.484522 
L 377.580588 124.922946 
L 378.914495 130.466467 
L 380.195574 125.624645 
L 381.522877 128.712224 
L 382.836975 127.472426 
L 384.118054 126.700484 
L 385.438755 125.741656 
L 386.73304 119.121934 
L 388.047138 119.940644 
L 389.348028 124.501857 
L 390.648918 125.928726 
L 391.969617 124.525331 
L 394.584604 122.91121 
L 395.892097 123.449311 
L 397.173177 124.104242 
L 398.487273 124.595393 
L 398.487273 124.595393 
" style="fill:none;stroke:#ff7f0e;stroke-linecap:square;stroke-width:1.5;"/>
   </g>
   <g id="line2d_18">
    <path clip-path="url(#pfca0f13cb4)" d="M 73.832727 88.948038 
L 75.160032 96.12897 
L 76.454318 99.169781 
L 77.775018 103.847823 
L 79.069305 107.917885 
L 80.390004 105.742553 
L 81.697499 98.631677 
L 83.004992 95.871656 
L 84.286071 106.467543 
L 85.593564 145.366435 
L 86.901057 224.23988 
L 88.234965 235.888493 
L 89.529251 248.425875 
L 90.843348 238.508213 
L 92.137634 248.075026 
L 93.458334 259.863941 
L 94.746017 250.016522 
L 96.07332 255.372969 
L 97.400624 251.911066 
L 98.668497 252.285392 
L 99.989198 248.542884 
L 101.283483 247.116013 
L 102.597581 250.016522 
L 105.21917 256.729597 
L 106.52006 257.852385 
L 107.814347 267.348957 
L 109.12184 264.004068 
L 110.435937 253.969574 
L 111.730223 259.746932 
L 113.04432 260.495396 
L 114.351813 260.589115 
L 115.679117 270.436535 
L 116.966799 271.021222 
L 118.267689 270.506778 
L 119.561976 271.91017 
L 120.88928 272.798939 
L 122.176962 271.535851 
L 123.497663 274.576656 
L 126.106046 273.945201 
L 127.413539 274.974274 
L 128.721032 274.974274 
L 130.028526 277.26662 
L 132.636909 277.640944 
L 133.970816 277.313386 
L 135.258498 277.477165 
L 136.565991 277.898075 
L 137.873486 278.015085 
L 139.161168 278.295873 
L 140.475264 277.991793 
L 141.776154 278.061852 
L 143.242132 278.646722 
L 144.549625 279.020863 
L 145.863723 278.740257 
L 147.158008 279.208116 
L 148.458898 279.395187 
L 149.502251 279.11458 
L 150.822952 278.927328 
L 152.123842 279.11458 
L 153.437938 279.114398 
L 154.745431 279.675975 
L 156.046321 278.950803 
L 157.353814 278.553183 
L 158.641498 279.044338 
L 159.968801 278.599953 
L 161.269691 279.465429 
L 162.722462 279.208116 
L 164.029955 279.301651 
L 165.337448 279.114398 
L 166.644941 279.76951 
L 168.995787 280.050116 
L 171.610774 279.395187 
L 174.212554 279.675975 
L 176.82754 279.488722 
L 178.115223 279.208116 
L 179.449131 279.114398 
L 180.750021 279.208116 
L 182.050909 279.114398 
L 183.365007 279.488722 
L 184.646086 279.582258 
L 185.97339 279.395187 
L 187.280883 279.76951 
L 188.588376 279.76951 
L 189.89587 279.395187 
L 191.176949 279.488722 
L 192.491045 280.143651 
L 193.824952 279.395187 
L 195.099428 279.722743 
L 196.413526 278.810498 
L 197.701208 279.348417 
L 199.008701 278.997568 
L 203.083062 279.208116 
L 204.390555 279.76951 
L 205.691445 279.863046 
L 206.998938 279.76951 
L 208.167758 279.909813 
L 209.455441 279.441952 
L 210.782744 279.371893 
L 212.083634 280.026642 
L 213.397732 279.839571 
L 214.705225 280.377674 
L 216.006115 280.237186 
L 217.313608 280.517975 
L 218.621101 280.42444 
L 219.928594 280.611511 
L 221.229484 279.792802 
L 226.44625 279.348417 
L 227.89902 280.42444 
L 235.440219 280.330904 
L 236.78073 280.705046 
L 239.369302 279.956581 
L 241.997496 280.798581 
L 244.612483 280.237186 
L 245.913372 280.705046 
L 247.220866 280.19042 
L 248.521756 280.003348 
L 249.829249 280.30743 
L 253.890403 279.956581 
L 256.485578 280.611511 
L 257.812882 280.42444 
L 259.087358 280.42444 
L 260.163728 280.050116 
L 261.444807 280.517975 
L 262.772112 280.798581 
L 264.079605 280.611511 
L 265.373891 280.143651 
L 266.687988 280.050116 
L 267.962463 280.237186 
L 269.263353 280.611511 
L 270.603864 280.42444 
L 271.911357 279.863046 
L 273.205644 280.237186 
L 274.506534 280.237186 
L 275.82063 279.582258 
L 277.114917 280.237186 
L 278.429013 280.611511 
L 279.736507 280.260662 
L 282.32508 279.956581 
L 283.658986 280.167126 
L 284.959876 280.073591 
L 286.412647 280.892117 
L 289.02103 280.798581 
L 290.308712 281.079369 
L 292.685974 280.517975 
L 293.986864 280.798581 
L 295.254735 280.892117 
L 296.575436 280.611511 
L 297.889532 280.798581 
L 299.22344 280.798581 
L 300.517725 281.079369 
L 301.785599 280.705046 
L 303.112902 281.079369 
L 304.413792 280.705046 
L 305.741096 280.705046 
L 307.028778 280.330904 
L 308.336271 280.143651 
L 309.656972 281.266443 
L 310.957862 280.611511 
L 312.258752 280.517975 
L 313.559642 281.172908 
L 314.873738 280.892117 
L 316.187835 281.079369 
L 317.495328 281.079369 
L 318.789614 281.453513 
L 320.097108 280.985653 
L 321.411204 280.892117 
L 322.718697 281.172908 
L 324.012984 280.705046 
L 325.313874 280.985653 
L 326.634575 280.705046 
L 329.256164 280.798581 
L 330.550451 280.985653 
L 333.158834 280.985653 
L 334.47293 281.359978 
L 338.382203 280.892117 
L 339.689697 281.172908 
L 342.324494 280.705046 
L 343.59897 280.611511 
L 344.926274 281.617292 
L 346.233767 279.909813 
L 348.828942 280.026825 
L 351.44393 275.933286 
L 352.771233 276.190599 
L 354.078726 275.582437 
L 355.379616 273.103021 
L 356.673901 275.021041 
L 357.994602 276.588217 
L 359.302095 272.003705 
L 360.589779 268.799121 
L 361.917083 263.653219 
L 363.204765 259.863941 
L 364.532069 239.069606 
L 365.839562 239.303447 
L 367.140451 226.836306 
L 368.454549 133.507276 
L 369.748834 113.695426 
L 371.056329 108.502574 
L 372.396839 112.502397 
L 373.704332 97.134748 
L 374.998619 104.690006 
L 376.299509 81.907401 
L 377.580588 87.357391 
L 378.914495 95.82489 
L 380.195574 76.621024 
L 381.522877 85.041754 
L 382.836975 87.544461 
L 384.118054 84.340055 
L 385.438755 87.52117 
L 386.73304 89.205352 
L 388.047138 90.702281 
L 389.348028 95.333558 
L 390.648918 88.480183 
L 391.969617 84.340055 
L 393.283714 88.994799 
L 394.584604 90.632219 
L 395.892097 91.170139 
L 397.173177 86.538687 
L 398.487273 89.930342 
L 398.487273 89.930342 
" style="fill:none;stroke:#2ca02c;stroke-linecap:square;stroke-width:1.5;"/>
   </g>
   <g id="line2d_19">
    <path clip-path="url(#pfca0f13cb4)" d="M 73.832727 65.369212 
L 75.160032 72.912832 
L 76.454318 70.271841 
L 77.775018 72.593028 
L 79.069305 76.196092 
L 81.697499 73.407571 
L 83.004992 72.988916 
L 84.286071 84.37619 
L 85.593564 70.34421 
L 86.901057 55.014818 
L 88.234965 73.781616 
L 89.529251 67.350396 
L 90.843348 67.813311 
L 92.137634 70.775433 
L 93.458334 70.163521 
L 94.746017 69.326294 
L 96.07332 74.215546 
L 97.400624 69.626891 
L 98.668497 70.591745 
L 99.989198 72.820963 
L 101.283483 71.782119 
L 102.597581 79.461304 
L 103.898471 62.938694 
L 105.21917 69.429021 
L 106.52006 67.005208 
L 107.814347 67.862698 
L 109.12184 69.690916 
L 110.435937 73.463089 
L 111.730223 74.778977 
L 113.04432 62.903148 
L 114.351813 70.595606 
L 115.679117 69.264836 
L 116.966799 69.321704 
L 118.267689 70.197714 
L 119.561976 69.275048 
L 120.88928 69.894377 
L 122.176962 69.890779 
L 123.497663 69.028469 
L 124.798553 69.119951 
L 126.106046 69.736739 
L 127.413539 69.546223 
L 128.721032 69.230638 
L 131.309605 69.07462 
L 132.636909 69.106674 
L 133.970816 69.333267 
L 135.258498 69.189691 
L 136.565991 69.166668 
L 137.873486 69.30089 
L 139.161168 68.882478 
L 141.776154 69.148228 
L 143.242132 69.302866 
L 144.549625 68.70937 
L 145.863723 69.174451 
L 147.158008 68.827882 
L 148.458898 68.640145 
L 149.502251 68.829174 
L 150.822952 69.347663 
L 153.437938 68.967153 
L 154.745431 68.812251 
L 156.046321 68.876391 
L 157.353814 69.352892 
L 158.641498 68.986199 
L 159.968801 69.124283 
L 161.269691 68.814348 
L 162.722462 69.358357 
L 166.644941 68.792398 
L 167.945831 68.3359 
L 168.995787 68.575496 
L 170.303281 68.582436 
L 171.610774 68.943383 
L 172.891854 68.895851 
L 174.212554 68.718507 
L 175.533253 68.881723 
L 176.82754 68.821372 
L 178.115223 69.306425 
L 179.449131 69.073404 
L 180.750021 68.998517 
L 182.050909 69.389928 
L 183.365007 68.732254 
L 184.646086 69.141631 
L 185.97339 69.25298 
L 187.280883 68.673494 
L 189.89587 69.13944 
L 191.176949 69.128154 
L 192.491045 68.415044 
L 193.824952 69.283596 
L 195.099428 68.628699 
L 196.413526 69.443515 
L 197.701208 68.948329 
L 199.008701 69.323863 
L 200.322799 69.114156 
L 201.755759 69.566662 
L 203.083062 69.093069 
L 204.390555 69.037869 
L 205.691445 68.797628 
L 206.998938 69.530739 
L 208.167758 68.65385 
L 209.455441 69.243144 
L 210.782744 69.234223 
L 212.083634 68.914236 
L 213.397732 68.716824 
L 214.705225 68.836959 
L 216.006115 68.564409 
L 219.928594 68.765453 
L 221.229484 69.210742 
L 222.530374 69.030529 
L 225.14536 69.383875 
L 226.44625 69.332912 
L 227.89902 68.846217 
L 229.193307 68.613333 
L 230.487592 68.929994 
L 231.808293 68.844982 
L 233.10258 68.626198 
L 234.145933 68.769413 
L 236.78073 68.464058 
L 238.061809 68.766596 
L 239.369302 69.201827 
L 240.70321 68.730381 
L 241.997496 68.420201 
L 243.304989 68.63919 
L 244.612483 69.402265 
L 245.913372 68.401441 
L 248.521756 69.040289 
L 251.136742 68.631959 
L 252.444235 69.218084 
L 253.890403 69.286951 
L 256.485578 68.602298 
L 257.812882 69.087901 
L 259.087358 68.987164 
L 260.163728 69.079562 
L 262.772112 68.699702 
L 264.079605 68.781377 
L 265.373891 69.121059 
L 269.263353 68.688269 
L 270.603864 68.675764 
L 271.911357 69.269341 
L 273.205644 68.928546 
L 275.82063 69.082291 
L 277.114917 69.068305 
L 278.429013 68.889913 
L 283.658986 68.968639 
L 284.959876 69.118686 
L 286.412647 68.623854 
L 287.713537 68.536862 
L 289.02103 68.79907 
L 290.308712 68.649425 
L 291.629413 68.844341 
L 292.685974 69.13624 
L 293.986864 68.830615 
L 295.254735 68.778469 
L 296.575436 68.982792 
L 300.517725 68.803445 
L 301.785599 69.053926 
L 303.112902 68.703358 
L 308.336271 69.740464 
L 309.656972 68.735174 
L 310.957862 69.183907 
L 312.258752 69.144039 
L 313.559642 68.619665 
L 314.873738 69.101673 
L 316.187835 69.087161 
L 317.495328 68.726283 
L 318.789614 68.552377 
L 321.411204 68.878022 
L 322.718697 68.379541 
L 324.012984 68.90691 
L 325.313874 68.671568 
L 326.634575 69.053926 
L 327.942068 68.736579 
L 329.256164 68.885095 
L 334.47293 68.535759 
L 335.806838 68.803705 
L 337.068107 68.840241 
L 339.689697 68.650191 
L 341.010396 69.047931 
L 342.324494 69.123116 
L 343.59897 68.493179 
L 344.926274 68.657198 
L 347.521449 69.919373 
L 348.828942 70.147043 
L 350.14304 70.701557 
L 351.44393 68.476261 
L 352.771233 68.72123 
L 354.078726 69.63194 
L 355.379616 68.688669 
L 356.673901 69.397929 
L 357.994602 67.612692 
L 359.302095 71.256414 
L 360.589779 68.217399 
L 361.917083 69.541331 
L 363.204765 72.227317 
L 364.532069 71.348724 
L 365.839562 64.237526 
L 367.140451 53.568 
L 368.454549 57.485004 
L 369.748834 84.028607 
L 371.056329 87.419033 
L 372.396839 82.447841 
L 373.704332 66.164876 
L 374.998619 77.563355 
L 376.299509 63.435781 
L 377.580588 69.712585 
L 378.914495 79.448509 
L 380.195574 60.717546 
L 381.522877 69.539482 
L 382.836975 70.922536 
L 384.118054 67.81276 
L 385.438755 70.166635 
L 386.73304 67.936929 
L 388.047138 69.502487 
L 389.348028 75.782348 
L 390.648918 70.042245 
L 391.969617 65.685596 
L 393.283714 69.710438 
L 394.584604 70.223851 
L 395.892097 70.921573 
L 397.173177 67.209311 
L 398.487273 70.429817 
L 398.487273 70.429817 
" style="fill:none;stroke:#d62728;stroke-linecap:square;stroke-width:1.5;"/>
   </g>
   <g id="patch_3">
    <path d="M 57.6 307.584 
L 57.6 41.472 
" style="fill:none;stroke:#000000;stroke-linecap:square;stroke-linejoin:miter;stroke-width:0.8;"/>
   </g>
   <g id="patch_4">
    <path d="M 414.72 307.584 
L 414.72 41.472 
" style="fill:none;stroke:#000000;stroke-linecap:square;stroke-linejoin:miter;stroke-width:0.8;"/>
   </g>
   <g id="patch_5">
    <path d="M 57.6 307.584 
L 414.72 307.584 
" style="fill:none;stroke:#000000;stroke-linecap:square;stroke-linejoin:miter;stroke-width:0.8;"/>
   </g>
   <g id="patch_6">
    <path d="M 57.6 41.472 
L 414.72 41.472 
" style="fill:none;stroke:#000000;stroke-linecap:square;stroke-linejoin:miter;stroke-width:0.8;"/>
   </g>
   <g id="text_18">
    <!-- Vivo 1716/car_off/accelerometer Dec 09 120835.txt -->
    <defs>
     <path d="M 28.609375 0 
L 0.78125 72.90625 
L 11.078125 72.90625 
L 34.1875 11.53125 
L 57.328125 72.90625 
L 67.578125 72.90625 
L 39.796875 0 
z
" id="DejaVuSans-86"/>
     <path d="M 2.984375 54.6875 
L 12.5 54.6875 
L 29.59375 8.796875 
L 46.6875 54.6875 
L 56.203125 54.6875 
L 35.6875 0 
L 23.484375 0 
z
" id="DejaVuSans-118"/>
     <path d="M 33.015625 40.375 
Q 26.375 40.375 22.484375 35.828125 
Q 18.609375 31.296875 18.609375 23.390625 
Q 18.609375 15.53125 22.484375 10.953125 
Q 26.375 6.390625 33.015625 6.390625 
Q 39.65625 6.390625 43.53125 10.953125 
Q 47.40625 15.53125 47.40625 23.390625 
Q 47.40625 31.296875 43.53125 35.828125 
Q 39.65625 40.375 33.015625 40.375 
z
M 52.59375 71.296875 
L 52.59375 62.3125 
Q 48.875 64.0625 45.09375 64.984375 
Q 41.3125 65.921875 37.59375 65.921875 
Q 27.828125 65.921875 22.671875 59.328125 
Q 17.53125 52.734375 16.796875 39.40625 
Q 19.671875 43.65625 24.015625 45.921875 
Q 28.375 48.1875 33.59375 48.1875 
Q 44.578125 48.1875 50.953125 41.515625 
Q 57.328125 34.859375 57.328125 23.390625 
Q 57.328125 12.15625 50.6875 5.359375 
Q 44.046875 -1.421875 33.015625 -1.421875 
Q 20.359375 -1.421875 13.671875 8.265625 
Q 6.984375 17.96875 6.984375 36.375 
Q 6.984375 53.65625 15.1875 63.9375 
Q 23.390625 74.21875 37.203125 74.21875 
Q 40.921875 74.21875 44.703125 73.484375 
Q 48.484375 72.75 52.59375 71.296875 
z
" id="DejaVuSans-54"/>
     <path d="M 25.390625 72.90625 
L 33.6875 72.90625 
L 8.296875 -9.28125 
L 0 -9.28125 
z
" id="DejaVuSans-47"/>
     <path d="M 41.109375 46.296875 
Q 39.59375 47.171875 37.8125 47.578125 
Q 36.03125 48 33.890625 48 
Q 26.265625 48 22.1875 43.046875 
Q 18.109375 38.09375 18.109375 28.8125 
L 18.109375 0 
L 9.078125 0 
L 9.078125 54.6875 
L 18.109375 54.6875 
L 18.109375 46.1875 
Q 20.953125 51.171875 25.484375 53.578125 
Q 30.03125 56 36.53125 56 
Q 37.453125 56 38.578125 55.875 
Q 39.703125 55.765625 41.0625 55.515625 
z
" id="DejaVuSans-114"/>
     <path d="M 50.984375 -16.609375 
L 50.984375 -23.578125 
L -0.984375 -23.578125 
L -0.984375 -16.609375 
z
" id="DejaVuSans-95"/>
     <path d="M 37.109375 75.984375 
L 37.109375 68.5 
L 28.515625 68.5 
Q 23.6875 68.5 21.796875 66.546875 
Q 19.921875 64.59375 19.921875 59.515625 
L 19.921875 54.6875 
L 34.71875 54.6875 
L 34.71875 47.703125 
L 19.921875 47.703125 
L 19.921875 0 
L 10.890625 0 
L 10.890625 47.703125 
L 2.296875 47.703125 
L 2.296875 54.6875 
L 10.890625 54.6875 
L 10.890625 58.5 
Q 10.890625 67.625 15.140625 71.796875 
Q 19.390625 75.984375 28.609375 75.984375 
z
" id="DejaVuSans-102"/>
     <path d="M 9.421875 75.984375 
L 18.40625 75.984375 
L 18.40625 0 
L 9.421875 0 
z
" id="DejaVuSans-108"/>
     <path d="M 19.671875 64.796875 
L 19.671875 8.109375 
L 31.59375 8.109375 
Q 46.6875 8.109375 53.6875 14.9375 
Q 60.6875 21.78125 60.6875 36.53125 
Q 60.6875 51.171875 53.6875 57.984375 
Q 46.6875 64.796875 31.59375 64.796875 
z
M 9.8125 72.90625 
L 30.078125 72.90625 
Q 51.265625 72.90625 61.171875 64.09375 
Q 71.09375 55.28125 71.09375 36.53125 
Q 71.09375 17.671875 61.125 8.828125 
Q 51.171875 0 30.078125 0 
L 9.8125 0 
z
" id="DejaVuSans-68"/>
     <path d="M 10.984375 1.515625 
L 10.984375 10.5 
Q 14.703125 8.734375 18.5 7.8125 
Q 22.3125 6.890625 25.984375 6.890625 
Q 35.75 6.890625 40.890625 13.453125 
Q 46.046875 20.015625 46.78125 33.40625 
Q 43.953125 29.203125 39.59375 26.953125 
Q 35.25 24.703125 29.984375 24.703125 
Q 19.046875 24.703125 12.671875 31.3125 
Q 6.296875 37.9375 6.296875 49.421875 
Q 6.296875 60.640625 12.9375 67.421875 
Q 19.578125 74.21875 30.609375 74.21875 
Q 43.265625 74.21875 49.921875 64.515625 
Q 56.59375 54.828125 56.59375 36.375 
Q 56.59375 19.140625 48.40625 8.859375 
Q 40.234375 -1.421875 26.421875 -1.421875 
Q 22.703125 -1.421875 18.890625 -0.6875 
Q 15.09375 0.046875 10.984375 1.515625 
z
M 30.609375 32.421875 
Q 37.25 32.421875 41.125 36.953125 
Q 45.015625 41.5 45.015625 49.421875 
Q 45.015625 57.28125 41.125 61.84375 
Q 37.25 66.40625 30.609375 66.40625 
Q 23.96875 66.40625 20.09375 61.84375 
Q 16.21875 57.28125 16.21875 49.421875 
Q 16.21875 41.5 20.09375 36.953125 
Q 23.96875 32.421875 30.609375 32.421875 
z
" id="DejaVuSans-57"/>
     <path d="M 31.78125 34.625 
Q 24.75 34.625 20.71875 30.859375 
Q 16.703125 27.09375 16.703125 20.515625 
Q 16.703125 13.921875 20.71875 10.15625 
Q 24.75 6.390625 31.78125 6.390625 
Q 38.8125 6.390625 42.859375 10.171875 
Q 46.921875 13.96875 46.921875 20.515625 
Q 46.921875 27.09375 42.890625 30.859375 
Q 38.875 34.625 31.78125 34.625 
z
M 21.921875 38.8125 
Q 15.578125 40.375 12.03125 44.71875 
Q 8.5 49.078125 8.5 55.328125 
Q 8.5 64.0625 14.71875 69.140625 
Q 20.953125 74.21875 31.78125 74.21875 
Q 42.671875 74.21875 48.875 69.140625 
Q 55.078125 64.0625 55.078125 55.328125 
Q 55.078125 49.078125 51.53125 44.71875 
Q 48 40.375 41.703125 38.8125 
Q 48.828125 37.15625 52.796875 32.3125 
Q 56.78125 27.484375 56.78125 20.515625 
Q 56.78125 9.90625 50.3125 4.234375 
Q 43.84375 -1.421875 31.78125 -1.421875 
Q 19.734375 -1.421875 13.25 4.234375 
Q 6.78125 9.90625 6.78125 20.515625 
Q 6.78125 27.484375 10.78125 32.3125 
Q 14.796875 37.15625 21.921875 38.8125 
z
M 18.3125 54.390625 
Q 18.3125 48.734375 21.84375 45.5625 
Q 25.390625 42.390625 31.78125 42.390625 
Q 38.140625 42.390625 41.71875 45.5625 
Q 45.3125 48.734375 45.3125 54.390625 
Q 45.3125 60.0625 41.71875 63.234375 
Q 38.140625 66.40625 31.78125 66.40625 
Q 25.390625 66.40625 21.84375 63.234375 
Q 18.3125 60.0625 18.3125 54.390625 
z
" id="DejaVuSans-56"/>
     <path d="M 54.890625 54.6875 
L 35.109375 28.078125 
L 55.90625 0 
L 45.3125 0 
L 29.390625 21.484375 
L 13.484375 0 
L 2.875 0 
L 24.125 28.609375 
L 4.6875 54.6875 
L 15.28125 54.6875 
L 29.78125 35.203125 
L 44.28125 54.6875 
z
" id="DejaVuSans-120"/>
    </defs>
    <g transform="translate(80.068125 35.472)scale(0.12 -0.12)">
     <use xlink:href="#DejaVuSans-86"/>
     <use x="68.376953" xlink:href="#DejaVuSans-105"/>
     <use x="96.160156" xlink:href="#DejaVuSans-118"/>
     <use x="155.339844" xlink:href="#DejaVuSans-111"/>
     <use x="216.521484" xlink:href="#DejaVuSans-32"/>
     <use x="248.308594" xlink:href="#DejaVuSans-49"/>
     <use x="311.931641" xlink:href="#DejaVuSans-55"/>
     <use x="375.554688" xlink:href="#DejaVuSans-49"/>
     <use x="439.177734" xlink:href="#DejaVuSans-54"/>
     <use x="502.800781" xlink:href="#DejaVuSans-47"/>
     <use x="536.492188" xlink:href="#DejaVuSans-99"/>
     <use x="591.472656" xlink:href="#DejaVuSans-97"/>
     <use x="652.751953" xlink:href="#DejaVuSans-114"/>
     <use x="693.865234" xlink:href="#DejaVuSans-95"/>
     <use x="743.865234" xlink:href="#DejaVuSans-111"/>
     <use x="805.046875" xlink:href="#DejaVuSans-102"/>
     <use x="840.251953" xlink:href="#DejaVuSans-102"/>
     <use x="875.457031" xlink:href="#DejaVuSans-47"/>
     <use x="909.148438" xlink:href="#DejaVuSans-97"/>
     <use x="970.427734" xlink:href="#DejaVuSans-99"/>
     <use x="1025.408203" xlink:href="#DejaVuSans-99"/>
     <use x="1080.388672" xlink:href="#DejaVuSans-101"/>
     <use x="1141.912109" xlink:href="#DejaVuSans-108"/>
     <use x="1169.695312" xlink:href="#DejaVuSans-101"/>
     <use x="1231.21875" xlink:href="#DejaVuSans-114"/>
     <use x="1272.300781" xlink:href="#DejaVuSans-111"/>
     <use x="1333.482422" xlink:href="#DejaVuSans-109"/>
     <use x="1430.894531" xlink:href="#DejaVuSans-101"/>
     <use x="1492.417969" xlink:href="#DejaVuSans-116"/>
     <use x="1531.626953" xlink:href="#DejaVuSans-101"/>
     <use x="1593.150391" xlink:href="#DejaVuSans-114"/>
     <use x="1634.263672" xlink:href="#DejaVuSans-32"/>
     <use x="1666.050781" xlink:href="#DejaVuSans-68"/>
     <use x="1743.052734" xlink:href="#DejaVuSans-101"/>
     <use x="1804.576172" xlink:href="#DejaVuSans-99"/>
     <use x="1859.556641" xlink:href="#DejaVuSans-32"/>
     <use x="1891.34375" xlink:href="#DejaVuSans-48"/>
     <use x="1954.966797" xlink:href="#DejaVuSans-57"/>
     <use x="2018.589844" xlink:href="#DejaVuSans-32"/>
     <use x="2050.376953" xlink:href="#DejaVuSans-49"/>
     <use x="2114" xlink:href="#DejaVuSans-50"/>
     <use x="2177.623047" xlink:href="#DejaVuSans-48"/>
     <use x="2241.246094" xlink:href="#DejaVuSans-56"/>
     <use x="2304.869141" xlink:href="#DejaVuSans-51"/>
     <use x="2368.492188" xlink:href="#DejaVuSans-53"/>
     <use x="2432.115234" xlink:href="#DejaVuSans-46"/>
     <use x="2463.902344" xlink:href="#DejaVuSans-116"/>
     <use x="2503.111328" xlink:href="#DejaVuSans-120"/>
     <use x="2562.291016" xlink:href="#DejaVuSans-116"/>
    </g>
   </g>
   <g id="legend_1">
    <g id="patch_7">
     <path d="M 344.52 205.38425 
L 407.72 205.38425 
Q 409.72 205.38425 409.72 203.38425 
L 409.72 145.67175 
Q 409.72 143.67175 407.72 143.67175 
L 344.52 143.67175 
Q 342.52 143.67175 342.52 145.67175 
L 342.52 203.38425 
Q 342.52 205.38425 344.52 205.38425 
z
" style="fill:#ffffff;opacity:0.8;stroke:#cccccc;stroke-linejoin:miter;"/>
    </g>
    <g id="line2d_20">
     <path d="M 346.52 151.770188 
L 366.52 151.770188 
" style="fill:none;stroke:#1f77b4;stroke-linecap:square;stroke-width:1.5;"/>
    </g>
    <g id="line2d_21"/>
    <g id="text_19">
     <!-- X-Axis -->
     <defs>
      <path d="M 6.296875 72.90625 
L 16.890625 72.90625 
L 35.015625 45.796875 
L 53.21875 72.90625 
L 63.8125 72.90625 
L 40.375 37.890625 
L 65.375 0 
L 54.78125 0 
L 34.28125 31 
L 13.625 0 
L 2.984375 0 
L 29 38.921875 
z
" id="DejaVuSans-88"/>
      <path d="M 4.890625 31.390625 
L 31.203125 31.390625 
L 31.203125 23.390625 
L 4.890625 23.390625 
z
" id="DejaVuSans-45"/>
      <path d="M 34.1875 63.1875 
L 20.796875 26.90625 
L 47.609375 26.90625 
z
M 28.609375 72.90625 
L 39.796875 72.90625 
L 67.578125 0 
L 57.328125 0 
L 50.6875 18.703125 
L 17.828125 18.703125 
L 11.1875 0 
L 0.78125 0 
z
" id="DejaVuSans-65"/>
     </defs>
     <g transform="translate(374.52 155.270188)scale(0.1 -0.1)">
      <use xlink:href="#DejaVuSans-88"/>
      <use x="68.427734" xlink:href="#DejaVuSans-45"/>
      <use x="104.480469" xlink:href="#DejaVuSans-65"/>
      <use x="172.888672" xlink:href="#DejaVuSans-120"/>
      <use x="232.068359" xlink:href="#DejaVuSans-105"/>
      <use x="259.851562" xlink:href="#DejaVuSans-115"/>
     </g>
    </g>
    <g id="line2d_22">
     <path d="M 346.52 166.448313 
L 366.52 166.448313 
" style="fill:none;stroke:#ff7f0e;stroke-linecap:square;stroke-width:1.5;"/>
    </g>
    <g id="line2d_23"/>
    <g id="text_20">
     <!-- Y-Axis -->
     <defs>
      <path d="M -0.203125 72.90625 
L 10.40625 72.90625 
L 30.609375 42.921875 
L 50.6875 72.90625 
L 61.28125 72.90625 
L 35.5 34.71875 
L 35.5 0 
L 25.59375 0 
L 25.59375 34.71875 
z
" id="DejaVuSans-89"/>
     </defs>
     <g transform="translate(374.52 169.948313)scale(0.1 -0.1)">
      <use xlink:href="#DejaVuSans-89"/>
      <use x="60.912109" xlink:href="#DejaVuSans-45"/>
      <use x="96.964844" xlink:href="#DejaVuSans-65"/>
      <use x="165.373047" xlink:href="#DejaVuSans-120"/>
      <use x="224.552734" xlink:href="#DejaVuSans-105"/>
      <use x="252.335938" xlink:href="#DejaVuSans-115"/>
     </g>
    </g>
    <g id="line2d_24">
     <path d="M 346.52 181.126438 
L 366.52 181.126438 
" style="fill:none;stroke:#2ca02c;stroke-linecap:square;stroke-width:1.5;"/>
    </g>
    <g id="line2d_25"/>
    <g id="text_21">
     <!-- Z-Axis -->
     <defs>
      <path d="M 5.609375 72.90625 
L 62.890625 72.90625 
L 62.890625 65.375 
L 16.796875 8.296875 
L 64.015625 8.296875 
L 64.015625 0 
L 4.5 0 
L 4.5 7.515625 
L 50.59375 64.59375 
L 5.609375 64.59375 
z
" id="DejaVuSans-90"/>
     </defs>
     <g transform="translate(374.52 184.626438)scale(0.1 -0.1)">
      <use xlink:href="#DejaVuSans-90"/>
      <use x="68.490234" xlink:href="#DejaVuSans-45"/>
      <use x="104.542969" xlink:href="#DejaVuSans-65"/>
      <use x="172.951172" xlink:href="#DejaVuSans-120"/>
      <use x="232.130859" xlink:href="#DejaVuSans-105"/>
      <use x="259.914062" xlink:href="#DejaVuSans-115"/>
     </g>
    </g>
    <g id="line2d_26">
     <path d="M 346.52 195.804563 
L 366.52 195.804563 
" style="fill:none;stroke:#d62728;stroke-linecap:square;stroke-width:1.5;"/>
    </g>
    <g id="line2d_27"/>
    <g id="text_22">
     <!-- Mod -->
     <g transform="translate(374.52 199.304563)scale(0.1 -0.1)">
      <use xlink:href="#DejaVuSans-77"/>
      <use x="86.279297" xlink:href="#DejaVuSans-111"/>
      <use x="147.460938" xlink:href="#DejaVuSans-100"/>
     </g>
    </g>
   </g>
  </g>
 </g>
 <defs>
  <clipPath id="pfca0f13cb4">
   <rect height="266.112" width="357.12" x="57.6" y="41.472"/>
  </clipPath>
 </defs>
</svg>
