<?xml version="1.0" encoding="utf-8" standalone="no"?>
<!DOCTYPE svg PUBLIC "-//W3C//DTD SVG 1.1//EN"
  "http://www.w3.org/Graphics/SVG/1.1/DTD/svg11.dtd">
<!-- Created with matplotlib (https://matplotlib.org/) -->
<svg height="345.6pt" version="1.1" viewBox="0 0 460.8 345.6" width="460.8pt" xmlns="http://www.w3.org/2000/svg" xmlns:xlink="http://www.w3.org/1999/xlink">
 <defs>
  <style type="text/css">
*{stroke-linecap:butt;stroke-linejoin:round;}
  </style>
 </defs>
 <g id="figure_1">
  <g id="patch_1">
   <path d="M 0 345.6 
L 460.8 345.6 
L 460.8 0 
L 0 0 
z
" style="fill:#ffffff;"/>
  </g>
  <g id="axes_1">
   <g id="patch_2">
    <path d="M 57.6 307.584 
L 414.72 307.584 
L 414.72 41.472 
L 57.6 41.472 
z
" style="fill:#ffffff;"/>
   </g>
   <g id="matplotlib.axis_1">
    <g id="xtick_1">
     <g id="line2d_1">
      <defs>
       <path d="M 0 0 
L 0 3.5 
" id="mf61c8a6eb7" style="stroke:#000000;stroke-width:0.8;"/>
      </defs>
      <g>
       <use style="stroke:#000000;stroke-width:0.8;" x="73.832727" xlink:href="#mf61c8a6eb7" y="307.584"/>
      </g>
     </g>
     <g id="text_1">
      <!-- 0 -->
      <defs>
       <path d="M 31.78125 66.40625 
Q 24.171875 66.40625 20.328125 58.90625 
Q 16.5 51.421875 16.5 36.375 
Q 16.5 21.390625 20.328125 13.890625 
Q 24.171875 6.390625 31.78125 6.390625 
Q 39.453125 6.390625 43.28125 13.890625 
Q 47.125 21.390625 47.125 36.375 
Q 47.125 51.421875 43.28125 58.90625 
Q 39.453125 66.40625 31.78125 66.40625 
z
M 31.78125 74.21875 
Q 44.046875 74.21875 50.515625 64.515625 
Q 56.984375 54.828125 56.984375 36.375 
Q 56.984375 17.96875 50.515625 8.265625 
Q 44.046875 -1.421875 31.78125 -1.421875 
Q 19.53125 -1.421875 13.0625 8.265625 
Q 6.59375 17.96875 6.59375 36.375 
Q 6.59375 54.828125 13.0625 64.515625 
Q 19.53125 74.21875 31.78125 74.21875 
z
" id="DejaVuSans-48"/>
      </defs>
      <g transform="translate(70.651477 322.182437)scale(0.1 -0.1)">
       <use xlink:href="#DejaVuSans-48"/>
      </g>
     </g>
    </g>
    <g id="xtick_2">
     <g id="line2d_2">
      <g>
       <use style="stroke:#000000;stroke-width:0.8;" x="133.405211" xlink:href="#mf61c8a6eb7" y="307.584"/>
      </g>
     </g>
     <g id="text_2">
      <!-- 50 -->
      <defs>
       <path d="M 10.796875 72.90625 
L 49.515625 72.90625 
L 49.515625 64.59375 
L 19.828125 64.59375 
L 19.828125 46.734375 
Q 21.96875 47.46875 24.109375 47.828125 
Q 26.265625 48.1875 28.421875 48.1875 
Q 40.625 48.1875 47.75 41.5 
Q 54.890625 34.8125 54.890625 23.390625 
Q 54.890625 11.625 47.5625 5.09375 
Q 40.234375 -1.421875 26.90625 -1.421875 
Q 22.3125 -1.421875 17.546875 -0.640625 
Q 12.796875 0.140625 7.71875 1.703125 
L 7.71875 11.625 
Q 12.109375 9.234375 16.796875 8.0625 
Q 21.484375 6.890625 26.703125 6.890625 
Q 35.15625 6.890625 40.078125 11.328125 
Q 45.015625 15.765625 45.015625 23.390625 
Q 45.015625 31 40.078125 35.4375 
Q 35.15625 39.890625 26.703125 39.890625 
Q 22.75 39.890625 18.8125 39.015625 
Q 14.890625 38.140625 10.796875 36.28125 
z
" id="DejaVuSans-53"/>
      </defs>
      <g transform="translate(127.042711 322.182437)scale(0.1 -0.1)">
       <use xlink:href="#DejaVuSans-53"/>
       <use x="63.623047" xlink:href="#DejaVuSans-48"/>
      </g>
     </g>
    </g>
    <g id="xtick_3">
     <g id="line2d_3">
      <g>
       <use style="stroke:#000000;stroke-width:0.8;" x="192.977694" xlink:href="#mf61c8a6eb7" y="307.584"/>
      </g>
     </g>
     <g id="text_3">
      <!-- 100 -->
      <defs>
       <path d="M 12.40625 8.296875 
L 28.515625 8.296875 
L 28.515625 63.921875 
L 10.984375 60.40625 
L 10.984375 69.390625 
L 28.421875 72.90625 
L 38.28125 72.90625 
L 38.28125 8.296875 
L 54.390625 8.296875 
L 54.390625 0 
L 12.40625 0 
z
" id="DejaVuSans-49"/>
      </defs>
      <g transform="translate(183.433944 322.182437)scale(0.1 -0.1)">
       <use xlink:href="#DejaVuSans-49"/>
       <use x="63.623047" xlink:href="#DejaVuSans-48"/>
       <use x="127.246094" xlink:href="#DejaVuSans-48"/>
      </g>
     </g>
    </g>
    <g id="xtick_4">
     <g id="line2d_4">
      <g>
       <use style="stroke:#000000;stroke-width:0.8;" x="252.550177" xlink:href="#mf61c8a6eb7" y="307.584"/>
      </g>
     </g>
     <g id="text_4">
      <!-- 150 -->
      <g transform="translate(243.006427 322.182437)scale(0.1 -0.1)">
       <use xlink:href="#DejaVuSans-49"/>
       <use x="63.623047" xlink:href="#DejaVuSans-53"/>
       <use x="127.246094" xlink:href="#DejaVuSans-48"/>
      </g>
     </g>
    </g>
    <g id="xtick_5">
     <g id="line2d_5">
      <g>
       <use style="stroke:#000000;stroke-width:0.8;" x="312.122661" xlink:href="#mf61c8a6eb7" y="307.584"/>
      </g>
     </g>
     <g id="text_5">
      <!-- 200 -->
      <defs>
       <path d="M 19.1875 8.296875 
L 53.609375 8.296875 
L 53.609375 0 
L 7.328125 0 
L 7.328125 8.296875 
Q 12.9375 14.109375 22.625 23.890625 
Q 32.328125 33.6875 34.8125 36.53125 
Q 39.546875 41.84375 41.421875 45.53125 
Q 43.3125 49.21875 43.3125 52.78125 
Q 43.3125 58.59375 39.234375 62.25 
Q 35.15625 65.921875 28.609375 65.921875 
Q 23.96875 65.921875 18.8125 64.3125 
Q 13.671875 62.703125 7.8125 59.421875 
L 7.8125 69.390625 
Q 13.765625 71.78125 18.9375 73 
Q 24.125 74.21875 28.421875 74.21875 
Q 39.75 74.21875 46.484375 68.546875 
Q 53.21875 62.890625 53.21875 53.421875 
Q 53.21875 48.921875 51.53125 44.890625 
Q 49.859375 40.875 45.40625 35.40625 
Q 44.1875 33.984375 37.640625 27.21875 
Q 31.109375 20.453125 19.1875 8.296875 
z
" id="DejaVuSans-50"/>
      </defs>
      <g transform="translate(302.578911 322.182437)scale(0.1 -0.1)">
       <use xlink:href="#DejaVuSans-50"/>
       <use x="63.623047" xlink:href="#DejaVuSans-48"/>
       <use x="127.246094" xlink:href="#DejaVuSans-48"/>
      </g>
     </g>
    </g>
    <g id="xtick_6">
     <g id="line2d_6">
      <g>
       <use style="stroke:#000000;stroke-width:0.8;" x="371.695144" xlink:href="#mf61c8a6eb7" y="307.584"/>
      </g>
     </g>
     <g id="text_6">
      <!-- 250 -->
      <g transform="translate(362.151394 322.182437)scale(0.1 -0.1)">
       <use xlink:href="#DejaVuSans-50"/>
       <use x="63.623047" xlink:href="#DejaVuSans-53"/>
       <use x="127.246094" xlink:href="#DejaVuSans-48"/>
      </g>
     </g>
    </g>
    <g id="text_7">
     <!-- Time (in seconds) -->
     <defs>
      <path d="M -0.296875 72.90625 
L 61.375 72.90625 
L 61.375 64.59375 
L 35.5 64.59375 
L 35.5 0 
L 25.59375 0 
L 25.59375 64.59375 
L -0.296875 64.59375 
z
" id="DejaVuSans-84"/>
      <path d="M 9.421875 54.6875 
L 18.40625 54.6875 
L 18.40625 0 
L 9.421875 0 
z
M 9.421875 75.984375 
L 18.40625 75.984375 
L 18.40625 64.59375 
L 9.421875 64.59375 
z
" id="DejaVuSans-105"/>
      <path d="M 52 44.1875 
Q 55.375 50.25 60.0625 53.125 
Q 64.75 56 71.09375 56 
Q 79.640625 56 84.28125 50.015625 
Q 88.921875 44.046875 88.921875 33.015625 
L 88.921875 0 
L 79.890625 0 
L 79.890625 32.71875 
Q 79.890625 40.578125 77.09375 44.375 
Q 74.3125 48.1875 68.609375 48.1875 
Q 61.625 48.1875 57.5625 43.546875 
Q 53.515625 38.921875 53.515625 30.90625 
L 53.515625 0 
L 44.484375 0 
L 44.484375 32.71875 
Q 44.484375 40.625 41.703125 44.40625 
Q 38.921875 48.1875 33.109375 48.1875 
Q 26.21875 48.1875 22.15625 43.53125 
Q 18.109375 38.875 18.109375 30.90625 
L 18.109375 0 
L 9.078125 0 
L 9.078125 54.6875 
L 18.109375 54.6875 
L 18.109375 46.1875 
Q 21.1875 51.21875 25.484375 53.609375 
Q 29.78125 56 35.6875 56 
Q 41.65625 56 45.828125 52.96875 
Q 50 49.953125 52 44.1875 
z
" id="DejaVuSans-109"/>
      <path d="M 56.203125 29.59375 
L 56.203125 25.203125 
L 14.890625 25.203125 
Q 15.484375 15.921875 20.484375 11.0625 
Q 25.484375 6.203125 34.421875 6.203125 
Q 39.59375 6.203125 44.453125 7.46875 
Q 49.3125 8.734375 54.109375 11.28125 
L 54.109375 2.78125 
Q 49.265625 0.734375 44.1875 -0.34375 
Q 39.109375 -1.421875 33.890625 -1.421875 
Q 20.796875 -1.421875 13.15625 6.1875 
Q 5.515625 13.8125 5.515625 26.8125 
Q 5.515625 40.234375 12.765625 48.109375 
Q 20.015625 56 32.328125 56 
Q 43.359375 56 49.78125 48.890625 
Q 56.203125 41.796875 56.203125 29.59375 
z
M 47.21875 32.234375 
Q 47.125 39.59375 43.09375 43.984375 
Q 39.0625 48.390625 32.421875 48.390625 
Q 24.90625 48.390625 20.390625 44.140625 
Q 15.875 39.890625 15.1875 32.171875 
z
" id="DejaVuSans-101"/>
      <path id="DejaVuSans-32"/>
      <path d="M 31 75.875 
Q 24.46875 64.65625 21.28125 53.65625 
Q 18.109375 42.671875 18.109375 31.390625 
Q 18.109375 20.125 21.3125 9.0625 
Q 24.515625 -2 31 -13.1875 
L 23.1875 -13.1875 
Q 15.875 -1.703125 12.234375 9.375 
Q 8.59375 20.453125 8.59375 31.390625 
Q 8.59375 42.28125 12.203125 53.3125 
Q 15.828125 64.359375 23.1875 75.875 
z
" id="DejaVuSans-40"/>
      <path d="M 54.890625 33.015625 
L 54.890625 0 
L 45.90625 0 
L 45.90625 32.71875 
Q 45.90625 40.484375 42.875 44.328125 
Q 39.84375 48.1875 33.796875 48.1875 
Q 26.515625 48.1875 22.3125 43.546875 
Q 18.109375 38.921875 18.109375 30.90625 
L 18.109375 0 
L 9.078125 0 
L 9.078125 54.6875 
L 18.109375 54.6875 
L 18.109375 46.1875 
Q 21.34375 51.125 25.703125 53.5625 
Q 30.078125 56 35.796875 56 
Q 45.21875 56 50.046875 50.171875 
Q 54.890625 44.34375 54.890625 33.015625 
z
" id="DejaVuSans-110"/>
      <path d="M 44.28125 53.078125 
L 44.28125 44.578125 
Q 40.484375 46.53125 36.375 47.5 
Q 32.28125 48.484375 27.875 48.484375 
Q 21.1875 48.484375 17.84375 46.4375 
Q 14.5 44.390625 14.5 40.28125 
Q 14.5 37.15625 16.890625 35.375 
Q 19.28125 33.59375 26.515625 31.984375 
L 29.59375 31.296875 
Q 39.15625 29.25 43.1875 25.515625 
Q 47.21875 21.78125 47.21875 15.09375 
Q 47.21875 7.46875 41.1875 3.015625 
Q 35.15625 -1.421875 24.609375 -1.421875 
Q 20.21875 -1.421875 15.453125 -0.5625 
Q 10.6875 0.296875 5.421875 2 
L 5.421875 11.28125 
Q 10.40625 8.6875 15.234375 7.390625 
Q 20.0625 6.109375 24.8125 6.109375 
Q 31.15625 6.109375 34.5625 8.28125 
Q 37.984375 10.453125 37.984375 14.40625 
Q 37.984375 18.0625 35.515625 20.015625 
Q 33.0625 21.96875 24.703125 23.78125 
L 21.578125 24.515625 
Q 13.234375 26.265625 9.515625 29.90625 
Q 5.8125 33.546875 5.8125 39.890625 
Q 5.8125 47.609375 11.28125 51.796875 
Q 16.75 56 26.8125 56 
Q 31.78125 56 36.171875 55.265625 
Q 40.578125 54.546875 44.28125 53.078125 
z
" id="DejaVuSans-115"/>
      <path d="M 48.78125 52.59375 
L 48.78125 44.1875 
Q 44.96875 46.296875 41.140625 47.34375 
Q 37.3125 48.390625 33.40625 48.390625 
Q 24.65625 48.390625 19.8125 42.84375 
Q 14.984375 37.3125 14.984375 27.296875 
Q 14.984375 17.28125 19.8125 11.734375 
Q 24.65625 6.203125 33.40625 6.203125 
Q 37.3125 6.203125 41.140625 7.25 
Q 44.96875 8.296875 48.78125 10.40625 
L 48.78125 2.09375 
Q 45.015625 0.34375 40.984375 -0.53125 
Q 36.96875 -1.421875 32.421875 -1.421875 
Q 20.0625 -1.421875 12.78125 6.34375 
Q 5.515625 14.109375 5.515625 27.296875 
Q 5.515625 40.671875 12.859375 48.328125 
Q 20.21875 56 33.015625 56 
Q 37.15625 56 41.109375 55.140625 
Q 45.0625 54.296875 48.78125 52.59375 
z
" id="DejaVuSans-99"/>
      <path d="M 30.609375 48.390625 
Q 23.390625 48.390625 19.1875 42.75 
Q 14.984375 37.109375 14.984375 27.296875 
Q 14.984375 17.484375 19.15625 11.84375 
Q 23.34375 6.203125 30.609375 6.203125 
Q 37.796875 6.203125 41.984375 11.859375 
Q 46.1875 17.53125 46.1875 27.296875 
Q 46.1875 37.015625 41.984375 42.703125 
Q 37.796875 48.390625 30.609375 48.390625 
z
M 30.609375 56 
Q 42.328125 56 49.015625 48.375 
Q 55.71875 40.765625 55.71875 27.296875 
Q 55.71875 13.875 49.015625 6.21875 
Q 42.328125 -1.421875 30.609375 -1.421875 
Q 18.84375 -1.421875 12.171875 6.21875 
Q 5.515625 13.875 5.515625 27.296875 
Q 5.515625 40.765625 12.171875 48.375 
Q 18.84375 56 30.609375 56 
z
" id="DejaVuSans-111"/>
      <path d="M 45.40625 46.390625 
L 45.40625 75.984375 
L 54.390625 75.984375 
L 54.390625 0 
L 45.40625 0 
L 45.40625 8.203125 
Q 42.578125 3.328125 38.25 0.953125 
Q 33.9375 -1.421875 27.875 -1.421875 
Q 17.96875 -1.421875 11.734375 6.484375 
Q 5.515625 14.40625 5.515625 27.296875 
Q 5.515625 40.1875 11.734375 48.09375 
Q 17.96875 56 27.875 56 
Q 33.9375 56 38.25 53.625 
Q 42.578125 51.265625 45.40625 46.390625 
z
M 14.796875 27.296875 
Q 14.796875 17.390625 18.875 11.75 
Q 22.953125 6.109375 30.078125 6.109375 
Q 37.203125 6.109375 41.296875 11.75 
Q 45.40625 17.390625 45.40625 27.296875 
Q 45.40625 37.203125 41.296875 42.84375 
Q 37.203125 48.484375 30.078125 48.484375 
Q 22.953125 48.484375 18.875 42.84375 
Q 14.796875 37.203125 14.796875 27.296875 
z
" id="DejaVuSans-100"/>
      <path d="M 8.015625 75.875 
L 15.828125 75.875 
Q 23.140625 64.359375 26.78125 53.3125 
Q 30.421875 42.28125 30.421875 31.390625 
Q 30.421875 20.453125 26.78125 9.375 
Q 23.140625 -1.703125 15.828125 -13.1875 
L 8.015625 -13.1875 
Q 14.5 -2 17.703125 9.0625 
Q 20.90625 20.125 20.90625 31.390625 
Q 20.90625 42.671875 17.703125 53.65625 
Q 14.5 64.65625 8.015625 75.875 
z
" id="DejaVuSans-41"/>
     </defs>
     <g transform="translate(191.6975 335.860562)scale(0.1 -0.1)">
      <use xlink:href="#DejaVuSans-84"/>
      <use x="61.037109" xlink:href="#DejaVuSans-105"/>
      <use x="88.820312" xlink:href="#DejaVuSans-109"/>
      <use x="186.232422" xlink:href="#DejaVuSans-101"/>
      <use x="247.755859" xlink:href="#DejaVuSans-32"/>
      <use x="279.542969" xlink:href="#DejaVuSans-40"/>
      <use x="318.556641" xlink:href="#DejaVuSans-105"/>
      <use x="346.339844" xlink:href="#DejaVuSans-110"/>
      <use x="409.71875" xlink:href="#DejaVuSans-32"/>
      <use x="441.505859" xlink:href="#DejaVuSans-115"/>
      <use x="493.605469" xlink:href="#DejaVuSans-101"/>
      <use x="555.128906" xlink:href="#DejaVuSans-99"/>
      <use x="610.109375" xlink:href="#DejaVuSans-111"/>
      <use x="671.291016" xlink:href="#DejaVuSans-110"/>
      <use x="734.669922" xlink:href="#DejaVuSans-100"/>
      <use x="798.146484" xlink:href="#DejaVuSans-115"/>
      <use x="850.246094" xlink:href="#DejaVuSans-41"/>
     </g>
    </g>
   </g>
   <g id="matplotlib.axis_2">
    <g id="ytick_1">
     <g id="line2d_7">
      <defs>
       <path d="M 0 0 
L -3.5 0 
" id="mfcfa650073" style="stroke:#000000;stroke-width:0.8;"/>
      </defs>
      <g>
       <use style="stroke:#000000;stroke-width:0.8;" x="57.6" xlink:href="#mfcfa650073" y="304.458347"/>
      </g>
     </g>
     <g id="text_8">
      <!-- −4 -->
      <defs>
       <path d="M 10.59375 35.5 
L 73.1875 35.5 
L 73.1875 27.203125 
L 10.59375 27.203125 
z
" id="DejaVuSans-8722"/>
       <path d="M 37.796875 64.3125 
L 12.890625 25.390625 
L 37.796875 25.390625 
z
M 35.203125 72.90625 
L 47.609375 72.90625 
L 47.609375 25.390625 
L 58.015625 25.390625 
L 58.015625 17.1875 
L 47.609375 17.1875 
L 47.609375 0 
L 37.796875 0 
L 37.796875 17.1875 
L 4.890625 17.1875 
L 4.890625 26.703125 
z
" id="DejaVuSans-52"/>
      </defs>
      <g transform="translate(35.857813 308.257566)scale(0.1 -0.1)">
       <use xlink:href="#DejaVuSans-8722"/>
       <use x="83.789062" xlink:href="#DejaVuSans-52"/>
      </g>
     </g>
    </g>
    <g id="ytick_2">
     <g id="line2d_8">
      <g>
       <use style="stroke:#000000;stroke-width:0.8;" x="57.6" xlink:href="#mfcfa650073" y="268.114947"/>
      </g>
     </g>
     <g id="text_9">
      <!-- −2 -->
      <g transform="translate(35.857813 271.914166)scale(0.1 -0.1)">
       <use xlink:href="#DejaVuSans-8722"/>
       <use x="83.789062" xlink:href="#DejaVuSans-50"/>
      </g>
     </g>
    </g>
    <g id="ytick_3">
     <g id="line2d_9">
      <g>
       <use style="stroke:#000000;stroke-width:0.8;" x="57.6" xlink:href="#mfcfa650073" y="231.771547"/>
      </g>
     </g>
     <g id="text_10">
      <!-- 0 -->
      <g transform="translate(44.2375 235.570766)scale(0.1 -0.1)">
       <use xlink:href="#DejaVuSans-48"/>
      </g>
     </g>
    </g>
    <g id="ytick_4">
     <g id="line2d_10">
      <g>
       <use style="stroke:#000000;stroke-width:0.8;" x="57.6" xlink:href="#mfcfa650073" y="195.428147"/>
      </g>
     </g>
     <g id="text_11">
      <!-- 2 -->
      <g transform="translate(44.2375 199.227366)scale(0.1 -0.1)">
       <use xlink:href="#DejaVuSans-50"/>
      </g>
     </g>
    </g>
    <g id="ytick_5">
     <g id="line2d_11">
      <g>
       <use style="stroke:#000000;stroke-width:0.8;" x="57.6" xlink:href="#mfcfa650073" y="159.084747"/>
      </g>
     </g>
     <g id="text_12">
      <!-- 4 -->
      <g transform="translate(44.2375 162.883966)scale(0.1 -0.1)">
       <use xlink:href="#DejaVuSans-52"/>
      </g>
     </g>
    </g>
    <g id="ytick_6">
     <g id="line2d_12">
      <g>
       <use style="stroke:#000000;stroke-width:0.8;" x="57.6" xlink:href="#mfcfa650073" y="122.741347"/>
      </g>
     </g>
     <g id="text_13">
      <!-- 6 -->
      <defs>
       <path d="M 33.015625 40.375 
Q 26.375 40.375 22.484375 35.828125 
Q 18.609375 31.296875 18.609375 23.390625 
Q 18.609375 15.53125 22.484375 10.953125 
Q 26.375 6.390625 33.015625 6.390625 
Q 39.65625 6.390625 43.53125 10.953125 
Q 47.40625 15.53125 47.40625 23.390625 
Q 47.40625 31.296875 43.53125 35.828125 
Q 39.65625 40.375 33.015625 40.375 
z
M 52.59375 71.296875 
L 52.59375 62.3125 
Q 48.875 64.0625 45.09375 64.984375 
Q 41.3125 65.921875 37.59375 65.921875 
Q 27.828125 65.921875 22.671875 59.328125 
Q 17.53125 52.734375 16.796875 39.40625 
Q 19.671875 43.65625 24.015625 45.921875 
Q 28.375 48.1875 33.59375 48.1875 
Q 44.578125 48.1875 50.953125 41.515625 
Q 57.328125 34.859375 57.328125 23.390625 
Q 57.328125 12.15625 50.6875 5.359375 
Q 44.046875 -1.421875 33.015625 -1.421875 
Q 20.359375 -1.421875 13.671875 8.265625 
Q 6.984375 17.96875 6.984375 36.375 
Q 6.984375 53.65625 15.1875 63.9375 
Q 23.390625 74.21875 37.203125 74.21875 
Q 40.921875 74.21875 44.703125 73.484375 
Q 48.484375 72.75 52.59375 71.296875 
z
" id="DejaVuSans-54"/>
      </defs>
      <g transform="translate(44.2375 126.540566)scale(0.1 -0.1)">
       <use xlink:href="#DejaVuSans-54"/>
      </g>
     </g>
    </g>
    <g id="ytick_7">
     <g id="line2d_13">
      <g>
       <use style="stroke:#000000;stroke-width:0.8;" x="57.6" xlink:href="#mfcfa650073" y="86.397947"/>
      </g>
     </g>
     <g id="text_14">
      <!-- 8 -->
      <defs>
       <path d="M 31.78125 34.625 
Q 24.75 34.625 20.71875 30.859375 
Q 16.703125 27.09375 16.703125 20.515625 
Q 16.703125 13.921875 20.71875 10.15625 
Q 24.75 6.390625 31.78125 6.390625 
Q 38.8125 6.390625 42.859375 10.171875 
Q 46.921875 13.96875 46.921875 20.515625 
Q 46.921875 27.09375 42.890625 30.859375 
Q 38.875 34.625 31.78125 34.625 
z
M 21.921875 38.8125 
Q 15.578125 40.375 12.03125 44.71875 
Q 8.5 49.078125 8.5 55.328125 
Q 8.5 64.0625 14.71875 69.140625 
Q 20.953125 74.21875 31.78125 74.21875 
Q 42.671875 74.21875 48.875 69.140625 
Q 55.078125 64.0625 55.078125 55.328125 
Q 55.078125 49.078125 51.53125 44.71875 
Q 48 40.375 41.703125 38.8125 
Q 48.828125 37.15625 52.796875 32.3125 
Q 56.78125 27.484375 56.78125 20.515625 
Q 56.78125 9.90625 50.3125 4.234375 
Q 43.84375 -1.421875 31.78125 -1.421875 
Q 19.734375 -1.421875 13.25 4.234375 
Q 6.78125 9.90625 6.78125 20.515625 
Q 6.78125 27.484375 10.78125 32.3125 
Q 14.796875 37.15625 21.921875 38.8125 
z
M 18.3125 54.390625 
Q 18.3125 48.734375 21.84375 45.5625 
Q 25.390625 42.390625 31.78125 42.390625 
Q 38.140625 42.390625 41.71875 45.5625 
Q 45.3125 48.734375 45.3125 54.390625 
Q 45.3125 60.0625 41.71875 63.234375 
Q 38.140625 66.40625 31.78125 66.40625 
Q 25.390625 66.40625 21.84375 63.234375 
Q 18.3125 60.0625 18.3125 54.390625 
z
" id="DejaVuSans-56"/>
      </defs>
      <g transform="translate(44.2375 90.197166)scale(0.1 -0.1)">
       <use xlink:href="#DejaVuSans-56"/>
      </g>
     </g>
    </g>
    <g id="ytick_8">
     <g id="line2d_14">
      <g>
       <use style="stroke:#000000;stroke-width:0.8;" x="57.6" xlink:href="#mfcfa650073" y="50.054547"/>
      </g>
     </g>
     <g id="text_15">
      <!-- 10 -->
      <g transform="translate(37.875 53.853766)scale(0.1 -0.1)">
       <use xlink:href="#DejaVuSans-49"/>
       <use x="63.623047" xlink:href="#DejaVuSans-48"/>
      </g>
     </g>
    </g>
    <g id="text_16">
     <!-- Magnitude -->
     <defs>
      <path d="M 9.8125 72.90625 
L 24.515625 72.90625 
L 43.109375 23.296875 
L 61.8125 72.90625 
L 76.515625 72.90625 
L 76.515625 0 
L 66.890625 0 
L 66.890625 64.015625 
L 48.09375 14.015625 
L 38.1875 14.015625 
L 19.390625 64.015625 
L 19.390625 0 
L 9.8125 0 
z
" id="DejaVuSans-77"/>
      <path d="M 34.28125 27.484375 
Q 23.390625 27.484375 19.1875 25 
Q 14.984375 22.515625 14.984375 16.5 
Q 14.984375 11.71875 18.140625 8.90625 
Q 21.296875 6.109375 26.703125 6.109375 
Q 34.1875 6.109375 38.703125 11.40625 
Q 43.21875 16.703125 43.21875 25.484375 
L 43.21875 27.484375 
z
M 52.203125 31.203125 
L 52.203125 0 
L 43.21875 0 
L 43.21875 8.296875 
Q 40.140625 3.328125 35.546875 0.953125 
Q 30.953125 -1.421875 24.3125 -1.421875 
Q 15.921875 -1.421875 10.953125 3.296875 
Q 6 8.015625 6 15.921875 
Q 6 25.140625 12.171875 29.828125 
Q 18.359375 34.515625 30.609375 34.515625 
L 43.21875 34.515625 
L 43.21875 35.40625 
Q 43.21875 41.609375 39.140625 45 
Q 35.0625 48.390625 27.6875 48.390625 
Q 23 48.390625 18.546875 47.265625 
Q 14.109375 46.140625 10.015625 43.890625 
L 10.015625 52.203125 
Q 14.9375 54.109375 19.578125 55.046875 
Q 24.21875 56 28.609375 56 
Q 40.484375 56 46.34375 49.84375 
Q 52.203125 43.703125 52.203125 31.203125 
z
" id="DejaVuSans-97"/>
      <path d="M 45.40625 27.984375 
Q 45.40625 37.75 41.375 43.109375 
Q 37.359375 48.484375 30.078125 48.484375 
Q 22.859375 48.484375 18.828125 43.109375 
Q 14.796875 37.75 14.796875 27.984375 
Q 14.796875 18.265625 18.828125 12.890625 
Q 22.859375 7.515625 30.078125 7.515625 
Q 37.359375 7.515625 41.375 12.890625 
Q 45.40625 18.265625 45.40625 27.984375 
z
M 54.390625 6.78125 
Q 54.390625 -7.171875 48.1875 -13.984375 
Q 42 -20.796875 29.203125 -20.796875 
Q 24.46875 -20.796875 20.265625 -20.09375 
Q 16.0625 -19.390625 12.109375 -17.921875 
L 12.109375 -9.1875 
Q 16.0625 -11.328125 19.921875 -12.34375 
Q 23.78125 -13.375 27.78125 -13.375 
Q 36.625 -13.375 41.015625 -8.765625 
Q 45.40625 -4.15625 45.40625 5.171875 
L 45.40625 9.625 
Q 42.625 4.78125 38.28125 2.390625 
Q 33.9375 0 27.875 0 
Q 17.828125 0 11.671875 7.65625 
Q 5.515625 15.328125 5.515625 27.984375 
Q 5.515625 40.671875 11.671875 48.328125 
Q 17.828125 56 27.875 56 
Q 33.9375 56 38.28125 53.609375 
Q 42.625 51.21875 45.40625 46.390625 
L 45.40625 54.6875 
L 54.390625 54.6875 
z
" id="DejaVuSans-103"/>
      <path d="M 18.3125 70.21875 
L 18.3125 54.6875 
L 36.8125 54.6875 
L 36.8125 47.703125 
L 18.3125 47.703125 
L 18.3125 18.015625 
Q 18.3125 11.328125 20.140625 9.421875 
Q 21.96875 7.515625 27.59375 7.515625 
L 36.8125 7.515625 
L 36.8125 0 
L 27.59375 0 
Q 17.1875 0 13.234375 3.875 
Q 9.28125 7.765625 9.28125 18.015625 
L 9.28125 47.703125 
L 2.6875 47.703125 
L 2.6875 54.6875 
L 9.28125 54.6875 
L 9.28125 70.21875 
z
" id="DejaVuSans-116"/>
      <path d="M 8.5 21.578125 
L 8.5 54.6875 
L 17.484375 54.6875 
L 17.484375 21.921875 
Q 17.484375 14.15625 20.5 10.265625 
Q 23.53125 6.390625 29.59375 6.390625 
Q 36.859375 6.390625 41.078125 11.03125 
Q 45.3125 15.671875 45.3125 23.6875 
L 45.3125 54.6875 
L 54.296875 54.6875 
L 54.296875 0 
L 45.3125 0 
L 45.3125 8.40625 
Q 42.046875 3.421875 37.71875 1 
Q 33.40625 -1.421875 27.6875 -1.421875 
Q 18.265625 -1.421875 13.375 4.4375 
Q 8.5 10.296875 8.5 21.578125 
z
M 31.109375 56 
z
" id="DejaVuSans-117"/>
     </defs>
     <g transform="translate(29.778125 201.017844)rotate(-90)scale(0.1 -0.1)">
      <use xlink:href="#DejaVuSans-77"/>
      <use x="86.279297" xlink:href="#DejaVuSans-97"/>
      <use x="147.558594" xlink:href="#DejaVuSans-103"/>
      <use x="211.035156" xlink:href="#DejaVuSans-110"/>
      <use x="274.414062" xlink:href="#DejaVuSans-105"/>
      <use x="302.197266" xlink:href="#DejaVuSans-116"/>
      <use x="341.40625" xlink:href="#DejaVuSans-117"/>
      <use x="404.785156" xlink:href="#DejaVuSans-100"/>
      <use x="468.261719" xlink:href="#DejaVuSans-101"/>
     </g>
    </g>
   </g>
   <g id="line2d_15">
    <path clip-path="url(#p7fbc7fc4eb)" d="M 73.832727 282.539461 
L 73.924469 278.5013 
L 74.519002 260.055498 
L 74.709634 256.582741 
L 75.013454 252.400568 
L 75.181448 250.504729 
L 75.606796 246.749674 
L 75.908232 245.3041 
L 76.378855 244.100666 
L 76.862584 243.554052 
L 77.881273 243.216409 
L 79.504028 243.106052 
L 81.122016 243.134749 
L 81.546172 243.519223 
L 81.960797 243.922591 
L 82.138323 243.929246 
L 82.321806 243.572422 
L 82.560096 242.50865 
L 83.036676 239.023733 
L 84.54386 227.353392 
L 84.959676 226.182686 
L 85.318302 225.716492 
L 85.798456 225.476972 
L 87.422402 225.002482 
L 87.898982 224.376728 
L 89.09758 222.655701 
L 89.575352 222.404143 
L 90.117461 222.351693 
L 91.25887 222.404131 
L 92.698141 221.564676 
L 92.880433 221.773721 
L 93.355821 222.880716 
L 93.897931 223.884082 
L 94.201751 224.030571 
L 94.38166 223.698286 
L 94.681905 222.394996 
L 95.340777 218.198684 
L 95.641022 215.229119 
L 96.235555 211.220755 
L 96.662094 209.915931 
L 96.902767 209.773501 
L 97.082676 209.954181 
L 97.436536 210.734161 
L 97.740356 211.962784 
L 98.34323 215.885238 
L 99.782501 226.180039 
L 100.259081 227.956789 
L 100.560517 228.376934 
L 100.799999 228.348999 
L 101.580399 227.981393 
L 101.940216 227.87555 
L 103.136432 225.90439 
L 103.323489 225.923351 
L 103.559397 226.338385 
L 105.002242 229.917178 
L 107.099193 235.297644 
L 107.338675 235.386567 
L 107.576965 235.187954 
L 107.881976 234.619659 
L 108.659992 232.226474 
L 109.196145 230.900211 
L 109.621492 230.438651 
L 109.921738 230.508075 
L 110.998808 231.003645 
L 111.477771 230.964133 
L 112.140217 230.61865 
L 113.577105 229.851753 
L 114.778086 229.651374 
L 115.016376 229.932237 
L 115.391683 230.736278 
L 115.913538 232.374641 
L 116.453265 233.701717 
L 116.814274 234.071436 
L 117.053755 234.046611 
L 117.413573 233.711189 
L 118.132017 233.009848 
L 118.552599 232.694632 
L 118.794463 232.212854 
L 119.213854 230.645458 
L 120.418409 225.45623 
L 122.035206 221.305026 
L 122.340218 221.270494 
L 122.754842 221.552068 
L 123.300526 222.144458 
L 123.657961 222.782081 
L 124.01897 224.047561 
L 125.289055 229.581022 
L 125.578578 230.02656 
L 125.764444 230.010407 
L 126.05754 229.618714 
L 126.779559 228.558425 
L 127.135802 228.409031 
L 127.372901 228.536078 
L 127.857821 229.090201 
L 129.419811 230.841501 
L 130.019111 231.069826 
L 130.679174 231.114843 
L 131.040183 230.930903 
L 131.998109 230.182036 
L 132.236399 230.34909 
L 133.436188 231.594016 
L 134.159398 232.004556 
L 134.631212 232.713139 
L 136.319496 235.357221 
L 136.550638 235.395235 
L 136.796076 235.161575 
L 137.214275 234.342583 
L 138.176966 232.512582 
L 138.596357 232.181626 
L 138.898985 232.248998 
L 139.617429 232.437095 
L 139.918866 232.191551 
L 140.696882 231.452314 
L 141.236609 231.307829 
L 141.551152 231.120329 
L 142.555544 229.616715 
L 142.736644 229.645874 
L 142.974934 230.021066 
L 143.453897 231.444841 
L 144.849085 236.057595 
L 145.135033 236.498353 
L 145.497233 236.762528 
L 146.154913 237.080047 
L 146.637451 237.977132 
L 146.99012 238.445505 
L 147.17122 238.472222 
L 147.349938 238.180265 
L 147.651374 237.185769 
L 148.976266 231.994612 
L 149.216939 231.818861 
L 149.454038 231.980313 
L 149.937766 232.73574 
L 150.65621 233.909551 
L 151.977528 235.488252 
L 154.491487 240.887176 
L 155.704382 243.699075 
L 155.992713 244.115577 
L 156.297725 244.17907 
L 156.469293 243.948057 
L 156.715923 243.144224 
L 157.250884 240.021723 
L 158.335103 233.555157 
L 158.816449 231.849716 
L 160.133001 228.062228 
L 161.270835 223.179325 
L 161.694991 222.328646 
L 162.114382 221.84691 
L 162.352672 221.766325 
L 162.651726 221.912844 
L 163.134263 222.316734 
L 163.672798 222.773674 
L 163.973043 222.812395 
L 164.334052 222.508902 
L 164.990541 221.599517 
L 165.650604 220.231496 
L 166.201054 218.27848 
L 166.969539 214.955963 
L 167.393695 213.857646 
L 167.630794 213.655759 
L 167.811894 213.814836 
L 168.294431 214.750177 
L 168.828201 215.799757 
L 169.251165 216.210553 
L 169.6086 216.291686 
L 170.088754 216.359969 
L 170.333002 216.69298 
L 170.692819 217.743536 
L 171.294501 220.273244 
L 172.009371 222.92321 
L 172.428762 223.735151 
L 172.670626 223.856161 
L 172.910107 223.592042 
L 173.278265 222.756603 
L 174.232616 219.920553 
L 174.292189 219.920553 
L 174.528096 219.269994 
L 175.850605 216.685178 
L 176.036471 216.766319 
L 176.27357 217.324758 
L 176.695343 219.198951 
L 177.89275 225.458585 
L 178.733913 228.620917 
L 179.094923 229.148205 
L 179.332021 229.17768 
L 179.575077 229.034744 
L 180.051657 228.692987 
L 180.650956 228.592715 
L 181.674411 228.902185 
L 182.329708 229.559041 
L 182.875392 229.899353 
L 183.055301 229.859287 
L 183.293591 229.516072 
L 183.773745 228.26741 
L 184.430234 226.595727 
L 184.91158 225.960465 
L 185.452498 225.645161 
L 186.051797 225.534436 
L 186.59629 225.767525 
L 187.49226 226.480434 
L 187.790122 227.139542 
L 188.211895 228.744566 
L 188.931531 232.761848 
L 189.828692 239.070545 
L 190.501862 245.489457 
L 191.094012 251.503974 
L 191.633739 255.595046 
L 192.11151 257.796567 
L 192.470136 258.659617 
L 192.772765 258.969577 
L 192.951482 258.943288 
L 193.187389 258.609934 
L 193.562696 257.752581 
L 194.986478 252.894206 
L 195.467824 252.179729 
L 195.825259 251.971987 
L 196.132653 252.094438 
L 196.612807 252.657492 
L 197.151342 253.36748 
L 197.51116 253.536541 
L 197.691069 253.283907 
L 198.055652 252.138447 
L 198.888476 248.423932 
L 199.78802 244.364879 
L 200.406383 240.188927 
L 200.753095 237.767321 
L 201.76821 231.957987 
L 202.486654 228.867448 
L 203.088336 227.306157 
L 203.748399 225.90453 
L 204.419185 223.965326 
L 204.952954 222.362784 
L 205.008953 222.362784 
L 205.249626 221.494998 
L 206.152744 219.271668 
L 206.507796 218.894116 
L 206.690088 218.942952 
L 206.928378 219.302285 
L 207.289387 220.292912 
L 207.954216 222.924361 
L 208.486794 225.207597 
L 209.568631 228.912861 
L 210.229885 230.462313 
L 211.130621 231.867668 
L 211.432058 232.087556 
L 211.609584 231.991401 
L 211.846682 231.538527 
L 212.14931 230.47815 
L 213.168 226.20104 
L 213.3491 226.100785 
L 213.529009 226.324201 
L 213.831638 227.073333 
L 215.385288 231.936644 
L 215.810635 232.463042 
L 216.109689 232.536918 
L 216.592226 232.331966 
L 217.25229 232.098629 
L 218.385358 231.96486 
L 219.410005 231.41062 
L 221.09114 231.02631 
L 221.690439 230.684675 
L 222.709129 229.787576 
L 223.730201 228.502762 
L 223.966108 228.474455 
L 224.204398 228.735034 
L 224.803697 229.88727 
L 225.04437 230.632974 
L 226.24416 233.169527 
L 226.609935 233.361333 
L 227.028134 233.20217 
L 227.390335 233.131101 
L 227.687006 233.39112 
L 228.345877 234.067763 
L 228.528169 234.082573 
L 228.770033 233.826732 
L 229.258528 232.753318 
L 229.847104 231.197679 
L 230.74784 229.418336 
L 231.229186 228.88533 
L 231.649767 228.731848 
L 232.190685 228.913354 
L 233.44409 229.398791 
L 233.689529 229.100674 
L 234.04339 228.254859 
L 234.585499 226.425073 
L 236.027153 221.48488 
L 236.386971 221.098277 
L 236.56688 221.21805 
L 236.86236 221.849068 
L 237.34728 223.567129 
L 238.127679 226.40644 
L 238.667406 227.503265 
L 238.902122 227.69216 
L 239.090371 227.61733 
L 239.325086 227.215044 
L 239.634863 226.108537 
L 240.286586 221.537046 
L 241.184939 214.716197 
L 241.724666 209.660806 
L 243.283082 193.618635 
L 243.584518 192.690246 
L 243.704855 192.764436 
L 243.893104 193.279173 
L 244.304154 195.873492 
L 245.924526 209.577409 
L 246.582206 212.787825 
L 247.484133 216.211268 
L 248.506397 219.31518 
L 249.22365 222.951405 
L 249.825332 225.587493 
L 250.124386 226.180593 
L 250.306677 226.172863 
L 250.606923 225.754702 
L 251.201456 224.755297 
L 251.440938 224.618932 
L 251.620847 224.76374 
L 251.983047 225.466124 
L 252.942164 227.442706 
L 253.241218 227.567054 
L 253.481891 227.347892 
L 253.904855 226.542168 
L 254.742445 224.690754 
L 254.984309 224.507482 
L 255.161835 224.595684 
L 255.460889 225.012415 
L 256.302052 226.307538 
L 256.605872 226.399811 
L 257.20398 226.384507 
L 257.38508 226.618347 
L 257.815193 227.853087 
L 258.525297 230.790132 
L 258.942305 231.892144 
L 259.244933 232.218856 
L 259.487989 232.135399 
L 259.968143 231.62619 
L 260.638929 230.588544 
L 261.219165 229.210749 
L 261.944758 227.712206 
L 262.304576 227.412293 
L 262.607204 227.49239 
L 263.447176 227.940717 
L 263.806994 227.757596 
L 264.282382 227.53783 
L 264.526629 227.594377 
L 264.761345 227.90758 
L 265.29988 229.194603 
L 266.02309 230.914289 
L 266.562817 231.712379 
L 267.712566 233.077169 
L 268.359523 235.856236 
L 269.504506 241.617734 
L 269.923896 242.395453 
L 270.218184 242.575416 
L 270.401668 242.436342 
L 270.644723 241.902395 
L 271.031944 240.379508 
L 271.253554 238.849648 
L 272.024422 232.791727 
L 272.501002 230.394361 
L 272.921584 229.447687 
L 273.283784 229.117192 
L 273.884275 228.738605 
L 274.362046 227.799305 
L 275.380736 225.485822 
L 275.862082 225.032344 
L 276.283855 224.897025 
L 276.941535 224.922705 
L 277.29897 225.117505 
L 277.659979 225.565765 
L 278.140133 226.529883 
L 278.977722 228.278517 
L 279.341115 228.567966 
L 279.640168 228.4969 
L 280.662432 227.996752 
L 280.900722 228.082795 
L 281.266497 228.498175 
L 282.22204 229.813421 
L 282.463904 229.878479 
L 282.699811 229.646628 
L 283.062012 228.959983 
L 284.141465 226.801997 
L 284.560855 226.497784 
L 284.803911 226.627698 
L 285.172069 227.232072 
L 286.060891 229.532735 
L 286.542236 230.236187 
L 287.021199 230.53314 
L 288.641571 230.982534 
L 289.057387 230.680121 
L 289.775831 229.92692 
L 290.201178 229.32039 
L 290.55623 228.391895 
L 290.917239 226.780222 
L 291.340204 223.692024 
L 292.356511 213.687022 
L 293.799356 199.779599 
L 294.219938 197.721812 
L 294.458228 197.286127 
L 294.58333 197.382395 
L 294.820429 198.075093 
L 295.120674 199.656287 
L 295.718782 204.750816 
L 297.160436 216.771643 
L 297.696588 218.780828 
L 298.062363 219.509954 
L 298.541326 220.023879 
L 299.500443 220.792789 
L 301.362679 224.69137 
L 302.320604 226.832862 
L 303.69792 228.641601 
L 304.303177 229.132915 
L 304.541466 229.109372 
L 304.841712 228.805512 
L 305.980738 227.425638 
L 306.76352 227.027788 
L 307.483156 226.944262 
L 308.441081 226.931619 
L 308.799708 226.720652 
L 309.27867 226.19233 
L 310.415313 224.651893 
L 310.659561 224.614575 
L 310.959806 224.88888 
L 311.381579 225.56692 
L 312.157213 227.025463 
L 312.465798 227.195448 
L 312.700514 226.998939 
L 313.119904 226.281806 
L 313.659631 225.460496 
L 314.018257 225.318067 
L 314.379266 225.564672 
L 314.983331 225.965594 
L 315.462294 226.043856 
L 315.880493 225.83911 
L 316.301075 225.342003 
L 317.442483 223.605704 
L 317.861874 223.423939 
L 318.942519 223.234013 
L 320.741608 222.253093 
L 321.581579 222.217228 
L 321.937823 222.494186 
L 322.416786 223.194457 
L 323.738104 225.72057 
L 324.998657 228.583704 
L 325.429962 228.866043 
L 325.719484 228.83623 
L 326.800129 228.209058 
L 327.520956 227.656545 
L 327.821201 227.232796 
L 328.353779 225.932179 
L 329.442764 222.526729 
L 330.40069 219.488649 
L 331.177515 217.54637 
L 333.33523 212.895899 
L 333.816576 212.496405 
L 334.058441 212.509521 
L 334.415875 212.8549 
L 334.713738 213.36112 
L 335.075938 214.36886 
L 335.813446 217.420416 
L 336.09582 218.629938 
L 336.575974 219.830421 
L 337.057319 220.387684 
L 337.41952 220.87573 
L 338.975553 223.686592 
L 339.751187 224.311912 
L 340.174152 224.364824 
L 341.736142 223.9004 
L 342.094768 224.201602 
L 342.514159 224.925332 
L 343.535231 226.647661 
L 343.835476 226.779256 
L 344.133339 226.60519 
L 345.632183 225.235199 
L 346.355392 224.35307 
L 346.773591 223.913113 
L 347.372891 222.95818 
L 348.274818 221.098174 
L 348.934881 219.857939 
L 349.712898 218.899335 
L 349.893998 218.927003 
L 350.137054 219.289977 
L 350.616016 220.91256 
L 351.34995 224.765383 
L 351.693087 226.571014 
L 352.231622 228.58559 
L 352.892877 229.935505 
L 353.493368 230.544428 
L 353.912758 230.731556 
L 354.098624 230.632641 
L 354.397678 230.040882 
L 355.128036 227.398734 
L 355.474748 226.267492 
L 355.833375 225.587907 
L 356.37191 225.687506 
L 356.971209 226.413261 
L 357.394174 226.778126 
L 357.633655 226.803682 
L 357.876711 226.542314 
L 358.173382 225.879943 
L 358.652345 224.09241 
L 360.093999 217.789396 
L 360.33348 217.508483 
L 360.51458 217.804824 
L 361.111497 219.750179 
L 361.894279 222.53533 
L 362.436389 223.349964 
L 363.393123 224.149615 
L 363.814896 224.088168 
L 364.784736 223.867292 
L 366.030992 224.509111 
L 366.869773 224.085444 
L 367.529836 223.95981 
L 367.832464 224.055333 
L 368.13271 224.431814 
L 368.911918 225.418846 
L 369.270544 225.561781 
L 369.569598 225.348067 
L 370.348806 224.665128 
L 370.591862 224.707371 
L 371.01006 224.83885 
L 371.251925 224.777099 
L 371.492598 224.466549 
L 371.851224 223.415243 
L 372.632815 220.995851 
L 373.834988 218.419003 
L 374.730958 215.774598 
L 375.095541 215.399863 
L 375.346937 215.437778 
L 376.058233 215.984179 
L 376.711147 216.569525 
L 377.249682 216.731237 
L 377.91332 216.515705 
L 378.750909 215.701286 
L 378.99039 215.780008 
L 379.289444 216.095736 
L 379.955464 216.828846 
L 380.371281 217.069735 
L 381.031344 216.848467 
L 381.212444 217.127351 
L 381.755745 218.677552 
L 382.830433 221.833244 
L 383.733551 223.028821 
L 384.813005 224.093032 
L 385.114442 224.403115 
L 385.835269 224.76624 
L 386.252276 224.811699 
L 386.675241 224.445512 
L 387.216159 223.533649 
L 387.509256 222.585482 
L 388.056131 220.779243 
L 388.593475 219.749497 
L 388.89372 219.508882 
L 389.076012 219.637016 
L 389.854028 221.198245 
L 390.883441 223.434905 
L 391.772263 227.211363 
L 392.670615 230.867931 
L 393.15077 231.966734 
L 393.210342 231.966734 
L 393.451015 232.387762 
L 393.872788 232.727943 
L 394.181374 232.729319 
L 394.472087 232.161286 
L 394.892669 230.605793 
L 395.73145 226.945598 
L 396.096033 226.104837 
L 396.274751 226.027748 
L 396.454659 226.206231 
L 396.814477 227.74164 
L 397.292249 229.313552 
L 397.532921 229.65244 
L 397.652067 229.582981 
L 397.831975 229.145804 
L 398.19775 227.517025 
L 398.487273 226.12418 
L 398.487273 226.12418 
" style="fill:none;stroke:#1f77b4;stroke-linecap:square;stroke-width:1.5;"/>
   </g>
   <g id="line2d_16">
    <path clip-path="url(#p7fbc7fc4eb)" d="M 73.832727 275.250761 
L 74.40224 274.801133 
L 75.358974 273.81079 
L 75.908232 273.617965 
L 76.743439 273.731961 
L 78.787966 273.853201 
L 79.682745 273.810957 
L 80.044946 273.786602 
L 80.461953 273.214386 
L 80.882535 272.429737 
L 81.303117 271.292932 
L 81.802334 268.924994 
L 82.138323 266.993028 
L 82.560096 265.618828 
L 82.750728 265.397671 
L 82.865107 265.530277 
L 83.159395 266.736115 
L 84.175702 271.193411 
L 84.658239 272.099143 
L 85.077629 272.45899 
L 85.62093 272.5717 
L 86.339374 272.481806 
L 87.178155 272.292199 
L 87.422402 272.662217 
L 87.842984 273.947267 
L 89.457398 280.318083 
L 90.175842 282.08036 
L 90.897861 283.24858 
L 91.318442 283.57709 
L 91.561498 283.5596 
L 91.803363 283.285389 
L 92.103608 282.517813 
L 92.578996 280.260301 
L 93.897931 273.190506 
L 94.02065 273.175911 
L 94.201751 273.626006 
L 94.560377 275.48156 
L 96.054455 284.627137 
L 97.023104 289.152161 
L 97.257819 289.623729 
L 97.380538 289.597842 
L 97.616445 289.205004 
L 97.981029 288.125074 
L 98.34323 286.31395 
L 98.761428 283.117215 
L 99.366685 276.401557 
L 99.900454 270.932068 
L 100.259081 268.982502 
L 100.560517 268.42017 
L 100.979908 268.015442 
L 101.220581 267.358566 
L 101.883027 265.056394 
L 101.940216 265.056394 
L 102.062936 264.911158 
L 102.195187 265.041742 
L 102.539515 266.382308 
L 103.618969 271.087919 
L 105.120196 275.281577 
L 105.297721 275.32933 
L 105.490736 275.006263 
L 105.83864 273.472073 
L 106.319985 270.103976 
L 107.039621 265.202987 
L 107.338675 264.437431 
L 107.459011 264.576374 
L 107.63892 265.222321 
L 107.881976 266.835977 
L 108.357364 272.202079 
L 109.264057 282.517302 
L 109.678682 285.229828 
L 110.161219 286.992476 
L 110.759327 288.356676 
L 111.542109 289.688971 
L 111.961499 290.083313 
L 112.199789 290.0969 
L 112.441654 289.841366 
L 112.738325 289.133682 
L 113.101717 287.693293 
L 113.577105 284.855715 
L 114.418269 278.471693 
L 115.853966 268.540946 
L 116.274547 266.905962 
L 116.573601 266.458853 
L 116.75351 266.591195 
L 116.994183 267.191518 
L 117.354001 268.864384 
L 118.014064 272.038931 
L 118.493027 274.466545 
L 118.973181 278.700647 
L 120.36122 292.419147 
L 120.721037 293.696572 
L 121.138045 294.425461 
L 121.557435 294.70358 
L 122.229413 295.191183 
L 122.576125 295.437128 
L 123.059853 295.467548 
L 123.36129 295.291055 
L 123.657961 294.641669 
L 124.077351 293.007821 
L 124.674267 289.594705 
L 125.289055 286.76016 
L 125.527345 286.275773 
L 125.697723 286.189047 
L 125.877632 286.337913 
L 126.474548 287.081708 
L 126.59965 287.041009 
L 126.779559 286.592131 
L 127.078613 285.00974 
L 127.79944 279.096223 
L 128.337975 275.389464 
L 128.759748 273.923789 
L 129.834436 271.860992 
L 130.139447 271.697112 
L 130.38012 271.878066 
L 130.739938 272.54657 
L 131.887304 275.782932 
L 132.712978 278.164399 
L 133.495761 279.796007 
L 134.755123 282.34587 
L 134.992222 282.489689 
L 135.192385 282.353564 
L 136.676931 279.029252 
L 137.457331 278.347849 
L 137.87553 277.476371 
L 138.356875 275.764631 
L 139.015747 272.296501 
L 139.918866 267.72656 
L 140.337065 266.489016 
L 140.636119 266.078552 
L 140.81841 266.063627 
L 141.051935 266.367075 
L 141.551152 267.546046 
L 142.024157 268.872496 
L 142.436399 269.783378 
L 143.153652 271.30866 
L 143.695761 272.360937 
L 143.99839 272.602954 
L 144.175916 272.491968 
L 144.474969 271.836773 
L 144.849085 270.441457 
L 145.613995 266.385992 
L 146.272867 263.878197 
L 146.692257 263.178941 
L 146.869783 263.191507 
L 147.110456 263.490722 
L 147.470274 264.256759 
L 147.830092 266.151264 
L 148.795166 270.83347 
L 149.216939 271.688599 
L 149.454038 271.772758 
L 149.753091 271.553142 
L 150.355965 271.123754 
L 150.538257 271.203128 
L 150.777738 271.631698 
L 151.0756 272.71295 
L 151.554563 275.470579 
L 153.051024 284.054254 
L 153.409651 284.806606 
L 153.589559 284.865769 
L 153.832615 284.609183 
L 154.491487 283.733051 
L 154.614206 283.827702 
L 154.854879 284.471621 
L 155.930758 288.261053 
L 156.115433 287.890481 
L 156.352531 286.870162 
L 157.611893 281.320496 
L 158.213576 279.820102 
L 159.054739 277.174819 
L 159.290646 276.989273 
L 159.481278 277.146304 
L 159.954284 278.302267 
L 160.671536 280.18038 
L 161.577038 281.744122 
L 161.93209 282.057329 
L 162.717255 282.37979 
L 163.134263 282.959663 
L 163.672798 283.73312 
L 163.913471 283.775262 
L 164.154143 283.621775 
L 164.452006 283.123506 
L 165.891277 280.013671 
L 166.310668 279.813978 
L 166.495342 279.946068 
L 166.909967 280.863463 
L 169.669364 288.741889 
L 169.7897 288.561813 
L 169.968418 287.784035 
L 170.272238 285.429259 
L 170.875111 278.398029 
L 171.47441 272.449081 
L 171.894992 270.229635 
L 172.310808 269.050317 
L 172.489525 268.892914 
L 172.670626 269.046 
L 172.910107 269.654595 
L 173.211544 271.155011 
L 173.567787 273.814045 
L 174.709196 282.223453 
L 175.128587 283.450372 
L 175.308496 283.565531 
L 175.552743 283.415289 
L 175.975707 282.766371 
L 176.38914 282.316857 
L 176.820445 282.218887 
L 177.11235 282.110111 
L 177.355406 281.549423 
L 177.770031 279.675655 
L 178.49324 276.392389 
L 178.85425 275.695653 
L 179.211684 275.574332 
L 179.812175 275.647353 
L 180.124335 275.662632 
L 180.412666 275.258177 
L 180.768909 274.325574 
L 181.13111 272.829876 
L 181.851937 268.657489 
L 183.649835 258.729097 
L 184.492189 255.547467 
L 185.095063 254.056475 
L 185.394117 253.710479 
L 185.514453 253.757083 
L 185.694362 254.237809 
L 185.992224 255.769296 
L 187.187248 263.116418 
L 187.371923 263.201717 
L 187.549449 262.944193 
L 187.908076 261.875194 
L 188.749239 259.517978 
L 188.991103 259.342326 
L 189.168629 259.628954 
L 189.470066 260.790287 
L 189.952603 263.801885 
L 190.67343 268.445372 
L 191.447872 272.687706 
L 192.409373 277.948017 
L 192.772765 278.744296 
L 193.432828 279.553113 
L 193.802177 281.138859 
L 194.568279 286.063377 
L 194.986478 287.8956 
L 195.225959 288.332201 
L 195.346296 288.292941 
L 195.528588 287.970878 
L 195.825259 286.832096 
L 196.189842 284.773697 
L 197.630305 276.715929 
L 198.104502 275.411717 
L 198.828903 274.099575 
L 199.13034 272.689818 
L 200.208602 266.328249 
L 200.327747 266.209354 
L 200.448083 266.358316 
L 200.630375 267.006361 
L 200.929429 268.971196 
L 201.585918 275.924802 
L 202.670137 287.125162 
L 203.269436 290.610743 
L 203.867544 292.924914 
L 204.229745 293.616366 
L 204.419185 293.676763 
L 204.653901 293.354973 
L 205.372345 291.387122 
L 205.846542 290.393813 
L 206.389843 289.81697 
L 206.987951 289.432397 
L 207.527677 289.346529 
L 208.24493 289.402494 
L 208.486794 289.05254 
L 208.846612 288.178681 
L 209.270768 286.637742 
L 210.113123 283.299876 
L 210.589703 282.021264 
L 211.130621 281.232679 
L 211.672731 280.895767 
L 211.975359 280.603143 
L 212.445981 279.673742 
L 214.60608 274.595262 
L 215.087425 273.983076 
L 215.32929 273.944029 
L 215.687916 274.246524 
L 216.291981 275.161369 
L 216.651799 275.486595 
L 216.89128 275.458567 
L 217.25229 275.052108 
L 218.09941 273.570408 
L 218.446122 273.148464 
L 218.74875 273.068036 
L 219.16814 273.169901 
L 219.468386 273.466836 
L 222.051449 277.470069 
L 222.29093 277.378007 
L 222.768701 276.767936 
L 223.670629 275.250994 
L 224.143634 274.12365 
L 224.630937 272.324701 
L 225.8903 266.322665 
L 226.130972 266.040666 
L 226.310881 266.328189 
L 226.668316 267.679448 
L 227.390335 270.44043 
L 227.628625 270.745537 
L 227.808534 270.655347 
L 228.650888 269.900989 
L 228.887987 270.113732 
L 229.258528 270.8342 
L 229.78634 271.925398 
L 230.330833 273.154408 
L 230.866985 275.154562 
L 231.708148 278.338044 
L 232.070349 278.930094 
L 232.250258 278.928404 
L 232.487356 278.68703 
L 232.910321 277.86897 
L 233.867055 275.811672 
L 234.885745 274.387407 
L 236.205871 272.461321 
L 237.223369 270.36931 
L 237.707097 269.876421 
L 238.003768 269.844751 
L 238.483923 270.095888 
L 239.090371 270.361107 
L 239.266705 270.262397 
L 239.507378 269.832338 
L 239.985149 268.282623 
L 240.763166 265.665718 
L 241.245703 264.807149 
L 241.543565 264.647961 
L 241.78543 264.763864 
L 242.085675 265.257838 
L 242.444301 266.537396 
L 242.982837 269.558531 
L 243.653623 273.083555 
L 244.006292 274.218658 
L 244.24339 274.582818 
L 244.482871 274.562575 
L 244.908219 274.132893 
L 245.320461 273.780311 
L 245.503944 273.929648 
L 245.802998 274.732831 
L 246.408254 277.240964 
L 247.243461 280.100997 
L 247.605661 280.546258 
L 247.84276 280.509111 
L 248.143005 280.159815 
L 248.506397 279.342541 
L 248.987743 277.50942 
L 250.254254 271.689304 
L 250.606923 270.866261 
L 251.025122 270.305211 
L 252.22372 268.937193 
L 252.70864 268.454036 
L 252.883783 268.483953 
L 253.062501 268.803467 
L 253.36632 269.896918 
L 253.802391 272.496471 
L 254.265865 276.23323 
L 254.8044 279.487293 
L 255.161835 280.509778 
L 255.341744 280.621238 
L 255.524036 280.502341 
L 255.882662 279.893025 
L 257.439887 276.647758 
L 257.923615 274.595484 
L 258.886307 270.418001 
L 259.186552 269.923796 
L 259.367652 270.066851 
L 259.667898 270.770855 
L 260.267197 273.21001 
L 260.920111 275.65971 
L 261.461029 276.755073 
L 261.88042 277.174114 
L 262.245003 277.209289 
L 263.087358 277.149315 
L 263.567512 277.481303 
L 263.985711 277.732119 
L 264.282382 277.69407 
L 264.586202 277.342842 
L 265.180735 276.182528 
L 266.860679 273.021695 
L 267.219306 272.687883 
L 267.475467 272.73564 
L 269.019586 274.100805 
L 269.504506 274.988138 
L 270.401668 276.339744 
L 270.705487 276.498201 
L 270.879439 276.29967 
L 271.122495 275.615734 
L 271.490653 273.868925 
L 272.14595 270.202039 
L 272.442621 269.353803 
L 272.562957 269.356383 
L 272.744058 269.695385 
L 273.043112 270.81142 
L 274.001037 274.986466 
L 274.483574 275.939281 
L 275.082873 276.455552 
L 275.680981 276.673769 
L 276.101563 276.608358 
L 276.457806 276.262865 
L 276.823581 275.607575 
L 277.418115 274.523499 
L 277.782698 274.284515 
L 278.617905 274.23211 
L 279.820077 273.150123 
L 280.184661 273.358449 
L 280.662432 273.604054 
L 280.961486 273.504099 
L 281.266497 273.160919 
L 282.339993 271.498478 
L 282.521094 271.687867 
L 282.82253 272.382253 
L 284.02232 275.909643 
L 284.202229 275.941189 
L 284.442902 275.691625 
L 284.803911 274.767697 
L 285.340064 272.188561 
L 286.300372 267.704881 
L 286.718571 266.878877 
L 287.140344 266.676123 
L 287.438207 266.525312 
L 287.800407 265.954972 
L 289.177723 263.558357 
L 289.775831 262.987219 
L 290.140414 262.219633 
L 290.619377 260.662498 
L 291.159104 258.974175 
L 291.642832 258.168573 
L 291.82155 258.114488 
L 292.062223 258.355416 
L 292.478038 259.229644 
L 292.89862 260.576455 
L 293.441921 263.132654 
L 295.003912 272.582765 
L 295.718782 277.636267 
L 296.079791 278.866731 
L 296.198936 278.875032 
L 296.381228 278.498696 
L 296.677899 277.151679 
L 297.340345 272.604565 
L 297.995642 268.631885 
L 298.42099 267.423218 
L 298.600898 267.383985 
L 298.84038 267.730828 
L 299.330066 268.958955 
L 299.98298 270.777283 
L 300.40237 272.307431 
L 301.300723 276.353462 
L 301.608117 276.904889 
L 301.722496 276.879367 
L 301.959595 276.474838 
L 302.392091 275.267514 
L 302.80195 274.078688 
L 303.223723 273.437322 
L 303.463204 273.419121 
L 303.877829 273.661095 
L 304.780948 274.334684 
L 304.960857 274.256745 
L 305.200338 273.852438 
L 305.80202 272.242289 
L 306.341747 271.19569 
L 306.583611 271.076516 
L 306.941046 271.264813 
L 307.722637 271.636895 
L 308.376743 271.409076 
L 308.741326 271.116603 
L 309.235778 270.324668 
L 309.695678 269.346756 
L 310.24017 268.539325 
L 311.199287 267.348528 
L 312.282315 264.85876 
L 312.581369 264.63469 
L 312.822042 264.804547 
L 313.477339 265.486436 
L 313.659631 265.463254 
L 313.900303 265.131581 
L 314.318502 264.029947 
L 315.098902 261.881353 
L 315.399147 261.586468 
L 315.580248 261.692231 
L 315.817346 262.144157 
L 316.1164 263.17142 
L 316.60132 265.517622 
L 317.141047 268.100951 
L 317.561629 269.22929 
L 317.98221 269.717987 
L 318.760227 270.38412 
L 319.067621 270.920305 
L 320.199498 273.395225 
L 320.741608 273.971889 
L 321.937823 275.101381 
L 322.476358 276.040136 
L 323.139996 277.691264 
L 324.221832 280.532596 
L 324.520886 280.793742 
L 324.700795 280.583077 
L 324.998657 279.652312 
L 325.429962 277.501535 
L 326.080493 273.65658 
L 326.559456 271.654758 
L 327.038419 270.533306 
L 327.341047 270.233269 
L 327.641292 270.248932 
L 328.474116 270.380177 
L 328.832742 270.254732 
L 329.204474 269.863904 
L 329.741818 268.742476 
L 331.357424 264.535745 
L 331.652904 264.362571 
L 331.893576 264.542545 
L 332.27484 265.232269 
L 332.73474 266.617728 
L 333.697431 269.147965 
L 336.220922 275.637495 
L 336.754691 277.719883 
L 337.597046 281.085231 
L 337.952098 281.791852 
L 338.195154 281.902225 
L 338.439401 281.681866 
L 338.975553 280.637669 
L 339.69638 279.223029 
L 339.99186 279.040433 
L 340.236107 279.203064 
L 340.717453 279.900225 
L 341.316752 281.197459 
L 342.455778 284.432007 
L 342.633304 284.072971 
L 342.934741 282.5906 
L 343.473276 278.428108 
L 344.073766 274.515182 
L 344.496731 273.199543 
L 344.917313 272.446014 
L 345.516612 271.838701 
L 346.11472 271.491752 
L 346.596065 271.499564 
L 346.957075 271.519837 
L 347.195365 271.295149 
L 347.43842 270.763854 
L 347.79943 269.312157 
L 348.523831 265.886317 
L 348.815736 265.300218 
L 348.934881 265.377159 
L 349.115981 265.845996 
L 349.415035 267.343128 
L 350.855498 276.465741 
L 351.871804 280.463502 
L 352.59144 282.612188 
L 352.953641 283.198839 
L 353.132358 283.186382 
L 353.377797 282.724538 
L 353.735232 281.225333 
L 354.330956 277.394675 
L 355.294839 271.971854 
L 355.713038 270.946916 
L 355.953711 270.890518 
L 356.197958 271.110539 
L 357.214265 272.488781 
L 357.454937 272.164036 
L 357.756374 271.212608 
L 358.230571 268.427413 
L 358.833445 264.939303 
L 359.193263 263.938563 
L 359.375554 263.942596 
L 359.673417 264.31994 
L 360.210761 265.605993 
L 360.933971 267.892867 
L 361.655989 270.254881 
L 362.076571 270.981678 
L 362.917734 271.909303 
L 363.331167 273.144587 
L 364.473768 277.199173 
L 364.714441 277.25195 
L 365.074258 277.02836 
L 365.432885 276.532453 
L 366.212093 275.524954 
L 366.272856 275.524954 
L 366.869773 274.344478 
L 367.594174 272.965742 
L 368.198239 270.936798 
L 369.153782 267.015921 
L 369.449261 266.684198 
L 369.630362 266.930196 
L 369.928224 267.924375 
L 370.832535 271.092129 
L 371.01006 271.176873 
L 371.251925 270.922159 
L 371.672506 269.95081 
L 372.573242 267.492343 
L 372.935443 267.133188 
L 373.233305 267.087692 
L 373.715843 267.345972 
L 374.373523 267.62798 
L 374.792913 267.875239 
L 375.346937 268.612948 
L 375.871175 269.569435 
L 376.474049 270.691194 
L 376.95182 272.209453 
L 377.496312 274.771481 
L 378.333902 278.973406 
L 379.049963 281.107087 
L 379.654028 281.773088 
L 380.071035 281.955849 
L 380.309325 281.871873 
L 380.671526 281.487937 
L 380.91339 280.800582 
L 381.269634 278.704874 
L 381.755745 274.535872 
L 382.413425 268.914293 
L 382.712479 267.7593 
L 382.830433 267.728502 
L 382.95196 267.986706 
L 383.254589 269.382805 
L 383.911078 272.414644 
L 384.213706 272.98497 
L 384.451996 273.041028 
L 384.692668 272.850814 
L 384.992914 272.341697 
L 385.77093 270.698785 
L 386.00922 270.580427 
L 386.195087 270.722388 
L 386.49414 271.46281 
L 386.975486 273.720062 
L 387.509256 275.931967 
L 388.293229 277.966033 
L 388.475521 277.973338 
L 388.65543 277.546992 
L 389.076012 275.459668 
L 390.091127 269.684831 
L 390.994246 266.962752 
L 393.990742 252.064092 
L 394.109887 252.231873 
L 394.289796 253.019143 
L 394.590041 255.500031 
L 394.946284 259.76311 
L 395.791022 269.453435 
L 396.393896 273.023776 
L 396.454659 273.023776 
L 396.632186 273.806909 
L 396.992003 274.427923 
L 397.174295 274.392265 
L 397.414968 274.097143 
L 397.773594 273.338996 
L 398.310938 272.397373 
L 398.487273 272.206305 
L 398.487273 272.206305 
" style="fill:none;stroke:#ff7f0e;stroke-linecap:square;stroke-width:1.5;"/>
   </g>
   <g id="line2d_17">
    <path clip-path="url(#p7fbc7fc4eb)" d="M 73.832727 66.57871 
L 73.98285 64.751146 
L 74.40224 61.661194 
L 74.765632 60.379571 
L 75.729515 59.148011 
L 76.200138 59.021772 
L 77.521455 58.979069 
L 80.22128 58.90789 
L 81.185163 58.478965 
L 81.802334 57.89867 
L 82.197895 57.449084 
L 82.922297 57.022649 
L 83.340496 57.273473 
L 84.54386 58.207935 
L 85.197966 58.387762 
L 86.339374 58.398047 
L 87.355681 58.424614 
L 87.779837 58.726101 
L 88.380328 59.429036 
L 89.155962 60.309764 
L 90.236606 61.109991 
L 91.142108 61.485419 
L 91.681835 61.502409 
L 92.051184 61.295379 
L 92.578996 60.597749 
L 93.897931 58.627828 
L 94.140987 58.677037 
L 94.441232 59.026606 
L 94.85824 59.874607 
L 97.082676 64.53205 
L 97.322157 64.579587 
L 97.616445 64.315061 
L 98.044176 63.591882 
L 98.655389 61.979889 
L 99.539445 58.868294 
L 100.019599 57.803632 
L 100.442564 57.439253 
L 101.340917 57.100042 
L 101.883027 56.747475 
L 102.301226 56.819035 
L 102.899333 57.424952 
L 103.503398 57.963743 
L 105.179768 58.979596 
L 105.490736 58.893262 
L 105.966125 58.346258 
L 106.918093 56.871969 
L 107.338675 56.624852 
L 107.63892 56.767464 
L 107.939165 57.180834 
L 108.357364 58.220909 
L 109.621492 61.685762 
L 110.101647 62.287463 
L 110.880855 62.870702 
L 111.842354 63.355323 
L 112.327275 63.354742 
L 112.738325 63.059542 
L 113.162481 62.479229 
L 113.822544 61.14012 
L 115.078332 58.544929 
L 116.274547 57.073112 
L 116.633173 56.99243 
L 116.994183 57.13873 
L 117.474337 57.628139 
L 118.794463 59.384861 
L 119.332998 61.063399 
L 120.181311 63.963748 
L 120.660274 64.760304 
L 121.196426 65.1931 
L 122.514169 65.645357 
L 123.177807 65.614265 
L 123.478052 65.461205 
L 123.83787 65.014672 
L 124.381171 63.937126 
L 124.917323 62.780261 
L 124.979279 62.780261 
L 125.216377 62.339398 
L 125.63815 62.088401 
L 125.997968 62.196223 
L 126.536503 62.395712 
L 126.779559 62.240217 
L 127.135802 61.61173 
L 127.857821 59.851165 
L 128.337975 59.001366 
L 128.759748 58.632371 
L 129.959538 58.112642 
L 130.38012 58.141063 
L 130.919847 58.413002 
L 133.738817 60.307911 
L 134.879034 60.93229 
L 135.231703 60.881519 
L 135.898915 60.448905 
L 136.19916 60.190903 
L 136.74127 59.970608 
L 137.695621 59.653439 
L 138.23773 59.213938 
L 139.136083 58.077435 
L 139.976055 57.188157 
L 140.518165 56.925158 
L 140.936364 56.921378 
L 141.597618 57.232641 
L 142.858172 57.864217 
L 144.059153 58.319963 
L 144.415397 58.199648 
L 144.896743 57.804596 
L 146.033386 56.696249 
L 146.637451 56.475227 
L 147.110456 56.542644 
L 147.651374 56.82227 
L 148.429391 57.59484 
L 149.034647 58.035085 
L 149.51361 58.11008 
L 150.65621 58.036394 
L 151.01722 58.290052 
L 151.554563 59.034929 
L 152.402875 60.551557 
L 152.811543 61.229861 
L 153.352461 61.739477 
L 153.651515 61.79412 
L 154.671396 61.643712 
L 155.034788 62.086048 
L 155.872377 63.201899 
L 156.049903 63.146821 
L 156.352531 62.75165 
L 157.79776 60.548268 
L 159.290646 59.403705 
L 159.65523 59.540847 
L 160.372482 60.144129 
L 161.517466 60.940686 
L 162.114382 61.112681 
L 163.134263 61.340118 
L 163.850324 61.561449 
L 164.334052 61.450511 
L 165.966339 60.665421 
L 166.445301 60.803108 
L 167.09345 61.492724 
L 167.872658 62.306616 
L 169.011684 63.098266 
L 169.6086 63.624264 
L 169.7897 63.569549 
L 170.029182 63.182492 
L 170.453338 61.892083 
L 171.47441 58.60535 
L 171.955756 57.952858 
L 172.367998 57.680737 
L 172.670626 57.689841 
L 172.972062 57.890966 
L 173.391453 58.507332 
L 173.991944 59.90101 
L 174.709196 61.347459 
L 175.188159 61.831008 
L 175.552743 61.855431 
L 176.096043 61.619689 
L 177.530549 60.646322 
L 178.614768 59.199364 
L 179.034158 59.063949 
L 180.650956 58.844017 
L 181.13111 58.389288 
L 183.468734 55.775507 
L 184.309898 55.308049 
L 185.272589 55.039935 
L 185.694362 55.099047 
L 186.113752 55.413173 
L 187.132442 56.414133 
L 187.432687 56.434213 
L 187.908076 56.1803 
L 188.810003 55.727679 
L 189.168629 55.776561 
L 189.586828 56.134889 
L 190.071748 56.888887 
L 191.333493 59.525437 
L 192.347417 61.677039 
L 192.772765 62.035531 
L 193.251727 62.078816 
L 193.562696 62.191117 
L 194.148889 62.865687 
L 194.986478 63.960913 
L 195.285532 64.04523 
L 195.58816 63.826969 
L 196.132653 62.969229 
L 196.971433 61.549965 
L 197.991314 60.288449 
L 199.067193 59.143704 
L 200.406383 57.138312 
L 200.630375 57.217395 
L 200.929429 57.562094 
L 201.408392 58.620323 
L 202.066072 60.6537 
L 202.850046 62.829379 
L 203.686444 64.281571 
L 204.229745 64.80199 
L 204.52999 64.823887 
L 205.008953 64.528833 
L 205.31039 64.218152 
L 205.906114 63.888717 
L 208.613088 63.052274 
L 209.270768 62.26493 
L 210.048785 61.251222 
L 210.712422 60.733765 
L 211.309338 60.529578 
L 212.269647 60.253123 
L 215.32929 58.630063 
L 216.050117 58.840746 
L 216.769752 59.018792 
L 217.313053 58.880833 
L 218.628414 58.421016 
L 219.410005 58.494975 
L 221.031568 59.166001 
L 221.988302 59.5272 
L 222.470839 59.457348 
L 223.850538 58.894843 
L 224.451028 58.443331 
L 226.008253 56.906805 
L 226.310881 56.956722 
L 226.848225 57.403764 
L 227.390335 57.819369 
L 227.744195 57.881625 
L 228.951134 57.771305 
L 230.270069 58.403998 
L 230.866985 58.947832 
L 231.828485 59.857071 
L 232.250258 59.943968 
L 232.728029 59.760125 
L 234.828555 58.870984 
L 236.506116 58.442658 
L 237.881049 57.786024 
L 238.667406 57.81648 
L 239.387041 57.800143 
L 240.884694 57.397041 
L 241.364848 57.622097 
L 241.78543 58.13632 
L 242.265584 59.183228 
L 243.704855 62.924236 
L 243.944336 62.935411 
L 244.183818 62.738539 
L 244.543636 62.078507 
L 245.320461 60.579868 
L 245.683853 60.354739 
L 246.106818 60.402331 
L 246.582206 60.723298 
L 247.301842 61.035978 
L 247.786761 61.006086 
L 248.32768 60.669382 
L 248.987743 59.835901 
L 249.945668 58.441641 
L 250.66173 57.994726 
L 253.00412 57.481394 
L 253.36632 57.746773 
L 253.845283 58.4653 
L 254.924737 60.35076 
L 255.284554 60.536874 
L 255.641989 60.433423 
L 257.560223 59.26322 
L 258.285816 58.373642 
L 258.942305 57.776993 
L 259.306888 57.714918 
L 259.725087 57.932343 
L 260.50787 58.705567 
L 261.040448 59.147502 
L 261.761275 59.469541 
L 262.362957 59.508556 
L 263.506748 59.558928 
L 264.282382 59.638792 
L 264.819726 59.424566 
L 267.219306 58.329721 
L 267.881752 58.421452 
L 268.962396 58.813488 
L 270.401668 59.561127 
L 270.823441 59.506993 
L 271.253554 59.066402 
L 272.024422 57.884696 
L 272.442621 57.579975 
L 272.744058 57.661675 
L 273.162257 58.044389 
L 274.001037 58.917412 
L 274.662292 59.246011 
L 275.680981 59.44461 
L 276.344619 59.387914 
L 277.06068 59.051265 
L 277.782698 58.817541 
L 278.919341 58.650288 
L 279.760505 58.469607 
L 281.398748 58.42058 
L 282.040939 58.111715 
L 282.463904 58.086675 
L 282.944058 58.366483 
L 284.02232 59.187789 
L 284.382138 59.166365 
L 284.803911 58.90929 
L 285.522355 58.019149 
L 286.121655 57.365095 
L 286.662573 57.079272 
L 290.377513 56.090441 
L 291.159104 55.77985 
L 291.642832 55.86742 
L 292.062223 56.201488 
L 292.656756 57.052305 
L 293.200057 58.167466 
L 294.398656 60.850082 
L 294.820429 61.301339 
L 295.478109 61.695983 
L 295.842692 61.663801 
L 296.140555 61.437609 
L 296.564711 60.657334 
L 297.340345 58.892717 
L 297.936069 57.921767 
L 298.42099 57.572961 
L 298.779616 57.59672 
L 299.562398 57.978335 
L 300.40237 58.481946 
L 301.481824 59.475193 
L 301.783261 59.460819 
L 302.320604 59.07696 
L 303.223723 58.545256 
L 303.762258 58.565336 
L 305.080002 58.697553 
L 305.695981 58.347911 
L 306.168987 58.098486 
L 306.638418 58.023192 
L 308.441081 58.09229 
L 309.235778 57.875211 
L 309.936351 57.609268 
L 311.504298 57.100333 
L 312.282315 56.727831 
L 312.762469 56.711277 
L 313.779967 56.873968 
L 314.318502 56.623835 
L 315.219238 56.195074 
L 315.700584 56.225166 
L 316.1164 56.464905 
L 316.656127 56.997009 
L 317.442483 57.689123 
L 318.0394 57.864953 
L 318.942519 58.077534 
L 321.099042 58.967984 
L 322.416786 59.335343 
L 323.261524 59.823217 
L 324.342169 60.470466 
L 324.641222 60.45323 
L 324.998657 60.150562 
L 325.540767 59.370469 
L 326.321166 58.326251 
L 326.860893 57.945717 
L 327.40062 57.811137 
L 329.741818 57.745719 
L 331.357424 57.21874 
L 331.832813 57.303202 
L 332.433303 57.674904 
L 334.596976 59.000293 
L 335.738384 59.360856 
L 336.278111 59.557565 
L 336.754691 59.990506 
L 337.717382 60.923641 
L 338.137964 61.024475 
L 338.55378 60.861421 
L 340.055007 60.1142 
L 340.593542 60.300896 
L 341.316752 60.73987 
L 342.455778 61.668826 
L 342.694068 61.472935 
L 343.118224 60.697021 
L 343.957004 58.986683 
L 344.375203 58.606476 
L 345.032883 58.336935 
L 346.11472 58.200066 
L 347.499184 58.079515 
L 348.875308 57.152777 
L 349.174363 57.33393 
L 349.655708 57.974192 
L 350.431342 59.082829 
L 351.273697 59.894287 
L 351.871804 60.406547 
L 352.771349 61.091275 
L 353.132358 61.153276 
L 353.436178 60.957167 
L 353.912758 60.277728 
L 355.235267 58.276551 
L 355.713038 58.031615 
L 356.197958 58.075772 
L 357.33341 58.327232 
L 357.756374 58.061362 
L 359.072926 56.808523 
L 359.375554 56.857686 
L 360.032043 57.265659 
L 360.933971 57.730818 
L 361.894279 58.129424 
L 363.153641 58.462029 
L 363.577798 58.857773 
L 364.234286 59.521312 
L 364.594104 59.655038 
L 365.135022 59.563907 
L 367.713319 58.486616 
L 368.369808 57.894654 
L 369.153782 57.19866 
L 369.569598 57.164652 
L 369.99018 57.460496 
L 370.889724 58.113224 
L 371.251925 58.062597 
L 373.054588 57.48421 
L 373.715843 57.63847 
L 376.95182 58.874582 
L 377.496312 59.4944 
L 378.750909 61.099597 
L 379.22868 61.334285 
L 380.132991 61.420818 
L 380.793054 61.218267 
L 381.090916 60.829929 
L 381.512689 59.894396 
L 382.531379 57.68051 
L 382.830433 57.516501 
L 383.073488 57.649446 
L 384.213706 58.596609 
L 384.635479 58.565517 
L 385.232395 58.250438 
L 385.835269 58.000123 
L 386.252276 58.038792 
L 386.675241 58.368263 
L 388.175276 59.993958 
L 388.535094 60.053053 
L 388.830573 59.771846 
L 389.314302 59.017647 
L 389.914792 58.107118 
L 390.334183 57.791675 
L 390.883441 57.389463 
L 391.89379 56.278682 
L 393.692879 54.814043 
L 394.109887 54.749315 
L 394.420855 54.942971 
L 394.892669 55.661716 
L 396.032886 58.061652 
L 396.572613 58.628837 
L 397.049193 58.779144 
L 397.532921 58.621995 
L 398.310938 58.328413 
L 398.487273 58.307933 
L 398.487273 58.307933 
" style="fill:none;stroke:#2ca02c;stroke-linecap:square;stroke-width:1.5;"/>
   </g>
   <g id="line2d_18">
    <path clip-path="url(#p7fbc7fc4eb)" d="M 73.832727 53.568021 
L 398.487273 53.568046 
L 398.487273 53.568046 
" style="fill:none;stroke:#d62728;stroke-linecap:square;stroke-width:1.5;"/>
   </g>
   <g id="patch_3">
    <path d="M 57.6 307.584 
L 57.6 41.472 
" style="fill:none;stroke:#000000;stroke-linecap:square;stroke-linejoin:miter;stroke-width:0.8;"/>
   </g>
   <g id="patch_4">
    <path d="M 414.72 307.584 
L 414.72 41.472 
" style="fill:none;stroke:#000000;stroke-linecap:square;stroke-linejoin:miter;stroke-width:0.8;"/>
   </g>
   <g id="patch_5">
    <path d="M 57.6 307.584 
L 414.72 307.584 
" style="fill:none;stroke:#000000;stroke-linecap:square;stroke-linejoin:miter;stroke-width:0.8;"/>
   </g>
   <g id="patch_6">
    <path d="M 57.6 41.472 
L 414.72 41.472 
" style="fill:none;stroke:#000000;stroke-linecap:square;stroke-linejoin:miter;stroke-width:0.8;"/>
   </g>
   <g id="text_17">
    <!-- Vivo 1716/car_on_backseat/grav Dec 09 121458.txt -->
    <defs>
     <path d="M 28.609375 0 
L 0.78125 72.90625 
L 11.078125 72.90625 
L 34.1875 11.53125 
L 57.328125 72.90625 
L 67.578125 72.90625 
L 39.796875 0 
z
" id="DejaVuSans-86"/>
     <path d="M 2.984375 54.6875 
L 12.5 54.6875 
L 29.59375 8.796875 
L 46.6875 54.6875 
L 56.203125 54.6875 
L 35.6875 0 
L 23.484375 0 
z
" id="DejaVuSans-118"/>
     <path d="M 8.203125 72.90625 
L 55.078125 72.90625 
L 55.078125 68.703125 
L 28.609375 0 
L 18.3125 0 
L 43.21875 64.59375 
L 8.203125 64.59375 
z
" id="DejaVuSans-55"/>
     <path d="M 25.390625 72.90625 
L 33.6875 72.90625 
L 8.296875 -9.28125 
L 0 -9.28125 
z
" id="DejaVuSans-47"/>
     <path d="M 41.109375 46.296875 
Q 39.59375 47.171875 37.8125 47.578125 
Q 36.03125 48 33.890625 48 
Q 26.265625 48 22.1875 43.046875 
Q 18.109375 38.09375 18.109375 28.8125 
L 18.109375 0 
L 9.078125 0 
L 9.078125 54.6875 
L 18.109375 54.6875 
L 18.109375 46.1875 
Q 20.953125 51.171875 25.484375 53.578125 
Q 30.03125 56 36.53125 56 
Q 37.453125 56 38.578125 55.875 
Q 39.703125 55.765625 41.0625 55.515625 
z
" id="DejaVuSans-114"/>
     <path d="M 50.984375 -16.609375 
L 50.984375 -23.578125 
L -0.984375 -23.578125 
L -0.984375 -16.609375 
z
" id="DejaVuSans-95"/>
     <path d="M 48.6875 27.296875 
Q 48.6875 37.203125 44.609375 42.84375 
Q 40.53125 48.484375 33.40625 48.484375 
Q 26.265625 48.484375 22.1875 42.84375 
Q 18.109375 37.203125 18.109375 27.296875 
Q 18.109375 17.390625 22.1875 11.75 
Q 26.265625 6.109375 33.40625 6.109375 
Q 40.53125 6.109375 44.609375 11.75 
Q 48.6875 17.390625 48.6875 27.296875 
z
M 18.109375 46.390625 
Q 20.953125 51.265625 25.265625 53.625 
Q 29.59375 56 35.59375 56 
Q 45.5625 56 51.78125 48.09375 
Q 58.015625 40.1875 58.015625 27.296875 
Q 58.015625 14.40625 51.78125 6.484375 
Q 45.5625 -1.421875 35.59375 -1.421875 
Q 29.59375 -1.421875 25.265625 0.953125 
Q 20.953125 3.328125 18.109375 8.203125 
L 18.109375 0 
L 9.078125 0 
L 9.078125 75.984375 
L 18.109375 75.984375 
z
" id="DejaVuSans-98"/>
     <path d="M 9.078125 75.984375 
L 18.109375 75.984375 
L 18.109375 31.109375 
L 44.921875 54.6875 
L 56.390625 54.6875 
L 27.390625 29.109375 
L 57.625 0 
L 45.90625 0 
L 18.109375 26.703125 
L 18.109375 0 
L 9.078125 0 
z
" id="DejaVuSans-107"/>
     <path d="M 19.671875 64.796875 
L 19.671875 8.109375 
L 31.59375 8.109375 
Q 46.6875 8.109375 53.6875 14.9375 
Q 60.6875 21.78125 60.6875 36.53125 
Q 60.6875 51.171875 53.6875 57.984375 
Q 46.6875 64.796875 31.59375 64.796875 
z
M 9.8125 72.90625 
L 30.078125 72.90625 
Q 51.265625 72.90625 61.171875 64.09375 
Q 71.09375 55.28125 71.09375 36.53125 
Q 71.09375 17.671875 61.125 8.828125 
Q 51.171875 0 30.078125 0 
L 9.8125 0 
z
" id="DejaVuSans-68"/>
     <path d="M 10.984375 1.515625 
L 10.984375 10.5 
Q 14.703125 8.734375 18.5 7.8125 
Q 22.3125 6.890625 25.984375 6.890625 
Q 35.75 6.890625 40.890625 13.453125 
Q 46.046875 20.015625 46.78125 33.40625 
Q 43.953125 29.203125 39.59375 26.953125 
Q 35.25 24.703125 29.984375 24.703125 
Q 19.046875 24.703125 12.671875 31.3125 
Q 6.296875 37.9375 6.296875 49.421875 
Q 6.296875 60.640625 12.9375 67.421875 
Q 19.578125 74.21875 30.609375 74.21875 
Q 43.265625 74.21875 49.921875 64.515625 
Q 56.59375 54.828125 56.59375 36.375 
Q 56.59375 19.140625 48.40625 8.859375 
Q 40.234375 -1.421875 26.421875 -1.421875 
Q 22.703125 -1.421875 18.890625 -0.6875 
Q 15.09375 0.046875 10.984375 1.515625 
z
M 30.609375 32.421875 
Q 37.25 32.421875 41.125 36.953125 
Q 45.015625 41.5 45.015625 49.421875 
Q 45.015625 57.28125 41.125 61.84375 
Q 37.25 66.40625 30.609375 66.40625 
Q 23.96875 66.40625 20.09375 61.84375 
Q 16.21875 57.28125 16.21875 49.421875 
Q 16.21875 41.5 20.09375 36.953125 
Q 23.96875 32.421875 30.609375 32.421875 
z
" id="DejaVuSans-57"/>
     <path d="M 10.6875 12.40625 
L 21 12.40625 
L 21 0 
L 10.6875 0 
z
" id="DejaVuSans-46"/>
     <path d="M 54.890625 54.6875 
L 35.109375 28.078125 
L 55.90625 0 
L 45.3125 0 
L 29.390625 21.484375 
L 13.484375 0 
L 2.875 0 
L 24.125 28.609375 
L 4.6875 54.6875 
L 15.28125 54.6875 
L 29.78125 35.203125 
L 44.28125 54.6875 
z
" id="DejaVuSans-120"/>
    </defs>
    <g transform="translate(80.38875 35.472)scale(0.12 -0.12)">
     <use xlink:href="#DejaVuSans-86"/>
     <use x="68.376953" xlink:href="#DejaVuSans-105"/>
     <use x="96.160156" xlink:href="#DejaVuSans-118"/>
     <use x="155.339844" xlink:href="#DejaVuSans-111"/>
     <use x="216.521484" xlink:href="#DejaVuSans-32"/>
     <use x="248.308594" xlink:href="#DejaVuSans-49"/>
     <use x="311.931641" xlink:href="#DejaVuSans-55"/>
     <use x="375.554688" xlink:href="#DejaVuSans-49"/>
     <use x="439.177734" xlink:href="#DejaVuSans-54"/>
     <use x="502.800781" xlink:href="#DejaVuSans-47"/>
     <use x="536.492188" xlink:href="#DejaVuSans-99"/>
     <use x="591.472656" xlink:href="#DejaVuSans-97"/>
     <use x="652.751953" xlink:href="#DejaVuSans-114"/>
     <use x="693.865234" xlink:href="#DejaVuSans-95"/>
     <use x="743.865234" xlink:href="#DejaVuSans-111"/>
     <use x="805.046875" xlink:href="#DejaVuSans-110"/>
     <use x="868.425781" xlink:href="#DejaVuSans-95"/>
     <use x="918.425781" xlink:href="#DejaVuSans-98"/>
     <use x="981.902344" xlink:href="#DejaVuSans-97"/>
     <use x="1043.181641" xlink:href="#DejaVuSans-99"/>
     <use x="1098.162109" xlink:href="#DejaVuSans-107"/>
     <use x="1156.072266" xlink:href="#DejaVuSans-115"/>
     <use x="1208.171875" xlink:href="#DejaVuSans-101"/>
     <use x="1269.695312" xlink:href="#DejaVuSans-97"/>
     <use x="1330.974609" xlink:href="#DejaVuSans-116"/>
     <use x="1370.183594" xlink:href="#DejaVuSans-47"/>
     <use x="1403.875" xlink:href="#DejaVuSans-103"/>
     <use x="1467.351562" xlink:href="#DejaVuSans-114"/>
     <use x="1508.464844" xlink:href="#DejaVuSans-97"/>
     <use x="1569.744141" xlink:href="#DejaVuSans-118"/>
     <use x="1628.923828" xlink:href="#DejaVuSans-32"/>
     <use x="1660.710938" xlink:href="#DejaVuSans-68"/>
     <use x="1737.712891" xlink:href="#DejaVuSans-101"/>
     <use x="1799.236328" xlink:href="#DejaVuSans-99"/>
     <use x="1854.216797" xlink:href="#DejaVuSans-32"/>
     <use x="1886.003906" xlink:href="#DejaVuSans-48"/>
     <use x="1949.626953" xlink:href="#DejaVuSans-57"/>
     <use x="2013.25" xlink:href="#DejaVuSans-32"/>
     <use x="2045.037109" xlink:href="#DejaVuSans-49"/>
     <use x="2108.660156" xlink:href="#DejaVuSans-50"/>
     <use x="2172.283203" xlink:href="#DejaVuSans-49"/>
     <use x="2235.90625" xlink:href="#DejaVuSans-52"/>
     <use x="2299.529297" xlink:href="#DejaVuSans-53"/>
     <use x="2363.152344" xlink:href="#DejaVuSans-56"/>
     <use x="2426.775391" xlink:href="#DejaVuSans-46"/>
     <use x="2458.5625" xlink:href="#DejaVuSans-116"/>
     <use x="2497.771484" xlink:href="#DejaVuSans-120"/>
     <use x="2556.951172" xlink:href="#DejaVuSans-116"/>
    </g>
   </g>
   <g id="legend_1">
    <g id="patch_7">
     <path d="M 344.52 205.38425 
L 407.72 205.38425 
Q 409.72 205.38425 409.72 203.38425 
L 409.72 145.67175 
Q 409.72 143.67175 407.72 143.67175 
L 344.52 143.67175 
Q 342.52 143.67175 342.52 145.67175 
L 342.52 203.38425 
Q 342.52 205.38425 344.52 205.38425 
z
" style="fill:#ffffff;opacity:0.8;stroke:#cccccc;stroke-linejoin:miter;"/>
    </g>
    <g id="line2d_19">
     <path d="M 346.52 151.770188 
L 366.52 151.770188 
" style="fill:none;stroke:#1f77b4;stroke-linecap:square;stroke-width:1.5;"/>
    </g>
    <g id="line2d_20"/>
    <g id="text_18">
     <!-- X-Axis -->
     <defs>
      <path d="M 6.296875 72.90625 
L 16.890625 72.90625 
L 35.015625 45.796875 
L 53.21875 72.90625 
L 63.8125 72.90625 
L 40.375 37.890625 
L 65.375 0 
L 54.78125 0 
L 34.28125 31 
L 13.625 0 
L 2.984375 0 
L 29 38.921875 
z
" id="DejaVuSans-88"/>
      <path d="M 4.890625 31.390625 
L 31.203125 31.390625 
L 31.203125 23.390625 
L 4.890625 23.390625 
z
" id="DejaVuSans-45"/>
      <path d="M 34.1875 63.1875 
L 20.796875 26.90625 
L 47.609375 26.90625 
z
M 28.609375 72.90625 
L 39.796875 72.90625 
L 67.578125 0 
L 57.328125 0 
L 50.6875 18.703125 
L 17.828125 18.703125 
L 11.1875 0 
L 0.78125 0 
z
" id="DejaVuSans-65"/>
     </defs>
     <g transform="translate(374.52 155.270188)scale(0.1 -0.1)">
      <use xlink:href="#DejaVuSans-88"/>
      <use x="68.427734" xlink:href="#DejaVuSans-45"/>
      <use x="104.480469" xlink:href="#DejaVuSans-65"/>
      <use x="172.888672" xlink:href="#DejaVuSans-120"/>
      <use x="232.068359" xlink:href="#DejaVuSans-105"/>
      <use x="259.851562" xlink:href="#DejaVuSans-115"/>
     </g>
    </g>
    <g id="line2d_21">
     <path d="M 346.52 166.448313 
L 366.52 166.448313 
" style="fill:none;stroke:#ff7f0e;stroke-linecap:square;stroke-width:1.5;"/>
    </g>
    <g id="line2d_22"/>
    <g id="text_19">
     <!-- Y-Axis -->
     <defs>
      <path d="M -0.203125 72.90625 
L 10.40625 72.90625 
L 30.609375 42.921875 
L 50.6875 72.90625 
L 61.28125 72.90625 
L 35.5 34.71875 
L 35.5 0 
L 25.59375 0 
L 25.59375 34.71875 
z
" id="DejaVuSans-89"/>
     </defs>
     <g transform="translate(374.52 169.948313)scale(0.1 -0.1)">
      <use xlink:href="#DejaVuSans-89"/>
      <use x="60.912109" xlink:href="#DejaVuSans-45"/>
      <use x="96.964844" xlink:href="#DejaVuSans-65"/>
      <use x="165.373047" xlink:href="#DejaVuSans-120"/>
      <use x="224.552734" xlink:href="#DejaVuSans-105"/>
      <use x="252.335938" xlink:href="#DejaVuSans-115"/>
     </g>
    </g>
    <g id="line2d_23">
     <path d="M 346.52 181.126438 
L 366.52 181.126438 
" style="fill:none;stroke:#2ca02c;stroke-linecap:square;stroke-width:1.5;"/>
    </g>
    <g id="line2d_24"/>
    <g id="text_20">
     <!-- Z-Axis -->
     <defs>
      <path d="M 5.609375 72.90625 
L 62.890625 72.90625 
L 62.890625 65.375 
L 16.796875 8.296875 
L 64.015625 8.296875 
L 64.015625 0 
L 4.5 0 
L 4.5 7.515625 
L 50.59375 64.59375 
L 5.609375 64.59375 
z
" id="DejaVuSans-90"/>
     </defs>
     <g transform="translate(374.52 184.626438)scale(0.1 -0.1)">
      <use xlink:href="#DejaVuSans-90"/>
      <use x="68.490234" xlink:href="#DejaVuSans-45"/>
      <use x="104.542969" xlink:href="#DejaVuSans-65"/>
      <use x="172.951172" xlink:href="#DejaVuSans-120"/>
      <use x="232.130859" xlink:href="#DejaVuSans-105"/>
      <use x="259.914062" xlink:href="#DejaVuSans-115"/>
     </g>
    </g>
    <g id="line2d_25">
     <path d="M 346.52 195.804563 
L 366.52 195.804563 
" style="fill:none;stroke:#d62728;stroke-linecap:square;stroke-width:1.5;"/>
    </g>
    <g id="line2d_26"/>
    <g id="text_21">
     <!-- Mod -->
     <g transform="translate(374.52 199.304563)scale(0.1 -0.1)">
      <use xlink:href="#DejaVuSans-77"/>
      <use x="86.279297" xlink:href="#DejaVuSans-111"/>
      <use x="147.460938" xlink:href="#DejaVuSans-100"/>
     </g>
    </g>
   </g>
  </g>
 </g>
 <defs>
  <clipPath id="p7fbc7fc4eb">
   <rect height="266.112" width="357.12" x="57.6" y="41.472"/>
  </clipPath>
 </defs>
</svg>
