<?xml version="1.0" encoding="utf-8" standalone="no"?>
<!DOCTYPE svg PUBLIC "-//W3C//DTD SVG 1.1//EN"
  "http://www.w3.org/Graphics/SVG/1.1/DTD/svg11.dtd">
<!-- Created with matplotlib (https://matplotlib.org/) -->
<svg height="345.6pt" version="1.1" viewBox="0 0 460.8 345.6" width="460.8pt" xmlns="http://www.w3.org/2000/svg" xmlns:xlink="http://www.w3.org/1999/xlink">
 <defs>
  <style type="text/css">
*{stroke-linecap:butt;stroke-linejoin:round;}
  </style>
 </defs>
 <g id="figure_1">
  <g id="patch_1">
   <path d="M 0 345.6 
L 460.8 345.6 
L 460.8 0 
L 0 0 
z
" style="fill:#ffffff;"/>
  </g>
  <g id="axes_1">
   <g id="patch_2">
    <path d="M 57.6 307.584 
L 414.72 307.584 
L 414.72 41.472 
L 57.6 41.472 
z
" style="fill:#ffffff;"/>
   </g>
   <g id="matplotlib.axis_1">
    <g id="xtick_1">
     <g id="line2d_1">
      <defs>
       <path d="M 0 0 
L 0 3.5 
" id="mf038169e61" style="stroke:#000000;stroke-width:0.8;"/>
      </defs>
      <g>
       <use style="stroke:#000000;stroke-width:0.8;" x="73.832727" xlink:href="#mf038169e61" y="307.584"/>
      </g>
     </g>
     <g id="text_1">
      <!-- 0 -->
      <defs>
       <path d="M 31.78125 66.40625 
Q 24.171875 66.40625 20.328125 58.90625 
Q 16.5 51.421875 16.5 36.375 
Q 16.5 21.390625 20.328125 13.890625 
Q 24.171875 6.390625 31.78125 6.390625 
Q 39.453125 6.390625 43.28125 13.890625 
Q 47.125 21.390625 47.125 36.375 
Q 47.125 51.421875 43.28125 58.90625 
Q 39.453125 66.40625 31.78125 66.40625 
z
M 31.78125 74.21875 
Q 44.046875 74.21875 50.515625 64.515625 
Q 56.984375 54.828125 56.984375 36.375 
Q 56.984375 17.96875 50.515625 8.265625 
Q 44.046875 -1.421875 31.78125 -1.421875 
Q 19.53125 -1.421875 13.0625 8.265625 
Q 6.59375 17.96875 6.59375 36.375 
Q 6.59375 54.828125 13.0625 64.515625 
Q 19.53125 74.21875 31.78125 74.21875 
z
" id="DejaVuSans-48"/>
      </defs>
      <g transform="translate(70.651477 322.182437)scale(0.1 -0.1)">
       <use xlink:href="#DejaVuSans-48"/>
      </g>
     </g>
    </g>
    <g id="xtick_2">
     <g id="line2d_2">
      <g>
       <use style="stroke:#000000;stroke-width:0.8;" x="133.405211" xlink:href="#mf038169e61" y="307.584"/>
      </g>
     </g>
     <g id="text_2">
      <!-- 50 -->
      <defs>
       <path d="M 10.796875 72.90625 
L 49.515625 72.90625 
L 49.515625 64.59375 
L 19.828125 64.59375 
L 19.828125 46.734375 
Q 21.96875 47.46875 24.109375 47.828125 
Q 26.265625 48.1875 28.421875 48.1875 
Q 40.625 48.1875 47.75 41.5 
Q 54.890625 34.8125 54.890625 23.390625 
Q 54.890625 11.625 47.5625 5.09375 
Q 40.234375 -1.421875 26.90625 -1.421875 
Q 22.3125 -1.421875 17.546875 -0.640625 
Q 12.796875 0.140625 7.71875 1.703125 
L 7.71875 11.625 
Q 12.109375 9.234375 16.796875 8.0625 
Q 21.484375 6.890625 26.703125 6.890625 
Q 35.15625 6.890625 40.078125 11.328125 
Q 45.015625 15.765625 45.015625 23.390625 
Q 45.015625 31 40.078125 35.4375 
Q 35.15625 39.890625 26.703125 39.890625 
Q 22.75 39.890625 18.8125 39.015625 
Q 14.890625 38.140625 10.796875 36.28125 
z
" id="DejaVuSans-53"/>
      </defs>
      <g transform="translate(127.042711 322.182437)scale(0.1 -0.1)">
       <use xlink:href="#DejaVuSans-53"/>
       <use x="63.623047" xlink:href="#DejaVuSans-48"/>
      </g>
     </g>
    </g>
    <g id="xtick_3">
     <g id="line2d_3">
      <g>
       <use style="stroke:#000000;stroke-width:0.8;" x="192.977694" xlink:href="#mf038169e61" y="307.584"/>
      </g>
     </g>
     <g id="text_3">
      <!-- 100 -->
      <defs>
       <path d="M 12.40625 8.296875 
L 28.515625 8.296875 
L 28.515625 63.921875 
L 10.984375 60.40625 
L 10.984375 69.390625 
L 28.421875 72.90625 
L 38.28125 72.90625 
L 38.28125 8.296875 
L 54.390625 8.296875 
L 54.390625 0 
L 12.40625 0 
z
" id="DejaVuSans-49"/>
      </defs>
      <g transform="translate(183.433944 322.182437)scale(0.1 -0.1)">
       <use xlink:href="#DejaVuSans-49"/>
       <use x="63.623047" xlink:href="#DejaVuSans-48"/>
       <use x="127.246094" xlink:href="#DejaVuSans-48"/>
      </g>
     </g>
    </g>
    <g id="xtick_4">
     <g id="line2d_4">
      <g>
       <use style="stroke:#000000;stroke-width:0.8;" x="252.550177" xlink:href="#mf038169e61" y="307.584"/>
      </g>
     </g>
     <g id="text_4">
      <!-- 150 -->
      <g transform="translate(243.006427 322.182437)scale(0.1 -0.1)">
       <use xlink:href="#DejaVuSans-49"/>
       <use x="63.623047" xlink:href="#DejaVuSans-53"/>
       <use x="127.246094" xlink:href="#DejaVuSans-48"/>
      </g>
     </g>
    </g>
    <g id="xtick_5">
     <g id="line2d_5">
      <g>
       <use style="stroke:#000000;stroke-width:0.8;" x="312.122661" xlink:href="#mf038169e61" y="307.584"/>
      </g>
     </g>
     <g id="text_5">
      <!-- 200 -->
      <defs>
       <path d="M 19.1875 8.296875 
L 53.609375 8.296875 
L 53.609375 0 
L 7.328125 0 
L 7.328125 8.296875 
Q 12.9375 14.109375 22.625 23.890625 
Q 32.328125 33.6875 34.8125 36.53125 
Q 39.546875 41.84375 41.421875 45.53125 
Q 43.3125 49.21875 43.3125 52.78125 
Q 43.3125 58.59375 39.234375 62.25 
Q 35.15625 65.921875 28.609375 65.921875 
Q 23.96875 65.921875 18.8125 64.3125 
Q 13.671875 62.703125 7.8125 59.421875 
L 7.8125 69.390625 
Q 13.765625 71.78125 18.9375 73 
Q 24.125 74.21875 28.421875 74.21875 
Q 39.75 74.21875 46.484375 68.546875 
Q 53.21875 62.890625 53.21875 53.421875 
Q 53.21875 48.921875 51.53125 44.890625 
Q 49.859375 40.875 45.40625 35.40625 
Q 44.1875 33.984375 37.640625 27.21875 
Q 31.109375 20.453125 19.1875 8.296875 
z
" id="DejaVuSans-50"/>
      </defs>
      <g transform="translate(302.578911 322.182437)scale(0.1 -0.1)">
       <use xlink:href="#DejaVuSans-50"/>
       <use x="63.623047" xlink:href="#DejaVuSans-48"/>
       <use x="127.246094" xlink:href="#DejaVuSans-48"/>
      </g>
     </g>
    </g>
    <g id="xtick_6">
     <g id="line2d_6">
      <g>
       <use style="stroke:#000000;stroke-width:0.8;" x="371.695144" xlink:href="#mf038169e61" y="307.584"/>
      </g>
     </g>
     <g id="text_6">
      <!-- 250 -->
      <g transform="translate(362.151394 322.182437)scale(0.1 -0.1)">
       <use xlink:href="#DejaVuSans-50"/>
       <use x="63.623047" xlink:href="#DejaVuSans-53"/>
       <use x="127.246094" xlink:href="#DejaVuSans-48"/>
      </g>
     </g>
    </g>
    <g id="text_7">
     <!-- Time (in seconds) -->
     <defs>
      <path d="M -0.296875 72.90625 
L 61.375 72.90625 
L 61.375 64.59375 
L 35.5 64.59375 
L 35.5 0 
L 25.59375 0 
L 25.59375 64.59375 
L -0.296875 64.59375 
z
" id="DejaVuSans-84"/>
      <path d="M 9.421875 54.6875 
L 18.40625 54.6875 
L 18.40625 0 
L 9.421875 0 
z
M 9.421875 75.984375 
L 18.40625 75.984375 
L 18.40625 64.59375 
L 9.421875 64.59375 
z
" id="DejaVuSans-105"/>
      <path d="M 52 44.1875 
Q 55.375 50.25 60.0625 53.125 
Q 64.75 56 71.09375 56 
Q 79.640625 56 84.28125 50.015625 
Q 88.921875 44.046875 88.921875 33.015625 
L 88.921875 0 
L 79.890625 0 
L 79.890625 32.71875 
Q 79.890625 40.578125 77.09375 44.375 
Q 74.3125 48.1875 68.609375 48.1875 
Q 61.625 48.1875 57.5625 43.546875 
Q 53.515625 38.921875 53.515625 30.90625 
L 53.515625 0 
L 44.484375 0 
L 44.484375 32.71875 
Q 44.484375 40.625 41.703125 44.40625 
Q 38.921875 48.1875 33.109375 48.1875 
Q 26.21875 48.1875 22.15625 43.53125 
Q 18.109375 38.875 18.109375 30.90625 
L 18.109375 0 
L 9.078125 0 
L 9.078125 54.6875 
L 18.109375 54.6875 
L 18.109375 46.1875 
Q 21.1875 51.21875 25.484375 53.609375 
Q 29.78125 56 35.6875 56 
Q 41.65625 56 45.828125 52.96875 
Q 50 49.953125 52 44.1875 
z
" id="DejaVuSans-109"/>
      <path d="M 56.203125 29.59375 
L 56.203125 25.203125 
L 14.890625 25.203125 
Q 15.484375 15.921875 20.484375 11.0625 
Q 25.484375 6.203125 34.421875 6.203125 
Q 39.59375 6.203125 44.453125 7.46875 
Q 49.3125 8.734375 54.109375 11.28125 
L 54.109375 2.78125 
Q 49.265625 0.734375 44.1875 -0.34375 
Q 39.109375 -1.421875 33.890625 -1.421875 
Q 20.796875 -1.421875 13.15625 6.1875 
Q 5.515625 13.8125 5.515625 26.8125 
Q 5.515625 40.234375 12.765625 48.109375 
Q 20.015625 56 32.328125 56 
Q 43.359375 56 49.78125 48.890625 
Q 56.203125 41.796875 56.203125 29.59375 
z
M 47.21875 32.234375 
Q 47.125 39.59375 43.09375 43.984375 
Q 39.0625 48.390625 32.421875 48.390625 
Q 24.90625 48.390625 20.390625 44.140625 
Q 15.875 39.890625 15.1875 32.171875 
z
" id="DejaVuSans-101"/>
      <path id="DejaVuSans-32"/>
      <path d="M 31 75.875 
Q 24.46875 64.65625 21.28125 53.65625 
Q 18.109375 42.671875 18.109375 31.390625 
Q 18.109375 20.125 21.3125 9.0625 
Q 24.515625 -2 31 -13.1875 
L 23.1875 -13.1875 
Q 15.875 -1.703125 12.234375 9.375 
Q 8.59375 20.453125 8.59375 31.390625 
Q 8.59375 42.28125 12.203125 53.3125 
Q 15.828125 64.359375 23.1875 75.875 
z
" id="DejaVuSans-40"/>
      <path d="M 54.890625 33.015625 
L 54.890625 0 
L 45.90625 0 
L 45.90625 32.71875 
Q 45.90625 40.484375 42.875 44.328125 
Q 39.84375 48.1875 33.796875 48.1875 
Q 26.515625 48.1875 22.3125 43.546875 
Q 18.109375 38.921875 18.109375 30.90625 
L 18.109375 0 
L 9.078125 0 
L 9.078125 54.6875 
L 18.109375 54.6875 
L 18.109375 46.1875 
Q 21.34375 51.125 25.703125 53.5625 
Q 30.078125 56 35.796875 56 
Q 45.21875 56 50.046875 50.171875 
Q 54.890625 44.34375 54.890625 33.015625 
z
" id="DejaVuSans-110"/>
      <path d="M 44.28125 53.078125 
L 44.28125 44.578125 
Q 40.484375 46.53125 36.375 47.5 
Q 32.28125 48.484375 27.875 48.484375 
Q 21.1875 48.484375 17.84375 46.4375 
Q 14.5 44.390625 14.5 40.28125 
Q 14.5 37.15625 16.890625 35.375 
Q 19.28125 33.59375 26.515625 31.984375 
L 29.59375 31.296875 
Q 39.15625 29.25 43.1875 25.515625 
Q 47.21875 21.78125 47.21875 15.09375 
Q 47.21875 7.46875 41.1875 3.015625 
Q 35.15625 -1.421875 24.609375 -1.421875 
Q 20.21875 -1.421875 15.453125 -0.5625 
Q 10.6875 0.296875 5.421875 2 
L 5.421875 11.28125 
Q 10.40625 8.6875 15.234375 7.390625 
Q 20.0625 6.109375 24.8125 6.109375 
Q 31.15625 6.109375 34.5625 8.28125 
Q 37.984375 10.453125 37.984375 14.40625 
Q 37.984375 18.0625 35.515625 20.015625 
Q 33.0625 21.96875 24.703125 23.78125 
L 21.578125 24.515625 
Q 13.234375 26.265625 9.515625 29.90625 
Q 5.8125 33.546875 5.8125 39.890625 
Q 5.8125 47.609375 11.28125 51.796875 
Q 16.75 56 26.8125 56 
Q 31.78125 56 36.171875 55.265625 
Q 40.578125 54.546875 44.28125 53.078125 
z
" id="DejaVuSans-115"/>
      <path d="M 48.78125 52.59375 
L 48.78125 44.1875 
Q 44.96875 46.296875 41.140625 47.34375 
Q 37.3125 48.390625 33.40625 48.390625 
Q 24.65625 48.390625 19.8125 42.84375 
Q 14.984375 37.3125 14.984375 27.296875 
Q 14.984375 17.28125 19.8125 11.734375 
Q 24.65625 6.203125 33.40625 6.203125 
Q 37.3125 6.203125 41.140625 7.25 
Q 44.96875 8.296875 48.78125 10.40625 
L 48.78125 2.09375 
Q 45.015625 0.34375 40.984375 -0.53125 
Q 36.96875 -1.421875 32.421875 -1.421875 
Q 20.0625 -1.421875 12.78125 6.34375 
Q 5.515625 14.109375 5.515625 27.296875 
Q 5.515625 40.671875 12.859375 48.328125 
Q 20.21875 56 33.015625 56 
Q 37.15625 56 41.109375 55.140625 
Q 45.0625 54.296875 48.78125 52.59375 
z
" id="DejaVuSans-99"/>
      <path d="M 30.609375 48.390625 
Q 23.390625 48.390625 19.1875 42.75 
Q 14.984375 37.109375 14.984375 27.296875 
Q 14.984375 17.484375 19.15625 11.84375 
Q 23.34375 6.203125 30.609375 6.203125 
Q 37.796875 6.203125 41.984375 11.859375 
Q 46.1875 17.53125 46.1875 27.296875 
Q 46.1875 37.015625 41.984375 42.703125 
Q 37.796875 48.390625 30.609375 48.390625 
z
M 30.609375 56 
Q 42.328125 56 49.015625 48.375 
Q 55.71875 40.765625 55.71875 27.296875 
Q 55.71875 13.875 49.015625 6.21875 
Q 42.328125 -1.421875 30.609375 -1.421875 
Q 18.84375 -1.421875 12.171875 6.21875 
Q 5.515625 13.875 5.515625 27.296875 
Q 5.515625 40.765625 12.171875 48.375 
Q 18.84375 56 30.609375 56 
z
" id="DejaVuSans-111"/>
      <path d="M 45.40625 46.390625 
L 45.40625 75.984375 
L 54.390625 75.984375 
L 54.390625 0 
L 45.40625 0 
L 45.40625 8.203125 
Q 42.578125 3.328125 38.25 0.953125 
Q 33.9375 -1.421875 27.875 -1.421875 
Q 17.96875 -1.421875 11.734375 6.484375 
Q 5.515625 14.40625 5.515625 27.296875 
Q 5.515625 40.1875 11.734375 48.09375 
Q 17.96875 56 27.875 56 
Q 33.9375 56 38.25 53.625 
Q 42.578125 51.265625 45.40625 46.390625 
z
M 14.796875 27.296875 
Q 14.796875 17.390625 18.875 11.75 
Q 22.953125 6.109375 30.078125 6.109375 
Q 37.203125 6.109375 41.296875 11.75 
Q 45.40625 17.390625 45.40625 27.296875 
Q 45.40625 37.203125 41.296875 42.84375 
Q 37.203125 48.484375 30.078125 48.484375 
Q 22.953125 48.484375 18.875 42.84375 
Q 14.796875 37.203125 14.796875 27.296875 
z
" id="DejaVuSans-100"/>
      <path d="M 8.015625 75.875 
L 15.828125 75.875 
Q 23.140625 64.359375 26.78125 53.3125 
Q 30.421875 42.28125 30.421875 31.390625 
Q 30.421875 20.453125 26.78125 9.375 
Q 23.140625 -1.703125 15.828125 -13.1875 
L 8.015625 -13.1875 
Q 14.5 -2 17.703125 9.0625 
Q 20.90625 20.125 20.90625 31.390625 
Q 20.90625 42.671875 17.703125 53.65625 
Q 14.5 64.65625 8.015625 75.875 
z
" id="DejaVuSans-41"/>
     </defs>
     <g transform="translate(191.6975 335.860562)scale(0.1 -0.1)">
      <use xlink:href="#DejaVuSans-84"/>
      <use x="61.037109" xlink:href="#DejaVuSans-105"/>
      <use x="88.820312" xlink:href="#DejaVuSans-109"/>
      <use x="186.232422" xlink:href="#DejaVuSans-101"/>
      <use x="247.755859" xlink:href="#DejaVuSans-32"/>
      <use x="279.542969" xlink:href="#DejaVuSans-40"/>
      <use x="318.556641" xlink:href="#DejaVuSans-105"/>
      <use x="346.339844" xlink:href="#DejaVuSans-110"/>
      <use x="409.71875" xlink:href="#DejaVuSans-32"/>
      <use x="441.505859" xlink:href="#DejaVuSans-115"/>
      <use x="493.605469" xlink:href="#DejaVuSans-101"/>
      <use x="555.128906" xlink:href="#DejaVuSans-99"/>
      <use x="610.109375" xlink:href="#DejaVuSans-111"/>
      <use x="671.291016" xlink:href="#DejaVuSans-110"/>
      <use x="734.669922" xlink:href="#DejaVuSans-100"/>
      <use x="798.146484" xlink:href="#DejaVuSans-115"/>
      <use x="850.246094" xlink:href="#DejaVuSans-41"/>
     </g>
    </g>
   </g>
   <g id="matplotlib.axis_2">
    <g id="ytick_1">
     <g id="line2d_7">
      <defs>
       <path d="M 0 0 
L -3.5 0 
" id="m3934ffe1f2" style="stroke:#000000;stroke-width:0.8;"/>
      </defs>
      <g>
       <use style="stroke:#000000;stroke-width:0.8;" x="57.6" xlink:href="#m3934ffe1f2" y="304.501644"/>
      </g>
     </g>
     <g id="text_8">
      <!-- −4 -->
      <defs>
       <path d="M 10.59375 35.5 
L 73.1875 35.5 
L 73.1875 27.203125 
L 10.59375 27.203125 
z
" id="DejaVuSans-8722"/>
       <path d="M 37.796875 64.3125 
L 12.890625 25.390625 
L 37.796875 25.390625 
z
M 35.203125 72.90625 
L 47.609375 72.90625 
L 47.609375 25.390625 
L 58.015625 25.390625 
L 58.015625 17.1875 
L 47.609375 17.1875 
L 47.609375 0 
L 37.796875 0 
L 37.796875 17.1875 
L 4.890625 17.1875 
L 4.890625 26.703125 
z
" id="DejaVuSans-52"/>
      </defs>
      <g transform="translate(35.857813 308.300862)scale(0.1 -0.1)">
       <use xlink:href="#DejaVuSans-8722"/>
       <use x="83.789062" xlink:href="#DejaVuSans-52"/>
      </g>
     </g>
    </g>
    <g id="ytick_2">
     <g id="line2d_8">
      <g>
       <use style="stroke:#000000;stroke-width:0.8;" x="57.6" xlink:href="#m3934ffe1f2" y="267.982827"/>
      </g>
     </g>
     <g id="text_9">
      <!-- −2 -->
      <g transform="translate(35.857813 271.782046)scale(0.1 -0.1)">
       <use xlink:href="#DejaVuSans-8722"/>
       <use x="83.789062" xlink:href="#DejaVuSans-50"/>
      </g>
     </g>
    </g>
    <g id="ytick_3">
     <g id="line2d_9">
      <g>
       <use style="stroke:#000000;stroke-width:0.8;" x="57.6" xlink:href="#m3934ffe1f2" y="231.46401"/>
      </g>
     </g>
     <g id="text_10">
      <!-- 0 -->
      <g transform="translate(44.2375 235.263229)scale(0.1 -0.1)">
       <use xlink:href="#DejaVuSans-48"/>
      </g>
     </g>
    </g>
    <g id="ytick_4">
     <g id="line2d_10">
      <g>
       <use style="stroke:#000000;stroke-width:0.8;" x="57.6" xlink:href="#m3934ffe1f2" y="194.945194"/>
      </g>
     </g>
     <g id="text_11">
      <!-- 2 -->
      <g transform="translate(44.2375 198.744413)scale(0.1 -0.1)">
       <use xlink:href="#DejaVuSans-50"/>
      </g>
     </g>
    </g>
    <g id="ytick_5">
     <g id="line2d_11">
      <g>
       <use style="stroke:#000000;stroke-width:0.8;" x="57.6" xlink:href="#m3934ffe1f2" y="158.426377"/>
      </g>
     </g>
     <g id="text_12">
      <!-- 4 -->
      <g transform="translate(44.2375 162.225596)scale(0.1 -0.1)">
       <use xlink:href="#DejaVuSans-52"/>
      </g>
     </g>
    </g>
    <g id="ytick_6">
     <g id="line2d_12">
      <g>
       <use style="stroke:#000000;stroke-width:0.8;" x="57.6" xlink:href="#m3934ffe1f2" y="121.907561"/>
      </g>
     </g>
     <g id="text_13">
      <!-- 6 -->
      <defs>
       <path d="M 33.015625 40.375 
Q 26.375 40.375 22.484375 35.828125 
Q 18.609375 31.296875 18.609375 23.390625 
Q 18.609375 15.53125 22.484375 10.953125 
Q 26.375 6.390625 33.015625 6.390625 
Q 39.65625 6.390625 43.53125 10.953125 
Q 47.40625 15.53125 47.40625 23.390625 
Q 47.40625 31.296875 43.53125 35.828125 
Q 39.65625 40.375 33.015625 40.375 
z
M 52.59375 71.296875 
L 52.59375 62.3125 
Q 48.875 64.0625 45.09375 64.984375 
Q 41.3125 65.921875 37.59375 65.921875 
Q 27.828125 65.921875 22.671875 59.328125 
Q 17.53125 52.734375 16.796875 39.40625 
Q 19.671875 43.65625 24.015625 45.921875 
Q 28.375 48.1875 33.59375 48.1875 
Q 44.578125 48.1875 50.953125 41.515625 
Q 57.328125 34.859375 57.328125 23.390625 
Q 57.328125 12.15625 50.6875 5.359375 
Q 44.046875 -1.421875 33.015625 -1.421875 
Q 20.359375 -1.421875 13.671875 8.265625 
Q 6.984375 17.96875 6.984375 36.375 
Q 6.984375 53.65625 15.1875 63.9375 
Q 23.390625 74.21875 37.203125 74.21875 
Q 40.921875 74.21875 44.703125 73.484375 
Q 48.484375 72.75 52.59375 71.296875 
z
" id="DejaVuSans-54"/>
      </defs>
      <g transform="translate(44.2375 125.706779)scale(0.1 -0.1)">
       <use xlink:href="#DejaVuSans-54"/>
      </g>
     </g>
    </g>
    <g id="ytick_7">
     <g id="line2d_13">
      <g>
       <use style="stroke:#000000;stroke-width:0.8;" x="57.6" xlink:href="#m3934ffe1f2" y="85.388744"/>
      </g>
     </g>
     <g id="text_14">
      <!-- 8 -->
      <defs>
       <path d="M 31.78125 34.625 
Q 24.75 34.625 20.71875 30.859375 
Q 16.703125 27.09375 16.703125 20.515625 
Q 16.703125 13.921875 20.71875 10.15625 
Q 24.75 6.390625 31.78125 6.390625 
Q 38.8125 6.390625 42.859375 10.171875 
Q 46.921875 13.96875 46.921875 20.515625 
Q 46.921875 27.09375 42.890625 30.859375 
Q 38.875 34.625 31.78125 34.625 
z
M 21.921875 38.8125 
Q 15.578125 40.375 12.03125 44.71875 
Q 8.5 49.078125 8.5 55.328125 
Q 8.5 64.0625 14.71875 69.140625 
Q 20.953125 74.21875 31.78125 74.21875 
Q 42.671875 74.21875 48.875 69.140625 
Q 55.078125 64.0625 55.078125 55.328125 
Q 55.078125 49.078125 51.53125 44.71875 
Q 48 40.375 41.703125 38.8125 
Q 48.828125 37.15625 52.796875 32.3125 
Q 56.78125 27.484375 56.78125 20.515625 
Q 56.78125 9.90625 50.3125 4.234375 
Q 43.84375 -1.421875 31.78125 -1.421875 
Q 19.734375 -1.421875 13.25 4.234375 
Q 6.78125 9.90625 6.78125 20.515625 
Q 6.78125 27.484375 10.78125 32.3125 
Q 14.796875 37.15625 21.921875 38.8125 
z
M 18.3125 54.390625 
Q 18.3125 48.734375 21.84375 45.5625 
Q 25.390625 42.390625 31.78125 42.390625 
Q 38.140625 42.390625 41.71875 45.5625 
Q 45.3125 48.734375 45.3125 54.390625 
Q 45.3125 60.0625 41.71875 63.234375 
Q 38.140625 66.40625 31.78125 66.40625 
Q 25.390625 66.40625 21.84375 63.234375 
Q 18.3125 60.0625 18.3125 54.390625 
z
" id="DejaVuSans-56"/>
      </defs>
      <g transform="translate(44.2375 89.187963)scale(0.1 -0.1)">
       <use xlink:href="#DejaVuSans-56"/>
      </g>
     </g>
    </g>
    <g id="ytick_8">
     <g id="line2d_14">
      <g>
       <use style="stroke:#000000;stroke-width:0.8;" x="57.6" xlink:href="#m3934ffe1f2" y="48.869927"/>
      </g>
     </g>
     <g id="text_15">
      <!-- 10 -->
      <g transform="translate(37.875 52.669146)scale(0.1 -0.1)">
       <use xlink:href="#DejaVuSans-49"/>
       <use x="63.623047" xlink:href="#DejaVuSans-48"/>
      </g>
     </g>
    </g>
    <g id="text_16">
     <!-- Magnitude -->
     <defs>
      <path d="M 9.8125 72.90625 
L 24.515625 72.90625 
L 43.109375 23.296875 
L 61.8125 72.90625 
L 76.515625 72.90625 
L 76.515625 0 
L 66.890625 0 
L 66.890625 64.015625 
L 48.09375 14.015625 
L 38.1875 14.015625 
L 19.390625 64.015625 
L 19.390625 0 
L 9.8125 0 
z
" id="DejaVuSans-77"/>
      <path d="M 34.28125 27.484375 
Q 23.390625 27.484375 19.1875 25 
Q 14.984375 22.515625 14.984375 16.5 
Q 14.984375 11.71875 18.140625 8.90625 
Q 21.296875 6.109375 26.703125 6.109375 
Q 34.1875 6.109375 38.703125 11.40625 
Q 43.21875 16.703125 43.21875 25.484375 
L 43.21875 27.484375 
z
M 52.203125 31.203125 
L 52.203125 0 
L 43.21875 0 
L 43.21875 8.296875 
Q 40.140625 3.328125 35.546875 0.953125 
Q 30.953125 -1.421875 24.3125 -1.421875 
Q 15.921875 -1.421875 10.953125 3.296875 
Q 6 8.015625 6 15.921875 
Q 6 25.140625 12.171875 29.828125 
Q 18.359375 34.515625 30.609375 34.515625 
L 43.21875 34.515625 
L 43.21875 35.40625 
Q 43.21875 41.609375 39.140625 45 
Q 35.0625 48.390625 27.6875 48.390625 
Q 23 48.390625 18.546875 47.265625 
Q 14.109375 46.140625 10.015625 43.890625 
L 10.015625 52.203125 
Q 14.9375 54.109375 19.578125 55.046875 
Q 24.21875 56 28.609375 56 
Q 40.484375 56 46.34375 49.84375 
Q 52.203125 43.703125 52.203125 31.203125 
z
" id="DejaVuSans-97"/>
      <path d="M 45.40625 27.984375 
Q 45.40625 37.75 41.375 43.109375 
Q 37.359375 48.484375 30.078125 48.484375 
Q 22.859375 48.484375 18.828125 43.109375 
Q 14.796875 37.75 14.796875 27.984375 
Q 14.796875 18.265625 18.828125 12.890625 
Q 22.859375 7.515625 30.078125 7.515625 
Q 37.359375 7.515625 41.375 12.890625 
Q 45.40625 18.265625 45.40625 27.984375 
z
M 54.390625 6.78125 
Q 54.390625 -7.171875 48.1875 -13.984375 
Q 42 -20.796875 29.203125 -20.796875 
Q 24.46875 -20.796875 20.265625 -20.09375 
Q 16.0625 -19.390625 12.109375 -17.921875 
L 12.109375 -9.1875 
Q 16.0625 -11.328125 19.921875 -12.34375 
Q 23.78125 -13.375 27.78125 -13.375 
Q 36.625 -13.375 41.015625 -8.765625 
Q 45.40625 -4.15625 45.40625 5.171875 
L 45.40625 9.625 
Q 42.625 4.78125 38.28125 2.390625 
Q 33.9375 0 27.875 0 
Q 17.828125 0 11.671875 7.65625 
Q 5.515625 15.328125 5.515625 27.984375 
Q 5.515625 40.671875 11.671875 48.328125 
Q 17.828125 56 27.875 56 
Q 33.9375 56 38.28125 53.609375 
Q 42.625 51.21875 45.40625 46.390625 
L 45.40625 54.6875 
L 54.390625 54.6875 
z
" id="DejaVuSans-103"/>
      <path d="M 18.3125 70.21875 
L 18.3125 54.6875 
L 36.8125 54.6875 
L 36.8125 47.703125 
L 18.3125 47.703125 
L 18.3125 18.015625 
Q 18.3125 11.328125 20.140625 9.421875 
Q 21.96875 7.515625 27.59375 7.515625 
L 36.8125 7.515625 
L 36.8125 0 
L 27.59375 0 
Q 17.1875 0 13.234375 3.875 
Q 9.28125 7.765625 9.28125 18.015625 
L 9.28125 47.703125 
L 2.6875 47.703125 
L 2.6875 54.6875 
L 9.28125 54.6875 
L 9.28125 70.21875 
z
" id="DejaVuSans-116"/>
      <path d="M 8.5 21.578125 
L 8.5 54.6875 
L 17.484375 54.6875 
L 17.484375 21.921875 
Q 17.484375 14.15625 20.5 10.265625 
Q 23.53125 6.390625 29.59375 6.390625 
Q 36.859375 6.390625 41.078125 11.03125 
Q 45.3125 15.671875 45.3125 23.6875 
L 45.3125 54.6875 
L 54.296875 54.6875 
L 54.296875 0 
L 45.3125 0 
L 45.3125 8.40625 
Q 42.046875 3.421875 37.71875 1 
Q 33.40625 -1.421875 27.6875 -1.421875 
Q 18.265625 -1.421875 13.375 4.4375 
Q 8.5 10.296875 8.5 21.578125 
z
M 31.109375 56 
z
" id="DejaVuSans-117"/>
     </defs>
     <g transform="translate(29.778125 201.017844)rotate(-90)scale(0.1 -0.1)">
      <use xlink:href="#DejaVuSans-77"/>
      <use x="86.279297" xlink:href="#DejaVuSans-97"/>
      <use x="147.558594" xlink:href="#DejaVuSans-103"/>
      <use x="211.035156" xlink:href="#DejaVuSans-110"/>
      <use x="274.414062" xlink:href="#DejaVuSans-105"/>
      <use x="302.197266" xlink:href="#DejaVuSans-116"/>
      <use x="341.40625" xlink:href="#DejaVuSans-117"/>
      <use x="404.785156" xlink:href="#DejaVuSans-100"/>
      <use x="468.261719" xlink:href="#DejaVuSans-101"/>
     </g>
    </g>
   </g>
   <g id="line2d_15">
    <path clip-path="url(#pe63680e3a4)" d="M 73.832727 282.476963 
L 73.924469 278.419311 
L 74.519002 259.884478 
L 74.709634 256.394959 
L 75.013454 252.1926 
L 75.181448 250.287611 
L 75.606796 246.514432 
L 75.908232 245.06188 
L 76.378855 243.852637 
L 76.862584 243.303385 
L 77.881273 242.964113 
L 79.504028 242.853223 
L 81.122016 242.882059 
L 81.546172 243.268388 
L 81.960797 243.673703 
L 82.138323 243.68039 
L 82.321806 243.321844 
L 82.560096 242.252938 
L 83.036676 238.7512 
L 84.54386 227.02453 
L 84.959676 225.848174 
L 85.318302 225.379729 
L 85.798456 225.139053 
L 87.422402 224.662273 
L 87.898982 224.033499 
L 89.09758 222.304165 
L 89.575352 222.051393 
L 90.117461 221.99869 
L 91.25887 222.051381 
L 92.698141 221.207874 
L 92.880433 221.417928 
L 93.355821 222.530267 
L 93.897931 223.538475 
L 94.201751 223.685672 
L 94.38166 223.351783 
L 94.681905 222.042202 
L 95.340777 217.825636 
L 95.641022 214.841738 
L 96.235555 210.814027 
L 96.662094 209.502905 
L 96.902767 209.359788 
L 97.082676 209.541339 
L 97.436536 210.325084 
L 97.740356 211.559638 
L 98.34323 215.501024 
L 99.782501 225.845514 
L 100.259081 227.63084 
L 100.560517 228.053013 
L 100.799999 228.024943 
L 101.580399 227.655563 
L 101.940216 227.549209 
L 103.136432 225.568535 
L 103.323489 225.587588 
L 103.559397 226.004625 
L 105.002242 229.600691 
L 107.099193 235.007126 
L 107.338675 235.096479 
L 107.576965 234.896907 
L 107.881976 234.325869 
L 108.659992 231.921133 
L 109.196145 230.588468 
L 109.621492 230.124681 
L 109.921738 230.19444 
L 110.998808 230.692402 
L 111.477771 230.652699 
L 112.140217 230.305549 
L 113.577105 229.53495 
L 114.778086 229.333604 
L 115.016376 229.615823 
L 115.391683 230.423744 
L 115.913538 232.070016 
L 116.453265 233.403496 
L 116.814274 233.775 
L 117.053755 233.750055 
L 117.413573 233.413014 
L 118.132017 232.708288 
L 118.552599 232.391551 
L 118.794463 231.907447 
L 119.213854 230.332486 
L 120.418409 225.118211 
L 122.035206 220.946971 
L 122.340218 220.912273 
L 122.754842 221.195206 
L 123.300526 221.790455 
L 123.657961 222.431155 
L 124.01897 223.702744 
L 125.289055 229.262912 
L 125.578578 229.7106 
L 125.764444 229.69437 
L 126.05754 229.300787 
L 126.779559 228.23538 
L 127.135802 228.085265 
L 127.372901 228.212925 
L 127.857821 228.769723 
L 129.419811 230.529475 
L 130.019111 230.758902 
L 130.679174 230.804137 
L 131.040183 230.619308 
L 131.998109 229.866828 
L 132.236399 230.034688 
L 133.436188 231.285622 
L 134.159398 231.698144 
L 134.631212 232.410147 
L 136.319496 235.066992 
L 136.550638 235.105188 
L 136.796076 234.870401 
L 137.214275 234.047456 
L 138.176966 232.208622 
L 138.596357 231.876068 
L 138.898985 231.943766 
L 139.617429 232.132771 
L 139.918866 231.886042 
L 140.696882 231.143237 
L 141.236609 230.998054 
L 141.477282 230.875857 
L 141.716764 230.540103 
L 142.67588 229.291757 
L 142.858172 229.474396 
L 143.153652 230.170461 
L 143.638572 231.841892 
L 144.474969 234.932091 
L 144.955124 235.976642 
L 145.378088 236.421942 
L 145.85586 236.570653 
L 146.097724 236.719982 
L 146.517114 237.470169 
L 146.931739 238.115155 
L 147.17122 238.197027 
L 147.349938 237.903661 
L 147.651374 236.904365 
L 148.976266 231.688152 
L 149.216939 231.511553 
L 149.454038 231.673784 
L 149.937766 232.432857 
L 150.65621 233.612334 
L 151.977528 235.198654 
L 154.491487 240.623638 
L 155.704382 243.449108 
L 155.992713 243.867621 
L 156.297725 243.93142 
L 156.469293 243.699292 
L 156.715923 242.891579 
L 157.250884 239.754007 
L 158.335103 233.25623 
L 158.816449 231.542556 
L 160.133001 227.736788 
L 161.270835 222.830317 
L 161.694991 221.975532 
L 162.114382 221.49147 
L 162.352672 221.410497 
L 162.651726 221.557723 
L 163.134263 221.963563 
L 163.672798 222.422707 
L 163.973043 222.461616 
L 164.334052 222.156658 
L 164.990541 221.242884 
L 165.650604 219.86826 
L 166.201054 217.905817 
L 166.969539 214.567263 
L 167.393695 213.463646 
L 167.630794 213.260784 
L 167.811894 213.420629 
L 168.294431 214.360484 
L 168.828201 215.41513 
L 169.251165 215.827909 
L 169.6086 215.909434 
L 170.088754 215.978046 
L 170.333002 216.312665 
L 170.692819 217.368291 
L 171.294501 219.910209 
L 172.009371 222.572965 
L 172.428762 223.388826 
L 172.670626 223.510419 
L 172.910107 223.245026 
L 173.278265 222.405555 
L 174.232616 219.555816 
L 174.292189 219.555816 
L 174.528096 218.902117 
L 175.850605 216.304825 
L 176.036471 216.386357 
L 176.27357 216.947492 
L 176.695343 218.83073 
L 177.89275 225.120578 
L 178.733913 228.298174 
L 179.094923 228.828006 
L 179.332021 228.857623 
L 179.575077 228.713998 
L 180.051657 228.370591 
L 180.650956 228.269835 
L 181.674411 228.580799 
L 182.329708 229.240825 
L 182.875392 229.58278 
L 183.055301 229.542521 
L 183.293591 229.197649 
L 183.773745 227.94296 
L 184.430234 226.263209 
L 184.91158 225.62488 
L 185.452498 225.308055 
L 186.051797 225.196795 
L 186.59629 225.43101 
L 187.49226 226.147359 
L 187.790122 226.809649 
L 188.211895 228.422419 
L 188.931531 232.459091 
L 189.828692 238.798238 
L 190.501862 245.248132 
L 191.094012 251.291679 
L 191.633739 255.402496 
L 192.11151 257.614644 
L 192.470136 258.48186 
L 192.772765 258.793316 
L 192.951482 258.7669 
L 193.187389 258.431937 
L 193.562696 257.570445 
L 194.986478 252.688621 
L 195.467824 251.970695 
L 195.825259 251.76195 
L 196.132653 251.884993 
L 196.612807 252.450764 
L 197.151342 253.16418 
L 197.51116 253.334056 
L 197.691069 253.080203 
L 198.055652 251.929214 
L 198.888476 248.19677 
L 199.78802 244.118126 
L 200.406383 239.922018 
L 200.753095 237.488724 
L 201.76821 231.65135 
L 202.486654 228.545895 
L 203.088336 226.977067 
L 203.748399 225.568676 
L 204.419185 223.620112 
L 204.952954 222.009835 
L 205.008953 222.009835 
L 205.249626 221.13786 
L 206.152744 218.903799 
L 206.507796 218.524424 
L 206.690088 218.573496 
L 206.928378 218.934563 
L 207.289387 219.929972 
L 207.954216 222.574122 
L 208.486794 224.868379 
L 209.568631 228.591527 
L 210.229885 230.148457 
L 211.130621 231.560595 
L 211.432058 231.781545 
L 211.609584 231.684926 
L 211.846682 231.229865 
L 212.14931 230.164371 
L 213.168 225.866617 
L 213.3491 225.765877 
L 213.529009 225.990372 
L 213.831638 226.74312 
L 215.385288 231.629904 
L 215.810635 232.158843 
L 216.109689 232.233076 
L 216.592226 232.027135 
L 217.25229 231.792671 
L 218.385358 231.658256 
L 219.410005 231.101341 
L 221.09114 230.715177 
L 221.690439 230.371892 
L 222.709129 229.470463 
L 223.730201 228.179448 
L 223.966108 228.151004 
L 224.204398 228.412841 
L 224.803697 229.570639 
L 225.04437 230.319942 
L 226.24416 232.868738 
L 226.609935 233.061469 
L 227.028134 232.901539 
L 227.390335 232.830126 
L 227.687006 233.0914 
L 228.345877 233.771309 
L 228.528169 233.786191 
L 228.770033 233.529115 
L 229.258528 232.45052 
L 229.847104 230.887373 
L 230.74784 229.099441 
L 231.229186 228.563863 
L 231.649767 228.40964 
L 232.190685 228.592022 
L 233.44409 229.079802 
L 233.689529 228.780246 
L 234.04339 227.930349 
L 234.585499 226.091731 
L 236.027153 221.127694 
L 236.386971 220.739225 
L 236.56688 220.859575 
L 236.86236 221.493639 
L 237.34728 223.219993 
L 238.127679 226.073008 
L 238.667406 227.175127 
L 238.902122 227.364934 
L 239.090371 227.289743 
L 239.325086 226.885514 
L 239.634863 225.773667 
L 240.286586 221.180111 
L 241.184939 214.32634 
L 241.724666 209.246549 
L 243.283082 193.126947 
L 243.584518 192.194078 
L 243.704855 192.268626 
L 243.893104 192.785847 
L 244.304154 195.392688 
L 245.924526 209.162749 
L 246.582206 212.38866 
L 247.484133 215.828627 
L 248.506397 218.947521 
L 249.22365 222.601296 
L 249.825332 225.250108 
L 250.124386 225.84607 
L 250.306677 225.838304 
L 250.606923 225.418125 
L 251.201456 224.413896 
L 251.440938 224.276872 
L 251.620847 224.422379 
L 251.983047 225.128154 
L 252.942164 227.114276 
L 253.241218 227.239223 
L 253.481891 227.019004 
L 253.904855 226.209391 
L 254.742445 224.349041 
L 254.984309 224.164884 
L 255.161835 224.253512 
L 255.460889 224.672254 
L 256.302052 225.973629 
L 256.605872 226.066347 
L 257.20398 226.050969 
L 257.38508 226.285938 
L 257.815193 227.526638 
L 258.525297 230.477858 
L 258.942305 231.585189 
L 259.244933 231.913478 
L 259.487989 231.829618 
L 259.968143 231.317952 
L 260.638929 230.275298 
L 261.219165 228.890852 
L 261.944758 227.385076 
L 262.304576 227.083716 
L 262.607204 227.1642 
L 263.447176 227.61469 
L 263.806994 227.430685 
L 264.282382 227.209859 
L 264.526629 227.266678 
L 264.761345 227.581393 
L 265.29988 228.874629 
L 266.02309 230.602615 
L 266.562817 231.404557 
L 267.712566 232.775934 
L 268.359523 235.568415 
L 269.504506 241.357721 
L 269.923896 242.139195 
L 270.218184 242.320026 
L 270.401668 242.180281 
L 270.644723 241.643757 
L 271.031944 240.113519 
L 271.253554 238.576275 
L 272.024422 232.489114 
L 272.501002 230.080177 
L 272.921584 229.128934 
L 273.283784 228.796844 
L 273.884275 228.41643 
L 274.362046 227.472596 
L 275.380736 225.147946 
L 275.862082 224.69228 
L 276.283855 224.556307 
L 276.941535 224.582111 
L 277.29897 224.777852 
L 277.659979 225.228275 
L 278.140133 226.197047 
L 278.977722 227.954121 
L 279.341115 228.244967 
L 279.640168 228.173557 
L 280.662432 227.670996 
L 280.900722 227.757454 
L 281.266497 228.174839 
L 282.22204 229.496433 
L 282.463904 229.561805 
L 282.699811 229.328835 
L 283.062012 228.638876 
L 284.141465 226.470474 
L 284.560855 226.164792 
L 284.803911 226.295334 
L 285.172069 226.902625 
L 286.060891 229.214393 
L 286.542236 229.92124 
L 287.021199 230.219626 
L 288.641571 230.671189 
L 289.057387 230.367316 
L 289.775831 229.61048 
L 290.201178 229.001022 
L 290.55623 228.068046 
L 290.917239 226.448594 
L 291.340204 223.34549 
L 292.356511 213.292198 
L 293.799356 199.317648 
L 294.219938 197.249929 
L 294.458228 196.812142 
L 294.58333 196.908874 
L 294.820429 197.604916 
L 295.120674 199.193742 
L 295.718782 204.31286 
L 297.160436 216.391707 
L 297.696588 218.41059 
L 298.062363 219.143235 
L 298.541326 219.659641 
L 299.500443 220.432262 
L 301.362679 224.34966 
L 302.320604 226.501489 
L 303.69792 228.318957 
L 304.303177 228.812642 
L 304.541466 228.788986 
L 304.841712 228.48366 
L 305.980738 227.097125 
L 306.76352 226.697355 
L 307.483156 226.613426 
L 308.441081 226.600722 
L 308.799708 226.388736 
L 309.27867 225.857864 
L 310.415313 224.309993 
L 310.659561 224.272494 
L 310.959806 224.548124 
L 311.381579 225.229436 
L 312.157213 226.695019 
L 312.465798 226.865825 
L 312.700514 226.668367 
L 313.119904 225.947772 
L 313.659631 225.122498 
L 314.018257 224.979382 
L 314.379266 225.227177 
L 314.983331 225.630034 
L 315.462294 225.708674 
L 315.880493 225.502939 
L 316.301075 225.003433 
L 317.442483 223.258753 
L 317.861874 223.076111 
L 318.942519 222.885269 
L 320.741608 221.899614 
L 321.581579 221.863576 
L 321.937823 222.14187 
L 322.416786 222.845522 
L 323.738104 225.383827 
L 324.998657 228.260781 
L 325.429962 228.544483 
L 325.719484 228.514526 
L 326.800129 227.884327 
L 327.520956 227.329146 
L 327.821201 226.903352 
L 328.353779 225.596458 
L 329.442764 222.174571 
L 330.40069 219.121827 
L 331.177515 217.170173 
L 333.33523 212.497256 
L 333.816576 212.095834 
L 334.058441 212.109014 
L 334.415875 212.45606 
L 334.713738 212.964723 
L 335.075938 213.977326 
L 335.813446 217.043612 
L 336.09582 218.258971 
L 336.575974 219.465249 
L 337.057319 220.025201 
L 337.41952 220.515603 
L 338.975553 223.340032 
L 339.751187 223.96837 
L 340.174152 224.021537 
L 341.736142 223.554872 
L 342.094768 223.857527 
L 342.514159 224.584751 
L 343.535231 226.315393 
L 343.835476 226.447623 
L 344.133339 226.272718 
L 345.632183 224.896113 
L 346.355392 224.009727 
L 346.773591 223.567647 
L 347.372891 222.608104 
L 348.274818 220.739121 
L 348.934881 219.492899 
L 349.712898 218.529669 
L 349.893998 218.557471 
L 350.137054 218.922196 
L 350.616016 220.552611 
L 351.34995 224.42403 
L 351.693087 226.238376 
L 352.231622 228.262676 
L 352.892877 229.619106 
L 353.493368 230.230969 
L 353.912758 230.419 
L 354.098624 230.319608 
L 354.397678 229.724992 
L 355.128036 227.070091 
L 355.474748 225.933389 
L 355.833375 225.250524 
L 356.37191 225.350604 
L 356.971209 226.079862 
L 357.394174 226.446488 
L 357.633655 226.472167 
L 357.876711 226.209537 
L 358.173382 225.54397 
L 358.652345 223.747809 
L 360.093999 217.414373 
L 360.33348 217.132104 
L 360.51458 217.429875 
L 361.111497 219.384619 
L 361.894279 222.183213 
L 362.436389 223.001779 
L 363.393123 223.80529 
L 363.814896 223.743547 
L 364.784736 223.521604 
L 366.030992 224.166521 
L 366.869773 223.74081 
L 367.529836 223.614569 
L 367.832464 223.710553 
L 368.13271 224.088851 
L 368.911918 225.080647 
L 369.270544 225.224272 
L 369.569598 225.009527 
L 370.293999 224.345123 
L 370.532289 224.338128 
L 371.069633 224.499284 
L 371.310306 224.386017 
L 371.55217 223.991432 
L 372.049005 222.437765 
L 372.332569 221.408644 
L 372.813915 220.283873 
L 373.65627 218.584071 
L 374.433095 216.061968 
L 374.792913 215.296789 
L 375.095541 215.013306 
L 375.346937 215.051404 
L 376.058233 215.600443 
L 376.711147 216.188614 
L 377.249682 216.351106 
L 377.91332 216.134534 
L 378.750909 215.316184 
L 378.99039 215.395286 
L 379.289444 215.712537 
L 379.955464 216.449187 
L 380.371281 216.691238 
L 381.031344 216.468902 
L 381.212444 216.749132 
L 381.755745 218.306816 
L 382.830433 221.477739 
L 383.733551 222.679086 
L 384.813005 223.748434 
L 385.114442 224.060014 
L 385.835269 224.424892 
L 386.252276 224.470569 
L 386.675241 224.102615 
L 387.216159 223.186351 
L 387.509256 222.233607 
L 388.056131 220.418651 
L 388.593475 219.383935 
L 388.89372 219.142158 
L 389.076012 219.270911 
L 389.854028 220.839675 
L 390.883441 223.08713 
L 391.772263 226.881816 
L 392.670615 230.556033 
L 393.15077 231.660139 
L 393.210342 231.660139 
L 393.451015 232.083199 
L 393.872788 232.425023 
L 394.181374 232.426405 
L 394.472087 231.85563 
L 394.892669 230.292629 
L 395.73145 226.614768 
L 396.096033 225.769949 
L 396.274751 225.692488 
L 396.454659 225.871833 
L 396.814477 227.414652 
L 397.292249 228.994152 
L 397.532921 229.334675 
L 397.652067 229.264881 
L 397.831975 228.825594 
L 398.19775 227.188953 
L 398.487273 225.789385 
L 398.487273 225.789385 
" style="fill:none;stroke:#1f77b4;stroke-linecap:square;stroke-width:1.5;"/>
   </g>
   <g id="line2d_16">
    <path clip-path="url(#pe63680e3a4)" d="M 73.832727 275.153083 
L 74.40224 274.701285 
L 75.358974 273.706162 
L 75.908232 273.512406 
L 76.743439 273.626953 
L 78.787966 273.748778 
L 79.682745 273.70633 
L 80.044946 273.681857 
L 80.461953 273.106879 
L 80.882535 272.318443 
L 81.303117 271.176151 
L 81.802334 268.796784 
L 82.138323 266.855493 
L 82.560096 265.47466 
L 82.750728 265.252436 
L 82.865107 265.385682 
L 83.159395 266.59734 
L 84.175702 271.07615 
L 84.658239 271.986253 
L 85.077629 272.347837 
L 85.62093 272.461091 
L 86.339374 272.370764 
L 87.178155 272.180241 
L 87.422402 272.552045 
L 87.842984 273.843297 
L 89.457398 280.244863 
L 90.175842 282.015646 
L 90.897861 283.189505 
L 91.318442 283.519601 
L 91.561498 283.502026 
L 91.803363 283.226491 
L 92.103608 282.45521 
L 92.578996 280.186802 
L 93.897931 273.082884 
L 94.02065 273.068218 
L 94.201751 273.520486 
L 94.560377 275.384996 
L 96.054455 284.574715 
L 97.023104 289.12158 
L 97.257819 289.595424 
L 97.380538 289.569412 
L 97.616445 289.174678 
L 97.981029 288.089536 
L 98.34323 286.26967 
L 98.761428 283.057506 
L 99.366685 276.309433 
L 99.900454 270.813545 
L 100.259081 268.85457 
L 100.560517 268.289523 
L 100.979908 267.882842 
L 101.220581 267.222796 
L 101.883027 264.909511 
L 101.940216 264.909511 
L 102.062936 264.763575 
L 102.195187 264.894789 
L 102.539515 266.241825 
L 103.618969 270.970148 
L 105.120196 275.184047 
L 105.297721 275.232031 
L 105.490736 274.907405 
L 105.83864 273.36581 
L 106.319985 269.981456 
L 107.039621 265.056812 
L 107.338675 264.287561 
L 107.459011 264.427174 
L 107.63892 265.07624 
L 107.881976 266.697684 
L 108.357364 272.089686 
L 109.264057 282.454697 
L 109.678682 285.180316 
L 110.161219 286.951471 
L 110.759327 288.322256 
L 111.542109 289.660981 
L 111.961499 290.057227 
L 112.199789 290.070879 
L 112.441654 289.814112 
L 112.738325 289.103012 
L 113.101717 287.655671 
L 113.577105 284.804396 
L 114.418269 278.389561 
L 115.853966 268.410882 
L 116.274547 266.768007 
L 116.573601 266.318739 
L 116.75351 266.451721 
L 116.994183 267.054941 
L 117.354001 268.735882 
L 118.014064 271.925751 
L 118.493027 274.365082 
L 118.973181 278.619621 
L 120.36122 292.404335 
L 120.721037 293.687925 
L 121.138045 294.420332 
L 121.557435 294.699794 
L 122.229413 295.189751 
L 122.576125 295.436883 
L 122.995515 295.479385 
L 123.300526 295.35525 
L 123.541199 294.960026 
L 123.897442 293.799998 
L 124.381171 291.359142 
L 125.160379 287.110034 
L 125.458241 286.318706 
L 125.697723 286.144164 
L 125.877632 286.293749 
L 126.474548 287.041134 
L 126.59965 287.000238 
L 126.779559 286.549194 
L 127.078613 284.959165 
L 127.79944 279.017106 
L 128.337975 275.292455 
L 128.759748 273.819706 
L 129.834436 271.746953 
L 130.139447 271.582282 
L 130.38012 271.76411 
L 130.739938 272.43584 
L 131.887304 275.687823 
L 132.712978 278.080784 
L 133.495761 279.720267 
L 134.755123 282.282438 
L 134.992222 282.42695 
L 135.192385 282.290169 
L 136.676931 278.949811 
L 137.457331 278.26512 
L 137.87553 277.389435 
L 138.356875 275.669434 
L 139.015747 272.184563 
L 139.918866 267.592565 
L 140.337065 266.349048 
L 140.636119 265.936603 
L 140.81841 265.921606 
L 141.051935 266.226518 
L 141.551152 267.41118 
L 142.024157 268.744033 
L 142.436399 269.659311 
L 143.153652 271.191955 
L 143.695761 272.249311 
L 143.99839 272.492496 
L 144.175916 272.380974 
L 144.474969 271.722617 
L 144.849085 270.320566 
L 145.613995 266.245527 
L 146.272867 263.725628 
L 146.692257 263.022997 
L 146.869783 263.035623 
L 147.110456 263.336282 
L 147.470274 264.106017 
L 147.830092 266.009666 
L 148.795166 270.714471 
L 149.216939 271.573728 
L 149.454038 271.658293 
L 149.753091 271.437617 
L 150.355965 271.006156 
L 150.538257 271.085913 
L 150.777738 271.516552 
L 151.0756 272.603023 
L 151.554563 275.373962 
L 153.051024 283.999067 
L 153.409651 284.75505 
L 153.589559 284.814499 
L 153.832615 284.556675 
L 154.491487 283.676314 
L 154.614206 283.771422 
L 154.854879 284.418449 
L 155.930758 288.226171 
L 156.115433 287.853811 
L 156.352531 286.828567 
L 157.611893 281.252114 
L 158.213576 279.744479 
L 159.054739 277.086428 
L 159.290646 276.899986 
L 159.481278 277.057775 
L 159.954284 278.219318 
L 160.671536 280.106495 
L 161.577038 281.677785 
L 161.93209 281.992504 
L 162.717255 282.316521 
L 163.134263 282.899193 
L 163.672798 283.676383 
L 163.913471 283.718729 
L 164.154143 283.5645 
L 164.452006 283.063827 
L 165.891277 279.938982 
L 166.310668 279.738325 
L 166.495342 279.871053 
L 166.909967 280.792876 
L 169.669364 288.709328 
L 169.7897 288.528383 
L 169.968418 287.746851 
L 170.272238 285.380709 
L 170.875111 278.315541 
L 171.47441 272.33788 
L 171.894992 270.107722 
L 172.310808 268.922712 
L 172.489525 268.764549 
L 172.670626 268.918373 
L 172.910107 269.529907 
L 173.211544 271.037564 
L 173.567787 273.709432 
L 174.709196 282.15943 
L 175.128587 283.39227 
L 175.308496 283.507986 
L 175.552743 283.357019 
L 175.975707 282.704968 
L 176.38914 282.253285 
L 176.820445 282.154841 
L 177.11235 282.04554 
L 177.355406 281.482146 
L 177.770031 279.599335 
L 178.49324 276.300221 
L 178.85425 275.600123 
L 179.211684 275.478216 
L 179.812175 275.551589 
L 180.124335 275.566942 
L 180.412666 275.160535 
L 180.768909 274.223431 
L 181.13111 272.720514 
L 181.851937 268.527987 
L 183.649835 258.551675 
L 184.492189 255.354688 
L 185.095063 253.8565 
L 185.394117 253.508833 
L 185.514453 253.555663 
L 185.694362 254.038709 
L 185.992224 255.577588 
L 187.187248 262.960171 
L 187.371923 263.045883 
L 187.549449 262.787116 
L 187.908076 261.712957 
L 188.749239 259.344363 
L 188.991103 259.167864 
L 189.168629 259.455875 
L 189.470066 260.622814 
L 189.952603 263.648947 
L 190.67343 268.314847 
L 191.447872 272.577657 
L 192.409373 277.863358 
L 192.772765 278.66348 
L 193.432828 279.476201 
L 193.802177 281.069601 
L 194.568279 286.017888 
L 194.986478 287.858954 
L 195.225959 288.297662 
L 195.346296 288.258213 
L 195.528588 287.934596 
L 195.825259 286.790317 
L 196.189842 284.721983 
L 197.630305 276.625323 
L 198.104502 275.314816 
L 198.828903 273.99634 
L 199.13034 272.579779 
L 200.208602 266.187505 
L 200.327747 266.068036 
L 200.448083 266.217717 
L 200.630375 266.86889 
L 200.929429 268.843209 
L 201.585918 275.830377 
L 202.670137 287.084798 
L 203.269436 290.587202 
L 203.867544 292.912543 
L 204.229745 293.607332 
L 204.419185 293.668021 
L 204.653901 293.344678 
L 205.372345 291.367328 
L 205.846542 290.369225 
L 206.389843 289.789598 
L 206.928378 289.427905 
L 207.484785 289.311122 
L 208.24493 289.373121 
L 208.486794 289.021478 
L 208.846612 288.143401 
L 209.270768 286.595025 
L 210.113123 283.241048 
L 210.589703 281.956265 
L 211.130621 281.163874 
L 211.672731 280.825335 
L 211.975359 280.531299 
L 212.445981 279.597412 
L 214.60608 274.494421 
L 215.087425 273.879279 
L 215.32929 273.840044 
L 215.687916 274.143999 
L 216.291981 275.06326 
L 216.651799 275.390056 
L 216.89128 275.361892 
L 217.25229 274.953471 
L 218.09941 273.464619 
L 218.446122 273.040639 
L 218.74875 272.959823 
L 219.16814 273.06218 
L 219.468386 273.360548 
L 222.051449 277.383103 
L 222.29093 277.290597 
L 222.768701 276.677581 
L 223.670629 275.153317 
L 224.143634 274.020532 
L 224.630937 272.2129 
L 225.8903 266.181894 
L 226.130972 265.898534 
L 226.310881 266.187445 
L 226.668316 267.545226 
L 227.390335 270.319535 
L 227.628625 270.626114 
L 227.808534 270.535489 
L 228.650888 269.77749 
L 228.887987 269.99126 
L 229.258528 270.715205 
L 229.78634 271.81167 
L 230.330833 273.046612 
L 230.866985 275.05642 
L 231.708148 278.255267 
L 232.070349 278.850175 
L 232.250258 278.848477 
L 232.487356 278.605937 
L 232.910321 277.78393 
L 233.867055 275.716702 
L 234.885745 274.285562 
L 236.205871 272.35018 
L 237.223369 270.248071 
L 237.707097 269.752803 
L 238.003768 269.72098 
L 238.483923 269.973329 
L 239.090371 270.239829 
L 239.266705 270.140642 
L 239.507378 269.708507 
L 239.985149 268.151312 
L 240.763166 265.521777 
L 241.245703 264.659063 
L 241.543565 264.499107 
L 241.78543 264.615569 
L 242.085675 265.111928 
L 242.444301 266.397662 
L 242.982837 269.433378 
L 243.653623 272.975417 
L 244.006292 274.115998 
L 244.24339 274.481917 
L 244.482871 274.461576 
L 244.908219 274.029819 
L 245.320461 273.675535 
L 245.503944 273.825593 
L 245.802998 274.632653 
L 246.408254 277.152892 
L 247.243461 280.026729 
L 247.605661 280.474139 
L 247.84276 280.436814 
L 248.143005 280.085831 
L 248.506397 279.264612 
L 248.987743 277.422644 
L 250.254254 271.574436 
L 250.606923 270.74742 
L 251.025122 270.183663 
L 252.22372 268.809042 
L 252.70864 268.323553 
L 252.883783 268.353614 
L 253.062501 268.674671 
L 253.36632 269.773399 
L 253.802391 272.385499 
L 254.265865 276.140294 
L 254.8044 279.410063 
L 255.161835 280.437484 
L 255.341744 280.549481 
L 255.524036 280.43001 
L 255.882662 279.817754 
L 257.439887 276.556823 
L 257.923615 274.494643 
L 258.886307 270.296997 
L 259.186552 269.800407 
L 259.367652 269.944152 
L 259.667898 270.651555 
L 260.267197 273.102482 
L 260.920111 275.564006 
L 261.461029 276.664655 
L 261.88042 277.085719 
L 262.245003 277.121064 
L 263.087358 277.060801 
L 263.567512 277.394391 
L 263.985711 277.646418 
L 264.282382 277.608185 
L 264.586202 277.255261 
L 265.180735 276.089347 
L 266.860679 272.913258 
L 267.219306 272.577835 
L 267.475467 272.625822 
L 269.019586 273.997577 
L 269.504506 274.889193 
L 270.401668 276.247322 
L 270.705487 276.406544 
L 270.879439 276.207054 
L 271.122495 275.519818 
L 271.490653 273.764577 
L 272.14595 270.079993 
L 272.442621 269.227662 
L 272.562957 269.230255 
L 272.744058 269.570893 
L 273.043112 270.692315 
L 274.001037 274.887513 
L 274.483574 275.844927 
L 275.082873 276.363689 
L 275.680981 276.582959 
L 276.101563 276.517233 
L 276.457806 276.170072 
L 276.823581 275.511619 
L 277.418115 274.422311 
L 277.782698 274.182174 
L 278.617905 274.129515 
L 279.820077 273.042306 
L 280.184661 273.251638 
L 280.662432 273.498428 
L 280.961486 273.397991 
L 281.266497 273.053154 
L 282.339993 271.382689 
L 282.521094 271.572992 
L 282.82253 272.27073 
L 284.02232 275.815145 
L 284.202229 275.846844 
L 284.442902 275.596075 
L 284.803911 274.667688 
L 285.340064 272.076103 
L 286.300372 267.570782 
L 286.718571 266.740791 
L 287.140344 266.537058 
L 287.438207 266.38552 
L 287.800407 265.812426 
L 289.177723 263.404244 
L 289.775831 262.830349 
L 290.140414 262.059059 
L 290.619377 260.494408 
L 291.159104 258.797936 
L 291.642832 257.988445 
L 291.82155 257.9341 
L 292.062223 258.17619 
L 292.478038 259.054637 
L 292.89862 260.40795 
L 293.441921 262.976486 
L 295.003912 272.472209 
L 295.718782 277.550103 
L 296.079791 278.786506 
L 296.198936 278.794847 
L 296.381228 278.416695 
L 296.677899 277.063176 
L 297.340345 272.494115 
L 297.995642 268.50226 
L 298.42099 267.287759 
L 298.600898 267.248337 
L 298.84038 267.596854 
L 299.330066 268.830909 
L 299.98298 270.658013 
L 300.40237 272.195546 
L 301.300723 276.261106 
L 301.608117 276.815195 
L 301.722496 276.78955 
L 301.959595 276.383068 
L 302.392091 275.169916 
L 302.80195 273.975353 
L 303.223723 273.330891 
L 303.463204 273.312602 
L 303.877829 273.555745 
L 304.780948 274.232584 
L 304.960857 274.15427 
L 305.200338 273.748011 
L 305.80202 272.13009 
L 306.282175 271.152155 
L 306.522847 270.961032 
L 306.76352 271.0293 
L 307.722637 271.521774 
L 308.376743 271.292856 
L 308.741326 270.998971 
L 309.235778 270.203213 
L 309.695678 269.220581 
L 310.24017 268.409254 
L 311.199287 267.212709 
L 312.282315 264.710924 
L 312.581369 264.485772 
L 312.822042 264.656449 
L 313.477339 265.341629 
L 313.659631 265.318336 
L 313.900303 264.985061 
L 314.318502 263.87811 
L 315.098902 261.719145 
L 315.399147 261.422837 
L 315.580248 261.52911 
L 315.817346 261.983218 
L 316.1164 263.015439 
L 316.60132 265.372966 
L 317.141047 267.968764 
L 317.561629 269.102549 
L 317.98221 269.593605 
L 318.760227 270.262952 
L 319.067621 270.801725 
L 320.199498 273.288591 
L 320.741608 273.868039 
L 321.937823 275.002982 
L 322.476358 275.946268 
L 323.139996 277.605365 
L 324.221832 280.460412 
L 324.520886 280.722818 
L 324.700795 280.511137 
L 324.998657 279.575879 
L 325.429962 277.414721 
L 326.080493 273.551207 
L 326.559456 271.539723 
L 327.038419 270.412859 
L 327.341047 270.111374 
L 327.641292 270.127112 
L 328.474116 270.25899 
L 328.832742 270.13294 
L 329.204474 269.740226 
L 329.741818 268.613385 
L 331.357424 264.38635 
L 331.652904 264.21234 
L 331.893576 264.393183 
L 332.27484 265.086235 
L 332.73474 266.478381 
L 333.697431 269.020831 
L 336.220922 275.541683 
L 336.754691 277.634122 
L 337.597046 281.015713 
L 337.952098 281.725745 
L 338.195154 281.836651 
L 338.439401 281.615228 
L 338.975553 280.565992 
L 339.69638 279.144524 
L 339.99186 278.961046 
L 340.236107 279.124462 
L 340.717453 279.824988 
L 341.316752 281.128484 
L 342.455778 284.378644 
L 342.633304 284.017874 
L 342.934741 282.528348 
L 343.473276 278.345766 
L 344.073766 274.413953 
L 344.496731 273.091965 
L 344.917313 272.334798 
L 345.516612 271.724554 
L 346.058722 271.396035 
L 346.478112 271.358944 
L 347.013073 271.369597 
L 347.259703 271.078412 
L 347.555182 270.23814 
L 347.974572 268.256484 
L 348.763312 265.196403 
L 348.875308 265.16727 
L 349.052835 265.504085 
L 349.29589 266.508842 
L 349.712898 269.30878 
L 350.616016 275.153056 
L 351.273697 278.172824 
L 351.832487 280.179108 
L 352.111286 281.215141 
L 352.771349 282.903296 
L 353.072786 283.167163 
L 353.255078 282.951193 
L 353.554131 282.019691 
L 353.975905 279.751978 
L 355.294839 271.85835 
L 355.713038 270.828465 
L 355.953711 270.771795 
L 356.197958 270.992878 
L 357.214265 272.377772 
L 357.454937 272.05146 
L 357.756374 271.095439 
L 358.230571 268.296801 
L 358.833445 264.791855 
L 359.193263 263.786286 
L 359.375554 263.790337 
L 359.673417 264.169503 
L 360.210761 265.461763 
L 360.933971 267.759675 
L 361.655989 270.13309 
L 362.076571 270.863395 
L 362.917734 271.795497 
L 363.331167 273.036743 
L 364.473768 277.110899 
L 364.714441 277.163931 
L 365.074258 276.939262 
L 365.432885 276.440961 
L 366.212093 275.428599 
L 366.272856 275.428599 
L 366.869773 274.242426 
L 367.594174 272.857036 
L 368.198239 270.818298 
L 369.153782 266.878496 
L 369.449261 266.545173 
L 369.630362 266.792357 
L 369.928224 267.791335 
L 370.832535 270.974379 
L 371.01006 271.059532 
L 371.251925 270.803588 
L 371.672506 269.827551 
L 372.573242 267.357218 
L 372.935443 266.99633 
L 373.233305 266.950614 
L 373.715843 267.21014 
L 374.373523 267.49351 
L 374.792913 267.741962 
L 375.346937 268.483232 
L 375.871175 269.444336 
L 376.474049 270.571509 
L 376.95182 272.097095 
L 377.496312 274.671489 
L 378.333902 278.893696 
L 379.049963 281.037676 
L 379.654028 281.706891 
L 380.071035 281.890535 
L 380.309325 281.806152 
L 380.671526 281.420364 
L 380.91339 280.729691 
L 381.269634 278.623868 
L 381.755745 274.434743 
L 382.413425 268.786031 
L 382.712479 267.625463 
L 382.830433 267.594517 
L 382.95196 267.853967 
L 383.254589 269.256804 
L 383.911078 272.303277 
L 384.213706 272.876356 
L 384.451996 272.932684 
L 384.692668 272.741552 
L 384.992914 272.229978 
L 385.77093 270.579136 
L 386.00922 270.460207 
L 386.195087 270.602853 
L 386.49414 271.346849 
L 386.975486 273.614996 
L 387.509256 275.837577 
L 388.293229 277.88146 
L 388.475521 277.888801 
L 388.65543 277.460397 
L 389.076012 275.362999 
L 390.091127 269.560288 
L 390.994246 266.825071 
L 393.990742 251.8545 
L 394.109887 252.023091 
L 394.289796 252.814161 
L 394.590041 255.307023 
L 394.946284 259.590679 
L 395.791022 269.327775 
L 396.393896 272.915349 
L 396.454659 272.915349 
L 396.632186 273.702262 
L 396.992003 274.326273 
L 397.174295 274.290443 
L 397.414968 273.993897 
L 397.773594 273.232091 
L 398.310938 272.285923 
L 398.487273 272.093933 
L 398.487273 272.093933 
" style="fill:none;stroke:#ff7f0e;stroke-linecap:square;stroke-width:1.5;"/>
   </g>
   <g id="line2d_17">
    <path clip-path="url(#pe63680e3a4)" d="M 73.832727 65.473846 
L 73.98285 63.637461 
L 74.40224 60.532595 
L 74.765632 59.244786 
L 75.729515 58.007282 
L 76.200138 57.880434 
L 77.521455 57.837524 
L 80.22128 57.766002 
L 81.185163 57.335007 
L 81.802334 56.751911 
L 82.197895 56.300155 
L 82.922297 55.871662 
L 83.340496 56.123696 
L 84.54386 57.062668 
L 85.197966 57.243363 
L 86.339374 57.253698 
L 87.355681 57.280393 
L 87.779837 57.583335 
L 88.380328 58.289664 
L 89.155962 59.174643 
L 90.236606 59.978732 
L 91.142108 60.355972 
L 91.681835 60.373044 
L 92.051184 60.165015 
L 92.578996 59.464018 
L 93.897931 57.484588 
L 94.140987 57.534035 
L 94.441232 57.885291 
L 94.85824 58.737385 
L 97.082676 63.417307 
L 97.322157 63.465074 
L 97.616445 63.199272 
L 98.044176 62.472602 
L 98.655389 60.852828 
L 99.539445 57.726215 
L 100.019599 56.656415 
L 100.442564 56.290277 
L 101.340917 55.949429 
L 101.883027 55.59516 
L 102.301226 55.667065 
L 102.899333 56.275907 
L 103.503398 56.817298 
L 105.179768 57.838054 
L 105.490736 57.751303 
L 105.966125 57.201659 
L 106.918093 55.720255 
L 107.338675 55.471945 
L 107.63892 55.615245 
L 107.939165 56.03061 
L 108.357364 57.075705 
L 109.621492 60.557282 
L 110.101647 61.161887 
L 110.880855 61.747941 
L 111.842354 62.234901 
L 112.327275 62.234317 
L 112.738325 61.937693 
L 113.162481 61.354579 
L 113.822544 60.009006 
L 115.078332 57.401289 
L 116.274547 55.922368 
L 116.633173 55.841296 
L 116.994183 55.988303 
L 117.474337 56.480074 
L 118.794463 58.245275 
L 119.332998 59.931915 
L 120.181311 62.846263 
L 120.660274 63.646664 
L 121.196426 64.081548 
L 122.514169 64.535988 
L 123.177807 64.504747 
L 123.478052 64.350948 
L 123.83787 63.902259 
L 124.381171 62.819513 
L 124.917323 61.657064 
L 124.979279 61.657064 
L 125.216377 61.214072 
L 125.63815 60.961864 
L 125.997968 61.070207 
L 126.536503 61.270658 
L 126.779559 61.114413 
L 127.135802 60.482893 
L 127.857821 58.71383 
L 128.337975 57.859929 
L 128.759748 57.489153 
L 129.959538 56.966916 
L 130.38012 56.995474 
L 130.919847 57.268726 
L 133.738817 59.17278 
L 134.879034 59.800173 
L 135.231703 59.749157 
L 135.898915 59.314455 
L 136.19916 59.055208 
L 136.74127 58.833849 
L 137.695621 58.515149 
L 138.23773 58.073527 
L 139.136083 56.931538 
L 139.976055 56.037968 
L 140.518165 55.7737 
L 140.936364 55.769902 
L 141.597618 56.082667 
L 142.858172 56.717291 
L 144.059153 57.175237 
L 144.415397 57.054342 
L 144.896743 56.657382 
L 146.033386 55.543686 
L 146.637451 55.321597 
L 147.110456 55.389339 
L 147.651374 55.670315 
L 148.429391 56.446614 
L 149.034647 56.888985 
L 149.51361 56.964341 
L 150.65621 56.890299 
L 151.01722 57.145182 
L 151.554563 57.893654 
L 152.402875 59.417602 
L 152.811543 60.09918 
L 153.352461 60.611256 
L 153.651515 60.666162 
L 154.671396 60.515029 
L 155.034788 60.9595 
L 155.872377 62.080737 
L 156.049903 62.025393 
L 156.352531 61.628315 
L 157.79776 59.414297 
L 159.290646 58.26421 
L 159.65523 58.402014 
L 160.372482 59.008208 
L 161.517466 59.808609 
L 162.114382 59.981435 
L 163.134263 60.209969 
L 163.850324 60.432369 
L 164.334052 60.320895 
L 165.966339 59.532016 
L 166.445301 59.670367 
L 167.09345 60.363312 
L 167.872658 61.181132 
L 169.011684 61.976604 
L 169.6086 62.50514 
L 169.7897 62.450161 
L 170.029182 62.061236 
L 170.453338 60.764599 
L 171.47441 57.462001 
L 171.955756 56.806361 
L 172.367998 56.532926 
L 172.670626 56.542074 
L 172.972062 56.744169 
L 173.391453 57.36351 
L 173.991944 58.763915 
L 174.709196 60.217346 
L 175.188159 60.703229 
L 175.552743 60.72777 
L 176.096043 60.49089 
L 177.530549 59.512825 
L 178.614768 58.058883 
L 179.034158 57.922814 
L 180.650956 57.70182 
L 181.13111 57.244897 
L 183.468734 54.6185 
L 184.309898 54.148786 
L 185.272589 53.879378 
L 185.694362 53.938776 
L 186.113752 54.254417 
L 187.132442 55.260209 
L 187.432687 55.280386 
L 187.908076 55.025247 
L 188.810003 54.570442 
L 189.168629 54.619559 
L 189.586828 54.979617 
L 190.071748 55.737254 
L 191.333493 58.38653 
L 192.347417 60.548517 
L 192.772765 60.908739 
L 193.187389 60.952251 
L 193.491209 61.026037 
L 193.847452 61.344372 
L 194.446751 62.206435 
L 194.986478 62.843414 
L 195.285532 62.928138 
L 195.58816 62.708824 
L 196.132653 61.846944 
L 196.971433 60.420829 
L 197.991314 59.153224 
L 199.067193 58.002955 
L 200.406383 55.987883 
L 200.630375 56.067348 
L 200.929429 56.413711 
L 201.408392 57.477047 
L 202.066072 59.520238 
L 202.850046 61.706419 
L 203.686444 63.16562 
L 204.229745 63.688551 
L 204.52999 63.710554 
L 205.008953 63.414076 
L 205.31039 63.101894 
L 205.906114 62.77087 
L 208.613088 61.930389 
L 209.270768 61.139245 
L 210.048785 60.120644 
L 210.712422 59.600689 
L 211.309338 59.395518 
L 212.269647 59.117728 
L 215.32929 57.486834 
L 215.990544 57.673884 
L 216.769752 57.877439 
L 217.313053 57.738814 
L 218.628414 57.276778 
L 219.410005 57.351094 
L 221.031568 58.025359 
L 221.988302 58.388301 
L 222.470839 58.318112 
L 223.850538 57.752892 
L 224.451028 57.299201 
L 226.008253 55.755258 
L 226.310881 55.805417 
L 226.848225 56.254616 
L 227.390335 56.672227 
L 227.744195 56.734784 
L 228.951134 56.623931 
L 230.270069 57.259678 
L 230.866985 57.806136 
L 231.828485 58.719764 
L 232.250258 58.807081 
L 232.728029 58.62235 
L 234.828555 57.728917 
L 236.506116 57.298525 
L 237.881049 56.638721 
L 238.667406 56.669324 
L 239.387041 56.652909 
L 240.884694 56.24786 
L 241.364848 56.474003 
L 241.78543 56.990708 
L 242.265584 58.042669 
L 243.704855 61.801733 
L 243.944336 61.812963 
L 244.183818 61.61514 
L 244.543636 60.951922 
L 245.320461 59.44605 
L 245.623089 59.233073 
L 245.981715 59.24569 
L 246.527399 59.55201 
L 247.124315 59.861069 
L 247.664042 59.908123 
L 248.085815 59.721968 
L 248.625542 59.21023 
L 249.22365 58.311593 
L 250.06243 57.18088 
L 250.606923 56.867201 
L 251.440938 56.696713 
L 253.123265 56.395944 
L 253.481891 56.740901 
L 253.962045 57.556165 
L 255.107028 59.351394 
L 255.404891 59.39235 
L 255.882662 59.156785 
L 257.747281 57.912899 
L 259.066215 56.576292 
L 259.367652 56.584418 
L 259.78466 56.834444 
L 261.700511 58.313712 
L 262.304576 58.371557 
L 263.567512 58.434936 
L 264.219235 58.508375 
L 264.704155 58.346743 
L 267.101352 57.200435 
L 267.580315 57.21623 
L 268.600196 57.50429 
L 269.263833 57.868839 
L 270.116911 58.33681 
L 270.585151 58.437163 
L 270.879439 58.32799 
L 271.253554 57.925279 
L 272.024422 56.73787 
L 272.442621 56.431678 
L 272.744058 56.513772 
L 273.162257 56.898333 
L 274.001037 57.77557 
L 274.662292 58.105755 
L 275.680981 58.305312 
L 276.344619 58.248343 
L 277.06068 57.910069 
L 277.782698 57.675217 
L 278.919341 57.507157 
L 279.760505 57.325604 
L 281.398748 57.27634 
L 282.040939 56.965985 
L 282.463904 56.940823 
L 282.944058 57.221981 
L 284.02232 58.047252 
L 284.382138 58.025724 
L 284.803911 57.767408 
L 285.522355 56.872971 
L 286.121655 56.21576 
L 286.662573 55.928558 
L 290.377513 54.934954 
L 291.159104 54.622864 
L 291.642832 54.710856 
L 292.062223 55.046537 
L 292.656756 55.901461 
L 293.200057 57.022004 
L 294.398656 59.717568 
L 294.820429 60.171004 
L 295.478109 60.567552 
L 295.842692 60.535215 
L 296.140555 60.307931 
L 296.564711 59.52389 
L 297.340345 57.750756 
L 297.936069 56.775119 
L 298.42099 56.42463 
L 298.779616 56.448504 
L 299.562398 56.831961 
L 300.40237 57.338002 
L 301.481824 58.336043 
L 301.783261 58.3216 
L 302.320604 57.935888 
L 303.223723 57.401618 
L 303.762258 57.421794 
L 305.080002 57.55465 
L 305.695981 57.20332 
L 306.168987 56.952692 
L 306.638418 56.877034 
L 308.441081 56.946465 
L 309.235778 56.728338 
L 309.936351 56.461112 
L 311.504298 55.949721 
L 312.282315 55.575421 
L 312.762469 55.558787 
L 313.779967 55.722263 
L 314.318502 55.470922 
L 315.219238 55.040092 
L 315.700584 55.070329 
L 316.1164 55.311226 
L 316.656127 55.845898 
L 317.442483 56.541353 
L 318.0394 56.718031 
L 318.942519 56.931639 
L 321.099042 57.826386 
L 322.416786 58.195518 
L 323.261524 58.685747 
L 324.342169 59.33612 
L 324.641222 59.318801 
L 324.998657 59.014672 
L 325.540767 58.230814 
L 326.321166 57.181555 
L 326.860893 56.799185 
L 327.40062 56.663956 
L 329.741818 56.598222 
L 331.357424 56.068699 
L 331.832813 56.153569 
L 332.433303 56.527065 
L 334.596976 57.858851 
L 335.738384 58.221155 
L 336.278111 58.418813 
L 336.754691 58.853843 
L 337.717382 59.791482 
L 338.137964 59.892803 
L 338.55378 59.728962 
L 340.055007 58.978135 
L 340.593542 59.165732 
L 341.316752 59.606825 
L 342.455778 60.540264 
L 342.694068 60.343427 
L 343.118224 59.563769 
L 343.957004 57.845175 
L 344.375203 57.463134 
L 345.032883 57.192292 
L 346.11472 57.054762 
L 347.499184 56.933629 
L 348.875308 56.002417 
L 349.174363 56.184445 
L 349.655708 56.827797 
L 350.431342 57.941786 
L 351.273697 58.75716 
L 351.871804 59.271892 
L 352.771349 59.959925 
L 353.132358 60.022226 
L 353.436178 59.825171 
L 353.912758 59.142451 
L 355.235267 57.131616 
L 355.713038 56.885497 
L 356.197958 56.929867 
L 357.33341 57.182541 
L 357.756374 56.915388 
L 359.072926 55.656502 
L 359.375554 55.705903 
L 360.032043 56.115845 
L 360.933971 56.583249 
L 361.894279 56.983778 
L 363.153641 57.317989 
L 363.577798 57.715643 
L 364.234286 58.382385 
L 364.594104 58.516756 
L 365.135022 58.425185 
L 367.713319 57.342694 
L 368.369808 56.747876 
L 369.153782 56.048522 
L 369.569598 56.01435 
L 369.99018 56.311622 
L 370.889724 56.9675 
L 371.251925 56.916629 
L 373.054588 56.335451 
L 373.715843 56.490455 
L 376.95182 57.732533 
L 377.496312 58.355343 
L 378.750909 59.968288 
L 379.22868 60.204108 
L 380.132991 60.291059 
L 380.793054 60.087531 
L 381.090916 59.697318 
L 381.512689 58.757269 
L 382.531379 56.532698 
L 382.830433 56.367898 
L 383.073488 56.501484 
L 384.213706 57.453219 
L 384.635479 57.421977 
L 385.232395 57.105377 
L 385.835269 56.853854 
L 386.252276 56.89271 
L 386.675241 57.223771 
L 388.175276 58.857312 
L 388.535094 58.916692 
L 388.830573 58.634128 
L 389.314302 57.876289 
L 389.914792 56.961365 
L 390.334183 56.6444 
L 390.883441 56.240246 
L 391.89379 55.124103 
L 393.692879 53.652395 
L 394.109887 53.587355 
L 394.420855 53.781945 
L 394.892669 54.50416 
L 396.032886 56.91568 
L 396.572613 57.485602 
L 397.049193 57.636634 
L 397.532921 57.478727 
L 398.310938 57.183728 
L 398.487273 57.16315 
L 398.487273 57.16315 
" style="fill:none;stroke:#2ca02c;stroke-linecap:square;stroke-width:1.5;"/>
   </g>
   <g id="patch_3">
    <path d="M 57.6 307.584 
L 57.6 41.472 
" style="fill:none;stroke:#000000;stroke-linecap:square;stroke-linejoin:miter;stroke-width:0.8;"/>
   </g>
   <g id="patch_4">
    <path d="M 414.72 307.584 
L 414.72 41.472 
" style="fill:none;stroke:#000000;stroke-linecap:square;stroke-linejoin:miter;stroke-width:0.8;"/>
   </g>
   <g id="patch_5">
    <path d="M 57.6 307.584 
L 414.72 307.584 
" style="fill:none;stroke:#000000;stroke-linecap:square;stroke-linejoin:miter;stroke-width:0.8;"/>
   </g>
   <g id="patch_6">
    <path d="M 57.6 41.472 
L 414.72 41.472 
" style="fill:none;stroke:#000000;stroke-linecap:square;stroke-linejoin:miter;stroke-width:0.8;"/>
   </g>
   <g id="text_17">
    <!-- Vivo 1716/car_on_backseat/grav Dec 09 121458.txt -->
    <defs>
     <path d="M 28.609375 0 
L 0.78125 72.90625 
L 11.078125 72.90625 
L 34.1875 11.53125 
L 57.328125 72.90625 
L 67.578125 72.90625 
L 39.796875 0 
z
" id="DejaVuSans-86"/>
     <path d="M 2.984375 54.6875 
L 12.5 54.6875 
L 29.59375 8.796875 
L 46.6875 54.6875 
L 56.203125 54.6875 
L 35.6875 0 
L 23.484375 0 
z
" id="DejaVuSans-118"/>
     <path d="M 8.203125 72.90625 
L 55.078125 72.90625 
L 55.078125 68.703125 
L 28.609375 0 
L 18.3125 0 
L 43.21875 64.59375 
L 8.203125 64.59375 
z
" id="DejaVuSans-55"/>
     <path d="M 25.390625 72.90625 
L 33.6875 72.90625 
L 8.296875 -9.28125 
L 0 -9.28125 
z
" id="DejaVuSans-47"/>
     <path d="M 41.109375 46.296875 
Q 39.59375 47.171875 37.8125 47.578125 
Q 36.03125 48 33.890625 48 
Q 26.265625 48 22.1875 43.046875 
Q 18.109375 38.09375 18.109375 28.8125 
L 18.109375 0 
L 9.078125 0 
L 9.078125 54.6875 
L 18.109375 54.6875 
L 18.109375 46.1875 
Q 20.953125 51.171875 25.484375 53.578125 
Q 30.03125 56 36.53125 56 
Q 37.453125 56 38.578125 55.875 
Q 39.703125 55.765625 41.0625 55.515625 
z
" id="DejaVuSans-114"/>
     <path d="M 50.984375 -16.609375 
L 50.984375 -23.578125 
L -0.984375 -23.578125 
L -0.984375 -16.609375 
z
" id="DejaVuSans-95"/>
     <path d="M 48.6875 27.296875 
Q 48.6875 37.203125 44.609375 42.84375 
Q 40.53125 48.484375 33.40625 48.484375 
Q 26.265625 48.484375 22.1875 42.84375 
Q 18.109375 37.203125 18.109375 27.296875 
Q 18.109375 17.390625 22.1875 11.75 
Q 26.265625 6.109375 33.40625 6.109375 
Q 40.53125 6.109375 44.609375 11.75 
Q 48.6875 17.390625 48.6875 27.296875 
z
M 18.109375 46.390625 
Q 20.953125 51.265625 25.265625 53.625 
Q 29.59375 56 35.59375 56 
Q 45.5625 56 51.78125 48.09375 
Q 58.015625 40.1875 58.015625 27.296875 
Q 58.015625 14.40625 51.78125 6.484375 
Q 45.5625 -1.421875 35.59375 -1.421875 
Q 29.59375 -1.421875 25.265625 0.953125 
Q 20.953125 3.328125 18.109375 8.203125 
L 18.109375 0 
L 9.078125 0 
L 9.078125 75.984375 
L 18.109375 75.984375 
z
" id="DejaVuSans-98"/>
     <path d="M 9.078125 75.984375 
L 18.109375 75.984375 
L 18.109375 31.109375 
L 44.921875 54.6875 
L 56.390625 54.6875 
L 27.390625 29.109375 
L 57.625 0 
L 45.90625 0 
L 18.109375 26.703125 
L 18.109375 0 
L 9.078125 0 
z
" id="DejaVuSans-107"/>
     <path d="M 19.671875 64.796875 
L 19.671875 8.109375 
L 31.59375 8.109375 
Q 46.6875 8.109375 53.6875 14.9375 
Q 60.6875 21.78125 60.6875 36.53125 
Q 60.6875 51.171875 53.6875 57.984375 
Q 46.6875 64.796875 31.59375 64.796875 
z
M 9.8125 72.90625 
L 30.078125 72.90625 
Q 51.265625 72.90625 61.171875 64.09375 
Q 71.09375 55.28125 71.09375 36.53125 
Q 71.09375 17.671875 61.125 8.828125 
Q 51.171875 0 30.078125 0 
L 9.8125 0 
z
" id="DejaVuSans-68"/>
     <path d="M 10.984375 1.515625 
L 10.984375 10.5 
Q 14.703125 8.734375 18.5 7.8125 
Q 22.3125 6.890625 25.984375 6.890625 
Q 35.75 6.890625 40.890625 13.453125 
Q 46.046875 20.015625 46.78125 33.40625 
Q 43.953125 29.203125 39.59375 26.953125 
Q 35.25 24.703125 29.984375 24.703125 
Q 19.046875 24.703125 12.671875 31.3125 
Q 6.296875 37.9375 6.296875 49.421875 
Q 6.296875 60.640625 12.9375 67.421875 
Q 19.578125 74.21875 30.609375 74.21875 
Q 43.265625 74.21875 49.921875 64.515625 
Q 56.59375 54.828125 56.59375 36.375 
Q 56.59375 19.140625 48.40625 8.859375 
Q 40.234375 -1.421875 26.421875 -1.421875 
Q 22.703125 -1.421875 18.890625 -0.6875 
Q 15.09375 0.046875 10.984375 1.515625 
z
M 30.609375 32.421875 
Q 37.25 32.421875 41.125 36.953125 
Q 45.015625 41.5 45.015625 49.421875 
Q 45.015625 57.28125 41.125 61.84375 
Q 37.25 66.40625 30.609375 66.40625 
Q 23.96875 66.40625 20.09375 61.84375 
Q 16.21875 57.28125 16.21875 49.421875 
Q 16.21875 41.5 20.09375 36.953125 
Q 23.96875 32.421875 30.609375 32.421875 
z
" id="DejaVuSans-57"/>
     <path d="M 10.6875 12.40625 
L 21 12.40625 
L 21 0 
L 10.6875 0 
z
" id="DejaVuSans-46"/>
     <path d="M 54.890625 54.6875 
L 35.109375 28.078125 
L 55.90625 0 
L 45.3125 0 
L 29.390625 21.484375 
L 13.484375 0 
L 2.875 0 
L 24.125 28.609375 
L 4.6875 54.6875 
L 15.28125 54.6875 
L 29.78125 35.203125 
L 44.28125 54.6875 
z
" id="DejaVuSans-120"/>
    </defs>
    <g transform="translate(80.38875 35.472)scale(0.12 -0.12)">
     <use xlink:href="#DejaVuSans-86"/>
     <use x="68.376953" xlink:href="#DejaVuSans-105"/>
     <use x="96.160156" xlink:href="#DejaVuSans-118"/>
     <use x="155.339844" xlink:href="#DejaVuSans-111"/>
     <use x="216.521484" xlink:href="#DejaVuSans-32"/>
     <use x="248.308594" xlink:href="#DejaVuSans-49"/>
     <use x="311.931641" xlink:href="#DejaVuSans-55"/>
     <use x="375.554688" xlink:href="#DejaVuSans-49"/>
     <use x="439.177734" xlink:href="#DejaVuSans-54"/>
     <use x="502.800781" xlink:href="#DejaVuSans-47"/>
     <use x="536.492188" xlink:href="#DejaVuSans-99"/>
     <use x="591.472656" xlink:href="#DejaVuSans-97"/>
     <use x="652.751953" xlink:href="#DejaVuSans-114"/>
     <use x="693.865234" xlink:href="#DejaVuSans-95"/>
     <use x="743.865234" xlink:href="#DejaVuSans-111"/>
     <use x="805.046875" xlink:href="#DejaVuSans-110"/>
     <use x="868.425781" xlink:href="#DejaVuSans-95"/>
     <use x="918.425781" xlink:href="#DejaVuSans-98"/>
     <use x="981.902344" xlink:href="#DejaVuSans-97"/>
     <use x="1043.181641" xlink:href="#DejaVuSans-99"/>
     <use x="1098.162109" xlink:href="#DejaVuSans-107"/>
     <use x="1156.072266" xlink:href="#DejaVuSans-115"/>
     <use x="1208.171875" xlink:href="#DejaVuSans-101"/>
     <use x="1269.695312" xlink:href="#DejaVuSans-97"/>
     <use x="1330.974609" xlink:href="#DejaVuSans-116"/>
     <use x="1370.183594" xlink:href="#DejaVuSans-47"/>
     <use x="1403.875" xlink:href="#DejaVuSans-103"/>
     <use x="1467.351562" xlink:href="#DejaVuSans-114"/>
     <use x="1508.464844" xlink:href="#DejaVuSans-97"/>
     <use x="1569.744141" xlink:href="#DejaVuSans-118"/>
     <use x="1628.923828" xlink:href="#DejaVuSans-32"/>
     <use x="1660.710938" xlink:href="#DejaVuSans-68"/>
     <use x="1737.712891" xlink:href="#DejaVuSans-101"/>
     <use x="1799.236328" xlink:href="#DejaVuSans-99"/>
     <use x="1854.216797" xlink:href="#DejaVuSans-32"/>
     <use x="1886.003906" xlink:href="#DejaVuSans-48"/>
     <use x="1949.626953" xlink:href="#DejaVuSans-57"/>
     <use x="2013.25" xlink:href="#DejaVuSans-32"/>
     <use x="2045.037109" xlink:href="#DejaVuSans-49"/>
     <use x="2108.660156" xlink:href="#DejaVuSans-50"/>
     <use x="2172.283203" xlink:href="#DejaVuSans-49"/>
     <use x="2235.90625" xlink:href="#DejaVuSans-52"/>
     <use x="2299.529297" xlink:href="#DejaVuSans-53"/>
     <use x="2363.152344" xlink:href="#DejaVuSans-56"/>
     <use x="2426.775391" xlink:href="#DejaVuSans-46"/>
     <use x="2458.5625" xlink:href="#DejaVuSans-116"/>
     <use x="2497.771484" xlink:href="#DejaVuSans-120"/>
     <use x="2556.951172" xlink:href="#DejaVuSans-116"/>
    </g>
   </g>
   <g id="legend_1">
    <g id="patch_7">
     <path d="M 344.52 198.045187 
L 407.72 198.045187 
Q 409.72 198.045187 409.72 196.045187 
L 409.72 153.010812 
Q 409.72 151.010812 407.72 151.010812 
L 344.52 151.010812 
Q 342.52 151.010812 342.52 153.010812 
L 342.52 196.045187 
Q 342.52 198.045187 344.52 198.045187 
z
" style="fill:#ffffff;opacity:0.8;stroke:#cccccc;stroke-linejoin:miter;"/>
    </g>
    <g id="line2d_18">
     <path d="M 346.52 159.10925 
L 366.52 159.10925 
" style="fill:none;stroke:#1f77b4;stroke-linecap:square;stroke-width:1.5;"/>
    </g>
    <g id="line2d_19"/>
    <g id="text_18">
     <!-- X-Axis -->
     <defs>
      <path d="M 6.296875 72.90625 
L 16.890625 72.90625 
L 35.015625 45.796875 
L 53.21875 72.90625 
L 63.8125 72.90625 
L 40.375 37.890625 
L 65.375 0 
L 54.78125 0 
L 34.28125 31 
L 13.625 0 
L 2.984375 0 
L 29 38.921875 
z
" id="DejaVuSans-88"/>
      <path d="M 4.890625 31.390625 
L 31.203125 31.390625 
L 31.203125 23.390625 
L 4.890625 23.390625 
z
" id="DejaVuSans-45"/>
      <path d="M 34.1875 63.1875 
L 20.796875 26.90625 
L 47.609375 26.90625 
z
M 28.609375 72.90625 
L 39.796875 72.90625 
L 67.578125 0 
L 57.328125 0 
L 50.6875 18.703125 
L 17.828125 18.703125 
L 11.1875 0 
L 0.78125 0 
z
" id="DejaVuSans-65"/>
     </defs>
     <g transform="translate(374.52 162.60925)scale(0.1 -0.1)">
      <use xlink:href="#DejaVuSans-88"/>
      <use x="68.427734" xlink:href="#DejaVuSans-45"/>
      <use x="104.480469" xlink:href="#DejaVuSans-65"/>
      <use x="172.888672" xlink:href="#DejaVuSans-120"/>
      <use x="232.068359" xlink:href="#DejaVuSans-105"/>
      <use x="259.851562" xlink:href="#DejaVuSans-115"/>
     </g>
    </g>
    <g id="line2d_20">
     <path d="M 346.52 173.787375 
L 366.52 173.787375 
" style="fill:none;stroke:#ff7f0e;stroke-linecap:square;stroke-width:1.5;"/>
    </g>
    <g id="line2d_21"/>
    <g id="text_19">
     <!-- Y-Axis -->
     <defs>
      <path d="M -0.203125 72.90625 
L 10.40625 72.90625 
L 30.609375 42.921875 
L 50.6875 72.90625 
L 61.28125 72.90625 
L 35.5 34.71875 
L 35.5 0 
L 25.59375 0 
L 25.59375 34.71875 
z
" id="DejaVuSans-89"/>
     </defs>
     <g transform="translate(374.52 177.287375)scale(0.1 -0.1)">
      <use xlink:href="#DejaVuSans-89"/>
      <use x="60.912109" xlink:href="#DejaVuSans-45"/>
      <use x="96.964844" xlink:href="#DejaVuSans-65"/>
      <use x="165.373047" xlink:href="#DejaVuSans-120"/>
      <use x="224.552734" xlink:href="#DejaVuSans-105"/>
      <use x="252.335938" xlink:href="#DejaVuSans-115"/>
     </g>
    </g>
    <g id="line2d_22">
     <path d="M 346.52 188.4655 
L 366.52 188.4655 
" style="fill:none;stroke:#2ca02c;stroke-linecap:square;stroke-width:1.5;"/>
    </g>
    <g id="line2d_23"/>
    <g id="text_20">
     <!-- Z-Axis -->
     <defs>
      <path d="M 5.609375 72.90625 
L 62.890625 72.90625 
L 62.890625 65.375 
L 16.796875 8.296875 
L 64.015625 8.296875 
L 64.015625 0 
L 4.5 0 
L 4.5 7.515625 
L 50.59375 64.59375 
L 5.609375 64.59375 
z
" id="DejaVuSans-90"/>
     </defs>
     <g transform="translate(374.52 191.9655)scale(0.1 -0.1)">
      <use xlink:href="#DejaVuSans-90"/>
      <use x="68.490234" xlink:href="#DejaVuSans-45"/>
      <use x="104.542969" xlink:href="#DejaVuSans-65"/>
      <use x="172.951172" xlink:href="#DejaVuSans-120"/>
      <use x="232.130859" xlink:href="#DejaVuSans-105"/>
      <use x="259.914062" xlink:href="#DejaVuSans-115"/>
     </g>
    </g>
   </g>
  </g>
 </g>
 <defs>
  <clipPath id="pe63680e3a4">
   <rect height="266.112" width="357.12" x="57.6" y="41.472"/>
  </clipPath>
 </defs>
</svg>
