<?xml version="1.0" encoding="utf-8" standalone="no"?>
<!DOCTYPE svg PUBLIC "-//W3C//DTD SVG 1.1//EN"
  "http://www.w3.org/Graphics/SVG/1.1/DTD/svg11.dtd">
<!-- Created with matplotlib (https://matplotlib.org/) -->
<svg height="345.6pt" version="1.1" viewBox="0 0 460.8 345.6" width="460.8pt" xmlns="http://www.w3.org/2000/svg" xmlns:xlink="http://www.w3.org/1999/xlink">
 <defs>
  <style type="text/css">
*{stroke-linecap:butt;stroke-linejoin:round;}
  </style>
 </defs>
 <g id="figure_1">
  <g id="patch_1">
   <path d="M 0 345.6 
L 460.8 345.6 
L 460.8 0 
L 0 0 
z
" style="fill:#ffffff;"/>
  </g>
  <g id="axes_1">
   <g id="patch_2">
    <path d="M 57.6 307.584 
L 414.72 307.584 
L 414.72 41.472 
L 57.6 41.472 
z
" style="fill:#ffffff;"/>
   </g>
   <g id="matplotlib.axis_1">
    <g id="xtick_1">
     <g id="line2d_1">
      <defs>
       <path d="M 0 0 
L 0 3.5 
" id="m99247d8218" style="stroke:#000000;stroke-width:0.8;"/>
      </defs>
      <g>
       <use style="stroke:#000000;stroke-width:0.8;" x="73.832727" xlink:href="#m99247d8218" y="307.584"/>
      </g>
     </g>
     <g id="text_1">
      <!-- 0 -->
      <defs>
       <path d="M 31.78125 66.40625 
Q 24.171875 66.40625 20.328125 58.90625 
Q 16.5 51.421875 16.5 36.375 
Q 16.5 21.390625 20.328125 13.890625 
Q 24.171875 6.390625 31.78125 6.390625 
Q 39.453125 6.390625 43.28125 13.890625 
Q 47.125 21.390625 47.125 36.375 
Q 47.125 51.421875 43.28125 58.90625 
Q 39.453125 66.40625 31.78125 66.40625 
z
M 31.78125 74.21875 
Q 44.046875 74.21875 50.515625 64.515625 
Q 56.984375 54.828125 56.984375 36.375 
Q 56.984375 17.96875 50.515625 8.265625 
Q 44.046875 -1.421875 31.78125 -1.421875 
Q 19.53125 -1.421875 13.0625 8.265625 
Q 6.59375 17.96875 6.59375 36.375 
Q 6.59375 54.828125 13.0625 64.515625 
Q 19.53125 74.21875 31.78125 74.21875 
z
" id="DejaVuSans-48"/>
      </defs>
      <g transform="translate(70.651477 322.182437)scale(0.1 -0.1)">
       <use xlink:href="#DejaVuSans-48"/>
      </g>
     </g>
    </g>
    <g id="xtick_2">
     <g id="line2d_2">
      <g>
       <use style="stroke:#000000;stroke-width:0.8;" x="139.645261" xlink:href="#m99247d8218" y="307.584"/>
      </g>
     </g>
     <g id="text_2">
      <!-- 50 -->
      <defs>
       <path d="M 10.796875 72.90625 
L 49.515625 72.90625 
L 49.515625 64.59375 
L 19.828125 64.59375 
L 19.828125 46.734375 
Q 21.96875 47.46875 24.109375 47.828125 
Q 26.265625 48.1875 28.421875 48.1875 
Q 40.625 48.1875 47.75 41.5 
Q 54.890625 34.8125 54.890625 23.390625 
Q 54.890625 11.625 47.5625 5.09375 
Q 40.234375 -1.421875 26.90625 -1.421875 
Q 22.3125 -1.421875 17.546875 -0.640625 
Q 12.796875 0.140625 7.71875 1.703125 
L 7.71875 11.625 
Q 12.109375 9.234375 16.796875 8.0625 
Q 21.484375 6.890625 26.703125 6.890625 
Q 35.15625 6.890625 40.078125 11.328125 
Q 45.015625 15.765625 45.015625 23.390625 
Q 45.015625 31 40.078125 35.4375 
Q 35.15625 39.890625 26.703125 39.890625 
Q 22.75 39.890625 18.8125 39.015625 
Q 14.890625 38.140625 10.796875 36.28125 
z
" id="DejaVuSans-53"/>
      </defs>
      <g transform="translate(133.282761 322.182437)scale(0.1 -0.1)">
       <use xlink:href="#DejaVuSans-53"/>
       <use x="63.623047" xlink:href="#DejaVuSans-48"/>
      </g>
     </g>
    </g>
    <g id="xtick_3">
     <g id="line2d_3">
      <g>
       <use style="stroke:#000000;stroke-width:0.8;" x="205.457795" xlink:href="#m99247d8218" y="307.584"/>
      </g>
     </g>
     <g id="text_3">
      <!-- 100 -->
      <defs>
       <path d="M 12.40625 8.296875 
L 28.515625 8.296875 
L 28.515625 63.921875 
L 10.984375 60.40625 
L 10.984375 69.390625 
L 28.421875 72.90625 
L 38.28125 72.90625 
L 38.28125 8.296875 
L 54.390625 8.296875 
L 54.390625 0 
L 12.40625 0 
z
" id="DejaVuSans-49"/>
      </defs>
      <g transform="translate(195.914045 322.182437)scale(0.1 -0.1)">
       <use xlink:href="#DejaVuSans-49"/>
       <use x="63.623047" xlink:href="#DejaVuSans-48"/>
       <use x="127.246094" xlink:href="#DejaVuSans-48"/>
      </g>
     </g>
    </g>
    <g id="xtick_4">
     <g id="line2d_4">
      <g>
       <use style="stroke:#000000;stroke-width:0.8;" x="271.270329" xlink:href="#m99247d8218" y="307.584"/>
      </g>
     </g>
     <g id="text_4">
      <!-- 150 -->
      <g transform="translate(261.726579 322.182437)scale(0.1 -0.1)">
       <use xlink:href="#DejaVuSans-49"/>
       <use x="63.623047" xlink:href="#DejaVuSans-53"/>
       <use x="127.246094" xlink:href="#DejaVuSans-48"/>
      </g>
     </g>
    </g>
    <g id="xtick_5">
     <g id="line2d_5">
      <g>
       <use style="stroke:#000000;stroke-width:0.8;" x="337.082862" xlink:href="#m99247d8218" y="307.584"/>
      </g>
     </g>
     <g id="text_5">
      <!-- 200 -->
      <defs>
       <path d="M 19.1875 8.296875 
L 53.609375 8.296875 
L 53.609375 0 
L 7.328125 0 
L 7.328125 8.296875 
Q 12.9375 14.109375 22.625 23.890625 
Q 32.328125 33.6875 34.8125 36.53125 
Q 39.546875 41.84375 41.421875 45.53125 
Q 43.3125 49.21875 43.3125 52.78125 
Q 43.3125 58.59375 39.234375 62.25 
Q 35.15625 65.921875 28.609375 65.921875 
Q 23.96875 65.921875 18.8125 64.3125 
Q 13.671875 62.703125 7.8125 59.421875 
L 7.8125 69.390625 
Q 13.765625 71.78125 18.9375 73 
Q 24.125 74.21875 28.421875 74.21875 
Q 39.75 74.21875 46.484375 68.546875 
Q 53.21875 62.890625 53.21875 53.421875 
Q 53.21875 48.921875 51.53125 44.890625 
Q 49.859375 40.875 45.40625 35.40625 
Q 44.1875 33.984375 37.640625 27.21875 
Q 31.109375 20.453125 19.1875 8.296875 
z
" id="DejaVuSans-50"/>
      </defs>
      <g transform="translate(327.539112 322.182437)scale(0.1 -0.1)">
       <use xlink:href="#DejaVuSans-50"/>
       <use x="63.623047" xlink:href="#DejaVuSans-48"/>
       <use x="127.246094" xlink:href="#DejaVuSans-48"/>
      </g>
     </g>
    </g>
    <g id="xtick_6">
     <g id="line2d_6">
      <g>
       <use style="stroke:#000000;stroke-width:0.8;" x="402.895396" xlink:href="#m99247d8218" y="307.584"/>
      </g>
     </g>
     <g id="text_6">
      <!-- 250 -->
      <g transform="translate(393.351646 322.182437)scale(0.1 -0.1)">
       <use xlink:href="#DejaVuSans-50"/>
       <use x="63.623047" xlink:href="#DejaVuSans-53"/>
       <use x="127.246094" xlink:href="#DejaVuSans-48"/>
      </g>
     </g>
    </g>
    <g id="text_7">
     <!-- Time (in seconds) -->
     <defs>
      <path d="M -0.296875 72.90625 
L 61.375 72.90625 
L 61.375 64.59375 
L 35.5 64.59375 
L 35.5 0 
L 25.59375 0 
L 25.59375 64.59375 
L -0.296875 64.59375 
z
" id="DejaVuSans-84"/>
      <path d="M 9.421875 54.6875 
L 18.40625 54.6875 
L 18.40625 0 
L 9.421875 0 
z
M 9.421875 75.984375 
L 18.40625 75.984375 
L 18.40625 64.59375 
L 9.421875 64.59375 
z
" id="DejaVuSans-105"/>
      <path d="M 52 44.1875 
Q 55.375 50.25 60.0625 53.125 
Q 64.75 56 71.09375 56 
Q 79.640625 56 84.28125 50.015625 
Q 88.921875 44.046875 88.921875 33.015625 
L 88.921875 0 
L 79.890625 0 
L 79.890625 32.71875 
Q 79.890625 40.578125 77.09375 44.375 
Q 74.3125 48.1875 68.609375 48.1875 
Q 61.625 48.1875 57.5625 43.546875 
Q 53.515625 38.921875 53.515625 30.90625 
L 53.515625 0 
L 44.484375 0 
L 44.484375 32.71875 
Q 44.484375 40.625 41.703125 44.40625 
Q 38.921875 48.1875 33.109375 48.1875 
Q 26.21875 48.1875 22.15625 43.53125 
Q 18.109375 38.875 18.109375 30.90625 
L 18.109375 0 
L 9.078125 0 
L 9.078125 54.6875 
L 18.109375 54.6875 
L 18.109375 46.1875 
Q 21.1875 51.21875 25.484375 53.609375 
Q 29.78125 56 35.6875 56 
Q 41.65625 56 45.828125 52.96875 
Q 50 49.953125 52 44.1875 
z
" id="DejaVuSans-109"/>
      <path d="M 56.203125 29.59375 
L 56.203125 25.203125 
L 14.890625 25.203125 
Q 15.484375 15.921875 20.484375 11.0625 
Q 25.484375 6.203125 34.421875 6.203125 
Q 39.59375 6.203125 44.453125 7.46875 
Q 49.3125 8.734375 54.109375 11.28125 
L 54.109375 2.78125 
Q 49.265625 0.734375 44.1875 -0.34375 
Q 39.109375 -1.421875 33.890625 -1.421875 
Q 20.796875 -1.421875 13.15625 6.1875 
Q 5.515625 13.8125 5.515625 26.8125 
Q 5.515625 40.234375 12.765625 48.109375 
Q 20.015625 56 32.328125 56 
Q 43.359375 56 49.78125 48.890625 
Q 56.203125 41.796875 56.203125 29.59375 
z
M 47.21875 32.234375 
Q 47.125 39.59375 43.09375 43.984375 
Q 39.0625 48.390625 32.421875 48.390625 
Q 24.90625 48.390625 20.390625 44.140625 
Q 15.875 39.890625 15.1875 32.171875 
z
" id="DejaVuSans-101"/>
      <path id="DejaVuSans-32"/>
      <path d="M 31 75.875 
Q 24.46875 64.65625 21.28125 53.65625 
Q 18.109375 42.671875 18.109375 31.390625 
Q 18.109375 20.125 21.3125 9.0625 
Q 24.515625 -2 31 -13.1875 
L 23.1875 -13.1875 
Q 15.875 -1.703125 12.234375 9.375 
Q 8.59375 20.453125 8.59375 31.390625 
Q 8.59375 42.28125 12.203125 53.3125 
Q 15.828125 64.359375 23.1875 75.875 
z
" id="DejaVuSans-40"/>
      <path d="M 54.890625 33.015625 
L 54.890625 0 
L 45.90625 0 
L 45.90625 32.71875 
Q 45.90625 40.484375 42.875 44.328125 
Q 39.84375 48.1875 33.796875 48.1875 
Q 26.515625 48.1875 22.3125 43.546875 
Q 18.109375 38.921875 18.109375 30.90625 
L 18.109375 0 
L 9.078125 0 
L 9.078125 54.6875 
L 18.109375 54.6875 
L 18.109375 46.1875 
Q 21.34375 51.125 25.703125 53.5625 
Q 30.078125 56 35.796875 56 
Q 45.21875 56 50.046875 50.171875 
Q 54.890625 44.34375 54.890625 33.015625 
z
" id="DejaVuSans-110"/>
      <path d="M 44.28125 53.078125 
L 44.28125 44.578125 
Q 40.484375 46.53125 36.375 47.5 
Q 32.28125 48.484375 27.875 48.484375 
Q 21.1875 48.484375 17.84375 46.4375 
Q 14.5 44.390625 14.5 40.28125 
Q 14.5 37.15625 16.890625 35.375 
Q 19.28125 33.59375 26.515625 31.984375 
L 29.59375 31.296875 
Q 39.15625 29.25 43.1875 25.515625 
Q 47.21875 21.78125 47.21875 15.09375 
Q 47.21875 7.46875 41.1875 3.015625 
Q 35.15625 -1.421875 24.609375 -1.421875 
Q 20.21875 -1.421875 15.453125 -0.5625 
Q 10.6875 0.296875 5.421875 2 
L 5.421875 11.28125 
Q 10.40625 8.6875 15.234375 7.390625 
Q 20.0625 6.109375 24.8125 6.109375 
Q 31.15625 6.109375 34.5625 8.28125 
Q 37.984375 10.453125 37.984375 14.40625 
Q 37.984375 18.0625 35.515625 20.015625 
Q 33.0625 21.96875 24.703125 23.78125 
L 21.578125 24.515625 
Q 13.234375 26.265625 9.515625 29.90625 
Q 5.8125 33.546875 5.8125 39.890625 
Q 5.8125 47.609375 11.28125 51.796875 
Q 16.75 56 26.8125 56 
Q 31.78125 56 36.171875 55.265625 
Q 40.578125 54.546875 44.28125 53.078125 
z
" id="DejaVuSans-115"/>
      <path d="M 48.78125 52.59375 
L 48.78125 44.1875 
Q 44.96875 46.296875 41.140625 47.34375 
Q 37.3125 48.390625 33.40625 48.390625 
Q 24.65625 48.390625 19.8125 42.84375 
Q 14.984375 37.3125 14.984375 27.296875 
Q 14.984375 17.28125 19.8125 11.734375 
Q 24.65625 6.203125 33.40625 6.203125 
Q 37.3125 6.203125 41.140625 7.25 
Q 44.96875 8.296875 48.78125 10.40625 
L 48.78125 2.09375 
Q 45.015625 0.34375 40.984375 -0.53125 
Q 36.96875 -1.421875 32.421875 -1.421875 
Q 20.0625 -1.421875 12.78125 6.34375 
Q 5.515625 14.109375 5.515625 27.296875 
Q 5.515625 40.671875 12.859375 48.328125 
Q 20.21875 56 33.015625 56 
Q 37.15625 56 41.109375 55.140625 
Q 45.0625 54.296875 48.78125 52.59375 
z
" id="DejaVuSans-99"/>
      <path d="M 30.609375 48.390625 
Q 23.390625 48.390625 19.1875 42.75 
Q 14.984375 37.109375 14.984375 27.296875 
Q 14.984375 17.484375 19.15625 11.84375 
Q 23.34375 6.203125 30.609375 6.203125 
Q 37.796875 6.203125 41.984375 11.859375 
Q 46.1875 17.53125 46.1875 27.296875 
Q 46.1875 37.015625 41.984375 42.703125 
Q 37.796875 48.390625 30.609375 48.390625 
z
M 30.609375 56 
Q 42.328125 56 49.015625 48.375 
Q 55.71875 40.765625 55.71875 27.296875 
Q 55.71875 13.875 49.015625 6.21875 
Q 42.328125 -1.421875 30.609375 -1.421875 
Q 18.84375 -1.421875 12.171875 6.21875 
Q 5.515625 13.875 5.515625 27.296875 
Q 5.515625 40.765625 12.171875 48.375 
Q 18.84375 56 30.609375 56 
z
" id="DejaVuSans-111"/>
      <path d="M 45.40625 46.390625 
L 45.40625 75.984375 
L 54.390625 75.984375 
L 54.390625 0 
L 45.40625 0 
L 45.40625 8.203125 
Q 42.578125 3.328125 38.25 0.953125 
Q 33.9375 -1.421875 27.875 -1.421875 
Q 17.96875 -1.421875 11.734375 6.484375 
Q 5.515625 14.40625 5.515625 27.296875 
Q 5.515625 40.1875 11.734375 48.09375 
Q 17.96875 56 27.875 56 
Q 33.9375 56 38.25 53.625 
Q 42.578125 51.265625 45.40625 46.390625 
z
M 14.796875 27.296875 
Q 14.796875 17.390625 18.875 11.75 
Q 22.953125 6.109375 30.078125 6.109375 
Q 37.203125 6.109375 41.296875 11.75 
Q 45.40625 17.390625 45.40625 27.296875 
Q 45.40625 37.203125 41.296875 42.84375 
Q 37.203125 48.484375 30.078125 48.484375 
Q 22.953125 48.484375 18.875 42.84375 
Q 14.796875 37.203125 14.796875 27.296875 
z
" id="DejaVuSans-100"/>
      <path d="M 8.015625 75.875 
L 15.828125 75.875 
Q 23.140625 64.359375 26.78125 53.3125 
Q 30.421875 42.28125 30.421875 31.390625 
Q 30.421875 20.453125 26.78125 9.375 
Q 23.140625 -1.703125 15.828125 -13.1875 
L 8.015625 -13.1875 
Q 14.5 -2 17.703125 9.0625 
Q 20.90625 20.125 20.90625 31.390625 
Q 20.90625 42.671875 17.703125 53.65625 
Q 14.5 64.65625 8.015625 75.875 
z
" id="DejaVuSans-41"/>
     </defs>
     <g transform="translate(191.6975 335.860562)scale(0.1 -0.1)">
      <use xlink:href="#DejaVuSans-84"/>
      <use x="61.037109" xlink:href="#DejaVuSans-105"/>
      <use x="88.820312" xlink:href="#DejaVuSans-109"/>
      <use x="186.232422" xlink:href="#DejaVuSans-101"/>
      <use x="247.755859" xlink:href="#DejaVuSans-32"/>
      <use x="279.542969" xlink:href="#DejaVuSans-40"/>
      <use x="318.556641" xlink:href="#DejaVuSans-105"/>
      <use x="346.339844" xlink:href="#DejaVuSans-110"/>
      <use x="409.71875" xlink:href="#DejaVuSans-32"/>
      <use x="441.505859" xlink:href="#DejaVuSans-115"/>
      <use x="493.605469" xlink:href="#DejaVuSans-101"/>
      <use x="555.128906" xlink:href="#DejaVuSans-99"/>
      <use x="610.109375" xlink:href="#DejaVuSans-111"/>
      <use x="671.291016" xlink:href="#DejaVuSans-110"/>
      <use x="734.669922" xlink:href="#DejaVuSans-100"/>
      <use x="798.146484" xlink:href="#DejaVuSans-115"/>
      <use x="850.246094" xlink:href="#DejaVuSans-41"/>
     </g>
    </g>
   </g>
   <g id="matplotlib.axis_2">
    <g id="ytick_1">
     <g id="line2d_7">
      <defs>
       <path d="M 0 0 
L -3.5 0 
" id="m0963ab50bf" style="stroke:#000000;stroke-width:0.8;"/>
      </defs>
      <g>
       <use style="stroke:#000000;stroke-width:0.8;" x="57.6" xlink:href="#m0963ab50bf" y="307.568102"/>
      </g>
     </g>
     <g id="text_8">
      <!-- −10.0 -->
      <defs>
       <path d="M 10.59375 35.5 
L 73.1875 35.5 
L 73.1875 27.203125 
L 10.59375 27.203125 
z
" id="DejaVuSans-8722"/>
       <path d="M 10.6875 12.40625 
L 21 12.40625 
L 21 0 
L 10.6875 0 
z
" id="DejaVuSans-46"/>
      </defs>
      <g transform="translate(19.954687 311.36732)scale(0.1 -0.1)">
       <use xlink:href="#DejaVuSans-8722"/>
       <use x="83.789062" xlink:href="#DejaVuSans-49"/>
       <use x="147.412109" xlink:href="#DejaVuSans-48"/>
       <use x="211.035156" xlink:href="#DejaVuSans-46"/>
       <use x="242.822266" xlink:href="#DejaVuSans-48"/>
      </g>
     </g>
    </g>
    <g id="ytick_2">
     <g id="line2d_8">
      <g>
       <use style="stroke:#000000;stroke-width:0.8;" x="57.6" xlink:href="#m0963ab50bf" y="271.871668"/>
      </g>
     </g>
     <g id="text_9">
      <!-- −7.5 -->
      <defs>
       <path d="M 8.203125 72.90625 
L 55.078125 72.90625 
L 55.078125 68.703125 
L 28.609375 0 
L 18.3125 0 
L 43.21875 64.59375 
L 8.203125 64.59375 
z
" id="DejaVuSans-55"/>
      </defs>
      <g transform="translate(26.317187 275.670887)scale(0.1 -0.1)">
       <use xlink:href="#DejaVuSans-8722"/>
       <use x="83.789062" xlink:href="#DejaVuSans-55"/>
       <use x="147.412109" xlink:href="#DejaVuSans-46"/>
       <use x="179.199219" xlink:href="#DejaVuSans-53"/>
      </g>
     </g>
    </g>
    <g id="ytick_3">
     <g id="line2d_9">
      <g>
       <use style="stroke:#000000;stroke-width:0.8;" x="57.6" xlink:href="#m0963ab50bf" y="236.175234"/>
      </g>
     </g>
     <g id="text_10">
      <!-- −5.0 -->
      <g transform="translate(26.317187 239.974453)scale(0.1 -0.1)">
       <use xlink:href="#DejaVuSans-8722"/>
       <use x="83.789062" xlink:href="#DejaVuSans-53"/>
       <use x="147.412109" xlink:href="#DejaVuSans-46"/>
       <use x="179.199219" xlink:href="#DejaVuSans-48"/>
      </g>
     </g>
    </g>
    <g id="ytick_4">
     <g id="line2d_10">
      <g>
       <use style="stroke:#000000;stroke-width:0.8;" x="57.6" xlink:href="#m0963ab50bf" y="200.4788"/>
      </g>
     </g>
     <g id="text_11">
      <!-- −2.5 -->
      <g transform="translate(26.317187 204.278019)scale(0.1 -0.1)">
       <use xlink:href="#DejaVuSans-8722"/>
       <use x="83.789062" xlink:href="#DejaVuSans-50"/>
       <use x="147.412109" xlink:href="#DejaVuSans-46"/>
       <use x="179.199219" xlink:href="#DejaVuSans-53"/>
      </g>
     </g>
    </g>
    <g id="ytick_5">
     <g id="line2d_11">
      <g>
       <use style="stroke:#000000;stroke-width:0.8;" x="57.6" xlink:href="#m0963ab50bf" y="164.782367"/>
      </g>
     </g>
     <g id="text_12">
      <!-- 0.0 -->
      <g transform="translate(34.696875 168.581585)scale(0.1 -0.1)">
       <use xlink:href="#DejaVuSans-48"/>
       <use x="63.623047" xlink:href="#DejaVuSans-46"/>
       <use x="95.410156" xlink:href="#DejaVuSans-48"/>
      </g>
     </g>
    </g>
    <g id="ytick_6">
     <g id="line2d_12">
      <g>
       <use style="stroke:#000000;stroke-width:0.8;" x="57.6" xlink:href="#m0963ab50bf" y="129.085933"/>
      </g>
     </g>
     <g id="text_13">
      <!-- 2.5 -->
      <g transform="translate(34.696875 132.885152)scale(0.1 -0.1)">
       <use xlink:href="#DejaVuSans-50"/>
       <use x="63.623047" xlink:href="#DejaVuSans-46"/>
       <use x="95.410156" xlink:href="#DejaVuSans-53"/>
      </g>
     </g>
    </g>
    <g id="ytick_7">
     <g id="line2d_13">
      <g>
       <use style="stroke:#000000;stroke-width:0.8;" x="57.6" xlink:href="#m0963ab50bf" y="93.389499"/>
      </g>
     </g>
     <g id="text_14">
      <!-- 5.0 -->
      <g transform="translate(34.696875 97.188718)scale(0.1 -0.1)">
       <use xlink:href="#DejaVuSans-53"/>
       <use x="63.623047" xlink:href="#DejaVuSans-46"/>
       <use x="95.410156" xlink:href="#DejaVuSans-48"/>
      </g>
     </g>
    </g>
    <g id="ytick_8">
     <g id="line2d_14">
      <g>
       <use style="stroke:#000000;stroke-width:0.8;" x="57.6" xlink:href="#m0963ab50bf" y="57.693066"/>
      </g>
     </g>
     <g id="text_15">
      <!-- 7.5 -->
      <g transform="translate(34.696875 61.492284)scale(0.1 -0.1)">
       <use xlink:href="#DejaVuSans-55"/>
       <use x="63.623047" xlink:href="#DejaVuSans-46"/>
       <use x="95.410156" xlink:href="#DejaVuSans-53"/>
      </g>
     </g>
    </g>
    <g id="text_16">
     <!-- Magnitude -->
     <defs>
      <path d="M 9.8125 72.90625 
L 24.515625 72.90625 
L 43.109375 23.296875 
L 61.8125 72.90625 
L 76.515625 72.90625 
L 76.515625 0 
L 66.890625 0 
L 66.890625 64.015625 
L 48.09375 14.015625 
L 38.1875 14.015625 
L 19.390625 64.015625 
L 19.390625 0 
L 9.8125 0 
z
" id="DejaVuSans-77"/>
      <path d="M 34.28125 27.484375 
Q 23.390625 27.484375 19.1875 25 
Q 14.984375 22.515625 14.984375 16.5 
Q 14.984375 11.71875 18.140625 8.90625 
Q 21.296875 6.109375 26.703125 6.109375 
Q 34.1875 6.109375 38.703125 11.40625 
Q 43.21875 16.703125 43.21875 25.484375 
L 43.21875 27.484375 
z
M 52.203125 31.203125 
L 52.203125 0 
L 43.21875 0 
L 43.21875 8.296875 
Q 40.140625 3.328125 35.546875 0.953125 
Q 30.953125 -1.421875 24.3125 -1.421875 
Q 15.921875 -1.421875 10.953125 3.296875 
Q 6 8.015625 6 15.921875 
Q 6 25.140625 12.171875 29.828125 
Q 18.359375 34.515625 30.609375 34.515625 
L 43.21875 34.515625 
L 43.21875 35.40625 
Q 43.21875 41.609375 39.140625 45 
Q 35.0625 48.390625 27.6875 48.390625 
Q 23 48.390625 18.546875 47.265625 
Q 14.109375 46.140625 10.015625 43.890625 
L 10.015625 52.203125 
Q 14.9375 54.109375 19.578125 55.046875 
Q 24.21875 56 28.609375 56 
Q 40.484375 56 46.34375 49.84375 
Q 52.203125 43.703125 52.203125 31.203125 
z
" id="DejaVuSans-97"/>
      <path d="M 45.40625 27.984375 
Q 45.40625 37.75 41.375 43.109375 
Q 37.359375 48.484375 30.078125 48.484375 
Q 22.859375 48.484375 18.828125 43.109375 
Q 14.796875 37.75 14.796875 27.984375 
Q 14.796875 18.265625 18.828125 12.890625 
Q 22.859375 7.515625 30.078125 7.515625 
Q 37.359375 7.515625 41.375 12.890625 
Q 45.40625 18.265625 45.40625 27.984375 
z
M 54.390625 6.78125 
Q 54.390625 -7.171875 48.1875 -13.984375 
Q 42 -20.796875 29.203125 -20.796875 
Q 24.46875 -20.796875 20.265625 -20.09375 
Q 16.0625 -19.390625 12.109375 -17.921875 
L 12.109375 -9.1875 
Q 16.0625 -11.328125 19.921875 -12.34375 
Q 23.78125 -13.375 27.78125 -13.375 
Q 36.625 -13.375 41.015625 -8.765625 
Q 45.40625 -4.15625 45.40625 5.171875 
L 45.40625 9.625 
Q 42.625 4.78125 38.28125 2.390625 
Q 33.9375 0 27.875 0 
Q 17.828125 0 11.671875 7.65625 
Q 5.515625 15.328125 5.515625 27.984375 
Q 5.515625 40.671875 11.671875 48.328125 
Q 17.828125 56 27.875 56 
Q 33.9375 56 38.28125 53.609375 
Q 42.625 51.21875 45.40625 46.390625 
L 45.40625 54.6875 
L 54.390625 54.6875 
z
" id="DejaVuSans-103"/>
      <path d="M 18.3125 70.21875 
L 18.3125 54.6875 
L 36.8125 54.6875 
L 36.8125 47.703125 
L 18.3125 47.703125 
L 18.3125 18.015625 
Q 18.3125 11.328125 20.140625 9.421875 
Q 21.96875 7.515625 27.59375 7.515625 
L 36.8125 7.515625 
L 36.8125 0 
L 27.59375 0 
Q 17.1875 0 13.234375 3.875 
Q 9.28125 7.765625 9.28125 18.015625 
L 9.28125 47.703125 
L 2.6875 47.703125 
L 2.6875 54.6875 
L 9.28125 54.6875 
L 9.28125 70.21875 
z
" id="DejaVuSans-116"/>
      <path d="M 8.5 21.578125 
L 8.5 54.6875 
L 17.484375 54.6875 
L 17.484375 21.921875 
Q 17.484375 14.15625 20.5 10.265625 
Q 23.53125 6.390625 29.59375 6.390625 
Q 36.859375 6.390625 41.078125 11.03125 
Q 45.3125 15.671875 45.3125 23.6875 
L 45.3125 54.6875 
L 54.296875 54.6875 
L 54.296875 0 
L 45.3125 0 
L 45.3125 8.40625 
Q 42.046875 3.421875 37.71875 1 
Q 33.40625 -1.421875 27.6875 -1.421875 
Q 18.265625 -1.421875 13.375 4.4375 
Q 8.5 10.296875 8.5 21.578125 
z
M 31.109375 56 
z
" id="DejaVuSans-117"/>
     </defs>
     <g transform="translate(13.875 201.017844)rotate(-90)scale(0.1 -0.1)">
      <use xlink:href="#DejaVuSans-77"/>
      <use x="86.279297" xlink:href="#DejaVuSans-97"/>
      <use x="147.558594" xlink:href="#DejaVuSans-103"/>
      <use x="211.035156" xlink:href="#DejaVuSans-110"/>
      <use x="274.414062" xlink:href="#DejaVuSans-105"/>
      <use x="302.197266" xlink:href="#DejaVuSans-116"/>
      <use x="341.40625" xlink:href="#DejaVuSans-117"/>
      <use x="404.785156" xlink:href="#DejaVuSans-100"/>
      <use x="468.261719" xlink:href="#DejaVuSans-101"/>
     </g>
    </g>
   </g>
   <g id="line2d_15">
    <path clip-path="url(#p2ac6596a8f)" d="M 73.832727 140.8949 
L 73.994626 137.911025 
L 74.321056 136.804844 
L 74.658017 136.320868 
L 74.862035 136.3391 
L 75.184517 136.691024 
L 75.387219 137.22536 
L 75.649153 138.515828 
L 75.91372 140.686766 
L 76.175653 144.712127 
L 76.444169 152.872239 
L 76.785078 171.654691 
L 77.381339 226.892185 
L 77.907839 273.429941 
L 78.235586 289.311061 
L 78.496203 294.683731 
L 78.702855 295.488 
L 78.83448 294.95034 
L 79.235936 290.865083 
L 80.291569 277.398498 
L 80.682496 274.58692 
L 81.151081 272.942639 
L 82.017174 270.014439 
L 82.87537 267.20266 
L 83.730932 264.619086 
L 84.533845 262.505759 
L 85.126158 261.434549 
L 85.661872 260.823869 
L 86.258134 260.453233 
L 86.584564 260.464167 
L 86.916259 260.730725 
L 87.247954 261.285571 
L 87.715223 262.555798 
L 89.30657 267.424382 
L 89.831754 268.362757 
L 90.429332 268.987803 
L 90.828156 269.162143 
L 91.224348 269.12586 
L 92.549812 268.835937 
L 93.014448 269.111805 
L 93.605445 269.759791 
L 94.143791 270.204253 
L 94.472854 270.193307 
L 94.872995 269.916156 
L 95.728557 269.214382 
L 95.997072 269.46212 
L 96.330084 270.057746 
L 97.581838 273.131489 
L 98.049107 273.808585 
L 98.511111 273.998647 
L 98.912568 273.95574 
L 99.377204 273.557054 
L 100.102458 273.064533 
L 100.368341 273.190518 
L 101.233117 273.902709 
L 101.433188 273.801845 
L 101.693805 273.319172 
L 102.095262 272.014368 
L 103.083766 268.696676 
L 103.489171 268.276676 
L 103.948543 268.217857 
L 104.418444 268.35942 
L 105.542522 268.864853 
L 106.004526 268.959887 
L 106.337538 268.827794 
L 106.735045 268.264672 
L 107.200998 267.189745 
L 108.522514 264.04676 
L 108.921338 262.854582 
L 109.388607 260.678847 
L 110.779884 252.781758 
L 111.174759 251.828777 
L 111.438009 251.605325 
L 111.640712 251.70332 
L 111.835517 252.043056 
L 112.1014 252.855678 
L 112.437043 254.517104 
L 113.033305 259.134374 
L 114.092887 267.764893 
L 114.557523 269.906399 
L 115.02216 271.167296 
L 115.618421 272.118777 
L 116.27523 272.785425 
L 116.812261 273.045324 
L 117.134742 273.007294 
L 117.537515 272.761137 
L 117.931074 272.318077 
L 118.199589 271.740576 
L 118.598413 270.318373 
L 119.194674 266.906694 
L 120.455642 258.774038 
L 121.579721 253.477067 
L 122.041724 252.146394 
L 122.376052 251.798225 
L 122.637986 251.858248 
L 122.965733 252.260832 
L 123.56331 253.412261 
L 124.292513 255.463638 
L 125.153341 257.925822 
L 125.485036 258.277452 
L 125.749603 258.251869 
L 126.015485 257.89982 
L 126.610431 256.657391 
L 128.274172 253.090261 
L 128.808569 252.429214 
L 129.135 252.29241 
L 129.465378 252.434346 
L 129.862886 252.870232 
L 130.332787 253.697143 
L 131.059358 255.503154 
L 131.589807 257.554449 
L 132.394036 261.731268 
L 132.849459 264.265629 
L 133.318044 266.239019 
L 133.905092 268.051835 
L 134.968622 270.54752 
L 135.830767 272.43867 
L 136.427028 273.340619 
L 136.821903 273.659245 
L 137.22336 273.72672 
L 137.682731 273.536195 
L 138.219762 273.107021 
L 139.142453 271.956397 
L 139.736082 270.962166 
L 142.129026 266.064686 
L 142.52785 264.564137 
L 143.388678 259.87859 
L 144.04812 256.72857 
L 144.578568 255.120479 
L 145.106385 254.118104 
L 145.707912 253.545918 
L 146.240993 253.371263 
L 146.76881 253.228858 
L 147.100505 252.740385 
L 147.49538 251.666387 
L 148.025829 250.275832 
L 148.293028 250.0545 
L 148.491782 250.254303 
L 148.694484 250.824636 
L 149.155172 253.375739 
L 149.811981 257.270898 
L 150.214754 258.2952 
L 150.475372 258.48245 
L 150.680707 258.351429 
L 151.142711 257.532253 
L 151.998274 256.034288 
L 152.801187 255.351064 
L 153.126301 255.352419 
L 153.394816 255.585837 
L 153.792323 256.339156 
L 154.189831 257.697034 
L 154.784776 260.793223 
L 155.650869 265.213312 
L 156.25108 266.902382 
L 156.644638 267.450279 
L 157.633143 268.2199 
L 158.433423 269.018323 
L 158.965188 269.394735 
L 159.225806 269.405405 
L 159.42456 269.195886 
L 159.756255 268.450989 
L 160.220892 266.749639 
L 161.347602 262.350315 
L 161.74511 261.707537 
L 162.076805 261.52984 
L 162.411133 261.598029 
L 163.469398 262.102849 
L 163.936667 262.009347 
L 164.789598 261.721987 
L 165.188422 261.880026 
L 166.719221 262.613321 
L 167.911744 262.757897 
L 168.771256 262.836723 
L 169.362252 263.31388 
L 170.291526 264.159082 
L 170.491596 264.150415 
L 170.692982 263.937736 
L 171.025994 263.151329 
L 171.36427 261.946893 
L 172.750282 255.577966 
L 173.940173 250.980967 
L 174.340313 250.137986 
L 174.604879 249.905677 
L 174.868129 249.962578 
L 175.202457 250.343477 
L 176.456844 252.169625 
L 177.324253 252.838172 
L 177.651999 253.945697 
L 178.116636 256.522483 
L 179.24203 263.296428 
L 179.775112 264.943841 
L 180.700436 266.849379 
L 181.631025 268.373631 
L 182.161474 268.778119 
L 182.622162 268.859788 
L 182.890677 268.664286 
L 183.153927 268.087038 
L 183.481673 266.682556 
L 184.017388 263.130062 
L 185.739044 249.974226 
L 186.062841 248.937337 
L 186.195782 248.843788 
L 186.332673 248.985299 
L 186.532743 249.529009 
L 186.932883 251.404581 
L 187.729214 255.215983 
L 188.128039 256.094715 
L 188.855925 257.055363 
L 189.652257 258.454888 
L 190.577581 260.156569 
L 191.240971 261.016504 
L 191.572666 261.22157 
L 191.904362 261.205067 
L 192.432178 260.875467 
L 193.561521 260.15915 
L 194.286775 260.09016 
L 194.752728 259.930654 
L 195.350306 259.502731 
L 195.81231 258.707029 
L 196.477017 256.963295 
L 197.270716 254.808708 
L 197.66954 254.292279 
L 198.001235 254.167016 
L 198.731754 254.000601 
L 199.200339 253.559604 
L 200.317836 252.246915 
L 200.717976 252.132232 
L 200.915414 252.307723 
L 201.182613 252.859869 
L 201.581437 254.340702 
L 202.177698 257.707533 
L 202.897687 261.674789 
L 203.428136 263.495 
L 203.899354 264.401975 
L 205.555198 266.825984 
L 206.2844 267.544146 
L 208.274571 268.853806 
L 208.606266 268.703205 
L 209.203844 268.069444 
L 211.121621 265.516366 
L 211.848192 264.395778 
L 212.315461 264.053983 
L 212.649789 264.084969 
L 213.25658 264.449808 
L 213.70937 264.767121 
L 214.636011 265.10903 
L 214.963757 264.986258 
L 215.22964 264.636605 
L 215.49289 263.989553 
L 215.821953 262.766112 
L 216.618284 258.896694 
L 217.281675 256.323394 
L 217.677866 255.572165 
L 217.87662 255.516776 
L 218.07669 255.762614 
L 218.349154 256.460451 
L 219.874689 262.045501 
L 220.269564 262.511696 
L 220.736833 262.771376 
L 220.99745 262.675567 
L 221.265965 262.276419 
L 221.659524 261.157093 
L 222.126793 259.192123 
L 222.792816 256.501105 
L 223.185059 255.435552 
L 223.710243 254.588069 
L 224.646097 253.705182 
L 225.043605 253.535229 
L 225.309488 253.758926 
L 225.568789 254.289482 
L 225.971562 255.795408 
L 227.491831 262.839753 
L 227.894604 263.506514 
L 228.224983 263.655491 
L 228.560627 263.491644 
L 229.351694 262.831038 
L 229.559661 262.84396 
L 229.882142 263.252878 
L 230.340198 264.40633 
L 231.335283 266.932152 
L 231.605115 267.090653 
L 231.864416 266.927405 
L 232.268505 266.333733 
L 232.996391 265.087638 
L 233.522892 264.521521 
L 234.582474 263.617561 
L 235.049743 262.926133 
L 235.515695 261.806344 
L 236.179086 259.3989 
L 236.971468 256.420138 
L 237.500601 255.247943 
L 238.03105 254.626042 
L 239.227522 253.61337 
L 240.880733 252.836273 
L 241.080803 253.14499 
L 241.34537 254.023337 
L 241.742877 256.157084 
L 243.064393 264.606944 
L 243.4619 265.700454 
L 243.798861 266.12597 
L 244.067376 266.204102 
L 244.40302 266.070493 
L 245.120377 265.576702 
L 245.453388 265.61801 
L 245.720587 265.868763 
L 246.907845 267.421336 
L 247.172411 267.341448 
L 247.50279 266.924695 
L 248.164864 265.61968 
L 249.095454 263.684591 
L 249.624586 263.013169 
L 250.552543 262.404992 
L 251.414687 261.957547 
L 252.409773 261.502144 
L 252.674339 260.838351 
L 253.073163 259.004488 
L 253.872127 253.964046 
L 254.399944 251.515662 
L 254.796135 250.65116 
L 254.997522 250.568756 
L 255.192327 250.694551 
L 255.462158 251.15225 
L 255.875461 252.257591 
L 256.723126 255.317485 
L 257.716896 258.350511 
L 259.439868 263.364108 
L 260.046659 263.962102 
L 260.311226 263.898341 
L 260.898273 263.321087 
L 261.959172 261.788782 
L 262.285602 261.32589 
L 263.744007 259.218453 
L 264.148096 259.018667 
L 264.612733 259.056471 
L 265.265593 259.20651 
L 265.599921 259.040299 
L 265.932932 258.645211 
L 266.333072 257.734452 
L 266.795076 256.08018 
L 268.520681 248.999813 
L 269.049814 247.705211 
L 269.444689 247.183339 
L 269.779017 247.034889 
L 270.179157 247.1271 
L 271.038669 247.572706 
L 271.774453 248.354792 
L 272.499707 249.099985 
L 272.827453 249.148346 
L 273.156516 248.993087 
L 274.287175 248.051352 
L 274.753128 247.072199 
L 275.745581 244.544063 
L 276.011464 244.391268 
L 276.208901 244.637288 
L 276.473468 245.201708 
L 276.803846 246.96503 
L 278.130627 253.252471 
L 279.912831 258.471555 
L 280.444596 259.479697 
L 280.776291 259.683121 
L 280.973729 259.533301 
L 281.239611 259.014932 
L 281.702932 257.41595 
L 283.432485 250.795658 
L 283.829993 250.322716 
L 284.02743 250.365009 
L 284.297262 250.679252 
L 284.760582 251.665744 
L 285.554281 253.461983 
L 286.087362 254.217868 
L 286.151859 254.217868 
L 286.41116 254.545197 
L 286.891592 254.790782 
L 287.212757 254.724415 
L 288.862019 253.969487 
L 289.13185 253.848024 
L 289.393784 253.325479 
L 289.728112 252.142506 
L 290.275672 249.240643 
L 290.660017 246.814976 
L 291.18915 244.326538 
L 291.585342 243.329765 
L 291.91572 242.942284 
L 292.313228 242.824223 
L 293.112192 242.935882 
L 294.037516 243.209165 
L 294.899661 243.795437 
L 295.890797 244.349755 
L 296.359383 244.578589 
L 296.688446 245.05872 
L 296.955644 245.736695 
L 297.347887 247.176475 
L 297.95073 249.870294 
L 300.002765 259.205551 
L 301.528299 265.051226 
L 301.924491 265.769391 
L 302.123245 265.85134 
L 302.320682 265.675087 
L 302.589197 265.146774 
L 303.052517 263.662573 
L 304.51224 258.531701 
L 305.233545 256.945751 
L 306.964415 254.093216 
L 307.556727 253.483649 
L 307.892371 253.41614 
L 308.088493 253.603738 
L 308.418872 254.243027 
L 308.94932 255.796693 
L 310.14316 259.286119 
L 311.272503 262.028633 
L 311.608147 262.23433 
L 311.799003 262.054502 
L 311.930628 261.806559 
L 312.266272 260.842946 
L 313.785225 255.743782 
L 314.381487 255.169421 
L 314.730294 255.005326 
L 315.115955 254.701522 
L 315.514779 254.558345 
L 315.7109 254.702407 
L 315.978099 255.404839 
L 316.238717 256.865164 
L 316.906056 262.523264 
L 317.503634 266.858204 
L 317.830064 267.928133 
L 318.030134 268.024229 
L 318.2947 267.874995 
L 319.223973 265.151 
L 319.622797 264.447191 
L 319.950544 264.255034 
L 320.350684 264.382542 
L 321.476078 264.837414 
L 323.397804 265.397624 
L 323.66237 265.167378 
L 323.99275 264.430381 
L 324.325761 263.139329 
L 325.054964 259.025771 
L 325.585413 256.562981 
L 325.978972 255.537647 
L 326.581815 254.752825 
L 326.912193 254.569849 
L 327.109631 254.655728 
L 327.37683 255.138372 
L 327.709841 256.280651 
L 328.104716 258.453832 
L 329.368317 266.169362 
L 329.630251 266.659103 
L 329.764509 266.62471 
L 329.892185 266.377825 
L 330.158068 265.288917 
L 331.221598 260.024388 
L 331.354539 260.168678 
L 331.616474 261.281464 
L 332.08111 264.656747 
L 332.677372 268.676409 
L 333.005118 269.53707 
L 333.138059 269.456261 
L 333.343394 268.883776 
L 333.747483 266.450993 
L 334.533285 259.913457 
L 334.993973 257.26098 
L 335.325668 256.273787 
L 335.52837 256.062565 
L 335.659995 256.193589 
L 335.861382 256.804189 
L 336.194393 258.738484 
L 337.584354 268.377851 
L 337.980545 269.287393 
L 338.180616 269.294221 
L 338.443866 269.008114 
L 338.841373 268.231203 
L 339.440268 267.042075 
L 339.836459 266.606572 
L 340.299779 266.394621 
L 340.964486 266.180989 
L 341.830579 265.864092 
L 342.224137 266.070773 
L 343.083649 266.715699 
L 343.616731 266.619723 
L 344.14718 265.960138 
L 345.005375 264.422379 
L 346.93105 260.695037 
L 347.195616 260.595517 
L 347.527311 260.804003 
L 348.118308 261.674033 
L 348.586893 262.152047 
L 348.779066 262.163166 
L 349.043632 261.918503 
L 349.446405 261.279708 
L 350.508619 259.294621 
L 350.770553 259.288618 
L 351.035119 259.560992 
L 351.365499 260.199991 
L 352.621202 263.005636 
L 352.891033 263.056639 
L 353.220096 262.884348 
L 354.217814 261.979743 
L 354.685083 261.353799 
L 355.145771 260.220409 
L 355.61304 258.342144 
L 356.471235 254.8227 
L 356.871375 254.055578 
L 357.133309 253.956693 
L 357.730887 254.263759 
L 358.194207 254.443255 
L 358.727289 254.402833 
L 359.190609 254.06591 
L 359.582852 253.343243 
L 360.054069 252.149321 
L 360.516073 250.986176 
L 361.840221 248.897829 
L 362.437799 248.484759 
L 362.702366 248.549299 
L 362.965616 248.951166 
L 363.631639 250.641438 
L 364.352944 253.121745 
L 365.615228 258.28789 
L 366.149626 259.318511 
L 367.076266 260.435156 
L 367.669896 261.753148 
L 368.471492 263.384791 
L 368.863735 263.84816 
L 369.198063 263.890054 
L 370.590656 263.40542 
L 371.51598 263.333815 
L 372.112242 263.53181 
L 372.640058 263.647785 
L 373.242901 263.410899 
L 373.902343 263.249341 
L 374.168225 263.468278 
L 374.568366 263.956312 
L 375.033002 265.170919 
L 375.759572 267.064005 
L 376.092584 267.386178 
L 376.35715 267.341676 
L 376.615135 267.071283 
L 377.081088 266.287703 
L 377.348287 265.411419 
L 379.002814 261.309564 
L 380.001848 259.065097 
L 380.466485 257.328936 
L 381.128559 253.899017 
L 381.727453 251.173391 
L 382.124961 250.011272 
L 382.323714 249.820981 
L 382.51852 249.981709 
L 382.851531 250.786356 
L 383.712359 253.14212 
L 384.573187 254.813384 
L 384.906198 255.961239 
L 385.634085 259.836215 
L 386.563358 264.392808 
L 387.029311 265.531124 
L 387.438664 265.960224 
L 387.624256 265.987339 
L 387.821694 265.805587 
L 388.22315 265.005987 
L 388.621974 263.523863 
L 389.672342 258.768735 
L 390.14356 257.566465 
L 391.931028 254.389411 
L 392.191646 254.411386 
L 392.461477 254.708194 
L 393.519743 256.283606 
L 393.855387 256.546775 
L 394.114688 257.289532 
L 394.445067 259.093644 
L 394.912336 262.963246 
L 395.7113 270.064991 
L 396.107491 271.79943 
L 396.373374 272.228803 
L 396.565547 272.223629 
L 396.765617 271.98464 
L 397.097312 271.087688 
L 397.565897 269.024399 
L 398.356964 265.076766 
L 398.487273 264.719051 
L 398.487273 264.719051 
" style="fill:none;stroke:#1f77b4;stroke-linecap:square;stroke-width:1.5;"/>
   </g>
   <g id="line2d_16">
    <path clip-path="url(#p2ac6596a8f)" d="M 73.832727 69.831795 
L 73.994626 76.904621 
L 74.39345 80.6196 
L 74.785693 82.859661 
L 75.259543 84.205931 
L 75.387219 84.248007 
L 75.517528 84.097361 
L 75.722863 83.305414 
L 76.042712 80.620375 
L 76.916703 72.447434 
L 76.983831 72.531887 
L 77.11414 73.238334 
L 77.315526 75.668633 
L 77.634059 83.342715 
L 78.169773 100.761455 
L 80.749625 190.043978 
L 81.946096 218.486606 
L 82.348869 222.427195 
L 82.680564 223.73205 
L 83.006995 224.102001 
L 83.274193 224.075595 
L 83.600624 223.741132 
L 84.469349 222.332214 
L 85.190654 221.232786 
L 85.726368 220.833208 
L 86.121244 220.776946 
L 86.983388 220.711315 
L 87.315083 220.359664 
L 87.649411 219.684244 
L 88.175911 218.014842 
L 89.439512 213.901279 
L 89.898883 213.064642 
L 90.429332 212.595444 
L 90.693898 212.562517 
L 91.091406 212.799526 
L 91.823241 213.648928 
L 92.353691 214.117744 
L 92.686702 214.169873 
L 92.94732 213.956296 
L 93.415905 213.148607 
L 95.003303 209.925302 
L 95.333682 209.813932 
L 95.598248 209.911092 
L 96.860533 211.163193 
L 97.581838 212.185579 
L 99.111321 215.392999 
L 99.708899 216.102621 
L 99.968201 216.124409 
L 100.236716 215.866212 
L 100.502599 215.274297 
L 101.766199 212.057057 
L 102.162391 211.779339 
L 103.01927 211.482936 
L 104.153878 209.834183 
L 104.683011 209.554676 
L 106.004526 209.286092 
L 106.534975 209.36359 
L 107.39712 209.824515 
L 107.930201 210.311155 
L 108.390889 211.111196 
L 108.726533 212.08261 
L 109.388607 215.035478 
L 110.18099 218.573108 
L 110.58113 219.525394 
L 110.847013 219.733 
L 111.045766 219.619822 
L 111.438009 219.088826 
L 112.767422 217.058063 
L 113.692746 215.811036 
L 114.955031 213.773249 
L 116.079109 212.186794 
L 116.675371 210.591506 
L 117.336129 209.028942 
L 117.66914 208.687996 
L 117.867894 208.768829 
L 118.199589 209.421625 
L 118.531284 210.638995 
L 119.127545 213.773709 
L 120.055502 218.374751 
L 120.585951 220.149317 
L 121.249342 221.596618 
L 121.710029 222.156726 
L 121.979861 222.195583 
L 122.308923 221.847248 
L 122.905185 220.720523 
L 123.831826 218.971972 
L 124.491267 218.122091 
L 125.0204 217.741696 
L 125.219154 217.758179 
L 125.550849 218.124903 
L 126.280052 219.006842 
L 126.878946 219.402671 
L 127.743722 219.821898 
L 129.728629 221.936926 
L 130.526276 222.312664 
L 131.985998 222.670616 
L 132.521712 222.482068 
L 133.107444 222.047906 
L 133.777416 221.295361 
L 135.496439 219.059471 
L 135.961075 218.944131 
L 136.224326 219.137338 
L 137.027238 219.856021 
L 137.289172 219.838267 
L 137.552423 219.554058 
L 137.945982 218.761644 
L 141.732835 210.67989 
L 141.930272 210.672354 
L 142.329096 211.676046 
L 142.855597 213.995191 
L 143.849366 219.05093 
L 144.578568 221.519589 
L 145.106385 222.631569 
L 145.573654 223.076556 
L 146.104103 223.245143 
L 146.76881 223.439418 
L 147.034692 223.986227 
L 147.428251 225.508701 
L 148.293028 229.16267 
L 148.560227 229.567853 
L 148.694484 229.405387 
L 148.88929 228.596381 
L 149.220985 226.007666 
L 149.811981 219.217205 
L 150.613578 210.726011 
L 151.075582 208.146257 
L 151.474406 207.026125 
L 152.078565 206.254016 
L 152.603749 205.93248 
L 153.325054 205.428239 
L 153.656749 204.913831 
L 154.122702 203.783076 
L 155.515295 200.174761 
L 156.310311 199.108964 
L 157.238268 198.187552 
L 157.899025 197.831998 
L 158.562416 197.729881 
L 158.965188 197.904631 
L 159.949744 198.680875 
L 160.886914 199.535312 
L 161.283106 199.669638 
L 161.479227 199.53666 
L 161.74511 199.091606 
L 162.14525 197.955741 
L 163.279858 194.388032 
L 163.601023 193.984727 
L 163.806358 194.043753 
L 164.198601 194.632953 
L 165.982121 198.196696 
L 166.653409 198.717758 
L 167.116729 198.82551 
L 168.310568 198.773959 
L 168.704127 199.288686 
L 171.422185 204.124978 
L 172.551528 207.360857 
L 173.542665 209.861337 
L 174.005985 210.490893 
L 174.2745 210.576408 
L 174.539066 210.368917 
L 174.93789 209.689501 
L 175.601281 208.125883 
L 176.126465 207.162215 
L 176.591101 206.72372 
L 177.387433 206.12094 
L 177.985011 205.154385 
L 180.108123 201.228754 
L 180.172619 201.228754 
L 180.438502 200.943454 
L 181.097944 200.606402 
L 181.565213 200.571862 
L 181.896908 200.822908 
L 182.300997 201.427576 
L 183.153927 203.717267 
L 184.349083 206.875853 
L 184.80977 207.414328 
L 185.209911 207.548289 
L 185.682445 207.428064 
L 186.062841 207.012401 
L 186.669633 205.848027 
L 188.325476 201.556299 
L 189.325827 200.046926 
L 189.716753 199.688426 
L 190.045816 199.627472 
L 190.377511 199.876066 
L 191.105397 200.456172 
L 191.373913 200.468598 
L 191.766155 200.153559 
L 192.630932 199.468441 
L 193.23904 199.375424 
L 193.889268 199.630849 
L 194.622419 199.880734 
L 194.883037 199.811977 
L 195.216048 199.451229 
L 196.340126 197.954811 
L 196.67577 197.879115 
L 197.074594 198.110568 
L 197.536598 198.273582 
L 198.33293 198.150936 
L 198.597496 198.445739 
L 198.941038 199.059939 
L 199.720258 200.975785 
L 200.182262 201.606045 
L 201.049671 202.231734 
L 201.514308 202.350019 
L 201.778874 202.116149 
L 202.177698 201.321876 
L 203.031945 199.391096 
L 203.361008 199.111507 
L 203.561078 199.216386 
L 203.965166 199.823128 
L 205.290631 202.041245 
L 205.889525 202.948494 
L 206.354162 203.902965 
L 206.884611 204.917795 
L 207.347931 205.415903 
L 207.67831 205.53026 
L 208.011321 205.402274 
L 208.407513 204.985261 
L 208.936646 204.085817 
L 209.468411 202.594794 
L 210.992629 198.06846 
L 211.387504 197.538527 
L 211.656019 197.428973 
L 211.982449 197.614134 
L 213.106528 198.474817 
L 213.442171 198.474029 
L 214.701823 198.156072 
L 214.963757 198.320683 
L 215.22964 198.731484 
L 215.565284 199.637864 
L 217.015792 204.931792 
L 217.4133 205.459074 
L 217.677866 205.478489 
L 218.010877 205.234368 
L 218.349154 204.716097 
L 219.069143 202.516467 
L 220.599943 197.579473 
L 220.93427 197.122061 
L 221.068528 197.112821 
L 221.265965 197.408844 
L 221.589763 198.51197 
L 222.268949 201.744542 
L 222.721739 203.946091 
L 223.450942 206.271161 
L 223.977442 207.276338 
L 224.381531 207.672706 
L 224.646097 207.736371 
L 224.908031 207.583247 
L 225.243675 207.053348 
L 225.635918 205.892881 
L 226.300624 203.121119 
L 227.165401 199.561085 
L 227.628721 198.393166 
L 228.027545 197.912133 
L 228.224983 197.95204 
L 228.560627 198.395965 
L 229.749201 200.82547 
L 229.945323 200.822783 
L 230.212521 200.430476 
L 230.873279 198.731671 
L 231.468224 197.495332 
L 231.932861 196.985979 
L 232.268505 196.939403 
L 232.590986 197.133339 
L 232.925314 197.615949 
L 233.387318 198.625489 
L 234.12047 200.073562 
L 234.512712 200.453606 
L 234.98393 200.547042 
L 235.515695 200.683564 
L 235.843442 201.171578 
L 236.323873 202.26179 
L 238.891878 210.554637 
L 239.160393 210.849624 
L 239.355199 210.721582 
L 239.622398 210.131434 
L 240.085718 208.515498 
L 241.411182 203.844606 
L 242.863007 199.447839 
L 243.26183 198.996081 
L 243.526397 199.002496 
L 243.930486 199.314217 
L 244.40302 199.980285 
L 244.788681 200.435883 
L 245.120377 200.624068 
L 245.252002 200.554403 
L 245.586329 199.961231 
L 246.511653 198.222105 
L 246.709091 198.194122 
L 246.97629 198.508606 
L 248.231993 200.615856 
L 248.430747 200.597668 
L 248.697946 200.256426 
L 249.15995 199.085007 
L 250.686801 194.678171 
L 251.082992 194.225116 
L 251.28043 194.207087 
L 251.547629 194.481567 
L 251.878007 195.323721 
L 252.211019 196.457209 
L 252.475585 198.279308 
L 253.670741 204.614766 
L 254.26437 206.535104 
L 254.731639 207.223263 
L 255.060701 207.364638 
L 255.393713 207.25897 
L 256.451979 206.755113 
L 256.920564 206.580572 
L 257.190395 206.246006 
L 257.782708 204.893221 
L 259.638622 199.564592 
L 260.163805 198.827566 
L 260.766648 198.343771 
L 261.16284 198.233233 
L 261.494535 198.469205 
L 261.893359 198.919693 
L 262.417226 199.526662 
L 262.94636 199.861738 
L 263.476808 199.853046 
L 264.148096 199.734815 
L 264.739093 199.839866 
L 265.265593 200.118805 
L 265.665733 200.642042 
L 266.400201 202.037074 
L 267.25708 203.508348 
L 267.724349 204.268562 
L 268.254798 205.074334 
L 268.649674 205.314362 
L 268.852376 205.208199 
L 269.848778 204.176994 
L 270.043583 204.371674 
L 270.379227 205.188384 
L 271.238739 208.395498 
L 271.89818 210.555518 
L 272.499707 211.714961 
L 272.827453 211.959542 
L 273.095968 211.933172 
L 273.559289 211.460407 
L 274.685999 209.902712 
L 275.08219 209.81694 
L 275.615272 209.722475 
L 275.87589 209.343177 
L 276.208901 208.490634 
L 276.738034 206.508939 
L 277.997686 201.434797 
L 278.725573 199.283491 
L 279.912831 196.41971 
L 280.378783 195.732795 
L 280.642034 195.633973 
L 280.842104 195.881609 
L 281.173799 196.788432 
L 281.637119 198.873462 
L 283.366672 207.90388 
L 283.766812 208.83817 
L 283.965566 208.942763 
L 284.161688 208.683857 
L 284.561828 207.560055 
L 285.817531 203.482133 
L 286.476973 202.710573 
L 287.277253 202.172154 
L 287.873515 202.06288 
L 288.467144 202.278366 
L 289.13185 202.469492 
L 289.462229 202.389331 
L 289.930815 201.95901 
L 290.538922 201.083404 
L 291.254963 199.808046 
L 291.984166 198.893486 
L 292.447486 198.629886 
L 292.910806 198.565379 
L 294.037516 198.808533 
L 295.688095 199.243585 
L 296.359383 199.756052 
L 297.880969 201.060697 
L 298.211347 201.091771 
L 298.479863 200.895661 
L 298.874738 200.279854 
L 299.406503 199.02486 
L 300.069894 196.99709 
L 300.466085 195.484058 
L 301.728369 190.678323 
L 301.990303 190.288221 
L 302.123245 190.304808 
L 302.390444 190.741639 
L 302.920892 192.389727 
L 303.452658 193.680717 
L 303.714591 193.944879 
L 303.910713 193.822965 
L 304.173963 193.330394 
L 304.6386 191.976989 
L 305.900884 187.348347 
L 306.365521 186.025431 
L 306.703797 185.552634 
L 306.897286 185.563363 
L 307.293477 186.019562 
L 307.823926 186.572281 
L 308.154305 186.646214 
L 308.618942 186.471553 
L 308.886141 186.332923 
L 309.080946 186.395202 
L 309.284964 186.735621 
L 309.615343 187.873344 
L 310.208972 190.980956 
L 311.347529 196.853796 
L 311.799003 198.646357 
L 312.00039 199.428356 
L 313.261358 204.324367 
L 313.915534 205.719395 
L 314.917201 207.373695 
L 315.252845 207.521858 
L 315.643772 207.171493 
L 315.846474 206.732921 
L 316.172904 205.274412 
L 316.574361 202.782475 
L 317.10481 197.402834 
L 317.701071 191.694068 
L 318.095946 189.416457 
L 318.363145 188.826284 
L 318.638242 188.75904 
L 319.091032 189.059964 
L 319.48854 189.156016 
L 319.755738 188.809786 
L 320.749508 187.300751 
L 320.946945 187.250162 
L 321.210196 187.431722 
L 321.740645 188.143739 
L 323.467565 191.221551 
L 323.865073 192.827621 
L 324.391573 196.06987 
L 325.652542 204.291898 
L 326.113229 205.649319 
L 326.196153 205.649319 
L 326.375163 206.248866 
L 326.781885 206.895914 
L 326.975374 206.904701 
L 327.246521 206.467063 
L 327.507139 205.571027 
L 327.905963 203.163662 
L 329.430181 191.434713 
L 329.630251 191.092472 
L 329.764509 191.253928 
L 329.892185 191.656879 
L 330.227829 193.438122 
L 331.020212 198.423286 
L 331.284778 199.041272 
L 331.419036 198.904388 
L 331.616474 198.155265 
L 332.01793 195.480362 
L 332.612875 191.564359 
L 332.876125 190.863196 
L 333.005118 191.054519 
L 333.272317 192.405092 
L 333.675089 195.779959 
L 334.797851 204.941637 
L 335.192727 206.063732 
L 335.325668 206.121835 
L 335.52837 205.914913 
L 335.791621 205.216188 
L 336.127264 203.7525 
L 336.52214 200.796337 
L 337.584354 192.377038 
L 338.045042 190.931498 
L 338.245112 190.884096 
L 338.443866 191.194915 
L 339.570576 193.746019 
L 339.771963 193.783574 
L 340.029948 193.575703 
L 340.568294 192.742138 
L 341.161923 191.820091 
L 341.627876 191.380492 
L 341.891126 191.356305 
L 342.15306 191.589081 
L 342.620329 192.35504 
L 343.549602 194.090075 
L 344.012922 194.506377 
L 344.407798 194.621962 
L 344.739492 194.498101 
L 345.07382 194.138187 
L 345.868836 192.73794 
L 346.525645 191.785816 
L 346.728347 191.7439 
L 346.93105 191.925816 
L 347.260113 192.693959 
L 347.791878 194.797866 
L 349.976854 206.538887 
L 350.311182 207.243256 
L 350.444123 207.259941 
L 350.641561 206.968912 
L 350.965358 206.005913 
L 351.433944 203.764803 
L 353.093736 195.583971 
L 353.558372 194.507614 
L 353.824255 194.274433 
L 354.217814 194.213882 
L 354.685083 194.312299 
L 355.015462 194.590314 
L 355.414286 195.318818 
L 355.878922 196.690007 
L 357.471585 202.70225 
L 357.927008 203.67512 
L 358.461406 204.253213 
L 358.989223 204.479108 
L 359.452543 204.767921 
L 359.788187 205.201119 
L 360.385764 206.534201 
L 361.120232 208.538698 
L 361.508526 209.190108 
L 362.304858 209.986269 
L 362.569424 209.943927 
L 362.833991 209.618911 
L 363.235447 208.712504 
L 364.030463 205.841079 
L 364.624092 204.066943 
L 365.549416 202.121616 
L 365.949556 201.760501 
L 366.283884 201.700578 
L 366.747204 201.710513 
L 367.076266 201.493245 
L 368.004223 200.917258 
L 368.533356 200.541149 
L 369.065121 199.867992 
L 369.986497 198.316165 
L 370.455082 197.675926 
L 370.98948 197.002153 
L 372.112242 195.591145 
L 373.902343 191.952493 
L 374.302483 191.429686 
L 376.291338 186.813823 
L 376.488775 186.802242 
L 377.081088 187.839915 
L 377.482545 189.379244 
L 378.673751 194.062729 
L 380.729735 201.161146 
L 381.926207 205.864952 
L 382.323714 206.499935 
L 382.51852 206.535257 
L 382.714641 206.29797 
L 383.180594 205.251001 
L 383.64523 204.455574 
L 384.641632 203.09573 
L 385.10232 201.624316 
L 385.503776 199.680043 
L 386.36592 195.368171 
L 387.174098 192.406579 
L 387.557127 191.367848 
L 387.88619 190.889742 
L 388.020447 190.863216 
L 388.154705 191.036618 
L 388.420588 191.892195 
L 388.882592 194.511161 
L 389.86978 201.253492 
L 390.475255 203.727043 
L 391.003071 205.218524 
L 391.931028 206.626693 
L 392.260091 206.753745 
L 392.594418 206.636292 
L 393.05379 206.454907 
L 393.256493 206.547939 
L 393.519743 206.991513 
L 394.184449 208.546676 
L 395.116355 211.559445 
L 396.173304 215.667466 
L 397.500085 223.161718 
L 397.83178 226.192648 
L 398.092398 230.566633 
L 398.487273 242.537291 
L 398.487273 242.537291 
" style="fill:none;stroke:#ff7f0e;stroke-linecap:square;stroke-width:1.5;"/>
   </g>
   <g id="line2d_17">
    <path clip-path="url(#p2ac6596a8f)" d="M 73.832727 64.678554 
L 73.994626 59.129976 
L 74.39345 56.465742 
L 74.785693 54.849725 
L 75.320091 53.650596 
L 75.517528 53.572569 
L 75.649153 53.725817 
L 75.85054 54.280605 
L 76.444169 57.209073 
L 76.848258 60.105959 
L 77.049644 63.259168 
L 77.315526 72.014683 
L 77.634059 92.279406 
L 78.031567 128.0901 
L 79.027969 211.266198 
L 79.49787 231.636468 
L 79.955925 242.980541 
L 80.291569 247.076689 
L 80.549554 248.448689 
L 80.682496 248.451966 
L 80.885198 247.777018 
L 81.21821 245.424923 
L 82.017174 239.310499 
L 82.277792 238.73928 
L 82.473913 238.817898 
L 82.746377 239.307074 
L 83.143885 240.610095 
L 85.060345 248.699236 
L 85.594743 249.766103 
L 86.058064 250.231467 
L 86.450306 250.347512 
L 86.784634 250.172962 
L 87.247954 249.60379 
L 87.907396 248.361968 
L 88.840617 246.778403 
L 89.702762 245.763231 
L 90.562273 245.085739 
L 91.294109 244.769775 
L 94.013483 244.172463 
L 94.343861 244.515063 
L 95.665377 246.397686 
L 95.865447 246.133497 
L 96.330084 244.918305 
L 98.184681 237.851003 
L 98.776994 236.717292 
L 99.04156 236.596656 
L 99.641771 236.840253 
L 100.502599 237.405719 
L 100.900106 237.582222 
L 101.233117 238.069801 
L 101.567445 238.968037 
L 101.959688 240.868623 
L 103.083766 246.254012 
L 103.489171 247.160697 
L 103.948543 247.610558 
L 104.28287 247.657242 
L 105.014706 247.396304 
L 105.807089 247.075497 
L 106.204597 247.142149 
L 106.467846 247.405094 
L 106.936432 248.292997 
L 108.126322 251.28118 
L 109.122724 252.84645 
L 109.513651 254.051037 
L 111.174759 259.854896 
L 111.506454 260.339911 
L 111.714422 260.370427 
L 111.968458 260.058594 
L 112.238289 259.321987 
L 112.569985 257.745932 
L 113.159665 253.075258 
L 114.425898 243.456111 
L 114.955031 241.715035 
L 115.551292 240.730884 
L 115.9488 240.487749 
L 116.213366 240.519881 
L 116.675371 240.909524 
L 117.208452 241.741656 
L 118.598413 244.39847 
L 119.194674 246.884421 
L 120.455642 252.805403 
L 121.779791 257.330319 
L 122.376052 258.542357 
L 122.769611 258.830733 
L 123.098674 258.749473 
L 123.56331 258.420599 
L 124.027947 257.686962 
L 124.622892 256.162563 
L 125.352095 254.587607 
L 125.68379 254.210176 
L 125.887809 254.227406 
L 126.215555 254.636092 
L 126.878946 255.86493 
L 127.946425 257.783393 
L 128.40448 258.167293 
L 128.936246 258.323243 
L 129.266624 258.13656 
L 129.728629 257.582357 
L 130.332787 256.431161 
L 131.059358 254.495829 
L 131.589807 252.268743 
L 132.394036 247.677776 
L 132.849459 244.805254 
L 133.244334 242.883265 
L 133.968272 240.566267 
L 134.035401 240.566267 
L 134.242052 239.999859 
L 135.031803 238.239416 
L 135.961075 235.714622 
L 136.894297 233.485836 
L 137.161496 233.341023 
L 137.357617 233.479911 
L 137.682731 234.098144 
L 138.151317 235.463162 
L 139.412285 239.762062 
L 140.933871 246.108691 
L 141.667022 248.57459 
L 143.324182 253.200767 
L 143.917811 254.691268 
L 144.382447 255.316 
L 144.910264 255.686652 
L 146.039607 256.083435 
L 147.100505 256.113943 
L 147.763895 255.963419 
L 148.089009 255.616319 
L 148.358841 255.146699 
L 149.022231 253.925407 
L 149.288113 253.831728 
L 149.482919 253.937979 
L 149.681672 254.315265 
L 150.013368 255.504025 
L 151.554697 261.59263 
L 151.937726 262.426399 
L 152.401046 263.049851 
L 152.934128 263.432174 
L 153.259242 263.421808 
L 153.656749 263.119973 
L 153.992394 262.58554 
L 154.389901 261.428353 
L 154.98353 258.78397 
L 155.849623 255.107866 
L 156.310311 254.094206 
L 156.711767 253.694808 
L 158.166224 252.593338 
L 159.02442 251.725957 
L 159.296884 251.721711 
L 159.553553 252.139203 
L 159.89841 253.109075 
L 161.018539 257.935884 
L 161.550305 259.44993 
L 162.076805 260.342891 
L 162.540125 260.749216 
L 163.339089 261.056134 
L 163.936667 261.159429 
L 164.531613 261.05167 
L 164.994933 260.661503 
L 166.246687 259.275496 
L 166.932454 258.963201 
L 167.511604 258.891295 
L 168.508006 258.799934 
L 168.904197 258.383613 
L 169.632084 257.128627 
L 170.291526 256.142171 
L 170.560041 256.069176 
L 170.758795 256.250944 
L 171.025994 256.759011 
L 171.36427 257.689218 
L 172.351458 261.163419 
L 173.279415 263.670212 
L 174.005985 265.373543 
L 174.604879 266.22592 
L 174.93789 266.397801 
L 175.331449 266.354648 
L 176.060652 265.951391 
L 176.655598 265.753365 
L 177.254492 265.556489 
L 177.519058 265.062283 
L 177.850753 263.936065 
L 178.391732 261.184777 
L 178.918233 258.242147 
L 179.371023 256.417815 
L 179.908053 255.167901 
L 181.96272 251.446944 
L 182.820916 250.569213 
L 183.020986 250.672321 
L 183.288185 251.306595 
L 183.613299 252.832075 
L 184.0832 255.949017 
L 185.606102 266.835666 
L 186.128654 268.530196 
L 186.332673 268.573339 
L 186.532743 268.286542 
L 186.932883 267.152679 
L 187.729214 264.735437 
L 188.128039 264.237629 
L 189.519315 263.032188 
L 190.045816 262.077537 
L 191.105397 260.167835 
L 191.505538 259.876942 
L 191.835917 259.962601 
L 192.367682 260.438838 
L 193.162697 261.117536 
L 193.753694 261.258647 
L 194.622419 261.265091 
L 195.077842 261.608158 
L 195.480615 262.227644 
L 196.07556 263.727337 
L 197.270716 266.685313 
L 197.734036 267.180257 
L 198.13286 267.292843 
L 199.786071 267.461352 
L 200.585035 267.741196 
L 200.846969 267.579857 
L 201.114168 267.127392 
L 201.448495 266.160802 
L 202.059236 263.601637 
L 202.565992 261.05185 
L 203.296511 258.353494 
L 204.033612 256.462645 
L 205.555198 252.982409 
L 206.950423 250.41549 
L 207.609865 249.551816 
L 208.07845 249.272237 
L 208.3417 249.369784 
L 208.670763 249.826371 
L 209.070903 250.723651 
L 211.717883 257.437921 
L 212.112758 257.771748 
L 212.451035 257.772139 
L 212.99333 257.415483 
L 213.442171 257.019004 
L 214.431992 256.619444 
L 214.901893 256.626792 
L 215.22964 256.888747 
L 215.49289 257.330497 
L 215.889081 258.354528 
L 216.685413 261.029194 
L 217.281675 262.671547 
L 217.743679 263.373118 
L 217.945065 263.388747 
L 218.274128 263.065653 
L 218.873022 261.344076 
L 219.474548 259.775427 
L 219.874689 259.250957 
L 220.136622 259.225778 
L 220.865825 259.426373 
L 221.265965 259.847695 
L 221.729286 260.639562 
L 222.920493 263.151422 
L 223.386445 263.523429 
L 225.43848 264.317209 
L 225.70173 264.030596 
L 226.036058 263.28095 
L 226.763945 260.826544 
L 227.361522 259.100032 
L 227.761662 258.459755 
L 228.224983 258.221509 
L 228.689619 258.265711 
L 229.295095 258.268945 
L 229.559661 258.101931 
L 230.146709 257.047559 
L 231.335283 254.712232 
L 231.605115 254.685463 
L 231.864416 254.969199 
L 232.40013 255.928675 
L 232.862134 256.629916 
L 233.259642 256.915904 
L 233.987528 256.96121 
L 234.319223 257.073925 
L 234.719364 257.492593 
L 235.181368 258.31105 
L 235.780262 259.893678 
L 236.850373 262.823507 
L 237.168906 263.284248 
L 237.500601 263.431931 
L 237.832296 263.330168 
L 238.891878 262.66363 
L 239.227522 262.734737 
L 239.556585 263.122272 
L 240.155479 264.384112 
L 240.683296 265.525434 
L 240.760954 265.525434 
L 240.947862 265.792671 
L 241.150565 265.675781 
L 241.411182 265.109164 
L 241.807373 263.547217 
L 243.394772 255.78013 
L 243.798861 255.076244 
L 244.146351 254.854101 
L 244.459619 254.852137 
L 245.519201 255.24771 
L 245.789032 255.124972 
L 246.319481 254.526299 
L 246.907845 253.899813 
L 247.23954 253.814932 
L 247.50279 254.013476 
L 247.967427 254.668167 
L 248.364934 255.603751 
L 250.02341 259.774521 
L 250.686801 260.700322 
L 251.214617 261.126342 
L 251.547629 261.168716 
L 251.951717 260.884363 
L 252.475585 260.45632 
L 252.674339 260.588975 
L 252.938905 261.153879 
L 253.406174 262.82557 
L 254.068249 265.500697 
L 254.132745 265.500697 
L 254.334131 266.224035 
L 254.731639 266.851972 
L 254.997522 266.934251 
L 255.26472 266.769434 
L 255.609578 266.261582 
L 256.38485 264.097698 
L 257.250943 261.717369 
L 259.375371 257.877781 
L 259.783409 257.566165 
L 260.099309 257.542991 
L 260.499449 257.905872 
L 260.898273 258.456177 
L 261.424774 259.219367 
L 263.013488 261.107098 
L 263.60975 261.93181 
L 264.012522 262.2377 
L 264.41003 262.279536 
L 265.011557 262.040613 
L 265.470928 261.943366 
L 265.865803 262.073611 
L 266.13037 262.351021 
L 266.466014 262.987097 
L 266.929334 264.364451 
L 268.058677 267.871417 
L 269.112994 270.347587 
L 269.181439 270.347587 
L 269.380193 270.749272 
L 269.71452 271.013069 
L 269.981719 270.982934 
L 270.379227 270.525304 
L 270.968907 269.405701 
L 272.632648 266.147259 
L 272.897215 266.09689 
L 273.156516 266.254263 
L 273.825171 267.042055 
L 274.547793 268.284804 
L 275.216448 269.798055 
L 275.687666 270.692977 
L 276.077276 271.171864 
L 276.27603 271.14386 
L 276.53928 270.827647 
L 277.0026 269.828557 
L 278.200389 266.987129 
L 280.577537 263.081974 
L 280.909232 262.964227 
L 281.173799 263.129511 
L 281.571306 263.725804 
L 283.034977 266.214678 
L 283.565426 266.462202 
L 284.094559 266.445304 
L 284.693453 266.263044 
L 286.151859 265.47416 
L 286.41116 265.313205 
L 286.891592 265.235738 
L 287.344382 265.451207 
L 288.336835 265.959188 
L 289.193714 266.125874 
L 289.462229 266.696506 
L 289.861053 268.208043 
L 290.538922 271.693904 
L 290.982499 273.853311 
L 291.4524 275.195413 
L 291.848592 275.771774 
L 292.247416 275.977096 
L 292.844994 275.982055 
L 293.907208 275.733004 
L 294.899661 275.215196 
L 296.489692 274.253134 
L 296.821387 273.675223 
L 297.291288 272.365615 
L 298.808925 266.808628 
L 300.335776 262.027655 
L 301.129475 259.824992 
L 301.662557 258.667072 
L 302.061381 258.276924 
L 302.260134 258.329276 
L 302.589197 258.755791 
L 302.990654 259.691266 
L 304.058133 263.401908 
L 304.6386 265.487879 
L 305.498111 267.830703 
L 306.831473 270.456518 
L 307.293477 270.841697 
L 307.75943 270.996577 
L 308.025313 270.869355 
L 308.418872 270.281626 
L 308.886141 269.17294 
L 309.746969 266.371661 
L 310.742054 262.297242 
L 311.272503 260.3811 
L 311.667378 259.670167 
L 311.896406 259.665072 
L 312.395265 260.44997 
L 313.848406 263.17988 
L 314.381487 263.21534 
L 314.653951 263.111946 
L 315.252845 263.311706 
L 315.577959 263.475345 
L 315.775397 263.390905 
L 316.042596 263.024521 
L 316.238717 262.329483 
L 317.635259 255.960168 
L 317.830064 255.846211 
L 318.030134 256.038306 
L 318.363145 256.693711 
L 319.68861 260.203332 
L 320.013724 260.470427 
L 320.814004 260.363046 
L 321.410266 260.052207 
L 322.068391 259.495115 
L 323.333308 258.594308 
L 323.66237 258.552329 
L 323.932202 258.767935 
L 324.262581 259.377759 
L 325.714405 263.179125 
L 326.113229 263.470088 
L 326.581815 263.577473 
L 327.179392 263.604003 
L 327.574268 263.244929 
L 327.967827 262.510064 
L 328.370599 261.234173 
L 329.582866 257.22188 
L 329.764509 257.164115 
L 329.892185 257.319488 
L 330.158068 258.101891 
L 331.086024 261.480108 
L 331.221598 261.567084 
L 331.354539 261.407601 
L 331.616474 260.60079 
L 332.01793 258.571299 
L 332.748449 254.592324 
L 333.069614 253.845854 
L 333.210453 253.884468 
L 333.403942 254.290318 
L 333.607961 255.060018 
L 335.192727 262.131445 
L 335.595499 262.696599 
L 335.72844 262.614055 
L 335.927194 262.184688 
L 336.456327 260.035711 
L 337.714663 254.522539 
L 337.980545 254.207894 
L 338.180616 254.248828 
L 338.642619 254.724276 
L 340.029948 256.628458 
L 341.692372 257.977973 
L 341.955622 257.918781 
L 342.224137 257.64841 
L 343.285036 256.267714 
L 343.549602 256.246011 
L 343.881297 256.532328 
L 344.407798 257.342977 
L 345.005375 258.654149 
L 346.791527 263.035267 
L 347.056094 263.138607 
L 347.260113 262.987464 
L 347.658937 262.222204 
L 348.255198 260.325514 
L 348.85146 258.767346 
L 349.176574 258.432153 
L 349.581979 258.248866 
L 349.842596 258.379458 
L 351.299686 259.424841 
L 351.636646 259.282806 
L 352.228959 259.008749 
L 352.558022 259.065893 
L 352.959478 259.525428 
L 353.425431 260.29925 
L 353.950615 260.921238 
L 354.552141 261.576945 
L 355.015462 262.432764 
L 355.477465 263.770105 
L 356.206669 265.953413 
L 356.53968 266.426777 
L 356.805563 266.496427 
L 357.071445 266.311249 
L 358.065214 265.010164 
L 358.529851 264.802713 
L 358.86023 264.864858 
L 359.255105 265.105723 
L 359.788187 265.837229 
L 360.450261 266.720832 
L 362.171917 267.450397 
L 362.702366 267.553856 
L 362.965616 267.421672 
L 364.158139 266.256926 
L 364.504313 265.390152 
L 365.029497 263.631907 
L 365.483603 262.401827 
L 366.081181 261.32974 
L 367.211841 260.007067 
L 367.740973 258.894808 
L 368.267473 257.803589 
L 368.736059 257.277038 
L 368.996676 257.2106 
L 369.263875 257.409325 
L 370.323457 258.489726 
L 371.51598 259.102197 
L 371.981933 259.130597 
L 372.438672 259.268614 
L 372.773 259.538203 
L 373.902343 260.558336 
L 374.168225 260.41475 
L 374.634178 260.056995 
L 375.364697 258.386291 
L 375.759572 257.66383 
L 376.092584 257.442374 
L 376.488775 257.588697 
L 377.012643 258.441384 
L 377.081088 258.441384 
L 377.348287 259.126585 
L 378.213063 260.49877 
L 379.002814 261.571223 
L 380.147952 262.943447 
L 381.855129 267.503477 
L 382.190773 267.895281 
L 382.388211 267.878451 
L 382.714641 267.504095 
L 384.836437 264.370419 
L 385.235261 263.103196 
L 386.896369 258.017768 
L 387.229381 257.792509 
L 387.557127 257.816568 
L 387.821694 258.143833 
L 388.483768 259.617639 
L 389.410408 262.027771 
L 389.802651 262.488874 
L 390.275185 262.670886 
L 390.805634 262.893429 
L 391.995524 263.913067 
L 392.260091 263.793441 
L 392.657599 263.320116 
L 393.788258 261.593161 
L 394.051508 260.74741 
L 394.383203 258.743583 
L 394.912336 253.33162 
L 395.973234 240.616809 
L 396.499734 237.495674 
L 396.828797 236.687197 
L 397.028867 236.619855 
L 397.364511 237.081081 
L 397.765967 237.608279 
L 397.897592 237.285797 
L 398.092398 235.495545 
L 398.356964 229.649602 
L 398.487273 224.563837 
L 398.487273 224.563837 
" style="fill:none;stroke:#2ca02c;stroke-linecap:square;stroke-width:1.5;"/>
   </g>
   <g id="patch_3">
    <path d="M 57.6 307.584 
L 57.6 41.472 
" style="fill:none;stroke:#000000;stroke-linecap:square;stroke-linejoin:miter;stroke-width:0.8;"/>
   </g>
   <g id="patch_4">
    <path d="M 414.72 307.584 
L 414.72 41.472 
" style="fill:none;stroke:#000000;stroke-linecap:square;stroke-linejoin:miter;stroke-width:0.8;"/>
   </g>
   <g id="patch_5">
    <path d="M 57.6 307.584 
L 414.72 307.584 
" style="fill:none;stroke:#000000;stroke-linecap:square;stroke-linejoin:miter;stroke-width:0.8;"/>
   </g>
   <g id="patch_6">
    <path d="M 57.6 41.472 
L 414.72 41.472 
" style="fill:none;stroke:#000000;stroke-linecap:square;stroke-linejoin:miter;stroke-width:0.8;"/>
   </g>
   <g id="text_17">
    <!-- Vivo 1716/car_on_pocket/grav Dec 09 121014.txt -->
    <defs>
     <path d="M 28.609375 0 
L 0.78125 72.90625 
L 11.078125 72.90625 
L 34.1875 11.53125 
L 57.328125 72.90625 
L 67.578125 72.90625 
L 39.796875 0 
z
" id="DejaVuSans-86"/>
     <path d="M 2.984375 54.6875 
L 12.5 54.6875 
L 29.59375 8.796875 
L 46.6875 54.6875 
L 56.203125 54.6875 
L 35.6875 0 
L 23.484375 0 
z
" id="DejaVuSans-118"/>
     <path d="M 33.015625 40.375 
Q 26.375 40.375 22.484375 35.828125 
Q 18.609375 31.296875 18.609375 23.390625 
Q 18.609375 15.53125 22.484375 10.953125 
Q 26.375 6.390625 33.015625 6.390625 
Q 39.65625 6.390625 43.53125 10.953125 
Q 47.40625 15.53125 47.40625 23.390625 
Q 47.40625 31.296875 43.53125 35.828125 
Q 39.65625 40.375 33.015625 40.375 
z
M 52.59375 71.296875 
L 52.59375 62.3125 
Q 48.875 64.0625 45.09375 64.984375 
Q 41.3125 65.921875 37.59375 65.921875 
Q 27.828125 65.921875 22.671875 59.328125 
Q 17.53125 52.734375 16.796875 39.40625 
Q 19.671875 43.65625 24.015625 45.921875 
Q 28.375 48.1875 33.59375 48.1875 
Q 44.578125 48.1875 50.953125 41.515625 
Q 57.328125 34.859375 57.328125 23.390625 
Q 57.328125 12.15625 50.6875 5.359375 
Q 44.046875 -1.421875 33.015625 -1.421875 
Q 20.359375 -1.421875 13.671875 8.265625 
Q 6.984375 17.96875 6.984375 36.375 
Q 6.984375 53.65625 15.1875 63.9375 
Q 23.390625 74.21875 37.203125 74.21875 
Q 40.921875 74.21875 44.703125 73.484375 
Q 48.484375 72.75 52.59375 71.296875 
z
" id="DejaVuSans-54"/>
     <path d="M 25.390625 72.90625 
L 33.6875 72.90625 
L 8.296875 -9.28125 
L 0 -9.28125 
z
" id="DejaVuSans-47"/>
     <path d="M 41.109375 46.296875 
Q 39.59375 47.171875 37.8125 47.578125 
Q 36.03125 48 33.890625 48 
Q 26.265625 48 22.1875 43.046875 
Q 18.109375 38.09375 18.109375 28.8125 
L 18.109375 0 
L 9.078125 0 
L 9.078125 54.6875 
L 18.109375 54.6875 
L 18.109375 46.1875 
Q 20.953125 51.171875 25.484375 53.578125 
Q 30.03125 56 36.53125 56 
Q 37.453125 56 38.578125 55.875 
Q 39.703125 55.765625 41.0625 55.515625 
z
" id="DejaVuSans-114"/>
     <path d="M 50.984375 -16.609375 
L 50.984375 -23.578125 
L -0.984375 -23.578125 
L -0.984375 -16.609375 
z
" id="DejaVuSans-95"/>
     <path d="M 18.109375 8.203125 
L 18.109375 -20.796875 
L 9.078125 -20.796875 
L 9.078125 54.6875 
L 18.109375 54.6875 
L 18.109375 46.390625 
Q 20.953125 51.265625 25.265625 53.625 
Q 29.59375 56 35.59375 56 
Q 45.5625 56 51.78125 48.09375 
Q 58.015625 40.1875 58.015625 27.296875 
Q 58.015625 14.40625 51.78125 6.484375 
Q 45.5625 -1.421875 35.59375 -1.421875 
Q 29.59375 -1.421875 25.265625 0.953125 
Q 20.953125 3.328125 18.109375 8.203125 
z
M 48.6875 27.296875 
Q 48.6875 37.203125 44.609375 42.84375 
Q 40.53125 48.484375 33.40625 48.484375 
Q 26.265625 48.484375 22.1875 42.84375 
Q 18.109375 37.203125 18.109375 27.296875 
Q 18.109375 17.390625 22.1875 11.75 
Q 26.265625 6.109375 33.40625 6.109375 
Q 40.53125 6.109375 44.609375 11.75 
Q 48.6875 17.390625 48.6875 27.296875 
z
" id="DejaVuSans-112"/>
     <path d="M 9.078125 75.984375 
L 18.109375 75.984375 
L 18.109375 31.109375 
L 44.921875 54.6875 
L 56.390625 54.6875 
L 27.390625 29.109375 
L 57.625 0 
L 45.90625 0 
L 18.109375 26.703125 
L 18.109375 0 
L 9.078125 0 
z
" id="DejaVuSans-107"/>
     <path d="M 19.671875 64.796875 
L 19.671875 8.109375 
L 31.59375 8.109375 
Q 46.6875 8.109375 53.6875 14.9375 
Q 60.6875 21.78125 60.6875 36.53125 
Q 60.6875 51.171875 53.6875 57.984375 
Q 46.6875 64.796875 31.59375 64.796875 
z
M 9.8125 72.90625 
L 30.078125 72.90625 
Q 51.265625 72.90625 61.171875 64.09375 
Q 71.09375 55.28125 71.09375 36.53125 
Q 71.09375 17.671875 61.125 8.828125 
Q 51.171875 0 30.078125 0 
L 9.8125 0 
z
" id="DejaVuSans-68"/>
     <path d="M 10.984375 1.515625 
L 10.984375 10.5 
Q 14.703125 8.734375 18.5 7.8125 
Q 22.3125 6.890625 25.984375 6.890625 
Q 35.75 6.890625 40.890625 13.453125 
Q 46.046875 20.015625 46.78125 33.40625 
Q 43.953125 29.203125 39.59375 26.953125 
Q 35.25 24.703125 29.984375 24.703125 
Q 19.046875 24.703125 12.671875 31.3125 
Q 6.296875 37.9375 6.296875 49.421875 
Q 6.296875 60.640625 12.9375 67.421875 
Q 19.578125 74.21875 30.609375 74.21875 
Q 43.265625 74.21875 49.921875 64.515625 
Q 56.59375 54.828125 56.59375 36.375 
Q 56.59375 19.140625 48.40625 8.859375 
Q 40.234375 -1.421875 26.421875 -1.421875 
Q 22.703125 -1.421875 18.890625 -0.6875 
Q 15.09375 0.046875 10.984375 1.515625 
z
M 30.609375 32.421875 
Q 37.25 32.421875 41.125 36.953125 
Q 45.015625 41.5 45.015625 49.421875 
Q 45.015625 57.28125 41.125 61.84375 
Q 37.25 66.40625 30.609375 66.40625 
Q 23.96875 66.40625 20.09375 61.84375 
Q 16.21875 57.28125 16.21875 49.421875 
Q 16.21875 41.5 20.09375 36.953125 
Q 23.96875 32.421875 30.609375 32.421875 
z
" id="DejaVuSans-57"/>
     <path d="M 37.796875 64.3125 
L 12.890625 25.390625 
L 37.796875 25.390625 
z
M 35.203125 72.90625 
L 47.609375 72.90625 
L 47.609375 25.390625 
L 58.015625 25.390625 
L 58.015625 17.1875 
L 47.609375 17.1875 
L 47.609375 0 
L 37.796875 0 
L 37.796875 17.1875 
L 4.890625 17.1875 
L 4.890625 26.703125 
z
" id="DejaVuSans-52"/>
     <path d="M 54.890625 54.6875 
L 35.109375 28.078125 
L 55.90625 0 
L 45.3125 0 
L 29.390625 21.484375 
L 13.484375 0 
L 2.875 0 
L 24.125 28.609375 
L 4.6875 54.6875 
L 15.28125 54.6875 
L 29.78125 35.203125 
L 44.28125 54.6875 
z
" id="DejaVuSans-120"/>
    </defs>
    <g transform="translate(87.199688 35.472)scale(0.12 -0.12)">
     <use xlink:href="#DejaVuSans-86"/>
     <use x="68.376953" xlink:href="#DejaVuSans-105"/>
     <use x="96.160156" xlink:href="#DejaVuSans-118"/>
     <use x="155.339844" xlink:href="#DejaVuSans-111"/>
     <use x="216.521484" xlink:href="#DejaVuSans-32"/>
     <use x="248.308594" xlink:href="#DejaVuSans-49"/>
     <use x="311.931641" xlink:href="#DejaVuSans-55"/>
     <use x="375.554688" xlink:href="#DejaVuSans-49"/>
     <use x="439.177734" xlink:href="#DejaVuSans-54"/>
     <use x="502.800781" xlink:href="#DejaVuSans-47"/>
     <use x="536.492188" xlink:href="#DejaVuSans-99"/>
     <use x="591.472656" xlink:href="#DejaVuSans-97"/>
     <use x="652.751953" xlink:href="#DejaVuSans-114"/>
     <use x="693.865234" xlink:href="#DejaVuSans-95"/>
     <use x="743.865234" xlink:href="#DejaVuSans-111"/>
     <use x="805.046875" xlink:href="#DejaVuSans-110"/>
     <use x="868.425781" xlink:href="#DejaVuSans-95"/>
     <use x="918.425781" xlink:href="#DejaVuSans-112"/>
     <use x="981.902344" xlink:href="#DejaVuSans-111"/>
     <use x="1043.083984" xlink:href="#DejaVuSans-99"/>
     <use x="1098.064453" xlink:href="#DejaVuSans-107"/>
     <use x="1155.927734" xlink:href="#DejaVuSans-101"/>
     <use x="1217.451172" xlink:href="#DejaVuSans-116"/>
     <use x="1256.660156" xlink:href="#DejaVuSans-47"/>
     <use x="1290.351562" xlink:href="#DejaVuSans-103"/>
     <use x="1353.828125" xlink:href="#DejaVuSans-114"/>
     <use x="1394.941406" xlink:href="#DejaVuSans-97"/>
     <use x="1456.220703" xlink:href="#DejaVuSans-118"/>
     <use x="1515.400391" xlink:href="#DejaVuSans-32"/>
     <use x="1547.1875" xlink:href="#DejaVuSans-68"/>
     <use x="1624.189453" xlink:href="#DejaVuSans-101"/>
     <use x="1685.712891" xlink:href="#DejaVuSans-99"/>
     <use x="1740.693359" xlink:href="#DejaVuSans-32"/>
     <use x="1772.480469" xlink:href="#DejaVuSans-48"/>
     <use x="1836.103516" xlink:href="#DejaVuSans-57"/>
     <use x="1899.726562" xlink:href="#DejaVuSans-32"/>
     <use x="1931.513672" xlink:href="#DejaVuSans-49"/>
     <use x="1995.136719" xlink:href="#DejaVuSans-50"/>
     <use x="2058.759766" xlink:href="#DejaVuSans-49"/>
     <use x="2122.382812" xlink:href="#DejaVuSans-48"/>
     <use x="2186.005859" xlink:href="#DejaVuSans-49"/>
     <use x="2249.628906" xlink:href="#DejaVuSans-52"/>
     <use x="2313.251953" xlink:href="#DejaVuSans-46"/>
     <use x="2345.039062" xlink:href="#DejaVuSans-116"/>
     <use x="2384.248047" xlink:href="#DejaVuSans-120"/>
     <use x="2443.427734" xlink:href="#DejaVuSans-116"/>
    </g>
   </g>
   <g id="legend_1">
    <g id="patch_7">
     <path d="M 344.52 93.506375 
L 407.72 93.506375 
Q 409.72 93.506375 409.72 91.506375 
L 409.72 48.472 
Q 409.72 46.472 407.72 46.472 
L 344.52 46.472 
Q 342.52 46.472 342.52 48.472 
L 342.52 91.506375 
Q 342.52 93.506375 344.52 93.506375 
z
" style="fill:#ffffff;opacity:0.8;stroke:#cccccc;stroke-linejoin:miter;"/>
    </g>
    <g id="line2d_18">
     <path d="M 346.52 54.570438 
L 366.52 54.570438 
" style="fill:none;stroke:#1f77b4;stroke-linecap:square;stroke-width:1.5;"/>
    </g>
    <g id="line2d_19"/>
    <g id="text_18">
     <!-- X-Axis -->
     <defs>
      <path d="M 6.296875 72.90625 
L 16.890625 72.90625 
L 35.015625 45.796875 
L 53.21875 72.90625 
L 63.8125 72.90625 
L 40.375 37.890625 
L 65.375 0 
L 54.78125 0 
L 34.28125 31 
L 13.625 0 
L 2.984375 0 
L 29 38.921875 
z
" id="DejaVuSans-88"/>
      <path d="M 4.890625 31.390625 
L 31.203125 31.390625 
L 31.203125 23.390625 
L 4.890625 23.390625 
z
" id="DejaVuSans-45"/>
      <path d="M 34.1875 63.1875 
L 20.796875 26.90625 
L 47.609375 26.90625 
z
M 28.609375 72.90625 
L 39.796875 72.90625 
L 67.578125 0 
L 57.328125 0 
L 50.6875 18.703125 
L 17.828125 18.703125 
L 11.1875 0 
L 0.78125 0 
z
" id="DejaVuSans-65"/>
     </defs>
     <g transform="translate(374.52 58.070438)scale(0.1 -0.1)">
      <use xlink:href="#DejaVuSans-88"/>
      <use x="68.427734" xlink:href="#DejaVuSans-45"/>
      <use x="104.480469" xlink:href="#DejaVuSans-65"/>
      <use x="172.888672" xlink:href="#DejaVuSans-120"/>
      <use x="232.068359" xlink:href="#DejaVuSans-105"/>
      <use x="259.851562" xlink:href="#DejaVuSans-115"/>
     </g>
    </g>
    <g id="line2d_20">
     <path d="M 346.52 69.248563 
L 366.52 69.248563 
" style="fill:none;stroke:#ff7f0e;stroke-linecap:square;stroke-width:1.5;"/>
    </g>
    <g id="line2d_21"/>
    <g id="text_19">
     <!-- Y-Axis -->
     <defs>
      <path d="M -0.203125 72.90625 
L 10.40625 72.90625 
L 30.609375 42.921875 
L 50.6875 72.90625 
L 61.28125 72.90625 
L 35.5 34.71875 
L 35.5 0 
L 25.59375 0 
L 25.59375 34.71875 
z
" id="DejaVuSans-89"/>
     </defs>
     <g transform="translate(374.52 72.748563)scale(0.1 -0.1)">
      <use xlink:href="#DejaVuSans-89"/>
      <use x="60.912109" xlink:href="#DejaVuSans-45"/>
      <use x="96.964844" xlink:href="#DejaVuSans-65"/>
      <use x="165.373047" xlink:href="#DejaVuSans-120"/>
      <use x="224.552734" xlink:href="#DejaVuSans-105"/>
      <use x="252.335938" xlink:href="#DejaVuSans-115"/>
     </g>
    </g>
    <g id="line2d_22">
     <path d="M 346.52 83.926688 
L 366.52 83.926688 
" style="fill:none;stroke:#2ca02c;stroke-linecap:square;stroke-width:1.5;"/>
    </g>
    <g id="line2d_23"/>
    <g id="text_20">
     <!-- Z-Axis -->
     <defs>
      <path d="M 5.609375 72.90625 
L 62.890625 72.90625 
L 62.890625 65.375 
L 16.796875 8.296875 
L 64.015625 8.296875 
L 64.015625 0 
L 4.5 0 
L 4.5 7.515625 
L 50.59375 64.59375 
L 5.609375 64.59375 
z
" id="DejaVuSans-90"/>
     </defs>
     <g transform="translate(374.52 87.426688)scale(0.1 -0.1)">
      <use xlink:href="#DejaVuSans-90"/>
      <use x="68.490234" xlink:href="#DejaVuSans-45"/>
      <use x="104.542969" xlink:href="#DejaVuSans-65"/>
      <use x="172.951172" xlink:href="#DejaVuSans-120"/>
      <use x="232.130859" xlink:href="#DejaVuSans-105"/>
      <use x="259.914062" xlink:href="#DejaVuSans-115"/>
     </g>
    </g>
   </g>
  </g>
 </g>
 <defs>
  <clipPath id="p2ac6596a8f">
   <rect height="266.112" width="357.12" x="57.6" y="41.472"/>
  </clipPath>
 </defs>
</svg>
