<?xml version="1.0" encoding="utf-8" standalone="no"?>
<!DOCTYPE svg PUBLIC "-//W3C//DTD SVG 1.1//EN"
  "http://www.w3.org/Graphics/SVG/1.1/DTD/svg11.dtd">
<!-- Created with matplotlib (https://matplotlib.org/) -->
<svg height="345.6pt" version="1.1" viewBox="0 0 460.8 345.6" width="460.8pt" xmlns="http://www.w3.org/2000/svg" xmlns:xlink="http://www.w3.org/1999/xlink">
 <defs>
  <style type="text/css">
*{stroke-linecap:butt;stroke-linejoin:round;}
  </style>
 </defs>
 <g id="figure_1">
  <g id="patch_1">
   <path d="M 0 345.6 
L 460.8 345.6 
L 460.8 0 
L 0 0 
z
" style="fill:#ffffff;"/>
  </g>
  <g id="axes_1">
   <g id="patch_2">
    <path d="M 57.6 307.584 
L 414.72 307.584 
L 414.72 41.472 
L 57.6 41.472 
z
" style="fill:#ffffff;"/>
   </g>
   <g id="matplotlib.axis_1">
    <g id="xtick_1">
     <g id="line2d_1">
      <defs>
       <path d="M 0 0 
L 0 3.5 
" id="me19a1a386d" style="stroke:#000000;stroke-width:0.8;"/>
      </defs>
      <g>
       <use style="stroke:#000000;stroke-width:0.8;" x="73.832727" xlink:href="#me19a1a386d" y="307.584"/>
      </g>
     </g>
     <g id="text_1">
      <!-- 0 -->
      <defs>
       <path d="M 31.78125 66.40625 
Q 24.171875 66.40625 20.328125 58.90625 
Q 16.5 51.421875 16.5 36.375 
Q 16.5 21.390625 20.328125 13.890625 
Q 24.171875 6.390625 31.78125 6.390625 
Q 39.453125 6.390625 43.28125 13.890625 
Q 47.125 21.390625 47.125 36.375 
Q 47.125 51.421875 43.28125 58.90625 
Q 39.453125 66.40625 31.78125 66.40625 
z
M 31.78125 74.21875 
Q 44.046875 74.21875 50.515625 64.515625 
Q 56.984375 54.828125 56.984375 36.375 
Q 56.984375 17.96875 50.515625 8.265625 
Q 44.046875 -1.421875 31.78125 -1.421875 
Q 19.53125 -1.421875 13.0625 8.265625 
Q 6.59375 17.96875 6.59375 36.375 
Q 6.59375 54.828125 13.0625 64.515625 
Q 19.53125 74.21875 31.78125 74.21875 
z
" id="DejaVuSans-48"/>
      </defs>
      <g transform="translate(70.651477 322.182437)scale(0.1 -0.1)">
       <use xlink:href="#DejaVuSans-48"/>
      </g>
     </g>
    </g>
    <g id="xtick_2">
     <g id="line2d_2">
      <g>
       <use style="stroke:#000000;stroke-width:0.8;" x="139.867742" xlink:href="#me19a1a386d" y="307.584"/>
      </g>
     </g>
     <g id="text_2">
      <!-- 10 -->
      <defs>
       <path d="M 12.40625 8.296875 
L 28.515625 8.296875 
L 28.515625 63.921875 
L 10.984375 60.40625 
L 10.984375 69.390625 
L 28.421875 72.90625 
L 38.28125 72.90625 
L 38.28125 8.296875 
L 54.390625 8.296875 
L 54.390625 0 
L 12.40625 0 
z
" id="DejaVuSans-49"/>
      </defs>
      <g transform="translate(133.505242 322.182437)scale(0.1 -0.1)">
       <use xlink:href="#DejaVuSans-49"/>
       <use x="63.623047" xlink:href="#DejaVuSans-48"/>
      </g>
     </g>
    </g>
    <g id="xtick_3">
     <g id="line2d_3">
      <g>
       <use style="stroke:#000000;stroke-width:0.8;" x="205.902756" xlink:href="#me19a1a386d" y="307.584"/>
      </g>
     </g>
     <g id="text_3">
      <!-- 20 -->
      <defs>
       <path d="M 19.1875 8.296875 
L 53.609375 8.296875 
L 53.609375 0 
L 7.328125 0 
L 7.328125 8.296875 
Q 12.9375 14.109375 22.625 23.890625 
Q 32.328125 33.6875 34.8125 36.53125 
Q 39.546875 41.84375 41.421875 45.53125 
Q 43.3125 49.21875 43.3125 52.78125 
Q 43.3125 58.59375 39.234375 62.25 
Q 35.15625 65.921875 28.609375 65.921875 
Q 23.96875 65.921875 18.8125 64.3125 
Q 13.671875 62.703125 7.8125 59.421875 
L 7.8125 69.390625 
Q 13.765625 71.78125 18.9375 73 
Q 24.125 74.21875 28.421875 74.21875 
Q 39.75 74.21875 46.484375 68.546875 
Q 53.21875 62.890625 53.21875 53.421875 
Q 53.21875 48.921875 51.53125 44.890625 
Q 49.859375 40.875 45.40625 35.40625 
Q 44.1875 33.984375 37.640625 27.21875 
Q 31.109375 20.453125 19.1875 8.296875 
z
" id="DejaVuSans-50"/>
      </defs>
      <g transform="translate(199.540256 322.182437)scale(0.1 -0.1)">
       <use xlink:href="#DejaVuSans-50"/>
       <use x="63.623047" xlink:href="#DejaVuSans-48"/>
      </g>
     </g>
    </g>
    <g id="xtick_4">
     <g id="line2d_4">
      <g>
       <use style="stroke:#000000;stroke-width:0.8;" x="271.937771" xlink:href="#me19a1a386d" y="307.584"/>
      </g>
     </g>
     <g id="text_4">
      <!-- 30 -->
      <defs>
       <path d="M 40.578125 39.3125 
Q 47.65625 37.796875 51.625 33 
Q 55.609375 28.21875 55.609375 21.1875 
Q 55.609375 10.40625 48.1875 4.484375 
Q 40.765625 -1.421875 27.09375 -1.421875 
Q 22.515625 -1.421875 17.65625 -0.515625 
Q 12.796875 0.390625 7.625 2.203125 
L 7.625 11.71875 
Q 11.71875 9.328125 16.59375 8.109375 
Q 21.484375 6.890625 26.8125 6.890625 
Q 36.078125 6.890625 40.9375 10.546875 
Q 45.796875 14.203125 45.796875 21.1875 
Q 45.796875 27.640625 41.28125 31.265625 
Q 36.765625 34.90625 28.71875 34.90625 
L 20.21875 34.90625 
L 20.21875 43.015625 
L 29.109375 43.015625 
Q 36.375 43.015625 40.234375 45.921875 
Q 44.09375 48.828125 44.09375 54.296875 
Q 44.09375 59.90625 40.109375 62.90625 
Q 36.140625 65.921875 28.71875 65.921875 
Q 24.65625 65.921875 20.015625 65.03125 
Q 15.375 64.15625 9.8125 62.3125 
L 9.8125 71.09375 
Q 15.4375 72.65625 20.34375 73.4375 
Q 25.25 74.21875 29.59375 74.21875 
Q 40.828125 74.21875 47.359375 69.109375 
Q 53.90625 64.015625 53.90625 55.328125 
Q 53.90625 49.265625 50.4375 45.09375 
Q 46.96875 40.921875 40.578125 39.3125 
z
" id="DejaVuSans-51"/>
      </defs>
      <g transform="translate(265.575271 322.182437)scale(0.1 -0.1)">
       <use xlink:href="#DejaVuSans-51"/>
       <use x="63.623047" xlink:href="#DejaVuSans-48"/>
      </g>
     </g>
    </g>
    <g id="xtick_5">
     <g id="line2d_5">
      <g>
       <use style="stroke:#000000;stroke-width:0.8;" x="337.972785" xlink:href="#me19a1a386d" y="307.584"/>
      </g>
     </g>
     <g id="text_5">
      <!-- 40 -->
      <defs>
       <path d="M 37.796875 64.3125 
L 12.890625 25.390625 
L 37.796875 25.390625 
z
M 35.203125 72.90625 
L 47.609375 72.90625 
L 47.609375 25.390625 
L 58.015625 25.390625 
L 58.015625 17.1875 
L 47.609375 17.1875 
L 47.609375 0 
L 37.796875 0 
L 37.796875 17.1875 
L 4.890625 17.1875 
L 4.890625 26.703125 
z
" id="DejaVuSans-52"/>
      </defs>
      <g transform="translate(331.610285 322.182437)scale(0.1 -0.1)">
       <use xlink:href="#DejaVuSans-52"/>
       <use x="63.623047" xlink:href="#DejaVuSans-48"/>
      </g>
     </g>
    </g>
    <g id="xtick_6">
     <g id="line2d_6">
      <g>
       <use style="stroke:#000000;stroke-width:0.8;" x="404.0078" xlink:href="#me19a1a386d" y="307.584"/>
      </g>
     </g>
     <g id="text_6">
      <!-- 50 -->
      <defs>
       <path d="M 10.796875 72.90625 
L 49.515625 72.90625 
L 49.515625 64.59375 
L 19.828125 64.59375 
L 19.828125 46.734375 
Q 21.96875 47.46875 24.109375 47.828125 
Q 26.265625 48.1875 28.421875 48.1875 
Q 40.625 48.1875 47.75 41.5 
Q 54.890625 34.8125 54.890625 23.390625 
Q 54.890625 11.625 47.5625 5.09375 
Q 40.234375 -1.421875 26.90625 -1.421875 
Q 22.3125 -1.421875 17.546875 -0.640625 
Q 12.796875 0.140625 7.71875 1.703125 
L 7.71875 11.625 
Q 12.109375 9.234375 16.796875 8.0625 
Q 21.484375 6.890625 26.703125 6.890625 
Q 35.15625 6.890625 40.078125 11.328125 
Q 45.015625 15.765625 45.015625 23.390625 
Q 45.015625 31 40.078125 35.4375 
Q 35.15625 39.890625 26.703125 39.890625 
Q 22.75 39.890625 18.8125 39.015625 
Q 14.890625 38.140625 10.796875 36.28125 
z
" id="DejaVuSans-53"/>
      </defs>
      <g transform="translate(397.6453 322.182437)scale(0.1 -0.1)">
       <use xlink:href="#DejaVuSans-53"/>
       <use x="63.623047" xlink:href="#DejaVuSans-48"/>
      </g>
     </g>
    </g>
    <g id="text_7">
     <!-- Time (in seconds) -->
     <defs>
      <path d="M -0.296875 72.90625 
L 61.375 72.90625 
L 61.375 64.59375 
L 35.5 64.59375 
L 35.5 0 
L 25.59375 0 
L 25.59375 64.59375 
L -0.296875 64.59375 
z
" id="DejaVuSans-84"/>
      <path d="M 9.421875 54.6875 
L 18.40625 54.6875 
L 18.40625 0 
L 9.421875 0 
z
M 9.421875 75.984375 
L 18.40625 75.984375 
L 18.40625 64.59375 
L 9.421875 64.59375 
z
" id="DejaVuSans-105"/>
      <path d="M 52 44.1875 
Q 55.375 50.25 60.0625 53.125 
Q 64.75 56 71.09375 56 
Q 79.640625 56 84.28125 50.015625 
Q 88.921875 44.046875 88.921875 33.015625 
L 88.921875 0 
L 79.890625 0 
L 79.890625 32.71875 
Q 79.890625 40.578125 77.09375 44.375 
Q 74.3125 48.1875 68.609375 48.1875 
Q 61.625 48.1875 57.5625 43.546875 
Q 53.515625 38.921875 53.515625 30.90625 
L 53.515625 0 
L 44.484375 0 
L 44.484375 32.71875 
Q 44.484375 40.625 41.703125 44.40625 
Q 38.921875 48.1875 33.109375 48.1875 
Q 26.21875 48.1875 22.15625 43.53125 
Q 18.109375 38.875 18.109375 30.90625 
L 18.109375 0 
L 9.078125 0 
L 9.078125 54.6875 
L 18.109375 54.6875 
L 18.109375 46.1875 
Q 21.1875 51.21875 25.484375 53.609375 
Q 29.78125 56 35.6875 56 
Q 41.65625 56 45.828125 52.96875 
Q 50 49.953125 52 44.1875 
z
" id="DejaVuSans-109"/>
      <path d="M 56.203125 29.59375 
L 56.203125 25.203125 
L 14.890625 25.203125 
Q 15.484375 15.921875 20.484375 11.0625 
Q 25.484375 6.203125 34.421875 6.203125 
Q 39.59375 6.203125 44.453125 7.46875 
Q 49.3125 8.734375 54.109375 11.28125 
L 54.109375 2.78125 
Q 49.265625 0.734375 44.1875 -0.34375 
Q 39.109375 -1.421875 33.890625 -1.421875 
Q 20.796875 -1.421875 13.15625 6.1875 
Q 5.515625 13.8125 5.515625 26.8125 
Q 5.515625 40.234375 12.765625 48.109375 
Q 20.015625 56 32.328125 56 
Q 43.359375 56 49.78125 48.890625 
Q 56.203125 41.796875 56.203125 29.59375 
z
M 47.21875 32.234375 
Q 47.125 39.59375 43.09375 43.984375 
Q 39.0625 48.390625 32.421875 48.390625 
Q 24.90625 48.390625 20.390625 44.140625 
Q 15.875 39.890625 15.1875 32.171875 
z
" id="DejaVuSans-101"/>
      <path id="DejaVuSans-32"/>
      <path d="M 31 75.875 
Q 24.46875 64.65625 21.28125 53.65625 
Q 18.109375 42.671875 18.109375 31.390625 
Q 18.109375 20.125 21.3125 9.0625 
Q 24.515625 -2 31 -13.1875 
L 23.1875 -13.1875 
Q 15.875 -1.703125 12.234375 9.375 
Q 8.59375 20.453125 8.59375 31.390625 
Q 8.59375 42.28125 12.203125 53.3125 
Q 15.828125 64.359375 23.1875 75.875 
z
" id="DejaVuSans-40"/>
      <path d="M 54.890625 33.015625 
L 54.890625 0 
L 45.90625 0 
L 45.90625 32.71875 
Q 45.90625 40.484375 42.875 44.328125 
Q 39.84375 48.1875 33.796875 48.1875 
Q 26.515625 48.1875 22.3125 43.546875 
Q 18.109375 38.921875 18.109375 30.90625 
L 18.109375 0 
L 9.078125 0 
L 9.078125 54.6875 
L 18.109375 54.6875 
L 18.109375 46.1875 
Q 21.34375 51.125 25.703125 53.5625 
Q 30.078125 56 35.796875 56 
Q 45.21875 56 50.046875 50.171875 
Q 54.890625 44.34375 54.890625 33.015625 
z
" id="DejaVuSans-110"/>
      <path d="M 44.28125 53.078125 
L 44.28125 44.578125 
Q 40.484375 46.53125 36.375 47.5 
Q 32.28125 48.484375 27.875 48.484375 
Q 21.1875 48.484375 17.84375 46.4375 
Q 14.5 44.390625 14.5 40.28125 
Q 14.5 37.15625 16.890625 35.375 
Q 19.28125 33.59375 26.515625 31.984375 
L 29.59375 31.296875 
Q 39.15625 29.25 43.1875 25.515625 
Q 47.21875 21.78125 47.21875 15.09375 
Q 47.21875 7.46875 41.1875 3.015625 
Q 35.15625 -1.421875 24.609375 -1.421875 
Q 20.21875 -1.421875 15.453125 -0.5625 
Q 10.6875 0.296875 5.421875 2 
L 5.421875 11.28125 
Q 10.40625 8.6875 15.234375 7.390625 
Q 20.0625 6.109375 24.8125 6.109375 
Q 31.15625 6.109375 34.5625 8.28125 
Q 37.984375 10.453125 37.984375 14.40625 
Q 37.984375 18.0625 35.515625 20.015625 
Q 33.0625 21.96875 24.703125 23.78125 
L 21.578125 24.515625 
Q 13.234375 26.265625 9.515625 29.90625 
Q 5.8125 33.546875 5.8125 39.890625 
Q 5.8125 47.609375 11.28125 51.796875 
Q 16.75 56 26.8125 56 
Q 31.78125 56 36.171875 55.265625 
Q 40.578125 54.546875 44.28125 53.078125 
z
" id="DejaVuSans-115"/>
      <path d="M 48.78125 52.59375 
L 48.78125 44.1875 
Q 44.96875 46.296875 41.140625 47.34375 
Q 37.3125 48.390625 33.40625 48.390625 
Q 24.65625 48.390625 19.8125 42.84375 
Q 14.984375 37.3125 14.984375 27.296875 
Q 14.984375 17.28125 19.8125 11.734375 
Q 24.65625 6.203125 33.40625 6.203125 
Q 37.3125 6.203125 41.140625 7.25 
Q 44.96875 8.296875 48.78125 10.40625 
L 48.78125 2.09375 
Q 45.015625 0.34375 40.984375 -0.53125 
Q 36.96875 -1.421875 32.421875 -1.421875 
Q 20.0625 -1.421875 12.78125 6.34375 
Q 5.515625 14.109375 5.515625 27.296875 
Q 5.515625 40.671875 12.859375 48.328125 
Q 20.21875 56 33.015625 56 
Q 37.15625 56 41.109375 55.140625 
Q 45.0625 54.296875 48.78125 52.59375 
z
" id="DejaVuSans-99"/>
      <path d="M 30.609375 48.390625 
Q 23.390625 48.390625 19.1875 42.75 
Q 14.984375 37.109375 14.984375 27.296875 
Q 14.984375 17.484375 19.15625 11.84375 
Q 23.34375 6.203125 30.609375 6.203125 
Q 37.796875 6.203125 41.984375 11.859375 
Q 46.1875 17.53125 46.1875 27.296875 
Q 46.1875 37.015625 41.984375 42.703125 
Q 37.796875 48.390625 30.609375 48.390625 
z
M 30.609375 56 
Q 42.328125 56 49.015625 48.375 
Q 55.71875 40.765625 55.71875 27.296875 
Q 55.71875 13.875 49.015625 6.21875 
Q 42.328125 -1.421875 30.609375 -1.421875 
Q 18.84375 -1.421875 12.171875 6.21875 
Q 5.515625 13.875 5.515625 27.296875 
Q 5.515625 40.765625 12.171875 48.375 
Q 18.84375 56 30.609375 56 
z
" id="DejaVuSans-111"/>
      <path d="M 45.40625 46.390625 
L 45.40625 75.984375 
L 54.390625 75.984375 
L 54.390625 0 
L 45.40625 0 
L 45.40625 8.203125 
Q 42.578125 3.328125 38.25 0.953125 
Q 33.9375 -1.421875 27.875 -1.421875 
Q 17.96875 -1.421875 11.734375 6.484375 
Q 5.515625 14.40625 5.515625 27.296875 
Q 5.515625 40.1875 11.734375 48.09375 
Q 17.96875 56 27.875 56 
Q 33.9375 56 38.25 53.625 
Q 42.578125 51.265625 45.40625 46.390625 
z
M 14.796875 27.296875 
Q 14.796875 17.390625 18.875 11.75 
Q 22.953125 6.109375 30.078125 6.109375 
Q 37.203125 6.109375 41.296875 11.75 
Q 45.40625 17.390625 45.40625 27.296875 
Q 45.40625 37.203125 41.296875 42.84375 
Q 37.203125 48.484375 30.078125 48.484375 
Q 22.953125 48.484375 18.875 42.84375 
Q 14.796875 37.203125 14.796875 27.296875 
z
" id="DejaVuSans-100"/>
      <path d="M 8.015625 75.875 
L 15.828125 75.875 
Q 23.140625 64.359375 26.78125 53.3125 
Q 30.421875 42.28125 30.421875 31.390625 
Q 30.421875 20.453125 26.78125 9.375 
Q 23.140625 -1.703125 15.828125 -13.1875 
L 8.015625 -13.1875 
Q 14.5 -2 17.703125 9.0625 
Q 20.90625 20.125 20.90625 31.390625 
Q 20.90625 42.671875 17.703125 53.65625 
Q 14.5 64.65625 8.015625 75.875 
z
" id="DejaVuSans-41"/>
     </defs>
     <g transform="translate(191.6975 335.860562)scale(0.1 -0.1)">
      <use xlink:href="#DejaVuSans-84"/>
      <use x="61.037109" xlink:href="#DejaVuSans-105"/>
      <use x="88.820312" xlink:href="#DejaVuSans-109"/>
      <use x="186.232422" xlink:href="#DejaVuSans-101"/>
      <use x="247.755859" xlink:href="#DejaVuSans-32"/>
      <use x="279.542969" xlink:href="#DejaVuSans-40"/>
      <use x="318.556641" xlink:href="#DejaVuSans-105"/>
      <use x="346.339844" xlink:href="#DejaVuSans-110"/>
      <use x="409.71875" xlink:href="#DejaVuSans-32"/>
      <use x="441.505859" xlink:href="#DejaVuSans-115"/>
      <use x="493.605469" xlink:href="#DejaVuSans-101"/>
      <use x="555.128906" xlink:href="#DejaVuSans-99"/>
      <use x="610.109375" xlink:href="#DejaVuSans-111"/>
      <use x="671.291016" xlink:href="#DejaVuSans-110"/>
      <use x="734.669922" xlink:href="#DejaVuSans-100"/>
      <use x="798.146484" xlink:href="#DejaVuSans-115"/>
      <use x="850.246094" xlink:href="#DejaVuSans-41"/>
     </g>
    </g>
   </g>
   <g id="matplotlib.axis_2">
    <g id="ytick_1">
     <g id="line2d_7">
      <defs>
       <path d="M 0 0 
L -3.5 0 
" id="mfe473a373b" style="stroke:#000000;stroke-width:0.8;"/>
      </defs>
      <g>
       <use style="stroke:#000000;stroke-width:0.8;" x="57.6" xlink:href="#mfe473a373b" y="306.103314"/>
      </g>
     </g>
     <g id="text_8">
      <!-- −10.0 -->
      <defs>
       <path d="M 10.59375 35.5 
L 73.1875 35.5 
L 73.1875 27.203125 
L 10.59375 27.203125 
z
" id="DejaVuSans-8722"/>
       <path d="M 10.6875 12.40625 
L 21 12.40625 
L 21 0 
L 10.6875 0 
z
" id="DejaVuSans-46"/>
      </defs>
      <g transform="translate(19.954687 309.902532)scale(0.1 -0.1)">
       <use xlink:href="#DejaVuSans-8722"/>
       <use x="83.789062" xlink:href="#DejaVuSans-49"/>
       <use x="147.412109" xlink:href="#DejaVuSans-48"/>
       <use x="211.035156" xlink:href="#DejaVuSans-46"/>
       <use x="242.822266" xlink:href="#DejaVuSans-48"/>
      </g>
     </g>
    </g>
    <g id="ytick_2">
     <g id="line2d_8">
      <g>
       <use style="stroke:#000000;stroke-width:0.8;" x="57.6" xlink:href="#mfe473a373b" y="273.148086"/>
      </g>
     </g>
     <g id="text_9">
      <!-- −7.5 -->
      <defs>
       <path d="M 8.203125 72.90625 
L 55.078125 72.90625 
L 55.078125 68.703125 
L 28.609375 0 
L 18.3125 0 
L 43.21875 64.59375 
L 8.203125 64.59375 
z
" id="DejaVuSans-55"/>
      </defs>
      <g transform="translate(26.317187 276.947305)scale(0.1 -0.1)">
       <use xlink:href="#DejaVuSans-8722"/>
       <use x="83.789062" xlink:href="#DejaVuSans-55"/>
       <use x="147.412109" xlink:href="#DejaVuSans-46"/>
       <use x="179.199219" xlink:href="#DejaVuSans-53"/>
      </g>
     </g>
    </g>
    <g id="ytick_3">
     <g id="line2d_9">
      <g>
       <use style="stroke:#000000;stroke-width:0.8;" x="57.6" xlink:href="#mfe473a373b" y="240.192859"/>
      </g>
     </g>
     <g id="text_10">
      <!-- −5.0 -->
      <g transform="translate(26.317187 243.992078)scale(0.1 -0.1)">
       <use xlink:href="#DejaVuSans-8722"/>
       <use x="83.789062" xlink:href="#DejaVuSans-53"/>
       <use x="147.412109" xlink:href="#DejaVuSans-46"/>
       <use x="179.199219" xlink:href="#DejaVuSans-48"/>
      </g>
     </g>
    </g>
    <g id="ytick_4">
     <g id="line2d_10">
      <g>
       <use style="stroke:#000000;stroke-width:0.8;" x="57.6" xlink:href="#mfe473a373b" y="207.237632"/>
      </g>
     </g>
     <g id="text_11">
      <!-- −2.5 -->
      <g transform="translate(26.317187 211.036851)scale(0.1 -0.1)">
       <use xlink:href="#DejaVuSans-8722"/>
       <use x="83.789062" xlink:href="#DejaVuSans-50"/>
       <use x="147.412109" xlink:href="#DejaVuSans-46"/>
       <use x="179.199219" xlink:href="#DejaVuSans-53"/>
      </g>
     </g>
    </g>
    <g id="ytick_5">
     <g id="line2d_11">
      <g>
       <use style="stroke:#000000;stroke-width:0.8;" x="57.6" xlink:href="#mfe473a373b" y="174.282404"/>
      </g>
     </g>
     <g id="text_12">
      <!-- 0.0 -->
      <g transform="translate(34.696875 178.081623)scale(0.1 -0.1)">
       <use xlink:href="#DejaVuSans-48"/>
       <use x="63.623047" xlink:href="#DejaVuSans-46"/>
       <use x="95.410156" xlink:href="#DejaVuSans-48"/>
      </g>
     </g>
    </g>
    <g id="ytick_6">
     <g id="line2d_12">
      <g>
       <use style="stroke:#000000;stroke-width:0.8;" x="57.6" xlink:href="#mfe473a373b" y="141.327177"/>
      </g>
     </g>
     <g id="text_13">
      <!-- 2.5 -->
      <g transform="translate(34.696875 145.126396)scale(0.1 -0.1)">
       <use xlink:href="#DejaVuSans-50"/>
       <use x="63.623047" xlink:href="#DejaVuSans-46"/>
       <use x="95.410156" xlink:href="#DejaVuSans-53"/>
      </g>
     </g>
    </g>
    <g id="ytick_7">
     <g id="line2d_13">
      <g>
       <use style="stroke:#000000;stroke-width:0.8;" x="57.6" xlink:href="#mfe473a373b" y="108.37195"/>
      </g>
     </g>
     <g id="text_14">
      <!-- 5.0 -->
      <g transform="translate(34.696875 112.171169)scale(0.1 -0.1)">
       <use xlink:href="#DejaVuSans-53"/>
       <use x="63.623047" xlink:href="#DejaVuSans-46"/>
       <use x="95.410156" xlink:href="#DejaVuSans-48"/>
      </g>
     </g>
    </g>
    <g id="ytick_8">
     <g id="line2d_14">
      <g>
       <use style="stroke:#000000;stroke-width:0.8;" x="57.6" xlink:href="#mfe473a373b" y="75.416723"/>
      </g>
     </g>
     <g id="text_15">
      <!-- 7.5 -->
      <g transform="translate(34.696875 79.215941)scale(0.1 -0.1)">
       <use xlink:href="#DejaVuSans-55"/>
       <use x="63.623047" xlink:href="#DejaVuSans-46"/>
       <use x="95.410156" xlink:href="#DejaVuSans-53"/>
      </g>
     </g>
    </g>
    <g id="ytick_9">
     <g id="line2d_15">
      <g>
       <use style="stroke:#000000;stroke-width:0.8;" x="57.6" xlink:href="#mfe473a373b" y="42.461495"/>
      </g>
     </g>
     <g id="text_16">
      <!-- 10.0 -->
      <g transform="translate(28.334375 46.260714)scale(0.1 -0.1)">
       <use xlink:href="#DejaVuSans-49"/>
       <use x="63.623047" xlink:href="#DejaVuSans-48"/>
       <use x="127.246094" xlink:href="#DejaVuSans-46"/>
       <use x="159.033203" xlink:href="#DejaVuSans-48"/>
      </g>
     </g>
    </g>
    <g id="text_17">
     <!-- Magnitude -->
     <defs>
      <path d="M 9.8125 72.90625 
L 24.515625 72.90625 
L 43.109375 23.296875 
L 61.8125 72.90625 
L 76.515625 72.90625 
L 76.515625 0 
L 66.890625 0 
L 66.890625 64.015625 
L 48.09375 14.015625 
L 38.1875 14.015625 
L 19.390625 64.015625 
L 19.390625 0 
L 9.8125 0 
z
" id="DejaVuSans-77"/>
      <path d="M 34.28125 27.484375 
Q 23.390625 27.484375 19.1875 25 
Q 14.984375 22.515625 14.984375 16.5 
Q 14.984375 11.71875 18.140625 8.90625 
Q 21.296875 6.109375 26.703125 6.109375 
Q 34.1875 6.109375 38.703125 11.40625 
Q 43.21875 16.703125 43.21875 25.484375 
L 43.21875 27.484375 
z
M 52.203125 31.203125 
L 52.203125 0 
L 43.21875 0 
L 43.21875 8.296875 
Q 40.140625 3.328125 35.546875 0.953125 
Q 30.953125 -1.421875 24.3125 -1.421875 
Q 15.921875 -1.421875 10.953125 3.296875 
Q 6 8.015625 6 15.921875 
Q 6 25.140625 12.171875 29.828125 
Q 18.359375 34.515625 30.609375 34.515625 
L 43.21875 34.515625 
L 43.21875 35.40625 
Q 43.21875 41.609375 39.140625 45 
Q 35.0625 48.390625 27.6875 48.390625 
Q 23 48.390625 18.546875 47.265625 
Q 14.109375 46.140625 10.015625 43.890625 
L 10.015625 52.203125 
Q 14.9375 54.109375 19.578125 55.046875 
Q 24.21875 56 28.609375 56 
Q 40.484375 56 46.34375 49.84375 
Q 52.203125 43.703125 52.203125 31.203125 
z
" id="DejaVuSans-97"/>
      <path d="M 45.40625 27.984375 
Q 45.40625 37.75 41.375 43.109375 
Q 37.359375 48.484375 30.078125 48.484375 
Q 22.859375 48.484375 18.828125 43.109375 
Q 14.796875 37.75 14.796875 27.984375 
Q 14.796875 18.265625 18.828125 12.890625 
Q 22.859375 7.515625 30.078125 7.515625 
Q 37.359375 7.515625 41.375 12.890625 
Q 45.40625 18.265625 45.40625 27.984375 
z
M 54.390625 6.78125 
Q 54.390625 -7.171875 48.1875 -13.984375 
Q 42 -20.796875 29.203125 -20.796875 
Q 24.46875 -20.796875 20.265625 -20.09375 
Q 16.0625 -19.390625 12.109375 -17.921875 
L 12.109375 -9.1875 
Q 16.0625 -11.328125 19.921875 -12.34375 
Q 23.78125 -13.375 27.78125 -13.375 
Q 36.625 -13.375 41.015625 -8.765625 
Q 45.40625 -4.15625 45.40625 5.171875 
L 45.40625 9.625 
Q 42.625 4.78125 38.28125 2.390625 
Q 33.9375 0 27.875 0 
Q 17.828125 0 11.671875 7.65625 
Q 5.515625 15.328125 5.515625 27.984375 
Q 5.515625 40.671875 11.671875 48.328125 
Q 17.828125 56 27.875 56 
Q 33.9375 56 38.28125 53.609375 
Q 42.625 51.21875 45.40625 46.390625 
L 45.40625 54.6875 
L 54.390625 54.6875 
z
" id="DejaVuSans-103"/>
      <path d="M 18.3125 70.21875 
L 18.3125 54.6875 
L 36.8125 54.6875 
L 36.8125 47.703125 
L 18.3125 47.703125 
L 18.3125 18.015625 
Q 18.3125 11.328125 20.140625 9.421875 
Q 21.96875 7.515625 27.59375 7.515625 
L 36.8125 7.515625 
L 36.8125 0 
L 27.59375 0 
Q 17.1875 0 13.234375 3.875 
Q 9.28125 7.765625 9.28125 18.015625 
L 9.28125 47.703125 
L 2.6875 47.703125 
L 2.6875 54.6875 
L 9.28125 54.6875 
L 9.28125 70.21875 
z
" id="DejaVuSans-116"/>
      <path d="M 8.5 21.578125 
L 8.5 54.6875 
L 17.484375 54.6875 
L 17.484375 21.921875 
Q 17.484375 14.15625 20.5 10.265625 
Q 23.53125 6.390625 29.59375 6.390625 
Q 36.859375 6.390625 41.078125 11.03125 
Q 45.3125 15.671875 45.3125 23.6875 
L 45.3125 54.6875 
L 54.296875 54.6875 
L 54.296875 0 
L 45.3125 0 
L 45.3125 8.40625 
Q 42.046875 3.421875 37.71875 1 
Q 33.40625 -1.421875 27.6875 -1.421875 
Q 18.265625 -1.421875 13.375 4.4375 
Q 8.5 10.296875 8.5 21.578125 
z
M 31.109375 56 
z
" id="DejaVuSans-117"/>
     </defs>
     <g transform="translate(13.875 201.017844)rotate(-90)scale(0.1 -0.1)">
      <use xlink:href="#DejaVuSans-77"/>
      <use x="86.279297" xlink:href="#DejaVuSans-97"/>
      <use x="147.558594" xlink:href="#DejaVuSans-103"/>
      <use x="211.035156" xlink:href="#DejaVuSans-110"/>
      <use x="274.414062" xlink:href="#DejaVuSans-105"/>
      <use x="302.197266" xlink:href="#DejaVuSans-116"/>
      <use x="341.40625" xlink:href="#DejaVuSans-117"/>
      <use x="404.785156" xlink:href="#DejaVuSans-100"/>
      <use x="468.261719" xlink:href="#DejaVuSans-101"/>
     </g>
    </g>
   </g>
   <g id="line2d_16">
    <path clip-path="url(#p602cc6eab9)" d="M 73.832727 134.518294 
L 75.160032 145.583962 
L 76.454318 153.935006 
L 77.775018 166.526139 
L 79.069305 171.645222 
L 80.390004 189.122917 
L 81.697499 197.80987 
L 83.004992 212.340221 
L 84.286071 224.931354 
L 85.593564 286.051192 
L 86.901057 295.488 
L 88.234965 272.94292 
L 89.529251 277.286599 
L 90.843348 284.396391 
L 93.458334 269.943883 
L 94.746017 279.096281 
L 96.07332 265.626152 
L 97.400624 277.001981 
L 98.668497 275.166353 
L 99.989198 277.364035 
L 101.283483 280.570052 
L 102.597581 267.565168 
L 103.898471 287.111018 
L 105.21917 274.85619 
L 106.52006 276.174681 
L 107.814347 267.875532 
L 109.12184 268.340776 
L 110.435937 273.046307 
L 111.730223 265.832928 
L 113.04432 279.716805 
L 114.351813 266.815509 
L 115.679117 262.032334 
L 118.267689 260.170758 
L 119.561976 259.989934 
L 120.88928 257.94733 
L 122.176962 259.472793 
L 123.497663 257.171722 
L 124.798553 257.378496 
L 126.106046 256.706275 
L 127.413539 255.82728 
L 128.721032 256.137646 
L 130.028526 253.371127 
L 131.309605 253.293485 
L 132.636909 252.957378 
L 135.258498 253.060768 
L 137.873486 252.156024 
L 139.161168 252.569577 
L 140.475264 252.828244 
L 141.776154 252.414494 
L 143.242132 251.147696 
L 144.549625 251.690582 
L 145.863723 251.27683 
L 149.502251 251.380421 
L 150.822952 250.759893 
L 153.437938 251.173443 
L 154.745431 250.656506 
L 156.046321 251.587195 
L 157.353814 251.354472 
L 158.641498 251.354472 
L 159.968801 251.664633 
L 162.722462 250.372089 
L 164.029955 250.553118 
L 165.337448 250.966668 
L 166.644941 250.553118 
L 167.945831 251.173443 
L 168.995787 250.553118 
L 170.303281 251.070055 
L 172.891854 250.656506 
L 174.212554 250.863281 
L 175.533253 250.759893 
L 176.82754 250.966668 
L 178.115223 250.449528 
L 179.449131 251.070055 
L 180.750021 251.070055 
L 182.050909 250.449528 
L 183.365007 251.070055 
L 184.646086 250.242753 
L 185.97339 250.346141 
L 187.280883 250.759893 
L 188.588376 250.242753 
L 189.89587 250.449528 
L 191.176949 250.346141 
L 192.491045 250.759893 
L 193.824952 250.242753 
L 195.099428 251.018361 
L 196.413526 250.837332 
L 197.701208 250.992414 
L 199.008701 250.785639 
L 200.322799 251.044106 
L 201.755759 250.035979 
L 203.083062 250.863281 
L 204.390555 250.139366 
L 205.691445 250.449528 
L 206.998938 249.208479 
L 208.167758 250.656506 
L 209.455441 250.216808 
L 210.782744 250.475478 
L 212.083634 250.11342 
L 213.397732 250.682252 
L 214.705225 249.596483 
L 216.006115 250.242753 
L 217.313608 249.72562 
L 218.621101 249.932592 
L 219.928594 249.415455 
L 222.530374 250.320396 
L 225.14536 250.035979 
L 226.44625 250.216808 
L 227.89902 249.518843 
L 229.193307 250.035979 
L 230.487592 249.518843 
L 231.808293 249.72562 
L 233.10258 250.139366 
L 234.145933 249.72562 
L 235.440219 250.035979 
L 236.78073 249.829205 
L 238.061809 249.932592 
L 239.369302 249.622233 
L 240.70321 249.829205 
L 243.304989 249.829205 
L 244.612483 248.79493 
L 245.913372 249.932592 
L 247.220866 250.11342 
L 248.521756 249.932592 
L 249.829249 249.880698 
L 251.136742 250.449528 
L 252.444235 249.492895 
L 253.890403 249.415455 
L 256.485578 249.72562 
L 257.812882 249.105091 
L 259.087358 249.312067 
L 260.163728 249.72562 
L 261.444807 249.208479 
L 265.373891 249.518843 
L 266.687988 249.932592 
L 269.263353 249.622233 
L 270.603864 249.932592 
L 271.911357 249.622233 
L 273.205644 249.72562 
L 274.506534 249.518843 
L 275.82063 250.242753 
L 277.114917 249.415455 
L 278.429013 249.20868 
L 279.736507 249.777311 
L 282.32508 250.035979 
L 286.412647 249.312067 
L 287.713537 249.622233 
L 289.02103 249.208479 
L 290.308712 249.001704 
L 291.629413 249.105091 
L 292.685974 248.898317 
L 296.575436 249.105091 
L 297.889532 248.898317 
L 299.22344 249.105091 
L 300.517725 248.691543 
L 304.413792 249.001704 
L 305.741096 248.588154 
L 307.028778 248.588154 
L 308.336271 248.277791 
L 312.258752 248.898317 
L 313.559642 248.898317 
L 314.873738 248.38138 
L 316.187835 248.174404 
L 317.495328 248.79493 
L 318.789614 248.588154 
L 320.097108 249.001704 
L 321.411204 248.898317 
L 322.718697 249.415455 
L 324.012984 249.105091 
L 325.313874 249.105091 
L 326.634575 248.79493 
L 327.942068 249.415455 
L 329.256164 249.001704 
L 330.550451 248.79493 
L 333.158834 249.105091 
L 334.47293 248.691543 
L 335.806838 248.588154 
L 337.068107 248.898317 
L 338.382203 249.105091 
L 341.010396 248.484767 
L 342.324494 248.691543 
L 343.59897 249.932592 
L 344.926274 248.174404 
L 346.233767 249.54459 
L 347.521449 248.407126 
L 348.828942 247.502184 
L 350.14304 249.958337 
L 351.44393 256.75797 
L 352.771233 256.266779 
L 354.078726 255.491173 
L 355.379616 260.170758 
L 356.673901 256.75797 
L 357.994602 257.999021 
L 359.302095 257.714605 
L 360.589779 264.023245 
L 361.917083 269.012996 
L 363.204765 268.030614 
L 364.532069 280.750884 
L 365.839562 271.029651 
L 367.140451 291.713163 
L 368.454549 292.954204 
L 369.748834 252.983323 
L 371.056329 236.126158 
L 372.396839 228.705998 
L 376.299509 181.263064 
L 377.580588 183.95194 
L 378.914495 187.855919 
L 380.195574 163.139097 
L 381.522877 163.087403 
L 382.836975 161.303468 
L 384.118054 161.613831 
L 385.438755 163.087403 
L 386.73304 162.570265 
L 388.047138 161.148387 
L 389.348028 160.320886 
L 390.648918 153.857365 
L 391.969617 152.849036 
L 393.283714 156.701322 
L 394.584604 153.805671 
L 395.892097 153.547202 
L 397.173177 152.125123 
L 398.487273 153.004117 
L 398.487273 153.004117 
" style="fill:none;stroke:#1f77b4;stroke-linecap:square;stroke-width:1.5;"/>
   </g>
   <g id="line2d_17">
    <path clip-path="url(#p602cc6eab9)" d="M 73.832727 105.871544 
L 75.160032 104.113554 
L 76.454318 92.272082 
L 77.775018 88.290662 
L 79.069305 89.066269 
L 80.390004 90.643228 
L 81.697499 99.459717 
L 83.004992 109.31008 
L 84.286071 126.167249 
L 85.593564 131.829417 
L 86.901057 107.836506 
L 88.234965 123.840431 
L 89.529251 132.398248 
L 90.843348 135.526622 
L 92.137634 146.023458 
L 93.458334 151.944095 
L 94.746017 150.522217 
L 96.07332 143.153553 
L 97.400624 149.539634 
L 98.668497 148.738282 
L 99.989198 161.122439 
L 101.283483 176.790252 
L 102.597581 183.719218 
L 103.898471 187.002873 
L 105.21917 191.553124 
L 106.52006 197.344627 
L 107.814347 185.451459 
L 109.12184 187.209647 
L 110.435937 174.876982 
L 111.730223 177.6435 
L 113.04432 197.422068 
L 114.351813 203.161877 
L 115.679117 186.770151 
L 116.966799 188.062895 
L 118.267689 188.424751 
L 119.561976 188.424751 
L 120.88928 187.77848 
L 122.176962 188.140335 
L 123.497663 187.545758 
L 124.798553 187.93356 
L 126.106046 187.985254 
L 127.413539 187.054567 
L 128.721032 188.502393 
L 130.028526 187.649145 
L 131.309605 187.209647 
L 132.636909 186.873538 
L 133.970816 186.899284 
L 135.258498 186.744204 
L 136.565991 186.304706 
L 137.873486 186.304706 
L 139.161168 185.942851 
L 140.475264 186.149625 
L 141.776154 185.994544 
L 143.242132 186.821844 
L 144.549625 186.847591 
L 148.458898 186.123678 
L 149.502251 186.537428 
L 150.822952 186.123678 
L 152.123842 185.916903 
L 153.437938 186.227065 
L 154.745431 186.020291 
L 156.046321 186.201319 
L 158.641498 185.477406 
L 159.968801 186.071984 
L 161.269691 185.684181 
L 162.722462 185.787569 
L 164.029955 186.020291 
L 165.337448 186.123678 
L 166.644941 186.020291 
L 167.945831 185.710128 
L 170.303281 186.123678 
L 171.610774 185.813516 
L 172.891854 185.916903 
L 174.212554 185.813516 
L 175.533253 185.399765 
L 178.115223 185.916903 
L 179.449131 185.60654 
L 180.750021 185.60654 
L 183.365007 186.123678 
L 184.646086 185.60654 
L 185.97339 185.399765 
L 187.280883 186.123678 
L 188.588376 186.020291 
L 189.89587 186.123678 
L 191.176949 186.020291 
L 192.491045 185.60654 
L 193.824952 185.710128 
L 195.099428 185.425712 
L 196.413526 185.580794 
L 197.701208 185.348071 
L 199.008701 185.554846 
L 201.755759 185.425712 
L 203.083062 185.813516 
L 205.691445 185.710128 
L 208.167758 185.658435 
L 209.455441 185.916903 
L 210.782744 184.986216 
L 212.083634 184.805187 
L 213.397732 185.399765 
L 214.705225 185.684181 
L 216.006115 186.227065 
L 217.313608 185.916903 
L 218.621101 185.916903 
L 219.928594 185.399765 
L 221.229484 185.011962 
L 222.530374 185.296378 
L 223.831264 185.374019 
L 225.14536 185.115349 
L 226.44625 185.735875 
L 227.89902 185.60654 
L 229.193307 185.089402 
L 230.487592 185.503153 
L 231.808293 185.19299 
L 234.145933 185.19299 
L 235.440219 185.710128 
L 236.78073 185.503153 
L 238.061809 184.77924 
L 239.369302 185.19299 
L 240.70321 184.986014 
L 244.612483 185.296378 
L 245.913372 185.60654 
L 247.220866 184.934321 
L 248.521756 184.650106 
L 249.829249 184.572465 
L 251.136742 184.675852 
L 252.444235 184.624159 
L 253.890403 185.503153 
L 255.197896 185.296378 
L 256.485578 185.399765 
L 260.163728 185.089402 
L 261.444807 185.60654 
L 262.772112 184.986014 
L 264.079605 185.19299 
L 265.373891 184.986014 
L 270.603864 184.986014 
L 271.911357 185.296378 
L 273.205644 185.089402 
L 274.506534 185.399765 
L 275.82063 186.330654 
L 277.114917 185.399765 
L 278.429013 185.19299 
L 279.736507 184.753493 
L 281.044 184.805187 
L 282.32508 184.598211 
L 283.658986 184.572465 
L 284.959876 184.675852 
L 286.412647 184.986014 
L 287.713537 184.986014 
L 289.02103 184.36569 
L 290.308712 184.77924 
L 291.629413 185.503153 
L 292.685974 185.089402 
L 293.986864 185.399765 
L 296.575436 184.675852 
L 297.889532 184.675852 
L 299.22344 184.986014 
L 304.413792 184.469077 
L 305.741096 184.77924 
L 307.028778 184.572465 
L 308.336271 185.399765 
L 310.957862 184.882627 
L 312.258752 184.986014 
L 313.559642 184.882627 
L 314.873738 185.089402 
L 316.187835 184.675852 
L 317.495328 185.19299 
L 318.789614 184.882627 
L 320.097108 184.36569 
L 326.634575 184.882627 
L 329.256164 184.675852 
L 330.550451 184.882627 
L 331.857944 184.882627 
L 333.158834 185.296378 
L 334.47293 185.399765 
L 335.806838 184.572465 
L 337.068107 184.986014 
L 338.382203 184.77924 
L 339.689697 185.19299 
L 341.010396 185.089402 
L 342.324494 184.675852 
L 343.59897 185.399765 
L 344.926274 184.546719 
L 346.233767 185.477406 
L 347.521449 184.391436 
L 348.828942 186.511481 
L 350.14304 182.943611 
L 351.44393 184.572465 
L 352.771233 182.012924 
L 354.078726 182.064617 
L 355.379616 183.435003 
L 356.673901 180.79782 
L 357.994602 172.420828 
L 359.302095 176.660917 
L 360.589779 195.198635 
L 361.917083 186.511481 
L 363.204765 191.113628 
L 364.532069 209.134206 
L 365.839562 246.467909 
L 367.140451 248.639648 
L 368.454549 226.223898 
L 369.748834 184.805187 
L 371.056329 147.781647 
L 372.396839 114.894808 
L 373.704332 94.495716 
L 376.299509 103.156922 
L 377.580588 106.957511 
L 378.914495 113.084926 
L 380.195574 107.733119 
L 381.522877 111.14591 
L 382.836975 109.775526 
L 384.118054 108.922276 
L 385.438755 107.862455 
L 386.73304 100.545485 
L 388.047138 101.450429 
L 389.348028 106.49207 
L 390.648918 108.06923 
L 391.969617 106.518017 
L 394.584604 104.733881 
L 395.892097 105.32866 
L 397.173177 106.052574 
L 398.487273 106.595457 
L 398.487273 106.595457 
" style="fill:none;stroke:#ff7f0e;stroke-linecap:square;stroke-width:1.5;"/>
   </g>
   <g id="line2d_18">
    <path clip-path="url(#p602cc6eab9)" d="M 73.832727 67.193405 
L 75.160032 75.130698 
L 76.454318 78.491793 
L 77.775018 83.662569 
L 79.069305 88.161326 
L 80.390004 85.756868 
L 81.697499 77.897012 
L 83.004992 74.846281 
L 84.286071 86.55822 
L 85.593564 129.554291 
L 86.901057 216.735392 
L 88.234965 229.610941 
L 89.529251 243.468872 
L 90.843348 232.506593 
L 92.137634 243.081068 
L 93.458334 256.111697 
L 94.746017 245.22706 
L 96.07332 251.147696 
L 97.400624 247.321154 
L 98.668497 247.734908 
L 99.989198 243.598206 
L 101.283483 242.021044 
L 102.597581 245.22706 
L 105.21917 252.647216 
L 106.52006 253.888266 
L 107.814347 264.385102 
L 109.12184 260.6879 
L 110.435937 249.596483 
L 111.730223 255.982364 
L 113.04432 256.809662 
L 114.351813 256.913253 
L 115.679117 267.797891 
L 116.966799 268.444163 
L 118.267689 267.875532 
L 119.561976 269.426743 
L 120.88928 270.409125 
L 122.176962 269.012996 
L 123.497663 272.374087 
L 126.106046 271.676121 
L 127.413539 272.813586 
L 128.721032 272.813586 
L 130.028526 275.347381 
L 132.636909 275.761133 
L 133.970816 275.399073 
L 135.258498 275.580103 
L 136.565991 276.045347 
L 137.873486 276.174681 
L 139.161168 276.485044 
L 140.475264 276.148937 
L 141.776154 276.226375 
L 143.242132 276.872848 
L 144.549625 277.286397 
L 145.863723 276.976235 
L 147.158008 277.493373 
L 148.458898 277.700148 
L 149.502251 277.389986 
L 150.822952 277.18301 
L 152.123842 277.389986 
L 153.437938 277.389784 
L 154.745431 278.010512 
L 156.046321 277.208957 
L 157.353814 276.769457 
L 158.641498 277.312345 
L 159.968801 276.821153 
L 161.269691 277.777788 
L 162.722462 277.493373 
L 164.029955 277.59676 
L 165.337448 277.389784 
L 166.644941 278.113899 
L 168.995787 278.42406 
L 171.610774 277.700148 
L 174.212554 278.010512 
L 176.82754 277.803536 
L 178.115223 277.493373 
L 179.449131 277.389784 
L 180.750021 277.493373 
L 182.050909 277.389784 
L 183.365007 277.803536 
L 184.646086 277.906923 
L 185.97339 277.700148 
L 187.280883 278.113899 
L 188.588376 278.113899 
L 189.89587 277.700148 
L 191.176949 277.803536 
L 192.491045 278.527447 
L 193.824952 277.700148 
L 195.099428 278.062205 
L 196.413526 277.053874 
L 197.701208 277.648452 
L 199.008701 277.260648 
L 203.083062 277.493373 
L 204.390555 278.113899 
L 205.691445 278.217286 
L 206.998938 278.113899 
L 208.167758 278.268979 
L 209.455441 277.751839 
L 210.782744 277.674401 
L 212.083634 278.398114 
L 213.397732 278.191338 
L 214.705225 278.786119 
L 216.006115 278.630834 
L 217.313608 278.941199 
L 218.621101 278.837812 
L 219.928594 279.044586 
L 221.229484 278.139643 
L 226.44625 277.648452 
L 227.89902 278.837812 
L 235.440219 278.734423 
L 236.78073 279.147973 
L 239.369302 278.320673 
L 241.997496 279.25136 
L 244.612483 278.630834 
L 245.913372 279.147973 
L 247.220866 278.579142 
L 248.521756 278.372367 
L 249.829249 278.708477 
L 253.890403 278.320673 
L 256.485578 279.044586 
L 257.812882 278.837812 
L 259.087358 278.837812 
L 260.163728 278.42406 
L 261.444807 278.941199 
L 262.772112 279.25136 
L 264.079605 279.044586 
L 265.373891 278.527447 
L 266.687988 278.42406 
L 267.962463 278.630834 
L 269.263353 279.044586 
L 270.603864 278.837812 
L 271.911357 278.217286 
L 273.205644 278.630834 
L 274.506534 278.630834 
L 275.82063 277.906923 
L 277.114917 278.630834 
L 278.429013 279.044586 
L 279.736507 278.656783 
L 282.32508 278.320673 
L 283.658986 278.553395 
L 284.959876 278.450008 
L 286.412647 279.354749 
L 289.02103 279.25136 
L 290.308712 279.561723 
L 291.629413 279.147973 
L 292.685974 278.941199 
L 293.986864 279.25136 
L 295.254735 279.354749 
L 296.575436 279.044586 
L 297.889532 279.25136 
L 299.22344 279.25136 
L 300.517725 279.561723 
L 301.785599 279.147973 
L 303.112902 279.561723 
L 304.413792 279.147973 
L 305.741096 279.147973 
L 307.028778 278.734423 
L 308.336271 278.527447 
L 309.656972 279.768502 
L 310.957862 279.044586 
L 312.258752 278.941199 
L 313.559642 279.665114 
L 314.873738 279.354749 
L 316.187835 279.561723 
L 317.495328 279.561723 
L 318.789614 279.975276 
L 320.097108 279.458136 
L 321.411204 279.354749 
L 322.718697 279.665114 
L 324.012984 279.147973 
L 325.313874 279.458136 
L 326.634575 279.147973 
L 329.256164 279.25136 
L 330.550451 279.458136 
L 333.158834 279.458136 
L 334.47293 279.871889 
L 335.806838 279.665114 
L 337.068107 279.354749 
L 338.382203 279.354749 
L 339.689697 279.665114 
L 342.324494 279.147973 
L 343.59897 279.044586 
L 344.926274 280.156306 
L 346.233767 278.268979 
L 348.828942 278.398315 
L 351.44393 273.873609 
L 352.771233 274.158024 
L 354.078726 273.485805 
L 355.379616 270.745235 
L 356.673901 272.865278 
L 357.994602 274.597523 
L 359.302095 269.53013 
L 360.589779 265.98801 
L 361.917083 260.300096 
L 363.204765 256.111697 
L 364.532069 233.127117 
L 365.839562 233.385588 
L 367.140451 219.605296 
L 368.454549 116.44602 
L 369.748834 94.547409 
L 371.056329 88.807599 
L 372.396839 93.22872 
L 373.704332 76.242413 
L 374.998619 84.593458 
L 376.299509 59.411186 
L 377.580588 65.435217 
L 378.914495 74.794588 
L 380.195574 53.568 
L 381.522877 62.875677 
L 382.836975 65.641991 
L 384.118054 62.100069 
L 385.438755 65.616247 
L 386.73304 67.477821 
L 388.047138 69.13242 
L 389.348028 74.251505 
L 390.648918 66.676271 
L 391.969617 62.100069 
L 393.283714 67.245092 
L 394.584604 69.05498 
L 395.892097 69.649558 
L 397.173177 64.53028 
L 398.487273 68.279174 
L 398.487273 68.279174 
" style="fill:none;stroke:#2ca02c;stroke-linecap:square;stroke-width:1.5;"/>
   </g>
   <g id="patch_3">
    <path d="M 57.6 307.584 
L 57.6 41.472 
" style="fill:none;stroke:#000000;stroke-linecap:square;stroke-linejoin:miter;stroke-width:0.8;"/>
   </g>
   <g id="patch_4">
    <path d="M 414.72 307.584 
L 414.72 41.472 
" style="fill:none;stroke:#000000;stroke-linecap:square;stroke-linejoin:miter;stroke-width:0.8;"/>
   </g>
   <g id="patch_5">
    <path d="M 57.6 307.584 
L 414.72 307.584 
" style="fill:none;stroke:#000000;stroke-linecap:square;stroke-linejoin:miter;stroke-width:0.8;"/>
   </g>
   <g id="patch_6">
    <path d="M 57.6 41.472 
L 414.72 41.472 
" style="fill:none;stroke:#000000;stroke-linecap:square;stroke-linejoin:miter;stroke-width:0.8;"/>
   </g>
   <g id="text_18">
    <!-- Vivo 1716/car_off/accelerometer Dec 09 120835.txt -->
    <defs>
     <path d="M 28.609375 0 
L 0.78125 72.90625 
L 11.078125 72.90625 
L 34.1875 11.53125 
L 57.328125 72.90625 
L 67.578125 72.90625 
L 39.796875 0 
z
" id="DejaVuSans-86"/>
     <path d="M 2.984375 54.6875 
L 12.5 54.6875 
L 29.59375 8.796875 
L 46.6875 54.6875 
L 56.203125 54.6875 
L 35.6875 0 
L 23.484375 0 
z
" id="DejaVuSans-118"/>
     <path d="M 33.015625 40.375 
Q 26.375 40.375 22.484375 35.828125 
Q 18.609375 31.296875 18.609375 23.390625 
Q 18.609375 15.53125 22.484375 10.953125 
Q 26.375 6.390625 33.015625 6.390625 
Q 39.65625 6.390625 43.53125 10.953125 
Q 47.40625 15.53125 47.40625 23.390625 
Q 47.40625 31.296875 43.53125 35.828125 
Q 39.65625 40.375 33.015625 40.375 
z
M 52.59375 71.296875 
L 52.59375 62.3125 
Q 48.875 64.0625 45.09375 64.984375 
Q 41.3125 65.921875 37.59375 65.921875 
Q 27.828125 65.921875 22.671875 59.328125 
Q 17.53125 52.734375 16.796875 39.40625 
Q 19.671875 43.65625 24.015625 45.921875 
Q 28.375 48.1875 33.59375 48.1875 
Q 44.578125 48.1875 50.953125 41.515625 
Q 57.328125 34.859375 57.328125 23.390625 
Q 57.328125 12.15625 50.6875 5.359375 
Q 44.046875 -1.421875 33.015625 -1.421875 
Q 20.359375 -1.421875 13.671875 8.265625 
Q 6.984375 17.96875 6.984375 36.375 
Q 6.984375 53.65625 15.1875 63.9375 
Q 23.390625 74.21875 37.203125 74.21875 
Q 40.921875 74.21875 44.703125 73.484375 
Q 48.484375 72.75 52.59375 71.296875 
z
" id="DejaVuSans-54"/>
     <path d="M 25.390625 72.90625 
L 33.6875 72.90625 
L 8.296875 -9.28125 
L 0 -9.28125 
z
" id="DejaVuSans-47"/>
     <path d="M 41.109375 46.296875 
Q 39.59375 47.171875 37.8125 47.578125 
Q 36.03125 48 33.890625 48 
Q 26.265625 48 22.1875 43.046875 
Q 18.109375 38.09375 18.109375 28.8125 
L 18.109375 0 
L 9.078125 0 
L 9.078125 54.6875 
L 18.109375 54.6875 
L 18.109375 46.1875 
Q 20.953125 51.171875 25.484375 53.578125 
Q 30.03125 56 36.53125 56 
Q 37.453125 56 38.578125 55.875 
Q 39.703125 55.765625 41.0625 55.515625 
z
" id="DejaVuSans-114"/>
     <path d="M 50.984375 -16.609375 
L 50.984375 -23.578125 
L -0.984375 -23.578125 
L -0.984375 -16.609375 
z
" id="DejaVuSans-95"/>
     <path d="M 37.109375 75.984375 
L 37.109375 68.5 
L 28.515625 68.5 
Q 23.6875 68.5 21.796875 66.546875 
Q 19.921875 64.59375 19.921875 59.515625 
L 19.921875 54.6875 
L 34.71875 54.6875 
L 34.71875 47.703125 
L 19.921875 47.703125 
L 19.921875 0 
L 10.890625 0 
L 10.890625 47.703125 
L 2.296875 47.703125 
L 2.296875 54.6875 
L 10.890625 54.6875 
L 10.890625 58.5 
Q 10.890625 67.625 15.140625 71.796875 
Q 19.390625 75.984375 28.609375 75.984375 
z
" id="DejaVuSans-102"/>
     <path d="M 9.421875 75.984375 
L 18.40625 75.984375 
L 18.40625 0 
L 9.421875 0 
z
" id="DejaVuSans-108"/>
     <path d="M 19.671875 64.796875 
L 19.671875 8.109375 
L 31.59375 8.109375 
Q 46.6875 8.109375 53.6875 14.9375 
Q 60.6875 21.78125 60.6875 36.53125 
Q 60.6875 51.171875 53.6875 57.984375 
Q 46.6875 64.796875 31.59375 64.796875 
z
M 9.8125 72.90625 
L 30.078125 72.90625 
Q 51.265625 72.90625 61.171875 64.09375 
Q 71.09375 55.28125 71.09375 36.53125 
Q 71.09375 17.671875 61.125 8.828125 
Q 51.171875 0 30.078125 0 
L 9.8125 0 
z
" id="DejaVuSans-68"/>
     <path d="M 10.984375 1.515625 
L 10.984375 10.5 
Q 14.703125 8.734375 18.5 7.8125 
Q 22.3125 6.890625 25.984375 6.890625 
Q 35.75 6.890625 40.890625 13.453125 
Q 46.046875 20.015625 46.78125 33.40625 
Q 43.953125 29.203125 39.59375 26.953125 
Q 35.25 24.703125 29.984375 24.703125 
Q 19.046875 24.703125 12.671875 31.3125 
Q 6.296875 37.9375 6.296875 49.421875 
Q 6.296875 60.640625 12.9375 67.421875 
Q 19.578125 74.21875 30.609375 74.21875 
Q 43.265625 74.21875 49.921875 64.515625 
Q 56.59375 54.828125 56.59375 36.375 
Q 56.59375 19.140625 48.40625 8.859375 
Q 40.234375 -1.421875 26.421875 -1.421875 
Q 22.703125 -1.421875 18.890625 -0.6875 
Q 15.09375 0.046875 10.984375 1.515625 
z
M 30.609375 32.421875 
Q 37.25 32.421875 41.125 36.953125 
Q 45.015625 41.5 45.015625 49.421875 
Q 45.015625 57.28125 41.125 61.84375 
Q 37.25 66.40625 30.609375 66.40625 
Q 23.96875 66.40625 20.09375 61.84375 
Q 16.21875 57.28125 16.21875 49.421875 
Q 16.21875 41.5 20.09375 36.953125 
Q 23.96875 32.421875 30.609375 32.421875 
z
" id="DejaVuSans-57"/>
     <path d="M 31.78125 34.625 
Q 24.75 34.625 20.71875 30.859375 
Q 16.703125 27.09375 16.703125 20.515625 
Q 16.703125 13.921875 20.71875 10.15625 
Q 24.75 6.390625 31.78125 6.390625 
Q 38.8125 6.390625 42.859375 10.171875 
Q 46.921875 13.96875 46.921875 20.515625 
Q 46.921875 27.09375 42.890625 30.859375 
Q 38.875 34.625 31.78125 34.625 
z
M 21.921875 38.8125 
Q 15.578125 40.375 12.03125 44.71875 
Q 8.5 49.078125 8.5 55.328125 
Q 8.5 64.0625 14.71875 69.140625 
Q 20.953125 74.21875 31.78125 74.21875 
Q 42.671875 74.21875 48.875 69.140625 
Q 55.078125 64.0625 55.078125 55.328125 
Q 55.078125 49.078125 51.53125 44.71875 
Q 48 40.375 41.703125 38.8125 
Q 48.828125 37.15625 52.796875 32.3125 
Q 56.78125 27.484375 56.78125 20.515625 
Q 56.78125 9.90625 50.3125 4.234375 
Q 43.84375 -1.421875 31.78125 -1.421875 
Q 19.734375 -1.421875 13.25 4.234375 
Q 6.78125 9.90625 6.78125 20.515625 
Q 6.78125 27.484375 10.78125 32.3125 
Q 14.796875 37.15625 21.921875 38.8125 
z
M 18.3125 54.390625 
Q 18.3125 48.734375 21.84375 45.5625 
Q 25.390625 42.390625 31.78125 42.390625 
Q 38.140625 42.390625 41.71875 45.5625 
Q 45.3125 48.734375 45.3125 54.390625 
Q 45.3125 60.0625 41.71875 63.234375 
Q 38.140625 66.40625 31.78125 66.40625 
Q 25.390625 66.40625 21.84375 63.234375 
Q 18.3125 60.0625 18.3125 54.390625 
z
" id="DejaVuSans-56"/>
     <path d="M 54.890625 54.6875 
L 35.109375 28.078125 
L 55.90625 0 
L 45.3125 0 
L 29.390625 21.484375 
L 13.484375 0 
L 2.875 0 
L 24.125 28.609375 
L 4.6875 54.6875 
L 15.28125 54.6875 
L 29.78125 35.203125 
L 44.28125 54.6875 
z
" id="DejaVuSans-120"/>
    </defs>
    <g transform="translate(80.068125 35.472)scale(0.12 -0.12)">
     <use xlink:href="#DejaVuSans-86"/>
     <use x="68.376953" xlink:href="#DejaVuSans-105"/>
     <use x="96.160156" xlink:href="#DejaVuSans-118"/>
     <use x="155.339844" xlink:href="#DejaVuSans-111"/>
     <use x="216.521484" xlink:href="#DejaVuSans-32"/>
     <use x="248.308594" xlink:href="#DejaVuSans-49"/>
     <use x="311.931641" xlink:href="#DejaVuSans-55"/>
     <use x="375.554688" xlink:href="#DejaVuSans-49"/>
     <use x="439.177734" xlink:href="#DejaVuSans-54"/>
     <use x="502.800781" xlink:href="#DejaVuSans-47"/>
     <use x="536.492188" xlink:href="#DejaVuSans-99"/>
     <use x="591.472656" xlink:href="#DejaVuSans-97"/>
     <use x="652.751953" xlink:href="#DejaVuSans-114"/>
     <use x="693.865234" xlink:href="#DejaVuSans-95"/>
     <use x="743.865234" xlink:href="#DejaVuSans-111"/>
     <use x="805.046875" xlink:href="#DejaVuSans-102"/>
     <use x="840.251953" xlink:href="#DejaVuSans-102"/>
     <use x="875.457031" xlink:href="#DejaVuSans-47"/>
     <use x="909.148438" xlink:href="#DejaVuSans-97"/>
     <use x="970.427734" xlink:href="#DejaVuSans-99"/>
     <use x="1025.408203" xlink:href="#DejaVuSans-99"/>
     <use x="1080.388672" xlink:href="#DejaVuSans-101"/>
     <use x="1141.912109" xlink:href="#DejaVuSans-108"/>
     <use x="1169.695312" xlink:href="#DejaVuSans-101"/>
     <use x="1231.21875" xlink:href="#DejaVuSans-114"/>
     <use x="1272.300781" xlink:href="#DejaVuSans-111"/>
     <use x="1333.482422" xlink:href="#DejaVuSans-109"/>
     <use x="1430.894531" xlink:href="#DejaVuSans-101"/>
     <use x="1492.417969" xlink:href="#DejaVuSans-116"/>
     <use x="1531.626953" xlink:href="#DejaVuSans-101"/>
     <use x="1593.150391" xlink:href="#DejaVuSans-114"/>
     <use x="1634.263672" xlink:href="#DejaVuSans-32"/>
     <use x="1666.050781" xlink:href="#DejaVuSans-68"/>
     <use x="1743.052734" xlink:href="#DejaVuSans-101"/>
     <use x="1804.576172" xlink:href="#DejaVuSans-99"/>
     <use x="1859.556641" xlink:href="#DejaVuSans-32"/>
     <use x="1891.34375" xlink:href="#DejaVuSans-48"/>
     <use x="1954.966797" xlink:href="#DejaVuSans-57"/>
     <use x="2018.589844" xlink:href="#DejaVuSans-32"/>
     <use x="2050.376953" xlink:href="#DejaVuSans-49"/>
     <use x="2114" xlink:href="#DejaVuSans-50"/>
     <use x="2177.623047" xlink:href="#DejaVuSans-48"/>
     <use x="2241.246094" xlink:href="#DejaVuSans-56"/>
     <use x="2304.869141" xlink:href="#DejaVuSans-51"/>
     <use x="2368.492188" xlink:href="#DejaVuSans-53"/>
     <use x="2432.115234" xlink:href="#DejaVuSans-46"/>
     <use x="2463.902344" xlink:href="#DejaVuSans-116"/>
     <use x="2503.111328" xlink:href="#DejaVuSans-120"/>
     <use x="2562.291016" xlink:href="#DejaVuSans-116"/>
    </g>
   </g>
   <g id="legend_1">
    <g id="patch_7">
     <path d="M 204.56 93.506375 
L 267.76 93.506375 
Q 269.76 93.506375 269.76 91.506375 
L 269.76 48.472 
Q 269.76 46.472 267.76 46.472 
L 204.56 46.472 
Q 202.56 46.472 202.56 48.472 
L 202.56 91.506375 
Q 202.56 93.506375 204.56 93.506375 
z
" style="fill:#ffffff;opacity:0.8;stroke:#cccccc;stroke-linejoin:miter;"/>
    </g>
    <g id="line2d_19">
     <path d="M 206.56 54.570438 
L 226.56 54.570438 
" style="fill:none;stroke:#1f77b4;stroke-linecap:square;stroke-width:1.5;"/>
    </g>
    <g id="line2d_20"/>
    <g id="text_19">
     <!-- X-Axis -->
     <defs>
      <path d="M 6.296875 72.90625 
L 16.890625 72.90625 
L 35.015625 45.796875 
L 53.21875 72.90625 
L 63.8125 72.90625 
L 40.375 37.890625 
L 65.375 0 
L 54.78125 0 
L 34.28125 31 
L 13.625 0 
L 2.984375 0 
L 29 38.921875 
z
" id="DejaVuSans-88"/>
      <path d="M 4.890625 31.390625 
L 31.203125 31.390625 
L 31.203125 23.390625 
L 4.890625 23.390625 
z
" id="DejaVuSans-45"/>
      <path d="M 34.1875 63.1875 
L 20.796875 26.90625 
L 47.609375 26.90625 
z
M 28.609375 72.90625 
L 39.796875 72.90625 
L 67.578125 0 
L 57.328125 0 
L 50.6875 18.703125 
L 17.828125 18.703125 
L 11.1875 0 
L 0.78125 0 
z
" id="DejaVuSans-65"/>
     </defs>
     <g transform="translate(234.56 58.070438)scale(0.1 -0.1)">
      <use xlink:href="#DejaVuSans-88"/>
      <use x="68.427734" xlink:href="#DejaVuSans-45"/>
      <use x="104.480469" xlink:href="#DejaVuSans-65"/>
      <use x="172.888672" xlink:href="#DejaVuSans-120"/>
      <use x="232.068359" xlink:href="#DejaVuSans-105"/>
      <use x="259.851562" xlink:href="#DejaVuSans-115"/>
     </g>
    </g>
    <g id="line2d_21">
     <path d="M 206.56 69.248563 
L 226.56 69.248563 
" style="fill:none;stroke:#ff7f0e;stroke-linecap:square;stroke-width:1.5;"/>
    </g>
    <g id="line2d_22"/>
    <g id="text_20">
     <!-- Y-Axis -->
     <defs>
      <path d="M -0.203125 72.90625 
L 10.40625 72.90625 
L 30.609375 42.921875 
L 50.6875 72.90625 
L 61.28125 72.90625 
L 35.5 34.71875 
L 35.5 0 
L 25.59375 0 
L 25.59375 34.71875 
z
" id="DejaVuSans-89"/>
     </defs>
     <g transform="translate(234.56 72.748563)scale(0.1 -0.1)">
      <use xlink:href="#DejaVuSans-89"/>
      <use x="60.912109" xlink:href="#DejaVuSans-45"/>
      <use x="96.964844" xlink:href="#DejaVuSans-65"/>
      <use x="165.373047" xlink:href="#DejaVuSans-120"/>
      <use x="224.552734" xlink:href="#DejaVuSans-105"/>
      <use x="252.335938" xlink:href="#DejaVuSans-115"/>
     </g>
    </g>
    <g id="line2d_23">
     <path d="M 206.56 83.926688 
L 226.56 83.926688 
" style="fill:none;stroke:#2ca02c;stroke-linecap:square;stroke-width:1.5;"/>
    </g>
    <g id="line2d_24"/>
    <g id="text_21">
     <!-- Z-Axis -->
     <defs>
      <path d="M 5.609375 72.90625 
L 62.890625 72.90625 
L 62.890625 65.375 
L 16.796875 8.296875 
L 64.015625 8.296875 
L 64.015625 0 
L 4.5 0 
L 4.5 7.515625 
L 50.59375 64.59375 
L 5.609375 64.59375 
z
" id="DejaVuSans-90"/>
     </defs>
     <g transform="translate(234.56 87.426688)scale(0.1 -0.1)">
      <use xlink:href="#DejaVuSans-90"/>
      <use x="68.490234" xlink:href="#DejaVuSans-45"/>
      <use x="104.542969" xlink:href="#DejaVuSans-65"/>
      <use x="172.951172" xlink:href="#DejaVuSans-120"/>
      <use x="232.130859" xlink:href="#DejaVuSans-105"/>
      <use x="259.914062" xlink:href="#DejaVuSans-115"/>
     </g>
    </g>
   </g>
  </g>
 </g>
 <defs>
  <clipPath id="p602cc6eab9">
   <rect height="266.112" width="357.12" x="57.6" y="41.472"/>
  </clipPath>
 </defs>
</svg>
