<?xml version="1.0" encoding="utf-8" standalone="no"?>
<!DOCTYPE svg PUBLIC "-//W3C//DTD SVG 1.1//EN"
  "http://www.w3.org/Graphics/SVG/1.1/DTD/svg11.dtd">
<!-- Created with matplotlib (https://matplotlib.org/) -->
<svg height="345.6pt" version="1.1" viewBox="0 0 460.8 345.6" width="460.8pt" xmlns="http://www.w3.org/2000/svg" xmlns:xlink="http://www.w3.org/1999/xlink">
 <defs>
  <style type="text/css">
*{stroke-linecap:butt;stroke-linejoin:round;}
  </style>
 </defs>
 <g id="figure_1">
  <g id="patch_1">
   <path d="M 0 345.6 
L 460.8 345.6 
L 460.8 0 
L 0 0 
z
" style="fill:#ffffff;"/>
  </g>
  <g id="axes_1">
   <g id="patch_2">
    <path d="M 57.6 307.584 
L 414.72 307.584 
L 414.72 41.472 
L 57.6 41.472 
z
" style="fill:#ffffff;"/>
   </g>
   <g id="matplotlib.axis_1">
    <g id="xtick_1">
     <g id="line2d_1">
      <defs>
       <path d="M 0 0 
L 0 3.5 
" id="m468c133fd3" style="stroke:#000000;stroke-width:0.8;"/>
      </defs>
      <g>
       <use style="stroke:#000000;stroke-width:0.8;" x="73.832727" xlink:href="#m468c133fd3" y="307.584"/>
      </g>
     </g>
     <g id="text_1">
      <!-- 0 -->
      <defs>
       <path d="M 31.78125 66.40625 
Q 24.171875 66.40625 20.328125 58.90625 
Q 16.5 51.421875 16.5 36.375 
Q 16.5 21.390625 20.328125 13.890625 
Q 24.171875 6.390625 31.78125 6.390625 
Q 39.453125 6.390625 43.28125 13.890625 
Q 47.125 21.390625 47.125 36.375 
Q 47.125 51.421875 43.28125 58.90625 
Q 39.453125 66.40625 31.78125 66.40625 
z
M 31.78125 74.21875 
Q 44.046875 74.21875 50.515625 64.515625 
Q 56.984375 54.828125 56.984375 36.375 
Q 56.984375 17.96875 50.515625 8.265625 
Q 44.046875 -1.421875 31.78125 -1.421875 
Q 19.53125 -1.421875 13.0625 8.265625 
Q 6.59375 17.96875 6.59375 36.375 
Q 6.59375 54.828125 13.0625 64.515625 
Q 19.53125 74.21875 31.78125 74.21875 
z
" id="DejaVuSans-48"/>
      </defs>
      <g transform="translate(70.651477 322.182437)scale(0.1 -0.1)">
       <use xlink:href="#DejaVuSans-48"/>
      </g>
     </g>
    </g>
    <g id="xtick_2">
     <g id="line2d_2">
      <g>
       <use style="stroke:#000000;stroke-width:0.8;" x="139.093858" xlink:href="#m468c133fd3" y="307.584"/>
      </g>
     </g>
     <g id="text_2">
      <!-- 10 -->
      <defs>
       <path d="M 12.40625 8.296875 
L 28.515625 8.296875 
L 28.515625 63.921875 
L 10.984375 60.40625 
L 10.984375 69.390625 
L 28.421875 72.90625 
L 38.28125 72.90625 
L 38.28125 8.296875 
L 54.390625 8.296875 
L 54.390625 0 
L 12.40625 0 
z
" id="DejaVuSans-49"/>
      </defs>
      <g transform="translate(132.731358 322.182437)scale(0.1 -0.1)">
       <use xlink:href="#DejaVuSans-49"/>
       <use x="63.623047" xlink:href="#DejaVuSans-48"/>
      </g>
     </g>
    </g>
    <g id="xtick_3">
     <g id="line2d_3">
      <g>
       <use style="stroke:#000000;stroke-width:0.8;" x="204.354988" xlink:href="#m468c133fd3" y="307.584"/>
      </g>
     </g>
     <g id="text_3">
      <!-- 20 -->
      <defs>
       <path d="M 19.1875 8.296875 
L 53.609375 8.296875 
L 53.609375 0 
L 7.328125 0 
L 7.328125 8.296875 
Q 12.9375 14.109375 22.625 23.890625 
Q 32.328125 33.6875 34.8125 36.53125 
Q 39.546875 41.84375 41.421875 45.53125 
Q 43.3125 49.21875 43.3125 52.78125 
Q 43.3125 58.59375 39.234375 62.25 
Q 35.15625 65.921875 28.609375 65.921875 
Q 23.96875 65.921875 18.8125 64.3125 
Q 13.671875 62.703125 7.8125 59.421875 
L 7.8125 69.390625 
Q 13.765625 71.78125 18.9375 73 
Q 24.125 74.21875 28.421875 74.21875 
Q 39.75 74.21875 46.484375 68.546875 
Q 53.21875 62.890625 53.21875 53.421875 
Q 53.21875 48.921875 51.53125 44.890625 
Q 49.859375 40.875 45.40625 35.40625 
Q 44.1875 33.984375 37.640625 27.21875 
Q 31.109375 20.453125 19.1875 8.296875 
z
" id="DejaVuSans-50"/>
      </defs>
      <g transform="translate(197.992488 322.182437)scale(0.1 -0.1)">
       <use xlink:href="#DejaVuSans-50"/>
       <use x="63.623047" xlink:href="#DejaVuSans-48"/>
      </g>
     </g>
    </g>
    <g id="xtick_4">
     <g id="line2d_4">
      <g>
       <use style="stroke:#000000;stroke-width:0.8;" x="269.616119" xlink:href="#m468c133fd3" y="307.584"/>
      </g>
     </g>
     <g id="text_4">
      <!-- 30 -->
      <defs>
       <path d="M 40.578125 39.3125 
Q 47.65625 37.796875 51.625 33 
Q 55.609375 28.21875 55.609375 21.1875 
Q 55.609375 10.40625 48.1875 4.484375 
Q 40.765625 -1.421875 27.09375 -1.421875 
Q 22.515625 -1.421875 17.65625 -0.515625 
Q 12.796875 0.390625 7.625 2.203125 
L 7.625 11.71875 
Q 11.71875 9.328125 16.59375 8.109375 
Q 21.484375 6.890625 26.8125 6.890625 
Q 36.078125 6.890625 40.9375 10.546875 
Q 45.796875 14.203125 45.796875 21.1875 
Q 45.796875 27.640625 41.28125 31.265625 
Q 36.765625 34.90625 28.71875 34.90625 
L 20.21875 34.90625 
L 20.21875 43.015625 
L 29.109375 43.015625 
Q 36.375 43.015625 40.234375 45.921875 
Q 44.09375 48.828125 44.09375 54.296875 
Q 44.09375 59.90625 40.109375 62.90625 
Q 36.140625 65.921875 28.71875 65.921875 
Q 24.65625 65.921875 20.015625 65.03125 
Q 15.375 64.15625 9.8125 62.3125 
L 9.8125 71.09375 
Q 15.4375 72.65625 20.34375 73.4375 
Q 25.25 74.21875 29.59375 74.21875 
Q 40.828125 74.21875 47.359375 69.109375 
Q 53.90625 64.015625 53.90625 55.328125 
Q 53.90625 49.265625 50.4375 45.09375 
Q 46.96875 40.921875 40.578125 39.3125 
z
" id="DejaVuSans-51"/>
      </defs>
      <g transform="translate(263.253619 322.182437)scale(0.1 -0.1)">
       <use xlink:href="#DejaVuSans-51"/>
       <use x="63.623047" xlink:href="#DejaVuSans-48"/>
      </g>
     </g>
    </g>
    <g id="xtick_5">
     <g id="line2d_5">
      <g>
       <use style="stroke:#000000;stroke-width:0.8;" x="334.877249" xlink:href="#m468c133fd3" y="307.584"/>
      </g>
     </g>
     <g id="text_5">
      <!-- 40 -->
      <defs>
       <path d="M 37.796875 64.3125 
L 12.890625 25.390625 
L 37.796875 25.390625 
z
M 35.203125 72.90625 
L 47.609375 72.90625 
L 47.609375 25.390625 
L 58.015625 25.390625 
L 58.015625 17.1875 
L 47.609375 17.1875 
L 47.609375 0 
L 37.796875 0 
L 37.796875 17.1875 
L 4.890625 17.1875 
L 4.890625 26.703125 
z
" id="DejaVuSans-52"/>
      </defs>
      <g transform="translate(328.514749 322.182437)scale(0.1 -0.1)">
       <use xlink:href="#DejaVuSans-52"/>
       <use x="63.623047" xlink:href="#DejaVuSans-48"/>
      </g>
     </g>
    </g>
    <g id="xtick_6">
     <g id="line2d_6">
      <g>
       <use style="stroke:#000000;stroke-width:0.8;" x="400.138379" xlink:href="#m468c133fd3" y="307.584"/>
      </g>
     </g>
     <g id="text_6">
      <!-- 50 -->
      <defs>
       <path d="M 10.796875 72.90625 
L 49.515625 72.90625 
L 49.515625 64.59375 
L 19.828125 64.59375 
L 19.828125 46.734375 
Q 21.96875 47.46875 24.109375 47.828125 
Q 26.265625 48.1875 28.421875 48.1875 
Q 40.625 48.1875 47.75 41.5 
Q 54.890625 34.8125 54.890625 23.390625 
Q 54.890625 11.625 47.5625 5.09375 
Q 40.234375 -1.421875 26.90625 -1.421875 
Q 22.3125 -1.421875 17.546875 -0.640625 
Q 12.796875 0.140625 7.71875 1.703125 
L 7.71875 11.625 
Q 12.109375 9.234375 16.796875 8.0625 
Q 21.484375 6.890625 26.703125 6.890625 
Q 35.15625 6.890625 40.078125 11.328125 
Q 45.015625 15.765625 45.015625 23.390625 
Q 45.015625 31 40.078125 35.4375 
Q 35.15625 39.890625 26.703125 39.890625 
Q 22.75 39.890625 18.8125 39.015625 
Q 14.890625 38.140625 10.796875 36.28125 
z
" id="DejaVuSans-53"/>
      </defs>
      <g transform="translate(393.775879 322.182437)scale(0.1 -0.1)">
       <use xlink:href="#DejaVuSans-53"/>
       <use x="63.623047" xlink:href="#DejaVuSans-48"/>
      </g>
     </g>
    </g>
    <g id="text_7">
     <!-- Time (in seconds) -->
     <defs>
      <path d="M -0.296875 72.90625 
L 61.375 72.90625 
L 61.375 64.59375 
L 35.5 64.59375 
L 35.5 0 
L 25.59375 0 
L 25.59375 64.59375 
L -0.296875 64.59375 
z
" id="DejaVuSans-84"/>
      <path d="M 9.421875 54.6875 
L 18.40625 54.6875 
L 18.40625 0 
L 9.421875 0 
z
M 9.421875 75.984375 
L 18.40625 75.984375 
L 18.40625 64.59375 
L 9.421875 64.59375 
z
" id="DejaVuSans-105"/>
      <path d="M 52 44.1875 
Q 55.375 50.25 60.0625 53.125 
Q 64.75 56 71.09375 56 
Q 79.640625 56 84.28125 50.015625 
Q 88.921875 44.046875 88.921875 33.015625 
L 88.921875 0 
L 79.890625 0 
L 79.890625 32.71875 
Q 79.890625 40.578125 77.09375 44.375 
Q 74.3125 48.1875 68.609375 48.1875 
Q 61.625 48.1875 57.5625 43.546875 
Q 53.515625 38.921875 53.515625 30.90625 
L 53.515625 0 
L 44.484375 0 
L 44.484375 32.71875 
Q 44.484375 40.625 41.703125 44.40625 
Q 38.921875 48.1875 33.109375 48.1875 
Q 26.21875 48.1875 22.15625 43.53125 
Q 18.109375 38.875 18.109375 30.90625 
L 18.109375 0 
L 9.078125 0 
L 9.078125 54.6875 
L 18.109375 54.6875 
L 18.109375 46.1875 
Q 21.1875 51.21875 25.484375 53.609375 
Q 29.78125 56 35.6875 56 
Q 41.65625 56 45.828125 52.96875 
Q 50 49.953125 52 44.1875 
z
" id="DejaVuSans-109"/>
      <path d="M 56.203125 29.59375 
L 56.203125 25.203125 
L 14.890625 25.203125 
Q 15.484375 15.921875 20.484375 11.0625 
Q 25.484375 6.203125 34.421875 6.203125 
Q 39.59375 6.203125 44.453125 7.46875 
Q 49.3125 8.734375 54.109375 11.28125 
L 54.109375 2.78125 
Q 49.265625 0.734375 44.1875 -0.34375 
Q 39.109375 -1.421875 33.890625 -1.421875 
Q 20.796875 -1.421875 13.15625 6.1875 
Q 5.515625 13.8125 5.515625 26.8125 
Q 5.515625 40.234375 12.765625 48.109375 
Q 20.015625 56 32.328125 56 
Q 43.359375 56 49.78125 48.890625 
Q 56.203125 41.796875 56.203125 29.59375 
z
M 47.21875 32.234375 
Q 47.125 39.59375 43.09375 43.984375 
Q 39.0625 48.390625 32.421875 48.390625 
Q 24.90625 48.390625 20.390625 44.140625 
Q 15.875 39.890625 15.1875 32.171875 
z
" id="DejaVuSans-101"/>
      <path id="DejaVuSans-32"/>
      <path d="M 31 75.875 
Q 24.46875 64.65625 21.28125 53.65625 
Q 18.109375 42.671875 18.109375 31.390625 
Q 18.109375 20.125 21.3125 9.0625 
Q 24.515625 -2 31 -13.1875 
L 23.1875 -13.1875 
Q 15.875 -1.703125 12.234375 9.375 
Q 8.59375 20.453125 8.59375 31.390625 
Q 8.59375 42.28125 12.203125 53.3125 
Q 15.828125 64.359375 23.1875 75.875 
z
" id="DejaVuSans-40"/>
      <path d="M 54.890625 33.015625 
L 54.890625 0 
L 45.90625 0 
L 45.90625 32.71875 
Q 45.90625 40.484375 42.875 44.328125 
Q 39.84375 48.1875 33.796875 48.1875 
Q 26.515625 48.1875 22.3125 43.546875 
Q 18.109375 38.921875 18.109375 30.90625 
L 18.109375 0 
L 9.078125 0 
L 9.078125 54.6875 
L 18.109375 54.6875 
L 18.109375 46.1875 
Q 21.34375 51.125 25.703125 53.5625 
Q 30.078125 56 35.796875 56 
Q 45.21875 56 50.046875 50.171875 
Q 54.890625 44.34375 54.890625 33.015625 
z
" id="DejaVuSans-110"/>
      <path d="M 44.28125 53.078125 
L 44.28125 44.578125 
Q 40.484375 46.53125 36.375 47.5 
Q 32.28125 48.484375 27.875 48.484375 
Q 21.1875 48.484375 17.84375 46.4375 
Q 14.5 44.390625 14.5 40.28125 
Q 14.5 37.15625 16.890625 35.375 
Q 19.28125 33.59375 26.515625 31.984375 
L 29.59375 31.296875 
Q 39.15625 29.25 43.1875 25.515625 
Q 47.21875 21.78125 47.21875 15.09375 
Q 47.21875 7.46875 41.1875 3.015625 
Q 35.15625 -1.421875 24.609375 -1.421875 
Q 20.21875 -1.421875 15.453125 -0.5625 
Q 10.6875 0.296875 5.421875 2 
L 5.421875 11.28125 
Q 10.40625 8.6875 15.234375 7.390625 
Q 20.0625 6.109375 24.8125 6.109375 
Q 31.15625 6.109375 34.5625 8.28125 
Q 37.984375 10.453125 37.984375 14.40625 
Q 37.984375 18.0625 35.515625 20.015625 
Q 33.0625 21.96875 24.703125 23.78125 
L 21.578125 24.515625 
Q 13.234375 26.265625 9.515625 29.90625 
Q 5.8125 33.546875 5.8125 39.890625 
Q 5.8125 47.609375 11.28125 51.796875 
Q 16.75 56 26.8125 56 
Q 31.78125 56 36.171875 55.265625 
Q 40.578125 54.546875 44.28125 53.078125 
z
" id="DejaVuSans-115"/>
      <path d="M 48.78125 52.59375 
L 48.78125 44.1875 
Q 44.96875 46.296875 41.140625 47.34375 
Q 37.3125 48.390625 33.40625 48.390625 
Q 24.65625 48.390625 19.8125 42.84375 
Q 14.984375 37.3125 14.984375 27.296875 
Q 14.984375 17.28125 19.8125 11.734375 
Q 24.65625 6.203125 33.40625 6.203125 
Q 37.3125 6.203125 41.140625 7.25 
Q 44.96875 8.296875 48.78125 10.40625 
L 48.78125 2.09375 
Q 45.015625 0.34375 40.984375 -0.53125 
Q 36.96875 -1.421875 32.421875 -1.421875 
Q 20.0625 -1.421875 12.78125 6.34375 
Q 5.515625 14.109375 5.515625 27.296875 
Q 5.515625 40.671875 12.859375 48.328125 
Q 20.21875 56 33.015625 56 
Q 37.15625 56 41.109375 55.140625 
Q 45.0625 54.296875 48.78125 52.59375 
z
" id="DejaVuSans-99"/>
      <path d="M 30.609375 48.390625 
Q 23.390625 48.390625 19.1875 42.75 
Q 14.984375 37.109375 14.984375 27.296875 
Q 14.984375 17.484375 19.15625 11.84375 
Q 23.34375 6.203125 30.609375 6.203125 
Q 37.796875 6.203125 41.984375 11.859375 
Q 46.1875 17.53125 46.1875 27.296875 
Q 46.1875 37.015625 41.984375 42.703125 
Q 37.796875 48.390625 30.609375 48.390625 
z
M 30.609375 56 
Q 42.328125 56 49.015625 48.375 
Q 55.71875 40.765625 55.71875 27.296875 
Q 55.71875 13.875 49.015625 6.21875 
Q 42.328125 -1.421875 30.609375 -1.421875 
Q 18.84375 -1.421875 12.171875 6.21875 
Q 5.515625 13.875 5.515625 27.296875 
Q 5.515625 40.765625 12.171875 48.375 
Q 18.84375 56 30.609375 56 
z
" id="DejaVuSans-111"/>
      <path d="M 45.40625 46.390625 
L 45.40625 75.984375 
L 54.390625 75.984375 
L 54.390625 0 
L 45.40625 0 
L 45.40625 8.203125 
Q 42.578125 3.328125 38.25 0.953125 
Q 33.9375 -1.421875 27.875 -1.421875 
Q 17.96875 -1.421875 11.734375 6.484375 
Q 5.515625 14.40625 5.515625 27.296875 
Q 5.515625 40.1875 11.734375 48.09375 
Q 17.96875 56 27.875 56 
Q 33.9375 56 38.25 53.625 
Q 42.578125 51.265625 45.40625 46.390625 
z
M 14.796875 27.296875 
Q 14.796875 17.390625 18.875 11.75 
Q 22.953125 6.109375 30.078125 6.109375 
Q 37.203125 6.109375 41.296875 11.75 
Q 45.40625 17.390625 45.40625 27.296875 
Q 45.40625 37.203125 41.296875 42.84375 
Q 37.203125 48.484375 30.078125 48.484375 
Q 22.953125 48.484375 18.875 42.84375 
Q 14.796875 37.203125 14.796875 27.296875 
z
" id="DejaVuSans-100"/>
      <path d="M 8.015625 75.875 
L 15.828125 75.875 
Q 23.140625 64.359375 26.78125 53.3125 
Q 30.421875 42.28125 30.421875 31.390625 
Q 30.421875 20.453125 26.78125 9.375 
Q 23.140625 -1.703125 15.828125 -13.1875 
L 8.015625 -13.1875 
Q 14.5 -2 17.703125 9.0625 
Q 20.90625 20.125 20.90625 31.390625 
Q 20.90625 42.671875 17.703125 53.65625 
Q 14.5 64.65625 8.015625 75.875 
z
" id="DejaVuSans-41"/>
     </defs>
     <g transform="translate(191.6975 335.860562)scale(0.1 -0.1)">
      <use xlink:href="#DejaVuSans-84"/>
      <use x="61.037109" xlink:href="#DejaVuSans-105"/>
      <use x="88.820312" xlink:href="#DejaVuSans-109"/>
      <use x="186.232422" xlink:href="#DejaVuSans-101"/>
      <use x="247.755859" xlink:href="#DejaVuSans-32"/>
      <use x="279.542969" xlink:href="#DejaVuSans-40"/>
      <use x="318.556641" xlink:href="#DejaVuSans-105"/>
      <use x="346.339844" xlink:href="#DejaVuSans-110"/>
      <use x="409.71875" xlink:href="#DejaVuSans-32"/>
      <use x="441.505859" xlink:href="#DejaVuSans-115"/>
      <use x="493.605469" xlink:href="#DejaVuSans-101"/>
      <use x="555.128906" xlink:href="#DejaVuSans-99"/>
      <use x="610.109375" xlink:href="#DejaVuSans-111"/>
      <use x="671.291016" xlink:href="#DejaVuSans-110"/>
      <use x="734.669922" xlink:href="#DejaVuSans-100"/>
      <use x="798.146484" xlink:href="#DejaVuSans-115"/>
      <use x="850.246094" xlink:href="#DejaVuSans-41"/>
     </g>
    </g>
   </g>
   <g id="matplotlib.axis_2">
    <g id="ytick_1">
     <g id="line2d_7">
      <defs>
       <path d="M 0 0 
L -3.5 0 
" id="m692c1a1ca0" style="stroke:#000000;stroke-width:0.8;"/>
      </defs>
      <g>
       <use style="stroke:#000000;stroke-width:0.8;" x="57.6" xlink:href="#m692c1a1ca0" y="272.253292"/>
      </g>
     </g>
     <g id="text_8">
      <!-- −1.0 -->
      <defs>
       <path d="M 10.59375 35.5 
L 73.1875 35.5 
L 73.1875 27.203125 
L 10.59375 27.203125 
z
" id="DejaVuSans-8722"/>
       <path d="M 10.6875 12.40625 
L 21 12.40625 
L 21 0 
L 10.6875 0 
z
" id="DejaVuSans-46"/>
      </defs>
      <g transform="translate(26.317187 276.052511)scale(0.1 -0.1)">
       <use xlink:href="#DejaVuSans-8722"/>
       <use x="83.789062" xlink:href="#DejaVuSans-49"/>
       <use x="147.412109" xlink:href="#DejaVuSans-46"/>
       <use x="179.199219" xlink:href="#DejaVuSans-48"/>
      </g>
     </g>
    </g>
    <g id="ytick_2">
     <g id="line2d_8">
      <g>
       <use style="stroke:#000000;stroke-width:0.8;" x="57.6" xlink:href="#m692c1a1ca0" y="218.084598"/>
      </g>
     </g>
     <g id="text_9">
      <!-- −0.5 -->
      <g transform="translate(26.317187 221.883816)scale(0.1 -0.1)">
       <use xlink:href="#DejaVuSans-8722"/>
       <use x="83.789062" xlink:href="#DejaVuSans-48"/>
       <use x="147.412109" xlink:href="#DejaVuSans-46"/>
       <use x="179.199219" xlink:href="#DejaVuSans-53"/>
      </g>
     </g>
    </g>
    <g id="ytick_3">
     <g id="line2d_9">
      <g>
       <use style="stroke:#000000;stroke-width:0.8;" x="57.6" xlink:href="#m692c1a1ca0" y="163.915903"/>
      </g>
     </g>
     <g id="text_10">
      <!-- 0.0 -->
      <g transform="translate(34.696875 167.715122)scale(0.1 -0.1)">
       <use xlink:href="#DejaVuSans-48"/>
       <use x="63.623047" xlink:href="#DejaVuSans-46"/>
       <use x="95.410156" xlink:href="#DejaVuSans-48"/>
      </g>
     </g>
    </g>
    <g id="ytick_4">
     <g id="line2d_10">
      <g>
       <use style="stroke:#000000;stroke-width:0.8;" x="57.6" xlink:href="#m692c1a1ca0" y="109.747209"/>
      </g>
     </g>
     <g id="text_11">
      <!-- 0.5 -->
      <g transform="translate(34.696875 113.546428)scale(0.1 -0.1)">
       <use xlink:href="#DejaVuSans-48"/>
       <use x="63.623047" xlink:href="#DejaVuSans-46"/>
       <use x="95.410156" xlink:href="#DejaVuSans-53"/>
      </g>
     </g>
    </g>
    <g id="ytick_5">
     <g id="line2d_11">
      <g>
       <use style="stroke:#000000;stroke-width:0.8;" x="57.6" xlink:href="#m692c1a1ca0" y="55.578514"/>
      </g>
     </g>
     <g id="text_12">
      <!-- 1.0 -->
      <g transform="translate(34.696875 59.377733)scale(0.1 -0.1)">
       <use xlink:href="#DejaVuSans-49"/>
       <use x="63.623047" xlink:href="#DejaVuSans-46"/>
       <use x="95.410156" xlink:href="#DejaVuSans-48"/>
      </g>
     </g>
    </g>
    <g id="text_13">
     <!-- Magnitude -->
     <defs>
      <path d="M 9.8125 72.90625 
L 24.515625 72.90625 
L 43.109375 23.296875 
L 61.8125 72.90625 
L 76.515625 72.90625 
L 76.515625 0 
L 66.890625 0 
L 66.890625 64.015625 
L 48.09375 14.015625 
L 38.1875 14.015625 
L 19.390625 64.015625 
L 19.390625 0 
L 9.8125 0 
z
" id="DejaVuSans-77"/>
      <path d="M 34.28125 27.484375 
Q 23.390625 27.484375 19.1875 25 
Q 14.984375 22.515625 14.984375 16.5 
Q 14.984375 11.71875 18.140625 8.90625 
Q 21.296875 6.109375 26.703125 6.109375 
Q 34.1875 6.109375 38.703125 11.40625 
Q 43.21875 16.703125 43.21875 25.484375 
L 43.21875 27.484375 
z
M 52.203125 31.203125 
L 52.203125 0 
L 43.21875 0 
L 43.21875 8.296875 
Q 40.140625 3.328125 35.546875 0.953125 
Q 30.953125 -1.421875 24.3125 -1.421875 
Q 15.921875 -1.421875 10.953125 3.296875 
Q 6 8.015625 6 15.921875 
Q 6 25.140625 12.171875 29.828125 
Q 18.359375 34.515625 30.609375 34.515625 
L 43.21875 34.515625 
L 43.21875 35.40625 
Q 43.21875 41.609375 39.140625 45 
Q 35.0625 48.390625 27.6875 48.390625 
Q 23 48.390625 18.546875 47.265625 
Q 14.109375 46.140625 10.015625 43.890625 
L 10.015625 52.203125 
Q 14.9375 54.109375 19.578125 55.046875 
Q 24.21875 56 28.609375 56 
Q 40.484375 56 46.34375 49.84375 
Q 52.203125 43.703125 52.203125 31.203125 
z
" id="DejaVuSans-97"/>
      <path d="M 45.40625 27.984375 
Q 45.40625 37.75 41.375 43.109375 
Q 37.359375 48.484375 30.078125 48.484375 
Q 22.859375 48.484375 18.828125 43.109375 
Q 14.796875 37.75 14.796875 27.984375 
Q 14.796875 18.265625 18.828125 12.890625 
Q 22.859375 7.515625 30.078125 7.515625 
Q 37.359375 7.515625 41.375 12.890625 
Q 45.40625 18.265625 45.40625 27.984375 
z
M 54.390625 6.78125 
Q 54.390625 -7.171875 48.1875 -13.984375 
Q 42 -20.796875 29.203125 -20.796875 
Q 24.46875 -20.796875 20.265625 -20.09375 
Q 16.0625 -19.390625 12.109375 -17.921875 
L 12.109375 -9.1875 
Q 16.0625 -11.328125 19.921875 -12.34375 
Q 23.78125 -13.375 27.78125 -13.375 
Q 36.625 -13.375 41.015625 -8.765625 
Q 45.40625 -4.15625 45.40625 5.171875 
L 45.40625 9.625 
Q 42.625 4.78125 38.28125 2.390625 
Q 33.9375 0 27.875 0 
Q 17.828125 0 11.671875 7.65625 
Q 5.515625 15.328125 5.515625 27.984375 
Q 5.515625 40.671875 11.671875 48.328125 
Q 17.828125 56 27.875 56 
Q 33.9375 56 38.28125 53.609375 
Q 42.625 51.21875 45.40625 46.390625 
L 45.40625 54.6875 
L 54.390625 54.6875 
z
" id="DejaVuSans-103"/>
      <path d="M 18.3125 70.21875 
L 18.3125 54.6875 
L 36.8125 54.6875 
L 36.8125 47.703125 
L 18.3125 47.703125 
L 18.3125 18.015625 
Q 18.3125 11.328125 20.140625 9.421875 
Q 21.96875 7.515625 27.59375 7.515625 
L 36.8125 7.515625 
L 36.8125 0 
L 27.59375 0 
Q 17.1875 0 13.234375 3.875 
Q 9.28125 7.765625 9.28125 18.015625 
L 9.28125 47.703125 
L 2.6875 47.703125 
L 2.6875 54.6875 
L 9.28125 54.6875 
L 9.28125 70.21875 
z
" id="DejaVuSans-116"/>
      <path d="M 8.5 21.578125 
L 8.5 54.6875 
L 17.484375 54.6875 
L 17.484375 21.921875 
Q 17.484375 14.15625 20.5 10.265625 
Q 23.53125 6.390625 29.59375 6.390625 
Q 36.859375 6.390625 41.078125 11.03125 
Q 45.3125 15.671875 45.3125 23.6875 
L 45.3125 54.6875 
L 54.296875 54.6875 
L 54.296875 0 
L 45.3125 0 
L 45.3125 8.40625 
Q 42.046875 3.421875 37.71875 1 
Q 33.40625 -1.421875 27.6875 -1.421875 
Q 18.265625 -1.421875 13.375 4.4375 
Q 8.5 10.296875 8.5 21.578125 
z
M 31.109375 56 
z
" id="DejaVuSans-117"/>
     </defs>
     <g transform="translate(20.2375 201.017844)rotate(-90)scale(0.1 -0.1)">
      <use xlink:href="#DejaVuSans-77"/>
      <use x="86.279297" xlink:href="#DejaVuSans-97"/>
      <use x="147.558594" xlink:href="#DejaVuSans-103"/>
      <use x="211.035156" xlink:href="#DejaVuSans-110"/>
      <use x="274.414062" xlink:href="#DejaVuSans-105"/>
      <use x="302.197266" xlink:href="#DejaVuSans-116"/>
      <use x="341.40625" xlink:href="#DejaVuSans-117"/>
      <use x="404.785156" xlink:href="#DejaVuSans-100"/>
      <use x="468.261719" xlink:href="#DejaVuSans-101"/>
     </g>
    </g>
   </g>
   <g id="line2d_12">
    <path clip-path="url(#p740d1a5981)" d="M 73.832727 170.380816 
L 75.092268 168.750037 
L 77.06968 166.621151 
L 78.407532 165.309844 
L 78.733839 165.275282 
L 80.045588 165.691207 
L 80.724303 165.537429 
L 82.329727 164.653136 
L 83.001916 163.85877 
L 83.680632 162.479313 
L 85.286056 158.767549 
L 86.291078 156.989193 
L 86.930636 156.418107 
L 87.256943 156.345849 
L 87.909554 156.551693 
L 88.248912 156.82902 
L 89.227828 158.309549 
L 89.88044 160.207345 
L 90.552629 162.283983 
L 91.224818 163.615835 
L 91.890482 164.149878 
L 92.190683 163.880413 
L 92.51699 163.192677 
L 92.856347 161.980541 
L 93.202232 160.14726 
L 93.835264 154.213375 
L 94.520506 145.598827 
L 95.832255 119.942125 
L 96.47834 105.83044 
L 97.130952 94.063053 
L 97.45073 90.125472 
L 97.809667 87.521735 
L 98.135972 85.973945 
L 98.462279 86.185083 
L 98.775532 86.806853 
L 99.108364 87.131688 
L 99.441195 87.860109 
L 99.780553 89.464738 
L 101.079249 100.814304 
L 101.744912 106.875882 
L 103.356864 124.422689 
L 106.006465 148.561166 
L 107.651046 161.035001 
L 109.2891 170.036934 
L 109.615405 171.243946 
L 110.268016 172.228346 
L 110.587796 172.514098 
L 110.920628 172.61245 
L 111.592817 172.459086 
L 111.92565 172.912282 
L 112.251955 173.043639 
L 112.584786 172.853701 
L 112.89804 173.32982 
L 113.25045 174.293621 
L 113.576757 174.819888 
L 113.903062 175.576928 
L 114.568726 176.523992 
L 115.221336 178.472817 
L 116.520034 182.735898 
L 117.166119 183.718132 
L 117.851361 184.47682 
L 119.476362 186.738034 
L 119.822247 186.447554 
L 120.1355 186.397842 
L 120.481383 186.19332 
L 121.440722 184.457948 
L 122.426166 182.753431 
L 123.437713 180.886983 
L 124.410103 177.46866 
L 125.069241 175.040844 
L 127.040128 169.82817 
L 127.692738 168.752217 
L 128.364928 168.427933 
L 129.663625 168.604099 
L 130.342341 168.203658 
L 131.327783 167.302225 
L 132.313226 166.718501 
L 133.611923 166.129263 
L 133.938229 166.126465 
L 134.597367 165.957192 
L 135.249977 165.759182 
L 136.90761 164.288439 
L 139.211329 163.836758 
L 139.850888 163.9075 
L 140.510024 163.999393 
L 141.156109 164.319738 
L 141.802194 164.290226 
L 142.135027 164.242649 
L 143.1531 164.496467 
L 143.799185 164.728224 
L 146.102904 164.665882 
L 147.094873 165.094366 
L 147.4016 165.052286 
L 147.740958 165.126517 
L 151.369477 164.401386 
L 152.687751 164.32274 
L 153.660143 164.252422 
L 154.984943 164.244658 
L 157.62802 164.074992 
L 160.231938 164.517962 
L 161.863467 164.415024 
L 164.813269 163.698485 
L 167.80223 163.040186 
L 168.77462 163.205469 
L 169.773115 163.227892 
L 172.403139 163.853685 
L 173.05575 164.0096 
L 173.382055 164.083706 
L 173.727941 163.985035 
L 174.374026 164.022118 
L 175.346416 163.929724 
L 176.025132 164.018197 
L 176.671218 164.023923 
L 177.323828 164.184327 
L 178.315797 164.304753 
L 179.294715 164.245871 
L 181.239495 163.787592 
L 181.918212 163.897289 
L 182.910181 163.858015 
L 183.569318 163.79844 
L 184.221929 164.059777 
L 184.887593 164.108841 
L 186.50607 163.862638 
L 187.15868 163.591496 
L 188.829366 163.726678 
L 190.141114 163.915903 
L 190.467419 163.915903 
L 191.126557 164.253788 
L 199.336407 163.603014 
L 199.989019 163.619719 
L 200.635104 163.521622 
L 201.627073 163.618962 
L 202.305789 163.540761 
L 204.602981 164.06573 
L 205.59495 164.373762 
L 207.219953 164.149296 
L 208.538227 164.296991 
L 209.530196 164.556587 
L 209.849975 164.610026 
L 210.835419 164.405788 
L 211.827387 164.431124 
L 214.137632 164.090764 
L 215.442855 164.255817 
L 216.101991 164.442517 
L 217.746572 164.413304 
L 219.051795 163.507168 
L 219.378101 163.448809 
L 219.710933 163.557801 
L 221.348987 163.514326 
L 222.014651 163.496621 
L 223.326399 163.292031 
L 224.984032 163.315558 
L 225.636644 163.399364 
L 226.61556 163.786801 
L 227.933836 164.124577 
L 228.573393 164.225762 
L 229.898195 164.288508 
L 231.203418 164.258169 
L 231.88866 164.200143 
L 233.193883 163.842106 
L 234.172799 164.017115 
L 235.804327 164.346791 
L 238.114572 164.249522 
L 238.427824 164.391486 
L 240.398711 164.153492 
L 241.057848 164.087541 
L 241.723512 163.772124 
L 243.694398 163.660164 
L 244.999621 163.833116 
L 248.301833 163.967695 
L 248.954445 164.042388 
L 249.613582 164.204351 
L 249.939889 164.186542 
L 250.925332 164.477464 
L 252.582964 164.298231 
L 254.560376 164.123178 
L 258.502149 163.562152 
L 259.161286 163.316908 
L 261.125646 163.089519 
L 263.435889 163.33374 
L 264.095027 163.587257 
L 265.073945 163.575052 
L 265.713503 163.841384 
L 266.705473 163.737822 
L 267.371137 163.85288 
L 268.010694 164.091167 
L 269.96853 164.372183 
L 270.62114 164.415077 
L 273.597048 164.186589 
L 274.928375 164.622989 
L 275.594039 164.552787 
L 276.253175 164.496696 
L 278.517737 163.930938 
L 279.509706 163.750736 
L 280.488624 163.854738 
L 281.154287 163.76393 
L 283.771259 163.613221 
L 284.763228 163.833807 
L 285.428891 163.920835 
L 287.732609 163.882681 
L 288.404798 163.905098 
L 289.050884 164.070326 
L 290.701989 163.741111 
L 291.667854 163.760352 
L 292.326992 163.834761 
L 293.332014 163.948041 
L 295.596574 164.023817 
L 297.919872 163.612664 
L 298.905315 163.555541 
L 299.564451 163.606215 
L 300.549894 163.593758 
L 301.528812 163.907445 
L 302.194476 163.819783 
L 305.144278 164.014905 
L 306.814963 164.318489 
L 307.467574 164.076411 
L 309.118681 163.890501 
L 310.763262 163.557638 
L 311.402821 163.712213 
L 312.708044 163.706254 
L 315.690476 163.625865 
L 319.286365 163.824193 
L 319.606145 163.986369 
L 319.945503 164.298434 
L 320.937472 164.302505 
L 322.255746 164.25518 
L 322.901831 164.178965 
L 323.228138 164.034055 
L 324.207054 164.034321 
L 324.872718 163.981374 
L 327.8421 164.181577 
L 329.467101 164.24308 
L 330.45907 164.391853 
L 330.765799 164.57148 
L 331.124734 164.640676 
L 331.77082 164.427691 
L 333.069516 164.503453 
L 336.045424 164.053026 
L 338.995227 163.490869 
L 339.667416 163.501986 
L 340.313501 163.333909 
L 341.964608 163.022803 
L 342.290914 162.989482 
L 344.242221 163.572179 
L 345.234191 163.979141 
L 345.899855 164.288413 
L 346.572044 164.618005 
L 347.231182 164.796545 
L 347.883793 164.802365 
L 348.54293 164.697887 
L 348.869236 164.729698 
L 349.18249 164.974235 
L 350.487711 165.199877 
L 351.159902 165.054738 
L 353.463619 163.398136 
L 354.429484 162.535988 
L 354.768842 162.385908 
L 355.421453 162.609377 
L 356.739729 163.353733 
L 357.751276 163.129717 
L 358.717141 163.116126 
L 359.056499 163.364057 
L 360.009311 164.651857 
L 360.674974 165.228268 
L 361.327585 165.698182 
L 361.673469 165.766855 
L 362.352185 165.528874 
L 362.99827 164.666942 
L 363.350681 164.152379 
L 363.957609 162.949917 
L 364.616747 161.637864 
L 365.282411 159.99012 
L 365.602189 159.068704 
L 365.9546 157.582585 
L 366.587632 153.132423 
L 366.933517 153.132423 
L 367.272874 148.242884 
L 367.918959 144.019907 
L 368.238739 142.457215 
L 368.571571 141.660529 
L 369.230709 139.138628 
L 369.56354 138.693818 
L 369.896373 139.001035 
L 370.209625 138.999866 
L 370.542458 138.595422 
L 371.201594 136.820827 
L 371.547478 135.131054 
L 372.20009 129.411173 
L 372.833122 125.873909 
L 373.511839 124.391621 
L 373.838144 124.359036 
L 374.170977 124.107869 
L 374.484229 122.998437 
L 374.817062 123.655379 
L 375.149893 127.142575 
L 376.135336 142.41625 
L 376.44859 144.434862 
L 376.774895 145.095933 
L 377.101201 144.786523 
L 377.427506 143.698676 
L 378.758833 136.733819 
L 379.072087 135.887699 
L 379.424497 135.638701 
L 379.744276 136.239696 
L 380.064056 136.559473 
L 380.37731 136.285341 
L 380.723194 136.298794 
L 381.375804 138.108714 
L 382.041468 140.537206 
L 382.707131 143.611331 
L 385.01085 157.460781 
L 385.983241 161.321003 
L 386.968684 164.330103 
L 387.281937 164.909912 
L 387.614769 165.253309 
L 387.973706 165.38613 
L 388.293484 165.342896 
L 389.285454 164.757392 
L 389.911961 164.161603 
L 390.564572 162.953602 
L 391.563068 160.955164 
L 392.574615 159.89845 
L 393.207647 159.566599 
L 393.860259 159.503938 
L 394.858754 159.779835 
L 396.483757 160.59095 
L 397.4692 161.227034 
L 398.487273 161.905315 
L 398.487273 161.905315 
" style="fill:none;stroke:#1f77b4;stroke-linecap:square;stroke-width:1.5;"/>
   </g>
   <g id="line2d_13">
    <path clip-path="url(#p740d1a5981)" d="M 73.832727 180.492713 
L 76.404016 175.093432 
L 77.389459 172.286425 
L 78.407532 168.890904 
L 80.724303 163.114572 
L 82.656032 156.436907 
L 84.646497 150.272333 
L 86.623909 142.844801 
L 88.568691 133.750137 
L 88.901522 131.133262 
L 89.554135 120.651852 
L 90.552629 102.614004 
L 91.557651 86.786627 
L 93.502433 61.763474 
L 94.174622 56.121997 
L 94.520506 54.322061 
L 94.820707 53.568 
L 95.166591 53.898732 
L 95.492897 55.08234 
L 96.132456 58.912316 
L 97.130952 66.319935 
L 98.135972 75.205501 
L 99.441195 90.982176 
L 100.772522 105.854137 
L 101.744912 117.646981 
L 102.704252 126.782739 
L 104.374937 137.91066 
L 105.353854 142.876063 
L 106.665603 147.534904 
L 107.651046 150.386569 
L 109.2891 154.669613 
L 110.268016 157.456452 
L 110.920628 158.717672 
L 111.92565 160.189168 
L 112.251955 160.415004 
L 112.584786 160.348898 
L 113.25045 159.575792 
L 115.221336 156.893099 
L 115.860896 156.384402 
L 116.520034 156.448883 
L 117.525055 156.90658 
L 120.481383 159.269286 
L 121.120943 159.497764 
L 121.760502 159.332075 
L 123.10488 158.566806 
L 123.757493 157.956954 
L 124.723357 156.583488 
L 126.054684 154.70817 
L 126.713822 154.169969 
L 127.040128 154.077067 
L 128.025571 154.374855 
L 128.665129 154.855973 
L 132.313226 158.242788 
L 132.965838 158.617786 
L 135.595861 159.377186 
L 138.865445 159.547158 
L 140.855908 160.016092 
L 143.47288 161.034676 
L 145.78965 162.041101 
L 147.740958 162.58424 
L 149.379012 162.664537 
L 152.03514 162.752904 
L 157.288662 163.075776 
L 165.172206 163.95399 
L 167.462872 163.858878 
L 169.773115 163.605504 
L 172.73597 163.365422 
L 185.873036 164.118856 
L 189.481976 164.009023 
L 190.141114 163.915903 
L 192.112001 163.818692 
L 195.740519 163.567259 
L 201.627073 163.966794 
L 206.56734 164.272618 
L 209.849975 163.890514 
L 212.16022 163.549059 
L 214.137632 163.474268 
L 218.732016 163.610028 
L 224.984032 163.36133 
L 227.261645 163.660325 
L 228.912752 163.974227 
L 231.203418 164.183069 
L 232.841472 164.109804 
L 238.114572 163.66684 
L 241.397207 163.773455 
L 243.048313 163.77171 
L 246.004641 163.783364 
L 247.642697 163.719513 
L 248.954445 163.731934 
L 256.844515 164.050656 
L 259.487591 163.836793 
L 261.125646 163.655665 
L 264.421333 163.609741 
L 267.031778 163.667939 
L 270.960498 163.975822 
L 278.517737 164.130549 
L 285.428891 163.898618 
L 292.020265 163.740499 
L 296.901797 163.330424 
L 299.910335 163.485649 
L 303.826004 163.757537 
L 308.446492 163.759246 
L 313.047401 163.808501 
L 316.343089 163.857737 
L 324.207054 163.769785 
L 325.538381 163.910218 
L 327.176437 164.098467 
L 331.124734 164.323301 
L 332.756262 164.228436 
L 336.691509 163.835058 
L 340.313501 163.618367 
L 342.943525 163.665266 
L 349.841626 164.222014 
L 352.804481 164.673565 
L 353.783399 165.432009 
L 356.087116 167.369173 
L 357.079085 168.147447 
L 358.384308 168.974319 
L 360.674974 169.848573 
L 362.671965 170.317995 
L 364.316546 171.435977 
L 365.602189 173.491049 
L 366.587632 175.27397 
L 366.933517 175.27397 
L 368.238739 179.68529 
L 368.571571 182.047622 
L 369.56354 194.153537 
L 369.896373 196.899167 
L 370.209625 200.809518 
L 370.868763 211.344484 
L 371.547478 218.965966 
L 373.159429 243.751393 
L 374.170977 259.731039 
L 376.135336 292.638109 
L 376.44859 294.781759 
L 376.774895 295.488 
L 377.101201 294.851561 
L 377.766864 291.283957 
L 378.426002 285.115648 
L 379.072087 275.685139 
L 379.424497 270.466191 
L 380.064056 258.528845 
L 381.375804 241.890623 
L 382.707131 230.316395 
L 383.999302 220.623809 
L 385.01085 213.225113 
L 386.316072 202.398647 
L 387.281937 195.492276 
L 390.238266 176.92277 
L 391.236762 172.325689 
L 391.915477 169.966528 
L 392.907446 166.778051 
L 393.860259 164.602992 
L 394.532449 163.790273 
L 394.858754 163.423977 
L 395.517892 163.141761 
L 396.816589 163.496634 
L 397.4692 163.992422 
L 398.487273 164.621263 
L 398.487273 164.621263 
" style="fill:none;stroke:#ff7f0e;stroke-linecap:square;stroke-width:1.5;"/>
   </g>
   <g id="line2d_14">
    <path clip-path="url(#p740d1a5981)" d="M 73.832727 161.945955 
L 74.43313 161.254084 
L 75.751405 160.894254 
L 76.404016 160.953673 
L 77.06968 161.080605 
L 77.389459 160.921646 
L 78.407532 159.756664 
L 79.392976 159.915566 
L 79.719281 159.711248 
L 80.045588 159.665129 
L 80.378419 159.766577 
L 81.031031 160.541222 
L 81.70322 161.867879 
L 82.656032 164.136144 
L 83.680632 166.576646 
L 85.63194 172.51519 
L 87.909554 179.946303 
L 88.568691 181.367413 
L 88.901522 181.196991 
L 89.227828 178.954784 
L 90.213271 167.49467 
L 90.552629 165.84749 
L 90.891987 165.681071 
L 91.890482 167.954123 
L 92.51699 172.817067 
L 93.202232 179.835121 
L 95.832255 215.969223 
L 96.132456 218.401116 
L 96.47834 219.548116 
L 96.804645 219.494424 
L 97.130952 218.409101 
L 97.809667 214.103177 
L 98.462279 208.217398 
L 100.426638 188.878001 
L 101.079249 184.395854 
L 101.405556 182.971723 
L 102.058166 181.510995 
L 103.050135 179.831806 
L 104.042104 177.880601 
L 104.374937 177.305903 
L 104.707768 177.356263 
L 105.353854 178.721767 
L 106.345823 181.782954 
L 108.649541 192.124749 
L 109.2891 195.568719 
L 109.935185 197.851916 
L 110.920628 200.273979 
L 111.92565 201.495927 
L 112.251955 201.5156 
L 112.584786 201.029649 
L 112.89804 200.786306 
L 113.25045 200.693407 
L 113.903062 199.528544 
L 115.221336 195.494389 
L 115.860896 194.068006 
L 116.520034 192.839215 
L 117.851361 189.797922 
L 118.510497 188.855596 
L 118.836804 188.665783 
L 119.163109 188.614344 
L 119.476362 188.42357 
L 119.822247 187.916021 
L 120.481383 187.576762 
L 122.426166 185.201456 
L 123.10488 184.425921 
L 123.437713 184.064584 
L 124.083798 182.261096 
L 126.38099 174.473336 
L 127.366433 171.254347 
L 128.665129 168.533135 
L 129.343845 167.427172 
L 129.996456 166.760631 
L 131.327783 165.925986 
L 131.980395 165.746057 
L 134.264534 165.36694 
L 134.936725 165.329121 
L 135.249977 165.217646 
L 136.90761 163.617671 
L 138.206307 163.321301 
L 138.539138 163.04937 
L 139.211329 162.999319 
L 139.518055 163.067175 
L 140.177193 163.04276 
L 140.510024 163.034913 
L 141.156109 163.338476 
L 141.802194 163.212566 
L 142.135027 163.110606 
L 143.1531 163.330363 
L 143.799185 163.563849 
L 145.450292 163.391449 
L 146.102904 163.508616 
L 147.094873 164.229259 
L 147.4016 164.25036 
L 147.740958 164.4193 
L 151.369477 164.215965 
L 152.348394 164.502625 
L 152.994479 164.452502 
L 154.319279 164.546533 
L 157.947799 164.007718 
L 159.905633 164.174606 
L 161.223907 164.128635 
L 161.537161 164.119032 
L 162.522605 163.815306 
L 163.188268 163.623388 
L 163.527625 163.434971 
L 164.193288 163.336672 
L 165.498511 162.890358 
L 165.824816 162.883938 
L 166.477429 162.545905 
L 166.816787 162.628827 
L 167.80223 162.361783 
L 168.448315 162.643956 
L 169.773115 162.800732 
L 172.403139 163.816904 
L 172.73597 163.882756 
L 173.382055 164.204562 
L 173.727941 164.089912 
L 174.374026 164.155624 
L 175.346416 164.029206 
L 176.025132 164.150338 
L 176.671218 164.148739 
L 177.010574 164.18073 
L 177.656661 164.424275 
L 178.622525 164.487499 
L 180.926243 163.787066 
L 181.239495 163.579426 
L 181.918212 163.767455 
L 182.910181 163.666335 
L 183.236487 163.531539 
L 183.569318 163.558363 
L 184.221929 163.881006 
L 184.887593 163.960248 
L 186.50607 163.671554 
L 187.15868 163.340789 
L 188.496535 163.49499 
L 190.141114 163.915903 
L 190.467419 163.915903 
L 191.126557 164.361865 
L 194.063309 164.116791 
L 194.735498 164.173949 
L 196.699858 163.68861 
L 197.372048 163.73904 
L 198.018133 163.719316 
L 198.364016 163.73221 
L 199.016629 163.501582 
L 199.989019 163.480974 
L 200.635104 163.265706 
L 201.307293 163.333171 
L 202.612516 163.1781 
L 203.611012 163.545203 
L 204.602981 163.787249 
L 205.59495 164.21897 
L 207.219953 164.048559 
L 208.211921 164.146466 
L 209.530196 164.809611 
L 209.849975 164.920866 
L 210.835419 164.707864 
L 211.827387 164.756804 
L 214.137632 164.26429 
L 215.442855 164.368947 
L 216.101991 164.489592 
L 217.100487 164.387369 
L 217.413741 164.464785 
L 218.072878 163.912431 
L 218.732016 163.249516 
L 219.051795 163.071531 
L 219.378101 163.019419 
L 219.710933 163.193 
L 221.029207 163.216567 
L 222.014651 163.39976 
L 223.326399 163.308737 
L 223.97901 163.220775 
L 224.324894 163.121127 
L 227.594477 164.050936 
L 228.266667 164.155946 
L 229.258635 164.083339 
L 231.88866 163.97456 
L 232.515166 163.734042 
L 232.841472 163.587535 
L 233.526714 163.65324 
L 235.804327 164.377411 
L 237.103024 164.164235 
L 237.435855 164.065068 
L 238.767182 164.380578 
L 239.432846 164.154143 
L 240.098509 164.186099 
L 240.398711 164.100657 
L 240.764173 164.130165 
L 241.397207 163.800665 
L 241.723512 163.584781 
L 243.374619 163.339138 
L 244.046808 163.55243 
L 245.358556 163.694799 
L 246.337474 163.583801 
L 247.969002 163.787494 
L 249.613582 164.227963 
L 249.939889 164.206883 
L 250.925332 164.605335 
L 253.894713 163.956995 
L 254.560376 163.813103 
L 257.177348 163.190041 
L 258.502149 163.080097 
L 259.161286 162.837992 
L 259.487591 162.800048 
L 259.820423 162.622943 
L 260.140203 162.610305 
L 261.79131 163.178095 
L 263.103058 163.377974 
L 264.095027 163.931873 
L 265.073945 163.894385 
L 265.713503 164.189453 
L 266.705473 163.956767 
L 267.031778 163.93727 
L 268.350053 164.293925 
L 269.635697 164.359011 
L 270.294835 164.530664 
L 271.293329 164.295803 
L 272.291825 164.145263 
L 273.597048 164.097707 
L 274.928375 164.732529 
L 275.594039 164.658337 
L 276.253175 164.612184 
L 277.571451 164.255121 
L 279.176875 164.106467 
L 279.509706 164.014777 
L 280.488624 164.238494 
L 280.821455 164.107646 
L 281.813424 164.058485 
L 282.805394 163.905945 
L 283.771259 163.709918 
L 284.456501 163.915903 
L 284.763228 163.849227 
L 285.115637 163.915903 
L 286.088029 163.550724 
L 287.412829 163.503304 
L 287.732609 163.291218 
L 288.078492 163.20254 
L 288.404798 163.264211 
L 288.73763 163.450536 
L 289.050884 163.457157 
L 290.382211 163.072261 
L 291.335023 163.114365 
L 292.98613 163.520863 
L 293.664845 163.726285 
L 293.984624 163.761137 
L 294.957016 164.129158 
L 295.922881 164.108004 
L 298.905315 163.791815 
L 299.564451 163.86818 
L 300.549894 163.762859 
L 301.528812 164.124255 
L 302.194476 163.957553 
L 304.485142 163.831547 
L 305.470583 163.936142 
L 306.482132 164.238926 
L 306.814963 164.212173 
L 307.467574 163.851057 
L 309.118681 163.565755 
L 310.097598 163.44921 
L 310.417378 163.267563 
L 310.763262 163.244109 
L 311.076516 163.447685 
L 312.708044 163.636217 
L 314.032844 163.629315 
L 314.685456 163.585574 
L 315.690476 163.801722 
L 319.286365 163.940269 
L 319.606145 164.132041 
L 319.945503 164.552032 
L 320.937472 164.43258 
L 321.929441 164.131218 
L 322.575526 164.14689 
L 323.880749 163.835301 
L 325.199023 163.681883 
L 329.799934 164.272251 
L 330.45907 164.442888 
L 330.765799 164.711485 
L 331.124734 164.827506 
L 331.437988 164.633931 
L 331.77082 164.59108 
L 332.756262 164.84798 
L 334.068012 164.919937 
L 334.727148 164.652006 
L 335.405865 164.576553 
L 337.030867 164.06862 
L 337.657374 164.024479 
L 338.31651 163.773329 
L 338.995227 163.592895 
L 339.667416 163.565742 
L 339.974144 163.360085 
L 340.966113 163.079212 
L 341.964608 162.792652 
L 342.290914 162.734562 
L 344.242221 163.470221 
L 344.888307 163.812446 
L 345.899855 164.383417 
L 346.572044 164.843295 
L 347.231182 165.111764 
L 347.883793 165.140203 
L 348.54293 165.011989 
L 348.869236 165.081839 
L 349.18249 165.475561 
L 350.18751 165.952 
L 350.840122 165.948785 
L 351.159902 165.806154 
L 353.130788 163.859997 
L 354.768842 161.544908 
L 355.421453 161.358772 
L 356.739729 161.356257 
L 357.411918 160.644856 
L 358.384308 159.890928 
L 358.717141 159.605403 
L 359.056499 159.577253 
L 359.70911 160.017605 
L 361.673469 161.322073 
L 362.012827 161.233354 
L 362.352185 161.324666 
L 363.350681 160.927086 
L 363.957609 160.337799 
L 364.316546 160.041993 
L 364.616747 159.980464 
L 364.962631 160.298322 
L 365.9546 162.36102 
L 366.27438 162.49321 
L 366.933517 162.419259 
L 367.586128 163.724044 
L 368.238739 166.086231 
L 368.571571 167.970634 
L 369.896373 178.843694 
L 370.542458 183.506468 
L 370.868763 184.144566 
L 371.201594 183.545101 
L 371.547478 182.366909 
L 372.20009 177.683842 
L 373.159429 169.163467 
L 373.838144 161.514111 
L 374.484229 151.00682 
L 375.149893 137.965737 
L 377.427506 86.542976 
L 377.766864 82.242058 
L 378.426002 77.652084 
L 378.758833 77.000857 
L 379.072087 77.696047 
L 379.424497 78.756811 
L 380.723194 91.181745 
L 383.01386 119.062813 
L 384.358238 130.161486 
L 384.678018 132.094103 
L 385.343681 134.4384 
L 385.676514 135.561315 
L 386.316072 138.635916 
L 387.281937 141.244326 
L 387.973706 142.438387 
L 388.293484 142.628369 
L 388.946096 142.490416 
L 389.598707 142.365572 
L 389.911961 142.688497 
L 390.897404 143.254328 
L 391.563068 143.898613 
L 391.915477 144.544104 
L 393.533954 145.71247 
L 393.860259 145.629117 
L 394.858754 146.075515 
L 395.517892 146.775579 
L 396.483757 148.488243 
L 396.816589 148.900405 
L 397.4692 150.330739 
L 397.802031 150.972104 
L 398.128338 151.862094 
L 398.487273 152.468498 
L 398.487273 152.468498 
" style="fill:none;stroke:#2ca02c;stroke-linecap:square;stroke-width:1.5;"/>
   </g>
   <g id="patch_3">
    <path d="M 57.6 307.584 
L 57.6 41.472 
" style="fill:none;stroke:#000000;stroke-linecap:square;stroke-linejoin:miter;stroke-width:0.8;"/>
   </g>
   <g id="patch_4">
    <path d="M 414.72 307.584 
L 414.72 41.472 
" style="fill:none;stroke:#000000;stroke-linecap:square;stroke-linejoin:miter;stroke-width:0.8;"/>
   </g>
   <g id="patch_5">
    <path d="M 57.6 307.584 
L 414.72 307.584 
" style="fill:none;stroke:#000000;stroke-linecap:square;stroke-linejoin:miter;stroke-width:0.8;"/>
   </g>
   <g id="patch_6">
    <path d="M 57.6 41.472 
L 414.72 41.472 
" style="fill:none;stroke:#000000;stroke-linecap:square;stroke-linejoin:miter;stroke-width:0.8;"/>
   </g>
   <g id="text_14">
    <!-- Vivo 1716/car_off/gyro Dec 09 120835.txt -->
    <defs>
     <path d="M 28.609375 0 
L 0.78125 72.90625 
L 11.078125 72.90625 
L 34.1875 11.53125 
L 57.328125 72.90625 
L 67.578125 72.90625 
L 39.796875 0 
z
" id="DejaVuSans-86"/>
     <path d="M 2.984375 54.6875 
L 12.5 54.6875 
L 29.59375 8.796875 
L 46.6875 54.6875 
L 56.203125 54.6875 
L 35.6875 0 
L 23.484375 0 
z
" id="DejaVuSans-118"/>
     <path d="M 8.203125 72.90625 
L 55.078125 72.90625 
L 55.078125 68.703125 
L 28.609375 0 
L 18.3125 0 
L 43.21875 64.59375 
L 8.203125 64.59375 
z
" id="DejaVuSans-55"/>
     <path d="M 33.015625 40.375 
Q 26.375 40.375 22.484375 35.828125 
Q 18.609375 31.296875 18.609375 23.390625 
Q 18.609375 15.53125 22.484375 10.953125 
Q 26.375 6.390625 33.015625 6.390625 
Q 39.65625 6.390625 43.53125 10.953125 
Q 47.40625 15.53125 47.40625 23.390625 
Q 47.40625 31.296875 43.53125 35.828125 
Q 39.65625 40.375 33.015625 40.375 
z
M 52.59375 71.296875 
L 52.59375 62.3125 
Q 48.875 64.0625 45.09375 64.984375 
Q 41.3125 65.921875 37.59375 65.921875 
Q 27.828125 65.921875 22.671875 59.328125 
Q 17.53125 52.734375 16.796875 39.40625 
Q 19.671875 43.65625 24.015625 45.921875 
Q 28.375 48.1875 33.59375 48.1875 
Q 44.578125 48.1875 50.953125 41.515625 
Q 57.328125 34.859375 57.328125 23.390625 
Q 57.328125 12.15625 50.6875 5.359375 
Q 44.046875 -1.421875 33.015625 -1.421875 
Q 20.359375 -1.421875 13.671875 8.265625 
Q 6.984375 17.96875 6.984375 36.375 
Q 6.984375 53.65625 15.1875 63.9375 
Q 23.390625 74.21875 37.203125 74.21875 
Q 40.921875 74.21875 44.703125 73.484375 
Q 48.484375 72.75 52.59375 71.296875 
z
" id="DejaVuSans-54"/>
     <path d="M 25.390625 72.90625 
L 33.6875 72.90625 
L 8.296875 -9.28125 
L 0 -9.28125 
z
" id="DejaVuSans-47"/>
     <path d="M 41.109375 46.296875 
Q 39.59375 47.171875 37.8125 47.578125 
Q 36.03125 48 33.890625 48 
Q 26.265625 48 22.1875 43.046875 
Q 18.109375 38.09375 18.109375 28.8125 
L 18.109375 0 
L 9.078125 0 
L 9.078125 54.6875 
L 18.109375 54.6875 
L 18.109375 46.1875 
Q 20.953125 51.171875 25.484375 53.578125 
Q 30.03125 56 36.53125 56 
Q 37.453125 56 38.578125 55.875 
Q 39.703125 55.765625 41.0625 55.515625 
z
" id="DejaVuSans-114"/>
     <path d="M 50.984375 -16.609375 
L 50.984375 -23.578125 
L -0.984375 -23.578125 
L -0.984375 -16.609375 
z
" id="DejaVuSans-95"/>
     <path d="M 37.109375 75.984375 
L 37.109375 68.5 
L 28.515625 68.5 
Q 23.6875 68.5 21.796875 66.546875 
Q 19.921875 64.59375 19.921875 59.515625 
L 19.921875 54.6875 
L 34.71875 54.6875 
L 34.71875 47.703125 
L 19.921875 47.703125 
L 19.921875 0 
L 10.890625 0 
L 10.890625 47.703125 
L 2.296875 47.703125 
L 2.296875 54.6875 
L 10.890625 54.6875 
L 10.890625 58.5 
Q 10.890625 67.625 15.140625 71.796875 
Q 19.390625 75.984375 28.609375 75.984375 
z
" id="DejaVuSans-102"/>
     <path d="M 32.171875 -5.078125 
Q 28.375 -14.84375 24.75 -17.8125 
Q 21.140625 -20.796875 15.09375 -20.796875 
L 7.90625 -20.796875 
L 7.90625 -13.28125 
L 13.1875 -13.28125 
Q 16.890625 -13.28125 18.9375 -11.515625 
Q 21 -9.765625 23.484375 -3.21875 
L 25.09375 0.875 
L 2.984375 54.6875 
L 12.5 54.6875 
L 29.59375 11.921875 
L 46.6875 54.6875 
L 56.203125 54.6875 
z
" id="DejaVuSans-121"/>
     <path d="M 19.671875 64.796875 
L 19.671875 8.109375 
L 31.59375 8.109375 
Q 46.6875 8.109375 53.6875 14.9375 
Q 60.6875 21.78125 60.6875 36.53125 
Q 60.6875 51.171875 53.6875 57.984375 
Q 46.6875 64.796875 31.59375 64.796875 
z
M 9.8125 72.90625 
L 30.078125 72.90625 
Q 51.265625 72.90625 61.171875 64.09375 
Q 71.09375 55.28125 71.09375 36.53125 
Q 71.09375 17.671875 61.125 8.828125 
Q 51.171875 0 30.078125 0 
L 9.8125 0 
z
" id="DejaVuSans-68"/>
     <path d="M 10.984375 1.515625 
L 10.984375 10.5 
Q 14.703125 8.734375 18.5 7.8125 
Q 22.3125 6.890625 25.984375 6.890625 
Q 35.75 6.890625 40.890625 13.453125 
Q 46.046875 20.015625 46.78125 33.40625 
Q 43.953125 29.203125 39.59375 26.953125 
Q 35.25 24.703125 29.984375 24.703125 
Q 19.046875 24.703125 12.671875 31.3125 
Q 6.296875 37.9375 6.296875 49.421875 
Q 6.296875 60.640625 12.9375 67.421875 
Q 19.578125 74.21875 30.609375 74.21875 
Q 43.265625 74.21875 49.921875 64.515625 
Q 56.59375 54.828125 56.59375 36.375 
Q 56.59375 19.140625 48.40625 8.859375 
Q 40.234375 -1.421875 26.421875 -1.421875 
Q 22.703125 -1.421875 18.890625 -0.6875 
Q 15.09375 0.046875 10.984375 1.515625 
z
M 30.609375 32.421875 
Q 37.25 32.421875 41.125 36.953125 
Q 45.015625 41.5 45.015625 49.421875 
Q 45.015625 57.28125 41.125 61.84375 
Q 37.25 66.40625 30.609375 66.40625 
Q 23.96875 66.40625 20.09375 61.84375 
Q 16.21875 57.28125 16.21875 49.421875 
Q 16.21875 41.5 20.09375 36.953125 
Q 23.96875 32.421875 30.609375 32.421875 
z
" id="DejaVuSans-57"/>
     <path d="M 31.78125 34.625 
Q 24.75 34.625 20.71875 30.859375 
Q 16.703125 27.09375 16.703125 20.515625 
Q 16.703125 13.921875 20.71875 10.15625 
Q 24.75 6.390625 31.78125 6.390625 
Q 38.8125 6.390625 42.859375 10.171875 
Q 46.921875 13.96875 46.921875 20.515625 
Q 46.921875 27.09375 42.890625 30.859375 
Q 38.875 34.625 31.78125 34.625 
z
M 21.921875 38.8125 
Q 15.578125 40.375 12.03125 44.71875 
Q 8.5 49.078125 8.5 55.328125 
Q 8.5 64.0625 14.71875 69.140625 
Q 20.953125 74.21875 31.78125 74.21875 
Q 42.671875 74.21875 48.875 69.140625 
Q 55.078125 64.0625 55.078125 55.328125 
Q 55.078125 49.078125 51.53125 44.71875 
Q 48 40.375 41.703125 38.8125 
Q 48.828125 37.15625 52.796875 32.3125 
Q 56.78125 27.484375 56.78125 20.515625 
Q 56.78125 9.90625 50.3125 4.234375 
Q 43.84375 -1.421875 31.78125 -1.421875 
Q 19.734375 -1.421875 13.25 4.234375 
Q 6.78125 9.90625 6.78125 20.515625 
Q 6.78125 27.484375 10.78125 32.3125 
Q 14.796875 37.15625 21.921875 38.8125 
z
M 18.3125 54.390625 
Q 18.3125 48.734375 21.84375 45.5625 
Q 25.390625 42.390625 31.78125 42.390625 
Q 38.140625 42.390625 41.71875 45.5625 
Q 45.3125 48.734375 45.3125 54.390625 
Q 45.3125 60.0625 41.71875 63.234375 
Q 38.140625 66.40625 31.78125 66.40625 
Q 25.390625 66.40625 21.84375 63.234375 
Q 18.3125 60.0625 18.3125 54.390625 
z
" id="DejaVuSans-56"/>
     <path d="M 54.890625 54.6875 
L 35.109375 28.078125 
L 55.90625 0 
L 45.3125 0 
L 29.390625 21.484375 
L 13.484375 0 
L 2.875 0 
L 24.125 28.609375 
L 4.6875 54.6875 
L 15.28125 54.6875 
L 29.78125 35.203125 
L 44.28125 54.6875 
z
" id="DejaVuSans-120"/>
    </defs>
    <g transform="translate(110.080313 35.472)scale(0.12 -0.12)">
     <use xlink:href="#DejaVuSans-86"/>
     <use x="68.376953" xlink:href="#DejaVuSans-105"/>
     <use x="96.160156" xlink:href="#DejaVuSans-118"/>
     <use x="155.339844" xlink:href="#DejaVuSans-111"/>
     <use x="216.521484" xlink:href="#DejaVuSans-32"/>
     <use x="248.308594" xlink:href="#DejaVuSans-49"/>
     <use x="311.931641" xlink:href="#DejaVuSans-55"/>
     <use x="375.554688" xlink:href="#DejaVuSans-49"/>
     <use x="439.177734" xlink:href="#DejaVuSans-54"/>
     <use x="502.800781" xlink:href="#DejaVuSans-47"/>
     <use x="536.492188" xlink:href="#DejaVuSans-99"/>
     <use x="591.472656" xlink:href="#DejaVuSans-97"/>
     <use x="652.751953" xlink:href="#DejaVuSans-114"/>
     <use x="693.865234" xlink:href="#DejaVuSans-95"/>
     <use x="743.865234" xlink:href="#DejaVuSans-111"/>
     <use x="805.046875" xlink:href="#DejaVuSans-102"/>
     <use x="840.251953" xlink:href="#DejaVuSans-102"/>
     <use x="875.457031" xlink:href="#DejaVuSans-47"/>
     <use x="909.148438" xlink:href="#DejaVuSans-103"/>
     <use x="972.625" xlink:href="#DejaVuSans-121"/>
     <use x="1031.804688" xlink:href="#DejaVuSans-114"/>
     <use x="1072.886719" xlink:href="#DejaVuSans-111"/>
     <use x="1134.068359" xlink:href="#DejaVuSans-32"/>
     <use x="1165.855469" xlink:href="#DejaVuSans-68"/>
     <use x="1242.857422" xlink:href="#DejaVuSans-101"/>
     <use x="1304.380859" xlink:href="#DejaVuSans-99"/>
     <use x="1359.361328" xlink:href="#DejaVuSans-32"/>
     <use x="1391.148438" xlink:href="#DejaVuSans-48"/>
     <use x="1454.771484" xlink:href="#DejaVuSans-57"/>
     <use x="1518.394531" xlink:href="#DejaVuSans-32"/>
     <use x="1550.181641" xlink:href="#DejaVuSans-49"/>
     <use x="1613.804688" xlink:href="#DejaVuSans-50"/>
     <use x="1677.427734" xlink:href="#DejaVuSans-48"/>
     <use x="1741.050781" xlink:href="#DejaVuSans-56"/>
     <use x="1804.673828" xlink:href="#DejaVuSans-51"/>
     <use x="1868.296875" xlink:href="#DejaVuSans-53"/>
     <use x="1931.919922" xlink:href="#DejaVuSans-46"/>
     <use x="1963.707031" xlink:href="#DejaVuSans-116"/>
     <use x="2002.916016" xlink:href="#DejaVuSans-120"/>
     <use x="2062.095703" xlink:href="#DejaVuSans-116"/>
    </g>
   </g>
   <g id="legend_1">
    <g id="patch_7">
     <path d="M 64.6 302.584 
L 127.8 302.584 
Q 129.8 302.584 129.8 300.584 
L 129.8 257.549625 
Q 129.8 255.549625 127.8 255.549625 
L 64.6 255.549625 
Q 62.6 255.549625 62.6 257.549625 
L 62.6 300.584 
Q 62.6 302.584 64.6 302.584 
z
" style="fill:#ffffff;opacity:0.8;stroke:#cccccc;stroke-linejoin:miter;"/>
    </g>
    <g id="line2d_15">
     <path d="M 66.6 263.648062 
L 86.6 263.648062 
" style="fill:none;stroke:#1f77b4;stroke-linecap:square;stroke-width:1.5;"/>
    </g>
    <g id="line2d_16"/>
    <g id="text_15">
     <!-- X-Axis -->
     <defs>
      <path d="M 6.296875 72.90625 
L 16.890625 72.90625 
L 35.015625 45.796875 
L 53.21875 72.90625 
L 63.8125 72.90625 
L 40.375 37.890625 
L 65.375 0 
L 54.78125 0 
L 34.28125 31 
L 13.625 0 
L 2.984375 0 
L 29 38.921875 
z
" id="DejaVuSans-88"/>
      <path d="M 4.890625 31.390625 
L 31.203125 31.390625 
L 31.203125 23.390625 
L 4.890625 23.390625 
z
" id="DejaVuSans-45"/>
      <path d="M 34.1875 63.1875 
L 20.796875 26.90625 
L 47.609375 26.90625 
z
M 28.609375 72.90625 
L 39.796875 72.90625 
L 67.578125 0 
L 57.328125 0 
L 50.6875 18.703125 
L 17.828125 18.703125 
L 11.1875 0 
L 0.78125 0 
z
" id="DejaVuSans-65"/>
     </defs>
     <g transform="translate(94.6 267.148062)scale(0.1 -0.1)">
      <use xlink:href="#DejaVuSans-88"/>
      <use x="68.427734" xlink:href="#DejaVuSans-45"/>
      <use x="104.480469" xlink:href="#DejaVuSans-65"/>
      <use x="172.888672" xlink:href="#DejaVuSans-120"/>
      <use x="232.068359" xlink:href="#DejaVuSans-105"/>
      <use x="259.851562" xlink:href="#DejaVuSans-115"/>
     </g>
    </g>
    <g id="line2d_17">
     <path d="M 66.6 278.326188 
L 86.6 278.326188 
" style="fill:none;stroke:#ff7f0e;stroke-linecap:square;stroke-width:1.5;"/>
    </g>
    <g id="line2d_18"/>
    <g id="text_16">
     <!-- Y-Axis -->
     <defs>
      <path d="M -0.203125 72.90625 
L 10.40625 72.90625 
L 30.609375 42.921875 
L 50.6875 72.90625 
L 61.28125 72.90625 
L 35.5 34.71875 
L 35.5 0 
L 25.59375 0 
L 25.59375 34.71875 
z
" id="DejaVuSans-89"/>
     </defs>
     <g transform="translate(94.6 281.826188)scale(0.1 -0.1)">
      <use xlink:href="#DejaVuSans-89"/>
      <use x="60.912109" xlink:href="#DejaVuSans-45"/>
      <use x="96.964844" xlink:href="#DejaVuSans-65"/>
      <use x="165.373047" xlink:href="#DejaVuSans-120"/>
      <use x="224.552734" xlink:href="#DejaVuSans-105"/>
      <use x="252.335938" xlink:href="#DejaVuSans-115"/>
     </g>
    </g>
    <g id="line2d_19">
     <path d="M 66.6 293.004312 
L 86.6 293.004312 
" style="fill:none;stroke:#2ca02c;stroke-linecap:square;stroke-width:1.5;"/>
    </g>
    <g id="line2d_20"/>
    <g id="text_17">
     <!-- Z-Axis -->
     <defs>
      <path d="M 5.609375 72.90625 
L 62.890625 72.90625 
L 62.890625 65.375 
L 16.796875 8.296875 
L 64.015625 8.296875 
L 64.015625 0 
L 4.5 0 
L 4.5 7.515625 
L 50.59375 64.59375 
L 5.609375 64.59375 
z
" id="DejaVuSans-90"/>
     </defs>
     <g transform="translate(94.6 296.504312)scale(0.1 -0.1)">
      <use xlink:href="#DejaVuSans-90"/>
      <use x="68.490234" xlink:href="#DejaVuSans-45"/>
      <use x="104.542969" xlink:href="#DejaVuSans-65"/>
      <use x="172.951172" xlink:href="#DejaVuSans-120"/>
      <use x="232.130859" xlink:href="#DejaVuSans-105"/>
      <use x="259.914062" xlink:href="#DejaVuSans-115"/>
     </g>
    </g>
   </g>
  </g>
 </g>
 <defs>
  <clipPath id="p740d1a5981">
   <rect height="266.112" width="357.12" x="57.6" y="41.472"/>
  </clipPath>
 </defs>
</svg>
