<?xml version="1.0" encoding="utf-8" standalone="no"?>
<!DOCTYPE svg PUBLIC "-//W3C//DTD SVG 1.1//EN"
  "http://www.w3.org/Graphics/SVG/1.1/DTD/svg11.dtd">
<!-- Created with matplotlib (https://matplotlib.org/) -->
<svg height="345.6pt" version="1.1" viewBox="0 0 460.8 345.6" width="460.8pt" xmlns="http://www.w3.org/2000/svg" xmlns:xlink="http://www.w3.org/1999/xlink">
 <defs>
  <style type="text/css">
*{stroke-linecap:butt;stroke-linejoin:round;}
  </style>
 </defs>
 <g id="figure_1">
  <g id="patch_1">
   <path d="M 0 345.6 
L 460.8 345.6 
L 460.8 0 
L 0 0 
z
" style="fill:#ffffff;"/>
  </g>
  <g id="axes_1">
   <g id="patch_2">
    <path d="M 57.6 307.584 
L 414.72 307.584 
L 414.72 41.472 
L 57.6 41.472 
z
" style="fill:#ffffff;"/>
   </g>
   <g id="matplotlib.axis_1">
    <g id="xtick_1">
     <g id="line2d_1">
      <defs>
       <path d="M 0 0 
L 0 3.5 
" id="mfee45e3554" style="stroke:#000000;stroke-width:0.8;"/>
      </defs>
      <g>
       <use style="stroke:#000000;stroke-width:0.8;" x="73.832727" xlink:href="#mfee45e3554" y="307.584"/>
      </g>
     </g>
     <g id="text_1">
      <!-- 0.0 -->
      <defs>
       <path d="M 31.78125 66.40625 
Q 24.171875 66.40625 20.328125 58.90625 
Q 16.5 51.421875 16.5 36.375 
Q 16.5 21.390625 20.328125 13.890625 
Q 24.171875 6.390625 31.78125 6.390625 
Q 39.453125 6.390625 43.28125 13.890625 
Q 47.125 21.390625 47.125 36.375 
Q 47.125 51.421875 43.28125 58.90625 
Q 39.453125 66.40625 31.78125 66.40625 
z
M 31.78125 74.21875 
Q 44.046875 74.21875 50.515625 64.515625 
Q 56.984375 54.828125 56.984375 36.375 
Q 56.984375 17.96875 50.515625 8.265625 
Q 44.046875 -1.421875 31.78125 -1.421875 
Q 19.53125 -1.421875 13.0625 8.265625 
Q 6.59375 17.96875 6.59375 36.375 
Q 6.59375 54.828125 13.0625 64.515625 
Q 19.53125 74.21875 31.78125 74.21875 
z
" id="DejaVuSans-48"/>
       <path d="M 10.6875 12.40625 
L 21 12.40625 
L 21 0 
L 10.6875 0 
z
" id="DejaVuSans-46"/>
      </defs>
      <g transform="translate(65.881165 322.182437)scale(0.1 -0.1)">
       <use xlink:href="#DejaVuSans-48"/>
       <use x="63.623047" xlink:href="#DejaVuSans-46"/>
       <use x="95.410156" xlink:href="#DejaVuSans-48"/>
      </g>
     </g>
    </g>
    <g id="xtick_2">
     <g id="line2d_2">
      <g>
       <use style="stroke:#000000;stroke-width:0.8;" x="114.750067" xlink:href="#mfee45e3554" y="307.584"/>
      </g>
     </g>
     <g id="text_2">
      <!-- 2.5 -->
      <defs>
       <path d="M 19.1875 8.296875 
L 53.609375 8.296875 
L 53.609375 0 
L 7.328125 0 
L 7.328125 8.296875 
Q 12.9375 14.109375 22.625 23.890625 
Q 32.328125 33.6875 34.8125 36.53125 
Q 39.546875 41.84375 41.421875 45.53125 
Q 43.3125 49.21875 43.3125 52.78125 
Q 43.3125 58.59375 39.234375 62.25 
Q 35.15625 65.921875 28.609375 65.921875 
Q 23.96875 65.921875 18.8125 64.3125 
Q 13.671875 62.703125 7.8125 59.421875 
L 7.8125 69.390625 
Q 13.765625 71.78125 18.9375 73 
Q 24.125 74.21875 28.421875 74.21875 
Q 39.75 74.21875 46.484375 68.546875 
Q 53.21875 62.890625 53.21875 53.421875 
Q 53.21875 48.921875 51.53125 44.890625 
Q 49.859375 40.875 45.40625 35.40625 
Q 44.1875 33.984375 37.640625 27.21875 
Q 31.109375 20.453125 19.1875 8.296875 
z
" id="DejaVuSans-50"/>
       <path d="M 10.796875 72.90625 
L 49.515625 72.90625 
L 49.515625 64.59375 
L 19.828125 64.59375 
L 19.828125 46.734375 
Q 21.96875 47.46875 24.109375 47.828125 
Q 26.265625 48.1875 28.421875 48.1875 
Q 40.625 48.1875 47.75 41.5 
Q 54.890625 34.8125 54.890625 23.390625 
Q 54.890625 11.625 47.5625 5.09375 
Q 40.234375 -1.421875 26.90625 -1.421875 
Q 22.3125 -1.421875 17.546875 -0.640625 
Q 12.796875 0.140625 7.71875 1.703125 
L 7.71875 11.625 
Q 12.109375 9.234375 16.796875 8.0625 
Q 21.484375 6.890625 26.703125 6.890625 
Q 35.15625 6.890625 40.078125 11.328125 
Q 45.015625 15.765625 45.015625 23.390625 
Q 45.015625 31 40.078125 35.4375 
Q 35.15625 39.890625 26.703125 39.890625 
Q 22.75 39.890625 18.8125 39.015625 
Q 14.890625 38.140625 10.796875 36.28125 
z
" id="DejaVuSans-53"/>
      </defs>
      <g transform="translate(106.798505 322.182437)scale(0.1 -0.1)">
       <use xlink:href="#DejaVuSans-50"/>
       <use x="63.623047" xlink:href="#DejaVuSans-46"/>
       <use x="95.410156" xlink:href="#DejaVuSans-53"/>
      </g>
     </g>
    </g>
    <g id="xtick_3">
     <g id="line2d_3">
      <g>
       <use style="stroke:#000000;stroke-width:0.8;" x="155.667407" xlink:href="#mfee45e3554" y="307.584"/>
      </g>
     </g>
     <g id="text_3">
      <!-- 5.0 -->
      <g transform="translate(147.715845 322.182437)scale(0.1 -0.1)">
       <use xlink:href="#DejaVuSans-53"/>
       <use x="63.623047" xlink:href="#DejaVuSans-46"/>
       <use x="95.410156" xlink:href="#DejaVuSans-48"/>
      </g>
     </g>
    </g>
    <g id="xtick_4">
     <g id="line2d_4">
      <g>
       <use style="stroke:#000000;stroke-width:0.8;" x="196.584747" xlink:href="#mfee45e3554" y="307.584"/>
      </g>
     </g>
     <g id="text_4">
      <!-- 7.5 -->
      <defs>
       <path d="M 8.203125 72.90625 
L 55.078125 72.90625 
L 55.078125 68.703125 
L 28.609375 0 
L 18.3125 0 
L 43.21875 64.59375 
L 8.203125 64.59375 
z
" id="DejaVuSans-55"/>
      </defs>
      <g transform="translate(188.633185 322.182437)scale(0.1 -0.1)">
       <use xlink:href="#DejaVuSans-55"/>
       <use x="63.623047" xlink:href="#DejaVuSans-46"/>
       <use x="95.410156" xlink:href="#DejaVuSans-53"/>
      </g>
     </g>
    </g>
    <g id="xtick_5">
     <g id="line2d_5">
      <g>
       <use style="stroke:#000000;stroke-width:0.8;" x="237.502087" xlink:href="#mfee45e3554" y="307.584"/>
      </g>
     </g>
     <g id="text_5">
      <!-- 10.0 -->
      <defs>
       <path d="M 12.40625 8.296875 
L 28.515625 8.296875 
L 28.515625 63.921875 
L 10.984375 60.40625 
L 10.984375 69.390625 
L 28.421875 72.90625 
L 38.28125 72.90625 
L 38.28125 8.296875 
L 54.390625 8.296875 
L 54.390625 0 
L 12.40625 0 
z
" id="DejaVuSans-49"/>
      </defs>
      <g transform="translate(226.369275 322.182437)scale(0.1 -0.1)">
       <use xlink:href="#DejaVuSans-49"/>
       <use x="63.623047" xlink:href="#DejaVuSans-48"/>
       <use x="127.246094" xlink:href="#DejaVuSans-46"/>
       <use x="159.033203" xlink:href="#DejaVuSans-48"/>
      </g>
     </g>
    </g>
    <g id="xtick_6">
     <g id="line2d_6">
      <g>
       <use style="stroke:#000000;stroke-width:0.8;" x="278.419427" xlink:href="#mfee45e3554" y="307.584"/>
      </g>
     </g>
     <g id="text_6">
      <!-- 12.5 -->
      <g transform="translate(267.286615 322.182437)scale(0.1 -0.1)">
       <use xlink:href="#DejaVuSans-49"/>
       <use x="63.623047" xlink:href="#DejaVuSans-50"/>
       <use x="127.246094" xlink:href="#DejaVuSans-46"/>
       <use x="159.033203" xlink:href="#DejaVuSans-53"/>
      </g>
     </g>
    </g>
    <g id="xtick_7">
     <g id="line2d_7">
      <g>
       <use style="stroke:#000000;stroke-width:0.8;" x="319.336767" xlink:href="#mfee45e3554" y="307.584"/>
      </g>
     </g>
     <g id="text_7">
      <!-- 15.0 -->
      <g transform="translate(308.203954 322.182437)scale(0.1 -0.1)">
       <use xlink:href="#DejaVuSans-49"/>
       <use x="63.623047" xlink:href="#DejaVuSans-53"/>
       <use x="127.246094" xlink:href="#DejaVuSans-46"/>
       <use x="159.033203" xlink:href="#DejaVuSans-48"/>
      </g>
     </g>
    </g>
    <g id="xtick_8">
     <g id="line2d_8">
      <g>
       <use style="stroke:#000000;stroke-width:0.8;" x="360.254107" xlink:href="#mfee45e3554" y="307.584"/>
      </g>
     </g>
     <g id="text_8">
      <!-- 17.5 -->
      <g transform="translate(349.121294 322.182437)scale(0.1 -0.1)">
       <use xlink:href="#DejaVuSans-49"/>
       <use x="63.623047" xlink:href="#DejaVuSans-55"/>
       <use x="127.246094" xlink:href="#DejaVuSans-46"/>
       <use x="159.033203" xlink:href="#DejaVuSans-53"/>
      </g>
     </g>
    </g>
    <g id="xtick_9">
     <g id="line2d_9">
      <g>
       <use style="stroke:#000000;stroke-width:0.8;" x="401.171447" xlink:href="#mfee45e3554" y="307.584"/>
      </g>
     </g>
     <g id="text_9">
      <!-- 20.0 -->
      <g transform="translate(390.038634 322.182437)scale(0.1 -0.1)">
       <use xlink:href="#DejaVuSans-50"/>
       <use x="63.623047" xlink:href="#DejaVuSans-48"/>
       <use x="127.246094" xlink:href="#DejaVuSans-46"/>
       <use x="159.033203" xlink:href="#DejaVuSans-48"/>
      </g>
     </g>
    </g>
    <g id="text_10">
     <!-- Time (in seconds) -->
     <defs>
      <path d="M -0.296875 72.90625 
L 61.375 72.90625 
L 61.375 64.59375 
L 35.5 64.59375 
L 35.5 0 
L 25.59375 0 
L 25.59375 64.59375 
L -0.296875 64.59375 
z
" id="DejaVuSans-84"/>
      <path d="M 9.421875 54.6875 
L 18.40625 54.6875 
L 18.40625 0 
L 9.421875 0 
z
M 9.421875 75.984375 
L 18.40625 75.984375 
L 18.40625 64.59375 
L 9.421875 64.59375 
z
" id="DejaVuSans-105"/>
      <path d="M 52 44.1875 
Q 55.375 50.25 60.0625 53.125 
Q 64.75 56 71.09375 56 
Q 79.640625 56 84.28125 50.015625 
Q 88.921875 44.046875 88.921875 33.015625 
L 88.921875 0 
L 79.890625 0 
L 79.890625 32.71875 
Q 79.890625 40.578125 77.09375 44.375 
Q 74.3125 48.1875 68.609375 48.1875 
Q 61.625 48.1875 57.5625 43.546875 
Q 53.515625 38.921875 53.515625 30.90625 
L 53.515625 0 
L 44.484375 0 
L 44.484375 32.71875 
Q 44.484375 40.625 41.703125 44.40625 
Q 38.921875 48.1875 33.109375 48.1875 
Q 26.21875 48.1875 22.15625 43.53125 
Q 18.109375 38.875 18.109375 30.90625 
L 18.109375 0 
L 9.078125 0 
L 9.078125 54.6875 
L 18.109375 54.6875 
L 18.109375 46.1875 
Q 21.1875 51.21875 25.484375 53.609375 
Q 29.78125 56 35.6875 56 
Q 41.65625 56 45.828125 52.96875 
Q 50 49.953125 52 44.1875 
z
" id="DejaVuSans-109"/>
      <path d="M 56.203125 29.59375 
L 56.203125 25.203125 
L 14.890625 25.203125 
Q 15.484375 15.921875 20.484375 11.0625 
Q 25.484375 6.203125 34.421875 6.203125 
Q 39.59375 6.203125 44.453125 7.46875 
Q 49.3125 8.734375 54.109375 11.28125 
L 54.109375 2.78125 
Q 49.265625 0.734375 44.1875 -0.34375 
Q 39.109375 -1.421875 33.890625 -1.421875 
Q 20.796875 -1.421875 13.15625 6.1875 
Q 5.515625 13.8125 5.515625 26.8125 
Q 5.515625 40.234375 12.765625 48.109375 
Q 20.015625 56 32.328125 56 
Q 43.359375 56 49.78125 48.890625 
Q 56.203125 41.796875 56.203125 29.59375 
z
M 47.21875 32.234375 
Q 47.125 39.59375 43.09375 43.984375 
Q 39.0625 48.390625 32.421875 48.390625 
Q 24.90625 48.390625 20.390625 44.140625 
Q 15.875 39.890625 15.1875 32.171875 
z
" id="DejaVuSans-101"/>
      <path id="DejaVuSans-32"/>
      <path d="M 31 75.875 
Q 24.46875 64.65625 21.28125 53.65625 
Q 18.109375 42.671875 18.109375 31.390625 
Q 18.109375 20.125 21.3125 9.0625 
Q 24.515625 -2 31 -13.1875 
L 23.1875 -13.1875 
Q 15.875 -1.703125 12.234375 9.375 
Q 8.59375 20.453125 8.59375 31.390625 
Q 8.59375 42.28125 12.203125 53.3125 
Q 15.828125 64.359375 23.1875 75.875 
z
" id="DejaVuSans-40"/>
      <path d="M 54.890625 33.015625 
L 54.890625 0 
L 45.90625 0 
L 45.90625 32.71875 
Q 45.90625 40.484375 42.875 44.328125 
Q 39.84375 48.1875 33.796875 48.1875 
Q 26.515625 48.1875 22.3125 43.546875 
Q 18.109375 38.921875 18.109375 30.90625 
L 18.109375 0 
L 9.078125 0 
L 9.078125 54.6875 
L 18.109375 54.6875 
L 18.109375 46.1875 
Q 21.34375 51.125 25.703125 53.5625 
Q 30.078125 56 35.796875 56 
Q 45.21875 56 50.046875 50.171875 
Q 54.890625 44.34375 54.890625 33.015625 
z
" id="DejaVuSans-110"/>
      <path d="M 44.28125 53.078125 
L 44.28125 44.578125 
Q 40.484375 46.53125 36.375 47.5 
Q 32.28125 48.484375 27.875 48.484375 
Q 21.1875 48.484375 17.84375 46.4375 
Q 14.5 44.390625 14.5 40.28125 
Q 14.5 37.15625 16.890625 35.375 
Q 19.28125 33.59375 26.515625 31.984375 
L 29.59375 31.296875 
Q 39.15625 29.25 43.1875 25.515625 
Q 47.21875 21.78125 47.21875 15.09375 
Q 47.21875 7.46875 41.1875 3.015625 
Q 35.15625 -1.421875 24.609375 -1.421875 
Q 20.21875 -1.421875 15.453125 -0.5625 
Q 10.6875 0.296875 5.421875 2 
L 5.421875 11.28125 
Q 10.40625 8.6875 15.234375 7.390625 
Q 20.0625 6.109375 24.8125 6.109375 
Q 31.15625 6.109375 34.5625 8.28125 
Q 37.984375 10.453125 37.984375 14.40625 
Q 37.984375 18.0625 35.515625 20.015625 
Q 33.0625 21.96875 24.703125 23.78125 
L 21.578125 24.515625 
Q 13.234375 26.265625 9.515625 29.90625 
Q 5.8125 33.546875 5.8125 39.890625 
Q 5.8125 47.609375 11.28125 51.796875 
Q 16.75 56 26.8125 56 
Q 31.78125 56 36.171875 55.265625 
Q 40.578125 54.546875 44.28125 53.078125 
z
" id="DejaVuSans-115"/>
      <path d="M 48.78125 52.59375 
L 48.78125 44.1875 
Q 44.96875 46.296875 41.140625 47.34375 
Q 37.3125 48.390625 33.40625 48.390625 
Q 24.65625 48.390625 19.8125 42.84375 
Q 14.984375 37.3125 14.984375 27.296875 
Q 14.984375 17.28125 19.8125 11.734375 
Q 24.65625 6.203125 33.40625 6.203125 
Q 37.3125 6.203125 41.140625 7.25 
Q 44.96875 8.296875 48.78125 10.40625 
L 48.78125 2.09375 
Q 45.015625 0.34375 40.984375 -0.53125 
Q 36.96875 -1.421875 32.421875 -1.421875 
Q 20.0625 -1.421875 12.78125 6.34375 
Q 5.515625 14.109375 5.515625 27.296875 
Q 5.515625 40.671875 12.859375 48.328125 
Q 20.21875 56 33.015625 56 
Q 37.15625 56 41.109375 55.140625 
Q 45.0625 54.296875 48.78125 52.59375 
z
" id="DejaVuSans-99"/>
      <path d="M 30.609375 48.390625 
Q 23.390625 48.390625 19.1875 42.75 
Q 14.984375 37.109375 14.984375 27.296875 
Q 14.984375 17.484375 19.15625 11.84375 
Q 23.34375 6.203125 30.609375 6.203125 
Q 37.796875 6.203125 41.984375 11.859375 
Q 46.1875 17.53125 46.1875 27.296875 
Q 46.1875 37.015625 41.984375 42.703125 
Q 37.796875 48.390625 30.609375 48.390625 
z
M 30.609375 56 
Q 42.328125 56 49.015625 48.375 
Q 55.71875 40.765625 55.71875 27.296875 
Q 55.71875 13.875 49.015625 6.21875 
Q 42.328125 -1.421875 30.609375 -1.421875 
Q 18.84375 -1.421875 12.171875 6.21875 
Q 5.515625 13.875 5.515625 27.296875 
Q 5.515625 40.765625 12.171875 48.375 
Q 18.84375 56 30.609375 56 
z
" id="DejaVuSans-111"/>
      <path d="M 45.40625 46.390625 
L 45.40625 75.984375 
L 54.390625 75.984375 
L 54.390625 0 
L 45.40625 0 
L 45.40625 8.203125 
Q 42.578125 3.328125 38.25 0.953125 
Q 33.9375 -1.421875 27.875 -1.421875 
Q 17.96875 -1.421875 11.734375 6.484375 
Q 5.515625 14.40625 5.515625 27.296875 
Q 5.515625 40.1875 11.734375 48.09375 
Q 17.96875 56 27.875 56 
Q 33.9375 56 38.25 53.625 
Q 42.578125 51.265625 45.40625 46.390625 
z
M 14.796875 27.296875 
Q 14.796875 17.390625 18.875 11.75 
Q 22.953125 6.109375 30.078125 6.109375 
Q 37.203125 6.109375 41.296875 11.75 
Q 45.40625 17.390625 45.40625 27.296875 
Q 45.40625 37.203125 41.296875 42.84375 
Q 37.203125 48.484375 30.078125 48.484375 
Q 22.953125 48.484375 18.875 42.84375 
Q 14.796875 37.203125 14.796875 27.296875 
z
" id="DejaVuSans-100"/>
      <path d="M 8.015625 75.875 
L 15.828125 75.875 
Q 23.140625 64.359375 26.78125 53.3125 
Q 30.421875 42.28125 30.421875 31.390625 
Q 30.421875 20.453125 26.78125 9.375 
Q 23.140625 -1.703125 15.828125 -13.1875 
L 8.015625 -13.1875 
Q 14.5 -2 17.703125 9.0625 
Q 20.90625 20.125 20.90625 31.390625 
Q 20.90625 42.671875 17.703125 53.65625 
Q 14.5 64.65625 8.015625 75.875 
z
" id="DejaVuSans-41"/>
     </defs>
     <g transform="translate(191.6975 335.860562)scale(0.1 -0.1)">
      <use xlink:href="#DejaVuSans-84"/>
      <use x="61.037109" xlink:href="#DejaVuSans-105"/>
      <use x="88.820312" xlink:href="#DejaVuSans-109"/>
      <use x="186.232422" xlink:href="#DejaVuSans-101"/>
      <use x="247.755859" xlink:href="#DejaVuSans-32"/>
      <use x="279.542969" xlink:href="#DejaVuSans-40"/>
      <use x="318.556641" xlink:href="#DejaVuSans-105"/>
      <use x="346.339844" xlink:href="#DejaVuSans-110"/>
      <use x="409.71875" xlink:href="#DejaVuSans-32"/>
      <use x="441.505859" xlink:href="#DejaVuSans-115"/>
      <use x="493.605469" xlink:href="#DejaVuSans-101"/>
      <use x="555.128906" xlink:href="#DejaVuSans-99"/>
      <use x="610.109375" xlink:href="#DejaVuSans-111"/>
      <use x="671.291016" xlink:href="#DejaVuSans-110"/>
      <use x="734.669922" xlink:href="#DejaVuSans-100"/>
      <use x="798.146484" xlink:href="#DejaVuSans-115"/>
      <use x="850.246094" xlink:href="#DejaVuSans-41"/>
     </g>
    </g>
   </g>
   <g id="matplotlib.axis_2">
    <g id="ytick_1">
     <g id="line2d_10">
      <defs>
       <path d="M 0 0 
L -3.5 0 
" id="md949bda320" style="stroke:#000000;stroke-width:0.8;"/>
      </defs>
      <g>
       <use style="stroke:#000000;stroke-width:0.8;" x="57.6" xlink:href="#md949bda320" y="276.626655"/>
      </g>
     </g>
     <g id="text_11">
      <!-- 0 -->
      <g transform="translate(44.2375 280.425874)scale(0.1 -0.1)">
       <use xlink:href="#DejaVuSans-48"/>
      </g>
     </g>
    </g>
    <g id="ytick_2">
     <g id="line2d_11">
      <g>
       <use style="stroke:#000000;stroke-width:0.8;" x="57.6" xlink:href="#md949bda320" y="230.658448"/>
      </g>
     </g>
     <g id="text_12">
      <!-- 2 -->
      <g transform="translate(44.2375 234.457667)scale(0.1 -0.1)">
       <use xlink:href="#DejaVuSans-50"/>
      </g>
     </g>
    </g>
    <g id="ytick_3">
     <g id="line2d_12">
      <g>
       <use style="stroke:#000000;stroke-width:0.8;" x="57.6" xlink:href="#md949bda320" y="184.690241"/>
      </g>
     </g>
     <g id="text_13">
      <!-- 4 -->
      <defs>
       <path d="M 37.796875 64.3125 
L 12.890625 25.390625 
L 37.796875 25.390625 
z
M 35.203125 72.90625 
L 47.609375 72.90625 
L 47.609375 25.390625 
L 58.015625 25.390625 
L 58.015625 17.1875 
L 47.609375 17.1875 
L 47.609375 0 
L 37.796875 0 
L 37.796875 17.1875 
L 4.890625 17.1875 
L 4.890625 26.703125 
z
" id="DejaVuSans-52"/>
      </defs>
      <g transform="translate(44.2375 188.48946)scale(0.1 -0.1)">
       <use xlink:href="#DejaVuSans-52"/>
      </g>
     </g>
    </g>
    <g id="ytick_4">
     <g id="line2d_13">
      <g>
       <use style="stroke:#000000;stroke-width:0.8;" x="57.6" xlink:href="#md949bda320" y="138.722035"/>
      </g>
     </g>
     <g id="text_14">
      <!-- 6 -->
      <defs>
       <path d="M 33.015625 40.375 
Q 26.375 40.375 22.484375 35.828125 
Q 18.609375 31.296875 18.609375 23.390625 
Q 18.609375 15.53125 22.484375 10.953125 
Q 26.375 6.390625 33.015625 6.390625 
Q 39.65625 6.390625 43.53125 10.953125 
Q 47.40625 15.53125 47.40625 23.390625 
Q 47.40625 31.296875 43.53125 35.828125 
Q 39.65625 40.375 33.015625 40.375 
z
M 52.59375 71.296875 
L 52.59375 62.3125 
Q 48.875 64.0625 45.09375 64.984375 
Q 41.3125 65.921875 37.59375 65.921875 
Q 27.828125 65.921875 22.671875 59.328125 
Q 17.53125 52.734375 16.796875 39.40625 
Q 19.671875 43.65625 24.015625 45.921875 
Q 28.375 48.1875 33.59375 48.1875 
Q 44.578125 48.1875 50.953125 41.515625 
Q 57.328125 34.859375 57.328125 23.390625 
Q 57.328125 12.15625 50.6875 5.359375 
Q 44.046875 -1.421875 33.015625 -1.421875 
Q 20.359375 -1.421875 13.671875 8.265625 
Q 6.984375 17.96875 6.984375 36.375 
Q 6.984375 53.65625 15.1875 63.9375 
Q 23.390625 74.21875 37.203125 74.21875 
Q 40.921875 74.21875 44.703125 73.484375 
Q 48.484375 72.75 52.59375 71.296875 
z
" id="DejaVuSans-54"/>
      </defs>
      <g transform="translate(44.2375 142.521253)scale(0.1 -0.1)">
       <use xlink:href="#DejaVuSans-54"/>
      </g>
     </g>
    </g>
    <g id="ytick_5">
     <g id="line2d_14">
      <g>
       <use style="stroke:#000000;stroke-width:0.8;" x="57.6" xlink:href="#md949bda320" y="92.753828"/>
      </g>
     </g>
     <g id="text_15">
      <!-- 8 -->
      <defs>
       <path d="M 31.78125 34.625 
Q 24.75 34.625 20.71875 30.859375 
Q 16.703125 27.09375 16.703125 20.515625 
Q 16.703125 13.921875 20.71875 10.15625 
Q 24.75 6.390625 31.78125 6.390625 
Q 38.8125 6.390625 42.859375 10.171875 
Q 46.921875 13.96875 46.921875 20.515625 
Q 46.921875 27.09375 42.890625 30.859375 
Q 38.875 34.625 31.78125 34.625 
z
M 21.921875 38.8125 
Q 15.578125 40.375 12.03125 44.71875 
Q 8.5 49.078125 8.5 55.328125 
Q 8.5 64.0625 14.71875 69.140625 
Q 20.953125 74.21875 31.78125 74.21875 
Q 42.671875 74.21875 48.875 69.140625 
Q 55.078125 64.0625 55.078125 55.328125 
Q 55.078125 49.078125 51.53125 44.71875 
Q 48 40.375 41.703125 38.8125 
Q 48.828125 37.15625 52.796875 32.3125 
Q 56.78125 27.484375 56.78125 20.515625 
Q 56.78125 9.90625 50.3125 4.234375 
Q 43.84375 -1.421875 31.78125 -1.421875 
Q 19.734375 -1.421875 13.25 4.234375 
Q 6.78125 9.90625 6.78125 20.515625 
Q 6.78125 27.484375 10.78125 32.3125 
Q 14.796875 37.15625 21.921875 38.8125 
z
M 18.3125 54.390625 
Q 18.3125 48.734375 21.84375 45.5625 
Q 25.390625 42.390625 31.78125 42.390625 
Q 38.140625 42.390625 41.71875 45.5625 
Q 45.3125 48.734375 45.3125 54.390625 
Q 45.3125 60.0625 41.71875 63.234375 
Q 38.140625 66.40625 31.78125 66.40625 
Q 25.390625 66.40625 21.84375 63.234375 
Q 18.3125 60.0625 18.3125 54.390625 
z
" id="DejaVuSans-56"/>
      </defs>
      <g transform="translate(44.2375 96.553046)scale(0.1 -0.1)">
       <use xlink:href="#DejaVuSans-56"/>
      </g>
     </g>
    </g>
    <g id="ytick_6">
     <g id="line2d_15">
      <g>
       <use style="stroke:#000000;stroke-width:0.8;" x="57.6" xlink:href="#md949bda320" y="46.785621"/>
      </g>
     </g>
     <g id="text_16">
      <!-- 10 -->
      <g transform="translate(37.875 50.58484)scale(0.1 -0.1)">
       <use xlink:href="#DejaVuSans-49"/>
       <use x="63.623047" xlink:href="#DejaVuSans-48"/>
      </g>
     </g>
    </g>
    <g id="text_17">
     <!-- Magnitude -->
     <defs>
      <path d="M 9.8125 72.90625 
L 24.515625 72.90625 
L 43.109375 23.296875 
L 61.8125 72.90625 
L 76.515625 72.90625 
L 76.515625 0 
L 66.890625 0 
L 66.890625 64.015625 
L 48.09375 14.015625 
L 38.1875 14.015625 
L 19.390625 64.015625 
L 19.390625 0 
L 9.8125 0 
z
" id="DejaVuSans-77"/>
      <path d="M 34.28125 27.484375 
Q 23.390625 27.484375 19.1875 25 
Q 14.984375 22.515625 14.984375 16.5 
Q 14.984375 11.71875 18.140625 8.90625 
Q 21.296875 6.109375 26.703125 6.109375 
Q 34.1875 6.109375 38.703125 11.40625 
Q 43.21875 16.703125 43.21875 25.484375 
L 43.21875 27.484375 
z
M 52.203125 31.203125 
L 52.203125 0 
L 43.21875 0 
L 43.21875 8.296875 
Q 40.140625 3.328125 35.546875 0.953125 
Q 30.953125 -1.421875 24.3125 -1.421875 
Q 15.921875 -1.421875 10.953125 3.296875 
Q 6 8.015625 6 15.921875 
Q 6 25.140625 12.171875 29.828125 
Q 18.359375 34.515625 30.609375 34.515625 
L 43.21875 34.515625 
L 43.21875 35.40625 
Q 43.21875 41.609375 39.140625 45 
Q 35.0625 48.390625 27.6875 48.390625 
Q 23 48.390625 18.546875 47.265625 
Q 14.109375 46.140625 10.015625 43.890625 
L 10.015625 52.203125 
Q 14.9375 54.109375 19.578125 55.046875 
Q 24.21875 56 28.609375 56 
Q 40.484375 56 46.34375 49.84375 
Q 52.203125 43.703125 52.203125 31.203125 
z
" id="DejaVuSans-97"/>
      <path d="M 45.40625 27.984375 
Q 45.40625 37.75 41.375 43.109375 
Q 37.359375 48.484375 30.078125 48.484375 
Q 22.859375 48.484375 18.828125 43.109375 
Q 14.796875 37.75 14.796875 27.984375 
Q 14.796875 18.265625 18.828125 12.890625 
Q 22.859375 7.515625 30.078125 7.515625 
Q 37.359375 7.515625 41.375 12.890625 
Q 45.40625 18.265625 45.40625 27.984375 
z
M 54.390625 6.78125 
Q 54.390625 -7.171875 48.1875 -13.984375 
Q 42 -20.796875 29.203125 -20.796875 
Q 24.46875 -20.796875 20.265625 -20.09375 
Q 16.0625 -19.390625 12.109375 -17.921875 
L 12.109375 -9.1875 
Q 16.0625 -11.328125 19.921875 -12.34375 
Q 23.78125 -13.375 27.78125 -13.375 
Q 36.625 -13.375 41.015625 -8.765625 
Q 45.40625 -4.15625 45.40625 5.171875 
L 45.40625 9.625 
Q 42.625 4.78125 38.28125 2.390625 
Q 33.9375 0 27.875 0 
Q 17.828125 0 11.671875 7.65625 
Q 5.515625 15.328125 5.515625 27.984375 
Q 5.515625 40.671875 11.671875 48.328125 
Q 17.828125 56 27.875 56 
Q 33.9375 56 38.28125 53.609375 
Q 42.625 51.21875 45.40625 46.390625 
L 45.40625 54.6875 
L 54.390625 54.6875 
z
" id="DejaVuSans-103"/>
      <path d="M 18.3125 70.21875 
L 18.3125 54.6875 
L 36.8125 54.6875 
L 36.8125 47.703125 
L 18.3125 47.703125 
L 18.3125 18.015625 
Q 18.3125 11.328125 20.140625 9.421875 
Q 21.96875 7.515625 27.59375 7.515625 
L 36.8125 7.515625 
L 36.8125 0 
L 27.59375 0 
Q 17.1875 0 13.234375 3.875 
Q 9.28125 7.765625 9.28125 18.015625 
L 9.28125 47.703125 
L 2.6875 47.703125 
L 2.6875 54.6875 
L 9.28125 54.6875 
L 9.28125 70.21875 
z
" id="DejaVuSans-116"/>
      <path d="M 8.5 21.578125 
L 8.5 54.6875 
L 17.484375 54.6875 
L 17.484375 21.921875 
Q 17.484375 14.15625 20.5 10.265625 
Q 23.53125 6.390625 29.59375 6.390625 
Q 36.859375 6.390625 41.078125 11.03125 
Q 45.3125 15.671875 45.3125 23.6875 
L 45.3125 54.6875 
L 54.296875 54.6875 
L 54.296875 0 
L 45.3125 0 
L 45.3125 8.40625 
Q 42.046875 3.421875 37.71875 1 
Q 33.40625 -1.421875 27.6875 -1.421875 
Q 18.265625 -1.421875 13.375 4.4375 
Q 8.5 10.296875 8.5 21.578125 
z
M 31.109375 56 
z
" id="DejaVuSans-117"/>
     </defs>
     <g transform="translate(31.795312 201.017844)rotate(-90)scale(0.1 -0.1)">
      <use xlink:href="#DejaVuSans-77"/>
      <use x="86.279297" xlink:href="#DejaVuSans-97"/>
      <use x="147.558594" xlink:href="#DejaVuSans-103"/>
      <use x="211.035156" xlink:href="#DejaVuSans-110"/>
      <use x="274.414062" xlink:href="#DejaVuSans-105"/>
      <use x="302.197266" xlink:href="#DejaVuSans-116"/>
      <use x="341.40625" xlink:href="#DejaVuSans-117"/>
      <use x="404.785156" xlink:href="#DejaVuSans-100"/>
      <use x="468.261719" xlink:href="#DejaVuSans-101"/>
     </g>
    </g>
   </g>
   <g id="line2d_16">
    <path clip-path="url(#pf6e25b7794)" d="M 73.832727 53.953191 
L 74.389206 53.691792 
L 77.695325 53.939423 
L 79.610258 53.84312 
L 82.769074 53.994424 
L 82.834545 53.609256 
L 84.40577 53.9394 
L 86.860808 53.84312 
L 89.512255 53.746839 
L 89.512255 53.80184 
L 90.134196 53.925656 
L 93.06388 53.939446 
L 96.222696 53.939423 
L 96.271797 53.760584 
L 97.630252 53.84312 
L 97.662988 54.021936 
L 100.92001 53.884399 
L 100.92001 53.911911 
L 102.933141 53.815608 
L 102.949507 53.760584 
L 103.195013 53.925656 
L 106.40293 53.953168 
L 106.468401 53.746839 
L 109.643587 53.925656 
L 109.676318 53.994447 
L 109.709053 53.829352 
L 110.936574 53.898144 
L 110.969306 53.691792 
L 114.226328 53.884376 
L 114.25906 53.774351 
L 116.419495 53.719327 
L 116.435864 53.911911 
L 117.450615 53.760584 
L 122.851703 53.84312 
L 122.868068 53.760584 
L 123.048107 53.746816 
L 123.997387 53.911911 
L 126.239659 53.856887 
L 126.616098 53.911911 
L 129.578513 53.733049 
L 129.594879 53.829352 
L 129.594879 53.678025 
L 129.725817 53.856864 
L 130.691466 53.939423 
L 132.753699 53.733095 
L 133.293808 54.035704 
L 134.046687 53.746816 
L 136.043453 53.884399 
L 136.059819 54.008192 
L 137.320075 53.870632 
L 139.251374 53.70556 
L 139.251374 53.80184 
L 140.544362 53.994424 
L 142.606595 53.774351 
L 143.228536 53.898144 
L 143.932314 53.80184 
L 145.896348 53.856864 
L 146.763795 53.760584 
L 149.071534 53.911911 
L 149.906246 53.788096 
L 152.492222 53.925656 
L 153.768844 53.733049 
L 155.569209 53.843097 
L 155.585575 54.076983 
L 156.682158 53.815585 
L 157.058597 53.664257 
L 158.858963 53.815608 
L 158.891694 54.09075 
L 158.891694 53.953191 
L 162.13235 53.746816 
L 162.148716 54.035704 
L 162.165082 53.788096 
L 163.359868 53.788096 
L 165.43847 54.021936 
L 166.911493 53.815585 
L 166.911493 53.678025 
L 168.679123 53.856887 
L 168.695488 53.691792 
L 170.070313 53.84312 
L 170.086678 53.966935 
L 171.968876 54.118262 
L 172.034343 53.829375 
L 173.621938 53.609268 
L 173.654673 53.939423 
L 178.548384 53.80184 
L 178.597485 53.939423 
L 180.332383 53.691792 
L 180.365115 53.898144 
L 185.078794 53.815608 
L 185.09516 53.84312 
L 186.830054 53.980691 
L 186.830054 53.980691 
L 188.352182 53.911911 
L 188.384913 53.774351 
L 193.687803 53.870655 
L 194.882588 53.719327 
L 194.898954 53.870632 
L 196.879354 53.815585 
L 198.139607 54.035704 
L 198.155976 53.925656 
L 200.103641 53.719327 
L 201.462096 53.829352 
L 203.360659 53.84312 
L 203.393395 54.035704 
L 203.40976 53.84312 
L 204.686382 53.774351 
L 206.683148 53.856864 
L 207.141424 54.008192 
L 207.943401 53.884399 
L 210.120205 53.84312 
L 210.136571 53.678025 
L 210.169307 53.84312 
L 211.216789 54.008169 
L 213.442695 53.966935 
L 213.508162 53.746816 
L 213.524527 53.953168 
L 214.588379 53.953191 
L 216.634246 53.733072 
L 217.059787 53.980691 
L 217.77993 54.049471 
L 220.038568 53.760584 
L 220.054934 53.925679 
L 221.036953 53.66428 
L 223.181018 53.953191 
L 223.181018 53.80184 
L 224.310337 53.870632 
L 226.650811 54.008192 
L 227.289122 53.774351 
L 227.567359 53.911911 
L 234.032298 53.925679 
L 236.42187 54.021936 
L 236.454605 53.733072 
L 236.48734 53.80184 
L 237.240219 53.774351 
L 239.891662 53.884376 
L 239.940763 53.788107 
L 240.693642 54.021959 
L 243.16505 53.925656 
L 243.214151 53.774328 
L 243.246883 53.939423 
L 243.983396 53.856864 
L 246.47117 53.760584 
L 246.47117 53.898144 
L 247.322251 54.076983 
L 250.612005 53.898167 
L 253.034311 53.829352 
L 253.034311 53.829352 
L 253.050677 54.035704 
L 253.770825 53.856864 
L 256.454999 53.815608 
L 256.487734 53.911911 
L 257.060578 53.939423 
L 257.387917 53.815585 
L 259.728387 53.774351 
L 259.744756 53.953168 
L 259.761122 53.898144 
L 263.067242 54.049471 
L 263.099977 53.829352 
L 264.081992 53.898144 
L 266.226062 53.788107 
L 266.242427 53.939423 
L 266.258797 53.870609 
L 267.649983 53.829352 
L 270.792437 53.884376 
L 273.476616 53.760584 
L 274.311327 53.953191 
L 277.56835 53.80184 
L 279.499648 53.801863 
L 279.516014 54.008192 
L 279.941555 53.884422 
L 282.789402 53.884399 
L 282.838503 53.80184 
L 282.854869 53.966935 
L 283.247674 53.884399 
L 286.062786 53.829352 
L 287.781315 53.966935 
L 287.797685 53.815585 
L 292.805967 53.925656 
L 294.508126 53.719304 
L 294.508126 53.870632 
L 296.079351 53.966935 
L 296.079351 53.953168 
L 296.095721 53.829352 
L 297.748778 53.815608 
L 297.765148 53.953168 
L 299.647346 53.856864 
L 301.234937 54.049471 
L 301.251306 53.870632 
L 302.904364 53.746816 
L 304.426488 53.884399 
L 305.981347 53.925656 
L 306.014083 53.70556 
L 306.128651 53.953168 
L 307.945382 53.856864 
L 307.961748 53.66428 
L 309.254735 53.884376 
L 309.287471 54.090727 
L 311.087832 53.870609 
L 311.104202 53.66428 
L 311.120567 53.733049 
L 312.544489 53.898144 
L 314.623092 54.021959 
L 314.655823 53.719327 
L 315.866978 53.70556 
L 315.899714 53.925656 
L 317.831009 53.966935 
L 317.912845 53.760584 
L 317.912845 53.829375 
L 319.140366 53.746816 
L 319.156732 54.063215 
L 321.399004 53.788107 
L 321.415369 53.966935 
L 321.431735 53.719327 
L 322.544688 53.691792 
L 325.80171 53.870609 
L 328.125815 53.760584 
L 328.14218 53.966935 
L 328.158546 53.911888 
L 331.317366 53.760584 
L 331.350101 53.911911 
L 332.299381 53.966935 
L 332.332117 53.815608 
L 334.770789 53.788107 
L 334.852625 53.664257 
L 334.868991 53.829352 
L 335.62187 53.911911 
L 337.96234 53.884399 
L 337.995076 53.636745 
L 338.011441 53.856887 
L 341.481234 53.788096 
L 341.546701 53.994447 
L 341.579436 53.911888 
L 342.201378 54.008192 
L 344.787354 53.84312 
L 344.820089 53.966935 
L 344.836455 53.746816 
L 344.85282 53.953168 
L 345.507501 53.953191 
L 348.289878 53.815585 
L 348.306247 53.953168 
L 348.306247 53.733049 
L 348.895453 53.829352 
L 351.432332 53.691792 
L 351.514164 53.966935 
L 351.53053 53.911911 
L 354.967587 53.815585 
L 354.983957 53.733072 
L 354.983957 53.911911 
L 355.262194 54.104495 
L 358.175508 53.911911 
L 358.519213 53.925679 
L 361.661667 53.884399 
L 361.678033 53.746839 
L 361.710764 54.118262 
L 361.792601 53.760584 
L 364.918685 53.568 
L 364.95142 54.008192 
L 364.95142 53.939423 
L 368.388478 53.788107 
L 368.486676 53.568 
L 368.519411 53.953191 
L 371.596395 53.84312 
L 371.612761 54.021936 
L 371.645496 53.70556 
L 372.120138 53.856864 
L 375.066187 53.84312 
L 378.225003 53.70556 
L 378.274105 54.049448 
L 378.355941 53.953168 
L 381.776629 53.829352 
L 384.820881 53.898144 
L 384.820881 53.760584 
L 388.127 53.746816 
L 388.127 53.939423 
L 388.159735 53.70556 
L 388.683475 53.953168 
L 394.591939 53.829352 
L 394.690142 53.664257 
L 394.690142 53.746839 
L 394.706507 53.898144 
L 395.197515 53.994424 
L 397.848962 53.994424 
L 397.898063 53.595512 
L 397.914429 53.774351 
L 398.487273 54.090727 
L 398.487273 54.090727 
" style="fill:none;stroke:#1f77b4;stroke-linecap:square;stroke-width:1.5;"/>
   </g>
   <g id="line2d_17">
    <path clip-path="url(#pf6e25b7794)" d="M 73.832727 294.745146 
L 76.025898 294.607582 
L 76.074999 294.758902 
L 79.593889 294.676362 
L 79.610258 294.580068 
L 80.314036 294.566311 
L 81.099647 294.77266 
L 82.769074 294.827685 
L 82.818176 294.648851 
L 82.834545 294.745146 
L 84.40577 294.635093 
L 90.134196 294.786416 
L 90.968912 294.566311 
L 93.047511 294.648851 
L 93.06388 294.910225 
L 96.222696 294.73139 
L 96.255432 294.81393 
L 96.271797 294.703876 
L 97.630252 294.525042 
L 97.662988 294.662605 
L 99.757956 294.77266 
L 99.807057 294.662606 
L 99.807057 294.662606 
L 100.92001 294.580068 
L 100.92001 294.635093 
L 102.867674 294.690121 
L 102.933141 294.882712 
L 102.949507 294.800171 
L 103.195013 294.745146 
L 104.193394 294.758902 
L 106.40293 294.662607 
L 106.435665 294.538799 
L 106.468401 294.690121 
L 107.532249 294.676363 
L 109.659952 294.77266 
L 109.676318 294.48377 
L 109.709053 294.552555 
L 110.969306 294.923981 
L 113.047908 294.923983 
L 113.064274 294.414989 
L 114.226328 294.33245 
L 114.25906 294.525042 
L 116.403129 294.538798 
L 116.435864 295.075303 
L 117.450615 294.882711 
L 119.627416 294.786416 
L 119.676517 294.387476 
L 120.756734 294.497528 
L 122.835337 294.758902 
L 122.868068 295.061547 
L 123.048107 294.882711 
L 123.997387 295.020277 
L 126.190557 294.676362 
L 126.223293 294.401232 
L 126.239659 294.497529 
L 126.616098 294.607579 
L 129.578513 294.717632 
L 129.594879 294.96525 
L 129.594879 294.717632 
L 129.725817 294.77266 
L 130.691466 294.538799 
L 132.671863 294.456259 
L 132.737333 294.580068 
L 132.753699 294.910225 
L 134.046687 295.061547 
L 136.010717 294.607581 
L 136.059819 294.208641 
L 139.251374 295.488 
L 139.251374 295.130331 
L 140.544362 294.29118 
L 142.590229 294.236153 
L 142.606595 294.703875 
L 143.228536 295.047791 
L 143.932314 295.171599 
L 145.798146 295.212868 
L 145.896348 294.703876 
L 146.763795 294.428745 
L 149.055168 294.690119 
L 149.071534 295.020278 
L 152.410389 294.662606 
L 152.475856 294.538797 
L 152.492222 294.772657 
L 153.506972 294.731391 
L 153.768844 294.414989 
L 155.569209 294.387476 
L 155.585575 294.593825 
L 156.616691 294.690119 
L 156.682158 294.910225 
L 157.058597 295.075303 
L 158.858963 294.882712 
L 158.891694 294.566312 
L 160.168316 294.497528 
L 160.217417 294.648851 
L 162.13235 294.580068 
L 162.165082 294.841442 
L 165.43847 294.552556 
L 168.662757 294.868954 
L 168.679123 295.034034 
L 168.695488 294.937736 
L 170.086678 294.414989 
L 171.968876 294.456259 
L 172.017977 294.580068 
L 172.034343 295.00652 
L 173.638304 294.979009 
L 173.654673 294.648851 
L 175.225898 294.511285 
L 175.291365 294.648851 
L 178.597485 294.786416 
L 180.299648 294.676363 
L 180.332383 294.525042 
L 180.365115 294.703876 
L 181.78904 294.81393 
L 181.805406 294.979009 
L 183.589401 294.690119 
L 185.078794 294.470014 
L 185.09516 294.717634 
L 186.830054 294.717634 
L 186.830054 294.827685 
L 188.368548 294.910225 
L 188.384913 294.77266 
L 190.168909 294.690121 
L 190.201644 294.497529 
L 190.250745 294.648851 
L 191.6092 294.81393 
L 193.638701 294.937739 
L 193.687803 294.593823 
L 198.139607 294.979009 
L 198.155976 294.690119 
L 200.103641 294.745146 
L 200.103641 294.717634 
L 201.412994 294.841442 
L 201.462096 294.635093 
L 203.638896 294.745146 
L 204.686382 294.896468 
L 206.617681 294.96525 
L 206.683148 294.717634 
L 207.141424 294.552555 
L 207.943401 294.621337 
L 210.136571 294.690119 
L 210.169307 294.910225 
L 211.216789 294.758902 
L 213.442695 294.937738 
L 213.524527 294.511285 
L 214.572013 294.566311 
L 214.588379 294.731391 
L 216.634246 294.81393 
L 217.059787 294.676362 
L 217.77993 294.786416 
L 220.054934 294.758902 
L 220.595042 294.896468 
L 221.036953 294.786416 
L 224.310337 294.758902 
L 226.634445 294.758902 
L 226.634445 294.635093 
L 226.650811 294.786416 
L 227.567359 294.841442 
L 229.95693 294.731388 
L 229.989666 294.497528 
L 230.54614 294.758902 
L 233.213952 294.73139 
L 233.246684 294.690119 
L 233.263054 294.855198 
L 234.032298 294.745146 
L 236.454605 294.593825 
L 236.470971 294.470017 
L 236.48734 294.648851 
L 237.240219 294.841442 
L 240.693642 294.758902 
L 243.246883 294.593825 
L 243.983396 294.813928 
L 246.47117 294.855198 
L 246.47117 294.800174 
L 247.322251 294.635093 
L 250.579269 294.717634 
L 250.612005 294.827685 
L 253.034311 294.841442 
L 253.050677 294.676363 
L 253.770825 294.607582 
L 256.471368 294.703876 
L 256.487734 294.758902 
L 269.548551 294.648851 
L 270.776068 294.593825 
L 270.792437 294.717634 
L 272.952873 294.841441 
L 273.001974 294.96525 
L 273.034705 294.786416 
L 273.476616 294.566311 
L 274.311327 294.525042 
L 276.242626 294.621337 
L 276.258992 294.772657 
L 277.56835 294.937736 
L 279.499648 294.717634 
L 279.516014 294.635093 
L 279.941555 294.621337 
L 281.021772 294.73139 
L 282.838503 294.648851 
L 282.854869 294.868956 
L 284.29516 294.580068 
L 286.062786 294.483773 
L 286.537428 294.800171 
L 287.797685 294.786416 
L 289.483478 294.937738 
L 289.516213 294.731391 
L 291.021971 294.580067 
L 292.740496 294.593825 
L 292.805967 294.855199 
L 294.508126 294.855198 
L 294.508126 294.662605 
L 297.732413 294.648849 
L 297.748778 294.827685 
L 297.765148 294.77266 
L 299.647346 294.703876 
L 302.593391 294.690119 
L 302.658862 294.745146 
L 302.904364 294.635093 
L 305.981347 294.635093 
L 306.128651 294.855198 
L 307.961748 294.648849 
L 311.087832 294.77266 
L 311.120567 294.635093 
L 314.655823 294.703876 
L 317.831009 294.621338 
L 317.912845 294.813928 
L 319.156732 294.703875 
L 321.415369 294.566311 
L 321.431735 294.772657 
L 321.431735 294.648849 
L 322.544688 294.841442 
L 324.590555 294.786416 
L 324.62329 294.552555 
L 325.80171 294.635093 
L 328.125815 294.690119 
L 328.158546 294.896469 
L 329.058729 294.717634 
L 331.333732 294.676362 
L 331.350101 294.552555 
L 332.332117 294.800172 
L 334.852625 294.827685 
L 334.868991 294.662606 
L 335.62187 294.648851 
L 337.995076 294.841442 
L 338.011441 294.635093 
L 342.201378 294.855198 
L 344.820089 294.745146 
L 344.836455 294.593825 
L 344.85282 294.77266 
L 348.257146 294.676363 
L 348.273512 294.951494 
L 348.306247 294.580068 
L 352.13611 294.758902 
L 355.262194 294.800171 
L 358.142773 294.896468 
L 358.142773 294.882712 
L 358.175508 294.538798 
L 358.519213 294.593823 
L 361.661667 294.552555 
L 361.678033 294.868954 
L 361.710764 294.635093 
L 361.792601 294.758902 
L 364.853218 294.73139 
L 364.918685 294.910225 
L 364.95142 294.800171 
L 364.95142 294.538799 
L 368.388478 294.635093 
L 368.486676 294.483773 
L 368.503046 294.841442 
L 368.519411 294.841441 
L 371.645496 294.73139 
L 371.645496 294.745146 
L 372.120138 294.77266 
L 374.93525 294.621338 
L 374.951615 294.800171 
L 374.967985 294.580068 
L 374.984351 294.580068 
L 375.066187 294.676363 
L 378.225003 294.813928 
L 378.29047 294.979009 
L 378.29047 294.758902 
L 378.355941 294.717634 
L 381.645695 294.635093 
L 381.645695 294.786416 
L 381.776629 294.800171 
L 384.804511 294.786416 
L 384.820881 294.607582 
L 384.820881 294.786416 
L 388.127 294.676366 
L 388.127 294.77266 
L 388.143366 295.006521 
L 388.159735 294.635093 
L 388.683475 294.662606 
L 391.253085 294.676362 
L 391.28582 294.538798 
L 391.302186 294.868955 
L 391.711361 294.73139 
L 395.197515 294.745146 
L 397.848962 294.73139 
L 397.881693 294.566311 
L 397.898063 294.841442 
L 397.914429 294.676363 
L 398.487273 294.648849 
L 398.487273 294.648849 
" style="fill:none;stroke:#ff7f0e;stroke-linecap:square;stroke-width:1.5;"/>
   </g>
   <g id="line2d_18">
    <path clip-path="url(#pf6e25b7794)" d="M 73.832727 270.543451 
L 74.389206 270.639747 
L 76.074999 270.447155 
L 77.040648 270.598476 
L 77.057014 270.722286 
L 77.695325 270.653503 
L 79.577523 270.653503 
L 79.593889 270.405885 
L 79.610258 270.529694 
L 80.314036 270.736042 
L 81.099647 270.791069 
L 82.818176 270.667259 
L 82.834545 270.502181 
L 83.571055 270.337102 
L 84.40577 270.543451 
L 86.304334 270.832338 
L 86.3207 270.653503 
L 89.47952 270.309589 
L 89.512255 270.598476 
L 89.512255 270.54345 
L 90.134196 270.694772 
L 90.968912 270.612234 
L 93.047511 270.515938 
L 93.06388 270.433398 
L 94.422335 270.625989 
L 94.455066 270.818582 
L 96.222696 270.722286 
L 96.271797 270.543451 
L 97.630252 270.337102 
L 97.662988 270.598476 
L 99.807057 270.694773 
L 100.92001 270.419642 
L 102.933141 270.612234 
L 102.949507 270.667259 
L 103.195013 270.58472 
L 104.193394 270.515938 
L 106.40293 270.722285 
L 106.435665 270.58472 
L 106.452031 270.736042 
L 106.468401 270.639747 
L 109.659952 270.557207 
L 109.676318 270.625989 
L 109.709053 270.570964 
L 110.969306 270.736042 
L 113.047908 270.694772 
L 113.064274 270.350859 
L 114.226328 270.502181 
L 114.25906 270.832338 
L 116.419495 270.873608 
L 116.435864 270.447154 
L 119.660151 270.584721 
L 119.676517 270.653503 
L 120.723999 270.722287 
L 120.756734 270.570964 
L 122.835337 270.570964 
L 122.851703 270.694772 
L 122.868068 270.667259 
L 123.048107 270.529694 
L 126.190557 270.736042 
L 126.223293 270.584721 
L 126.239659 270.681017 
L 127.45081 270.460911 
L 129.594879 270.667259 
L 129.594879 270.58472 
L 129.725817 270.392128 
L 130.691466 270.694772 
L 132.671863 270.584721 
L 132.737333 270.804825 
L 132.737333 270.584719 
L 132.753699 270.447155 
L 134.046687 270.639747 
L 136.059819 270.625989 
L 137.320075 270.557206 
L 139.251374 270.529694 
L 139.251374 270.323346 
L 140.036985 270.433398 
L 140.544362 270.667259 
L 142.606595 270.667259 
L 143.228536 270.488424 
L 143.932314 270.543451 
L 146.74743 270.612234 
L 146.763795 270.859851 
L 149.055168 270.557206 
L 149.071534 270.282076 
L 149.88988 270.447155 
L 149.906246 270.749798 
L 152.410389 270.694772 
L 152.475856 270.846095 
L 152.492222 270.584721 
L 153.490606 270.515937 
L 153.506972 270.639747 
L 153.768844 270.543451 
L 155.569209 270.612234 
L 155.585575 270.763555 
L 158.858963 270.337102 
L 158.891694 270.584721 
L 160.217417 270.804825 
L 162.148716 270.639747 
L 162.165082 270.213293 
L 163.327136 270.460911 
L 163.359868 270.791068 
L 165.422104 270.818582 
L 165.422104 270.763555 
L 165.43847 270.447155 
L 166.911493 270.419642 
L 166.911493 270.543451 
L 168.662757 270.529694 
L 168.679123 270.804825 
L 168.695488 270.694772 
L 170.070313 270.58472 
L 170.086678 270.460911 
L 172.034343 270.667259 
L 173.621938 270.295833 
L 173.654673 270.914878 
L 175.225898 271.038686 
L 175.291365 270.350859 
L 176.764388 270.350858 
L 176.780758 270.598476 
L 178.548384 271.190008 
L 178.597485 270.956147 
L 180.299648 270.818582 
L 180.365115 270.185781 
L 181.805406 270.818582 
L 183.5403 271.038686 
L 183.589401 270.543451 
L 186.813688 270.529694 
L 186.830054 270.914877 
L 188.368548 270.846096 
L 188.384913 270.667259 
L 190.201644 270.584721 
L 190.250745 270.859851 
L 191.576465 270.62599 
L 191.6092 270.804825 
L 193.638701 270.887365 
L 193.671433 270.447155 
L 193.687803 270.557206 
L 194.898954 270.66726 
L 196.846619 270.736042 
L 196.879354 270.392128 
L 198.139607 270.584719 
L 198.155976 270.722286 
L 200.087271 270.694772 
L 200.103641 270.873608 
L 200.103641 270.612234 
L 201.462096 270.722285 
L 203.40976 270.681017 
L 203.638896 270.708529 
L 206.666783 270.694772 
L 206.683148 270.873608 
L 207.141424 270.791068 
L 207.943401 270.914877 
L 211.216789 270.667259 
L 213.442695 270.667259 
L 213.508162 270.901121 
L 213.524527 270.804825 
L 214.588379 270.694772 
L 217.77993 270.722285 
L 220.005832 270.818582 
L 220.038568 270.681017 
L 220.054934 270.777312 
L 221.036953 270.639747 
L 223.148287 270.612234 
L 223.181018 270.749799 
L 223.181018 270.612234 
L 223.819329 270.694772 
L 224.310337 270.625989 
L 226.634445 270.447155 
L 226.634445 270.846095 
L 226.650811 270.777312 
L 227.289122 270.557207 
L 227.567359 270.639747 
L 229.95693 270.447155 
L 229.95693 270.543451 
L 229.989666 270.763555 
L 230.54614 270.639747 
L 233.263054 270.598476 
L 234.032298 270.667259 
L 236.470971 270.722285 
L 236.48734 270.502181 
L 239.891662 270.653503 
L 239.940763 270.708529 
L 240.693642 270.584721 
L 243.16505 270.405885 
L 243.197782 270.612234 
L 243.246883 270.570964 
L 243.983396 270.612234 
L 243.983396 270.488424 
L 246.47117 270.612234 
L 246.47117 270.447155 
L 247.289516 270.433398 
L 247.322251 270.694772 
L 250.612005 270.625989 
L 253.050677 270.598476 
L 253.770825 270.378372 
L 256.454999 270.447154 
L 256.487734 270.708529 
L 257.060578 270.667259 
L 257.387917 270.460911 
L 260.350332 270.502181 
L 260.874075 270.722285 
L 263.067242 270.653503 
L 263.099977 270.543451 
L 264.081992 270.337102 
L 266.258797 270.639747 
L 267.649983 270.584721 
L 269.548551 270.612233 
L 270.792437 270.653503 
L 272.952873 270.502181 
L 273.034705 270.736042 
L 273.476616 270.598476 
L 274.311327 270.474668 
L 276.258992 270.749799 
L 276.717268 270.557206 
L 279.466913 270.598476 
L 279.499648 270.736042 
L 279.516014 270.62599 
L 279.941555 270.625989 
L 281.021772 270.502181 
L 282.854869 270.543451 
L 283.247674 270.667259 
L 284.29516 270.502181 
L 286.030055 270.557207 
L 286.062786 270.433398 
L 286.537428 270.708529 
L 287.781315 270.557206 
L 287.797685 270.708529 
L 289.516213 270.515937 
L 291.021971 270.62599 
L 292.740496 270.460911 
L 292.805967 270.667259 
L 294.508126 270.460911 
L 296.079351 270.639747 
L 296.079351 270.460911 
L 296.095721 270.667259 
L 301.251306 270.557207 
L 302.593391 270.694773 
L 302.658862 270.543451 
L 302.904364 270.584721 
L 304.410122 270.433398 
L 304.426488 270.667259 
L 305.981347 270.694772 
L 306.014083 270.818582 
L 306.128651 270.419642 
L 307.961748 270.474668 
L 311.104202 270.639746 
L 311.120567 270.529694 
L 312.544489 270.460911 
L 314.639457 270.474668 
L 314.655823 270.749799 
L 315.866978 270.818582 
L 315.899714 270.557207 
L 317.912845 270.460911 
L 317.912845 270.598476 
L 319.156732 270.846096 
L 321.399004 270.749799 
L 321.431735 270.460911 
L 322.544688 270.653503 
L 324.574189 270.804825 
L 324.590555 270.681017 
L 324.62329 270.736042 
L 325.80171 270.557207 
L 328.093079 270.433398 
L 328.158546 270.708529 
L 329.042363 270.639747 
L 329.058729 270.488424 
L 332.332117 270.681017 
L 334.770789 270.791068 
L 334.868991 270.58472 
L 338.011441 270.694772 
L 338.878889 270.681016 
L 341.481234 270.447154 
L 341.579436 270.818582 
L 341.579436 270.791068 
L 344.820089 270.777312 
L 344.836455 270.612234 
L 344.85282 270.791068 
L 345.507501 270.722286 
L 348.257146 270.914878 
L 348.289878 270.694772 
L 348.306247 270.763555 
L 348.895453 270.708529 
L 351.497799 270.859851 
L 351.514164 270.956147 
L 351.53053 270.859851 
L 352.13611 270.736042 
L 354.983957 270.763556 
L 354.983957 270.763555 
L 355.262194 270.58472 
L 358.175508 270.777312 
L 358.519213 270.557207 
L 361.661667 270.639747 
L 361.678033 271.038686 
L 361.710764 270.694773 
L 361.792601 270.681017 
L 364.853218 270.337102 
L 364.95142 270.887365 
L 364.95142 270.777312 
L 368.388478 270.694772 
L 368.486676 270.557207 
L 368.519411 270.653504 
L 371.563663 270.763555 
L 371.596395 270.515938 
L 371.612761 270.777312 
L 371.645496 270.667259 
L 372.120138 270.763555 
L 374.967985 270.529694 
L 374.984351 270.708529 
L 375.066187 270.598476 
L 378.225003 270.612234 
L 378.274105 270.914878 
L 378.29047 270.694772 
L 378.355941 270.529694 
L 381.547493 270.557207 
L 381.629325 270.846095 
L 381.645695 270.804825 
L 381.776629 270.694772 
L 384.788145 270.653503 
L 384.820881 270.832338 
L 384.820881 270.791069 
L 388.127 270.405885 
L 388.159735 270.777312 
L 388.159735 270.722286 
L 388.683475 270.777312 
L 391.28582 270.749799 
L 391.28582 270.749799 
L 391.302186 270.667259 
L 391.711361 270.598476 
L 394.591939 270.26832 
L 394.706507 270.763555 
L 395.197515 270.584721 
L 397.881693 270.749799 
L 397.898063 270.570964 
L 397.914429 270.639747 
L 398.487273 270.392128 
L 398.487273 270.392128 
" style="fill:none;stroke:#2ca02c;stroke-linecap:square;stroke-width:1.5;"/>
   </g>
   <g id="patch_3">
    <path d="M 57.6 307.584 
L 57.6 41.472 
" style="fill:none;stroke:#000000;stroke-linecap:square;stroke-linejoin:miter;stroke-width:0.8;"/>
   </g>
   <g id="patch_4">
    <path d="M 414.72 307.584 
L 414.72 41.472 
" style="fill:none;stroke:#000000;stroke-linecap:square;stroke-linejoin:miter;stroke-width:0.8;"/>
   </g>
   <g id="patch_5">
    <path d="M 57.6 307.584 
L 414.72 307.584 
" style="fill:none;stroke:#000000;stroke-linecap:square;stroke-linejoin:miter;stroke-width:0.8;"/>
   </g>
   <g id="patch_6">
    <path d="M 57.6 41.472 
L 414.72 41.472 
" style="fill:none;stroke:#000000;stroke-linecap:square;stroke-linejoin:miter;stroke-width:0.8;"/>
   </g>
   <g id="text_18">
    <!-- OnePLus 7T/car_off/accelerometer Dec 09 120833.txt -->
    <defs>
     <path d="M 39.40625 66.21875 
Q 28.65625 66.21875 22.328125 58.203125 
Q 16.015625 50.203125 16.015625 36.375 
Q 16.015625 22.609375 22.328125 14.59375 
Q 28.65625 6.59375 39.40625 6.59375 
Q 50.140625 6.59375 56.421875 14.59375 
Q 62.703125 22.609375 62.703125 36.375 
Q 62.703125 50.203125 56.421875 58.203125 
Q 50.140625 66.21875 39.40625 66.21875 
z
M 39.40625 74.21875 
Q 54.734375 74.21875 63.90625 63.9375 
Q 73.09375 53.65625 73.09375 36.375 
Q 73.09375 19.140625 63.90625 8.859375 
Q 54.734375 -1.421875 39.40625 -1.421875 
Q 24.03125 -1.421875 14.8125 8.828125 
Q 5.609375 19.09375 5.609375 36.375 
Q 5.609375 53.65625 14.8125 63.9375 
Q 24.03125 74.21875 39.40625 74.21875 
z
" id="DejaVuSans-79"/>
     <path d="M 19.671875 64.796875 
L 19.671875 37.40625 
L 32.078125 37.40625 
Q 38.96875 37.40625 42.71875 40.96875 
Q 46.484375 44.53125 46.484375 51.125 
Q 46.484375 57.671875 42.71875 61.234375 
Q 38.96875 64.796875 32.078125 64.796875 
z
M 9.8125 72.90625 
L 32.078125 72.90625 
Q 44.34375 72.90625 50.609375 67.359375 
Q 56.890625 61.8125 56.890625 51.125 
Q 56.890625 40.328125 50.609375 34.8125 
Q 44.34375 29.296875 32.078125 29.296875 
L 19.671875 29.296875 
L 19.671875 0 
L 9.8125 0 
z
" id="DejaVuSans-80"/>
     <path d="M 9.8125 72.90625 
L 19.671875 72.90625 
L 19.671875 8.296875 
L 55.171875 8.296875 
L 55.171875 0 
L 9.8125 0 
z
" id="DejaVuSans-76"/>
     <path d="M 25.390625 72.90625 
L 33.6875 72.90625 
L 8.296875 -9.28125 
L 0 -9.28125 
z
" id="DejaVuSans-47"/>
     <path d="M 41.109375 46.296875 
Q 39.59375 47.171875 37.8125 47.578125 
Q 36.03125 48 33.890625 48 
Q 26.265625 48 22.1875 43.046875 
Q 18.109375 38.09375 18.109375 28.8125 
L 18.109375 0 
L 9.078125 0 
L 9.078125 54.6875 
L 18.109375 54.6875 
L 18.109375 46.1875 
Q 20.953125 51.171875 25.484375 53.578125 
Q 30.03125 56 36.53125 56 
Q 37.453125 56 38.578125 55.875 
Q 39.703125 55.765625 41.0625 55.515625 
z
" id="DejaVuSans-114"/>
     <path d="M 50.984375 -16.609375 
L 50.984375 -23.578125 
L -0.984375 -23.578125 
L -0.984375 -16.609375 
z
" id="DejaVuSans-95"/>
     <path d="M 37.109375 75.984375 
L 37.109375 68.5 
L 28.515625 68.5 
Q 23.6875 68.5 21.796875 66.546875 
Q 19.921875 64.59375 19.921875 59.515625 
L 19.921875 54.6875 
L 34.71875 54.6875 
L 34.71875 47.703125 
L 19.921875 47.703125 
L 19.921875 0 
L 10.890625 0 
L 10.890625 47.703125 
L 2.296875 47.703125 
L 2.296875 54.6875 
L 10.890625 54.6875 
L 10.890625 58.5 
Q 10.890625 67.625 15.140625 71.796875 
Q 19.390625 75.984375 28.609375 75.984375 
z
" id="DejaVuSans-102"/>
     <path d="M 9.421875 75.984375 
L 18.40625 75.984375 
L 18.40625 0 
L 9.421875 0 
z
" id="DejaVuSans-108"/>
     <path d="M 19.671875 64.796875 
L 19.671875 8.109375 
L 31.59375 8.109375 
Q 46.6875 8.109375 53.6875 14.9375 
Q 60.6875 21.78125 60.6875 36.53125 
Q 60.6875 51.171875 53.6875 57.984375 
Q 46.6875 64.796875 31.59375 64.796875 
z
M 9.8125 72.90625 
L 30.078125 72.90625 
Q 51.265625 72.90625 61.171875 64.09375 
Q 71.09375 55.28125 71.09375 36.53125 
Q 71.09375 17.671875 61.125 8.828125 
Q 51.171875 0 30.078125 0 
L 9.8125 0 
z
" id="DejaVuSans-68"/>
     <path d="M 10.984375 1.515625 
L 10.984375 10.5 
Q 14.703125 8.734375 18.5 7.8125 
Q 22.3125 6.890625 25.984375 6.890625 
Q 35.75 6.890625 40.890625 13.453125 
Q 46.046875 20.015625 46.78125 33.40625 
Q 43.953125 29.203125 39.59375 26.953125 
Q 35.25 24.703125 29.984375 24.703125 
Q 19.046875 24.703125 12.671875 31.3125 
Q 6.296875 37.9375 6.296875 49.421875 
Q 6.296875 60.640625 12.9375 67.421875 
Q 19.578125 74.21875 30.609375 74.21875 
Q 43.265625 74.21875 49.921875 64.515625 
Q 56.59375 54.828125 56.59375 36.375 
Q 56.59375 19.140625 48.40625 8.859375 
Q 40.234375 -1.421875 26.421875 -1.421875 
Q 22.703125 -1.421875 18.890625 -0.6875 
Q 15.09375 0.046875 10.984375 1.515625 
z
M 30.609375 32.421875 
Q 37.25 32.421875 41.125 36.953125 
Q 45.015625 41.5 45.015625 49.421875 
Q 45.015625 57.28125 41.125 61.84375 
Q 37.25 66.40625 30.609375 66.40625 
Q 23.96875 66.40625 20.09375 61.84375 
Q 16.21875 57.28125 16.21875 49.421875 
Q 16.21875 41.5 20.09375 36.953125 
Q 23.96875 32.421875 30.609375 32.421875 
z
" id="DejaVuSans-57"/>
     <path d="M 40.578125 39.3125 
Q 47.65625 37.796875 51.625 33 
Q 55.609375 28.21875 55.609375 21.1875 
Q 55.609375 10.40625 48.1875 4.484375 
Q 40.765625 -1.421875 27.09375 -1.421875 
Q 22.515625 -1.421875 17.65625 -0.515625 
Q 12.796875 0.390625 7.625 2.203125 
L 7.625 11.71875 
Q 11.71875 9.328125 16.59375 8.109375 
Q 21.484375 6.890625 26.8125 6.890625 
Q 36.078125 6.890625 40.9375 10.546875 
Q 45.796875 14.203125 45.796875 21.1875 
Q 45.796875 27.640625 41.28125 31.265625 
Q 36.765625 34.90625 28.71875 34.90625 
L 20.21875 34.90625 
L 20.21875 43.015625 
L 29.109375 43.015625 
Q 36.375 43.015625 40.234375 45.921875 
Q 44.09375 48.828125 44.09375 54.296875 
Q 44.09375 59.90625 40.109375 62.90625 
Q 36.140625 65.921875 28.71875 65.921875 
Q 24.65625 65.921875 20.015625 65.03125 
Q 15.375 64.15625 9.8125 62.3125 
L 9.8125 71.09375 
Q 15.4375 72.65625 20.34375 73.4375 
Q 25.25 74.21875 29.59375 74.21875 
Q 40.828125 74.21875 47.359375 69.109375 
Q 53.90625 64.015625 53.90625 55.328125 
Q 53.90625 49.265625 50.4375 45.09375 
Q 46.96875 40.921875 40.578125 39.3125 
z
" id="DejaVuSans-51"/>
     <path d="M 54.890625 54.6875 
L 35.109375 28.078125 
L 55.90625 0 
L 45.3125 0 
L 29.390625 21.484375 
L 13.484375 0 
L 2.875 0 
L 24.125 28.609375 
L 4.6875 54.6875 
L 15.28125 54.6875 
L 29.78125 35.203125 
L 44.28125 54.6875 
z
" id="DejaVuSans-120"/>
    </defs>
    <g transform="translate(74.742188 35.472)scale(0.12 -0.12)">
     <use xlink:href="#DejaVuSans-79"/>
     <use x="78.710938" xlink:href="#DejaVuSans-110"/>
     <use x="142.089844" xlink:href="#DejaVuSans-101"/>
     <use x="203.613281" xlink:href="#DejaVuSans-80"/>
     <use x="263.916016" xlink:href="#DejaVuSans-76"/>
     <use x="319.613281" xlink:href="#DejaVuSans-117"/>
     <use x="382.992188" xlink:href="#DejaVuSans-115"/>
     <use x="435.091797" xlink:href="#DejaVuSans-32"/>
     <use x="466.878906" xlink:href="#DejaVuSans-55"/>
     <use x="530.501953" xlink:href="#DejaVuSans-84"/>
     <use x="591.585938" xlink:href="#DejaVuSans-47"/>
     <use x="625.277344" xlink:href="#DejaVuSans-99"/>
     <use x="680.257812" xlink:href="#DejaVuSans-97"/>
     <use x="741.537109" xlink:href="#DejaVuSans-114"/>
     <use x="782.650391" xlink:href="#DejaVuSans-95"/>
     <use x="832.650391" xlink:href="#DejaVuSans-111"/>
     <use x="893.832031" xlink:href="#DejaVuSans-102"/>
     <use x="929.037109" xlink:href="#DejaVuSans-102"/>
     <use x="964.242188" xlink:href="#DejaVuSans-47"/>
     <use x="997.933594" xlink:href="#DejaVuSans-97"/>
     <use x="1059.212891" xlink:href="#DejaVuSans-99"/>
     <use x="1114.193359" xlink:href="#DejaVuSans-99"/>
     <use x="1169.173828" xlink:href="#DejaVuSans-101"/>
     <use x="1230.697266" xlink:href="#DejaVuSans-108"/>
     <use x="1258.480469" xlink:href="#DejaVuSans-101"/>
     <use x="1320.003906" xlink:href="#DejaVuSans-114"/>
     <use x="1361.085938" xlink:href="#DejaVuSans-111"/>
     <use x="1422.267578" xlink:href="#DejaVuSans-109"/>
     <use x="1519.679688" xlink:href="#DejaVuSans-101"/>
     <use x="1581.203125" xlink:href="#DejaVuSans-116"/>
     <use x="1620.412109" xlink:href="#DejaVuSans-101"/>
     <use x="1681.935547" xlink:href="#DejaVuSans-114"/>
     <use x="1723.048828" xlink:href="#DejaVuSans-32"/>
     <use x="1754.835938" xlink:href="#DejaVuSans-68"/>
     <use x="1831.837891" xlink:href="#DejaVuSans-101"/>
     <use x="1893.361328" xlink:href="#DejaVuSans-99"/>
     <use x="1948.341797" xlink:href="#DejaVuSans-32"/>
     <use x="1980.128906" xlink:href="#DejaVuSans-48"/>
     <use x="2043.751953" xlink:href="#DejaVuSans-57"/>
     <use x="2107.375" xlink:href="#DejaVuSans-32"/>
     <use x="2139.162109" xlink:href="#DejaVuSans-49"/>
     <use x="2202.785156" xlink:href="#DejaVuSans-50"/>
     <use x="2266.408203" xlink:href="#DejaVuSans-48"/>
     <use x="2330.03125" xlink:href="#DejaVuSans-56"/>
     <use x="2393.654297" xlink:href="#DejaVuSans-51"/>
     <use x="2457.277344" xlink:href="#DejaVuSans-51"/>
     <use x="2520.900391" xlink:href="#DejaVuSans-46"/>
     <use x="2552.6875" xlink:href="#DejaVuSans-116"/>
     <use x="2591.896484" xlink:href="#DejaVuSans-120"/>
     <use x="2651.076172" xlink:href="#DejaVuSans-116"/>
    </g>
   </g>
   <g id="legend_1">
    <g id="patch_7">
     <path d="M 344.52 198.045187 
L 407.72 198.045187 
Q 409.72 198.045187 409.72 196.045187 
L 409.72 153.010812 
Q 409.72 151.010812 407.72 151.010812 
L 344.52 151.010812 
Q 342.52 151.010812 342.52 153.010812 
L 342.52 196.045187 
Q 342.52 198.045187 344.52 198.045187 
z
" style="fill:#ffffff;opacity:0.8;stroke:#cccccc;stroke-linejoin:miter;"/>
    </g>
    <g id="line2d_19">
     <path d="M 346.52 159.10925 
L 366.52 159.10925 
" style="fill:none;stroke:#1f77b4;stroke-linecap:square;stroke-width:1.5;"/>
    </g>
    <g id="line2d_20"/>
    <g id="text_19">
     <!-- X-Axis -->
     <defs>
      <path d="M 6.296875 72.90625 
L 16.890625 72.90625 
L 35.015625 45.796875 
L 53.21875 72.90625 
L 63.8125 72.90625 
L 40.375 37.890625 
L 65.375 0 
L 54.78125 0 
L 34.28125 31 
L 13.625 0 
L 2.984375 0 
L 29 38.921875 
z
" id="DejaVuSans-88"/>
      <path d="M 4.890625 31.390625 
L 31.203125 31.390625 
L 31.203125 23.390625 
L 4.890625 23.390625 
z
" id="DejaVuSans-45"/>
      <path d="M 34.1875 63.1875 
L 20.796875 26.90625 
L 47.609375 26.90625 
z
M 28.609375 72.90625 
L 39.796875 72.90625 
L 67.578125 0 
L 57.328125 0 
L 50.6875 18.703125 
L 17.828125 18.703125 
L 11.1875 0 
L 0.78125 0 
z
" id="DejaVuSans-65"/>
     </defs>
     <g transform="translate(374.52 162.60925)scale(0.1 -0.1)">
      <use xlink:href="#DejaVuSans-88"/>
      <use x="68.427734" xlink:href="#DejaVuSans-45"/>
      <use x="104.480469" xlink:href="#DejaVuSans-65"/>
      <use x="172.888672" xlink:href="#DejaVuSans-120"/>
      <use x="232.068359" xlink:href="#DejaVuSans-105"/>
      <use x="259.851562" xlink:href="#DejaVuSans-115"/>
     </g>
    </g>
    <g id="line2d_21">
     <path d="M 346.52 173.787375 
L 366.52 173.787375 
" style="fill:none;stroke:#ff7f0e;stroke-linecap:square;stroke-width:1.5;"/>
    </g>
    <g id="line2d_22"/>
    <g id="text_20">
     <!-- Y-Axis -->
     <defs>
      <path d="M -0.203125 72.90625 
L 10.40625 72.90625 
L 30.609375 42.921875 
L 50.6875 72.90625 
L 61.28125 72.90625 
L 35.5 34.71875 
L 35.5 0 
L 25.59375 0 
L 25.59375 34.71875 
z
" id="DejaVuSans-89"/>
     </defs>
     <g transform="translate(374.52 177.287375)scale(0.1 -0.1)">
      <use xlink:href="#DejaVuSans-89"/>
      <use x="60.912109" xlink:href="#DejaVuSans-45"/>
      <use x="96.964844" xlink:href="#DejaVuSans-65"/>
      <use x="165.373047" xlink:href="#DejaVuSans-120"/>
      <use x="224.552734" xlink:href="#DejaVuSans-105"/>
      <use x="252.335938" xlink:href="#DejaVuSans-115"/>
     </g>
    </g>
    <g id="line2d_23">
     <path d="M 346.52 188.4655 
L 366.52 188.4655 
" style="fill:none;stroke:#2ca02c;stroke-linecap:square;stroke-width:1.5;"/>
    </g>
    <g id="line2d_24"/>
    <g id="text_21">
     <!-- Z-Axis -->
     <defs>
      <path d="M 5.609375 72.90625 
L 62.890625 72.90625 
L 62.890625 65.375 
L 16.796875 8.296875 
L 64.015625 8.296875 
L 64.015625 0 
L 4.5 0 
L 4.5 7.515625 
L 50.59375 64.59375 
L 5.609375 64.59375 
z
" id="DejaVuSans-90"/>
     </defs>
     <g transform="translate(374.52 191.9655)scale(0.1 -0.1)">
      <use xlink:href="#DejaVuSans-90"/>
      <use x="68.490234" xlink:href="#DejaVuSans-45"/>
      <use x="104.542969" xlink:href="#DejaVuSans-65"/>
      <use x="172.951172" xlink:href="#DejaVuSans-120"/>
      <use x="232.130859" xlink:href="#DejaVuSans-105"/>
      <use x="259.914062" xlink:href="#DejaVuSans-115"/>
     </g>
    </g>
   </g>
  </g>
 </g>
 <defs>
  <clipPath id="pf6e25b7794">
   <rect height="266.112" width="357.12" x="57.6" y="41.472"/>
  </clipPath>
 </defs>
</svg>
